<?xml version="1.0" encoding="UTF-8" standalone="no"?>
<!-- This is a Stata 15.1 generated SVG file (http://www.stata.com) -->

<svg version="1.1" width="600px" height="436px" viewBox="0 0 3960 2880" xmlns="http://www.w3.org/2000/svg" xmlns:xlink="http://www.w3.org/1999/xlink">
	<desc>Stata Graph - Graph</desc>
	<rect x="0" y="0" width="3960" height="2880" style="fill:#E1E6F0;stroke:none"/>
	<rect x="0.00" y="0.00" width="3959.88" height="2880.00" style="fill:#E1E6F0"/>
	<rect x="2.88" y="2.88" width="3954.12" height="2874.24" style="fill:none;stroke:#E1E6F0;stroke-width:5.76"/>
	<rect x="390.80" y="100.86" width="3468.22" height="2132.77" style="fill:#FFFFFF"/>
	<rect x="393.68" y="103.74" width="3462.46" height="2127.01" style="fill:none;stroke:#FFFFFF;stroke-width:5.76"/>
	<line x1="390.80" y1="2170.27" x2="3859.02" y2="2170.27" style="stroke:#E1E6F0;stroke-width:8.64"/>
	<line x1="390.80" y1="1501.63" x2="3859.02" y2="1501.63" style="stroke:#E1E6F0;stroke-width:8.64"/>
	<line x1="390.80" y1="832.86" x2="3859.02" y2="832.86" style="stroke:#E1E6F0;stroke-width:8.64"/>
	<path d=" M662.56 2168.91 L667.01 2167.80 L671.47 2165.94 L676.05 2163.09 L680.50 2159.01 L685.08 2153.32 L689.53 2145.52 L693.99 2135.74 L698.57 2123.74 L703.02 2109.88 L707.60 2094.78 L712.06 2079.56 L716.64 2065.20 L721.09 2052.95 L725.55 2044.29 L730.13 2039.83 L734.58 2040.21 L739.16 2045.40 L743.61 2054.81 L748.07 2067.43 L752.65 2082.04 L757.10 2097.38 L761.68 2112.35 L766.14 2125.84 L770.72 2137.48 L775.17 2147.01 L779.63 2154.43 L784.20 2159.88 L788.66 2163.71 L793.24 2166.31 L797.69 2167.92 L802.27 2169.03 L806.73 2169.65 L811.18 2170.02 L815.76 2170.15 L820.22 2170.27 L824.79 2170.40 L829.25 2170.40 L833.70 2170.40 L838.28 2170.40 L842.74 2170.40 L847.32 2170.40 L851.77 2170.40 L856.35 2170.40 L860.80 2170.40 L865.26 2170.40 L869.84 2170.40 L874.29 2170.40 L878.87 2170.40 L883.33 2170.40 L887.78 2170.40 L892.36 2170.40 L896.82 2170.40 L901.39 2170.40 L905.85 2170.40 L910.43 2170.40 L914.88 2170.40 L919.34 2170.40 L923.92 2170.40 L928.37 2170.40 L932.95 2170.40 L937.41 2170.40 L941.86 2170.40 L946.44 2170.40 L950.89 2170.40 L955.47 2170.40 L959.93 2170.40 L964.51 2170.40 L968.96 2170.40 L973.42 2170.40 L978.00 2170.40 L982.45 2170.40 L987.03 2170.40 L991.49 2170.40 L995.94 2170.40 L1000.52 2170.40 L1004.97 2170.40 L1009.55 2170.40 L1014.01 2170.40 L1018.59 2170.40 L1023.04 2170.40 L1027.50 2170.40 L1032.08 2170.40 L1036.53 2170.40 L1041.11 2170.40 L1045.56 2170.40 L1050.02 2170.40 L1054.60 2170.40 L1059.05 2170.40 L1063.63 2170.40 L1068.09 2170.40 L1072.66 2170.40 L1077.12 2170.40 L1081.58 2170.40 L1086.15 2170.40 L1090.61 2170.40 L1095.19 2170.40 L1099.64 2170.40 L1104.10 2170.40 L1108.68 2170.40 L1113.13 2170.40 L1117.71 2170.40 L1122.16 2170.40 L1126.74 2170.40 L1131.20 2170.40 L1135.65 2170.40 L1140.23 2170.40 L1144.69 2170.40 L1149.27 2170.40 L1153.72 2170.40 L1158.18 2170.40 L1162.76 2170.40 L1167.21 2170.40 L1171.79 2170.40 L1176.24 2170.40 L1180.82 2170.40 L1185.28 2170.40 L1189.73 2170.40 L1194.31 2170.40 L1198.77 2170.40 L1203.35 2170.40 L1207.80 2170.40 L1212.26 2170.40 L1216.83 2170.40 L1221.29 2170.27 L1225.87 2170.15 L1230.32 2169.90 L1234.90 2169.53 L1239.36 2168.91 L1243.81 2167.80 L1248.39 2165.94 L1252.85 2163.09 L1257.42 2159.01 L1261.88 2153.32 L1266.33 2145.64 L1270.91 2135.74 L1275.37 2123.74 L1279.95 2109.88 L1284.40 2094.91 L1288.98 2079.56 L1293.43 2065.20 L1297.89 2053.08 L1302.47 2044.29 L1306.92 2039.83 L1311.50 2040.21 L1315.96 2045.40 L1320.54 2054.81 L1324.99 2067.43 L1329.45 2082.04 L1334.03 2097.38 L1338.48 2112.23 L1343.06 2125.84 L1347.51 2137.48 L1351.97 2147.01 L1356.55 2154.31 L1361.00 2159.75 L1365.58 2163.71 L1370.04 2166.31 L1374.62 2167.92 L1379.07 2169.03 L1383.53 2169.65 L1388.10 2170.02 L1392.56 2170.15 L1397.14 2170.27 L1401.59 2170.40 L1406.05 2170.40 L1410.63 2170.40 L1415.08 2170.40 L1419.66 2170.40 L1424.12 2170.40 L1428.69 2170.40 L1433.15 2170.40 L1437.60 2170.40 L1442.18 2170.40 L1446.64 2170.27 L1451.22 2170.27 L1455.67 2170.15 L1460.13 2169.90 L1464.70 2169.41 L1469.16 2168.66 L1473.74 2167.30 L1478.19 2165.20 L1482.77 2162.10 L1487.23 2157.52 L1491.68 2151.09 L1496.26 2142.67 L1500.72 2132.16 L1505.30 2119.41 L1509.75 2105.05 L1514.20 2089.71 L1518.78 2074.49 L1523.24 2060.63 L1527.82 2049.36 L1532.27 2041.82 L1536.85 2038.97 L1541.31 2041.07 L1545.76 2047.76 L1550.34 2058.40 L1554.80 2072.01 L1559.37 2087.11 L1563.83 2102.33 L1568.28 2116.81 L1572.86 2129.56 L1577.32 2139.95 L1581.90 2147.87 L1586.35 2153.19 L1590.93 2155.79 L1595.38 2155.79 L1599.84 2153.19 L1604.42 2148.00 L1608.87 2140.08 L1613.45 2129.68 L1617.91 2117.06 L1622.36 2102.58 L1626.94 2087.23 L1631.40 2072.13 L1635.97 2058.65 L1640.43 2047.88 L1645.01 2041.07 L1649.46 2038.97 L1653.92 2041.82 L1658.50 2049.24 L1662.95 2060.38 L1667.53 2074.24 L1671.99 2089.58 L1676.44 2104.93 L1681.02 2119.28 L1685.47 2132.03 L1690.05 2142.67 L1694.51 2151.09 L1699.09 2157.40 L1703.54 2161.98 L1708.00 2165.20 L1712.58 2167.30 L1717.03 2168.54 L1721.61 2169.41 L1726.07 2169.90 L1730.52 2170.15 L1735.10 2170.27 L1739.55 2170.27 L1744.13 2170.40 L1748.59 2170.40 L1753.17 2170.40 L1757.62 2170.40 L1762.08 2170.40 L1766.65 2170.40 L1771.11 2170.40 L1775.69 2170.40 L1780.14 2170.40 L1784.60 2170.40 L1789.18 2170.27 L1793.63 2170.15 L1798.21 2170.02 L1802.67 2169.65 L1807.24 2169.03 L1811.70 2168.04 L1816.15 2166.44 L1820.73 2163.84 L1825.19 2160.12 L1829.77 2154.80 L1834.22 2147.50 L1838.68 2138.10 L1843.26 2126.59 L1847.71 2113.10 L1852.29 2098.25 L1856.74 2082.90 L1861.32 2068.17 L1865.78 2055.18 L1870.23 2045.28 L1874.81 2039.34 L1879.27 2037.73 L1883.85 2040.45 L1888.30 2046.64 L1892.88 2055.30 L1897.34 2064.59 L1901.79 2073.00 L1906.37 2078.94 L1910.82 2081.05 L1915.40 2078.57 L1919.86 2071.27 L1924.31 2059.14 L1928.89 2042.68 L1933.35 2022.26 L1937.92 1998.38 L1942.38 1970.78 L1946.96 1939.22 L1951.41 1902.96 L1955.87 1861.38 L1960.45 1813.98 L1964.90 1760.77 L1969.48 1702.85 L1973.94 1641.84 L1978.39 1580.46 L1982.97 1521.43 L1987.42 1467.84 L1992.00 1422.18 L1996.46 1386.04 L2001.04 1360.55 L2005.49 1345.58 L2009.95 1340.25 L2014.53 1343.35 L2018.98 1353.25 L2023.56 1368.22 L2028.02 1386.54 L2032.47 1406.59 L2037.05 1427.13 L2041.50 1447.43 L2046.08 1467.23 L2050.54 1486.78 L2055.12 1506.83 L2059.57 1528.36 L2064.03 1552.49 L2068.61 1579.72 L2073.06 1609.79 L2077.64 1641.72 L2082.09 1673.52 L2086.55 1702.73 L2091.13 1726.49 L2095.58 1742.08 L2100.16 1747.78 L2104.62 1742.95 L2109.20 1728.35 L2113.65 1706.07 L2118.11 1679.34 L2122.68 1652.11 L2127.14 1628.48 L2131.72 1612.14 L2136.17 1605.71 L2140.63 1611.15 L2145.21 1628.60 L2149.66 1657.56 L2154.24 1695.92 L2158.70 1741.22 L2163.27 1790.35 L2167.73 1839.85 L2172.18 1886.50 L2176.76 1927.34 L2181.22 1959.64 L2185.80 1981.18 L2190.25 1990.33 L2194.71 1985.75 L2199.28 1966.94 L2203.74 1933.65 L2208.32 1886.38 L2212.77 1826.11 L2217.35 1754.71 L2221.81 1674.27 L2226.26 1587.89 L2230.84 1498.78 L2235.30 1410.18 L2239.88 1325.28 L2244.33 1246.08 L2248.78 1174.18 L2253.36 1109.58 L2257.82 1051.41 L2262.40 997.83 L2266.85 946.72 L2271.43 896.23 L2275.89 844.87 L2280.34 792.52 L2284.92 740.54 L2289.38 691.41 L2293.95 649.09 L2298.41 618.52 L2302.86 604.41 L2307.44 611.10 L2311.90 640.92 L2316.48 694.14 L2320.93 768.26 L2325.51 858.11 L2329.97 956.37 L2334.42 1054.51 L2339.00 1144.48 L2343.45 1219.47 L2348.03 1275.04 L2352.49 1309.69 L2356.94 1324.91 L2361.52 1324.41 L2365.98 1313.40 L2370.55 1297.44 L2375.01 1281.35 L2379.59 1268.48 L2384.04 1260.43 L2388.50 1257.22 L2393.08 1257.71 L2397.53 1260.19 L2402.11 1262.78 L2406.57 1264.27 L2411.02 1264.27 L2415.60 1263.28 L2420.05 1262.41 L2424.63 1263.16 L2429.09 1267.24 L2433.67 1275.65 L2438.12 1289.52 L2442.58 1308.70 L2447.16 1332.46 L2451.61 1359.56 L2456.19 1387.90 L2460.64 1415.99 L2465.22 1441.98 L2469.68 1465.12 L2474.13 1485.05 L2478.71 1502.62 L2483.17 1519.20 L2487.75 1536.40 L2492.20 1556.20 L2496.66 1579.97 L2501.24 1608.43 L2505.69 1641.22 L2510.27 1677.11 L2514.72 1714.11 L2519.30 1749.51 L2523.76 1780.94 L2528.21 1806.44 L2532.79 1825.00 L2537.25 1836.63 L2541.82 1842.45 L2546.28 1844.55 L2550.74 1844.92 L2555.31 1845.67 L2559.77 1848.39 L2564.35 1853.83 L2568.80 1862.12 L2573.38 1872.40 L2577.84 1883.91 L2582.29 1895.41 L2586.87 1906.06 L2591.32 1914.97 L2595.90 1922.02 L2600.36 1927.10 L2604.81 1929.94 L2609.39 1930.93 L2613.85 1930.19 L2618.43 1927.96 L2622.88 1924.50 L2627.46 1919.67 L2631.91 1913.85 L2636.37 1907.17 L2640.95 1899.62 L2645.40 1891.45 L2649.98 1883.16 L2654.44 1874.75 L2658.89 1866.95 L2663.47 1860.27 L2667.93 1855.07 L2672.51 1852.10 L2676.96 1851.61 L2681.54 1853.96 L2685.99 1859.15 L2690.45 1866.83 L2695.03 1876.85 L2699.48 1888.61 L2704.06 1901.23 L2708.52 1914.22 L2712.97 1927.10 L2717.55 1939.35 L2722.01 1951.35 L2726.58 1963.11 L2731.04 1975.36 L2735.62 1988.60 L2740.07 2003.08 L2744.53 2019.29 L2749.11 2036.86 L2753.56 2055.30 L2758.14 2073.87 L2762.59 2091.81 L2767.05 2108.02 L2771.63 2122.13 L2776.08 2133.39 L2780.66 2141.56 L2785.12 2146.51 L2789.70 2148.00 L2794.15 2146.26 L2798.61 2141.19 L2803.18 2133.02 L2807.64 2121.88 L2812.22 2108.39 L2816.67 2093.30 L2821.13 2077.21 L2825.71 2061.37 L2830.16 2046.77 L2834.74 2033.89 L2839.20 2023.38 L2843.78 2014.84 L2848.23 2007.66 L2852.68 2000.61 L2857.26 1992.56 L2861.72 1982.29 L2866.30 1969.42 L2870.75 1953.95 L2875.21 1937.24 L2879.79 1921.16 L2884.24 1907.91 L2888.82 1899.75 L2893.28 1898.63 L2897.85 1905.69 L2902.31 1920.66 L2906.76 1942.69 L2911.34 1970.04 L2915.80 2000.36 L2920.38 2031.17 L2924.83 2060.63 L2929.29 2086.86 L2933.86 2109.26 L2938.32 2127.21 L2942.90 2141.07 L2947.35 2151.21 L2951.93 2158.27 L2956.39 2162.97 L2960.84 2166.06 L2965.42 2167.92" stroke-linecap="round" stroke-linejoin="round" style="fill:none;stroke:#273F6F;stroke-width:8.64"/>
	<path d=" M593.01 2169.65 L597.84 2169.41 L602.54 2169.03 L607.37 2168.66 L612.19 2168.04 L616.89 2167.43 L621.72 2166.56 L626.42 2165.45 L631.25 2164.21 L636.08 2162.72 L640.78 2160.87 L645.60 2158.76 L650.43 2156.41 L655.13 2153.81 L659.96 2150.72 L664.66 2147.50 L669.49 2143.91 L674.31 2140.08 L679.02 2136.12 L683.84 2132.03 L688.54 2127.95 L693.37 2123.86 L698.20 2120.03 L702.90 2116.31 L707.73 2113.10 L712.55 2110.13 L717.25 2107.90 L722.08 2106.17 L726.78 2105.05 L731.61 2104.56 L736.44 2104.93 L741.14 2105.92 L745.97 2107.53 L750.67 2109.76 L755.49 2112.60 L760.32 2115.82 L765.02 2119.41 L769.85 2123.25 L774.67 2127.33 L779.38 2131.41 L784.20 2135.50 L788.91 2139.46 L793.73 2143.29 L798.56 2146.88 L803.26 2150.22 L808.09 2153.32 L812.79 2156.04 L817.62 2158.51 L822.44 2160.62 L827.14 2162.48 L831.97 2163.96 L836.67 2165.32 L841.50 2166.31 L846.33 2167.30 L851.03 2167.92 L855.86 2168.54 L860.68 2169.03 L865.38 2169.41 L870.21 2169.65 L874.91 2169.78 L879.74 2170.02 L884.57 2170.15 L889.27 2170.15 L894.09 2170.27 L898.80 2170.27 L903.62 2170.27 L908.45 2170.40 L913.15 2170.40 L917.98 2170.40 L922.80 2170.40 L927.51 2170.40 L932.33 2170.40 L937.03 2170.40 L941.86 2170.40 L946.69 2170.40 L951.39 2170.40 L956.22 2170.40 L960.92 2170.40 L965.75 2170.40 L970.57 2170.40 L975.27 2170.40 L980.10 2170.40 L984.93 2170.40 L989.63 2170.40 L994.46 2170.40 L999.16 2170.40 L1003.98 2170.40 L1008.81 2170.40 L1013.51 2170.40 L1018.34 2170.40 L1023.04 2170.40 L1027.87 2170.40 L1032.69 2170.40 L1037.40 2170.40 L1042.22 2170.40 L1047.05 2170.40 L1051.75 2170.40 L1056.58 2170.40 L1061.28 2170.40 L1066.11 2170.40 L1070.93 2170.40 L1075.63 2170.40 L1080.46 2170.40 L1085.16 2170.40 L1089.99 2170.40 L1094.82 2170.40 L1099.52 2170.40 L1104.35 2170.40 L1109.17 2170.40 L1113.87 2170.40 L1118.70 2170.40 L1123.40 2170.40 L1128.23 2170.40 L1133.06 2170.40 L1137.76 2170.27 L1142.58 2170.27 L1147.29 2170.27 L1152.11 2170.15 L1156.94 2170.02 L1161.64 2170.02 L1166.47 2169.78 L1171.29 2169.53 L1176.00 2169.28 L1180.82 2168.91 L1185.53 2168.42 L1190.35 2167.92 L1195.18 2167.18 L1199.88 2166.19 L1204.71 2165.07 L1209.41 2163.84 L1214.23 2162.23 L1219.06 2160.37 L1223.76 2158.14 L1228.59 2155.67 L1233.42 2152.95 L1238.12 2149.85 L1242.94 2146.51 L1247.65 2142.80 L1252.47 2138.96 L1257.30 2135.00 L1262.00 2130.92 L1266.83 2126.83 L1271.53 2122.75 L1276.36 2118.91 L1281.18 2115.45 L1285.89 2112.23 L1290.71 2109.51 L1295.54 2107.28 L1300.24 2105.80 L1305.07 2104.93 L1309.77 2104.68 L1314.60 2105.18 L1319.42 2106.29 L1324.13 2108.15 L1328.95 2110.50 L1333.65 2113.47 L1338.48 2116.81 L1343.31 2120.52 L1348.01 2124.36 L1352.84 2128.44 L1357.54 2132.53 L1362.36 2136.61 L1367.19 2140.45 L1371.89 2144.28 L1376.72 2147.75 L1381.55 2150.84 L1386.25 2153.81 L1391.07 2156.29 L1395.78 2158.39 L1400.60 2160.25 L1405.43 2161.73 L1410.13 2162.85 L1414.96 2163.59 L1419.66 2163.96 L1424.49 2164.08 L1429.31 2163.71 L1434.02 2163.09 L1438.84 2162.10 L1443.67 2160.87 L1448.37 2159.13 L1453.20 2157.15 L1457.90 2154.68 L1462.72 2151.96 L1467.55 2148.86 L1472.25 2145.52 L1477.08 2141.81 L1481.78 2137.97 L1486.61 2133.89 L1491.43 2129.80 L1496.14 2125.60 L1500.96 2121.51 L1505.79 2117.68 L1510.49 2113.96 L1515.32 2110.62 L1520.02 2107.65 L1524.85 2105.18 L1529.67 2103.20 L1534.38 2101.71 L1539.20 2100.85 L1543.90 2100.35 L1548.73 2100.35 L1553.56 2100.85 L1558.26 2101.59 L1563.09 2102.45 L1567.91 2103.44 L1572.62 2104.56 L1577.44 2105.42 L1582.14 2106.17 L1586.97 2106.79 L1591.80 2106.91 L1596.50 2106.91 L1601.33 2106.54 L1606.03 2105.92 L1610.85 2105.05 L1615.68 2104.06 L1620.38 2102.95 L1625.21 2101.96 L1630.04 2101.09 L1634.74 2100.47 L1639.56 2100.23 L1644.27 2100.35 L1649.09 2100.97 L1653.92 2102.21 L1658.62 2103.82 L1663.45 2106.04 L1668.15 2108.77 L1672.98 2111.86 L1677.80 2115.32 L1682.51 2119.16 L1687.33 2123.25 L1692.16 2127.33 L1696.86 2131.54 L1701.69 2135.62 L1706.39 2139.58 L1711.21 2143.42 L1716.04 2147.01 L1720.74 2150.22 L1725.57 2153.19 L1730.27 2155.79 L1735.10 2158.02 L1739.92 2159.88 L1744.63 2161.49 L1749.45 2162.60 L1754.28 2163.47 L1758.98 2163.96 L1763.81 2164.08 L1768.51 2163.84 L1773.34 2163.34 L1778.16 2162.35 L1782.87 2161.11 L1787.69 2159.50 L1792.39 2157.40 L1797.22 2155.05 L1802.05 2152.20 L1806.75 2148.99 L1811.58 2145.40 L1816.40 2141.44 L1821.11 2136.98 L1825.93 2132.40 L1830.63 2127.33 L1835.46 2122.13 L1840.29 2116.69 L1844.99 2110.99 L1849.82 2105.05 L1854.52 2098.99 L1859.34 2092.80 L1864.17 2086.49 L1868.87 2079.81 L1873.70 2072.88 L1878.40 2065.58 L1883.23 2057.78 L1888.05 2049.24 L1892.76 2039.96 L1897.58 2029.69 L1902.41 2018.30 L1907.11 2005.56 L1911.94 1991.45 L1916.64 1975.61 L1921.47 1958.16 L1926.29 1938.98 L1930.99 1918.06 L1935.82 1895.41 L1940.52 1871.03 L1945.35 1845.42 L1950.18 1818.44 L1954.88 1790.59 L1959.70 1762.26 L1964.53 1733.54 L1969.23 1704.96 L1974.06 1677.11 L1978.76 1650.13 L1983.59 1624.64 L1988.41 1600.76 L1993.12 1579.22 L1997.94 1559.92 L2002.65 1543.33 L2007.47 1529.60 L2012.30 1518.83 L2017.00 1511.03 L2021.83 1506.21 L2026.65 1504.10 L2031.36 1504.85 L2036.18 1507.94 L2040.88 1513.26 L2045.71 1520.56 L2050.54 1529.35 L2055.24 1539.62 L2060.07 1550.76 L2064.77 1562.52 L2069.59 1574.64 L2074.42 1587.02 L2079.12 1599.15 L2083.95 1611.15 L2088.78 1622.78 L2093.48 1633.92 L2098.30 1644.57 L2103.01 1654.84 L2107.83 1664.61 L2112.66 1674.14 L2117.36 1683.30 L2122.19 1692.21 L2126.89 1701.00 L2131.72 1709.54 L2136.54 1717.83 L2141.25 1725.75 L2146.07 1733.05 L2150.90 1739.48 L2155.60 1744.81 L2160.43 1748.77 L2165.13 1750.62 L2169.96 1750.37 L2174.78 1747.28 L2179.49 1741.09 L2184.31 1731.32 L2189.01 1717.83 L2193.84 1700.25 L2198.67 1678.60 L2203.37 1652.73 L2208.20 1622.78 L2213.02 1589.00 L2217.72 1551.63 L2222.55 1511.03 L2227.25 1467.84 L2232.08 1422.55 L2236.91 1375.90 L2241.61 1328.62 L2246.43 1281.22 L2251.14 1234.69 L2255.96 1189.77 L2260.79 1146.95 L2265.49 1107.10 L2270.32 1070.84 L2275.14 1038.54 L2279.85 1010.82 L2284.67 987.93 L2289.38 970.11 L2294.20 957.36 L2299.03 949.93 L2303.73 947.58 L2308.56 949.93 L2313.26 956.74 L2318.09 967.63 L2322.91 981.86 L2327.61 998.94 L2332.44 1018.25 L2337.27 1039.16 L2341.97 1060.94 L2346.80 1083.22 L2351.50 1105.37 L2356.32 1126.90 L2361.15 1147.57 L2365.85 1167.00 L2370.68 1185.07 L2375.38 1201.77 L2380.21 1217.12 L2385.03 1231.10 L2389.74 1243.85 L2394.56 1255.73 L2399.26 1266.99 L2404.09 1277.63 L2408.92 1288.15 L2413.62 1298.80 L2418.45 1309.69 L2423.27 1320.95 L2427.97 1332.95 L2432.80 1345.82 L2437.50 1359.44 L2442.33 1374.16 L2447.16 1389.88 L2451.86 1406.46 L2456.68 1424.16 L2461.39 1442.72 L2466.21 1462.03 L2471.04 1482.20 L2475.74 1502.87 L2480.57 1524.15 L2485.39 1545.69 L2490.10 1567.47 L2494.92 1589.37 L2499.63 1611.03 L2504.45 1632.56 L2509.28 1653.72 L2513.98 1674.27 L2518.81 1694.19 L2523.51 1713.50 L2528.34 1731.81 L2533.16 1749.26 L2537.86 1765.84 L2542.69 1781.31 L2547.52 1795.67 L2552.22 1809.03 L2557.05 1821.29 L2561.75 1832.55 L2566.57 1842.70 L2571.40 1851.85 L2576.10 1860.02 L2580.93 1867.20 L2585.63 1873.51 L2590.46 1878.83 L2595.28 1883.29 L2599.99 1887.00 L2604.81 1889.97 L2609.64 1892.20 L2614.34 1893.81 L2619.17 1894.92 L2623.87 1895.41 L2628.70 1895.66 L2633.52 1895.66 L2638.23 1895.41 L2643.05 1895.17 L2647.76 1895.04 L2652.58 1895.04 L2657.41 1895.41 L2662.11 1896.28 L2666.94 1897.77 L2671.76 1899.75 L2676.47 1902.59 L2681.29 1906.06 L2685.99 1910.51 L2690.82 1915.71 L2695.65 1921.65 L2700.35 1928.58 L2705.18 1936.13 L2709.88 1944.42 L2714.70 1953.33 L2719.53 1962.86 L2724.23 1972.64 L2729.06 1982.78 L2733.89 1992.93 L2738.59 2003.20 L2743.41 2013.23 L2748.12 2023.00 L2752.94 2032.16 L2757.77 2040.83 L2762.47 2048.62 L2767.30 2055.55 L2772.00 2061.49 L2776.83 2066.44 L2781.65 2070.03 L2786.36 2072.51 L2791.18 2073.74 L2796.01 2073.74 L2800.71 2072.63 L2805.54 2070.40 L2810.24 2067.06 L2815.07 2062.73 L2819.89 2057.78 L2824.59 2052.09 L2829.42 2045.90 L2834.12 2039.46 L2838.95 2032.90 L2843.78 2026.35 L2848.48 2020.16 L2853.30 2014.34 L2858.13 2009.27 L2862.83 2004.94 L2867.66 2001.60 L2872.36 1999.24 L2877.19 1998.13 L2882.01 1998.25 L2886.72 1999.74 L2891.54 2002.59 L2896.24 2006.55 L2901.07 2011.87 L2905.90 2018.30 L2910.60 2025.73 L2915.43 2033.89 L2920.13 2042.81 L2924.95 2052.33 L2929.78 2061.99 L2934.48 2071.89 L2939.31 2081.66 L2944.14 2091.32 L2948.84 2100.47 L2953.66 2109.26 L2958.37 2117.43 L2963.19 2124.98 L2968.02 2131.91 L2972.72 2137.97 L2977.55 2143.42 L2982.25 2148.24 L2987.08 2152.33 L2991.90 2155.79 L2996.61 2158.76 L3001.43 2161.24 L3006.26 2163.22 L3010.96 2164.83 L3015.79 2166.06 L3020.49 2167.18 L3025.32 2167.92 L3030.14 2168.54 L3034.84 2169.03" stroke-linecap="round" stroke-linejoin="round" style="fill:none;stroke:#90353B;stroke-width:8.64"/>
	<path d=" M454.04 2170.02 L459.36 2169.90 L464.68 2169.90 L470.00 2169.78 L475.32 2169.65 L480.64 2169.53 L485.97 2169.41 L491.29 2169.28 L496.61 2169.03 L501.93 2168.91 L507.25 2168.66 L512.57 2168.42 L517.89 2168.17 L523.22 2167.80 L528.54 2167.43 L533.86 2167.05 L539.18 2166.56 L544.50 2166.19 L549.82 2165.57 L555.14 2165.07 L560.46 2164.46 L565.91 2163.84 L571.23 2163.09 L576.55 2162.35 L581.87 2161.49 L587.19 2160.74 L592.51 2159.75 L597.84 2158.89 L603.16 2157.90 L608.48 2156.91 L613.80 2155.79 L619.12 2154.68 L624.44 2153.69 L629.76 2152.45 L635.09 2151.34 L640.41 2150.22 L645.73 2149.11 L651.05 2148.00 L656.37 2146.88 L661.69 2145.77 L667.01 2144.65 L672.33 2143.66 L677.65 2142.67 L682.98 2141.81 L688.30 2140.94 L693.62 2140.20 L698.94 2139.58 L704.26 2138.96 L709.58 2138.47 L714.90 2138.10 L720.23 2137.72 L725.55 2137.60 L730.87 2137.48 L736.19 2137.48 L741.51 2137.72 L746.83 2137.97 L752.15 2138.22 L757.47 2138.71 L762.79 2139.21 L768.12 2139.95 L773.44 2140.57 L778.76 2141.44 L784.08 2142.30 L789.40 2143.29 L794.72 2144.28 L800.04 2145.27 L805.37 2146.39 L810.69 2147.50 L816.01 2148.61 L821.33 2149.73 L826.65 2150.84 L831.97 2151.96 L837.29 2153.19 L842.61 2154.31 L847.93 2155.30 L853.26 2156.41 L858.58 2157.40 L863.90 2158.39 L869.22 2159.38 L874.54 2160.37 L879.86 2161.24 L885.18 2161.98 L890.50 2162.72 L895.83 2163.47 L901.15 2164.21 L906.47 2164.83 L911.79 2165.32 L917.11 2165.94 L922.43 2166.44 L927.75 2166.81 L933.08 2167.30 L938.40 2167.67 L943.72 2167.92 L949.04 2168.29 L954.36 2168.54 L959.68 2168.79 L965.00 2168.91 L970.32 2169.16 L975.64 2169.28 L980.97 2169.41 L986.29 2169.53 L991.61 2169.65 L996.93 2169.78 L1002.25 2169.78 L1007.57 2169.78 L1012.89 2169.90 L1018.22 2169.90 L1023.54 2169.90 L1028.86 2169.90 L1034.18 2169.78 L1039.50 2169.78 L1044.82 2169.65 L1050.14 2169.65 L1055.46 2169.53 L1060.79 2169.41 L1066.11 2169.28 L1071.43 2169.16 L1076.75 2168.91 L1082.07 2168.66 L1087.39 2168.42 L1092.71 2168.17 L1098.03 2167.92 L1103.36 2167.55 L1108.68 2167.18 L1114.00 2166.81 L1119.32 2166.31 L1124.64 2165.82 L1129.96 2165.32 L1135.41 2164.70 L1140.73 2164.08 L1146.05 2163.34 L1151.37 2162.60 L1156.69 2161.86 L1162.01 2160.99 L1167.33 2160.12 L1172.65 2159.26 L1177.98 2158.27 L1183.30 2157.28 L1188.62 2156.16 L1193.94 2155.17 L1199.26 2154.06 L1204.58 2152.82 L1209.90 2151.71 L1215.22 2150.59 L1220.55 2149.36 L1225.87 2148.24 L1231.19 2147.13 L1236.51 2146.02 L1241.83 2144.90 L1247.15 2143.79 L1252.47 2142.80 L1257.80 2141.81 L1263.12 2140.82 L1268.44 2139.95 L1273.76 2139.21 L1279.08 2138.47 L1284.40 2137.85 L1289.72 2137.23 L1295.04 2136.73 L1300.37 2136.36 L1305.69 2135.99 L1311.01 2135.74 L1316.33 2135.62 L1321.65 2135.50 L1326.97 2135.50 L1332.29 2135.62 L1337.61 2135.74 L1342.93 2135.87 L1348.26 2136.12 L1353.58 2136.24 L1358.90 2136.61 L1364.22 2136.86 L1369.54 2137.11 L1374.86 2137.35 L1380.18 2137.60 L1385.51 2137.85 L1390.83 2137.97 L1396.15 2138.22 L1401.47 2138.22 L1406.79 2138.22 L1412.11 2138.22 L1417.43 2138.10 L1422.75 2137.97 L1428.08 2137.60 L1433.40 2137.35 L1438.72 2136.86 L1444.04 2136.36 L1449.36 2135.74 L1454.68 2135.13 L1460.00 2134.38 L1465.32 2133.52 L1470.64 2132.65 L1475.97 2131.78 L1481.29 2130.79 L1486.61 2129.80 L1491.93 2128.69 L1497.25 2127.70 L1502.57 2126.59 L1507.89 2125.47 L1513.21 2124.48 L1518.54 2123.37 L1523.86 2122.38 L1529.18 2121.39 L1534.50 2120.52 L1539.82 2119.66 L1545.14 2118.79 L1550.46 2118.05 L1555.79 2117.30 L1561.11 2116.69 L1566.43 2116.19 L1571.75 2115.82 L1577.07 2115.45 L1582.39 2115.20 L1587.71 2114.95 L1593.03 2114.95 L1598.36 2114.95 L1603.68 2115.08 L1609.00 2115.32 L1614.32 2115.70 L1619.64 2116.07 L1624.96 2116.56 L1630.28 2117.18 L1635.60 2117.80 L1640.92 2118.42 L1646.25 2119.28 L1651.57 2120.03 L1656.89 2120.89 L1662.21 2121.76 L1667.53 2122.63 L1672.85 2123.49 L1678.17 2124.36 L1683.49 2125.23 L1688.82 2126.09 L1694.14 2126.83 L1699.46 2127.45 L1704.90 2128.07 L1710.22 2128.57 L1715.55 2128.94 L1720.87 2129.19 L1726.19 2129.19 L1731.51 2129.06 L1736.83 2128.81 L1742.15 2128.20 L1747.47 2127.45 L1752.80 2126.34 L1758.12 2125.10 L1763.44 2123.49 L1768.76 2121.51 L1774.08 2119.28 L1779.40 2116.69 L1784.72 2113.72 L1790.04 2110.37 L1795.37 2106.66 L1800.69 2102.45 L1806.01 2097.88 L1811.33 2092.80 L1816.65 2087.36 L1821.97 2081.42 L1827.29 2074.98 L1832.61 2068.05 L1837.93 2060.75 L1843.26 2052.83 L1848.58 2044.54 L1853.90 2035.63 L1859.22 2026.35 L1864.54 2016.57 L1869.86 2006.30 L1875.18 1995.65 L1880.51 1984.52 L1885.83 1973.01 L1891.15 1961.13 L1896.47 1949.00 L1901.79 1936.50 L1907.11 1923.63 L1912.43 1910.64 L1917.75 1897.39 L1923.08 1884.03 L1928.40 1870.66 L1933.72 1857.17 L1939.04 1843.69 L1944.36 1830.32 L1949.68 1817.08 L1955.00 1803.96 L1960.32 1791.09 L1965.64 1778.59 L1970.97 1766.34 L1976.29 1754.46 L1981.61 1743.07 L1986.93 1732.18 L1992.25 1721.79 L1997.57 1712.01 L2002.89 1702.73 L2008.21 1693.94 L2013.54 1685.90 L2018.86 1678.47 L2024.18 1671.54 L2029.50 1665.23 L2034.82 1659.54 L2040.14 1654.47 L2045.46 1649.76 L2050.78 1645.68 L2056.11 1641.97 L2061.43 1638.62 L2066.75 1635.65 L2072.07 1632.93 L2077.39 1630.46 L2082.71 1627.98 L2088.03 1625.63 L2093.36 1623.28 L2098.68 1620.80 L2104.00 1618.21 L2109.32 1615.24 L2114.64 1612.02 L2119.96 1608.31 L2125.28 1604.22 L2130.60 1599.52 L2135.93 1594.20 L2141.25 1588.38 L2146.57 1581.82 L2151.89 1574.52 L2157.21 1566.48 L2162.53 1557.69 L2167.85 1548.16 L2173.17 1537.89 L2178.49 1526.88 L2183.82 1515.24 L2189.14 1502.87 L2194.46 1489.87 L2199.78 1476.38 L2205.10 1462.28 L2210.42 1447.92 L2215.74 1433.07 L2221.07 1418.10 L2226.39 1402.87 L2231.71 1387.65 L2237.03 1372.55 L2242.35 1357.58 L2247.67 1342.73 L2252.99 1328.37 L2258.31 1314.51 L2263.64 1301.15 L2268.96 1288.40 L2274.40 1276.40 L2279.72 1265.26 L2285.04 1255.11 L2290.36 1245.83 L2295.69 1237.54 L2301.01 1230.36 L2306.33 1224.30 L2311.65 1219.47 L2316.97 1215.63 L2322.29 1213.16 L2327.61 1211.80 L2332.93 1211.55 L2338.26 1212.66 L2343.58 1214.77 L2348.90 1218.11 L2354.22 1222.44 L2359.54 1227.89 L2364.86 1234.32 L2370.18 1241.75 L2375.51 1250.16 L2380.83 1259.44 L2386.15 1269.47 L2391.47 1280.36 L2396.79 1291.87 L2402.11 1304.12 L2407.43 1316.99 L2412.75 1330.35 L2418.07 1344.21 L2423.40 1358.57 L2428.72 1373.30 L2434.04 1388.39 L2439.36 1403.74 L2444.68 1419.33 L2450.00 1435.17 L2455.32 1451.26 L2460.64 1467.35 L2465.97 1483.56 L2471.29 1499.77 L2476.61 1515.98 L2481.93 1532.20 L2487.25 1548.28 L2492.57 1564.25 L2497.89 1580.09 L2503.22 1595.68 L2508.54 1611.15 L2513.86 1626.37 L2519.18 1641.35 L2524.50 1655.95 L2529.82 1670.31 L2535.14 1684.17 L2540.46 1697.90 L2545.78 1711.14 L2551.11 1724.02 L2556.43 1736.39 L2561.75 1748.52 L2567.07 1760.15 L2572.39 1771.41 L2577.71 1782.30 L2583.03 1792.70 L2588.36 1802.72 L2593.68 1812.38 L2599.00 1821.66 L2604.32 1830.69 L2609.64 1839.23 L2614.96 1847.52 L2620.28 1855.44 L2625.60 1862.99 L2630.93 1870.42 L2636.25 1877.47 L2641.57 1884.40 L2646.89 1891.08 L2652.21 1897.52 L2657.53 1903.71 L2662.85 1909.89 L2668.17 1915.83 L2673.49 1921.53 L2678.82 1927.22 L2684.14 1932.66 L2689.46 1938.11 L2694.78 1943.31 L2700.10 1948.50 L2705.42 1953.58 L2710.74 1958.53 L2716.07 1963.23 L2721.39 1967.93 L2726.71 1972.51 L2732.03 1976.97 L2737.35 1981.18 L2742.67 1985.38 L2747.99 1989.34 L2753.31 1993.18 L2758.64 1996.89 L2763.96 2000.48 L2769.28 2003.95 L2774.60 2007.16 L2779.92 2010.26 L2785.24 2013.23 L2790.56 2015.95 L2795.88 2018.67 L2801.20 2021.15 L2806.53 2023.62 L2811.85 2025.97 L2817.17 2028.20 L2822.49 2030.31 L2827.81 2032.53 L2833.13 2034.51 L2838.45 2036.62 L2843.90 2038.72 L2849.22 2040.70 L2854.54 2042.81 L2859.86 2045.03 L2865.18 2047.14 L2870.51 2049.49 L2875.83 2051.84 L2881.15 2054.31 L2886.47 2056.79 L2891.79 2059.51 L2897.11 2062.23 L2902.43 2065.08 L2907.75 2068.17 L2913.07 2071.27 L2918.40 2074.36 L2923.72 2077.70 L2929.04 2081.05 L2934.36 2084.51 L2939.68 2088.10 L2945.00 2091.56 L2950.32 2095.15 L2955.64 2098.87 L2960.97 2102.45 L2966.29 2106.04 L2971.61 2109.63 L2976.93 2113.10 L2982.25 2116.69 L2987.57 2120.03 L2992.89 2123.37 L2998.22 2126.59 L3003.54 2129.80 L3008.86 2132.77 L3014.18 2135.62 L3019.50 2138.47 L3024.82 2141.07 L3030.14 2143.54 L3035.46 2145.89 L3040.78 2148.12 L3046.11 2150.22 L3051.43 2152.20 L3056.75 2153.94 L3062.07 2155.67 L3067.39 2157.15 L3072.71 2158.64 L3078.03 2159.88 L3083.36 2161.11 L3088.68 2162.23 L3094.00 2163.09 L3099.32 2164.08 L3104.64 2164.83 L3109.96 2165.57 L3115.28 2166.19 L3120.60 2166.68 L3125.93 2167.18 L3131.25 2167.67 L3136.57 2168.04 L3141.89 2168.42 L3147.21 2168.66 L3152.53 2168.91 L3157.85 2169.16 L3163.17 2169.28 L3168.49 2169.53 L3173.82 2169.65" stroke-linecap="round" stroke-linejoin="round" style="fill:none;stroke:#55752F;stroke-width:8.64"/>
	<line x1="390.80" y1="2233.63" x2="390.80" y2="100.86" style="stroke:#000000;stroke-width:5.76"/>
	<line x1="390.80" y1="2170.27" x2="350.83" y2="2170.27" style="stroke:#000000;stroke-width:5.76"/>
	<text x="300.72" y="2170.27" style="font-family:'Helvetica';font-size:99.99px;fill:#000000" transform="rotate(-90 300.72,2170.27)" text-anchor="middle">0</text>
	<line x1="390.80" y1="1501.63" x2="350.83" y2="1501.63" style="stroke:#000000;stroke-width:5.76"/>
	<text x="300.72" y="1501.63" style="font-family:'Helvetica';font-size:99.99px;fill:#000000" transform="rotate(-90 300.72,1501.63)" text-anchor="middle">.5</text>
	<line x1="390.80" y1="832.86" x2="350.83" y2="832.86" style="stroke:#000000;stroke-width:5.76"/>
	<text x="300.72" y="832.86" style="font-family:'Helvetica';font-size:99.99px;fill:#000000" transform="rotate(-90 300.72,832.86)" text-anchor="middle">1</text>
	<line x1="390.80" y1="164.22" x2="350.83" y2="164.22" style="stroke:#000000;stroke-width:5.76"/>
	<text x="300.72" y="164.22" style="font-family:'Helvetica';font-size:99.99px;fill:#000000" transform="rotate(-90 300.72,164.22)" text-anchor="middle">1.5</text>
	<text x="190.71" y="1167.25" style="font-family:'Helvetica';font-size:99.99px;fill:#000000" transform="rotate(-90 190.71,1167.25)" text-anchor="middle">Density</text>
	<line x1="390.80" y1="2233.63" x2="3859.02" y2="2233.63" style="stroke:#000000;stroke-width:5.76"/>
	<line x1="460.10" y1="2233.63" x2="460.10" y2="2273.73" style="stroke:#000000;stroke-width:5.76"/>
	<text x="460.10" y="2363.59" style="font-family:'Helvetica';font-size:99.99px;fill:#000000" text-anchor="middle">-4</text>
	<line x1="1294.05" y1="2233.63" x2="1294.05" y2="2273.73" style="stroke:#000000;stroke-width:5.76"/>
	<text x="1294.05" y="2363.59" style="font-family:'Helvetica';font-size:99.99px;fill:#000000" text-anchor="middle">-2</text>
	<line x1="2127.88" y1="2233.63" x2="2127.88" y2="2273.73" style="stroke:#000000;stroke-width:5.76"/>
	<text x="2127.88" y="2363.59" style="font-family:'Helvetica';font-size:99.99px;fill:#000000" text-anchor="middle">0</text>
	<line x1="2961.83" y1="2233.63" x2="2961.83" y2="2273.73" style="stroke:#000000;stroke-width:5.76"/>
	<text x="2961.83" y="2363.59" style="font-family:'Helvetica';font-size:99.99px;fill:#000000" text-anchor="middle">2</text>
	<line x1="3795.66" y1="2233.63" x2="3795.66" y2="2273.73" style="stroke:#000000;stroke-width:5.76"/>
	<text x="3795.66" y="2363.59" style="font-family:'Helvetica';font-size:99.99px;fill:#000000" text-anchor="middle">4</text>
	<text x="2124.91" y="2473.60" style="font-family:'Helvetica';font-size:99.99px;fill:#000000" text-anchor="middle">IV estimates</text>
	<rect x="864.39" y="2558.24" width="2521.16" height="186.37" style="fill:#FFFFFF"/>
	<rect x="867.27" y="2561.12" width="2515.40" height="180.61" style="fill:none;stroke:#000000;stroke-width:5.76"/>
	<line x1="907.58" y1="2651.43" x2="1281.93" y2="2651.43" style="stroke:#273F6F;stroke-width:8.64"/>
	<line x1="1814.42" y1="2651.43" x2="2188.77" y2="2651.43" style="stroke:#90353B;stroke-width:8.64"/>
	<line x1="2662.98" y1="2651.43" x2="3037.32" y2="2651.43" style="stroke:#55752F;stroke-width:8.64"/>
	<text x="1341.94" y="2686.46" style="font-family:'Helvetica';font-size:99.99px;fill:#000000">φ = .25</text>
	<text x="2248.78" y="2686.46" style="font-family:'Helvetica';font-size:99.99px;fill:#000000">φ = .5</text>
	<text x="3097.34" y="2686.46" style="font-family:'Helvetica';font-size:99.99px;fill:#000000">φ = 1</text>
</svg>
