<?xml version="1.0" encoding="UTF-8" standalone="no"?>
<!-- This is a Stata 18.5 generated SVG file (http://www.stata.com) -->

<svg version="1.1" width="600px" height="360px" viewBox="0 0 5400 3240" xmlns="http://www.w3.org/2000/svg" xmlns:xlink="http://www.w3.org/1999/xlink">
	<desc>Stata Graph - Graph</desc>
	<rect x="0" y="0" width="5400" height="3240" style="fill:#FFFFFF;stroke:none"/>
	<rect x="0.00" y="0.00" width="5400.00" height="3240.00" style="fill:#FFFFFF"/>
	<rect x="3.24" y="3.24" width="5393.52" height="3233.52" style="fill:none;stroke:#FFFFFF;stroke-width:6.48"/>
	<rect x="459.34" y="113.40" width="2369.08" height="2653.26" style="fill:#FFFFFF"/>
	<rect x="462.58" y="116.64" width="2362.60" height="2646.78" style="fill:none;stroke:#FFFFFF;stroke-width:6.48"/>
	<line x1="459.34" y1="2695.28" x2="524.14" y2="2695.28" style="stroke:#F0F0F0;stroke-width:9.72"/>
	<line x1="556.54" y1="2695.28" x2="621.34" y2="2695.28" style="stroke:#F0F0F0;stroke-width:9.72"/>
	<line x1="653.74" y1="2695.28" x2="718.54" y2="2695.28" style="stroke:#F0F0F0;stroke-width:9.72"/>
	<line x1="750.94" y1="2695.28" x2="815.74" y2="2695.28" style="stroke:#F0F0F0;stroke-width:9.72"/>
	<line x1="848.14" y1="2695.28" x2="912.94" y2="2695.28" style="stroke:#F0F0F0;stroke-width:9.72"/>
	<line x1="945.34" y1="2695.28" x2="1010.14" y2="2695.28" style="stroke:#F0F0F0;stroke-width:9.72"/>
	<line x1="1042.54" y1="2695.28" x2="1107.34" y2="2695.28" style="stroke:#F0F0F0;stroke-width:9.72"/>
	<line x1="1139.74" y1="2695.28" x2="1204.54" y2="2695.28" style="stroke:#F0F0F0;stroke-width:9.72"/>
	<line x1="1236.94" y1="2695.28" x2="1301.74" y2="2695.28" style="stroke:#F0F0F0;stroke-width:9.72"/>
	<line x1="1334.14" y1="2695.28" x2="1398.94" y2="2695.28" style="stroke:#F0F0F0;stroke-width:9.72"/>
	<line x1="1431.34" y1="2695.28" x2="1496.14" y2="2695.28" style="stroke:#F0F0F0;stroke-width:9.72"/>
	<line x1="1528.54" y1="2695.28" x2="1593.34" y2="2695.28" style="stroke:#F0F0F0;stroke-width:9.72"/>
	<line x1="1625.74" y1="2695.28" x2="1690.54" y2="2695.28" style="stroke:#F0F0F0;stroke-width:9.72"/>
	<line x1="1722.94" y1="2695.28" x2="1787.74" y2="2695.28" style="stroke:#F0F0F0;stroke-width:9.72"/>
	<line x1="1820.14" y1="2695.28" x2="1884.94" y2="2695.28" style="stroke:#F0F0F0;stroke-width:9.72"/>
	<line x1="1917.34" y1="2695.28" x2="1982.14" y2="2695.28" style="stroke:#F0F0F0;stroke-width:9.72"/>
	<line x1="2014.54" y1="2695.28" x2="2079.34" y2="2695.28" style="stroke:#F0F0F0;stroke-width:9.72"/>
	<line x1="2111.74" y1="2695.28" x2="2176.54" y2="2695.28" style="stroke:#F0F0F0;stroke-width:9.72"/>
	<line x1="2208.94" y1="2695.28" x2="2273.74" y2="2695.28" style="stroke:#F0F0F0;stroke-width:9.72"/>
	<line x1="2306.14" y1="2695.28" x2="2370.94" y2="2695.28" style="stroke:#F0F0F0;stroke-width:9.72"/>
	<line x1="2403.34" y1="2695.28" x2="2468.14" y2="2695.28" style="stroke:#F0F0F0;stroke-width:9.72"/>
	<line x1="2500.54" y1="2695.28" x2="2565.34" y2="2695.28" style="stroke:#F0F0F0;stroke-width:9.72"/>
	<line x1="2597.74" y1="2695.28" x2="2662.54" y2="2695.28" style="stroke:#F0F0F0;stroke-width:9.72"/>
	<line x1="2694.94" y1="2695.28" x2="2759.74" y2="2695.28" style="stroke:#F0F0F0;stroke-width:9.72"/>
	<line x1="2792.14" y1="2695.28" x2="2828.42" y2="2695.28" style="stroke:#F0F0F0;stroke-width:9.72"/>
	<line x1="459.34" y1="2090.14" x2="524.14" y2="2090.14" style="stroke:#F0F0F0;stroke-width:9.72"/>
	<line x1="556.54" y1="2090.14" x2="621.34" y2="2090.14" style="stroke:#F0F0F0;stroke-width:9.72"/>
	<line x1="653.74" y1="2090.14" x2="718.54" y2="2090.14" style="stroke:#F0F0F0;stroke-width:9.72"/>
	<line x1="750.94" y1="2090.14" x2="815.74" y2="2090.14" style="stroke:#F0F0F0;stroke-width:9.72"/>
	<line x1="848.14" y1="2090.14" x2="912.94" y2="2090.14" style="stroke:#F0F0F0;stroke-width:9.72"/>
	<line x1="945.34" y1="2090.14" x2="1010.14" y2="2090.14" style="stroke:#F0F0F0;stroke-width:9.72"/>
	<line x1="1042.54" y1="2090.14" x2="1107.34" y2="2090.14" style="stroke:#F0F0F0;stroke-width:9.72"/>
	<line x1="1139.74" y1="2090.14" x2="1204.54" y2="2090.14" style="stroke:#F0F0F0;stroke-width:9.72"/>
	<line x1="1236.94" y1="2090.14" x2="1301.74" y2="2090.14" style="stroke:#F0F0F0;stroke-width:9.72"/>
	<line x1="1334.14" y1="2090.14" x2="1398.94" y2="2090.14" style="stroke:#F0F0F0;stroke-width:9.72"/>
	<line x1="1431.34" y1="2090.14" x2="1496.14" y2="2090.14" style="stroke:#F0F0F0;stroke-width:9.72"/>
	<line x1="1528.54" y1="2090.14" x2="1593.34" y2="2090.14" style="stroke:#F0F0F0;stroke-width:9.72"/>
	<line x1="1625.74" y1="2090.14" x2="1690.54" y2="2090.14" style="stroke:#F0F0F0;stroke-width:9.72"/>
	<line x1="1722.94" y1="2090.14" x2="1787.74" y2="2090.14" style="stroke:#F0F0F0;stroke-width:9.72"/>
	<line x1="1820.14" y1="2090.14" x2="1884.94" y2="2090.14" style="stroke:#F0F0F0;stroke-width:9.72"/>
	<line x1="1917.34" y1="2090.14" x2="1982.14" y2="2090.14" style="stroke:#F0F0F0;stroke-width:9.72"/>
	<line x1="2014.54" y1="2090.14" x2="2079.34" y2="2090.14" style="stroke:#F0F0F0;stroke-width:9.72"/>
	<line x1="2111.74" y1="2090.14" x2="2176.54" y2="2090.14" style="stroke:#F0F0F0;stroke-width:9.72"/>
	<line x1="2208.94" y1="2090.14" x2="2273.74" y2="2090.14" style="stroke:#F0F0F0;stroke-width:9.72"/>
	<line x1="2306.14" y1="2090.14" x2="2370.94" y2="2090.14" style="stroke:#F0F0F0;stroke-width:9.72"/>
	<line x1="2403.34" y1="2090.14" x2="2468.14" y2="2090.14" style="stroke:#F0F0F0;stroke-width:9.72"/>
	<line x1="2500.54" y1="2090.14" x2="2565.34" y2="2090.14" style="stroke:#F0F0F0;stroke-width:9.72"/>
	<line x1="2597.74" y1="2090.14" x2="2662.54" y2="2090.14" style="stroke:#F0F0F0;stroke-width:9.72"/>
	<line x1="2694.94" y1="2090.14" x2="2759.74" y2="2090.14" style="stroke:#F0F0F0;stroke-width:9.72"/>
	<line x1="2792.14" y1="2090.14" x2="2828.42" y2="2090.14" style="stroke:#F0F0F0;stroke-width:9.72"/>
	<line x1="459.34" y1="1485.00" x2="524.14" y2="1485.00" style="stroke:#F0F0F0;stroke-width:9.72"/>
	<line x1="556.54" y1="1485.00" x2="621.34" y2="1485.00" style="stroke:#F0F0F0;stroke-width:9.72"/>
	<line x1="653.74" y1="1485.00" x2="718.54" y2="1485.00" style="stroke:#F0F0F0;stroke-width:9.72"/>
	<line x1="750.94" y1="1485.00" x2="815.74" y2="1485.00" style="stroke:#F0F0F0;stroke-width:9.72"/>
	<line x1="848.14" y1="1485.00" x2="912.94" y2="1485.00" style="stroke:#F0F0F0;stroke-width:9.72"/>
	<line x1="945.34" y1="1485.00" x2="1010.14" y2="1485.00" style="stroke:#F0F0F0;stroke-width:9.72"/>
	<line x1="1042.54" y1="1485.00" x2="1107.34" y2="1485.00" style="stroke:#F0F0F0;stroke-width:9.72"/>
	<line x1="1139.74" y1="1485.00" x2="1204.54" y2="1485.00" style="stroke:#F0F0F0;stroke-width:9.72"/>
	<line x1="1236.94" y1="1485.00" x2="1301.74" y2="1485.00" style="stroke:#F0F0F0;stroke-width:9.72"/>
	<line x1="1334.14" y1="1485.00" x2="1398.94" y2="1485.00" style="stroke:#F0F0F0;stroke-width:9.72"/>
	<line x1="1431.34" y1="1485.00" x2="1496.14" y2="1485.00" style="stroke:#F0F0F0;stroke-width:9.72"/>
	<line x1="1528.54" y1="1485.00" x2="1593.34" y2="1485.00" style="stroke:#F0F0F0;stroke-width:9.72"/>
	<line x1="1625.74" y1="1485.00" x2="1690.54" y2="1485.00" style="stroke:#F0F0F0;stroke-width:9.72"/>
	<line x1="1722.94" y1="1485.00" x2="1787.74" y2="1485.00" style="stroke:#F0F0F0;stroke-width:9.72"/>
	<line x1="1820.14" y1="1485.00" x2="1884.94" y2="1485.00" style="stroke:#F0F0F0;stroke-width:9.72"/>
	<line x1="1917.34" y1="1485.00" x2="1982.14" y2="1485.00" style="stroke:#F0F0F0;stroke-width:9.72"/>
	<line x1="2014.54" y1="1485.00" x2="2079.34" y2="1485.00" style="stroke:#F0F0F0;stroke-width:9.72"/>
	<line x1="2111.74" y1="1485.00" x2="2176.54" y2="1485.00" style="stroke:#F0F0F0;stroke-width:9.72"/>
	<line x1="2208.94" y1="1485.00" x2="2273.74" y2="1485.00" style="stroke:#F0F0F0;stroke-width:9.72"/>
	<line x1="2306.14" y1="1485.00" x2="2370.94" y2="1485.00" style="stroke:#F0F0F0;stroke-width:9.72"/>
	<line x1="2403.34" y1="1485.00" x2="2468.14" y2="1485.00" style="stroke:#F0F0F0;stroke-width:9.72"/>
	<line x1="2500.54" y1="1485.00" x2="2565.34" y2="1485.00" style="stroke:#F0F0F0;stroke-width:9.72"/>
	<line x1="2597.74" y1="1485.00" x2="2662.54" y2="1485.00" style="stroke:#F0F0F0;stroke-width:9.72"/>
	<line x1="2694.94" y1="1485.00" x2="2759.74" y2="1485.00" style="stroke:#F0F0F0;stroke-width:9.72"/>
	<line x1="2792.14" y1="1485.00" x2="2828.42" y2="1485.00" style="stroke:#F0F0F0;stroke-width:9.72"/>
	<line x1="459.34" y1="879.69" x2="524.14" y2="879.69" style="stroke:#F0F0F0;stroke-width:9.72"/>
	<line x1="556.54" y1="879.69" x2="621.34" y2="879.69" style="stroke:#F0F0F0;stroke-width:9.72"/>
	<line x1="653.74" y1="879.69" x2="718.54" y2="879.69" style="stroke:#F0F0F0;stroke-width:9.72"/>
	<line x1="750.94" y1="879.69" x2="815.74" y2="879.69" style="stroke:#F0F0F0;stroke-width:9.72"/>
	<line x1="848.14" y1="879.69" x2="912.94" y2="879.69" style="stroke:#F0F0F0;stroke-width:9.72"/>
	<line x1="945.34" y1="879.69" x2="1010.14" y2="879.69" style="stroke:#F0F0F0;stroke-width:9.72"/>
	<line x1="1042.54" y1="879.69" x2="1107.34" y2="879.69" style="stroke:#F0F0F0;stroke-width:9.72"/>
	<line x1="1139.74" y1="879.69" x2="1204.54" y2="879.69" style="stroke:#F0F0F0;stroke-width:9.72"/>
	<line x1="1236.94" y1="879.69" x2="1301.74" y2="879.69" style="stroke:#F0F0F0;stroke-width:9.72"/>
	<line x1="1334.14" y1="879.69" x2="1398.94" y2="879.69" style="stroke:#F0F0F0;stroke-width:9.72"/>
	<line x1="1431.34" y1="879.69" x2="1496.14" y2="879.69" style="stroke:#F0F0F0;stroke-width:9.72"/>
	<line x1="1528.54" y1="879.69" x2="1593.34" y2="879.69" style="stroke:#F0F0F0;stroke-width:9.72"/>
	<line x1="1625.74" y1="879.69" x2="1690.54" y2="879.69" style="stroke:#F0F0F0;stroke-width:9.72"/>
	<line x1="1722.94" y1="879.69" x2="1787.74" y2="879.69" style="stroke:#F0F0F0;stroke-width:9.72"/>
	<line x1="1820.14" y1="879.69" x2="1884.94" y2="879.69" style="stroke:#F0F0F0;stroke-width:9.72"/>
	<line x1="1917.34" y1="879.69" x2="1982.14" y2="879.69" style="stroke:#F0F0F0;stroke-width:9.72"/>
	<line x1="2014.54" y1="879.69" x2="2079.34" y2="879.69" style="stroke:#F0F0F0;stroke-width:9.72"/>
	<line x1="2111.74" y1="879.69" x2="2176.54" y2="879.69" style="stroke:#F0F0F0;stroke-width:9.72"/>
	<line x1="2208.94" y1="879.69" x2="2273.74" y2="879.69" style="stroke:#F0F0F0;stroke-width:9.72"/>
	<line x1="2306.14" y1="879.69" x2="2370.94" y2="879.69" style="stroke:#F0F0F0;stroke-width:9.72"/>
	<line x1="2403.34" y1="879.69" x2="2468.14" y2="879.69" style="stroke:#F0F0F0;stroke-width:9.72"/>
	<line x1="2500.54" y1="879.69" x2="2565.34" y2="879.69" style="stroke:#F0F0F0;stroke-width:9.72"/>
	<line x1="2597.74" y1="879.69" x2="2662.54" y2="879.69" style="stroke:#F0F0F0;stroke-width:9.72"/>
	<line x1="2694.94" y1="879.69" x2="2759.74" y2="879.69" style="stroke:#F0F0F0;stroke-width:9.72"/>
	<line x1="2792.14" y1="879.69" x2="2828.42" y2="879.69" style="stroke:#F0F0F0;stroke-width:9.72"/>
	<line x1="459.34" y1="274.56" x2="524.14" y2="274.56" style="stroke:#F0F0F0;stroke-width:9.72"/>
	<line x1="556.54" y1="274.56" x2="621.34" y2="274.56" style="stroke:#F0F0F0;stroke-width:9.72"/>
	<line x1="653.74" y1="274.56" x2="718.54" y2="274.56" style="stroke:#F0F0F0;stroke-width:9.72"/>
	<line x1="750.94" y1="274.56" x2="815.74" y2="274.56" style="stroke:#F0F0F0;stroke-width:9.72"/>
	<line x1="848.14" y1="274.56" x2="912.94" y2="274.56" style="stroke:#F0F0F0;stroke-width:9.72"/>
	<line x1="945.34" y1="274.56" x2="1010.14" y2="274.56" style="stroke:#F0F0F0;stroke-width:9.72"/>
	<line x1="1042.54" y1="274.56" x2="1107.34" y2="274.56" style="stroke:#F0F0F0;stroke-width:9.72"/>
	<line x1="1139.74" y1="274.56" x2="1204.54" y2="274.56" style="stroke:#F0F0F0;stroke-width:9.72"/>
	<line x1="1236.94" y1="274.56" x2="1301.74" y2="274.56" style="stroke:#F0F0F0;stroke-width:9.72"/>
	<line x1="1334.14" y1="274.56" x2="1398.94" y2="274.56" style="stroke:#F0F0F0;stroke-width:9.72"/>
	<line x1="1431.34" y1="274.56" x2="1496.14" y2="274.56" style="stroke:#F0F0F0;stroke-width:9.72"/>
	<line x1="1528.54" y1="274.56" x2="1593.34" y2="274.56" style="stroke:#F0F0F0;stroke-width:9.72"/>
	<line x1="1625.74" y1="274.56" x2="1690.54" y2="274.56" style="stroke:#F0F0F0;stroke-width:9.72"/>
	<line x1="1722.94" y1="274.56" x2="1787.74" y2="274.56" style="stroke:#F0F0F0;stroke-width:9.72"/>
	<line x1="1820.14" y1="274.56" x2="1884.94" y2="274.56" style="stroke:#F0F0F0;stroke-width:9.72"/>
	<line x1="1917.34" y1="274.56" x2="1982.14" y2="274.56" style="stroke:#F0F0F0;stroke-width:9.72"/>
	<line x1="2014.54" y1="274.56" x2="2079.34" y2="274.56" style="stroke:#F0F0F0;stroke-width:9.72"/>
	<line x1="2111.74" y1="274.56" x2="2176.54" y2="274.56" style="stroke:#F0F0F0;stroke-width:9.72"/>
	<line x1="2208.94" y1="274.56" x2="2273.74" y2="274.56" style="stroke:#F0F0F0;stroke-width:9.72"/>
	<line x1="2306.14" y1="274.56" x2="2370.94" y2="274.56" style="stroke:#F0F0F0;stroke-width:9.72"/>
	<line x1="2403.34" y1="274.56" x2="2468.14" y2="274.56" style="stroke:#F0F0F0;stroke-width:9.72"/>
	<line x1="2500.54" y1="274.56" x2="2565.34" y2="274.56" style="stroke:#F0F0F0;stroke-width:9.72"/>
	<line x1="2597.74" y1="274.56" x2="2662.54" y2="274.56" style="stroke:#F0F0F0;stroke-width:9.72"/>
	<line x1="2694.94" y1="274.56" x2="2759.74" y2="274.56" style="stroke:#F0F0F0;stroke-width:9.72"/>
	<line x1="2792.14" y1="274.56" x2="2828.42" y2="274.56" style="stroke:#F0F0F0;stroke-width:9.72"/>
	<line x1="649.86" y1="2766.66" x2="649.86" y2="2701.86" style="stroke:#F0F0F0;stroke-width:9.72"/>
	<line x1="649.86" y1="2669.46" x2="649.86" y2="2604.66" style="stroke:#F0F0F0;stroke-width:9.72"/>
	<line x1="649.86" y1="2572.26" x2="649.86" y2="2507.46" style="stroke:#F0F0F0;stroke-width:9.72"/>
	<line x1="649.86" y1="2475.06" x2="649.86" y2="2410.26" style="stroke:#F0F0F0;stroke-width:9.72"/>
	<line x1="649.86" y1="2377.86" x2="649.86" y2="2313.06" style="stroke:#F0F0F0;stroke-width:9.72"/>
	<line x1="649.86" y1="2280.66" x2="649.86" y2="2215.86" style="stroke:#F0F0F0;stroke-width:9.72"/>
	<line x1="649.86" y1="2183.46" x2="649.86" y2="2118.66" style="stroke:#F0F0F0;stroke-width:9.72"/>
	<line x1="649.86" y1="2086.26" x2="649.86" y2="2021.46" style="stroke:#F0F0F0;stroke-width:9.72"/>
	<line x1="649.86" y1="1989.06" x2="649.86" y2="1924.26" style="stroke:#F0F0F0;stroke-width:9.72"/>
	<line x1="649.86" y1="1891.86" x2="649.86" y2="1827.06" style="stroke:#F0F0F0;stroke-width:9.72"/>
	<line x1="649.86" y1="1794.66" x2="649.86" y2="1729.86" style="stroke:#F0F0F0;stroke-width:9.72"/>
	<line x1="649.86" y1="1697.46" x2="649.86" y2="1632.66" style="stroke:#F0F0F0;stroke-width:9.72"/>
	<line x1="649.86" y1="1600.26" x2="649.86" y2="1535.46" style="stroke:#F0F0F0;stroke-width:9.72"/>
	<line x1="649.86" y1="1503.06" x2="649.86" y2="1438.26" style="stroke:#F0F0F0;stroke-width:9.72"/>
	<line x1="649.86" y1="1405.86" x2="649.86" y2="1341.06" style="stroke:#F0F0F0;stroke-width:9.72"/>
	<line x1="649.86" y1="1308.66" x2="649.86" y2="1243.86" style="stroke:#F0F0F0;stroke-width:9.72"/>
	<line x1="649.86" y1="1211.46" x2="649.86" y2="1146.66" style="stroke:#F0F0F0;stroke-width:9.72"/>
	<line x1="649.86" y1="1114.26" x2="649.86" y2="1049.46" style="stroke:#F0F0F0;stroke-width:9.72"/>
	<line x1="649.86" y1="1017.06" x2="649.86" y2="952.26" style="stroke:#F0F0F0;stroke-width:9.72"/>
	<line x1="649.86" y1="919.86" x2="649.86" y2="855.06" style="stroke:#F0F0F0;stroke-width:9.72"/>
	<line x1="649.86" y1="822.66" x2="649.86" y2="757.86" style="stroke:#F0F0F0;stroke-width:9.72"/>
	<line x1="649.86" y1="725.46" x2="649.86" y2="660.66" style="stroke:#F0F0F0;stroke-width:9.72"/>
	<line x1="649.86" y1="628.26" x2="649.86" y2="563.46" style="stroke:#F0F0F0;stroke-width:9.72"/>
	<line x1="649.86" y1="531.06" x2="649.86" y2="466.26" style="stroke:#F0F0F0;stroke-width:9.72"/>
	<line x1="649.86" y1="433.86" x2="649.86" y2="369.06" style="stroke:#F0F0F0;stroke-width:9.72"/>
	<line x1="649.86" y1="336.66" x2="649.86" y2="271.86" style="stroke:#F0F0F0;stroke-width:9.72"/>
	<line x1="649.86" y1="239.46" x2="649.86" y2="174.66" style="stroke:#F0F0F0;stroke-width:9.72"/>
	<line x1="649.86" y1="142.26" x2="649.86" y2="113.40" style="stroke:#F0F0F0;stroke-width:9.72"/>
	<line x1="1352.36" y1="2766.66" x2="1352.36" y2="2701.86" style="stroke:#F0F0F0;stroke-width:9.72"/>
	<line x1="1352.36" y1="2669.46" x2="1352.36" y2="2604.66" style="stroke:#F0F0F0;stroke-width:9.72"/>
	<line x1="1352.36" y1="2572.26" x2="1352.36" y2="2507.46" style="stroke:#F0F0F0;stroke-width:9.72"/>
	<line x1="1352.36" y1="2475.06" x2="1352.36" y2="2410.26" style="stroke:#F0F0F0;stroke-width:9.72"/>
	<line x1="1352.36" y1="2377.86" x2="1352.36" y2="2313.06" style="stroke:#F0F0F0;stroke-width:9.72"/>
	<line x1="1352.36" y1="2280.66" x2="1352.36" y2="2215.86" style="stroke:#F0F0F0;stroke-width:9.72"/>
	<line x1="1352.36" y1="2183.46" x2="1352.36" y2="2118.66" style="stroke:#F0F0F0;stroke-width:9.72"/>
	<line x1="1352.36" y1="2086.26" x2="1352.36" y2="2021.46" style="stroke:#F0F0F0;stroke-width:9.72"/>
	<line x1="1352.36" y1="1989.06" x2="1352.36" y2="1924.26" style="stroke:#F0F0F0;stroke-width:9.72"/>
	<line x1="1352.36" y1="1891.86" x2="1352.36" y2="1827.06" style="stroke:#F0F0F0;stroke-width:9.72"/>
	<line x1="1352.36" y1="1794.66" x2="1352.36" y2="1729.86" style="stroke:#F0F0F0;stroke-width:9.72"/>
	<line x1="1352.36" y1="1697.46" x2="1352.36" y2="1632.66" style="stroke:#F0F0F0;stroke-width:9.72"/>
	<line x1="1352.36" y1="1600.26" x2="1352.36" y2="1535.46" style="stroke:#F0F0F0;stroke-width:9.72"/>
	<line x1="1352.36" y1="1503.06" x2="1352.36" y2="1438.26" style="stroke:#F0F0F0;stroke-width:9.72"/>
	<line x1="1352.36" y1="1405.86" x2="1352.36" y2="1341.06" style="stroke:#F0F0F0;stroke-width:9.72"/>
	<line x1="1352.36" y1="1308.66" x2="1352.36" y2="1243.86" style="stroke:#F0F0F0;stroke-width:9.72"/>
	<line x1="1352.36" y1="1211.46" x2="1352.36" y2="1146.66" style="stroke:#F0F0F0;stroke-width:9.72"/>
	<line x1="1352.36" y1="1114.26" x2="1352.36" y2="1049.46" style="stroke:#F0F0F0;stroke-width:9.72"/>
	<line x1="1352.36" y1="1017.06" x2="1352.36" y2="952.26" style="stroke:#F0F0F0;stroke-width:9.72"/>
	<line x1="1352.36" y1="919.86" x2="1352.36" y2="855.06" style="stroke:#F0F0F0;stroke-width:9.72"/>
	<line x1="1352.36" y1="822.66" x2="1352.36" y2="757.86" style="stroke:#F0F0F0;stroke-width:9.72"/>
	<line x1="1352.36" y1="725.46" x2="1352.36" y2="660.66" style="stroke:#F0F0F0;stroke-width:9.72"/>
	<line x1="1352.36" y1="628.26" x2="1352.36" y2="563.46" style="stroke:#F0F0F0;stroke-width:9.72"/>
	<line x1="1352.36" y1="531.06" x2="1352.36" y2="466.26" style="stroke:#F0F0F0;stroke-width:9.72"/>
	<line x1="1352.36" y1="433.86" x2="1352.36" y2="369.06" style="stroke:#F0F0F0;stroke-width:9.72"/>
	<line x1="1352.36" y1="336.66" x2="1352.36" y2="271.86" style="stroke:#F0F0F0;stroke-width:9.72"/>
	<line x1="1352.36" y1="239.46" x2="1352.36" y2="174.66" style="stroke:#F0F0F0;stroke-width:9.72"/>
	<line x1="1352.36" y1="142.26" x2="1352.36" y2="113.40" style="stroke:#F0F0F0;stroke-width:9.72"/>
	<line x1="2054.70" y1="2766.66" x2="2054.70" y2="2701.86" style="stroke:#F0F0F0;stroke-width:9.72"/>
	<line x1="2054.70" y1="2669.46" x2="2054.70" y2="2604.66" style="stroke:#F0F0F0;stroke-width:9.72"/>
	<line x1="2054.70" y1="2572.26" x2="2054.70" y2="2507.46" style="stroke:#F0F0F0;stroke-width:9.72"/>
	<line x1="2054.70" y1="2475.06" x2="2054.70" y2="2410.26" style="stroke:#F0F0F0;stroke-width:9.72"/>
	<line x1="2054.70" y1="2377.86" x2="2054.70" y2="2313.06" style="stroke:#F0F0F0;stroke-width:9.72"/>
	<line x1="2054.70" y1="2280.66" x2="2054.70" y2="2215.86" style="stroke:#F0F0F0;stroke-width:9.72"/>
	<line x1="2054.70" y1="2183.46" x2="2054.70" y2="2118.66" style="stroke:#F0F0F0;stroke-width:9.72"/>
	<line x1="2054.70" y1="2086.26" x2="2054.70" y2="2021.46" style="stroke:#F0F0F0;stroke-width:9.72"/>
	<line x1="2054.70" y1="1989.06" x2="2054.70" y2="1924.26" style="stroke:#F0F0F0;stroke-width:9.72"/>
	<line x1="2054.70" y1="1891.86" x2="2054.70" y2="1827.06" style="stroke:#F0F0F0;stroke-width:9.72"/>
	<line x1="2054.70" y1="1794.66" x2="2054.70" y2="1729.86" style="stroke:#F0F0F0;stroke-width:9.72"/>
	<line x1="2054.70" y1="1697.46" x2="2054.70" y2="1632.66" style="stroke:#F0F0F0;stroke-width:9.72"/>
	<line x1="2054.70" y1="1600.26" x2="2054.70" y2="1535.46" style="stroke:#F0F0F0;stroke-width:9.72"/>
	<line x1="2054.70" y1="1503.06" x2="2054.70" y2="1438.26" style="stroke:#F0F0F0;stroke-width:9.72"/>
	<line x1="2054.70" y1="1405.86" x2="2054.70" y2="1341.06" style="stroke:#F0F0F0;stroke-width:9.72"/>
	<line x1="2054.70" y1="1308.66" x2="2054.70" y2="1243.86" style="stroke:#F0F0F0;stroke-width:9.72"/>
	<line x1="2054.70" y1="1211.46" x2="2054.70" y2="1146.66" style="stroke:#F0F0F0;stroke-width:9.72"/>
	<line x1="2054.70" y1="1114.26" x2="2054.70" y2="1049.46" style="stroke:#F0F0F0;stroke-width:9.72"/>
	<line x1="2054.70" y1="1017.06" x2="2054.70" y2="952.26" style="stroke:#F0F0F0;stroke-width:9.72"/>
	<line x1="2054.70" y1="919.86" x2="2054.70" y2="855.06" style="stroke:#F0F0F0;stroke-width:9.72"/>
	<line x1="2054.70" y1="822.66" x2="2054.70" y2="757.86" style="stroke:#F0F0F0;stroke-width:9.72"/>
	<line x1="2054.70" y1="725.46" x2="2054.70" y2="660.66" style="stroke:#F0F0F0;stroke-width:9.72"/>
	<line x1="2054.70" y1="628.26" x2="2054.70" y2="563.46" style="stroke:#F0F0F0;stroke-width:9.72"/>
	<line x1="2054.70" y1="531.06" x2="2054.70" y2="466.26" style="stroke:#F0F0F0;stroke-width:9.72"/>
	<line x1="2054.70" y1="433.86" x2="2054.70" y2="369.06" style="stroke:#F0F0F0;stroke-width:9.72"/>
	<line x1="2054.70" y1="336.66" x2="2054.70" y2="271.86" style="stroke:#F0F0F0;stroke-width:9.72"/>
	<line x1="2054.70" y1="239.46" x2="2054.70" y2="174.66" style="stroke:#F0F0F0;stroke-width:9.72"/>
	<line x1="2054.70" y1="142.26" x2="2054.70" y2="113.40" style="stroke:#F0F0F0;stroke-width:9.72"/>
	<line x1="2757.04" y1="2766.66" x2="2757.04" y2="2701.86" style="stroke:#F0F0F0;stroke-width:9.72"/>
	<line x1="2757.04" y1="2669.46" x2="2757.04" y2="2604.66" style="stroke:#F0F0F0;stroke-width:9.72"/>
	<line x1="2757.04" y1="2572.26" x2="2757.04" y2="2507.46" style="stroke:#F0F0F0;stroke-width:9.72"/>
	<line x1="2757.04" y1="2475.06" x2="2757.04" y2="2410.26" style="stroke:#F0F0F0;stroke-width:9.72"/>
	<line x1="2757.04" y1="2377.86" x2="2757.04" y2="2313.06" style="stroke:#F0F0F0;stroke-width:9.72"/>
	<line x1="2757.04" y1="2280.66" x2="2757.04" y2="2215.86" style="stroke:#F0F0F0;stroke-width:9.72"/>
	<line x1="2757.04" y1="2183.46" x2="2757.04" y2="2118.66" style="stroke:#F0F0F0;stroke-width:9.72"/>
	<line x1="2757.04" y1="2086.26" x2="2757.04" y2="2021.46" style="stroke:#F0F0F0;stroke-width:9.72"/>
	<line x1="2757.04" y1="1989.06" x2="2757.04" y2="1924.26" style="stroke:#F0F0F0;stroke-width:9.72"/>
	<line x1="2757.04" y1="1891.86" x2="2757.04" y2="1827.06" style="stroke:#F0F0F0;stroke-width:9.72"/>
	<line x1="2757.04" y1="1794.66" x2="2757.04" y2="1729.86" style="stroke:#F0F0F0;stroke-width:9.72"/>
	<line x1="2757.04" y1="1697.46" x2="2757.04" y2="1632.66" style="stroke:#F0F0F0;stroke-width:9.72"/>
	<line x1="2757.04" y1="1600.26" x2="2757.04" y2="1535.46" style="stroke:#F0F0F0;stroke-width:9.72"/>
	<line x1="2757.04" y1="1503.06" x2="2757.04" y2="1438.26" style="stroke:#F0F0F0;stroke-width:9.72"/>
	<line x1="2757.04" y1="1405.86" x2="2757.04" y2="1341.06" style="stroke:#F0F0F0;stroke-width:9.72"/>
	<line x1="2757.04" y1="1308.66" x2="2757.04" y2="1243.86" style="stroke:#F0F0F0;stroke-width:9.72"/>
	<line x1="2757.04" y1="1211.46" x2="2757.04" y2="1146.66" style="stroke:#F0F0F0;stroke-width:9.72"/>
	<line x1="2757.04" y1="1114.26" x2="2757.04" y2="1049.46" style="stroke:#F0F0F0;stroke-width:9.72"/>
	<line x1="2757.04" y1="1017.06" x2="2757.04" y2="952.26" style="stroke:#F0F0F0;stroke-width:9.72"/>
	<line x1="2757.04" y1="919.86" x2="2757.04" y2="855.06" style="stroke:#F0F0F0;stroke-width:9.72"/>
	<line x1="2757.04" y1="822.66" x2="2757.04" y2="757.86" style="stroke:#F0F0F0;stroke-width:9.72"/>
	<line x1="2757.04" y1="725.46" x2="2757.04" y2="660.66" style="stroke:#F0F0F0;stroke-width:9.72"/>
	<line x1="2757.04" y1="628.26" x2="2757.04" y2="563.46" style="stroke:#F0F0F0;stroke-width:9.72"/>
	<line x1="2757.04" y1="531.06" x2="2757.04" y2="466.26" style="stroke:#F0F0F0;stroke-width:9.72"/>
	<line x1="2757.04" y1="433.86" x2="2757.04" y2="369.06" style="stroke:#F0F0F0;stroke-width:9.72"/>
	<line x1="2757.04" y1="336.66" x2="2757.04" y2="271.86" style="stroke:#F0F0F0;stroke-width:9.72"/>
	<line x1="2757.04" y1="239.46" x2="2757.04" y2="174.66" style="stroke:#F0F0F0;stroke-width:9.72"/>
	<line x1="2757.04" y1="142.26" x2="2757.04" y2="113.40" style="stroke:#F0F0F0;stroke-width:9.72"/>
	<path d=" M718.37 2692.24 L721.74 2690.21 L725.12 2687.18 L728.49 2682.79 L731.87 2676.54 L735.24 2667.77 L738.62 2655.96 L741.99 2640.43 L745.37 2620.69 L748.74 2596.22 L752.12 2566.69 L755.49 2532.26 L758.70 2493.62 L762.08 2451.60 L765.45 2407.39 L768.83 2363.18 L772.20 2320.99 L775.58 2283.02 L778.95 2251.46 L782.33 2228.34 L785.70 2215.01 L789.08 2212.65 L792.45 2221.09 L795.83 2239.99 L799.20 2268.17 L802.58 2303.61 L805.95 2344.28 L809.33 2387.98 L812.70 2432.36 L816.08 2475.56 L819.45 2516.06 L822.83 2552.34 L826.20 2584.07 L829.58 2610.73 L832.95 2632.50 L836.33 2649.71 L839.70 2662.71 L843.08 2672.33 L846.45 2678.91 L849.83 2682.96 L853.20 2684.98 L856.58 2684.98 L859.95 2683.13 L863.33 2679.08 L866.70 2673.00 L870.08 2664.39 L873.45 2653.09 L876.83 2638.74 L880.20 2621.36 L883.58 2600.94 L886.95 2577.82 L890.33 2552.68 L893.70 2526.36 L897.08 2499.69 L900.45 2474.21 L903.83 2450.93 L907.20 2430.68 L910.58 2414.14 L913.95 2401.82 L917.33 2393.21 L920.70 2387.98 L924.08 2385.28 L927.45 2384.27 L930.83 2383.93 L934.20 2383.93 L937.58 2383.93 L940.78 2384.27 L944.16 2385.28 L947.53 2387.98 L950.91 2393.04 L954.28 2401.48 L957.66 2413.63 L961.03 2429.66 L964.41 2449.24 L967.78 2471.51 L971.16 2495.48 L974.53 2519.61 L977.91 2542.39 L981.28 2562.64 L984.66 2578.84 L988.03 2589.98 L991.41 2595.54 L994.78 2594.87 L998.16 2587.78 L1001.53 2574.79 L1004.91 2556.39 L1008.28 2533.11 L1011.66 2506.28 L1015.03 2476.91 L1018.41 2446.37 L1021.78 2415.99 L1025.16 2386.80 L1028.53 2359.80 L1031.91 2335.50 L1035.28 2314.57 L1038.66 2296.69 L1042.03 2282.01 L1045.41 2270.03 L1048.78 2260.57 L1052.16 2252.81 L1055.53 2246.57 L1058.91 2241.17 L1062.28 2236.44 L1065.66 2231.72 L1069.03 2226.32 L1072.41 2219.91 L1075.78 2211.47 L1079.16 2199.99 L1082.53 2184.30 L1085.91 2162.87 L1089.28 2134.18 L1092.66 2096.89 L1096.03 2049.30 L1099.41 1990.41 L1102.78 1919.70 L1106.16 1837.35 L1109.53 1744.88 L1112.91 1644.13 L1116.28 1538.83 L1119.66 1433.03 L1122.86 1331.61 L1126.24 1239.81 L1129.61 1162.35 L1132.99 1103.29 L1136.36 1065.49 L1139.74 1050.64 L1143.11 1058.40 L1146.49 1087.43 L1149.86 1134.84 L1153.24 1196.78 L1156.61 1269.68 L1159.99 1349.16 L1163.36 1432.35 L1166.74 1516.39 L1170.11 1599.75 L1173.49 1681.59 L1176.86 1761.92 L1180.24 1840.89 L1183.61 1918.52 L1186.99 1994.79 L1190.36 2069.04 L1193.74 2140.26 L1197.11 2206.91 L1200.49 2267.32 L1203.86 2319.64 L1207.24 2362.50 L1210.61 2394.56 L1213.99 2415.49 L1217.36 2425.11 L1220.74 2424.09 L1224.11 2413.13 L1227.49 2393.21 L1230.86 2365.71 L1234.24 2331.28 L1237.61 2290.44 L1240.99 2243.53 L1244.36 2190.54 L1247.74 2131.48 L1251.11 2066.51 L1254.49 1996.14 L1257.86 1921.73 L1261.24 1845.45 L1264.61 1769.68 L1267.99 1697.79 L1271.36 1632.83 L1274.74 1577.81 L1278.11 1534.78 L1281.49 1505.08 L1284.86 1488.21 L1288.24 1482.81 L1291.61 1486.18 L1294.99 1495.13 L1298.36 1506.09 L1301.74 1515.88 L1304.94 1521.62 L1308.32 1522.13 L1311.69 1516.73 L1315.07 1505.93 L1318.44 1490.91 L1321.82 1473.36 L1325.19 1454.96 L1328.57 1436.91 L1331.94 1419.53 L1335.32 1402.82 L1338.69 1385.61 L1342.07 1365.86 L1345.44 1341.90 L1348.82 1311.69 L1352.19 1273.72 L1355.57 1227.15 L1358.94 1172.98 L1362.32 1112.74 L1365.69 1049.79 L1369.07 988.54 L1372.44 933.69 L1375.82 890.66 L1379.19 864.51 L1382.57 858.94 L1385.94 876.82 L1389.32 918.68 L1392.69 983.47 L1396.07 1068.02 L1399.44 1167.58 L1402.82 1275.92 L1406.19 1386.45 L1409.57 1491.92 L1412.94 1585.91 L1416.32 1662.19 L1419.69 1715.85 L1423.07 1743.36 L1426.44 1742.51 L1429.82 1712.64 L1433.19 1654.59 L1436.57 1570.56 L1439.94 1464.08 L1443.32 1339.54 L1446.69 1202.34 L1450.07 1058.23 L1453.44 912.77 L1456.82 771.86 L1460.19 639.90 L1463.57 521.27 L1466.94 418.84 L1470.32 334.46 L1473.69 268.99 L1477.07 222.75 L1480.44 194.91 L1483.82 184.78 L1487.03 191.03 L1490.40 212.46 L1493.78 247.89 L1497.15 296.16 L1500.53 355.89 L1503.90 425.59 L1507.28 503.21 L1510.65 586.57 L1514.03 672.64 L1517.40 757.52 L1520.78 837.51 L1524.15 908.21 L1527.53 965.93 L1530.90 1007.27 L1534.28 1029.88 L1537.65 1033.09 L1541.03 1017.73 L1544.40 986.51 L1547.78 943.31 L1551.15 893.70 L1554.53 843.07 L1557.90 797.51 L1561.28 761.91 L1564.65 739.80 L1568.03 733.72 L1571.40 743.51 L1574.78 767.98 L1578.15 804.09 L1581.53 848.31 L1584.90 896.06 L1588.28 943.82 L1591.65 988.20 L1595.03 1027.18 L1598.40 1060.09 L1601.78 1087.43 L1605.15 1110.38 L1608.53 1131.13 L1611.90 1151.72 L1615.28 1174.16 L1618.65 1199.31 L1622.03 1227.66 L1625.40 1258.03 L1628.78 1288.91 L1632.15 1318.11 L1635.53 1343.08 L1638.90 1361.98 L1642.28 1373.46 L1645.65 1377.51 L1649.03 1374.98 L1652.40 1368.73 L1655.78 1362.15 L1659.15 1359.28 L1662.53 1364.85 L1665.90 1382.57 L1669.11 1415.31 L1672.48 1464.41 L1675.86 1529.72 L1679.23 1608.69 L1682.61 1697.63 L1685.98 1791.79 L1689.36 1885.44 L1692.73 1973.36 L1696.11 2050.82 L1699.48 2114.10 L1702.86 2161.18 L1706.23 2192.06 L1709.61 2207.59 L1712.98 2210.63 L1716.36 2204.89 L1719.73 2194.43 L1723.11 2183.46 L1726.48 2176.03 L1729.86 2175.19 L1733.23 2183.12 L1736.61 2200.67 L1739.98 2227.84 L1743.36 2263.44 L1746.73 2305.46 L1750.11 2351.70 L1753.48 2399.46 L1756.86 2446.37 L1760.23 2490.41 L1763.61 2529.73 L1766.98 2562.98 L1770.36 2589.81 L1773.73 2609.38 L1777.11 2621.53 L1780.48 2626.43 L1783.86 2624.06 L1787.23 2614.44 L1790.61 2597.57 L1793.98 2573.94 L1797.36 2543.57 L1800.73 2507.46 L1804.11 2466.45 L1807.48 2421.73 L1810.86 2375.32 L1814.23 2328.92 L1817.61 2284.71 L1820.98 2244.88 L1824.36 2211.30 L1827.73 2185.14 L1831.11 2167.76 L1834.48 2158.82 L1837.86 2157.98 L1841.23 2164.39 L1844.61 2176.54 L1847.98 2192.74 L1851.19 2211.81 L1854.56 2232.56 L1857.94 2253.99 L1861.31 2275.93 L1864.69 2298.54 L1868.06 2322.00 L1871.44 2346.47 L1874.81 2372.46 L1878.19 2399.79 L1881.56 2428.48 L1884.94 2457.51 L1888.31 2486.19 L1891.69 2513.53 L1895.06 2537.83 L1898.44 2558.25 L1901.81 2573.61 L1905.19 2583.06 L1908.56 2585.76 L1911.94 2581.37 L1915.31 2569.89 L1918.69 2551.50 L1922.06 2526.69 L1925.44 2496.32 L1928.81 2461.22 L1932.19 2422.57 L1935.56 2381.74 L1938.94 2339.89 L1942.31 2298.38 L1945.69 2258.55 L1949.06 2221.59 L1952.44 2188.35 L1955.81 2159.66 L1959.19 2136.38 L1962.56 2119.16 L1965.94 2108.70 L1969.31 2105.16 L1972.69 2108.70 L1976.06 2119.50 L1979.44 2136.88 L1982.81 2160.00 L1986.19 2187.51 L1989.56 2218.05 L1992.94 2249.78 L1996.31 2280.82 L1999.69 2309.34 L2003.06 2333.98 L2006.44 2353.89 L2009.81 2368.91 L2013.19 2379.21 L2016.56 2385.96 L2019.94 2390.01 L2023.31 2393.21 L2026.69 2396.93 L2030.06 2402.32 L2033.27 2409.92 L2036.64 2420.21 L2040.02 2432.53 L2043.39 2445.86 L2046.77 2459.19 L2050.14 2470.84 L2053.52 2479.78 L2056.89 2484.68 L2060.27 2485.35 L2063.64 2481.47 L2067.02 2474.04 L2070.39 2463.92 L2073.77 2452.95 L2077.14 2442.49 L2080.52 2434.73 L2083.89 2430.84 L2087.27 2431.86 L2090.64 2438.44 L2094.02 2450.59 L2097.39 2467.80 L2100.77 2488.89 L2104.14 2512.69 L2107.52 2537.66 L2110.89 2562.81 L2114.27 2586.77 L2117.64 2608.71 L2121.02 2627.94 L2124.39 2644.31 L2127.77 2657.64 L2131.14 2668.28 L2134.52 2676.38 L2137.89 2682.45 L2141.27 2686.84 L2144.64 2689.88 L2148.02 2691.90 L2151.39 2693.25 L2154.77 2694.09 L2158.14 2694.60 L2161.52 2694.94 L2164.89 2695.11 L2168.27 2695.28 L2171.64 2695.28 L2175.02 2695.44 L2178.39 2695.44 L2181.77 2695.44 L2185.14 2695.44 L2188.52 2695.44 L2191.89 2695.44 L2195.27 2695.44 L2198.64 2695.44 L2202.02 2695.44 L2205.39 2695.44 L2208.77 2695.44 L2212.14 2695.44 L2215.52 2695.44 L2218.73 2695.44 L2222.10 2695.44 L2225.48 2695.44 L2228.85 2695.44 L2232.23 2695.44 L2235.60 2695.44 L2238.98 2695.44 L2242.35 2695.44 L2245.73 2695.44 L2249.10 2695.44 L2252.48 2695.44 L2255.85 2695.44 L2259.23 2695.44 L2262.60 2695.44 L2265.98 2695.44 L2269.35 2695.44 L2272.73 2695.44 L2276.10 2695.44 L2279.48 2695.44 L2282.85 2695.44 L2286.23 2695.44 L2289.60 2695.44 L2292.98 2695.28 L2296.35 2695.28 L2299.73 2695.28 L2303.10 2695.11 L2306.48 2694.77 L2309.85 2694.26 L2313.23 2693.59 L2316.60 2692.24 L2319.98 2690.55 L2323.35 2687.68 L2326.73 2683.80 L2330.10 2678.40 L2333.48 2670.81 L2336.85 2661.02 L2340.23 2648.53 L2343.60 2633.18 L2346.98 2614.78 L2350.35 2593.69 L2353.73 2570.40 L2357.10 2545.76 L2360.48 2520.79 L2363.85 2496.99 L2367.23 2475.56 L2370.60 2458.01 L2373.98 2445.86 L2377.35 2439.62 L2380.73 2439.96 L2384.10 2446.88 L2387.48 2459.87 L2390.85 2477.76 L2394.23 2499.53 L2397.60 2523.66 L2400.81 2548.63 L2404.18 2573.27 L2407.56 2596.39 L2410.93 2617.14 L2414.31 2635.03 L2417.68 2650.22 L2421.06 2662.37 L2424.43 2671.82 L2427.81 2679.08 L2431.18 2684.31 L2434.56 2688.19 L2437.93 2690.72 L2441.31 2692.41" stroke-linejoin="round" style="fill:none;stroke:#A0A0A0;stroke-width:9.72"/>
	<path d=" M655.76 2693.42 L659.31 2692.91 L663.02 2692.24 L666.56 2691.23 L670.28 2690.21 L673.82 2688.69 L677.53 2687.01 L681.08 2684.98 L684.62 2682.62 L688.33 2679.58 L691.88 2676.21 L695.59 2672.16 L699.13 2667.43 L702.84 2662.20 L706.39 2656.13 L709.93 2649.21 L713.64 2641.44 L717.19 2633.01 L720.90 2623.73 L724.44 2613.60 L728.16 2602.63 L731.70 2591.16 L735.24 2579.01 L738.96 2566.35 L742.50 2553.53 L746.21 2540.36 L749.76 2527.37 L753.47 2514.38 L757.01 2502.06 L760.56 2490.24 L764.27 2479.28 L767.81 2469.32 L771.53 2460.71 L775.07 2453.46 L778.78 2447.72 L782.33 2443.67 L785.87 2441.31 L789.58 2440.80 L793.13 2441.81 L796.84 2444.68 L800.38 2449.07 L804.09 2454.98 L807.64 2462.06 L811.35 2470.33 L814.89 2479.28 L818.44 2489.06 L822.15 2499.02 L825.69 2509.14 L829.41 2518.93 L832.95 2528.55 L836.66 2537.32 L840.21 2545.43 L843.75 2552.51 L847.46 2558.42 L851.01 2562.98 L854.72 2566.18 L858.26 2568.04 L861.98 2568.54 L865.52 2567.70 L869.06 2565.34 L872.78 2561.96 L876.32 2557.41 L880.03 2551.84 L883.58 2545.43 L887.29 2538.34 L890.83 2530.74 L894.38 2522.81 L898.09 2514.71 L901.63 2506.61 L905.34 2498.85 L908.89 2491.43 L912.60 2484.34 L916.14 2477.93 L919.69 2472.36 L923.40 2467.46 L926.94 2463.41 L930.66 2460.21 L934.20 2457.84 L937.91 2456.32 L941.46 2455.65 L945.17 2455.65 L948.71 2456.32 L952.26 2457.51 L955.97 2459.03 L959.51 2460.71 L963.23 2462.40 L966.77 2464.09 L970.48 2465.61 L974.03 2466.45 L977.57 2466.96 L981.28 2466.45 L984.83 2465.27 L988.54 2463.24 L992.08 2460.04 L995.79 2455.65 L999.34 2450.08 L1002.88 2443.33 L1006.59 2435.57 L1010.14 2426.46 L1013.85 2416.16 L1017.39 2404.69 L1021.11 2392.03 L1024.65 2378.36 L1028.19 2363.51 L1031.91 2347.65 L1035.45 2330.61 L1039.16 2312.72 L1042.71 2293.48 L1046.42 2273.23 L1049.96 2251.80 L1053.68 2229.19 L1057.22 2205.23 L1060.76 2179.91 L1064.47 2153.08 L1068.02 2124.90 L1071.73 2095.37 L1075.28 2064.49 L1078.99 2032.09 L1082.53 1998.68 L1086.08 1964.08 L1089.79 1928.81 L1093.33 1893.04 L1097.04 1857.09 L1100.59 1821.32 L1104.30 1786.22 L1107.84 1752.30 L1111.39 1719.90 L1115.10 1689.69 L1118.64 1662.02 L1122.36 1637.55 L1125.90 1616.63 L1129.61 1599.58 L1133.16 1586.76 L1136.70 1578.66 L1140.41 1575.28 L1143.96 1576.63 L1147.67 1582.88 L1151.21 1593.68 L1154.93 1609.03 L1158.47 1628.44 L1162.01 1651.73 L1165.72 1678.22 L1169.27 1707.58 L1172.98 1738.97 L1176.53 1771.88 L1180.24 1805.63 L1183.78 1839.54 L1187.49 1872.79 L1191.04 1905.19 L1194.58 1935.56 L1198.29 1963.74 L1201.84 1989.06 L1205.55 2011.16 L1209.09 2029.56 L1212.81 2043.90 L1216.35 2054.19 L1219.89 2060.27 L1223.61 2061.96 L1227.15 2059.43 L1230.86 2052.84 L1234.41 2042.21 L1238.12 2028.04 L1241.66 2010.32 L1245.21 1989.73 L1248.92 1966.44 L1252.46 1940.96 L1256.18 1913.63 L1259.72 1884.94 L1263.43 1855.24 L1266.97 1824.86 L1270.52 1794.32 L1274.23 1763.78 L1277.78 1733.40 L1281.49 1703.70 L1285.03 1674.51 L1288.74 1646.16 L1292.29 1618.82 L1296.00 1592.16 L1299.54 1566.51 L1303.09 1541.70 L1306.80 1517.57 L1310.34 1494.45 L1314.06 1471.84 L1317.60 1449.90 L1321.31 1428.47 L1324.86 1407.71 L1328.40 1387.46 L1332.11 1367.89 L1335.66 1349.16 L1339.37 1331.10 L1342.91 1313.89 L1346.63 1297.86 L1350.17 1283.01 L1353.71 1269.51 L1357.43 1257.53 L1360.97 1247.06 L1364.68 1238.46 L1368.23 1231.37 L1371.94 1226.14 L1375.48 1222.43 L1379.03 1220.06 L1382.74 1219.05 L1386.28 1218.88 L1389.99 1219.39 L1393.54 1219.89 L1397.25 1220.06 L1400.79 1219.39 L1404.34 1217.36 L1408.05 1213.48 L1411.59 1207.41 L1415.31 1198.80 L1418.85 1186.99 L1422.56 1172.14 L1426.11 1153.91 L1429.82 1132.31 L1433.36 1107.51 L1436.91 1079.66 L1440.62 1049.29 L1444.16 1016.55 L1447.88 982.13 L1451.42 946.69 L1455.13 910.91 L1458.68 875.31 L1462.22 840.54 L1465.93 807.47 L1469.48 776.59 L1473.19 748.41 L1476.73 723.43 L1480.44 702.00 L1483.99 684.45 L1487.53 670.95 L1491.24 661.33 L1494.79 655.76 L1498.50 653.91 L1502.04 655.43 L1505.76 660.32 L1509.30 668.08 L1512.84 678.04 L1516.56 690.19 L1520.10 703.86 L1523.81 718.71 L1527.36 734.23 L1531.07 750.26 L1534.61 766.63 L1538.33 783.00 L1541.87 799.20 L1545.41 815.23 L1549.13 830.93 L1552.67 846.45 L1556.38 861.64 L1559.93 876.99 L1563.64 892.35 L1567.18 907.71 L1570.73 923.57 L1574.44 939.77 L1577.98 956.47 L1581.69 973.86 L1585.24 991.74 L1588.95 1010.47 L1592.49 1030.05 L1596.04 1050.30 L1599.75 1071.22 L1603.29 1092.99 L1607.01 1115.61 L1610.55 1138.72 L1614.26 1162.52 L1617.81 1186.99 L1621.35 1211.96 L1625.06 1237.78 L1628.61 1264.11 L1632.32 1291.28 L1635.86 1318.95 L1639.58 1347.47 L1643.12 1376.83 L1646.66 1407.04 L1650.38 1438.26 L1653.92 1470.15 L1657.63 1503.06 L1661.18 1536.81 L1664.89 1571.40 L1668.43 1606.67 L1672.14 1642.78 L1675.69 1679.40 L1679.23 1716.53 L1682.94 1753.82 L1686.49 1791.28 L1690.20 1828.74 L1693.74 1866.04 L1697.46 1902.83 L1701.00 1939.28 L1704.54 1974.88 L1708.26 2009.81 L1711.80 2043.73 L1715.51 2076.47 L1719.06 2108.36 L1722.77 2138.91 L1726.31 2168.27 L1729.86 2196.11 L1733.57 2222.78 L1737.11 2247.92 L1740.83 2271.54 L1744.37 2293.65 L1748.08 2314.07 L1751.63 2332.80 L1755.17 2349.68 L1758.88 2364.86 L1762.43 2378.03 L1766.14 2389.16 L1769.68 2398.28 L1773.39 2405.53 L1776.94 2410.59 L1780.65 2413.63 L1784.19 2414.81 L1787.74 2414.31 L1791.45 2411.94 L1794.99 2408.23 L1798.71 2403.17 L1802.25 2396.93 L1805.96 2390.01 L1809.51 2382.58 L1813.05 2374.99 L1816.76 2367.39 L1820.31 2359.97 L1824.02 2353.22 L1827.56 2347.14 L1831.28 2342.08 L1834.82 2338.20 L1838.36 2335.50 L1842.08 2334.15 L1845.62 2334.32 L1849.33 2335.67 L1852.88 2338.20 L1856.59 2342.08 L1860.13 2346.98 L1863.68 2352.71 L1867.39 2358.96 L1870.93 2365.71 L1874.64 2372.63 L1878.19 2379.54 L1881.90 2386.13 L1885.44 2392.03 L1888.99 2397.26 L1892.70 2401.31 L1896.24 2404.35 L1899.96 2406.21 L1903.50 2406.54 L1907.21 2405.36 L1910.76 2402.83 L1914.47 2398.95 L1918.01 2393.55 L1921.56 2386.97 L1925.27 2379.21 L1928.81 2370.77 L1932.53 2361.49 L1936.07 2351.70 L1939.78 2341.74 L1943.33 2331.96 L1946.87 2322.34 L1950.58 2313.23 L1954.13 2304.79 L1957.84 2297.36 L1961.38 2291.12 L1965.09 2286.06 L1968.64 2282.34 L1972.18 2279.98 L1975.89 2279.14 L1979.44 2279.81 L1983.15 2281.84 L1986.69 2285.04 L1990.41 2289.60 L1993.95 2295.17 L1997.49 2301.92 L2001.21 2309.34 L2004.75 2317.44 L2008.46 2326.22 L2012.01 2335.16 L2015.72 2344.44 L2019.26 2353.89 L2022.98 2363.34 L2026.52 2372.79 L2030.06 2382.07 L2033.78 2391.02 L2037.32 2399.79 L2041.03 2408.23 L2044.58 2416.50 L2048.29 2424.43 L2051.83 2432.03 L2055.38 2439.62 L2059.09 2447.04 L2062.63 2454.30 L2066.34 2461.56 L2069.89 2468.81 L2073.60 2476.24 L2077.14 2483.83 L2080.69 2491.59 L2084.40 2499.53 L2087.94 2507.63 L2091.66 2516.06 L2095.20 2524.67 L2098.91 2533.61 L2102.46 2542.56 L2106.00 2551.84 L2109.71 2561.12 L2113.26 2570.40 L2116.97 2579.68 L2120.51 2588.96 L2124.23 2597.91 L2127.77 2606.68 L2131.31 2615.29 L2135.03 2623.39 L2138.57 2630.98 L2142.28 2638.24 L2145.82 2645.16 L2149.54 2651.40 L2153.08 2657.14 L2156.79 2662.37 L2160.34 2667.09 L2163.88 2671.31 L2167.59 2675.03 L2171.14 2678.23 L2174.85 2681.10 L2178.39 2683.63 L2182.11 2685.66 L2185.65 2687.51 L2189.19 2689.03 L2192.91 2690.21 L2196.45 2691.23 L2200.16 2692.07 L2203.71 2692.74 L2207.42 2693.42 L2210.96 2693.76 L2214.51 2694.09 L2218.22 2694.43 L2221.76 2694.60 L2225.48 2694.77 L2229.02 2694.77 L2232.73 2694.77 L2236.28 2694.77 L2239.82 2694.77 L2243.53 2694.60 L2247.07 2694.43 L2250.79 2694.26 L2254.33 2693.93 L2258.04 2693.42 L2261.59 2692.91 L2265.30 2692.24 L2268.84 2691.39 L2272.39 2690.38 L2276.10 2689.20 L2279.64 2687.68 L2283.36 2685.99 L2286.90 2683.97 L2290.61 2681.61 L2294.16 2678.91 L2297.70 2675.87 L2301.41 2672.33 L2304.96 2668.44 L2308.67 2664.06 L2312.21 2659.33 L2315.93 2654.10 L2319.47 2648.53 L2323.01 2642.63 L2326.73 2636.38 L2330.27 2629.80 L2333.98 2623.22 L2337.53 2616.47 L2341.24 2609.72 L2344.78 2603.14 L2348.32 2596.73 L2352.04 2590.82 L2355.58 2585.25 L2359.29 2580.19 L2362.84 2575.80 L2366.55 2572.26 L2370.09 2569.56 L2373.64 2567.87 L2377.35 2567.03 L2380.89 2567.03 L2384.61 2568.04 L2388.15 2570.06 L2391.86 2572.93 L2395.41 2576.64 L2399.12 2581.20 L2402.66 2586.26 L2406.21 2592.00 L2409.92 2598.07 L2413.46 2604.49 L2417.18 2611.07 L2420.72 2617.82 L2424.43 2624.57 L2427.98 2631.15 L2431.52 2637.73 L2435.23 2643.81 L2438.78 2649.71 L2442.49 2655.28 L2446.03 2660.34 L2449.74 2665.07 L2453.29 2669.29 L2456.83 2673.17 L2460.54 2676.54 L2464.09 2679.58 L2467.80 2682.11 L2471.34 2684.48 L2475.06 2686.33 L2478.60 2688.02 L2482.14 2689.37 L2485.86 2690.55 L2489.40 2691.56 L2493.11 2692.41 L2496.66 2693.08 L2500.37 2693.59 L2503.91 2693.93" stroke-linejoin="round" style="fill:none;stroke:#505050;stroke-width:9.72"/>
	<path d=" M530.55 2694.26 L534.77 2694.09 L538.82 2693.93 L542.87 2693.59 L547.09 2693.42 L551.14 2693.08 L555.19 2692.74 L559.41 2692.41 L563.46 2691.90 L567.51 2691.39 L571.73 2690.89 L575.78 2690.21 L579.83 2689.54 L584.04 2688.86 L588.09 2688.02 L592.14 2687.01 L596.36 2685.99 L600.41 2684.98 L604.46 2683.80 L608.68 2682.45 L612.73 2680.93 L616.78 2679.41 L621.00 2677.73 L625.05 2676.04 L629.10 2674.01 L633.32 2671.99 L637.37 2669.79 L641.42 2667.43 L645.64 2664.90 L649.69 2662.20 L653.74 2659.33 L657.96 2656.46 L662.01 2653.43 L666.06 2650.05 L670.28 2646.68 L674.33 2643.30 L678.38 2639.59 L682.59 2635.88 L686.64 2631.99 L690.69 2627.94 L694.91 2623.89 L698.96 2619.68 L703.01 2615.46 L707.23 2611.24 L711.28 2606.85 L715.33 2602.63 L719.55 2598.24 L723.60 2593.86 L727.65 2589.47 L731.87 2585.25 L735.92 2581.03 L739.97 2576.81 L744.19 2572.59 L748.24 2568.71 L752.29 2564.66 L756.51 2560.95 L760.56 2557.24 L764.61 2553.69 L768.83 2550.32 L772.88 2546.94 L776.93 2543.91 L781.14 2541.04 L785.19 2538.17 L789.24 2535.47 L793.46 2532.94 L797.51 2530.74 L801.56 2528.38 L805.78 2526.36 L809.83 2524.50 L813.88 2522.64 L818.10 2520.79 L822.15 2519.27 L826.20 2517.58 L830.42 2516.06 L834.47 2514.71 L838.52 2513.19 L842.74 2511.84 L846.79 2510.49 L850.84 2508.98 L855.06 2507.63 L859.11 2506.11 L863.16 2504.59 L867.38 2502.90 L871.43 2501.21 L875.48 2499.36 L879.69 2497.33 L883.74 2495.31 L887.79 2493.11 L892.01 2490.58 L896.06 2488.05 L900.11 2485.18 L904.33 2482.31 L908.38 2479.11 L912.43 2475.56 L916.65 2471.85 L920.70 2467.97 L924.75 2463.58 L928.97 2459.03 L933.02 2454.30 L937.07 2449.07 L941.29 2443.67 L945.34 2437.76 L949.56 2431.52 L953.61 2424.94 L957.66 2418.02 L961.88 2410.59 L965.93 2402.83 L969.98 2394.56 L974.19 2385.96 L978.24 2376.84 L982.29 2367.39 L986.51 2357.44 L990.56 2346.98 L994.61 2336.18 L998.83 2324.87 L1002.88 2313.23 L1006.93 2300.91 L1011.15 2288.42 L1015.20 2275.43 L1019.25 2262.09 L1023.47 2248.43 L1027.52 2234.25 L1031.57 2220.07 L1035.79 2205.39 L1039.84 2190.54 L1043.89 2175.53 L1048.11 2160.34 L1052.16 2145.15 L1056.21 2129.79 L1060.43 2114.44 L1064.47 2099.25 L1068.53 2084.06 L1072.74 2069.04 L1076.79 2054.19 L1080.84 2039.68 L1085.06 2025.34 L1089.11 2011.50 L1093.16 1998.00 L1097.38 1984.84 L1101.43 1972.18 L1105.48 1960.03 L1109.70 1948.39 L1113.75 1937.42 L1117.80 1926.96 L1122.02 1917.00 L1126.07 1907.72 L1130.12 1899.11 L1134.34 1891.01 L1138.39 1883.42 L1142.44 1876.33 L1146.66 1869.92 L1150.71 1864.01 L1154.76 1858.44 L1158.97 1853.38 L1163.03 1848.66 L1167.08 1844.27 L1171.29 1840.05 L1175.34 1836.17 L1179.39 1832.46 L1183.61 1828.74 L1187.66 1825.03 L1191.71 1821.32 L1195.93 1817.44 L1199.98 1813.56 L1204.03 1809.34 L1208.25 1804.78 L1212.30 1800.06 L1216.35 1794.83 L1220.57 1789.09 L1224.62 1783.01 L1228.67 1776.43 L1232.89 1769.34 L1236.94 1761.75 L1240.99 1753.48 L1245.21 1744.54 L1249.26 1735.09 L1253.31 1725.13 L1257.53 1714.50 L1261.58 1703.19 L1265.63 1691.38 L1269.84 1679.06 L1273.89 1666.07 L1277.94 1652.74 L1282.16 1638.90 L1286.21 1624.56 L1290.26 1609.71 L1294.48 1594.69 L1298.53 1579.16 L1302.58 1563.30 L1306.80 1547.27 L1310.85 1530.90 L1314.90 1514.36 L1319.12 1497.66 L1323.17 1480.78 L1327.22 1463.91 L1331.44 1446.86 L1335.49 1429.65 L1339.54 1412.61 L1343.76 1395.39 L1347.81 1378.35 L1351.86 1361.31 L1356.08 1344.26 L1360.13 1327.39 L1364.18 1310.51 L1368.39 1293.64 L1372.44 1277.10 L1376.49 1260.56 L1380.71 1244.19 L1384.76 1227.99 L1388.81 1211.79 L1393.03 1195.93 L1397.08 1180.24 L1401.13 1164.71 L1405.35 1149.53 L1409.40 1134.51 L1413.45 1119.66 L1417.67 1105.31 L1421.72 1091.14 L1425.77 1077.30 L1429.99 1063.80 L1434.04 1050.81 L1438.09 1038.15 L1442.31 1026.00 L1446.36 1014.36 L1450.41 1003.22 L1454.63 992.59 L1458.68 982.63 L1462.73 973.35 L1466.94 964.74 L1470.99 956.81 L1475.04 949.72 L1479.26 943.48 L1483.31 937.91 L1487.36 933.19 L1491.58 929.47 L1495.63 926.78 L1499.68 924.92 L1503.90 923.91 L1507.95 924.07 L1512.00 925.09 L1516.22 927.28 L1520.27 930.49 L1524.32 934.71 L1528.54 939.94 L1532.59 946.35 L1536.64 953.78 L1540.86 962.21 L1544.91 971.66 L1548.96 982.29 L1553.18 993.94 L1557.23 1006.43 L1561.28 1020.09 L1565.49 1034.61 L1569.54 1050.13 L1573.59 1066.67 L1577.81 1084.05 L1581.86 1102.28 L1585.91 1121.34 L1590.13 1141.43 L1594.18 1162.18 L1598.23 1183.61 L1602.45 1205.89 L1606.50 1228.84 L1610.72 1252.29 L1614.77 1276.59 L1618.82 1301.23 L1623.04 1326.54 L1627.09 1352.36 L1631.14 1378.69 L1635.36 1405.35 L1639.41 1432.35 L1643.46 1459.52 L1647.68 1487.19 L1651.73 1514.87 L1655.78 1542.88 L1659.99 1570.89 L1664.04 1599.08 L1668.09 1627.09 L1672.31 1655.27 L1676.36 1683.11 L1680.41 1710.96 L1684.63 1738.63 L1688.68 1765.97 L1692.73 1792.97 L1696.95 1819.80 L1701.00 1845.96 L1705.05 1871.94 L1709.27 1897.26 L1713.32 1922.06 L1717.37 1946.36 L1721.59 1969.99 L1725.64 1992.94 L1729.69 2015.21 L1733.91 2036.81 L1737.96 2057.74 L1742.01 2077.82 L1746.23 2097.23 L1750.28 2115.79 L1754.33 2133.51 L1758.54 2150.38 L1762.59 2166.58 L1766.64 2181.94 L1770.86 2196.45 L1774.91 2210.12 L1778.96 2223.11 L1783.18 2235.26 L1787.23 2246.74 L1791.28 2257.37 L1795.50 2267.32 L1799.55 2276.44 L1803.60 2285.04 L1807.82 2292.98 L1811.87 2300.23 L1815.92 2306.81 L1820.14 2312.89 L1824.19 2318.29 L1828.24 2323.35 L1832.46 2327.91 L1836.51 2331.96 L1840.56 2335.50 L1844.78 2338.71 L1848.83 2341.57 L1852.88 2343.94 L1857.09 2346.13 L1861.14 2347.99 L1865.19 2349.68 L1869.41 2350.86 L1873.46 2352.04 L1877.51 2352.88 L1881.73 2353.73 L1885.78 2354.23 L1889.83 2354.74 L1894.05 2355.07 L1898.10 2355.24 L1902.15 2355.58 L1906.37 2355.58 L1910.42 2355.75 L1914.47 2355.75 L1918.69 2355.92 L1922.74 2356.09 L1926.79 2356.26 L1931.01 2356.43 L1935.06 2356.76 L1939.11 2357.27 L1943.33 2357.78 L1947.38 2358.45 L1951.43 2359.29 L1955.64 2360.31 L1959.69 2361.49 L1963.74 2362.84 L1967.96 2364.53 L1972.01 2366.21 L1976.06 2368.24 L1980.28 2370.60 L1984.33 2372.96 L1988.38 2375.83 L1992.60 2378.70 L1996.65 2382.07 L2000.70 2385.45 L2004.92 2389.33 L2008.97 2393.38 L2013.02 2397.60 L2017.24 2401.99 L2021.29 2406.88 L2025.34 2411.78 L2029.56 2417.01 L2033.61 2422.41 L2037.66 2427.98 L2041.88 2433.88 L2045.93 2439.79 L2049.98 2446.03 L2054.19 2452.28 L2058.24 2458.69 L2062.29 2465.27 L2066.51 2472.02 L2070.56 2478.77 L2074.61 2485.52 L2078.83 2492.44 L2082.88 2499.36 L2086.93 2506.28 L2091.15 2513.19 L2095.20 2520.11 L2099.25 2527.03 L2103.47 2533.78 L2107.52 2540.53 L2111.57 2547.28 L2115.79 2553.86 L2119.84 2560.28 L2123.89 2566.69 L2128.11 2572.93 L2132.16 2579.01 L2136.21 2584.91 L2140.43 2590.65 L2144.48 2596.22 L2148.53 2601.62 L2152.74 2606.85 L2156.79 2611.91 L2160.84 2616.64 L2165.06 2621.19 L2169.11 2625.58 L2173.16 2629.63 L2177.38 2633.51 L2181.43 2637.23 L2185.48 2640.60 L2189.70 2643.64 L2193.75 2646.68 L2197.80 2649.38 L2202.02 2651.74 L2206.07 2653.93 L2210.12 2655.96 L2214.34 2657.64 L2218.39 2659.16 L2222.44 2660.51 L2226.66 2661.53 L2230.71 2662.37 L2234.76 2663.04 L2238.98 2663.38 L2243.03 2663.72 L2247.07 2663.72 L2251.29 2663.55 L2255.34 2663.21 L2259.39 2662.71 L2263.61 2662.03 L2267.66 2661.19 L2271.71 2660.34 L2275.93 2659.33 L2279.98 2658.15 L2284.20 2656.80 L2288.25 2655.45 L2292.30 2654.10 L2296.52 2652.58 L2300.57 2651.06 L2304.62 2649.54 L2308.84 2648.03 L2312.89 2646.51 L2316.94 2644.82 L2321.16 2643.30 L2325.21 2641.78 L2329.26 2640.43 L2333.48 2639.08 L2337.53 2637.73 L2341.57 2636.55 L2345.79 2635.37 L2349.84 2634.36 L2353.89 2633.51 L2358.11 2632.67 L2362.16 2631.99 L2366.21 2631.49 L2370.43 2631.15 L2374.48 2630.98 L2378.53 2630.98 L2382.75 2630.98 L2386.80 2631.32 L2390.85 2631.66 L2395.07 2632.16 L2399.12 2632.84 L2403.17 2633.68 L2407.39 2634.69 L2411.44 2635.88 L2415.49 2637.06 L2419.71 2638.41 L2423.76 2639.76 L2427.81 2641.28 L2432.03 2642.96 L2436.07 2644.65 L2440.13 2646.34 L2444.34 2648.19 L2448.39 2650.05 L2452.44 2651.91 L2456.66 2653.76 L2460.71 2655.62 L2464.76 2657.64 L2468.98 2659.50 L2473.03 2661.36 L2477.08 2663.38 L2481.30 2665.07 L2485.35 2666.93 L2489.40 2668.78 L2493.62 2670.47 L2497.67 2672.16 L2501.72 2673.68 L2505.94 2675.19 L2509.99 2676.71 L2514.04 2678.06 L2518.26 2679.41 L2522.31 2680.76 L2526.36 2681.94 L2530.57 2683.13 L2534.63 2684.14 L2538.68 2685.15 L2542.89 2686.16 L2546.94 2687.01 L2550.99 2687.85 L2555.21 2688.53 L2559.26 2689.20 L2563.31 2689.88 L2567.53 2690.38 L2571.58 2690.89 L2575.63 2691.39 L2579.85 2691.90 L2583.90 2692.24 L2587.95 2692.58 L2592.17 2692.91 L2596.22 2693.25 L2600.27 2693.59 L2604.49 2693.76 L2608.54 2693.93 L2612.59 2694.09 L2616.81 2694.26 L2620.86 2694.43 L2624.91 2694.60 L2629.13 2694.77" stroke-linejoin="round" style="fill:none;stroke:#000000;stroke-width:9.72"/>
	<line x1="459.34" y1="2766.66" x2="459.34" y2="113.40" style="stroke:#000000;stroke-width:6.48"/>
	<line x1="459.34" y1="2695.28" x2="414.45" y2="2695.28" style="stroke:#000000;stroke-width:6.48"/>
	<text x="391.84" y="2734.71" style="font-family:'Helvetica';font-size:112.56px;fill:#000000" text-anchor="end">0</text>
	<line x1="459.34" y1="2090.14" x2="414.45" y2="2090.14" style="stroke:#000000;stroke-width:6.48"/>
	<text x="391.84" y="2129.57" style="font-family:'Helvetica';font-size:112.56px;fill:#000000" text-anchor="end">2</text>
	<line x1="459.34" y1="1485.00" x2="414.45" y2="1485.00" style="stroke:#000000;stroke-width:6.48"/>
	<text x="391.84" y="1524.44" style="font-family:'Helvetica';font-size:112.56px;fill:#000000" text-anchor="end">4</text>
	<line x1="459.34" y1="879.69" x2="414.45" y2="879.69" style="stroke:#000000;stroke-width:6.48"/>
	<text x="391.84" y="919.13" style="font-family:'Helvetica';font-size:112.56px;fill:#000000" text-anchor="end">6</text>
	<line x1="459.34" y1="274.56" x2="414.45" y2="274.56" style="stroke:#000000;stroke-width:6.48"/>
	<text x="391.84" y="313.99" style="font-family:'Helvetica';font-size:112.56px;fill:#000000" text-anchor="end">8</text>
	<text x="214.55" y="1439.94" style="font-family:'Helvetica';font-size:112.56px;fill:#000000" transform="rotate(-90 214.55,1439.94)" text-anchor="middle">Density</text>
	<line x1="459.34" y1="2766.66" x2="2828.42" y2="2766.66" style="stroke:#000000;stroke-width:6.48"/>
	<line x1="649.86" y1="2766.66" x2="649.86" y2="2811.54" style="stroke:#000000;stroke-width:6.48"/>
	<text x="649.86" y="2912.86" style="font-family:'Helvetica';font-size:112.56px;fill:#000000" text-anchor="middle">-.2</text>
	<line x1="1352.36" y1="2766.66" x2="1352.36" y2="2811.54" style="stroke:#000000;stroke-width:6.48"/>
	<text x="1352.36" y="2912.86" style="font-family:'Helvetica';font-size:112.56px;fill:#000000" text-anchor="middle">0</text>
	<line x1="2054.70" y1="2766.66" x2="2054.70" y2="2811.54" style="stroke:#000000;stroke-width:6.48"/>
	<text x="2054.70" y="2912.86" style="font-family:'Helvetica';font-size:112.56px;fill:#000000" text-anchor="middle">.2</text>
	<line x1="2757.04" y1="2766.66" x2="2757.04" y2="2811.54" style="stroke:#000000;stroke-width:6.48"/>
	<text x="2757.04" y="2912.86" style="font-family:'Helvetica';font-size:112.56px;fill:#000000" text-anchor="middle">.4</text>
	<text x="1643.79" y="3070.31" style="font-family:'Helvetica';font-size:112.56px;fill:#000000" text-anchor="middle">IV estimates</text>
	<rect x="2867.23" y="1335.15" width="2380.56" height="209.76" style="fill:#FFFFFF"/>
	<rect x="2870.47" y="1338.39" width="2374.08" height="203.28" style="fill:none;stroke:#FFFFFF;stroke-width:6.48"/>
	<line x1="2915.83" y1="1439.94" x2="3175.03" y2="1439.94" style="stroke:#A0A0A0;stroke-width:9.72"/>
	<line x1="3784.22" y1="1439.94" x2="4043.42" y2="1439.94" style="stroke:#505050;stroke-width:9.72"/>
	<line x1="4586.79" y1="1439.94" x2="4845.99" y2="1439.94" style="stroke:#000000;stroke-width:9.72"/>
	<text x="3242.53" y="1479.38" style="font-family:'Helvetica';font-size:112.56px;fill:#000000"> = .25</text>
	<text x="4110.92" y="1479.38" style="font-family:'Helvetica';font-size:112.56px;fill:#000000"> = .5</text>
	<text x="4913.49" y="1479.38" style="font-family:'Helvetica';font-size:112.56px;fill:#000000"> = 1</text>
</svg>
