<?xml version="1.0" encoding="UTF-8" standalone="no"?>
<!-- This is a Stata 18.5 generated SVG file (http://www.stata.com) -->

<svg version="1.1" width="600px" height="360px" viewBox="0 0 5400 3240" xmlns="http://www.w3.org/2000/svg" xmlns:xlink="http://www.w3.org/1999/xlink">
	<desc>Stata Graph - Graph</desc>
	<rect x="0" y="0" width="5400" height="3240" style="fill:#FFFFFF;stroke:none"/>
	<rect x="0.00" y="0.00" width="5400.00" height="3240.00" style="fill:#FFFFFF"/>
	<rect x="3.24" y="3.24" width="5393.52" height="3233.52" style="fill:none;stroke:#FFFFFF;stroke-width:6.48"/>
	<rect x="459.34" y="113.40" width="4827.26" height="2365.71" style="fill:#FFFFFF"/>
	<rect x="462.58" y="116.64" width="4820.78" height="2359.23" style="fill:none;stroke:#FFFFFF;stroke-width:6.48"/>
	<line x1="459.34" y1="2407.89" x2="524.14" y2="2407.89" style="stroke:#F0F0F0;stroke-width:9.72"/>
	<line x1="556.54" y1="2407.89" x2="621.34" y2="2407.89" style="stroke:#F0F0F0;stroke-width:9.72"/>
	<line x1="653.74" y1="2407.89" x2="718.54" y2="2407.89" style="stroke:#F0F0F0;stroke-width:9.72"/>
	<line x1="750.94" y1="2407.89" x2="815.74" y2="2407.89" style="stroke:#F0F0F0;stroke-width:9.72"/>
	<line x1="848.14" y1="2407.89" x2="912.94" y2="2407.89" style="stroke:#F0F0F0;stroke-width:9.72"/>
	<line x1="945.34" y1="2407.89" x2="1010.14" y2="2407.89" style="stroke:#F0F0F0;stroke-width:9.72"/>
	<line x1="1042.54" y1="2407.89" x2="1107.34" y2="2407.89" style="stroke:#F0F0F0;stroke-width:9.72"/>
	<line x1="1139.74" y1="2407.89" x2="1204.54" y2="2407.89" style="stroke:#F0F0F0;stroke-width:9.72"/>
	<line x1="1236.94" y1="2407.89" x2="1301.74" y2="2407.89" style="stroke:#F0F0F0;stroke-width:9.72"/>
	<line x1="1334.14" y1="2407.89" x2="1398.94" y2="2407.89" style="stroke:#F0F0F0;stroke-width:9.72"/>
	<line x1="1431.34" y1="2407.89" x2="1496.14" y2="2407.89" style="stroke:#F0F0F0;stroke-width:9.72"/>
	<line x1="1528.54" y1="2407.89" x2="1593.34" y2="2407.89" style="stroke:#F0F0F0;stroke-width:9.72"/>
	<line x1="1625.74" y1="2407.89" x2="1690.54" y2="2407.89" style="stroke:#F0F0F0;stroke-width:9.72"/>
	<line x1="1722.94" y1="2407.89" x2="1787.74" y2="2407.89" style="stroke:#F0F0F0;stroke-width:9.72"/>
	<line x1="1820.14" y1="2407.89" x2="1884.94" y2="2407.89" style="stroke:#F0F0F0;stroke-width:9.72"/>
	<line x1="1917.34" y1="2407.89" x2="1982.14" y2="2407.89" style="stroke:#F0F0F0;stroke-width:9.72"/>
	<line x1="2014.54" y1="2407.89" x2="2079.34" y2="2407.89" style="stroke:#F0F0F0;stroke-width:9.72"/>
	<line x1="2111.74" y1="2407.89" x2="2176.54" y2="2407.89" style="stroke:#F0F0F0;stroke-width:9.72"/>
	<line x1="2208.94" y1="2407.89" x2="2273.74" y2="2407.89" style="stroke:#F0F0F0;stroke-width:9.72"/>
	<line x1="2306.14" y1="2407.89" x2="2370.94" y2="2407.89" style="stroke:#F0F0F0;stroke-width:9.72"/>
	<line x1="2403.34" y1="2407.89" x2="2468.14" y2="2407.89" style="stroke:#F0F0F0;stroke-width:9.72"/>
	<line x1="2500.54" y1="2407.89" x2="2565.34" y2="2407.89" style="stroke:#F0F0F0;stroke-width:9.72"/>
	<line x1="2597.74" y1="2407.89" x2="2662.54" y2="2407.89" style="stroke:#F0F0F0;stroke-width:9.72"/>
	<line x1="2694.94" y1="2407.89" x2="2759.74" y2="2407.89" style="stroke:#F0F0F0;stroke-width:9.72"/>
	<line x1="2792.14" y1="2407.89" x2="2856.94" y2="2407.89" style="stroke:#F0F0F0;stroke-width:9.72"/>
	<line x1="2889.34" y1="2407.89" x2="2954.14" y2="2407.89" style="stroke:#F0F0F0;stroke-width:9.72"/>
	<line x1="2986.54" y1="2407.89" x2="3051.34" y2="2407.89" style="stroke:#F0F0F0;stroke-width:9.72"/>
	<line x1="3083.74" y1="2407.89" x2="3148.54" y2="2407.89" style="stroke:#F0F0F0;stroke-width:9.72"/>
	<line x1="3180.94" y1="2407.89" x2="3245.74" y2="2407.89" style="stroke:#F0F0F0;stroke-width:9.72"/>
	<line x1="3278.14" y1="2407.89" x2="3342.94" y2="2407.89" style="stroke:#F0F0F0;stroke-width:9.72"/>
	<line x1="3375.34" y1="2407.89" x2="3440.14" y2="2407.89" style="stroke:#F0F0F0;stroke-width:9.72"/>
	<line x1="3472.54" y1="2407.89" x2="3537.34" y2="2407.89" style="stroke:#F0F0F0;stroke-width:9.72"/>
	<line x1="3569.74" y1="2407.89" x2="3634.54" y2="2407.89" style="stroke:#F0F0F0;stroke-width:9.72"/>
	<line x1="3666.94" y1="2407.89" x2="3731.74" y2="2407.89" style="stroke:#F0F0F0;stroke-width:9.72"/>
	<line x1="3764.14" y1="2407.89" x2="3828.94" y2="2407.89" style="stroke:#F0F0F0;stroke-width:9.72"/>
	<line x1="3861.34" y1="2407.89" x2="3926.14" y2="2407.89" style="stroke:#F0F0F0;stroke-width:9.72"/>
	<line x1="3958.54" y1="2407.89" x2="4023.34" y2="2407.89" style="stroke:#F0F0F0;stroke-width:9.72"/>
	<line x1="4055.74" y1="2407.89" x2="4120.54" y2="2407.89" style="stroke:#F0F0F0;stroke-width:9.72"/>
	<line x1="4152.94" y1="2407.89" x2="4217.74" y2="2407.89" style="stroke:#F0F0F0;stroke-width:9.72"/>
	<line x1="4250.14" y1="2407.89" x2="4314.94" y2="2407.89" style="stroke:#F0F0F0;stroke-width:9.72"/>
	<line x1="4347.34" y1="2407.89" x2="4412.14" y2="2407.89" style="stroke:#F0F0F0;stroke-width:9.72"/>
	<line x1="4444.54" y1="2407.89" x2="4509.34" y2="2407.89" style="stroke:#F0F0F0;stroke-width:9.72"/>
	<line x1="4541.74" y1="2407.89" x2="4606.54" y2="2407.89" style="stroke:#F0F0F0;stroke-width:9.72"/>
	<line x1="4638.94" y1="2407.89" x2="4703.74" y2="2407.89" style="stroke:#F0F0F0;stroke-width:9.72"/>
	<line x1="4736.14" y1="2407.89" x2="4800.94" y2="2407.89" style="stroke:#F0F0F0;stroke-width:9.72"/>
	<line x1="4833.34" y1="2407.89" x2="4898.14" y2="2407.89" style="stroke:#F0F0F0;stroke-width:9.72"/>
	<line x1="4930.54" y1="2407.89" x2="4995.34" y2="2407.89" style="stroke:#F0F0F0;stroke-width:9.72"/>
	<line x1="5027.74" y1="2407.89" x2="5092.54" y2="2407.89" style="stroke:#F0F0F0;stroke-width:9.72"/>
	<line x1="5124.94" y1="2407.89" x2="5189.74" y2="2407.89" style="stroke:#F0F0F0;stroke-width:9.72"/>
	<line x1="5222.14" y1="2407.89" x2="5286.60" y2="2407.89" style="stroke:#F0F0F0;stroke-width:9.72"/>
	<line x1="459.34" y1="1871.94" x2="524.14" y2="1871.94" style="stroke:#F0F0F0;stroke-width:9.72"/>
	<line x1="556.54" y1="1871.94" x2="621.34" y2="1871.94" style="stroke:#F0F0F0;stroke-width:9.72"/>
	<line x1="653.74" y1="1871.94" x2="718.54" y2="1871.94" style="stroke:#F0F0F0;stroke-width:9.72"/>
	<line x1="750.94" y1="1871.94" x2="815.74" y2="1871.94" style="stroke:#F0F0F0;stroke-width:9.72"/>
	<line x1="848.14" y1="1871.94" x2="912.94" y2="1871.94" style="stroke:#F0F0F0;stroke-width:9.72"/>
	<line x1="945.34" y1="1871.94" x2="1010.14" y2="1871.94" style="stroke:#F0F0F0;stroke-width:9.72"/>
	<line x1="1042.54" y1="1871.94" x2="1107.34" y2="1871.94" style="stroke:#F0F0F0;stroke-width:9.72"/>
	<line x1="1139.74" y1="1871.94" x2="1204.54" y2="1871.94" style="stroke:#F0F0F0;stroke-width:9.72"/>
	<line x1="1236.94" y1="1871.94" x2="1301.74" y2="1871.94" style="stroke:#F0F0F0;stroke-width:9.72"/>
	<line x1="1334.14" y1="1871.94" x2="1398.94" y2="1871.94" style="stroke:#F0F0F0;stroke-width:9.72"/>
	<line x1="1431.34" y1="1871.94" x2="1496.14" y2="1871.94" style="stroke:#F0F0F0;stroke-width:9.72"/>
	<line x1="1528.54" y1="1871.94" x2="1593.34" y2="1871.94" style="stroke:#F0F0F0;stroke-width:9.72"/>
	<line x1="1625.74" y1="1871.94" x2="1690.54" y2="1871.94" style="stroke:#F0F0F0;stroke-width:9.72"/>
	<line x1="1722.94" y1="1871.94" x2="1787.74" y2="1871.94" style="stroke:#F0F0F0;stroke-width:9.72"/>
	<line x1="1820.14" y1="1871.94" x2="1884.94" y2="1871.94" style="stroke:#F0F0F0;stroke-width:9.72"/>
	<line x1="1917.34" y1="1871.94" x2="1982.14" y2="1871.94" style="stroke:#F0F0F0;stroke-width:9.72"/>
	<line x1="2014.54" y1="1871.94" x2="2079.34" y2="1871.94" style="stroke:#F0F0F0;stroke-width:9.72"/>
	<line x1="2111.74" y1="1871.94" x2="2176.54" y2="1871.94" style="stroke:#F0F0F0;stroke-width:9.72"/>
	<line x1="2208.94" y1="1871.94" x2="2273.74" y2="1871.94" style="stroke:#F0F0F0;stroke-width:9.72"/>
	<line x1="2306.14" y1="1871.94" x2="2370.94" y2="1871.94" style="stroke:#F0F0F0;stroke-width:9.72"/>
	<line x1="2403.34" y1="1871.94" x2="2468.14" y2="1871.94" style="stroke:#F0F0F0;stroke-width:9.72"/>
	<line x1="2500.54" y1="1871.94" x2="2565.34" y2="1871.94" style="stroke:#F0F0F0;stroke-width:9.72"/>
	<line x1="2597.74" y1="1871.94" x2="2662.54" y2="1871.94" style="stroke:#F0F0F0;stroke-width:9.72"/>
	<line x1="2694.94" y1="1871.94" x2="2759.74" y2="1871.94" style="stroke:#F0F0F0;stroke-width:9.72"/>
	<line x1="2792.14" y1="1871.94" x2="2856.94" y2="1871.94" style="stroke:#F0F0F0;stroke-width:9.72"/>
	<line x1="2889.34" y1="1871.94" x2="2954.14" y2="1871.94" style="stroke:#F0F0F0;stroke-width:9.72"/>
	<line x1="2986.54" y1="1871.94" x2="3051.34" y2="1871.94" style="stroke:#F0F0F0;stroke-width:9.72"/>
	<line x1="3083.74" y1="1871.94" x2="3148.54" y2="1871.94" style="stroke:#F0F0F0;stroke-width:9.72"/>
	<line x1="3180.94" y1="1871.94" x2="3245.74" y2="1871.94" style="stroke:#F0F0F0;stroke-width:9.72"/>
	<line x1="3278.14" y1="1871.94" x2="3342.94" y2="1871.94" style="stroke:#F0F0F0;stroke-width:9.72"/>
	<line x1="3375.34" y1="1871.94" x2="3440.14" y2="1871.94" style="stroke:#F0F0F0;stroke-width:9.72"/>
	<line x1="3472.54" y1="1871.94" x2="3537.34" y2="1871.94" style="stroke:#F0F0F0;stroke-width:9.72"/>
	<line x1="3569.74" y1="1871.94" x2="3634.54" y2="1871.94" style="stroke:#F0F0F0;stroke-width:9.72"/>
	<line x1="3666.94" y1="1871.94" x2="3731.74" y2="1871.94" style="stroke:#F0F0F0;stroke-width:9.72"/>
	<line x1="3764.14" y1="1871.94" x2="3828.94" y2="1871.94" style="stroke:#F0F0F0;stroke-width:9.72"/>
	<line x1="3861.34" y1="1871.94" x2="3926.14" y2="1871.94" style="stroke:#F0F0F0;stroke-width:9.72"/>
	<line x1="3958.54" y1="1871.94" x2="4023.34" y2="1871.94" style="stroke:#F0F0F0;stroke-width:9.72"/>
	<line x1="4055.74" y1="1871.94" x2="4120.54" y2="1871.94" style="stroke:#F0F0F0;stroke-width:9.72"/>
	<line x1="4152.94" y1="1871.94" x2="4217.74" y2="1871.94" style="stroke:#F0F0F0;stroke-width:9.72"/>
	<line x1="4250.14" y1="1871.94" x2="4314.94" y2="1871.94" style="stroke:#F0F0F0;stroke-width:9.72"/>
	<line x1="4347.34" y1="1871.94" x2="4412.14" y2="1871.94" style="stroke:#F0F0F0;stroke-width:9.72"/>
	<line x1="4444.54" y1="1871.94" x2="4509.34" y2="1871.94" style="stroke:#F0F0F0;stroke-width:9.72"/>
	<line x1="4541.74" y1="1871.94" x2="4606.54" y2="1871.94" style="stroke:#F0F0F0;stroke-width:9.72"/>
	<line x1="4638.94" y1="1871.94" x2="4703.74" y2="1871.94" style="stroke:#F0F0F0;stroke-width:9.72"/>
	<line x1="4736.14" y1="1871.94" x2="4800.94" y2="1871.94" style="stroke:#F0F0F0;stroke-width:9.72"/>
	<line x1="4833.34" y1="1871.94" x2="4898.14" y2="1871.94" style="stroke:#F0F0F0;stroke-width:9.72"/>
	<line x1="4930.54" y1="1871.94" x2="4995.34" y2="1871.94" style="stroke:#F0F0F0;stroke-width:9.72"/>
	<line x1="5027.74" y1="1871.94" x2="5092.54" y2="1871.94" style="stroke:#F0F0F0;stroke-width:9.72"/>
	<line x1="5124.94" y1="1871.94" x2="5189.74" y2="1871.94" style="stroke:#F0F0F0;stroke-width:9.72"/>
	<line x1="5222.14" y1="1871.94" x2="5286.60" y2="1871.94" style="stroke:#F0F0F0;stroke-width:9.72"/>
	<line x1="459.34" y1="1335.99" x2="524.14" y2="1335.99" style="stroke:#F0F0F0;stroke-width:9.72"/>
	<line x1="556.54" y1="1335.99" x2="621.34" y2="1335.99" style="stroke:#F0F0F0;stroke-width:9.72"/>
	<line x1="653.74" y1="1335.99" x2="718.54" y2="1335.99" style="stroke:#F0F0F0;stroke-width:9.72"/>
	<line x1="750.94" y1="1335.99" x2="815.74" y2="1335.99" style="stroke:#F0F0F0;stroke-width:9.72"/>
	<line x1="848.14" y1="1335.99" x2="912.94" y2="1335.99" style="stroke:#F0F0F0;stroke-width:9.72"/>
	<line x1="945.34" y1="1335.99" x2="1010.14" y2="1335.99" style="stroke:#F0F0F0;stroke-width:9.72"/>
	<line x1="1042.54" y1="1335.99" x2="1107.34" y2="1335.99" style="stroke:#F0F0F0;stroke-width:9.72"/>
	<line x1="1139.74" y1="1335.99" x2="1204.54" y2="1335.99" style="stroke:#F0F0F0;stroke-width:9.72"/>
	<line x1="1236.94" y1="1335.99" x2="1301.74" y2="1335.99" style="stroke:#F0F0F0;stroke-width:9.72"/>
	<line x1="1334.14" y1="1335.99" x2="1398.94" y2="1335.99" style="stroke:#F0F0F0;stroke-width:9.72"/>
	<line x1="1431.34" y1="1335.99" x2="1496.14" y2="1335.99" style="stroke:#F0F0F0;stroke-width:9.72"/>
	<line x1="1528.54" y1="1335.99" x2="1593.34" y2="1335.99" style="stroke:#F0F0F0;stroke-width:9.72"/>
	<line x1="1625.74" y1="1335.99" x2="1690.54" y2="1335.99" style="stroke:#F0F0F0;stroke-width:9.72"/>
	<line x1="1722.94" y1="1335.99" x2="1787.74" y2="1335.99" style="stroke:#F0F0F0;stroke-width:9.72"/>
	<line x1="1820.14" y1="1335.99" x2="1884.94" y2="1335.99" style="stroke:#F0F0F0;stroke-width:9.72"/>
	<line x1="1917.34" y1="1335.99" x2="1982.14" y2="1335.99" style="stroke:#F0F0F0;stroke-width:9.72"/>
	<line x1="2014.54" y1="1335.99" x2="2079.34" y2="1335.99" style="stroke:#F0F0F0;stroke-width:9.72"/>
	<line x1="2111.74" y1="1335.99" x2="2176.54" y2="1335.99" style="stroke:#F0F0F0;stroke-width:9.72"/>
	<line x1="2208.94" y1="1335.99" x2="2273.74" y2="1335.99" style="stroke:#F0F0F0;stroke-width:9.72"/>
	<line x1="2306.14" y1="1335.99" x2="2370.94" y2="1335.99" style="stroke:#F0F0F0;stroke-width:9.72"/>
	<line x1="2403.34" y1="1335.99" x2="2468.14" y2="1335.99" style="stroke:#F0F0F0;stroke-width:9.72"/>
	<line x1="2500.54" y1="1335.99" x2="2565.34" y2="1335.99" style="stroke:#F0F0F0;stroke-width:9.72"/>
	<line x1="2597.74" y1="1335.99" x2="2662.54" y2="1335.99" style="stroke:#F0F0F0;stroke-width:9.72"/>
	<line x1="2694.94" y1="1335.99" x2="2759.74" y2="1335.99" style="stroke:#F0F0F0;stroke-width:9.72"/>
	<line x1="2792.14" y1="1335.99" x2="2856.94" y2="1335.99" style="stroke:#F0F0F0;stroke-width:9.72"/>
	<line x1="2889.34" y1="1335.99" x2="2954.14" y2="1335.99" style="stroke:#F0F0F0;stroke-width:9.72"/>
	<line x1="2986.54" y1="1335.99" x2="3051.34" y2="1335.99" style="stroke:#F0F0F0;stroke-width:9.72"/>
	<line x1="3083.74" y1="1335.99" x2="3148.54" y2="1335.99" style="stroke:#F0F0F0;stroke-width:9.72"/>
	<line x1="3180.94" y1="1335.99" x2="3245.74" y2="1335.99" style="stroke:#F0F0F0;stroke-width:9.72"/>
	<line x1="3278.14" y1="1335.99" x2="3342.94" y2="1335.99" style="stroke:#F0F0F0;stroke-width:9.72"/>
	<line x1="3375.34" y1="1335.99" x2="3440.14" y2="1335.99" style="stroke:#F0F0F0;stroke-width:9.72"/>
	<line x1="3472.54" y1="1335.99" x2="3537.34" y2="1335.99" style="stroke:#F0F0F0;stroke-width:9.72"/>
	<line x1="3569.74" y1="1335.99" x2="3634.54" y2="1335.99" style="stroke:#F0F0F0;stroke-width:9.72"/>
	<line x1="3666.94" y1="1335.99" x2="3731.74" y2="1335.99" style="stroke:#F0F0F0;stroke-width:9.72"/>
	<line x1="3764.14" y1="1335.99" x2="3828.94" y2="1335.99" style="stroke:#F0F0F0;stroke-width:9.72"/>
	<line x1="3861.34" y1="1335.99" x2="3926.14" y2="1335.99" style="stroke:#F0F0F0;stroke-width:9.72"/>
	<line x1="3958.54" y1="1335.99" x2="4023.34" y2="1335.99" style="stroke:#F0F0F0;stroke-width:9.72"/>
	<line x1="4055.74" y1="1335.99" x2="4120.54" y2="1335.99" style="stroke:#F0F0F0;stroke-width:9.72"/>
	<line x1="4152.94" y1="1335.99" x2="4217.74" y2="1335.99" style="stroke:#F0F0F0;stroke-width:9.72"/>
	<line x1="4250.14" y1="1335.99" x2="4314.94" y2="1335.99" style="stroke:#F0F0F0;stroke-width:9.72"/>
	<line x1="4347.34" y1="1335.99" x2="4412.14" y2="1335.99" style="stroke:#F0F0F0;stroke-width:9.72"/>
	<line x1="4444.54" y1="1335.99" x2="4509.34" y2="1335.99" style="stroke:#F0F0F0;stroke-width:9.72"/>
	<line x1="4541.74" y1="1335.99" x2="4606.54" y2="1335.99" style="stroke:#F0F0F0;stroke-width:9.72"/>
	<line x1="4638.94" y1="1335.99" x2="4703.74" y2="1335.99" style="stroke:#F0F0F0;stroke-width:9.72"/>
	<line x1="4736.14" y1="1335.99" x2="4800.94" y2="1335.99" style="stroke:#F0F0F0;stroke-width:9.72"/>
	<line x1="4833.34" y1="1335.99" x2="4898.14" y2="1335.99" style="stroke:#F0F0F0;stroke-width:9.72"/>
	<line x1="4930.54" y1="1335.99" x2="4995.34" y2="1335.99" style="stroke:#F0F0F0;stroke-width:9.72"/>
	<line x1="5027.74" y1="1335.99" x2="5092.54" y2="1335.99" style="stroke:#F0F0F0;stroke-width:9.72"/>
	<line x1="5124.94" y1="1335.99" x2="5189.74" y2="1335.99" style="stroke:#F0F0F0;stroke-width:9.72"/>
	<line x1="5222.14" y1="1335.99" x2="5286.60" y2="1335.99" style="stroke:#F0F0F0;stroke-width:9.72"/>
	<line x1="459.34" y1="800.21" x2="524.14" y2="800.21" style="stroke:#F0F0F0;stroke-width:9.72"/>
	<line x1="556.54" y1="800.21" x2="621.34" y2="800.21" style="stroke:#F0F0F0;stroke-width:9.72"/>
	<line x1="653.74" y1="800.21" x2="718.54" y2="800.21" style="stroke:#F0F0F0;stroke-width:9.72"/>
	<line x1="750.94" y1="800.21" x2="815.74" y2="800.21" style="stroke:#F0F0F0;stroke-width:9.72"/>
	<line x1="848.14" y1="800.21" x2="912.94" y2="800.21" style="stroke:#F0F0F0;stroke-width:9.72"/>
	<line x1="945.34" y1="800.21" x2="1010.14" y2="800.21" style="stroke:#F0F0F0;stroke-width:9.72"/>
	<line x1="1042.54" y1="800.21" x2="1107.34" y2="800.21" style="stroke:#F0F0F0;stroke-width:9.72"/>
	<line x1="1139.74" y1="800.21" x2="1204.54" y2="800.21" style="stroke:#F0F0F0;stroke-width:9.72"/>
	<line x1="1236.94" y1="800.21" x2="1301.74" y2="800.21" style="stroke:#F0F0F0;stroke-width:9.72"/>
	<line x1="1334.14" y1="800.21" x2="1398.94" y2="800.21" style="stroke:#F0F0F0;stroke-width:9.72"/>
	<line x1="1431.34" y1="800.21" x2="1496.14" y2="800.21" style="stroke:#F0F0F0;stroke-width:9.72"/>
	<line x1="1528.54" y1="800.21" x2="1593.34" y2="800.21" style="stroke:#F0F0F0;stroke-width:9.72"/>
	<line x1="1625.74" y1="800.21" x2="1690.54" y2="800.21" style="stroke:#F0F0F0;stroke-width:9.72"/>
	<line x1="1722.94" y1="800.21" x2="1787.74" y2="800.21" style="stroke:#F0F0F0;stroke-width:9.72"/>
	<line x1="1820.14" y1="800.21" x2="1884.94" y2="800.21" style="stroke:#F0F0F0;stroke-width:9.72"/>
	<line x1="1917.34" y1="800.21" x2="1982.14" y2="800.21" style="stroke:#F0F0F0;stroke-width:9.72"/>
	<line x1="2014.54" y1="800.21" x2="2079.34" y2="800.21" style="stroke:#F0F0F0;stroke-width:9.72"/>
	<line x1="2111.74" y1="800.21" x2="2176.54" y2="800.21" style="stroke:#F0F0F0;stroke-width:9.72"/>
	<line x1="2208.94" y1="800.21" x2="2273.74" y2="800.21" style="stroke:#F0F0F0;stroke-width:9.72"/>
	<line x1="2306.14" y1="800.21" x2="2370.94" y2="800.21" style="stroke:#F0F0F0;stroke-width:9.72"/>
	<line x1="2403.34" y1="800.21" x2="2468.14" y2="800.21" style="stroke:#F0F0F0;stroke-width:9.72"/>
	<line x1="2500.54" y1="800.21" x2="2565.34" y2="800.21" style="stroke:#F0F0F0;stroke-width:9.72"/>
	<line x1="2597.74" y1="800.21" x2="2662.54" y2="800.21" style="stroke:#F0F0F0;stroke-width:9.72"/>
	<line x1="2694.94" y1="800.21" x2="2759.74" y2="800.21" style="stroke:#F0F0F0;stroke-width:9.72"/>
	<line x1="2792.14" y1="800.21" x2="2856.94" y2="800.21" style="stroke:#F0F0F0;stroke-width:9.72"/>
	<line x1="2889.34" y1="800.21" x2="2954.14" y2="800.21" style="stroke:#F0F0F0;stroke-width:9.72"/>
	<line x1="2986.54" y1="800.21" x2="3051.34" y2="800.21" style="stroke:#F0F0F0;stroke-width:9.72"/>
	<line x1="3083.74" y1="800.21" x2="3148.54" y2="800.21" style="stroke:#F0F0F0;stroke-width:9.72"/>
	<line x1="3180.94" y1="800.21" x2="3245.74" y2="800.21" style="stroke:#F0F0F0;stroke-width:9.72"/>
	<line x1="3278.14" y1="800.21" x2="3342.94" y2="800.21" style="stroke:#F0F0F0;stroke-width:9.72"/>
	<line x1="3375.34" y1="800.21" x2="3440.14" y2="800.21" style="stroke:#F0F0F0;stroke-width:9.72"/>
	<line x1="3472.54" y1="800.21" x2="3537.34" y2="800.21" style="stroke:#F0F0F0;stroke-width:9.72"/>
	<line x1="3569.74" y1="800.21" x2="3634.54" y2="800.21" style="stroke:#F0F0F0;stroke-width:9.72"/>
	<line x1="3666.94" y1="800.21" x2="3731.74" y2="800.21" style="stroke:#F0F0F0;stroke-width:9.72"/>
	<line x1="3764.14" y1="800.21" x2="3828.94" y2="800.21" style="stroke:#F0F0F0;stroke-width:9.72"/>
	<line x1="3861.34" y1="800.21" x2="3926.14" y2="800.21" style="stroke:#F0F0F0;stroke-width:9.72"/>
	<line x1="3958.54" y1="800.21" x2="4023.34" y2="800.21" style="stroke:#F0F0F0;stroke-width:9.72"/>
	<line x1="4055.74" y1="800.21" x2="4120.54" y2="800.21" style="stroke:#F0F0F0;stroke-width:9.72"/>
	<line x1="4152.94" y1="800.21" x2="4217.74" y2="800.21" style="stroke:#F0F0F0;stroke-width:9.72"/>
	<line x1="4250.14" y1="800.21" x2="4314.94" y2="800.21" style="stroke:#F0F0F0;stroke-width:9.72"/>
	<line x1="4347.34" y1="800.21" x2="4412.14" y2="800.21" style="stroke:#F0F0F0;stroke-width:9.72"/>
	<line x1="4444.54" y1="800.21" x2="4509.34" y2="800.21" style="stroke:#F0F0F0;stroke-width:9.72"/>
	<line x1="4541.74" y1="800.21" x2="4606.54" y2="800.21" style="stroke:#F0F0F0;stroke-width:9.72"/>
	<line x1="4638.94" y1="800.21" x2="4703.74" y2="800.21" style="stroke:#F0F0F0;stroke-width:9.72"/>
	<line x1="4736.14" y1="800.21" x2="4800.94" y2="800.21" style="stroke:#F0F0F0;stroke-width:9.72"/>
	<line x1="4833.34" y1="800.21" x2="4898.14" y2="800.21" style="stroke:#F0F0F0;stroke-width:9.72"/>
	<line x1="4930.54" y1="800.21" x2="4995.34" y2="800.21" style="stroke:#F0F0F0;stroke-width:9.72"/>
	<line x1="5027.74" y1="800.21" x2="5092.54" y2="800.21" style="stroke:#F0F0F0;stroke-width:9.72"/>
	<line x1="5124.94" y1="800.21" x2="5189.74" y2="800.21" style="stroke:#F0F0F0;stroke-width:9.72"/>
	<line x1="5222.14" y1="800.21" x2="5286.60" y2="800.21" style="stroke:#F0F0F0;stroke-width:9.72"/>
	<line x1="459.34" y1="264.26" x2="524.14" y2="264.26" style="stroke:#F0F0F0;stroke-width:9.72"/>
	<line x1="556.54" y1="264.26" x2="621.34" y2="264.26" style="stroke:#F0F0F0;stroke-width:9.72"/>
	<line x1="653.74" y1="264.26" x2="718.54" y2="264.26" style="stroke:#F0F0F0;stroke-width:9.72"/>
	<line x1="750.94" y1="264.26" x2="815.74" y2="264.26" style="stroke:#F0F0F0;stroke-width:9.72"/>
	<line x1="848.14" y1="264.26" x2="912.94" y2="264.26" style="stroke:#F0F0F0;stroke-width:9.72"/>
	<line x1="945.34" y1="264.26" x2="1010.14" y2="264.26" style="stroke:#F0F0F0;stroke-width:9.72"/>
	<line x1="1042.54" y1="264.26" x2="1107.34" y2="264.26" style="stroke:#F0F0F0;stroke-width:9.72"/>
	<line x1="1139.74" y1="264.26" x2="1204.54" y2="264.26" style="stroke:#F0F0F0;stroke-width:9.72"/>
	<line x1="1236.94" y1="264.26" x2="1301.74" y2="264.26" style="stroke:#F0F0F0;stroke-width:9.72"/>
	<line x1="1334.14" y1="264.26" x2="1398.94" y2="264.26" style="stroke:#F0F0F0;stroke-width:9.72"/>
	<line x1="1431.34" y1="264.26" x2="1496.14" y2="264.26" style="stroke:#F0F0F0;stroke-width:9.72"/>
	<line x1="1528.54" y1="264.26" x2="1593.34" y2="264.26" style="stroke:#F0F0F0;stroke-width:9.72"/>
	<line x1="1625.74" y1="264.26" x2="1690.54" y2="264.26" style="stroke:#F0F0F0;stroke-width:9.72"/>
	<line x1="1722.94" y1="264.26" x2="1787.74" y2="264.26" style="stroke:#F0F0F0;stroke-width:9.72"/>
	<line x1="1820.14" y1="264.26" x2="1884.94" y2="264.26" style="stroke:#F0F0F0;stroke-width:9.72"/>
	<line x1="1917.34" y1="264.26" x2="1982.14" y2="264.26" style="stroke:#F0F0F0;stroke-width:9.72"/>
	<line x1="2014.54" y1="264.26" x2="2079.34" y2="264.26" style="stroke:#F0F0F0;stroke-width:9.72"/>
	<line x1="2111.74" y1="264.26" x2="2176.54" y2="264.26" style="stroke:#F0F0F0;stroke-width:9.72"/>
	<line x1="2208.94" y1="264.26" x2="2273.74" y2="264.26" style="stroke:#F0F0F0;stroke-width:9.72"/>
	<line x1="2306.14" y1="264.26" x2="2370.94" y2="264.26" style="stroke:#F0F0F0;stroke-width:9.72"/>
	<line x1="2403.34" y1="264.26" x2="2468.14" y2="264.26" style="stroke:#F0F0F0;stroke-width:9.72"/>
	<line x1="2500.54" y1="264.26" x2="2565.34" y2="264.26" style="stroke:#F0F0F0;stroke-width:9.72"/>
	<line x1="2597.74" y1="264.26" x2="2662.54" y2="264.26" style="stroke:#F0F0F0;stroke-width:9.72"/>
	<line x1="2694.94" y1="264.26" x2="2759.74" y2="264.26" style="stroke:#F0F0F0;stroke-width:9.72"/>
	<line x1="2792.14" y1="264.26" x2="2856.94" y2="264.26" style="stroke:#F0F0F0;stroke-width:9.72"/>
	<line x1="2889.34" y1="264.26" x2="2954.14" y2="264.26" style="stroke:#F0F0F0;stroke-width:9.72"/>
	<line x1="2986.54" y1="264.26" x2="3051.34" y2="264.26" style="stroke:#F0F0F0;stroke-width:9.72"/>
	<line x1="3083.74" y1="264.26" x2="3148.54" y2="264.26" style="stroke:#F0F0F0;stroke-width:9.72"/>
	<line x1="3180.94" y1="264.26" x2="3245.74" y2="264.26" style="stroke:#F0F0F0;stroke-width:9.72"/>
	<line x1="3278.14" y1="264.26" x2="3342.94" y2="264.26" style="stroke:#F0F0F0;stroke-width:9.72"/>
	<line x1="3375.34" y1="264.26" x2="3440.14" y2="264.26" style="stroke:#F0F0F0;stroke-width:9.72"/>
	<line x1="3472.54" y1="264.26" x2="3537.34" y2="264.26" style="stroke:#F0F0F0;stroke-width:9.72"/>
	<line x1="3569.74" y1="264.26" x2="3634.54" y2="264.26" style="stroke:#F0F0F0;stroke-width:9.72"/>
	<line x1="3666.94" y1="264.26" x2="3731.74" y2="264.26" style="stroke:#F0F0F0;stroke-width:9.72"/>
	<line x1="3764.14" y1="264.26" x2="3828.94" y2="264.26" style="stroke:#F0F0F0;stroke-width:9.72"/>
	<line x1="3861.34" y1="264.26" x2="3926.14" y2="264.26" style="stroke:#F0F0F0;stroke-width:9.72"/>
	<line x1="3958.54" y1="264.26" x2="4023.34" y2="264.26" style="stroke:#F0F0F0;stroke-width:9.72"/>
	<line x1="4055.74" y1="264.26" x2="4120.54" y2="264.26" style="stroke:#F0F0F0;stroke-width:9.72"/>
	<line x1="4152.94" y1="264.26" x2="4217.74" y2="264.26" style="stroke:#F0F0F0;stroke-width:9.72"/>
	<line x1="4250.14" y1="264.26" x2="4314.94" y2="264.26" style="stroke:#F0F0F0;stroke-width:9.72"/>
	<line x1="4347.34" y1="264.26" x2="4412.14" y2="264.26" style="stroke:#F0F0F0;stroke-width:9.72"/>
	<line x1="4444.54" y1="264.26" x2="4509.34" y2="264.26" style="stroke:#F0F0F0;stroke-width:9.72"/>
	<line x1="4541.74" y1="264.26" x2="4606.54" y2="264.26" style="stroke:#F0F0F0;stroke-width:9.72"/>
	<line x1="4638.94" y1="264.26" x2="4703.74" y2="264.26" style="stroke:#F0F0F0;stroke-width:9.72"/>
	<line x1="4736.14" y1="264.26" x2="4800.94" y2="264.26" style="stroke:#F0F0F0;stroke-width:9.72"/>
	<line x1="4833.34" y1="264.26" x2="4898.14" y2="264.26" style="stroke:#F0F0F0;stroke-width:9.72"/>
	<line x1="4930.54" y1="264.26" x2="4995.34" y2="264.26" style="stroke:#F0F0F0;stroke-width:9.72"/>
	<line x1="5027.74" y1="264.26" x2="5092.54" y2="264.26" style="stroke:#F0F0F0;stroke-width:9.72"/>
	<line x1="5124.94" y1="264.26" x2="5189.74" y2="264.26" style="stroke:#F0F0F0;stroke-width:9.72"/>
	<line x1="5222.14" y1="264.26" x2="5286.60" y2="264.26" style="stroke:#F0F0F0;stroke-width:9.72"/>
	<line x1="781.48" y1="2479.11" x2="781.48" y2="2414.31" style="stroke:#F0F0F0;stroke-width:9.72"/>
	<line x1="781.48" y1="2381.91" x2="781.48" y2="2317.11" style="stroke:#F0F0F0;stroke-width:9.72"/>
	<line x1="781.48" y1="2284.71" x2="781.48" y2="2219.91" style="stroke:#F0F0F0;stroke-width:9.72"/>
	<line x1="781.48" y1="2187.51" x2="781.48" y2="2122.71" style="stroke:#F0F0F0;stroke-width:9.72"/>
	<line x1="781.48" y1="2090.31" x2="781.48" y2="2025.51" style="stroke:#F0F0F0;stroke-width:9.72"/>
	<line x1="781.48" y1="1993.11" x2="781.48" y2="1928.31" style="stroke:#F0F0F0;stroke-width:9.72"/>
	<line x1="781.48" y1="1895.91" x2="781.48" y2="1831.11" style="stroke:#F0F0F0;stroke-width:9.72"/>
	<line x1="781.48" y1="1798.71" x2="781.48" y2="1733.91" style="stroke:#F0F0F0;stroke-width:9.72"/>
	<line x1="781.48" y1="1701.51" x2="781.48" y2="1636.71" style="stroke:#F0F0F0;stroke-width:9.72"/>
	<line x1="781.48" y1="1604.31" x2="781.48" y2="1539.51" style="stroke:#F0F0F0;stroke-width:9.72"/>
	<line x1="781.48" y1="1507.11" x2="781.48" y2="1442.31" style="stroke:#F0F0F0;stroke-width:9.72"/>
	<line x1="781.48" y1="1409.91" x2="781.48" y2="1345.11" style="stroke:#F0F0F0;stroke-width:9.72"/>
	<line x1="781.48" y1="1312.71" x2="781.48" y2="1247.91" style="stroke:#F0F0F0;stroke-width:9.72"/>
	<line x1="781.48" y1="1215.51" x2="781.48" y2="1150.71" style="stroke:#F0F0F0;stroke-width:9.72"/>
	<line x1="781.48" y1="1118.31" x2="781.48" y2="1053.51" style="stroke:#F0F0F0;stroke-width:9.72"/>
	<line x1="781.48" y1="1021.11" x2="781.48" y2="956.31" style="stroke:#F0F0F0;stroke-width:9.72"/>
	<line x1="781.48" y1="923.91" x2="781.48" y2="859.11" style="stroke:#F0F0F0;stroke-width:9.72"/>
	<line x1="781.48" y1="826.71" x2="781.48" y2="761.91" style="stroke:#F0F0F0;stroke-width:9.72"/>
	<line x1="781.48" y1="729.51" x2="781.48" y2="664.71" style="stroke:#F0F0F0;stroke-width:9.72"/>
	<line x1="781.48" y1="632.31" x2="781.48" y2="567.51" style="stroke:#F0F0F0;stroke-width:9.72"/>
	<line x1="781.48" y1="535.11" x2="781.48" y2="470.31" style="stroke:#F0F0F0;stroke-width:9.72"/>
	<line x1="781.48" y1="437.91" x2="781.48" y2="373.11" style="stroke:#F0F0F0;stroke-width:9.72"/>
	<line x1="781.48" y1="340.71" x2="781.48" y2="275.91" style="stroke:#F0F0F0;stroke-width:9.72"/>
	<line x1="781.48" y1="243.51" x2="781.48" y2="178.71" style="stroke:#F0F0F0;stroke-width:9.72"/>
	<line x1="781.48" y1="146.31" x2="781.48" y2="113.40" style="stroke:#F0F0F0;stroke-width:9.72"/>
	<line x1="2259.39" y1="2479.11" x2="2259.39" y2="2414.31" style="stroke:#F0F0F0;stroke-width:9.72"/>
	<line x1="2259.39" y1="2381.91" x2="2259.39" y2="2317.11" style="stroke:#F0F0F0;stroke-width:9.72"/>
	<line x1="2259.39" y1="2284.71" x2="2259.39" y2="2219.91" style="stroke:#F0F0F0;stroke-width:9.72"/>
	<line x1="2259.39" y1="2187.51" x2="2259.39" y2="2122.71" style="stroke:#F0F0F0;stroke-width:9.72"/>
	<line x1="2259.39" y1="2090.31" x2="2259.39" y2="2025.51" style="stroke:#F0F0F0;stroke-width:9.72"/>
	<line x1="2259.39" y1="1993.11" x2="2259.39" y2="1928.31" style="stroke:#F0F0F0;stroke-width:9.72"/>
	<line x1="2259.39" y1="1895.91" x2="2259.39" y2="1831.11" style="stroke:#F0F0F0;stroke-width:9.72"/>
	<line x1="2259.39" y1="1798.71" x2="2259.39" y2="1733.91" style="stroke:#F0F0F0;stroke-width:9.72"/>
	<line x1="2259.39" y1="1701.51" x2="2259.39" y2="1636.71" style="stroke:#F0F0F0;stroke-width:9.72"/>
	<line x1="2259.39" y1="1604.31" x2="2259.39" y2="1539.51" style="stroke:#F0F0F0;stroke-width:9.72"/>
	<line x1="2259.39" y1="1507.11" x2="2259.39" y2="1442.31" style="stroke:#F0F0F0;stroke-width:9.72"/>
	<line x1="2259.39" y1="1409.91" x2="2259.39" y2="1345.11" style="stroke:#F0F0F0;stroke-width:9.72"/>
	<line x1="2259.39" y1="1312.71" x2="2259.39" y2="1247.91" style="stroke:#F0F0F0;stroke-width:9.72"/>
	<line x1="2259.39" y1="1215.51" x2="2259.39" y2="1150.71" style="stroke:#F0F0F0;stroke-width:9.72"/>
	<line x1="2259.39" y1="1118.31" x2="2259.39" y2="1053.51" style="stroke:#F0F0F0;stroke-width:9.72"/>
	<line x1="2259.39" y1="1021.11" x2="2259.39" y2="956.31" style="stroke:#F0F0F0;stroke-width:9.72"/>
	<line x1="2259.39" y1="923.91" x2="2259.39" y2="859.11" style="stroke:#F0F0F0;stroke-width:9.72"/>
	<line x1="2259.39" y1="826.71" x2="2259.39" y2="761.91" style="stroke:#F0F0F0;stroke-width:9.72"/>
	<line x1="2259.39" y1="729.51" x2="2259.39" y2="664.71" style="stroke:#F0F0F0;stroke-width:9.72"/>
	<line x1="2259.39" y1="632.31" x2="2259.39" y2="567.51" style="stroke:#F0F0F0;stroke-width:9.72"/>
	<line x1="2259.39" y1="535.11" x2="2259.39" y2="470.31" style="stroke:#F0F0F0;stroke-width:9.72"/>
	<line x1="2259.39" y1="437.91" x2="2259.39" y2="373.11" style="stroke:#F0F0F0;stroke-width:9.72"/>
	<line x1="2259.39" y1="340.71" x2="2259.39" y2="275.91" style="stroke:#F0F0F0;stroke-width:9.72"/>
	<line x1="2259.39" y1="243.51" x2="2259.39" y2="178.71" style="stroke:#F0F0F0;stroke-width:9.72"/>
	<line x1="2259.39" y1="146.31" x2="2259.39" y2="113.40" style="stroke:#F0F0F0;stroke-width:9.72"/>
	<line x1="3737.48" y1="2479.11" x2="3737.48" y2="2414.31" style="stroke:#F0F0F0;stroke-width:9.72"/>
	<line x1="3737.48" y1="2381.91" x2="3737.48" y2="2317.11" style="stroke:#F0F0F0;stroke-width:9.72"/>
	<line x1="3737.48" y1="2284.71" x2="3737.48" y2="2219.91" style="stroke:#F0F0F0;stroke-width:9.72"/>
	<line x1="3737.48" y1="2187.51" x2="3737.48" y2="2122.71" style="stroke:#F0F0F0;stroke-width:9.72"/>
	<line x1="3737.48" y1="2090.31" x2="3737.48" y2="2025.51" style="stroke:#F0F0F0;stroke-width:9.72"/>
	<line x1="3737.48" y1="1993.11" x2="3737.48" y2="1928.31" style="stroke:#F0F0F0;stroke-width:9.72"/>
	<line x1="3737.48" y1="1895.91" x2="3737.48" y2="1831.11" style="stroke:#F0F0F0;stroke-width:9.72"/>
	<line x1="3737.48" y1="1798.71" x2="3737.48" y2="1733.91" style="stroke:#F0F0F0;stroke-width:9.72"/>
	<line x1="3737.48" y1="1701.51" x2="3737.48" y2="1636.71" style="stroke:#F0F0F0;stroke-width:9.72"/>
	<line x1="3737.48" y1="1604.31" x2="3737.48" y2="1539.51" style="stroke:#F0F0F0;stroke-width:9.72"/>
	<line x1="3737.48" y1="1507.11" x2="3737.48" y2="1442.31" style="stroke:#F0F0F0;stroke-width:9.72"/>
	<line x1="3737.48" y1="1409.91" x2="3737.48" y2="1345.11" style="stroke:#F0F0F0;stroke-width:9.72"/>
	<line x1="3737.48" y1="1312.71" x2="3737.48" y2="1247.91" style="stroke:#F0F0F0;stroke-width:9.72"/>
	<line x1="3737.48" y1="1215.51" x2="3737.48" y2="1150.71" style="stroke:#F0F0F0;stroke-width:9.72"/>
	<line x1="3737.48" y1="1118.31" x2="3737.48" y2="1053.51" style="stroke:#F0F0F0;stroke-width:9.72"/>
	<line x1="3737.48" y1="1021.11" x2="3737.48" y2="956.31" style="stroke:#F0F0F0;stroke-width:9.72"/>
	<line x1="3737.48" y1="923.91" x2="3737.48" y2="859.11" style="stroke:#F0F0F0;stroke-width:9.72"/>
	<line x1="3737.48" y1="826.71" x2="3737.48" y2="761.91" style="stroke:#F0F0F0;stroke-width:9.72"/>
	<line x1="3737.48" y1="729.51" x2="3737.48" y2="664.71" style="stroke:#F0F0F0;stroke-width:9.72"/>
	<line x1="3737.48" y1="632.31" x2="3737.48" y2="567.51" style="stroke:#F0F0F0;stroke-width:9.72"/>
	<line x1="3737.48" y1="535.11" x2="3737.48" y2="470.31" style="stroke:#F0F0F0;stroke-width:9.72"/>
	<line x1="3737.48" y1="437.91" x2="3737.48" y2="373.11" style="stroke:#F0F0F0;stroke-width:9.72"/>
	<line x1="3737.48" y1="340.71" x2="3737.48" y2="275.91" style="stroke:#F0F0F0;stroke-width:9.72"/>
	<line x1="3737.48" y1="243.51" x2="3737.48" y2="178.71" style="stroke:#F0F0F0;stroke-width:9.72"/>
	<line x1="3737.48" y1="146.31" x2="3737.48" y2="113.40" style="stroke:#F0F0F0;stroke-width:9.72"/>
	<line x1="5215.39" y1="2479.11" x2="5215.39" y2="2414.31" style="stroke:#F0F0F0;stroke-width:9.72"/>
	<line x1="5215.39" y1="2381.91" x2="5215.39" y2="2317.11" style="stroke:#F0F0F0;stroke-width:9.72"/>
	<line x1="5215.39" y1="2284.71" x2="5215.39" y2="2219.91" style="stroke:#F0F0F0;stroke-width:9.72"/>
	<line x1="5215.39" y1="2187.51" x2="5215.39" y2="2122.71" style="stroke:#F0F0F0;stroke-width:9.72"/>
	<line x1="5215.39" y1="2090.31" x2="5215.39" y2="2025.51" style="stroke:#F0F0F0;stroke-width:9.72"/>
	<line x1="5215.39" y1="1993.11" x2="5215.39" y2="1928.31" style="stroke:#F0F0F0;stroke-width:9.72"/>
	<line x1="5215.39" y1="1895.91" x2="5215.39" y2="1831.11" style="stroke:#F0F0F0;stroke-width:9.72"/>
	<line x1="5215.39" y1="1798.71" x2="5215.39" y2="1733.91" style="stroke:#F0F0F0;stroke-width:9.72"/>
	<line x1="5215.39" y1="1701.51" x2="5215.39" y2="1636.71" style="stroke:#F0F0F0;stroke-width:9.72"/>
	<line x1="5215.39" y1="1604.31" x2="5215.39" y2="1539.51" style="stroke:#F0F0F0;stroke-width:9.72"/>
	<line x1="5215.39" y1="1507.11" x2="5215.39" y2="1442.31" style="stroke:#F0F0F0;stroke-width:9.72"/>
	<line x1="5215.39" y1="1409.91" x2="5215.39" y2="1345.11" style="stroke:#F0F0F0;stroke-width:9.72"/>
	<line x1="5215.39" y1="1312.71" x2="5215.39" y2="1247.91" style="stroke:#F0F0F0;stroke-width:9.72"/>
	<line x1="5215.39" y1="1215.51" x2="5215.39" y2="1150.71" style="stroke:#F0F0F0;stroke-width:9.72"/>
	<line x1="5215.39" y1="1118.31" x2="5215.39" y2="1053.51" style="stroke:#F0F0F0;stroke-width:9.72"/>
	<line x1="5215.39" y1="1021.11" x2="5215.39" y2="956.31" style="stroke:#F0F0F0;stroke-width:9.72"/>
	<line x1="5215.39" y1="923.91" x2="5215.39" y2="859.11" style="stroke:#F0F0F0;stroke-width:9.72"/>
	<line x1="5215.39" y1="826.71" x2="5215.39" y2="761.91" style="stroke:#F0F0F0;stroke-width:9.72"/>
	<line x1="5215.39" y1="729.51" x2="5215.39" y2="664.71" style="stroke:#F0F0F0;stroke-width:9.72"/>
	<line x1="5215.39" y1="632.31" x2="5215.39" y2="567.51" style="stroke:#F0F0F0;stroke-width:9.72"/>
	<line x1="5215.39" y1="535.11" x2="5215.39" y2="470.31" style="stroke:#F0F0F0;stroke-width:9.72"/>
	<line x1="5215.39" y1="437.91" x2="5215.39" y2="373.11" style="stroke:#F0F0F0;stroke-width:9.72"/>
	<line x1="5215.39" y1="340.71" x2="5215.39" y2="275.91" style="stroke:#F0F0F0;stroke-width:9.72"/>
	<line x1="5215.39" y1="243.51" x2="5215.39" y2="178.71" style="stroke:#F0F0F0;stroke-width:9.72"/>
	<line x1="5215.39" y1="146.31" x2="5215.39" y2="113.40" style="stroke:#F0F0F0;stroke-width:9.72"/>
	<path d=" M925.59 2405.03 L932.68 2403.34 L939.77 2400.64 L946.86 2396.76 L953.94 2391.19 L961.03 2383.59 L968.12 2373.13 L975.21 2359.29 L982.29 2341.74 L989.38 2319.98 L996.47 2293.99 L1003.56 2263.44 L1010.64 2229.19 L1017.90 2192.06 L1024.99 2152.91 L1032.08 2113.76 L1039.16 2076.47 L1046.25 2042.72 L1053.34 2014.88 L1060.43 1994.29 L1067.51 1982.64 L1074.60 1980.45 L1081.69 1988.04 L1088.78 2004.75 L1095.86 2029.56 L1102.95 2060.94 L1110.04 2097.06 L1117.13 2135.70 L1124.21 2175.02 L1131.30 2213.32 L1138.39 2249.10 L1145.47 2281.33 L1152.56 2309.34 L1159.65 2332.97 L1166.74 2352.21 L1173.99 2367.39 L1181.08 2379.04 L1188.17 2387.48 L1195.26 2393.38 L1202.34 2396.93 L1209.43 2398.78 L1216.52 2398.78 L1223.61 2396.93 L1230.69 2393.55 L1237.78 2388.15 L1244.87 2380.56 L1251.96 2370.43 L1259.04 2357.78 L1266.13 2342.42 L1273.22 2324.36 L1280.31 2303.78 L1287.39 2281.50 L1294.48 2258.21 L1301.57 2234.76 L1308.66 2212.14 L1315.74 2191.39 L1322.83 2173.50 L1329.92 2158.99 L1337.18 2148.02 L1344.26 2140.43 L1351.35 2135.70 L1358.44 2133.34 L1365.53 2132.32 L1372.61 2132.16 L1379.70 2132.16 L1386.79 2132.16 L1393.88 2132.32 L1400.96 2133.34 L1408.05 2135.70 L1415.14 2140.26 L1422.23 2147.68 L1429.31 2158.48 L1436.40 2172.66 L1443.49 2190.04 L1450.58 2209.78 L1457.66 2230.88 L1464.75 2252.31 L1471.84 2272.39 L1478.93 2290.28 L1486.01 2304.62 L1493.10 2314.57 L1500.36 2319.47 L1507.44 2318.79 L1514.53 2312.72 L1521.62 2301.24 L1528.71 2284.71 L1535.79 2264.29 L1542.88 2240.49 L1549.97 2214.51 L1557.06 2187.51 L1564.14 2160.51 L1571.23 2134.69 L1578.32 2110.73 L1585.41 2089.29 L1592.49 2070.73 L1599.58 2054.87 L1606.67 2041.88 L1613.76 2031.24 L1620.84 2022.81 L1627.93 2016.06 L1635.02 2010.49 L1642.11 2005.76 L1649.19 2001.54 L1656.45 1997.33 L1663.54 1992.60 L1670.63 1986.86 L1677.71 1979.44 L1684.80 1969.31 L1691.89 1955.31 L1698.98 1936.41 L1706.06 1911.09 L1713.15 1877.85 L1720.24 1835.83 L1727.33 1783.69 L1734.41 1721.08 L1741.50 1648.18 L1748.59 1566.17 L1755.68 1477.07 L1762.76 1383.75 L1769.85 1290.09 L1776.94 1200.32 L1784.03 1118.98 L1791.11 1050.47 L1798.20 998.16 L1805.29 964.57 L1812.38 951.41 L1819.63 958.33 L1826.72 983.98 L1833.81 1026.00 L1840.89 1081.01 L1847.98 1145.47 L1855.07 1215.84 L1862.16 1289.42 L1869.24 1363.84 L1876.33 1437.75 L1883.42 1510.31 L1890.51 1581.36 L1897.59 1651.22 L1904.68 1720.07 L1911.77 1787.57 L1918.86 1853.21 L1925.94 1916.33 L1933.03 1975.39 L1940.12 2028.88 L1947.21 2075.12 L1954.29 2113.09 L1961.38 2141.61 L1968.47 2160.17 L1975.56 2168.61 L1982.81 2167.59 L1989.90 2157.98 L1996.99 2140.43 L2004.08 2115.96 L2011.16 2085.41 L2018.25 2049.30 L2025.34 2007.79 L2032.43 1960.88 L2039.51 1908.56 L2046.60 1851.02 L2053.69 1788.75 L2060.78 1722.94 L2067.86 1655.27 L2074.95 1588.28 L2082.04 1524.49 L2089.13 1466.94 L2096.21 1418.34 L2103.30 1380.21 L2110.39 1353.88 L2117.48 1339.03 L2124.56 1334.14 L2131.65 1337.18 L2138.74 1345.11 L2145.99 1354.89 L2153.08 1363.33 L2160.17 1368.56 L2167.26 1369.07 L2174.34 1364.18 L2181.43 1354.56 L2188.52 1341.39 L2195.61 1325.87 L2202.69 1309.50 L2209.78 1293.47 L2216.87 1278.11 L2223.96 1263.43 L2231.04 1248.08 L2238.13 1230.69 L2245.22 1209.43 L2252.31 1182.77 L2259.39 1149.02 L2266.48 1107.84 L2273.57 1059.75 L2280.66 1006.59 L2287.74 950.74 L2294.83 896.40 L2302.09 847.97 L2309.18 809.83 L2316.26 786.71 L2323.35 781.82 L2330.44 797.51 L2337.53 834.64 L2344.61 892.01 L2351.70 966.94 L2358.79 1055.03 L2365.88 1151.04 L2372.96 1248.75 L2380.05 1342.24 L2387.14 1425.43 L2394.23 1492.93 L2401.31 1540.52 L2408.40 1564.99 L2415.49 1564.14 L2422.57 1537.65 L2429.66 1486.35 L2436.75 1411.93 L2443.84 1317.60 L2450.93 1207.24 L2458.01 1085.74 L2465.27 958.16 L2472.36 829.41 L2479.44 704.53 L2486.53 587.93 L2493.62 482.79 L2500.71 392.01 L2507.79 317.25 L2514.88 259.37 L2521.97 218.36 L2529.06 193.72 L2536.14 184.78 L2543.23 190.35 L2550.32 209.25 L2557.41 240.64 L2564.49 283.33 L2571.58 336.32 L2578.67 397.91 L2585.76 466.76 L2592.84 540.68 L2599.93 616.78 L2607.02 692.04 L2614.11 762.75 L2621.19 825.53 L2628.45 876.49 L2635.54 913.11 L2642.63 933.02 L2649.71 935.89 L2656.80 922.39 L2663.89 894.71 L2670.98 856.57 L2678.06 812.53 L2685.15 767.81 L2692.24 727.31 L2699.33 695.76 L2706.41 676.35 L2713.50 670.78 L2720.59 679.56 L2727.68 701.16 L2734.76 733.22 L2741.85 772.37 L2748.94 814.72 L2756.03 856.91 L2763.11 896.23 L2770.20 930.82 L2777.29 959.85 L2784.38 983.98 L2791.63 1004.40 L2798.72 1022.63 L2805.81 1041.02 L2812.89 1060.93 L2819.98 1083.21 L2827.07 1108.18 L2834.16 1135.18 L2841.24 1162.52 L2848.33 1188.34 L2855.42 1210.44 L2862.51 1227.15 L2869.59 1237.44 L2876.68 1240.82 L2883.77 1238.79 L2890.86 1233.22 L2897.94 1227.32 L2905.03 1224.79 L2912.12 1229.68 L2919.21 1245.38 L2926.29 1274.40 L2933.38 1317.94 L2940.47 1375.65 L2947.73 1445.68 L2954.81 1524.49 L2961.90 1607.85 L2968.99 1690.71 L2976.08 1768.67 L2983.16 1837.18 L2990.25 1893.21 L2997.34 1934.89 L3004.43 1962.23 L3011.51 1976.06 L3018.60 1978.76 L3025.69 1973.53 L3032.78 1964.25 L3039.86 1954.63 L3046.95 1948.05 L3054.04 1947.21 L3061.13 1954.29 L3068.21 1969.82 L3075.30 1993.95 L3082.39 2025.34 L3089.48 2062.63 L3096.56 2103.47 L3103.65 2145.82 L3110.91 2187.51 L3117.99 2226.32 L3125.08 2261.25 L3132.17 2290.78 L3139.26 2314.41 L3146.34 2331.79 L3153.43 2342.59 L3160.52 2346.81 L3167.61 2344.78 L3174.69 2336.18 L3181.78 2321.32 L3188.87 2300.40 L3195.96 2273.57 L3203.04 2241.51 L3210.13 2205.23 L3217.22 2165.74 L3224.31 2124.39 L3231.39 2083.39 L3238.48 2044.24 L3245.57 2008.97 L3252.66 1979.27 L3259.74 1956.15 L3266.83 1940.63 L3274.09 1932.69 L3281.18 1932.02 L3288.26 1937.76 L3295.35 1948.39 L3302.44 1962.90 L3309.53 1979.78 L3316.61 1998.00 L3323.70 2017.07 L3330.79 2036.64 L3337.88 2056.56 L3344.96 2077.14 L3352.05 2098.91 L3359.14 2121.86 L3366.23 2146.16 L3373.31 2171.48 L3380.40 2197.29 L3387.49 2222.78 L3394.58 2246.91 L3401.66 2268.51 L3408.75 2286.56 L3415.84 2300.06 L3422.93 2308.33 L3430.18 2310.86 L3437.27 2306.98 L3444.36 2296.86 L3451.44 2280.49 L3458.53 2258.55 L3465.62 2231.72 L3472.71 2200.50 L3479.79 2166.24 L3486.88 2130.13 L3493.97 2093.18 L3501.06 2056.39 L3508.14 2021.12 L3515.23 1988.38 L3522.32 1958.85 L3529.41 1933.54 L3536.49 1912.95 L3543.58 1897.76 L3550.67 1888.31 L3557.76 1885.28 L3564.84 1888.48 L3571.93 1897.93 L3579.02 1913.29 L3586.11 1933.71 L3593.36 1958.18 L3600.45 1985.34 L3607.54 2013.36 L3614.63 2040.69 L3621.71 2066.01 L3628.80 2087.94 L3635.89 2105.49 L3642.98 2118.82 L3650.06 2128.11 L3657.15 2133.84 L3664.24 2137.56 L3671.33 2140.43 L3678.41 2143.63 L3685.50 2148.36 L3692.59 2155.28 L3699.68 2164.22 L3706.76 2175.02 L3713.85 2187.00 L3720.94 2198.81 L3728.03 2209.11 L3735.11 2216.87 L3742.20 2221.43 L3749.29 2221.93 L3756.54 2218.56 L3763.63 2211.81 L3770.72 2203.03 L3777.81 2193.24 L3784.89 2184.13 L3791.98 2177.04 L3799.07 2173.67 L3806.16 2174.51 L3813.24 2180.42 L3820.33 2191.22 L3827.42 2206.41 L3834.51 2224.97 L3841.59 2246.06 L3848.68 2268.34 L3855.77 2290.61 L3862.86 2311.71 L3869.94 2331.11 L3877.03 2348.32 L3884.12 2362.67 L3891.21 2374.48 L3898.29 2383.93 L3905.38 2391.19 L3912.47 2396.42 L3919.73 2400.30 L3926.81 2403.00 L3933.90 2404.86 L3940.99 2406.04 L3948.08 2406.88 L3955.16 2407.22 L3962.25 2407.56 L3969.34 2407.73 L3976.43 2407.89 L3983.51 2407.89 L3990.60 2407.89 L3997.69 2407.89 L4004.78 2407.89 L4011.86 2407.89 L4018.95 2407.89 L4026.04 2407.89 L4033.13 2407.89 L4040.21 2407.89 L4047.30 2407.89 L4054.39 2407.89 L4061.48 2407.89 L4068.56 2407.89 L4075.82 2407.89 L4082.91 2407.89 L4089.99 2407.89 L4097.08 2407.89 L4104.17 2407.89 L4111.26 2407.89 L4118.34 2407.89 L4125.43 2407.89 L4132.52 2407.89 L4139.61 2407.89 L4146.69 2407.89 L4153.78 2407.89 L4160.87 2407.89 L4167.96 2407.89 L4175.04 2407.89 L4182.13 2407.89 L4189.22 2407.89 L4196.31 2407.89 L4203.39 2407.89 L4210.48 2407.89 L4217.57 2407.89 L4224.66 2407.89 L4231.74 2407.89 L4239.00 2407.89 L4246.09 2407.89 L4253.18 2407.73 L4260.26 2407.56 L4267.35 2407.39 L4274.44 2406.88 L4281.52 2406.21 L4288.61 2405.19 L4295.70 2403.51 L4302.79 2401.14 L4309.88 2397.77 L4316.96 2392.88 L4324.05 2386.29 L4331.14 2377.52 L4338.23 2366.55 L4345.31 2352.88 L4352.40 2336.51 L4359.49 2317.95 L4366.58 2297.36 L4373.66 2275.43 L4380.75 2253.32 L4387.84 2232.23 L4394.93 2213.16 L4402.18 2197.80 L4409.27 2186.83 L4416.36 2181.43 L4423.44 2181.77 L4430.53 2187.84 L4437.62 2199.32 L4444.71 2215.35 L4451.79 2234.59 L4458.88 2255.85 L4465.97 2277.96 L4473.06 2299.73 L4480.14 2320.14 L4487.23 2338.54 L4494.32 2354.57 L4501.41 2367.90 L4508.49 2378.70 L4515.58 2387.14 L4522.67 2393.38 L4529.76 2398.11 L4536.84 2401.48 L4543.93 2403.84 L4551.02 2405.36" stroke-linejoin="round" style="fill:none;stroke:#A0A0A0;stroke-width:9.72"/>
	<path d=" M793.97 2406.21 L801.56 2405.70 L809.16 2405.03 L816.75 2404.35 L824.34 2403.34 L831.94 2401.99 L839.53 2400.64 L847.13 2398.78 L854.89 2396.59 L862.48 2394.06 L870.08 2391.02 L877.67 2387.31 L885.26 2383.26 L892.86 2378.53 L900.45 2373.13 L908.04 2367.06 L915.64 2360.14 L923.23 2352.71 L930.99 2344.44 L938.59 2335.50 L946.18 2325.88 L953.78 2315.59 L961.37 2304.79 L968.96 2293.65 L976.56 2282.18 L984.15 2270.70 L991.74 2259.06 L999.34 2247.75 L1006.93 2236.61 L1014.69 2226.32 L1022.29 2216.53 L1029.88 2207.76 L1037.47 2200.16 L1045.07 2193.75 L1052.66 2188.69 L1060.26 2184.98 L1067.85 2182.95 L1075.44 2182.44 L1083.04 2183.46 L1090.80 2185.99 L1098.39 2189.87 L1105.99 2195.10 L1113.58 2201.34 L1121.18 2208.60 L1128.77 2216.70 L1136.36 2225.14 L1143.96 2234.08 L1151.55 2243.03 L1159.14 2251.80 L1166.91 2260.24 L1174.50 2268.00 L1182.09 2275.09 L1189.69 2281.33 L1197.28 2286.56 L1204.88 2290.61 L1212.47 2293.48 L1220.06 2295.17 L1227.66 2295.68 L1235.25 2294.83 L1243.01 2292.81 L1250.61 2289.77 L1258.20 2285.72 L1265.79 2280.82 L1273.39 2275.09 L1280.98 2268.84 L1288.58 2262.09 L1296.17 2255.18 L1303.76 2247.92 L1311.36 2240.83 L1318.95 2233.91 L1326.71 2227.33 L1334.31 2221.09 L1341.90 2215.35 L1349.49 2210.29 L1357.09 2206.07 L1364.68 2202.53 L1372.28 2199.66 L1379.87 2197.63 L1387.46 2196.28 L1395.06 2195.61 L1402.82 2195.61 L1410.41 2196.28 L1418.01 2197.29 L1425.60 2198.64 L1433.19 2200.16 L1440.79 2201.68 L1448.38 2203.20 L1455.98 2204.38 L1463.57 2205.23 L1471.16 2205.56 L1478.93 2205.23 L1486.52 2204.21 L1494.11 2202.36 L1501.71 2199.49 L1509.30 2195.61 L1516.89 2190.71 L1524.49 2184.81 L1532.08 2177.72 L1539.68 2169.79 L1547.27 2160.68 L1555.03 2150.38 L1562.63 2139.24 L1570.22 2127.09 L1577.81 2114.10 L1585.41 2099.93 L1593.00 2084.91 L1600.59 2069.04 L1608.19 2052.17 L1615.78 2034.11 L1623.38 2015.21 L1630.97 1995.13 L1638.73 1973.87 L1646.33 1951.43 L1653.92 1927.80 L1661.51 1902.83 L1669.11 1876.67 L1676.70 1849.16 L1684.29 1820.64 L1691.89 1790.94 L1699.48 1760.40 L1707.08 1729.18 L1714.84 1697.46 L1722.43 1665.56 L1730.03 1634.01 L1737.62 1602.79 L1745.21 1572.75 L1752.81 1544.06 L1760.40 1517.40 L1767.99 1492.93 L1775.59 1471.16 L1783.18 1452.60 L1790.94 1437.58 L1798.54 1426.28 L1806.13 1419.02 L1813.73 1415.98 L1821.32 1417.33 L1828.91 1422.73 L1836.51 1432.35 L1844.10 1445.85 L1851.69 1463.23 L1859.29 1483.82 L1867.05 1507.28 L1874.64 1533.09 L1882.24 1560.94 L1889.83 1590.13 L1897.43 1620.00 L1905.02 1650.04 L1912.61 1679.57 L1920.21 1708.09 L1927.80 1735.09 L1935.39 1760.06 L1943.16 1782.51 L1950.75 1801.91 L1958.34 1818.28 L1965.94 1831.11 L1973.53 1840.22 L1981.13 1845.45 L1988.72 1847.14 L1996.31 1844.78 L2003.91 1839.04 L2011.50 1829.59 L2019.09 1816.93 L2026.86 1801.41 L2034.45 1783.01 L2042.04 1762.43 L2049.64 1739.81 L2057.23 1715.68 L2064.82 1690.20 L2072.42 1663.88 L2080.01 1637.04 L2087.61 1610.04 L2095.20 1582.88 L2102.96 1556.04 L2110.56 1529.72 L2118.15 1503.90 L2125.74 1478.93 L2133.34 1454.63 L2140.93 1431.00 L2148.53 1408.39 L2156.12 1386.28 L2163.71 1365.02 L2171.31 1344.43 L2179.07 1324.35 L2186.66 1304.94 L2194.26 1286.04 L2201.85 1267.65 L2209.44 1249.76 L2217.04 1232.55 L2224.63 1215.84 L2232.23 1199.81 L2239.82 1184.63 L2247.41 1170.45 L2255.18 1157.29 L2262.77 1145.31 L2270.36 1134.68 L2277.96 1125.39 L2285.55 1117.80 L2293.14 1111.56 L2300.74 1106.83 L2308.33 1103.63 L2315.93 1101.60 L2323.52 1100.59 L2331.11 1100.59 L2338.88 1100.93 L2346.47 1101.26 L2354.06 1101.43 L2361.66 1100.93 L2369.25 1099.07 L2376.84 1095.69 L2384.44 1090.29 L2392.03 1082.70 L2399.63 1072.24 L2407.22 1059.07 L2414.98 1042.88 L2422.57 1023.81 L2430.17 1001.87 L2437.76 977.23 L2445.36 950.23 L2452.95 921.38 L2460.54 890.83 L2468.14 859.44 L2475.73 827.72 L2483.32 796.16 L2491.09 765.45 L2498.68 736.09 L2506.28 708.75 L2513.87 683.78 L2521.46 661.67 L2529.06 642.77 L2536.65 627.24 L2544.24 615.26 L2551.84 606.82 L2559.43 601.76 L2567.19 600.07 L2574.79 601.59 L2582.38 605.98 L2589.98 612.73 L2597.57 621.68 L2605.16 632.31 L2612.76 644.46 L2620.35 657.45 L2627.94 671.29 L2635.54 685.63 L2643.13 699.97 L2650.89 714.49 L2658.49 728.83 L2666.08 743.01 L2673.68 756.84 L2681.27 770.68 L2688.86 784.18 L2696.46 797.68 L2704.05 811.35 L2711.64 825.02 L2719.24 839.03 L2727.00 853.37 L2734.59 868.05 L2742.19 883.41 L2749.78 899.44 L2757.38 915.97 L2764.97 933.19 L2772.56 951.24 L2780.16 969.81 L2787.75 989.04 L2795.34 1008.96 L2803.11 1029.38 L2810.70 1050.47 L2818.29 1072.24 L2825.89 1094.34 L2833.48 1117.13 L2841.08 1140.58 L2848.67 1164.54 L2856.26 1189.18 L2863.86 1214.49 L2871.45 1240.48 L2879.21 1267.14 L2886.81 1294.65 L2894.40 1323.00 L2901.99 1352.03 L2909.59 1381.89 L2917.18 1412.61 L2924.78 1443.99 L2932.37 1475.89 L2939.96 1508.29 L2947.56 1541.03 L2955.15 1574.10 L2962.91 1607.34 L2970.51 1640.59 L2978.10 1673.49 L2985.69 1706.23 L2993.29 1738.29 L3000.88 1769.85 L3008.48 1800.73 L3016.07 1830.77 L3023.66 1859.96 L3031.26 1888.14 L3039.02 1915.14 L3046.61 1941.13 L3054.21 1965.94 L3061.80 1989.39 L3069.39 2011.67 L3076.99 2032.59 L3084.58 2052.17 L3092.18 2070.23 L3099.77 2086.93 L3107.36 2101.78 L3115.13 2115.28 L3122.72 2126.93 L3130.31 2136.71 L3137.91 2144.81 L3145.50 2151.23 L3153.09 2155.78 L3160.69 2158.48 L3168.28 2159.49 L3175.88 2158.99 L3183.47 2156.96 L3191.23 2153.59 L3198.83 2149.03 L3206.42 2143.63 L3214.01 2137.56 L3221.61 2130.98 L3229.20 2124.23 L3236.79 2117.48 L3244.39 2110.89 L3251.98 2104.82 L3259.58 2099.59 L3267.34 2095.03 L3274.93 2091.66 L3282.53 2089.29 L3290.12 2088.11 L3297.71 2088.11 L3305.31 2089.29 L3312.90 2091.66 L3320.49 2095.03 L3328.09 2099.42 L3335.68 2104.48 L3343.28 2110.05 L3351.04 2115.96 L3358.63 2122.20 L3366.23 2128.28 L3373.82 2134.01 L3381.41 2139.24 L3389.01 2143.80 L3396.60 2147.51 L3404.19 2150.21 L3411.79 2151.90 L3419.38 2152.07 L3427.14 2151.23 L3434.74 2148.86 L3442.33 2145.32 L3449.93 2140.59 L3457.52 2134.86 L3465.11 2127.94 L3472.71 2120.51 L3480.30 2112.24 L3487.89 2103.64 L3495.49 2094.86 L3503.25 2086.09 L3510.84 2077.48 L3518.44 2069.55 L3526.03 2062.13 L3533.63 2055.54 L3541.22 2049.98 L3548.81 2045.42 L3556.41 2042.21 L3564.00 2040.19 L3571.59 2039.34 L3579.36 2039.85 L3586.95 2041.71 L3594.54 2044.58 L3602.14 2048.63 L3609.73 2053.69 L3617.33 2059.43 L3624.92 2066.01 L3632.51 2073.26 L3640.11 2081.03 L3647.70 2088.96 L3655.29 2097.23 L3663.06 2105.66 L3670.65 2113.93 L3678.24 2122.20 L3685.84 2130.47 L3693.43 2138.40 L3701.03 2146.16 L3708.62 2153.59 L3716.21 2160.84 L3723.81 2167.93 L3731.40 2174.85 L3739.16 2181.43 L3746.76 2188.01 L3754.35 2194.43 L3761.94 2200.84 L3769.54 2207.42 L3777.13 2213.83 L3784.73 2220.58 L3792.32 2227.50 L3799.91 2234.42 L3807.51 2241.68 L3815.27 2249.10 L3822.86 2256.69 L3830.46 2264.63 L3838.05 2272.73 L3845.64 2280.82 L3853.24 2289.09 L3860.83 2297.36 L3868.43 2305.46 L3876.02 2313.73 L3883.61 2321.66 L3891.38 2329.43 L3898.97 2337.02 L3906.56 2344.11 L3914.16 2351.03 L3921.75 2357.44 L3929.34 2363.34 L3936.94 2368.91 L3944.53 2373.98 L3952.13 2378.70 L3959.72 2382.75 L3967.31 2386.46 L3975.08 2389.84 L3982.67 2392.71 L3990.26 2395.24 L3997.86 2397.43 L4005.45 2399.29 L4013.04 2400.98 L4020.64 2402.32 L4028.23 2403.34 L4035.83 2404.35 L4043.42 2405.03 L4051.18 2405.70 L4058.78 2406.21 L4066.37 2406.54 L4073.96 2406.88 L4081.56 2407.05 L4089.15 2407.22 L4096.74 2407.39 L4104.34 2407.39 L4111.93 2407.39 L4119.52 2407.39 L4127.29 2407.39 L4134.88 2407.22 L4142.48 2407.05 L4150.07 2406.88 L4157.66 2406.54 L4165.26 2406.21 L4172.85 2405.70 L4180.44 2405.19 L4188.04 2404.35 L4195.63 2403.51 L4203.39 2402.49 L4210.99 2401.14 L4218.58 2399.63 L4226.18 2397.77 L4233.77 2395.74 L4241.36 2393.38 L4248.96 2390.68 L4256.55 2387.48 L4264.14 2384.10 L4271.74 2380.22 L4279.50 2376.00 L4287.09 2371.44 L4294.69 2366.38 L4302.28 2361.15 L4309.88 2355.75 L4317.47 2349.84 L4325.06 2344.11 L4332.66 2338.03 L4340.25 2332.13 L4347.84 2326.22 L4355.44 2320.65 L4363.20 2315.25 L4370.79 2310.36 L4378.39 2305.97 L4385.98 2302.09 L4393.58 2299.05 L4401.17 2296.52 L4408.76 2295.00 L4416.36 2294.16 L4423.95 2294.32 L4431.54 2295.17 L4439.31 2297.03 L4446.90 2299.56 L4454.49 2302.76 L4462.09 2306.81 L4469.68 2311.37 L4477.27 2316.26 L4484.87 2321.66 L4492.46 2327.40 L4500.06 2333.31 L4507.65 2339.21 L4515.41 2345.29 L4523.01 2351.03 L4530.60 2356.76 L4538.19 2362.33 L4545.79 2367.56 L4553.38 2372.29 L4560.98 2376.84 L4568.57 2381.06 L4576.16 2384.78 L4583.76 2388.15 L4591.52 2391.19 L4599.11 2393.89 L4606.71 2396.25 L4614.30 2398.28 L4621.89 2399.96 L4629.49 2401.48 L4637.08 2402.66 L4644.68 2403.68 L4652.27 2404.52 L4659.86 2405.19 L4667.46 2405.87 L4675.22 2406.38 L4682.81 2406.71" stroke-linejoin="round" style="fill:none;stroke:#505050;stroke-width:9.72"/>
	<path d=" M530.55 2406.88 L539.33 2406.71 L547.93 2406.54 L556.54 2406.38 L565.14 2406.21 L573.75 2405.87 L582.53 2405.53 L591.13 2405.19 L599.74 2404.86 L608.34 2404.35 L616.95 2403.84 L625.73 2403.34 L634.33 2402.83 L642.94 2402.16 L651.54 2401.31 L660.15 2400.64 L668.93 2399.63 L677.53 2398.78 L686.14 2397.60 L694.74 2396.42 L703.35 2395.24 L712.13 2393.89 L720.73 2392.37 L729.34 2390.68 L737.94 2388.99 L746.55 2387.14 L755.33 2385.28 L763.93 2383.09 L772.54 2380.89 L781.14 2378.53 L789.75 2376.00 L798.53 2373.47 L807.13 2370.77 L815.74 2367.90 L824.34 2364.86 L832.95 2361.82 L841.73 2358.45 L850.33 2355.24 L858.94 2351.70 L867.54 2348.16 L876.32 2344.61 L884.93 2340.90 L893.53 2337.19 L902.14 2333.48 L910.74 2329.59 L919.52 2325.71 L928.13 2321.83 L936.73 2317.95 L945.34 2314.24 L953.94 2310.36 L962.72 2306.64 L971.33 2302.93 L979.93 2299.22 L988.54 2295.68 L997.14 2292.30 L1005.92 2288.93 L1014.53 2285.55 L1023.13 2282.51 L1031.74 2279.48 L1040.34 2276.61 L1049.12 2273.74 L1057.72 2271.21 L1066.33 2268.68 L1074.94 2266.31 L1083.54 2264.12 L1092.32 2262.09 L1100.93 2260.07 L1109.53 2258.21 L1118.14 2256.53 L1126.74 2254.84 L1135.52 2253.32 L1144.13 2251.97 L1152.73 2250.45 L1161.34 2249.27 L1169.94 2247.92 L1178.72 2246.57 L1187.33 2245.39 L1195.93 2244.21 L1204.54 2242.86 L1213.31 2241.68 L1221.92 2240.32 L1230.53 2238.98 L1239.13 2237.46 L1247.74 2235.94 L1256.51 2234.25 L1265.12 2232.56 L1273.72 2230.71 L1282.33 2228.68 L1290.94 2226.66 L1299.71 2224.29 L1308.32 2221.93 L1316.93 2219.23 L1325.53 2216.36 L1334.14 2213.32 L1342.91 2209.95 L1351.52 2206.41 L1360.13 2202.69 L1368.73 2198.64 L1377.34 2194.43 L1386.11 2189.87 L1394.72 2184.98 L1403.33 2179.74 L1411.93 2174.34 L1420.54 2168.44 L1429.31 2162.36 L1437.92 2155.78 L1446.53 2148.86 L1455.13 2141.61 L1463.74 2134.01 L1472.51 2125.91 L1481.12 2117.48 L1489.73 2108.70 L1498.33 2099.42 L1506.94 2089.80 L1515.71 2079.84 L1524.32 2069.38 L1532.93 2058.75 L1541.53 2047.61 L1550.31 2036.14 L1558.91 2024.16 L1567.52 2012.18 L1576.13 1999.69 L1584.73 1987.03 L1593.51 1974.04 L1602.11 1960.88 L1610.72 1947.54 L1619.33 1934.21 L1627.93 1920.71 L1636.71 1907.04 L1645.31 1893.54 L1653.92 1880.04 L1662.53 1866.54 L1671.13 1853.38 L1679.91 1840.22 L1688.51 1827.23 L1697.12 1814.57 L1705.73 1802.25 L1714.33 1790.27 L1723.11 1778.79 L1731.71 1767.49 L1740.32 1756.86 L1748.93 1746.56 L1757.53 1736.78 L1766.31 1727.49 L1774.91 1718.72 L1783.52 1710.45 L1792.13 1702.86 L1800.73 1695.60 L1809.51 1688.85 L1818.11 1682.78 L1826.72 1677.04 L1835.33 1671.64 L1843.93 1666.74 L1852.71 1662.36 L1861.31 1658.14 L1869.92 1654.26 L1878.53 1650.54 L1887.30 1647.17 L1895.91 1643.79 L1904.51 1640.42 L1913.12 1637.21 L1921.73 1633.84 L1930.50 1630.46 L1939.11 1627.09 L1947.71 1623.21 L1956.32 1619.33 L1964.93 1615.11 L1973.70 1610.38 L1982.31 1605.49 L1990.91 1600.09 L1999.52 1594.18 L2008.13 1587.94 L2016.90 1581.19 L2025.51 1573.76 L2034.11 1566.00 L2042.72 1557.56 L2051.32 1548.79 L2060.10 1539.34 L2068.71 1529.38 L2077.31 1518.92 L2085.92 1507.95 L2094.53 1496.48 L2103.30 1484.66 L2111.91 1472.34 L2120.51 1459.69 L2129.12 1446.53 L2137.73 1433.19 L2146.50 1419.53 L2155.11 1405.52 L2163.71 1391.18 L2172.32 1376.83 L2180.93 1362.15 L2189.70 1347.30 L2198.31 1332.45 L2206.91 1317.43 L2215.52 1302.24 L2224.29 1287.22 L2232.90 1272.04 L2241.51 1256.85 L2250.11 1241.66 L2258.72 1226.64 L2267.49 1211.46 L2276.10 1196.44 L2284.71 1181.59 L2293.31 1166.74 L2301.92 1152.06 L2310.69 1137.38 L2319.30 1122.86 L2327.91 1108.52 L2336.51 1094.18 L2345.12 1080.17 L2353.89 1066.33 L2362.50 1052.49 L2371.11 1038.99 L2379.71 1025.66 L2388.32 1012.67 L2397.09 999.84 L2405.70 987.36 L2414.31 975.04 L2422.91 963.22 L2431.52 951.58 L2440.29 940.44 L2448.90 929.64 L2457.51 919.35 L2466.11 909.39 L2474.72 900.11 L2483.49 891.34 L2492.10 883.07 L2500.71 875.47 L2509.31 868.39 L2517.92 862.14 L2526.69 856.57 L2535.30 851.68 L2543.91 847.63 L2552.51 844.26 L2561.29 841.72 L2569.89 840.04 L2578.50 839.36 L2587.11 839.36 L2595.71 840.38 L2604.49 842.23 L2613.09 845.10 L2621.70 848.81 L2630.31 853.54 L2638.91 859.11 L2647.69 865.69 L2656.29 873.28 L2664.90 881.72 L2673.51 891.00 L2682.11 901.29 L2690.89 912.43 L2699.49 924.41 L2708.10 937.41 L2716.71 951.07 L2725.31 965.76 L2734.09 981.11 L2742.69 997.31 L2751.30 1014.19 L2759.91 1031.91 L2768.51 1050.13 L2777.29 1069.20 L2785.89 1088.94 L2794.50 1109.19 L2803.11 1130.12 L2811.71 1151.55 L2820.49 1173.49 L2829.09 1195.93 L2837.70 1218.71 L2846.31 1242.00 L2854.91 1265.63 L2863.69 1289.42 L2872.29 1313.72 L2880.90 1338.02 L2889.51 1362.66 L2898.28 1387.46 L2906.89 1412.27 L2915.49 1437.08 L2924.10 1462.05 L2932.71 1486.86 L2941.48 1511.66 L2950.09 1536.30 L2958.69 1560.77 L2967.30 1584.90 L2975.91 1608.86 L2984.68 1632.49 L2993.29 1655.78 L3001.89 1678.73 L3010.50 1701.17 L3019.11 1723.11 L3027.88 1744.54 L3036.49 1765.46 L3045.09 1785.88 L3053.70 1805.63 L3062.31 1824.69 L3071.08 1843.26 L3079.69 1861.14 L3088.29 1878.19 L3096.90 1894.56 L3105.51 1910.42 L3114.28 1925.44 L3122.89 1939.61 L3131.49 1953.28 L3140.10 1966.11 L3148.71 1978.26 L3157.48 1989.73 L3166.09 2000.53 L3174.69 2010.66 L3183.30 2020.11 L3191.91 2028.88 L3200.68 2036.98 L3209.29 2044.58 L3217.89 2051.49 L3226.50 2057.91 L3235.28 2063.81 L3243.88 2069.21 L3252.49 2074.11 L3261.09 2078.49 L3269.70 2082.54 L3278.48 2086.09 L3287.08 2089.29 L3295.69 2092.16 L3304.29 2094.53 L3312.90 2096.72 L3321.68 2098.74 L3330.28 2100.26 L3338.89 2101.78 L3347.49 2102.96 L3356.10 2103.98 L3364.88 2104.65 L3373.48 2105.32 L3382.09 2105.83 L3390.69 2106.34 L3399.30 2106.51 L3408.08 2106.84 L3416.68 2107.01 L3425.29 2107.01 L3433.89 2107.18 L3442.50 2107.18 L3451.28 2107.35 L3459.88 2107.52 L3468.49 2107.69 L3477.09 2107.86 L3485.70 2108.19 L3494.48 2108.53 L3503.08 2109.04 L3511.69 2109.54 L3520.29 2110.39 L3528.90 2111.23 L3537.68 2112.24 L3546.28 2113.59 L3554.89 2114.94 L3563.49 2116.46 L3572.27 2118.32 L3580.88 2120.34 L3589.48 2122.54 L3598.09 2124.90 L3606.69 2127.60 L3615.47 2130.47 L3624.08 2133.51 L3632.68 2136.88 L3641.29 2140.43 L3649.89 2144.14 L3658.67 2148.19 L3667.28 2152.41 L3675.88 2156.79 L3684.49 2161.35 L3693.09 2166.24 L3701.87 2171.14 L3710.48 2176.37 L3719.08 2181.60 L3727.69 2187.17 L3736.29 2192.74 L3745.07 2198.48 L3753.68 2204.21 L3762.28 2210.12 L3770.89 2216.03 L3779.49 2222.10 L3788.27 2228.18 L3796.88 2234.25 L3805.48 2240.49 L3814.09 2246.57 L3822.69 2252.64 L3831.47 2258.72 L3840.08 2264.79 L3848.68 2270.87 L3857.29 2276.78 L3865.89 2282.68 L3874.67 2288.42 L3883.28 2293.99 L3891.88 2299.56 L3900.49 2304.96 L3909.26 2310.19 L3917.87 2315.25 L3926.48 2320.14 L3935.08 2324.87 L3943.69 2329.59 L3952.46 2333.98 L3961.07 2338.20 L3969.68 2342.25 L3978.28 2346.13 L3986.89 2349.68 L3995.66 2353.22 L4004.27 2356.43 L4012.88 2359.29 L4021.48 2362.16 L4030.09 2364.69 L4038.86 2367.23 L4047.47 2369.25 L4056.08 2371.28 L4064.68 2372.96 L4073.29 2374.48 L4082.06 2375.83 L4090.67 2377.01 L4099.27 2378.03 L4107.88 2378.70 L4116.49 2379.21 L4125.26 2379.54 L4133.87 2379.88 L4142.48 2379.88 L4151.08 2379.71 L4159.69 2379.38 L4168.46 2379.04 L4177.07 2378.36 L4185.68 2377.69 L4194.28 2376.84 L4202.89 2376.00 L4211.66 2374.99 L4220.27 2373.81 L4228.88 2372.63 L4237.48 2371.44 L4246.26 2370.09 L4254.86 2368.74 L4263.47 2367.39 L4272.08 2366.04 L4280.68 2364.53 L4289.46 2363.18 L4298.06 2361.82 L4306.67 2360.48 L4315.27 2359.29 L4323.88 2357.94 L4332.66 2356.93 L4341.26 2355.75 L4349.87 2354.74 L4358.48 2353.89 L4367.08 2353.05 L4375.86 2352.38 L4384.46 2351.87 L4393.07 2351.36 L4401.68 2351.03 L4410.28 2350.86 L4419.06 2350.86 L4427.66 2351.03 L4436.27 2351.19 L4444.88 2351.53 L4453.48 2352.04 L4462.26 2352.54 L4470.86 2353.39 L4479.47 2354.23 L4488.08 2355.24 L4496.68 2356.26 L4505.46 2357.44 L4514.06 2358.62 L4522.67 2359.97 L4531.27 2361.49 L4539.88 2363.01 L4548.66 2364.53 L4557.26 2366.04 L4565.87 2367.73 L4574.48 2369.42 L4583.25 2371.11 L4591.86 2372.79 L4600.46 2374.48 L4609.07 2376.17 L4617.68 2377.86 L4626.45 2379.54 L4635.06 2381.23 L4643.66 2382.75 L4652.27 2384.27 L4660.88 2385.79 L4669.65 2387.31 L4678.26 2388.66 L4686.86 2390.18 L4695.47 2391.36 L4704.08 2392.71 L4712.85 2393.89 L4721.46 2394.90 L4730.06 2396.08 L4738.67 2397.09 L4747.27 2397.94 L4756.05 2398.95 L4764.66 2399.79 L4773.26 2400.47 L4781.87 2401.14 L4790.48 2401.82 L4799.25 2402.49 L4807.86 2403.00 L4816.46 2403.51 L4825.07 2404.01 L4833.68 2404.52 L4842.45 2404.86 L4851.06 2405.19 L4859.66 2405.53 L4868.27 2405.87 L4876.88 2406.04 L4885.65 2406.21 L4894.26 2406.54 L4902.86 2406.71 L4911.47 2406.88 L4920.24 2407.05 L4928.85 2407.05 L4937.46 2407.22 L4946.06 2407.39" stroke-linejoin="round" style="fill:none;stroke:#000000;stroke-width:9.72"/>
	<line x1="459.34" y1="2479.11" x2="459.34" y2="113.40" style="stroke:#000000;stroke-width:6.48"/>
	<line x1="459.34" y1="2407.89" x2="414.45" y2="2407.89" style="stroke:#000000;stroke-width:6.48"/>
	<text x="391.84" y="2447.33" style="font-family:'Helvetica';font-size:112.56px;fill:#000000" text-anchor="end">0</text>
	<line x1="459.34" y1="1871.94" x2="414.45" y2="1871.94" style="stroke:#000000;stroke-width:6.48"/>
	<text x="391.84" y="1911.38" style="font-family:'Helvetica';font-size:112.56px;fill:#000000" text-anchor="end">2</text>
	<line x1="459.34" y1="1335.99" x2="414.45" y2="1335.99" style="stroke:#000000;stroke-width:6.48"/>
	<text x="391.84" y="1375.43" style="font-family:'Helvetica';font-size:112.56px;fill:#000000" text-anchor="end">4</text>
	<line x1="459.34" y1="800.21" x2="414.45" y2="800.21" style="stroke:#000000;stroke-width:6.48"/>
	<text x="391.84" y="839.65" style="font-family:'Helvetica';font-size:112.56px;fill:#000000" text-anchor="end">6</text>
	<line x1="459.34" y1="264.26" x2="414.45" y2="264.26" style="stroke:#000000;stroke-width:6.48"/>
	<text x="391.84" y="303.70" style="font-family:'Helvetica';font-size:112.56px;fill:#000000" text-anchor="end">8</text>
	<text x="214.55" y="1296.34" style="font-family:'Helvetica';font-size:112.56px;fill:#000000" transform="rotate(-90 214.55,1296.34)" text-anchor="middle">Density</text>
	<line x1="459.34" y1="2479.11" x2="5286.60" y2="2479.11" style="stroke:#000000;stroke-width:6.48"/>
	<line x1="781.48" y1="2479.11" x2="781.48" y2="2524.16" style="stroke:#000000;stroke-width:6.48"/>
	<text x="781.48" y="2625.31" style="font-family:'Helvetica';font-size:112.56px;fill:#000000" text-anchor="middle">-.2</text>
	<line x1="2259.39" y1="2479.11" x2="2259.39" y2="2524.16" style="stroke:#000000;stroke-width:6.48"/>
	<text x="2259.39" y="2625.31" style="font-family:'Helvetica';font-size:112.56px;fill:#000000" text-anchor="middle">0</text>
	<line x1="3737.48" y1="2479.11" x2="3737.48" y2="2524.16" style="stroke:#000000;stroke-width:6.48"/>
	<text x="3737.48" y="2625.31" style="font-family:'Helvetica';font-size:112.56px;fill:#000000" text-anchor="middle">.2</text>
	<line x1="5215.39" y1="2479.11" x2="5215.39" y2="2524.16" style="stroke:#000000;stroke-width:6.48"/>
	<text x="5215.39" y="2625.31" style="font-family:'Helvetica';font-size:112.56px;fill:#000000" text-anchor="middle">.4</text>
	<text x="2872.97" y="2782.75" style="font-family:'Helvetica';font-size:112.56px;fill:#000000" text-anchor="middle">IV estimates</text>
	<rect x="1682.78" y="2878.03" width="2380.56" height="209.76" style="fill:#FFFFFF"/>
	<rect x="1686.02" y="2881.27" width="2374.08" height="203.28" style="fill:none;stroke:#FFFFFF;stroke-width:6.48"/>
	<line x1="1731.38" y1="2982.83" x2="1990.58" y2="2982.83" style="stroke:#A0A0A0;stroke-width:9.72"/>
	<line x1="2599.76" y1="2982.83" x2="2858.96" y2="2982.83" style="stroke:#505050;stroke-width:9.72"/>
	<line x1="3402.34" y1="2982.83" x2="3661.54" y2="2982.83" style="stroke:#000000;stroke-width:9.72"/>
	<text x="2058.07" y="3022.26" style="font-family:'Helvetica';font-size:112.56px;fill:#000000"> = .25</text>
	<text x="2926.46" y="3022.26" style="font-family:'Helvetica';font-size:112.56px;fill:#000000"> = .5</text>
	<text x="3729.04" y="3022.26" style="font-family:'Helvetica';font-size:112.56px;fill:#000000"> = 1</text>
</svg>
