<?xml version="1.0" encoding="UTF-8" standalone="no"?>
<!-- This is a Stata 18.5 generated SVG file (http://www.stata.com) -->

<svg version="1.1" width="600px" height="629px" viewBox="0 0 8242 8640" xmlns="http://www.w3.org/2000/svg" xmlns:xlink="http://www.w3.org/1999/xlink">
	<desc>Stata Graph - Graph</desc>
	<rect x="0" y="0" width="8242" height="8640" style="fill:#FFFFFF;stroke:none"/>
	<rect x="0.00" y="0.00" width="8242.00" height="8640.00" style="fill:#FFFFFF"/>
	<rect x="8.24" y="8.24" width="8225.52" height="8623.52" style="fill:none;stroke:#FFFFFF;stroke-width:16.48"/>
	<rect x="474.93" y="288.63" width="7463.59" height="7504.92" style="fill:#FFFFFF"/>
	<rect x="483.17" y="296.87" width="7447.11" height="7488.44" style="fill:none;stroke:#FFFFFF;stroke-width:16.48"/>
	<line x1="3748.40" y1="7793.55" x2="3748.40" y2="7628.85" style="stroke:#F0F0F0;stroke-width:24.73"/>
	<line x1="3748.40" y1="7546.23" x2="3748.40" y2="7381.53" style="stroke:#F0F0F0;stroke-width:24.73"/>
	<line x1="3748.40" y1="7299.18" x2="3748.40" y2="7134.21" style="stroke:#F0F0F0;stroke-width:24.73"/>
	<line x1="3748.40" y1="7051.86" x2="3748.40" y2="6886.89" style="stroke:#F0F0F0;stroke-width:24.73"/>
	<line x1="3748.40" y1="6804.54" x2="3748.40" y2="6639.84" style="stroke:#F0F0F0;stroke-width:24.73"/>
	<line x1="3748.40" y1="6557.49" x2="3748.40" y2="6392.52" style="stroke:#F0F0F0;stroke-width:24.73"/>
	<line x1="3748.40" y1="6310.17" x2="3748.40" y2="6145.20" style="stroke:#F0F0F0;stroke-width:24.73"/>
	<line x1="3748.40" y1="6062.85" x2="3748.40" y2="5898.15" style="stroke:#F0F0F0;stroke-width:24.73"/>
	<line x1="3748.40" y1="5815.53" x2="3748.40" y2="5650.83" style="stroke:#F0F0F0;stroke-width:24.73"/>
	<line x1="3748.40" y1="5568.48" x2="3748.40" y2="5403.51" style="stroke:#F0F0F0;stroke-width:24.73"/>
	<line x1="3748.40" y1="5321.16" x2="3748.40" y2="5156.46" style="stroke:#F0F0F0;stroke-width:24.73"/>
	<line x1="3748.40" y1="5073.84" x2="3748.40" y2="4909.14" style="stroke:#F0F0F0;stroke-width:24.73"/>
	<line x1="3748.40" y1="4826.79" x2="3748.40" y2="4661.82" style="stroke:#F0F0F0;stroke-width:24.73"/>
	<line x1="3748.40" y1="4579.47" x2="3748.40" y2="4414.77" style="stroke:#F0F0F0;stroke-width:24.73"/>
	<line x1="3748.40" y1="4332.15" x2="3748.40" y2="4167.45" style="stroke:#F0F0F0;stroke-width:24.73"/>
	<line x1="3748.40" y1="4085.10" x2="3748.40" y2="3920.13" style="stroke:#F0F0F0;stroke-width:24.73"/>
	<line x1="3748.40" y1="3837.78" x2="3748.40" y2="3672.81" style="stroke:#F0F0F0;stroke-width:24.73"/>
	<line x1="3748.40" y1="3590.46" x2="3748.40" y2="3425.76" style="stroke:#F0F0F0;stroke-width:24.73"/>
	<line x1="3748.40" y1="3343.41" x2="3748.40" y2="3178.44" style="stroke:#F0F0F0;stroke-width:24.73"/>
	<line x1="3748.40" y1="3096.09" x2="3748.40" y2="2931.12" style="stroke:#F0F0F0;stroke-width:24.73"/>
	<line x1="3748.40" y1="2848.77" x2="3748.40" y2="2684.07" style="stroke:#F0F0F0;stroke-width:24.73"/>
	<line x1="3748.40" y1="2601.45" x2="3748.40" y2="2436.75" style="stroke:#F0F0F0;stroke-width:24.73"/>
	<line x1="3748.40" y1="2354.40" x2="3748.40" y2="2189.43" style="stroke:#F0F0F0;stroke-width:24.73"/>
	<line x1="3748.40" y1="2107.08" x2="3748.40" y2="1942.38" style="stroke:#F0F0F0;stroke-width:24.73"/>
	<line x1="3748.40" y1="1859.76" x2="3748.40" y2="1695.06" style="stroke:#F0F0F0;stroke-width:24.73"/>
	<line x1="3748.40" y1="1612.71" x2="3748.40" y2="1447.74" style="stroke:#F0F0F0;stroke-width:24.73"/>
	<line x1="3748.40" y1="1365.39" x2="3748.40" y2="1200.69" style="stroke:#F0F0F0;stroke-width:24.73"/>
	<line x1="3748.40" y1="1118.07" x2="3748.40" y2="953.37" style="stroke:#F0F0F0;stroke-width:24.73"/>
	<line x1="3748.40" y1="871.02" x2="3748.40" y2="706.05" style="stroke:#F0F0F0;stroke-width:24.73"/>
	<line x1="3748.40" y1="623.70" x2="3748.40" y2="458.73" style="stroke:#F0F0F0;stroke-width:24.73"/>
	<line x1="3748.40" y1="376.38" x2="3748.40" y2="288.63" style="stroke:#F0F0F0;stroke-width:24.73"/>
	<line x1="1882.44" y1="7793.55" x2="1882.44" y2="7628.85" style="stroke:#F0F0F0;stroke-width:24.73"/>
	<line x1="1882.44" y1="7546.23" x2="1882.44" y2="7381.53" style="stroke:#F0F0F0;stroke-width:24.73"/>
	<line x1="1882.44" y1="7299.18" x2="1882.44" y2="7134.21" style="stroke:#F0F0F0;stroke-width:24.73"/>
	<line x1="1882.44" y1="7051.86" x2="1882.44" y2="6886.89" style="stroke:#F0F0F0;stroke-width:24.73"/>
	<line x1="1882.44" y1="6804.54" x2="1882.44" y2="6639.84" style="stroke:#F0F0F0;stroke-width:24.73"/>
	<line x1="1882.44" y1="6557.49" x2="1882.44" y2="6392.52" style="stroke:#F0F0F0;stroke-width:24.73"/>
	<line x1="1882.44" y1="6310.17" x2="1882.44" y2="6145.20" style="stroke:#F0F0F0;stroke-width:24.73"/>
	<line x1="1882.44" y1="6062.85" x2="1882.44" y2="5898.15" style="stroke:#F0F0F0;stroke-width:24.73"/>
	<line x1="1882.44" y1="5815.53" x2="1882.44" y2="5650.83" style="stroke:#F0F0F0;stroke-width:24.73"/>
	<line x1="1882.44" y1="5568.48" x2="1882.44" y2="5403.51" style="stroke:#F0F0F0;stroke-width:24.73"/>
	<line x1="1882.44" y1="5321.16" x2="1882.44" y2="5156.46" style="stroke:#F0F0F0;stroke-width:24.73"/>
	<line x1="1882.44" y1="5073.84" x2="1882.44" y2="4909.14" style="stroke:#F0F0F0;stroke-width:24.73"/>
	<line x1="1882.44" y1="4826.79" x2="1882.44" y2="4661.82" style="stroke:#F0F0F0;stroke-width:24.73"/>
	<line x1="1882.44" y1="4579.47" x2="1882.44" y2="4414.77" style="stroke:#F0F0F0;stroke-width:24.73"/>
	<line x1="1882.44" y1="4332.15" x2="1882.44" y2="4167.45" style="stroke:#F0F0F0;stroke-width:24.73"/>
	<line x1="1882.44" y1="4085.10" x2="1882.44" y2="3920.13" style="stroke:#F0F0F0;stroke-width:24.73"/>
	<line x1="1882.44" y1="3837.78" x2="1882.44" y2="3672.81" style="stroke:#F0F0F0;stroke-width:24.73"/>
	<line x1="1882.44" y1="3590.46" x2="1882.44" y2="3425.76" style="stroke:#F0F0F0;stroke-width:24.73"/>
	<line x1="1882.44" y1="3343.41" x2="1882.44" y2="3178.44" style="stroke:#F0F0F0;stroke-width:24.73"/>
	<line x1="1882.44" y1="3096.09" x2="1882.44" y2="2931.12" style="stroke:#F0F0F0;stroke-width:24.73"/>
	<line x1="1882.44" y1="2848.77" x2="1882.44" y2="2684.07" style="stroke:#F0F0F0;stroke-width:24.73"/>
	<line x1="1882.44" y1="2601.45" x2="1882.44" y2="2436.75" style="stroke:#F0F0F0;stroke-width:24.73"/>
	<line x1="1882.44" y1="2354.40" x2="1882.44" y2="2189.43" style="stroke:#F0F0F0;stroke-width:24.73"/>
	<line x1="1882.44" y1="2107.08" x2="1882.44" y2="1942.38" style="stroke:#F0F0F0;stroke-width:24.73"/>
	<line x1="1882.44" y1="1859.76" x2="1882.44" y2="1695.06" style="stroke:#F0F0F0;stroke-width:24.73"/>
	<line x1="1882.44" y1="1612.71" x2="1882.44" y2="1447.74" style="stroke:#F0F0F0;stroke-width:24.73"/>
	<line x1="1882.44" y1="1365.39" x2="1882.44" y2="1200.69" style="stroke:#F0F0F0;stroke-width:24.73"/>
	<line x1="1882.44" y1="1118.07" x2="1882.44" y2="953.37" style="stroke:#F0F0F0;stroke-width:24.73"/>
	<line x1="1882.44" y1="871.02" x2="1882.44" y2="706.05" style="stroke:#F0F0F0;stroke-width:24.73"/>
	<line x1="1882.44" y1="623.70" x2="1882.44" y2="458.73" style="stroke:#F0F0F0;stroke-width:24.73"/>
	<line x1="1882.44" y1="376.38" x2="1882.44" y2="288.63" style="stroke:#F0F0F0;stroke-width:24.73"/>
	<line x1="3748.40" y1="7793.55" x2="3748.40" y2="7628.85" style="stroke:#F0F0F0;stroke-width:24.73"/>
	<line x1="3748.40" y1="7546.23" x2="3748.40" y2="7381.53" style="stroke:#F0F0F0;stroke-width:24.73"/>
	<line x1="3748.40" y1="7299.18" x2="3748.40" y2="7134.21" style="stroke:#F0F0F0;stroke-width:24.73"/>
	<line x1="3748.40" y1="7051.86" x2="3748.40" y2="6886.89" style="stroke:#F0F0F0;stroke-width:24.73"/>
	<line x1="3748.40" y1="6804.54" x2="3748.40" y2="6639.84" style="stroke:#F0F0F0;stroke-width:24.73"/>
	<line x1="3748.40" y1="6557.49" x2="3748.40" y2="6392.52" style="stroke:#F0F0F0;stroke-width:24.73"/>
	<line x1="3748.40" y1="6310.17" x2="3748.40" y2="6145.20" style="stroke:#F0F0F0;stroke-width:24.73"/>
	<line x1="3748.40" y1="6062.85" x2="3748.40" y2="5898.15" style="stroke:#F0F0F0;stroke-width:24.73"/>
	<line x1="3748.40" y1="5815.53" x2="3748.40" y2="5650.83" style="stroke:#F0F0F0;stroke-width:24.73"/>
	<line x1="3748.40" y1="5568.48" x2="3748.40" y2="5403.51" style="stroke:#F0F0F0;stroke-width:24.73"/>
	<line x1="3748.40" y1="5321.16" x2="3748.40" y2="5156.46" style="stroke:#F0F0F0;stroke-width:24.73"/>
	<line x1="3748.40" y1="5073.84" x2="3748.40" y2="4909.14" style="stroke:#F0F0F0;stroke-width:24.73"/>
	<line x1="3748.40" y1="4826.79" x2="3748.40" y2="4661.82" style="stroke:#F0F0F0;stroke-width:24.73"/>
	<line x1="3748.40" y1="4579.47" x2="3748.40" y2="4414.77" style="stroke:#F0F0F0;stroke-width:24.73"/>
	<line x1="3748.40" y1="4332.15" x2="3748.40" y2="4167.45" style="stroke:#F0F0F0;stroke-width:24.73"/>
	<line x1="3748.40" y1="4085.10" x2="3748.40" y2="3920.13" style="stroke:#F0F0F0;stroke-width:24.73"/>
	<line x1="3748.40" y1="3837.78" x2="3748.40" y2="3672.81" style="stroke:#F0F0F0;stroke-width:24.73"/>
	<line x1="3748.40" y1="3590.46" x2="3748.40" y2="3425.76" style="stroke:#F0F0F0;stroke-width:24.73"/>
	<line x1="3748.40" y1="3343.41" x2="3748.40" y2="3178.44" style="stroke:#F0F0F0;stroke-width:24.73"/>
	<line x1="3748.40" y1="3096.09" x2="3748.40" y2="2931.12" style="stroke:#F0F0F0;stroke-width:24.73"/>
	<line x1="3748.40" y1="2848.77" x2="3748.40" y2="2684.07" style="stroke:#F0F0F0;stroke-width:24.73"/>
	<line x1="3748.40" y1="2601.45" x2="3748.40" y2="2436.75" style="stroke:#F0F0F0;stroke-width:24.73"/>
	<line x1="3748.40" y1="2354.40" x2="3748.40" y2="2189.43" style="stroke:#F0F0F0;stroke-width:24.73"/>
	<line x1="3748.40" y1="2107.08" x2="3748.40" y2="1942.38" style="stroke:#F0F0F0;stroke-width:24.73"/>
	<line x1="3748.40" y1="1859.76" x2="3748.40" y2="1695.06" style="stroke:#F0F0F0;stroke-width:24.73"/>
	<line x1="3748.40" y1="1612.71" x2="3748.40" y2="1447.74" style="stroke:#F0F0F0;stroke-width:24.73"/>
	<line x1="3748.40" y1="1365.39" x2="3748.40" y2="1200.69" style="stroke:#F0F0F0;stroke-width:24.73"/>
	<line x1="3748.40" y1="1118.07" x2="3748.40" y2="953.37" style="stroke:#F0F0F0;stroke-width:24.73"/>
	<line x1="3748.40" y1="871.02" x2="3748.40" y2="706.05" style="stroke:#F0F0F0;stroke-width:24.73"/>
	<line x1="3748.40" y1="623.70" x2="3748.40" y2="458.73" style="stroke:#F0F0F0;stroke-width:24.73"/>
	<line x1="3748.40" y1="376.38" x2="3748.40" y2="288.63" style="stroke:#F0F0F0;stroke-width:24.73"/>
	<line x1="5614.37" y1="7793.55" x2="5614.37" y2="7628.85" style="stroke:#F0F0F0;stroke-width:24.73"/>
	<line x1="5614.37" y1="7546.23" x2="5614.37" y2="7381.53" style="stroke:#F0F0F0;stroke-width:24.73"/>
	<line x1="5614.37" y1="7299.18" x2="5614.37" y2="7134.21" style="stroke:#F0F0F0;stroke-width:24.73"/>
	<line x1="5614.37" y1="7051.86" x2="5614.37" y2="6886.89" style="stroke:#F0F0F0;stroke-width:24.73"/>
	<line x1="5614.37" y1="6804.54" x2="5614.37" y2="6639.84" style="stroke:#F0F0F0;stroke-width:24.73"/>
	<line x1="5614.37" y1="6557.49" x2="5614.37" y2="6392.52" style="stroke:#F0F0F0;stroke-width:24.73"/>
	<line x1="5614.37" y1="6310.17" x2="5614.37" y2="6145.20" style="stroke:#F0F0F0;stroke-width:24.73"/>
	<line x1="5614.37" y1="6062.85" x2="5614.37" y2="5898.15" style="stroke:#F0F0F0;stroke-width:24.73"/>
	<line x1="5614.37" y1="5815.53" x2="5614.37" y2="5650.83" style="stroke:#F0F0F0;stroke-width:24.73"/>
	<line x1="5614.37" y1="5568.48" x2="5614.37" y2="5403.51" style="stroke:#F0F0F0;stroke-width:24.73"/>
	<line x1="5614.37" y1="5321.16" x2="5614.37" y2="5156.46" style="stroke:#F0F0F0;stroke-width:24.73"/>
	<line x1="5614.37" y1="5073.84" x2="5614.37" y2="4909.14" style="stroke:#F0F0F0;stroke-width:24.73"/>
	<line x1="5614.37" y1="4826.79" x2="5614.37" y2="4661.82" style="stroke:#F0F0F0;stroke-width:24.73"/>
	<line x1="5614.37" y1="4579.47" x2="5614.37" y2="4414.77" style="stroke:#F0F0F0;stroke-width:24.73"/>
	<line x1="5614.37" y1="4332.15" x2="5614.37" y2="4167.45" style="stroke:#F0F0F0;stroke-width:24.73"/>
	<line x1="5614.37" y1="4085.10" x2="5614.37" y2="3920.13" style="stroke:#F0F0F0;stroke-width:24.73"/>
	<line x1="5614.37" y1="3837.78" x2="5614.37" y2="3672.81" style="stroke:#F0F0F0;stroke-width:24.73"/>
	<line x1="5614.37" y1="3590.46" x2="5614.37" y2="3425.76" style="stroke:#F0F0F0;stroke-width:24.73"/>
	<line x1="5614.37" y1="3343.41" x2="5614.37" y2="3178.44" style="stroke:#F0F0F0;stroke-width:24.73"/>
	<line x1="5614.37" y1="3096.09" x2="5614.37" y2="2931.12" style="stroke:#F0F0F0;stroke-width:24.73"/>
	<line x1="5614.37" y1="2848.77" x2="5614.37" y2="2684.07" style="stroke:#F0F0F0;stroke-width:24.73"/>
	<line x1="5614.37" y1="2601.45" x2="5614.37" y2="2436.75" style="stroke:#F0F0F0;stroke-width:24.73"/>
	<line x1="5614.37" y1="2354.40" x2="5614.37" y2="2189.43" style="stroke:#F0F0F0;stroke-width:24.73"/>
	<line x1="5614.37" y1="2107.08" x2="5614.37" y2="1942.38" style="stroke:#F0F0F0;stroke-width:24.73"/>
	<line x1="5614.37" y1="1859.76" x2="5614.37" y2="1695.06" style="stroke:#F0F0F0;stroke-width:24.73"/>
	<line x1="5614.37" y1="1612.71" x2="5614.37" y2="1447.74" style="stroke:#F0F0F0;stroke-width:24.73"/>
	<line x1="5614.37" y1="1365.39" x2="5614.37" y2="1200.69" style="stroke:#F0F0F0;stroke-width:24.73"/>
	<line x1="5614.37" y1="1118.07" x2="5614.37" y2="953.37" style="stroke:#F0F0F0;stroke-width:24.73"/>
	<line x1="5614.37" y1="871.02" x2="5614.37" y2="706.05" style="stroke:#F0F0F0;stroke-width:24.73"/>
	<line x1="5614.37" y1="623.70" x2="5614.37" y2="458.73" style="stroke:#F0F0F0;stroke-width:24.73"/>
	<line x1="5614.37" y1="376.38" x2="5614.37" y2="288.63" style="stroke:#F0F0F0;stroke-width:24.73"/>
	<line x1="474.93" y1="851.58" x2="639.63" y2="851.58" style="stroke:#C0C0C0;stroke-width:16.48"/>
	<line x1="722.25" y1="851.58" x2="886.95" y2="851.58" style="stroke:#C0C0C0;stroke-width:16.48"/>
	<line x1="969.30" y1="851.58" x2="1134.27" y2="851.58" style="stroke:#C0C0C0;stroke-width:16.48"/>
	<line x1="1216.62" y1="851.58" x2="1381.59" y2="851.58" style="stroke:#C0C0C0;stroke-width:16.48"/>
	<line x1="1463.94" y1="851.58" x2="1628.64" y2="851.58" style="stroke:#C0C0C0;stroke-width:16.48"/>
	<line x1="1710.99" y1="851.58" x2="1875.96" y2="851.58" style="stroke:#C0C0C0;stroke-width:16.48"/>
	<line x1="1958.31" y1="851.58" x2="2123.27" y2="851.58" style="stroke:#C0C0C0;stroke-width:16.48"/>
	<line x1="2205.62" y1="851.58" x2="2370.32" y2="851.58" style="stroke:#C0C0C0;stroke-width:16.48"/>
	<line x1="2452.94" y1="851.58" x2="2617.64" y2="851.58" style="stroke:#C0C0C0;stroke-width:16.48"/>
	<line x1="2699.99" y1="851.58" x2="2864.96" y2="851.58" style="stroke:#C0C0C0;stroke-width:16.48"/>
	<line x1="2947.31" y1="851.58" x2="3112.01" y2="851.58" style="stroke:#C0C0C0;stroke-width:16.48"/>
	<line x1="3194.63" y1="851.58" x2="3359.33" y2="851.58" style="stroke:#C0C0C0;stroke-width:16.48"/>
	<line x1="3441.68" y1="851.58" x2="3606.65" y2="851.58" style="stroke:#C0C0C0;stroke-width:16.48"/>
	<line x1="3689.00" y1="851.58" x2="3853.70" y2="851.58" style="stroke:#C0C0C0;stroke-width:16.48"/>
	<line x1="3936.32" y1="851.58" x2="4101.02" y2="851.58" style="stroke:#C0C0C0;stroke-width:16.48"/>
	<line x1="4183.37" y1="851.58" x2="4348.34" y2="851.58" style="stroke:#C0C0C0;stroke-width:16.48"/>
	<line x1="4430.69" y1="851.58" x2="4595.66" y2="851.58" style="stroke:#C0C0C0;stroke-width:16.48"/>
	<line x1="4678.01" y1="851.58" x2="4842.71" y2="851.58" style="stroke:#C0C0C0;stroke-width:16.48"/>
	<line x1="4925.06" y1="851.58" x2="5090.03" y2="851.58" style="stroke:#C0C0C0;stroke-width:16.48"/>
	<line x1="5172.38" y1="851.58" x2="5337.35" y2="851.58" style="stroke:#C0C0C0;stroke-width:16.48"/>
	<line x1="5419.70" y1="851.58" x2="5584.40" y2="851.58" style="stroke:#C0C0C0;stroke-width:16.48"/>
	<line x1="5667.02" y1="851.58" x2="5831.72" y2="851.58" style="stroke:#C0C0C0;stroke-width:16.48"/>
	<line x1="5914.07" y1="851.58" x2="6079.04" y2="851.58" style="stroke:#C0C0C0;stroke-width:16.48"/>
	<line x1="6161.39" y1="851.58" x2="6326.08" y2="851.58" style="stroke:#C0C0C0;stroke-width:16.48"/>
	<line x1="6408.70" y1="851.58" x2="6573.40" y2="851.58" style="stroke:#C0C0C0;stroke-width:16.48"/>
	<line x1="6655.75" y1="851.58" x2="6820.72" y2="851.58" style="stroke:#C0C0C0;stroke-width:16.48"/>
	<line x1="6903.07" y1="851.58" x2="7067.77" y2="851.58" style="stroke:#C0C0C0;stroke-width:16.48"/>
	<line x1="7150.39" y1="851.58" x2="7315.09" y2="851.58" style="stroke:#C0C0C0;stroke-width:16.48"/>
	<line x1="7397.44" y1="851.58" x2="7562.41" y2="851.58" style="stroke:#C0C0C0;stroke-width:16.48"/>
	<line x1="7644.76" y1="851.58" x2="7809.73" y2="851.58" style="stroke:#C0C0C0;stroke-width:16.48"/>
	<line x1="7892.08" y1="851.58" x2="7938.52" y2="851.58" style="stroke:#C0C0C0;stroke-width:16.48"/>
	<line x1="3748.40" y1="7793.55" x2="3748.40" y2="851.58" style="stroke:#000000;stroke-width:16.48"/>
	<line x1="4662.35" y1="1289.25" x2="5531.48" y2="1289.25" style="stroke:#000000;stroke-width:24.73"/>
	<line x1="4759.01" y1="1539.54" x2="5498.81" y2="1539.54" style="stroke:#000000;stroke-width:24.73"/>
	<line x1="4591.07" y1="1789.56" x2="5539.04" y2="1789.56" style="stroke:#000000;stroke-width:24.73"/>
	<line x1="4686.65" y1="2039.85" x2="5537.96" y2="2039.85" style="stroke:#000000;stroke-width:24.73"/>
	<line x1="4767.92" y1="2289.87" x2="5614.37" y2="2289.87" style="stroke:#000000;stroke-width:24.73"/>
	<line x1="4655.06" y1="2540.16" x2="5555.78" y2="2540.16" style="stroke:#000000;stroke-width:24.73"/>
	<line x1="4616.45" y1="2790.18" x2="5476.13" y2="2790.18" style="stroke:#000000;stroke-width:24.73"/>
	<line x1="4646.69" y1="3040.47" x2="5528.78" y2="3040.47" style="stroke:#000000;stroke-width:24.73"/>
	<line x1="4657.76" y1="3290.76" x2="5519.06" y2="3290.76" style="stroke:#000000;stroke-width:24.73"/>
	<line x1="4603.22" y1="3540.78" x2="5470.73" y2="3540.78" style="stroke:#000000;stroke-width:24.73"/>
	<line x1="4657.76" y1="3791.07" x2="5511.50" y2="3791.07" style="stroke:#000000;stroke-width:24.73"/>
	<line x1="4625.90" y1="4041.09" x2="5302.79" y2="4041.09" style="stroke:#000000;stroke-width:24.73"/>
	<line x1="4643.18" y1="4291.38" x2="5541.74" y2="4291.38" style="stroke:#000000;stroke-width:24.73"/>
	<line x1="4700.96" y1="4541.40" x2="5540.39" y2="4541.40" style="stroke:#000000;stroke-width:24.73"/>
	<line x1="4643.72" y1="4791.69" x2="5507.45" y2="4791.69" style="stroke:#000000;stroke-width:24.73"/>
	<line x1="4620.77" y1="5041.71" x2="5511.77" y2="5041.71" style="stroke:#000000;stroke-width:24.73"/>
	<line x1="4626.98" y1="5292.00" x2="5459.12" y2="5292.00" style="stroke:#000000;stroke-width:24.73"/>
	<line x1="4644.80" y1="5542.02" x2="5487.20" y2="5542.02" style="stroke:#000000;stroke-width:24.73"/>
	<line x1="4696.64" y1="5792.31" x2="5543.36" y2="5792.31" style="stroke:#000000;stroke-width:24.73"/>
	<line x1="4703.66" y1="6042.60" x2="5587.10" y2="6042.60" style="stroke:#000000;stroke-width:24.73"/>
	<line x1="4653.71" y1="6292.62" x2="5518.25" y2="6292.62" style="stroke:#000000;stroke-width:24.73"/>
	<line x1="4669.64" y1="7043.22" x2="5501.78" y2="7043.22" style="stroke:#000000;stroke-width:24.73"/>
	<text x="575.10" y="1114.33" style="font-family:'Helvetica';font-weight:bold;font-size:214.38px;fill:#000000">Omitted genotype</text>
	<text x="575.10" y="1364.35" style="font-family:'Helvetica';font-size:214.38px;fill:#000000">rs1998013</text>
	<text x="575.10" y="1614.64" style="font-family:'Helvetica';font-size:214.38px;fill:#000000">rs4587594</text>
	<text x="575.10" y="1864.66" style="font-family:'Helvetica';font-size:214.38px;fill:#000000">rs646776</text>
	<text x="575.10" y="2114.95" style="font-family:'Helvetica';font-size:214.38px;fill:#000000">rs2587534</text>
	<text x="575.10" y="2364.97" style="font-family:'Helvetica';font-size:214.38px;fill:#000000">rs1367117</text>
	<text x="575.10" y="2615.26" style="font-family:'Helvetica';font-size:214.38px;fill:#000000">rs515135</text>
	<text x="575.10" y="2865.28" style="font-family:'Helvetica';font-size:214.38px;fill:#000000">rs6544713</text>
	<text x="575.10" y="3115.57" style="font-family:'Helvetica';font-size:214.38px;fill:#000000">rs7703051</text>
	<text x="575.10" y="3365.86" style="font-family:'Helvetica';font-size:214.38px;fill:#000000">rs6882076</text>
	<text x="575.10" y="3615.88" style="font-family:'Helvetica';font-size:214.38px;fill:#000000">rs4240624</text>
	<text x="575.10" y="3866.17" style="font-family:'Helvetica';font-size:214.38px;fill:#000000">rs2954022</text>
	<text x="575.10" y="4116.19" style="font-family:'Helvetica';font-size:214.38px;fill:#000000">rs579459</text>
	<text x="575.10" y="4366.48" style="font-family:'Helvetica';font-size:214.38px;fill:#000000">rs1535</text>
	<text x="575.10" y="4616.50" style="font-family:'Helvetica';font-size:214.38px;fill:#000000">rs10790162</text>
	<text x="575.10" y="4866.79" style="font-family:'Helvetica';font-size:214.38px;fill:#000000">rs2000999</text>
	<text x="575.10" y="5116.81" style="font-family:'Helvetica';font-size:214.38px;fill:#000000">rs6511720</text>
	<text x="575.10" y="5367.10" style="font-family:'Helvetica';font-size:214.38px;fill:#000000">rs688</text>
	<text x="575.10" y="5617.12" style="font-family:'Helvetica';font-size:214.38px;fill:#000000">rs10401969</text>
	<text x="575.10" y="5867.41" style="font-family:'Helvetica';font-size:214.38px;fill:#000000">rs6859</text>
	<text x="575.10" y="6117.70" style="font-family:'Helvetica';font-size:214.38px;fill:#000000">rs7254892</text>
	<text x="575.10" y="6367.72" style="font-family:'Helvetica';font-size:214.38px;fill:#000000">rs6065311</text>
	<text x="575.10" y="6868.03" style="font-family:'Helvetica';font-weight:bold;font-size:214.38px;fill:#000000">All genotypes</text>
	<text x="575.10" y="7118.32" style="font-family:'Helvetica';font-size:214.38px;fill:#000000">MVMR</text>
	<text x="575.10" y="613.75" style="font-family:'Helvetica';font-size:214.38px;fill:#000000">rsid</text>
	<text x="5714.54" y="1364.35" style="font-family:'Helvetica';font-size:214.38px;fill:#000000">0.47 (0.32, 0.62)</text>
	<text x="5714.54" y="1614.64" style="font-family:'Helvetica';font-size:214.38px;fill:#000000">0.48 (0.35, 0.61)</text>
	<text x="5714.54" y="1864.66" style="font-family:'Helvetica';font-size:214.38px;fill:#000000">0.46 (0.29, 0.63)</text>
	<text x="5714.54" y="2114.95" style="font-family:'Helvetica';font-size:214.38px;fill:#000000">0.48 (0.33, 0.63)</text>
	<text x="5714.54" y="2364.97" style="font-family:'Helvetica';font-size:214.38px;fill:#000000">0.50 (0.36, 0.65)</text>
	<text x="5714.54" y="2615.26" style="font-family:'Helvetica';font-size:214.38px;fill:#000000">0.47 (0.32, 0.63)</text>
	<text x="5714.54" y="2865.28" style="font-family:'Helvetica';font-size:214.38px;fill:#000000">0.45 (0.30, 0.60)</text>
	<text x="5714.54" y="3115.57" style="font-family:'Helvetica';font-size:214.38px;fill:#000000">0.47 (0.31, 0.62)</text>
	<text x="5714.54" y="3365.86" style="font-family:'Helvetica';font-size:214.38px;fill:#000000">0.47 (0.32, 0.62)</text>
	<text x="5714.54" y="3615.88" style="font-family:'Helvetica';font-size:214.38px;fill:#000000">0.45 (0.30, 0.60)</text>
	<text x="5714.54" y="3866.17" style="font-family:'Helvetica';font-size:214.38px;fill:#000000">0.47 (0.32, 0.62)</text>
	<text x="5714.54" y="4116.19" style="font-family:'Helvetica';font-size:214.38px;fill:#000000">0.42 (0.31, 0.54)</text>
	<text x="5714.54" y="4366.48" style="font-family:'Helvetica';font-size:214.38px;fill:#000000">0.47 (0.31, 0.63)</text>
	<text x="5714.54" y="4616.50" style="font-family:'Helvetica';font-size:214.38px;fill:#000000">0.48 (0.33, 0.63)</text>
	<text x="5714.54" y="4866.79" style="font-family:'Helvetica';font-size:214.38px;fill:#000000">0.46 (0.31, 0.61)</text>
	<text x="5714.54" y="5116.81" style="font-family:'Helvetica';font-size:214.38px;fill:#000000">0.46 (0.30, 0.62)</text>
	<text x="5714.54" y="5367.10" style="font-family:'Helvetica';font-size:214.38px;fill:#000000">0.45 (0.31, 0.60)</text>
	<text x="5714.54" y="5617.12" style="font-family:'Helvetica';font-size:214.38px;fill:#000000">0.46 (0.31, 0.61)</text>
	<text x="5714.54" y="5867.41" style="font-family:'Helvetica';font-size:214.38px;fill:#000000">0.48 (0.33, 0.63)</text>
	<text x="5714.54" y="6117.70" style="font-family:'Helvetica';font-size:214.38px;fill:#000000">0.49 (0.33, 0.64)</text>
	<text x="5714.54" y="6367.72" style="font-family:'Helvetica';font-size:214.38px;fill:#000000">0.47 (0.32, 0.62)</text>
	<text x="5714.54" y="7118.32" style="font-family:'Helvetica';font-size:214.38px;fill:#000000">0.47 (0.32, 0.61)</text>
	<text x="5714.54" y="613.75" style="font-family:'Helvetica';font-size:214.38px;fill:#000000">Estimate (95% CI)</text>
	<text x="5714.54" y="1364.35" style="font-family:'Helvetica';font-size:214.38px;fill:#000000">0.47 (0.32, 0.62)</text>
	<text x="5714.54" y="1614.64" style="font-family:'Helvetica';font-size:214.38px;fill:#000000">0.48 (0.35, 0.61)</text>
	<text x="5714.54" y="1864.66" style="font-family:'Helvetica';font-size:214.38px;fill:#000000">0.46 (0.29, 0.63)</text>
	<text x="5714.54" y="2114.95" style="font-family:'Helvetica';font-size:214.38px;fill:#000000">0.48 (0.33, 0.63)</text>
	<text x="5714.54" y="2364.97" style="font-family:'Helvetica';font-size:214.38px;fill:#000000">0.50 (0.36, 0.65)</text>
	<text x="5714.54" y="2615.26" style="font-family:'Helvetica';font-size:214.38px;fill:#000000">0.47 (0.32, 0.63)</text>
	<text x="5714.54" y="2865.28" style="font-family:'Helvetica';font-size:214.38px;fill:#000000">0.45 (0.30, 0.60)</text>
	<text x="5714.54" y="3115.57" style="font-family:'Helvetica';font-size:214.38px;fill:#000000">0.47 (0.31, 0.62)</text>
	<text x="5714.54" y="3365.86" style="font-family:'Helvetica';font-size:214.38px;fill:#000000">0.47 (0.32, 0.62)</text>
	<text x="5714.54" y="3615.88" style="font-family:'Helvetica';font-size:214.38px;fill:#000000">0.45 (0.30, 0.60)</text>
	<text x="5714.54" y="3866.17" style="font-family:'Helvetica';font-size:214.38px;fill:#000000">0.47 (0.32, 0.62)</text>
	<text x="5714.54" y="4116.19" style="font-family:'Helvetica';font-size:214.38px;fill:#000000">0.42 (0.31, 0.54)</text>
	<text x="5714.54" y="4366.48" style="font-family:'Helvetica';font-size:214.38px;fill:#000000">0.47 (0.31, 0.63)</text>
	<text x="5714.54" y="4616.50" style="font-family:'Helvetica';font-size:214.38px;fill:#000000">0.48 (0.33, 0.63)</text>
	<text x="5714.54" y="4866.79" style="font-family:'Helvetica';font-size:214.38px;fill:#000000">0.46 (0.31, 0.61)</text>
	<text x="5714.54" y="5116.81" style="font-family:'Helvetica';font-size:214.38px;fill:#000000">0.46 (0.30, 0.62)</text>
	<text x="5714.54" y="5367.10" style="font-family:'Helvetica';font-size:214.38px;fill:#000000">0.45 (0.31, 0.60)</text>
	<text x="5714.54" y="5617.12" style="font-family:'Helvetica';font-size:214.38px;fill:#000000">0.46 (0.31, 0.61)</text>
	<text x="5714.54" y="5867.41" style="font-family:'Helvetica';font-size:214.38px;fill:#000000">0.48 (0.33, 0.63)</text>
	<text x="5714.54" y="6117.70" style="font-family:'Helvetica';font-size:214.38px;fill:#000000">0.49 (0.33, 0.64)</text>
	<text x="5714.54" y="6367.72" style="font-family:'Helvetica';font-size:214.38px;fill:#000000">0.47 (0.32, 0.62)</text>
	<text x="5714.54" y="7118.32" style="font-family:'Helvetica';font-size:214.38px;fill:#000000">0.47 (0.32, 0.61)</text>
	<text x="5714.54" y="613.75" style="font-family:'Helvetica';font-size:214.38px;fill:#000000">Estimate (95% CI)</text>
	<polygon points="5049.05,1289.52 5096.78,1241.80 5144.50,1289.52 5096.78,1337.24" style="fill:#000000"/>
	<polygon points="5066.54,1289.52 5096.78,1259.28 5127.02,1289.52 5096.78,1319.76" style="fill:none;stroke:#000000;stroke-width:24.73"/>
	<polygon points="5081.18,1539.54 5128.91,1491.82 5176.63,1539.54 5128.91,1587.26" style="fill:#000000"/>
	<polygon points="5098.67,1539.54 5128.91,1509.30 5159.15,1539.54 5128.91,1569.78" style="fill:none;stroke:#000000;stroke-width:24.73"/>
	<polygon points="5017.19,1789.83 5064.92,1742.11 5112.64,1789.83 5064.92,1837.55" style="fill:#000000"/>
	<polygon points="5034.68,1789.83 5064.92,1759.59 5095.16,1789.83 5064.92,1820.07" style="fill:none;stroke:#000000;stroke-width:24.73"/>
	<polygon points="5064.44,2039.85 5112.17,1992.13 5159.89,2039.85 5112.17,2087.57" style="fill:#000000"/>
	<polygon points="5081.93,2039.85 5112.17,2009.61 5142.41,2039.85 5112.17,2070.09" style="fill:none;stroke:#000000;stroke-width:24.73"/>
	<polygon points="5143.28,2290.14 5191.01,2242.42 5238.73,2290.14 5191.01,2337.86" style="fill:#000000"/>
	<polygon points="5160.77,2290.14 5191.01,2259.90 5221.25,2290.14 5191.01,2320.38" style="fill:none;stroke:#000000;stroke-width:24.73"/>
	<polygon points="5057.69,2540.16 5105.42,2492.44 5153.14,2540.16 5105.42,2587.88" style="fill:#000000"/>
	<polygon points="5075.18,2540.16 5105.42,2509.92 5135.66,2540.16 5105.42,2570.40" style="fill:none;stroke:#000000;stroke-width:24.73"/>
	<polygon points="4998.56,2790.45 5046.29,2742.73 5094.01,2790.45 5046.29,2838.17" style="fill:#000000"/>
	<polygon points="5016.05,2790.45 5046.29,2760.21 5076.53,2790.45 5046.29,2820.69" style="fill:none;stroke:#000000;stroke-width:24.73"/>
	<polygon points="5039.87,3040.47 5087.60,2992.75 5135.32,3040.47 5087.60,3088.19" style="fill:#000000"/>
	<polygon points="5057.36,3040.47 5087.60,3010.23 5117.84,3040.47 5087.60,3070.71" style="fill:none;stroke:#000000;stroke-width:24.73"/>
	<polygon points="5040.68,3290.76 5088.41,3243.04 5136.13,3290.76 5088.41,3338.48" style="fill:#000000"/>
	<polygon points="5058.17,3290.76 5088.41,3260.52 5118.65,3290.76 5088.41,3321.00" style="fill:none;stroke:#000000;stroke-width:24.73"/>
	<polygon points="4989.11,3541.05 5036.84,3493.33 5084.56,3541.05 5036.84,3588.77" style="fill:#000000"/>
	<polygon points="5006.60,3541.05 5036.84,3510.81 5067.08,3541.05 5036.84,3571.29" style="fill:none;stroke:#000000;stroke-width:24.73"/>
	<polygon points="5036.90,3791.07 5084.63,3743.35 5132.35,3791.07 5084.63,3838.79" style="fill:#000000"/>
	<polygon points="5054.39,3791.07 5084.63,3760.83 5114.87,3791.07 5084.63,3821.31" style="fill:none;stroke:#000000;stroke-width:24.73"/>
	<polygon points="4916.48,4041.36 4964.21,3993.64 5011.93,4041.36 4964.21,4089.08" style="fill:#000000"/>
	<polygon points="4933.97,4041.36 4964.21,4011.12 4994.45,4041.36 4964.21,4071.60" style="fill:none;stroke:#000000;stroke-width:24.73"/>
	<polygon points="5044.73,4291.38 5092.46,4243.66 5140.18,4291.38 5092.46,4339.10" style="fill:#000000"/>
	<polygon points="5062.22,4291.38 5092.46,4261.14 5122.70,4291.38 5092.46,4321.62" style="fill:none;stroke:#000000;stroke-width:24.73"/>
	<polygon points="5072.81,4541.67 5120.54,4493.95 5168.26,4541.67 5120.54,4589.39" style="fill:#000000"/>
	<polygon points="5090.30,4541.67 5120.54,4511.43 5150.78,4541.67 5120.54,4571.91" style="fill:none;stroke:#000000;stroke-width:24.73"/>
	<polygon points="5027.72,4791.69 5075.45,4743.97 5123.17,4791.69 5075.45,4839.41" style="fill:#000000"/>
	<polygon points="5045.21,4791.69 5075.45,4761.45 5105.69,4791.69 5075.45,4821.93" style="fill:none;stroke:#000000;stroke-width:24.73"/>
	<polygon points="5018.27,5041.98 5066.00,4994.26 5113.72,5041.98 5066.00,5089.70" style="fill:#000000"/>
	<polygon points="5035.76,5041.98 5066.00,5011.74 5096.24,5041.98 5066.00,5072.22" style="fill:none;stroke:#000000;stroke-width:24.73"/>
	<polygon points="4995.05,5292.00 5042.78,5244.28 5090.50,5292.00 5042.78,5339.72" style="fill:#000000"/>
	<polygon points="5012.54,5292.00 5042.78,5261.76 5073.02,5292.00 5042.78,5322.24" style="fill:none;stroke:#000000;stroke-width:24.73"/>
	<polygon points="5018.00,5542.29 5065.73,5494.57 5113.45,5542.29 5065.73,5590.01" style="fill:#000000"/>
	<polygon points="5035.49,5542.29 5065.73,5512.05 5095.97,5542.29 5065.73,5572.53" style="fill:none;stroke:#000000;stroke-width:24.73"/>
	<polygon points="5072.27,5792.58 5120.00,5744.86 5167.72,5792.58 5120.00,5840.30" style="fill:#000000"/>
	<polygon points="5089.76,5792.58 5120.00,5762.34 5150.24,5792.58 5120.00,5822.82" style="fill:none;stroke:#000000;stroke-width:24.73"/>
	<polygon points="5097.38,6042.60 5145.11,5994.88 5192.83,6042.60 5145.11,6090.32" style="fill:#000000"/>
	<polygon points="5114.87,6042.60 5145.11,6012.36 5175.35,6042.60 5145.11,6072.84" style="fill:none;stroke:#000000;stroke-width:24.73"/>
	<polygon points="5037.98,6292.89 5085.71,6245.17 5133.43,6292.89 5085.71,6340.61" style="fill:#000000"/>
	<polygon points="5055.47,6292.89 5085.71,6262.65 5115.95,6292.89 5085.71,6323.13" style="fill:none;stroke:#000000;stroke-width:24.73"/>
	<polygon points="5037.71,7043.22 5085.44,6995.50 5133.16,7043.22 5085.44,7090.94" style="fill:#000000"/>
	<polygon points="5055.20,7043.22 5085.44,7012.98 5115.68,7043.22 5085.44,7073.46" style="fill:none;stroke:#000000;stroke-width:24.73"/>
	<line x1="474.93" y1="7793.55" x2="7938.52" y2="7793.55" style="stroke:#000000;stroke-width:16.48"/>
	<text x="2815.55" y="8000.72" style="font-family:'Helvetica';font-size:214.38px;fill:#000000" text-anchor="middle"> </text>
	<text x="4681.25" y="8000.72" style="font-family:'Helvetica';font-size:214.38px;fill:#000000" text-anchor="middle"> </text>
	<line x1="3748.40" y1="7793.55" x2="3748.40" y2="7908.03" style="stroke:#000000;stroke-width:16.48"/>
	<text x="3748.40" y="8115.20" style="font-family:'Helvetica';font-size:214.38px;fill:#000000" text-anchor="middle">0</text>
	<line x1="1882.44" y1="7793.55" x2="1882.44" y2="7908.03" style="stroke:#000000;stroke-width:16.48"/>
	<text x="1882.44" y="8115.20" style="font-family:'Helvetica';font-size:214.38px;fill:#000000" text-anchor="middle">-.652</text>
	<line x1="3748.40" y1="7793.55" x2="3748.40" y2="7908.03" style="stroke:#000000;stroke-width:16.48"/>
	<text x="3748.40" y="8115.20" style="font-family:'Helvetica';font-size:214.38px;fill:#000000" text-anchor="middle">0</text>
	<line x1="5614.37" y1="7793.55" x2="5614.37" y2="7908.03" style="stroke:#000000;stroke-width:16.48"/>
	<text x="5614.37" y="8115.20" style="font-family:'Helvetica';font-size:214.38px;fill:#000000" text-anchor="middle">.652</text>
	<line x1="3748.40" y1="7793.55" x2="3748.40" y2="7908.03" style="stroke:#000000;stroke-width:16.48"/>
</svg>
