<?xml version="1.0" encoding="UTF-8" standalone="no"?>
<!-- This is a Stata 18.5 generated SVG file (http://www.stata.com) -->

<svg version="1.1" width="600px" height="360px" viewBox="0 0 5400 3240" xmlns="http://www.w3.org/2000/svg" xmlns:xlink="http://www.w3.org/1999/xlink">
	<desc>Stata Graph - Graph</desc>
	<rect x="0" y="0" width="5400" height="3240" style="fill:#FFFFFF;stroke:none"/>
	<rect x="0.00" y="0.00" width="5400.00" height="3240.00" style="fill:#FFFFFF"/>
	<rect x="3.24" y="3.24" width="5393.52" height="3233.52" style="fill:none;stroke:#FFFFFF;stroke-width:6.48"/>
	<rect x="557.89" y="113.40" width="4728.71" height="2365.71" style="fill:#FFFFFF"/>
	<rect x="561.13" y="116.64" width="4722.23" height="2359.23" style="fill:none;stroke:#FFFFFF;stroke-width:6.48"/>
	<line x1="557.89" y1="2407.89" x2="622.69" y2="2407.89" style="stroke:#F0F0F0;stroke-width:9.72"/>
	<line x1="655.09" y1="2407.89" x2="719.89" y2="2407.89" style="stroke:#F0F0F0;stroke-width:9.72"/>
	<line x1="752.29" y1="2407.89" x2="817.09" y2="2407.89" style="stroke:#F0F0F0;stroke-width:9.72"/>
	<line x1="849.49" y1="2407.89" x2="914.29" y2="2407.89" style="stroke:#F0F0F0;stroke-width:9.72"/>
	<line x1="946.69" y1="2407.89" x2="1011.49" y2="2407.89" style="stroke:#F0F0F0;stroke-width:9.72"/>
	<line x1="1043.89" y1="2407.89" x2="1108.69" y2="2407.89" style="stroke:#F0F0F0;stroke-width:9.72"/>
	<line x1="1141.09" y1="2407.89" x2="1205.89" y2="2407.89" style="stroke:#F0F0F0;stroke-width:9.72"/>
	<line x1="1238.29" y1="2407.89" x2="1303.09" y2="2407.89" style="stroke:#F0F0F0;stroke-width:9.72"/>
	<line x1="1335.49" y1="2407.89" x2="1400.29" y2="2407.89" style="stroke:#F0F0F0;stroke-width:9.72"/>
	<line x1="1432.69" y1="2407.89" x2="1497.49" y2="2407.89" style="stroke:#F0F0F0;stroke-width:9.72"/>
	<line x1="1529.89" y1="2407.89" x2="1594.69" y2="2407.89" style="stroke:#F0F0F0;stroke-width:9.72"/>
	<line x1="1627.09" y1="2407.89" x2="1691.89" y2="2407.89" style="stroke:#F0F0F0;stroke-width:9.72"/>
	<line x1="1724.29" y1="2407.89" x2="1789.09" y2="2407.89" style="stroke:#F0F0F0;stroke-width:9.72"/>
	<line x1="1821.49" y1="2407.89" x2="1886.29" y2="2407.89" style="stroke:#F0F0F0;stroke-width:9.72"/>
	<line x1="1918.69" y1="2407.89" x2="1983.49" y2="2407.89" style="stroke:#F0F0F0;stroke-width:9.72"/>
	<line x1="2015.89" y1="2407.89" x2="2080.69" y2="2407.89" style="stroke:#F0F0F0;stroke-width:9.72"/>
	<line x1="2113.09" y1="2407.89" x2="2177.89" y2="2407.89" style="stroke:#F0F0F0;stroke-width:9.72"/>
	<line x1="2210.29" y1="2407.89" x2="2275.09" y2="2407.89" style="stroke:#F0F0F0;stroke-width:9.72"/>
	<line x1="2307.49" y1="2407.89" x2="2372.29" y2="2407.89" style="stroke:#F0F0F0;stroke-width:9.72"/>
	<line x1="2404.69" y1="2407.89" x2="2469.49" y2="2407.89" style="stroke:#F0F0F0;stroke-width:9.72"/>
	<line x1="2501.89" y1="2407.89" x2="2566.69" y2="2407.89" style="stroke:#F0F0F0;stroke-width:9.72"/>
	<line x1="2599.09" y1="2407.89" x2="2663.89" y2="2407.89" style="stroke:#F0F0F0;stroke-width:9.72"/>
	<line x1="2696.29" y1="2407.89" x2="2761.09" y2="2407.89" style="stroke:#F0F0F0;stroke-width:9.72"/>
	<line x1="2793.49" y1="2407.89" x2="2858.29" y2="2407.89" style="stroke:#F0F0F0;stroke-width:9.72"/>
	<line x1="2890.69" y1="2407.89" x2="2955.49" y2="2407.89" style="stroke:#F0F0F0;stroke-width:9.72"/>
	<line x1="2987.89" y1="2407.89" x2="3052.69" y2="2407.89" style="stroke:#F0F0F0;stroke-width:9.72"/>
	<line x1="3085.09" y1="2407.89" x2="3149.89" y2="2407.89" style="stroke:#F0F0F0;stroke-width:9.72"/>
	<line x1="3182.29" y1="2407.89" x2="3247.09" y2="2407.89" style="stroke:#F0F0F0;stroke-width:9.72"/>
	<line x1="3279.49" y1="2407.89" x2="3344.29" y2="2407.89" style="stroke:#F0F0F0;stroke-width:9.72"/>
	<line x1="3376.69" y1="2407.89" x2="3441.49" y2="2407.89" style="stroke:#F0F0F0;stroke-width:9.72"/>
	<line x1="3473.89" y1="2407.89" x2="3538.69" y2="2407.89" style="stroke:#F0F0F0;stroke-width:9.72"/>
	<line x1="3571.09" y1="2407.89" x2="3635.89" y2="2407.89" style="stroke:#F0F0F0;stroke-width:9.72"/>
	<line x1="3668.29" y1="2407.89" x2="3733.09" y2="2407.89" style="stroke:#F0F0F0;stroke-width:9.72"/>
	<line x1="3765.49" y1="2407.89" x2="3830.29" y2="2407.89" style="stroke:#F0F0F0;stroke-width:9.72"/>
	<line x1="3862.69" y1="2407.89" x2="3927.49" y2="2407.89" style="stroke:#F0F0F0;stroke-width:9.72"/>
	<line x1="3959.89" y1="2407.89" x2="4024.69" y2="2407.89" style="stroke:#F0F0F0;stroke-width:9.72"/>
	<line x1="4057.09" y1="2407.89" x2="4121.89" y2="2407.89" style="stroke:#F0F0F0;stroke-width:9.72"/>
	<line x1="4154.29" y1="2407.89" x2="4219.09" y2="2407.89" style="stroke:#F0F0F0;stroke-width:9.72"/>
	<line x1="4251.49" y1="2407.89" x2="4316.29" y2="2407.89" style="stroke:#F0F0F0;stroke-width:9.72"/>
	<line x1="4348.69" y1="2407.89" x2="4413.49" y2="2407.89" style="stroke:#F0F0F0;stroke-width:9.72"/>
	<line x1="4445.89" y1="2407.89" x2="4510.69" y2="2407.89" style="stroke:#F0F0F0;stroke-width:9.72"/>
	<line x1="4543.09" y1="2407.89" x2="4607.89" y2="2407.89" style="stroke:#F0F0F0;stroke-width:9.72"/>
	<line x1="4640.29" y1="2407.89" x2="4705.09" y2="2407.89" style="stroke:#F0F0F0;stroke-width:9.72"/>
	<line x1="4737.49" y1="2407.89" x2="4802.29" y2="2407.89" style="stroke:#F0F0F0;stroke-width:9.72"/>
	<line x1="4834.69" y1="2407.89" x2="4899.49" y2="2407.89" style="stroke:#F0F0F0;stroke-width:9.72"/>
	<line x1="4931.89" y1="2407.89" x2="4996.69" y2="2407.89" style="stroke:#F0F0F0;stroke-width:9.72"/>
	<line x1="5029.09" y1="2407.89" x2="5093.89" y2="2407.89" style="stroke:#F0F0F0;stroke-width:9.72"/>
	<line x1="5126.29" y1="2407.89" x2="5191.09" y2="2407.89" style="stroke:#F0F0F0;stroke-width:9.72"/>
	<line x1="5223.49" y1="2407.89" x2="5286.60" y2="2407.89" style="stroke:#F0F0F0;stroke-width:9.72"/>
	<line x1="557.89" y1="1666.74" x2="622.69" y2="1666.74" style="stroke:#F0F0F0;stroke-width:9.72"/>
	<line x1="655.09" y1="1666.74" x2="719.89" y2="1666.74" style="stroke:#F0F0F0;stroke-width:9.72"/>
	<line x1="752.29" y1="1666.74" x2="817.09" y2="1666.74" style="stroke:#F0F0F0;stroke-width:9.72"/>
	<line x1="849.49" y1="1666.74" x2="914.29" y2="1666.74" style="stroke:#F0F0F0;stroke-width:9.72"/>
	<line x1="946.69" y1="1666.74" x2="1011.49" y2="1666.74" style="stroke:#F0F0F0;stroke-width:9.72"/>
	<line x1="1043.89" y1="1666.74" x2="1108.69" y2="1666.74" style="stroke:#F0F0F0;stroke-width:9.72"/>
	<line x1="1141.09" y1="1666.74" x2="1205.89" y2="1666.74" style="stroke:#F0F0F0;stroke-width:9.72"/>
	<line x1="1238.29" y1="1666.74" x2="1303.09" y2="1666.74" style="stroke:#F0F0F0;stroke-width:9.72"/>
	<line x1="1335.49" y1="1666.74" x2="1400.29" y2="1666.74" style="stroke:#F0F0F0;stroke-width:9.72"/>
	<line x1="1432.69" y1="1666.74" x2="1497.49" y2="1666.74" style="stroke:#F0F0F0;stroke-width:9.72"/>
	<line x1="1529.89" y1="1666.74" x2="1594.69" y2="1666.74" style="stroke:#F0F0F0;stroke-width:9.72"/>
	<line x1="1627.09" y1="1666.74" x2="1691.89" y2="1666.74" style="stroke:#F0F0F0;stroke-width:9.72"/>
	<line x1="1724.29" y1="1666.74" x2="1789.09" y2="1666.74" style="stroke:#F0F0F0;stroke-width:9.72"/>
	<line x1="1821.49" y1="1666.74" x2="1886.29" y2="1666.74" style="stroke:#F0F0F0;stroke-width:9.72"/>
	<line x1="1918.69" y1="1666.74" x2="1983.49" y2="1666.74" style="stroke:#F0F0F0;stroke-width:9.72"/>
	<line x1="2015.89" y1="1666.74" x2="2080.69" y2="1666.74" style="stroke:#F0F0F0;stroke-width:9.72"/>
	<line x1="2113.09" y1="1666.74" x2="2177.89" y2="1666.74" style="stroke:#F0F0F0;stroke-width:9.72"/>
	<line x1="2210.29" y1="1666.74" x2="2275.09" y2="1666.74" style="stroke:#F0F0F0;stroke-width:9.72"/>
	<line x1="2307.49" y1="1666.74" x2="2372.29" y2="1666.74" style="stroke:#F0F0F0;stroke-width:9.72"/>
	<line x1="2404.69" y1="1666.74" x2="2469.49" y2="1666.74" style="stroke:#F0F0F0;stroke-width:9.72"/>
	<line x1="2501.89" y1="1666.74" x2="2566.69" y2="1666.74" style="stroke:#F0F0F0;stroke-width:9.72"/>
	<line x1="2599.09" y1="1666.74" x2="2663.89" y2="1666.74" style="stroke:#F0F0F0;stroke-width:9.72"/>
	<line x1="2696.29" y1="1666.74" x2="2761.09" y2="1666.74" style="stroke:#F0F0F0;stroke-width:9.72"/>
	<line x1="2793.49" y1="1666.74" x2="2858.29" y2="1666.74" style="stroke:#F0F0F0;stroke-width:9.72"/>
	<line x1="2890.69" y1="1666.74" x2="2955.49" y2="1666.74" style="stroke:#F0F0F0;stroke-width:9.72"/>
	<line x1="2987.89" y1="1666.74" x2="3052.69" y2="1666.74" style="stroke:#F0F0F0;stroke-width:9.72"/>
	<line x1="3085.09" y1="1666.74" x2="3149.89" y2="1666.74" style="stroke:#F0F0F0;stroke-width:9.72"/>
	<line x1="3182.29" y1="1666.74" x2="3247.09" y2="1666.74" style="stroke:#F0F0F0;stroke-width:9.72"/>
	<line x1="3279.49" y1="1666.74" x2="3344.29" y2="1666.74" style="stroke:#F0F0F0;stroke-width:9.72"/>
	<line x1="3376.69" y1="1666.74" x2="3441.49" y2="1666.74" style="stroke:#F0F0F0;stroke-width:9.72"/>
	<line x1="3473.89" y1="1666.74" x2="3538.69" y2="1666.74" style="stroke:#F0F0F0;stroke-width:9.72"/>
	<line x1="3571.09" y1="1666.74" x2="3635.89" y2="1666.74" style="stroke:#F0F0F0;stroke-width:9.72"/>
	<line x1="3668.29" y1="1666.74" x2="3733.09" y2="1666.74" style="stroke:#F0F0F0;stroke-width:9.72"/>
	<line x1="3765.49" y1="1666.74" x2="3830.29" y2="1666.74" style="stroke:#F0F0F0;stroke-width:9.72"/>
	<line x1="3862.69" y1="1666.74" x2="3927.49" y2="1666.74" style="stroke:#F0F0F0;stroke-width:9.72"/>
	<line x1="3959.89" y1="1666.74" x2="4024.69" y2="1666.74" style="stroke:#F0F0F0;stroke-width:9.72"/>
	<line x1="4057.09" y1="1666.74" x2="4121.89" y2="1666.74" style="stroke:#F0F0F0;stroke-width:9.72"/>
	<line x1="4154.29" y1="1666.74" x2="4219.09" y2="1666.74" style="stroke:#F0F0F0;stroke-width:9.72"/>
	<line x1="4251.49" y1="1666.74" x2="4316.29" y2="1666.74" style="stroke:#F0F0F0;stroke-width:9.72"/>
	<line x1="4348.69" y1="1666.74" x2="4413.49" y2="1666.74" style="stroke:#F0F0F0;stroke-width:9.72"/>
	<line x1="4445.89" y1="1666.74" x2="4510.69" y2="1666.74" style="stroke:#F0F0F0;stroke-width:9.72"/>
	<line x1="4543.09" y1="1666.74" x2="4607.89" y2="1666.74" style="stroke:#F0F0F0;stroke-width:9.72"/>
	<line x1="4640.29" y1="1666.74" x2="4705.09" y2="1666.74" style="stroke:#F0F0F0;stroke-width:9.72"/>
	<line x1="4737.49" y1="1666.74" x2="4802.29" y2="1666.74" style="stroke:#F0F0F0;stroke-width:9.72"/>
	<line x1="4834.69" y1="1666.74" x2="4899.49" y2="1666.74" style="stroke:#F0F0F0;stroke-width:9.72"/>
	<line x1="4931.89" y1="1666.74" x2="4996.69" y2="1666.74" style="stroke:#F0F0F0;stroke-width:9.72"/>
	<line x1="5029.09" y1="1666.74" x2="5093.89" y2="1666.74" style="stroke:#F0F0F0;stroke-width:9.72"/>
	<line x1="5126.29" y1="1666.74" x2="5191.09" y2="1666.74" style="stroke:#F0F0F0;stroke-width:9.72"/>
	<line x1="5223.49" y1="1666.74" x2="5286.60" y2="1666.74" style="stroke:#F0F0F0;stroke-width:9.72"/>
	<line x1="557.89" y1="925.76" x2="622.69" y2="925.76" style="stroke:#F0F0F0;stroke-width:9.72"/>
	<line x1="655.09" y1="925.76" x2="719.89" y2="925.76" style="stroke:#F0F0F0;stroke-width:9.72"/>
	<line x1="752.29" y1="925.76" x2="817.09" y2="925.76" style="stroke:#F0F0F0;stroke-width:9.72"/>
	<line x1="849.49" y1="925.76" x2="914.29" y2="925.76" style="stroke:#F0F0F0;stroke-width:9.72"/>
	<line x1="946.69" y1="925.76" x2="1011.49" y2="925.76" style="stroke:#F0F0F0;stroke-width:9.72"/>
	<line x1="1043.89" y1="925.76" x2="1108.69" y2="925.76" style="stroke:#F0F0F0;stroke-width:9.72"/>
	<line x1="1141.09" y1="925.76" x2="1205.89" y2="925.76" style="stroke:#F0F0F0;stroke-width:9.72"/>
	<line x1="1238.29" y1="925.76" x2="1303.09" y2="925.76" style="stroke:#F0F0F0;stroke-width:9.72"/>
	<line x1="1335.49" y1="925.76" x2="1400.29" y2="925.76" style="stroke:#F0F0F0;stroke-width:9.72"/>
	<line x1="1432.69" y1="925.76" x2="1497.49" y2="925.76" style="stroke:#F0F0F0;stroke-width:9.72"/>
	<line x1="1529.89" y1="925.76" x2="1594.69" y2="925.76" style="stroke:#F0F0F0;stroke-width:9.72"/>
	<line x1="1627.09" y1="925.76" x2="1691.89" y2="925.76" style="stroke:#F0F0F0;stroke-width:9.72"/>
	<line x1="1724.29" y1="925.76" x2="1789.09" y2="925.76" style="stroke:#F0F0F0;stroke-width:9.72"/>
	<line x1="1821.49" y1="925.76" x2="1886.29" y2="925.76" style="stroke:#F0F0F0;stroke-width:9.72"/>
	<line x1="1918.69" y1="925.76" x2="1983.49" y2="925.76" style="stroke:#F0F0F0;stroke-width:9.72"/>
	<line x1="2015.89" y1="925.76" x2="2080.69" y2="925.76" style="stroke:#F0F0F0;stroke-width:9.72"/>
	<line x1="2113.09" y1="925.76" x2="2177.89" y2="925.76" style="stroke:#F0F0F0;stroke-width:9.72"/>
	<line x1="2210.29" y1="925.76" x2="2275.09" y2="925.76" style="stroke:#F0F0F0;stroke-width:9.72"/>
	<line x1="2307.49" y1="925.76" x2="2372.29" y2="925.76" style="stroke:#F0F0F0;stroke-width:9.72"/>
	<line x1="2404.69" y1="925.76" x2="2469.49" y2="925.76" style="stroke:#F0F0F0;stroke-width:9.72"/>
	<line x1="2501.89" y1="925.76" x2="2566.69" y2="925.76" style="stroke:#F0F0F0;stroke-width:9.72"/>
	<line x1="2599.09" y1="925.76" x2="2663.89" y2="925.76" style="stroke:#F0F0F0;stroke-width:9.72"/>
	<line x1="2696.29" y1="925.76" x2="2761.09" y2="925.76" style="stroke:#F0F0F0;stroke-width:9.72"/>
	<line x1="2793.49" y1="925.76" x2="2858.29" y2="925.76" style="stroke:#F0F0F0;stroke-width:9.72"/>
	<line x1="2890.69" y1="925.76" x2="2955.49" y2="925.76" style="stroke:#F0F0F0;stroke-width:9.72"/>
	<line x1="2987.89" y1="925.76" x2="3052.69" y2="925.76" style="stroke:#F0F0F0;stroke-width:9.72"/>
	<line x1="3085.09" y1="925.76" x2="3149.89" y2="925.76" style="stroke:#F0F0F0;stroke-width:9.72"/>
	<line x1="3182.29" y1="925.76" x2="3247.09" y2="925.76" style="stroke:#F0F0F0;stroke-width:9.72"/>
	<line x1="3279.49" y1="925.76" x2="3344.29" y2="925.76" style="stroke:#F0F0F0;stroke-width:9.72"/>
	<line x1="3376.69" y1="925.76" x2="3441.49" y2="925.76" style="stroke:#F0F0F0;stroke-width:9.72"/>
	<line x1="3473.89" y1="925.76" x2="3538.69" y2="925.76" style="stroke:#F0F0F0;stroke-width:9.72"/>
	<line x1="3571.09" y1="925.76" x2="3635.89" y2="925.76" style="stroke:#F0F0F0;stroke-width:9.72"/>
	<line x1="3668.29" y1="925.76" x2="3733.09" y2="925.76" style="stroke:#F0F0F0;stroke-width:9.72"/>
	<line x1="3765.49" y1="925.76" x2="3830.29" y2="925.76" style="stroke:#F0F0F0;stroke-width:9.72"/>
	<line x1="3862.69" y1="925.76" x2="3927.49" y2="925.76" style="stroke:#F0F0F0;stroke-width:9.72"/>
	<line x1="3959.89" y1="925.76" x2="4024.69" y2="925.76" style="stroke:#F0F0F0;stroke-width:9.72"/>
	<line x1="4057.09" y1="925.76" x2="4121.89" y2="925.76" style="stroke:#F0F0F0;stroke-width:9.72"/>
	<line x1="4154.29" y1="925.76" x2="4219.09" y2="925.76" style="stroke:#F0F0F0;stroke-width:9.72"/>
	<line x1="4251.49" y1="925.76" x2="4316.29" y2="925.76" style="stroke:#F0F0F0;stroke-width:9.72"/>
	<line x1="4348.69" y1="925.76" x2="4413.49" y2="925.76" style="stroke:#F0F0F0;stroke-width:9.72"/>
	<line x1="4445.89" y1="925.76" x2="4510.69" y2="925.76" style="stroke:#F0F0F0;stroke-width:9.72"/>
	<line x1="4543.09" y1="925.76" x2="4607.89" y2="925.76" style="stroke:#F0F0F0;stroke-width:9.72"/>
	<line x1="4640.29" y1="925.76" x2="4705.09" y2="925.76" style="stroke:#F0F0F0;stroke-width:9.72"/>
	<line x1="4737.49" y1="925.76" x2="4802.29" y2="925.76" style="stroke:#F0F0F0;stroke-width:9.72"/>
	<line x1="4834.69" y1="925.76" x2="4899.49" y2="925.76" style="stroke:#F0F0F0;stroke-width:9.72"/>
	<line x1="4931.89" y1="925.76" x2="4996.69" y2="925.76" style="stroke:#F0F0F0;stroke-width:9.72"/>
	<line x1="5029.09" y1="925.76" x2="5093.89" y2="925.76" style="stroke:#F0F0F0;stroke-width:9.72"/>
	<line x1="5126.29" y1="925.76" x2="5191.09" y2="925.76" style="stroke:#F0F0F0;stroke-width:9.72"/>
	<line x1="5223.49" y1="925.76" x2="5286.60" y2="925.76" style="stroke:#F0F0F0;stroke-width:9.72"/>
	<line x1="557.89" y1="184.61" x2="622.69" y2="184.61" style="stroke:#F0F0F0;stroke-width:9.72"/>
	<line x1="655.09" y1="184.61" x2="719.89" y2="184.61" style="stroke:#F0F0F0;stroke-width:9.72"/>
	<line x1="752.29" y1="184.61" x2="817.09" y2="184.61" style="stroke:#F0F0F0;stroke-width:9.72"/>
	<line x1="849.49" y1="184.61" x2="914.29" y2="184.61" style="stroke:#F0F0F0;stroke-width:9.72"/>
	<line x1="946.69" y1="184.61" x2="1011.49" y2="184.61" style="stroke:#F0F0F0;stroke-width:9.72"/>
	<line x1="1043.89" y1="184.61" x2="1108.69" y2="184.61" style="stroke:#F0F0F0;stroke-width:9.72"/>
	<line x1="1141.09" y1="184.61" x2="1205.89" y2="184.61" style="stroke:#F0F0F0;stroke-width:9.72"/>
	<line x1="1238.29" y1="184.61" x2="1303.09" y2="184.61" style="stroke:#F0F0F0;stroke-width:9.72"/>
	<line x1="1335.49" y1="184.61" x2="1400.29" y2="184.61" style="stroke:#F0F0F0;stroke-width:9.72"/>
	<line x1="1432.69" y1="184.61" x2="1497.49" y2="184.61" style="stroke:#F0F0F0;stroke-width:9.72"/>
	<line x1="1529.89" y1="184.61" x2="1594.69" y2="184.61" style="stroke:#F0F0F0;stroke-width:9.72"/>
	<line x1="1627.09" y1="184.61" x2="1691.89" y2="184.61" style="stroke:#F0F0F0;stroke-width:9.72"/>
	<line x1="1724.29" y1="184.61" x2="1789.09" y2="184.61" style="stroke:#F0F0F0;stroke-width:9.72"/>
	<line x1="1821.49" y1="184.61" x2="1886.29" y2="184.61" style="stroke:#F0F0F0;stroke-width:9.72"/>
	<line x1="1918.69" y1="184.61" x2="1983.49" y2="184.61" style="stroke:#F0F0F0;stroke-width:9.72"/>
	<line x1="2015.89" y1="184.61" x2="2080.69" y2="184.61" style="stroke:#F0F0F0;stroke-width:9.72"/>
	<line x1="2113.09" y1="184.61" x2="2177.89" y2="184.61" style="stroke:#F0F0F0;stroke-width:9.72"/>
	<line x1="2210.29" y1="184.61" x2="2275.09" y2="184.61" style="stroke:#F0F0F0;stroke-width:9.72"/>
	<line x1="2307.49" y1="184.61" x2="2372.29" y2="184.61" style="stroke:#F0F0F0;stroke-width:9.72"/>
	<line x1="2404.69" y1="184.61" x2="2469.49" y2="184.61" style="stroke:#F0F0F0;stroke-width:9.72"/>
	<line x1="2501.89" y1="184.61" x2="2566.69" y2="184.61" style="stroke:#F0F0F0;stroke-width:9.72"/>
	<line x1="2599.09" y1="184.61" x2="2663.89" y2="184.61" style="stroke:#F0F0F0;stroke-width:9.72"/>
	<line x1="2696.29" y1="184.61" x2="2761.09" y2="184.61" style="stroke:#F0F0F0;stroke-width:9.72"/>
	<line x1="2793.49" y1="184.61" x2="2858.29" y2="184.61" style="stroke:#F0F0F0;stroke-width:9.72"/>
	<line x1="2890.69" y1="184.61" x2="2955.49" y2="184.61" style="stroke:#F0F0F0;stroke-width:9.72"/>
	<line x1="2987.89" y1="184.61" x2="3052.69" y2="184.61" style="stroke:#F0F0F0;stroke-width:9.72"/>
	<line x1="3085.09" y1="184.61" x2="3149.89" y2="184.61" style="stroke:#F0F0F0;stroke-width:9.72"/>
	<line x1="3182.29" y1="184.61" x2="3247.09" y2="184.61" style="stroke:#F0F0F0;stroke-width:9.72"/>
	<line x1="3279.49" y1="184.61" x2="3344.29" y2="184.61" style="stroke:#F0F0F0;stroke-width:9.72"/>
	<line x1="3376.69" y1="184.61" x2="3441.49" y2="184.61" style="stroke:#F0F0F0;stroke-width:9.72"/>
	<line x1="3473.89" y1="184.61" x2="3538.69" y2="184.61" style="stroke:#F0F0F0;stroke-width:9.72"/>
	<line x1="3571.09" y1="184.61" x2="3635.89" y2="184.61" style="stroke:#F0F0F0;stroke-width:9.72"/>
	<line x1="3668.29" y1="184.61" x2="3733.09" y2="184.61" style="stroke:#F0F0F0;stroke-width:9.72"/>
	<line x1="3765.49" y1="184.61" x2="3830.29" y2="184.61" style="stroke:#F0F0F0;stroke-width:9.72"/>
	<line x1="3862.69" y1="184.61" x2="3927.49" y2="184.61" style="stroke:#F0F0F0;stroke-width:9.72"/>
	<line x1="3959.89" y1="184.61" x2="4024.69" y2="184.61" style="stroke:#F0F0F0;stroke-width:9.72"/>
	<line x1="4057.09" y1="184.61" x2="4121.89" y2="184.61" style="stroke:#F0F0F0;stroke-width:9.72"/>
	<line x1="4154.29" y1="184.61" x2="4219.09" y2="184.61" style="stroke:#F0F0F0;stroke-width:9.72"/>
	<line x1="4251.49" y1="184.61" x2="4316.29" y2="184.61" style="stroke:#F0F0F0;stroke-width:9.72"/>
	<line x1="4348.69" y1="184.61" x2="4413.49" y2="184.61" style="stroke:#F0F0F0;stroke-width:9.72"/>
	<line x1="4445.89" y1="184.61" x2="4510.69" y2="184.61" style="stroke:#F0F0F0;stroke-width:9.72"/>
	<line x1="4543.09" y1="184.61" x2="4607.89" y2="184.61" style="stroke:#F0F0F0;stroke-width:9.72"/>
	<line x1="4640.29" y1="184.61" x2="4705.09" y2="184.61" style="stroke:#F0F0F0;stroke-width:9.72"/>
	<line x1="4737.49" y1="184.61" x2="4802.29" y2="184.61" style="stroke:#F0F0F0;stroke-width:9.72"/>
	<line x1="4834.69" y1="184.61" x2="4899.49" y2="184.61" style="stroke:#F0F0F0;stroke-width:9.72"/>
	<line x1="4931.89" y1="184.61" x2="4996.69" y2="184.61" style="stroke:#F0F0F0;stroke-width:9.72"/>
	<line x1="5029.09" y1="184.61" x2="5093.89" y2="184.61" style="stroke:#F0F0F0;stroke-width:9.72"/>
	<line x1="5126.29" y1="184.61" x2="5191.09" y2="184.61" style="stroke:#F0F0F0;stroke-width:9.72"/>
	<line x1="5223.49" y1="184.61" x2="5286.60" y2="184.61" style="stroke:#F0F0F0;stroke-width:9.72"/>
	<line x1="637.37" y1="2479.11" x2="637.37" y2="2414.31" style="stroke:#F0F0F0;stroke-width:9.72"/>
	<line x1="637.37" y1="2381.91" x2="637.37" y2="2317.11" style="stroke:#F0F0F0;stroke-width:9.72"/>
	<line x1="637.37" y1="2284.71" x2="637.37" y2="2219.91" style="stroke:#F0F0F0;stroke-width:9.72"/>
	<line x1="637.37" y1="2187.51" x2="637.37" y2="2122.71" style="stroke:#F0F0F0;stroke-width:9.72"/>
	<line x1="637.37" y1="2090.31" x2="637.37" y2="2025.51" style="stroke:#F0F0F0;stroke-width:9.72"/>
	<line x1="637.37" y1="1993.11" x2="637.37" y2="1928.31" style="stroke:#F0F0F0;stroke-width:9.72"/>
	<line x1="637.37" y1="1895.91" x2="637.37" y2="1831.11" style="stroke:#F0F0F0;stroke-width:9.72"/>
	<line x1="637.37" y1="1798.71" x2="637.37" y2="1733.91" style="stroke:#F0F0F0;stroke-width:9.72"/>
	<line x1="637.37" y1="1701.51" x2="637.37" y2="1636.71" style="stroke:#F0F0F0;stroke-width:9.72"/>
	<line x1="637.37" y1="1604.31" x2="637.37" y2="1539.51" style="stroke:#F0F0F0;stroke-width:9.72"/>
	<line x1="637.37" y1="1507.11" x2="637.37" y2="1442.31" style="stroke:#F0F0F0;stroke-width:9.72"/>
	<line x1="637.37" y1="1409.91" x2="637.37" y2="1345.11" style="stroke:#F0F0F0;stroke-width:9.72"/>
	<line x1="637.37" y1="1312.71" x2="637.37" y2="1247.91" style="stroke:#F0F0F0;stroke-width:9.72"/>
	<line x1="637.37" y1="1215.51" x2="637.37" y2="1150.71" style="stroke:#F0F0F0;stroke-width:9.72"/>
	<line x1="637.37" y1="1118.31" x2="637.37" y2="1053.51" style="stroke:#F0F0F0;stroke-width:9.72"/>
	<line x1="637.37" y1="1021.11" x2="637.37" y2="956.31" style="stroke:#F0F0F0;stroke-width:9.72"/>
	<line x1="637.37" y1="923.91" x2="637.37" y2="859.11" style="stroke:#F0F0F0;stroke-width:9.72"/>
	<line x1="637.37" y1="826.71" x2="637.37" y2="761.91" style="stroke:#F0F0F0;stroke-width:9.72"/>
	<line x1="637.37" y1="729.51" x2="637.37" y2="664.71" style="stroke:#F0F0F0;stroke-width:9.72"/>
	<line x1="637.37" y1="632.31" x2="637.37" y2="567.51" style="stroke:#F0F0F0;stroke-width:9.72"/>
	<line x1="637.37" y1="535.11" x2="637.37" y2="470.31" style="stroke:#F0F0F0;stroke-width:9.72"/>
	<line x1="637.37" y1="437.91" x2="637.37" y2="373.11" style="stroke:#F0F0F0;stroke-width:9.72"/>
	<line x1="637.37" y1="340.71" x2="637.37" y2="275.91" style="stroke:#F0F0F0;stroke-width:9.72"/>
	<line x1="637.37" y1="243.51" x2="637.37" y2="178.71" style="stroke:#F0F0F0;stroke-width:9.72"/>
	<line x1="637.37" y1="146.31" x2="637.37" y2="113.40" style="stroke:#F0F0F0;stroke-width:9.72"/>
	<line x1="1781.83" y1="2479.11" x2="1781.83" y2="2414.31" style="stroke:#F0F0F0;stroke-width:9.72"/>
	<line x1="1781.83" y1="2381.91" x2="1781.83" y2="2317.11" style="stroke:#F0F0F0;stroke-width:9.72"/>
	<line x1="1781.83" y1="2284.71" x2="1781.83" y2="2219.91" style="stroke:#F0F0F0;stroke-width:9.72"/>
	<line x1="1781.83" y1="2187.51" x2="1781.83" y2="2122.71" style="stroke:#F0F0F0;stroke-width:9.72"/>
	<line x1="1781.83" y1="2090.31" x2="1781.83" y2="2025.51" style="stroke:#F0F0F0;stroke-width:9.72"/>
	<line x1="1781.83" y1="1993.11" x2="1781.83" y2="1928.31" style="stroke:#F0F0F0;stroke-width:9.72"/>
	<line x1="1781.83" y1="1895.91" x2="1781.83" y2="1831.11" style="stroke:#F0F0F0;stroke-width:9.72"/>
	<line x1="1781.83" y1="1798.71" x2="1781.83" y2="1733.91" style="stroke:#F0F0F0;stroke-width:9.72"/>
	<line x1="1781.83" y1="1701.51" x2="1781.83" y2="1636.71" style="stroke:#F0F0F0;stroke-width:9.72"/>
	<line x1="1781.83" y1="1604.31" x2="1781.83" y2="1539.51" style="stroke:#F0F0F0;stroke-width:9.72"/>
	<line x1="1781.83" y1="1507.11" x2="1781.83" y2="1442.31" style="stroke:#F0F0F0;stroke-width:9.72"/>
	<line x1="1781.83" y1="1409.91" x2="1781.83" y2="1345.11" style="stroke:#F0F0F0;stroke-width:9.72"/>
	<line x1="1781.83" y1="1312.71" x2="1781.83" y2="1247.91" style="stroke:#F0F0F0;stroke-width:9.72"/>
	<line x1="1781.83" y1="1215.51" x2="1781.83" y2="1150.71" style="stroke:#F0F0F0;stroke-width:9.72"/>
	<line x1="1781.83" y1="1118.31" x2="1781.83" y2="1053.51" style="stroke:#F0F0F0;stroke-width:9.72"/>
	<line x1="1781.83" y1="1021.11" x2="1781.83" y2="956.31" style="stroke:#F0F0F0;stroke-width:9.72"/>
	<line x1="1781.83" y1="923.91" x2="1781.83" y2="859.11" style="stroke:#F0F0F0;stroke-width:9.72"/>
	<line x1="1781.83" y1="826.71" x2="1781.83" y2="761.91" style="stroke:#F0F0F0;stroke-width:9.72"/>
	<line x1="1781.83" y1="729.51" x2="1781.83" y2="664.71" style="stroke:#F0F0F0;stroke-width:9.72"/>
	<line x1="1781.83" y1="632.31" x2="1781.83" y2="567.51" style="stroke:#F0F0F0;stroke-width:9.72"/>
	<line x1="1781.83" y1="535.11" x2="1781.83" y2="470.31" style="stroke:#F0F0F0;stroke-width:9.72"/>
	<line x1="1781.83" y1="437.91" x2="1781.83" y2="373.11" style="stroke:#F0F0F0;stroke-width:9.72"/>
	<line x1="1781.83" y1="340.71" x2="1781.83" y2="275.91" style="stroke:#F0F0F0;stroke-width:9.72"/>
	<line x1="1781.83" y1="243.51" x2="1781.83" y2="178.71" style="stroke:#F0F0F0;stroke-width:9.72"/>
	<line x1="1781.83" y1="146.31" x2="1781.83" y2="113.40" style="stroke:#F0F0F0;stroke-width:9.72"/>
	<line x1="2926.29" y1="2479.11" x2="2926.29" y2="2414.31" style="stroke:#F0F0F0;stroke-width:9.72"/>
	<line x1="2926.29" y1="2381.91" x2="2926.29" y2="2317.11" style="stroke:#F0F0F0;stroke-width:9.72"/>
	<line x1="2926.29" y1="2284.71" x2="2926.29" y2="2219.91" style="stroke:#F0F0F0;stroke-width:9.72"/>
	<line x1="2926.29" y1="2187.51" x2="2926.29" y2="2122.71" style="stroke:#F0F0F0;stroke-width:9.72"/>
	<line x1="2926.29" y1="2090.31" x2="2926.29" y2="2025.51" style="stroke:#F0F0F0;stroke-width:9.72"/>
	<line x1="2926.29" y1="1993.11" x2="2926.29" y2="1928.31" style="stroke:#F0F0F0;stroke-width:9.72"/>
	<line x1="2926.29" y1="1895.91" x2="2926.29" y2="1831.11" style="stroke:#F0F0F0;stroke-width:9.72"/>
	<line x1="2926.29" y1="1798.71" x2="2926.29" y2="1733.91" style="stroke:#F0F0F0;stroke-width:9.72"/>
	<line x1="2926.29" y1="1701.51" x2="2926.29" y2="1636.71" style="stroke:#F0F0F0;stroke-width:9.72"/>
	<line x1="2926.29" y1="1604.31" x2="2926.29" y2="1539.51" style="stroke:#F0F0F0;stroke-width:9.72"/>
	<line x1="2926.29" y1="1507.11" x2="2926.29" y2="1442.31" style="stroke:#F0F0F0;stroke-width:9.72"/>
	<line x1="2926.29" y1="1409.91" x2="2926.29" y2="1345.11" style="stroke:#F0F0F0;stroke-width:9.72"/>
	<line x1="2926.29" y1="1312.71" x2="2926.29" y2="1247.91" style="stroke:#F0F0F0;stroke-width:9.72"/>
	<line x1="2926.29" y1="1215.51" x2="2926.29" y2="1150.71" style="stroke:#F0F0F0;stroke-width:9.72"/>
	<line x1="2926.29" y1="1118.31" x2="2926.29" y2="1053.51" style="stroke:#F0F0F0;stroke-width:9.72"/>
	<line x1="2926.29" y1="1021.11" x2="2926.29" y2="956.31" style="stroke:#F0F0F0;stroke-width:9.72"/>
	<line x1="2926.29" y1="923.91" x2="2926.29" y2="859.11" style="stroke:#F0F0F0;stroke-width:9.72"/>
	<line x1="2926.29" y1="826.71" x2="2926.29" y2="761.91" style="stroke:#F0F0F0;stroke-width:9.72"/>
	<line x1="2926.29" y1="729.51" x2="2926.29" y2="664.71" style="stroke:#F0F0F0;stroke-width:9.72"/>
	<line x1="2926.29" y1="632.31" x2="2926.29" y2="567.51" style="stroke:#F0F0F0;stroke-width:9.72"/>
	<line x1="2926.29" y1="535.11" x2="2926.29" y2="470.31" style="stroke:#F0F0F0;stroke-width:9.72"/>
	<line x1="2926.29" y1="437.91" x2="2926.29" y2="373.11" style="stroke:#F0F0F0;stroke-width:9.72"/>
	<line x1="2926.29" y1="340.71" x2="2926.29" y2="275.91" style="stroke:#F0F0F0;stroke-width:9.72"/>
	<line x1="2926.29" y1="243.51" x2="2926.29" y2="178.71" style="stroke:#F0F0F0;stroke-width:9.72"/>
	<line x1="2926.29" y1="146.31" x2="2926.29" y2="113.40" style="stroke:#F0F0F0;stroke-width:9.72"/>
	<line x1="4070.93" y1="2479.11" x2="4070.93" y2="2414.31" style="stroke:#F0F0F0;stroke-width:9.72"/>
	<line x1="4070.93" y1="2381.91" x2="4070.93" y2="2317.11" style="stroke:#F0F0F0;stroke-width:9.72"/>
	<line x1="4070.93" y1="2284.71" x2="4070.93" y2="2219.91" style="stroke:#F0F0F0;stroke-width:9.72"/>
	<line x1="4070.93" y1="2187.51" x2="4070.93" y2="2122.71" style="stroke:#F0F0F0;stroke-width:9.72"/>
	<line x1="4070.93" y1="2090.31" x2="4070.93" y2="2025.51" style="stroke:#F0F0F0;stroke-width:9.72"/>
	<line x1="4070.93" y1="1993.11" x2="4070.93" y2="1928.31" style="stroke:#F0F0F0;stroke-width:9.72"/>
	<line x1="4070.93" y1="1895.91" x2="4070.93" y2="1831.11" style="stroke:#F0F0F0;stroke-width:9.72"/>
	<line x1="4070.93" y1="1798.71" x2="4070.93" y2="1733.91" style="stroke:#F0F0F0;stroke-width:9.72"/>
	<line x1="4070.93" y1="1701.51" x2="4070.93" y2="1636.71" style="stroke:#F0F0F0;stroke-width:9.72"/>
	<line x1="4070.93" y1="1604.31" x2="4070.93" y2="1539.51" style="stroke:#F0F0F0;stroke-width:9.72"/>
	<line x1="4070.93" y1="1507.11" x2="4070.93" y2="1442.31" style="stroke:#F0F0F0;stroke-width:9.72"/>
	<line x1="4070.93" y1="1409.91" x2="4070.93" y2="1345.11" style="stroke:#F0F0F0;stroke-width:9.72"/>
	<line x1="4070.93" y1="1312.71" x2="4070.93" y2="1247.91" style="stroke:#F0F0F0;stroke-width:9.72"/>
	<line x1="4070.93" y1="1215.51" x2="4070.93" y2="1150.71" style="stroke:#F0F0F0;stroke-width:9.72"/>
	<line x1="4070.93" y1="1118.31" x2="4070.93" y2="1053.51" style="stroke:#F0F0F0;stroke-width:9.72"/>
	<line x1="4070.93" y1="1021.11" x2="4070.93" y2="956.31" style="stroke:#F0F0F0;stroke-width:9.72"/>
	<line x1="4070.93" y1="923.91" x2="4070.93" y2="859.11" style="stroke:#F0F0F0;stroke-width:9.72"/>
	<line x1="4070.93" y1="826.71" x2="4070.93" y2="761.91" style="stroke:#F0F0F0;stroke-width:9.72"/>
	<line x1="4070.93" y1="729.51" x2="4070.93" y2="664.71" style="stroke:#F0F0F0;stroke-width:9.72"/>
	<line x1="4070.93" y1="632.31" x2="4070.93" y2="567.51" style="stroke:#F0F0F0;stroke-width:9.72"/>
	<line x1="4070.93" y1="535.11" x2="4070.93" y2="470.31" style="stroke:#F0F0F0;stroke-width:9.72"/>
	<line x1="4070.93" y1="437.91" x2="4070.93" y2="373.11" style="stroke:#F0F0F0;stroke-width:9.72"/>
	<line x1="4070.93" y1="340.71" x2="4070.93" y2="275.91" style="stroke:#F0F0F0;stroke-width:9.72"/>
	<line x1="4070.93" y1="243.51" x2="4070.93" y2="178.71" style="stroke:#F0F0F0;stroke-width:9.72"/>
	<line x1="4070.93" y1="146.31" x2="4070.93" y2="113.40" style="stroke:#F0F0F0;stroke-width:9.72"/>
	<line x1="5215.39" y1="2479.11" x2="5215.39" y2="2414.31" style="stroke:#F0F0F0;stroke-width:9.72"/>
	<line x1="5215.39" y1="2381.91" x2="5215.39" y2="2317.11" style="stroke:#F0F0F0;stroke-width:9.72"/>
	<line x1="5215.39" y1="2284.71" x2="5215.39" y2="2219.91" style="stroke:#F0F0F0;stroke-width:9.72"/>
	<line x1="5215.39" y1="2187.51" x2="5215.39" y2="2122.71" style="stroke:#F0F0F0;stroke-width:9.72"/>
	<line x1="5215.39" y1="2090.31" x2="5215.39" y2="2025.51" style="stroke:#F0F0F0;stroke-width:9.72"/>
	<line x1="5215.39" y1="1993.11" x2="5215.39" y2="1928.31" style="stroke:#F0F0F0;stroke-width:9.72"/>
	<line x1="5215.39" y1="1895.91" x2="5215.39" y2="1831.11" style="stroke:#F0F0F0;stroke-width:9.72"/>
	<line x1="5215.39" y1="1798.71" x2="5215.39" y2="1733.91" style="stroke:#F0F0F0;stroke-width:9.72"/>
	<line x1="5215.39" y1="1701.51" x2="5215.39" y2="1636.71" style="stroke:#F0F0F0;stroke-width:9.72"/>
	<line x1="5215.39" y1="1604.31" x2="5215.39" y2="1539.51" style="stroke:#F0F0F0;stroke-width:9.72"/>
	<line x1="5215.39" y1="1507.11" x2="5215.39" y2="1442.31" style="stroke:#F0F0F0;stroke-width:9.72"/>
	<line x1="5215.39" y1="1409.91" x2="5215.39" y2="1345.11" style="stroke:#F0F0F0;stroke-width:9.72"/>
	<line x1="5215.39" y1="1312.71" x2="5215.39" y2="1247.91" style="stroke:#F0F0F0;stroke-width:9.72"/>
	<line x1="5215.39" y1="1215.51" x2="5215.39" y2="1150.71" style="stroke:#F0F0F0;stroke-width:9.72"/>
	<line x1="5215.39" y1="1118.31" x2="5215.39" y2="1053.51" style="stroke:#F0F0F0;stroke-width:9.72"/>
	<line x1="5215.39" y1="1021.11" x2="5215.39" y2="956.31" style="stroke:#F0F0F0;stroke-width:9.72"/>
	<line x1="5215.39" y1="923.91" x2="5215.39" y2="859.11" style="stroke:#F0F0F0;stroke-width:9.72"/>
	<line x1="5215.39" y1="826.71" x2="5215.39" y2="761.91" style="stroke:#F0F0F0;stroke-width:9.72"/>
	<line x1="5215.39" y1="729.51" x2="5215.39" y2="664.71" style="stroke:#F0F0F0;stroke-width:9.72"/>
	<line x1="5215.39" y1="632.31" x2="5215.39" y2="567.51" style="stroke:#F0F0F0;stroke-width:9.72"/>
	<line x1="5215.39" y1="535.11" x2="5215.39" y2="470.31" style="stroke:#F0F0F0;stroke-width:9.72"/>
	<line x1="5215.39" y1="437.91" x2="5215.39" y2="373.11" style="stroke:#F0F0F0;stroke-width:9.72"/>
	<line x1="5215.39" y1="340.71" x2="5215.39" y2="275.91" style="stroke:#F0F0F0;stroke-width:9.72"/>
	<line x1="5215.39" y1="243.51" x2="5215.39" y2="178.71" style="stroke:#F0F0F0;stroke-width:9.72"/>
	<line x1="5215.39" y1="146.31" x2="5215.39" y2="113.40" style="stroke:#F0F0F0;stroke-width:9.72"/>
	<path d=" M915.13 2406.21 L921.38 2405.03 L927.62 2403.00 L933.69 2399.96 L939.94 2395.41 L946.01 2388.99 L952.26 2380.39 L958.50 2369.59 L964.58 2356.26 L970.82 2340.90 L977.06 2324.19 L983.14 2307.32 L989.38 2291.29 L995.63 2277.79 L1001.70 2268.17 L1007.94 2263.28 L1014.19 2263.78 L1020.26 2269.52 L1026.51 2279.81 L1032.75 2293.82 L1038.83 2310.02 L1045.07 2327.06 L1051.31 2343.60 L1057.39 2358.62 L1063.63 2371.44 L1069.88 2382.07 L1075.95 2390.18 L1082.19 2396.25 L1088.27 2400.47 L1094.51 2403.34 L1100.76 2405.19 L1106.83 2406.38 L1113.08 2407.05 L1119.32 2407.56 L1125.39 2407.73 L1131.64 2407.89 L1137.88 2407.89 L1143.96 2407.89 L1150.20 2407.89 L1156.44 2407.89 L1162.52 2407.89 L1168.76 2407.89 L1175.01 2407.89 L1181.08 2407.89 L1187.33 2407.89 L1193.57 2407.89 L1199.64 2407.89 L1205.89 2407.89 L1212.13 2407.89 L1218.21 2407.89 L1224.45 2407.89 L1230.53 2407.89 L1236.77 2407.89 L1243.01 2407.89 L1249.09 2407.89 L1255.33 2407.89 L1261.58 2407.89 L1267.65 2407.89 L1273.89 2407.89 L1280.14 2407.89 L1286.21 2407.89 L1292.46 2407.89 L1298.70 2407.89 L1304.78 2407.89 L1311.02 2407.89 L1317.26 2407.89 L1323.34 2407.89 L1329.58 2407.89 L1335.83 2407.89 L1341.90 2407.89 L1348.14 2407.89 L1354.39 2407.89 L1360.46 2407.89 L1366.71 2407.89 L1372.78 2407.89 L1379.03 2407.89 L1385.27 2407.89 L1391.34 2407.89 L1397.59 2407.89 L1403.83 2407.89 L1409.91 2407.89 L1416.15 2407.89 L1422.39 2407.89 L1428.47 2407.89 L1434.71 2407.89 L1440.96 2407.89 L1447.03 2407.89 L1453.28 2407.89 L1459.52 2407.89 L1465.59 2407.89 L1471.84 2407.89 L1478.08 2407.89 L1484.16 2407.89 L1490.40 2407.89 L1496.64 2407.89 L1502.72 2407.89 L1508.96 2407.89 L1515.21 2407.89 L1521.28 2407.89 L1527.53 2407.89 L1533.60 2407.89 L1539.84 2407.89 L1546.09 2407.89 L1552.16 2407.89 L1558.41 2407.89 L1564.65 2407.89 L1570.73 2407.89 L1576.97 2407.89 L1583.21 2407.89 L1589.29 2407.89 L1595.53 2407.89 L1601.78 2407.89 L1607.85 2407.89 L1614.09 2407.89 L1620.34 2407.89 L1626.41 2407.89 L1632.66 2407.89 L1638.90 2407.89 L1644.98 2407.89 L1651.22 2407.89 L1657.46 2407.89 L1663.54 2407.89 L1669.78 2407.89 L1675.86 2407.89 L1682.10 2407.89 L1688.34 2407.73 L1694.42 2407.39 L1700.66 2407.05 L1706.91 2406.21 L1712.98 2405.03 L1719.23 2403.00 L1725.47 2399.96 L1731.54 2395.41 L1737.79 2388.99 L1744.03 2380.56 L1750.11 2369.59 L1756.35 2356.26 L1762.59 2340.90 L1768.67 2324.36 L1774.91 2307.32 L1781.16 2291.46 L1787.23 2277.96 L1793.48 2268.17 L1799.72 2263.28 L1805.79 2263.78 L1812.04 2269.52 L1818.11 2279.81 L1824.36 2293.82 L1830.60 2310.02 L1836.68 2327.06 L1842.92 2343.60 L1849.16 2358.62 L1855.24 2371.44 L1861.48 2382.07 L1867.73 2390.18 L1873.80 2396.25 L1880.04 2400.47 L1886.29 2403.34 L1892.36 2405.19 L1898.61 2406.38 L1904.85 2407.05 L1910.93 2407.56 L1917.17 2407.73 L1923.41 2407.89 L1929.49 2407.89 L1935.73 2407.89 L1941.98 2407.89 L1948.05 2407.89 L1954.29 2407.89 L1960.37 2407.89 L1966.61 2407.89 L1972.86 2407.89 L1978.93 2407.89 L1985.18 2407.89 L1991.42 2407.89 L1997.49 2407.73 L2003.74 2407.73 L2009.98 2407.39 L2016.06 2406.88 L2022.30 2406.04 L2028.54 2404.52 L2034.62 2402.16 L2040.86 2398.78 L2047.11 2393.72 L2053.18 2386.63 L2059.43 2377.35 L2065.67 2365.54 L2071.74 2351.53 L2077.99 2335.50 L2084.23 2318.63 L2090.31 2301.75 L2096.55 2286.23 L2102.63 2273.74 L2108.87 2265.47 L2115.11 2262.43 L2121.19 2264.63 L2127.43 2272.05 L2133.68 2283.86 L2139.75 2298.88 L2145.99 2315.59 L2152.24 2332.63 L2158.31 2348.66 L2164.56 2362.67 L2170.80 2374.31 L2176.88 2383.09 L2183.12 2388.82 L2189.36 2391.69 L2195.44 2391.86 L2201.68 2388.99 L2207.93 2383.09 L2214.00 2374.48 L2220.24 2362.84 L2226.49 2348.83 L2232.56 2332.80 L2238.81 2315.76 L2244.88 2299.05 L2251.13 2284.03 L2257.37 2272.22 L2263.44 2264.63 L2269.69 2262.26 L2275.93 2265.47 L2282.01 2273.57 L2288.25 2286.06 L2294.49 2301.41 L2300.57 2318.29 L2306.81 2335.33 L2313.06 2351.36 L2319.13 2365.37 L2325.38 2377.18 L2331.62 2386.46 L2337.69 2393.55 L2343.94 2398.61 L2350.18 2402.16 L2356.26 2404.52 L2362.50 2406.04 L2368.74 2406.88 L2374.82 2407.39 L2381.06 2407.73 L2387.31 2407.73 L2393.38 2407.89 L2399.63 2407.89 L2405.70 2407.89 L2411.94 2407.89 L2418.19 2407.89 L2424.26 2407.89 L2430.51 2407.89 L2436.75 2407.89 L2442.82 2407.89 L2449.07 2407.89 L2455.31 2407.89 L2461.39 2407.89 L2467.63 2407.73 L2473.88 2407.56 L2479.95 2407.22 L2486.19 2406.54 L2492.44 2405.36 L2498.51 2403.51 L2504.76 2400.81 L2511.00 2396.59 L2517.07 2390.68 L2523.32 2382.58 L2529.56 2372.29 L2535.64 2359.46 L2541.88 2344.44 L2547.96 2328.07 L2554.20 2311.03 L2560.44 2294.66 L2566.52 2280.32 L2572.76 2269.35 L2579.01 2262.60 L2585.08 2260.91 L2591.32 2263.95 L2597.57 2270.87 L2603.64 2280.32 L2609.89 2290.78 L2616.13 2300.06 L2622.21 2306.64 L2628.45 2308.84 L2634.69 2306.14 L2640.77 2298.04 L2647.01 2284.71 L2653.26 2266.48 L2659.33 2243.87 L2665.58 2217.38 L2671.82 2186.66 L2677.89 2151.73 L2684.14 2111.57 L2690.21 2065.50 L2696.46 2013.02 L2702.70 1954.13 L2708.78 1889.83 L2715.02 1822.33 L2721.26 1754.16 L2727.34 1688.85 L2733.58 1629.45 L2739.83 1578.83 L2745.90 1538.83 L2752.14 1510.48 L2758.39 1493.94 L2764.46 1488.04 L2770.71 1491.41 L2776.95 1502.38 L2783.03 1518.92 L2789.27 1539.34 L2795.51 1561.44 L2801.59 1584.39 L2807.83 1606.84 L2814.08 1628.78 L2820.15 1650.38 L2826.39 1672.65 L2832.47 1696.44 L2838.71 1723.28 L2844.96 1753.31 L2851.03 1786.73 L2857.28 1822.16 L2863.52 1857.43 L2869.59 1889.66 L2875.84 1915.99 L2882.08 1933.20 L2888.16 1939.61 L2894.40 1934.21 L2900.64 1918.01 L2906.72 1893.38 L2912.96 1863.84 L2919.21 1833.64 L2925.28 1807.48 L2931.53 1789.26 L2937.77 1782.17 L2943.84 1788.24 L2950.09 1807.65 L2956.33 1839.71 L2962.41 1882.24 L2968.65 1932.36 L2974.73 1986.69 L2980.97 2041.71 L2987.21 2093.34 L2993.29 2138.57 L2999.53 2174.34 L3005.78 2198.31 L3011.85 2208.43 L3018.09 2203.37 L3024.34 2182.44 L3030.41 2145.49 L3036.66 2093.18 L3042.90 2026.35 L3048.98 1947.21 L3055.22 1858.28 L3061.46 1762.43 L3067.54 1663.71 L3073.78 1565.49 L3080.03 1471.33 L3086.10 1383.75 L3092.34 1303.93 L3098.59 1232.38 L3104.66 1167.92 L3110.91 1108.52 L3116.98 1051.99 L3123.23 995.96 L3129.47 939.09 L3135.54 881.04 L3141.79 823.33 L3148.03 768.99 L3154.11 722.08 L3160.35 688.16 L3166.59 672.64 L3172.67 679.89 L3178.91 712.97 L3185.16 772.03 L3191.23 854.21 L3197.48 953.78 L3203.72 1062.62 L3209.79 1171.46 L3216.04 1271.19 L3222.28 1354.22 L3228.36 1415.81 L3234.60 1454.12 L3240.84 1470.99 L3246.92 1470.49 L3253.16 1458.34 L3259.24 1440.62 L3265.48 1422.73 L3271.73 1408.56 L3277.80 1399.61 L3284.04 1396.07 L3290.29 1396.58 L3296.36 1399.28 L3302.61 1402.14 L3308.85 1403.83 L3314.93 1403.83 L3321.17 1402.82 L3327.41 1401.81 L3333.49 1402.65 L3339.73 1407.04 L3345.98 1416.49 L3352.05 1431.84 L3358.29 1453.11 L3364.54 1479.43 L3370.61 1509.30 L3376.86 1540.86 L3383.10 1571.91 L3389.18 1600.76 L3395.42 1626.41 L3401.66 1648.52 L3407.74 1668.09 L3413.98 1686.32 L3420.06 1705.39 L3426.30 1727.33 L3432.54 1753.65 L3438.62 1785.21 L3444.86 1821.49 L3451.11 1861.31 L3457.18 1902.32 L3463.43 1941.64 L3469.67 1976.40 L3475.74 2004.58 L3481.99 2025.17 L3488.23 2037.99 L3494.31 2044.58 L3500.55 2046.77 L3506.79 2047.28 L3512.87 2048.12 L3519.11 2051.16 L3525.36 2057.23 L3531.43 2066.34 L3537.68 2077.82 L3543.92 2090.48 L3549.99 2103.30 L3556.24 2114.94 L3562.31 2124.90 L3568.56 2132.83 L3574.80 2138.23 L3580.88 2141.44 L3587.12 2142.62 L3593.36 2141.78 L3599.44 2139.41 L3605.68 2135.36 L3611.93 2130.13 L3618.00 2123.72 L3624.24 2116.29 L3630.49 2107.86 L3636.56 2098.91 L3642.81 2089.63 L3649.05 2080.35 L3655.13 2071.74 L3661.37 2064.15 L3667.61 2058.58 L3673.69 2055.21 L3679.93 2054.70 L3686.18 2057.23 L3692.25 2062.97 L3698.49 2071.57 L3704.57 2082.71 L3710.81 2095.71 L3717.06 2109.71 L3723.13 2124.06 L3729.38 2138.23 L3735.62 2151.90 L3741.69 2165.23 L3747.94 2178.23 L3754.18 2191.89 L3760.26 2206.41 L3766.50 2222.61 L3772.74 2240.49 L3778.82 2259.90 L3785.06 2280.49 L3791.31 2301.07 L3797.38 2320.82 L3803.63 2338.88 L3809.87 2354.40 L3815.94 2367.06 L3822.19 2376.00 L3828.43 2381.40 L3834.51 2383.26 L3840.75 2381.23 L3846.83 2375.66 L3853.07 2366.55 L3859.31 2354.23 L3865.39 2339.38 L3871.63 2322.51 L3877.88 2304.79 L3883.95 2287.24 L3890.19 2270.87 L3896.44 2256.69 L3902.51 2245.05 L3908.76 2235.60 L3915.00 2227.67 L3921.08 2219.91 L3927.32 2210.96 L3933.56 2199.49 L3939.64 2185.14 L3945.88 2168.10 L3952.13 2149.71 L3958.20 2131.82 L3964.44 2116.97 L3970.69 2108.03 L3976.76 2106.84 L3983.01 2114.61 L3989.08 2131.14 L3995.33 2155.61 L4001.57 2185.99 L4007.64 2219.57 L4013.89 2253.66 L4020.13 2286.23 L4026.21 2315.42 L4032.45 2340.23 L4038.69 2360.14 L4044.77 2375.49 L4051.01 2386.63 L4057.26 2394.56 L4063.33 2399.79 L4069.58 2403.17 L4075.82 2405.19" stroke-linejoin="round" style="fill:none;stroke:#1A85FF;stroke-width:9.72"/>
	<path d=" M819.79 2407.22 L826.37 2406.88 L832.95 2406.54 L839.53 2406.04 L846.11 2405.36 L852.53 2404.69 L859.11 2403.68 L865.69 2402.49 L872.27 2401.14 L878.85 2399.46 L885.43 2397.43 L892.01 2395.07 L898.59 2392.54 L905.01 2389.50 L911.59 2386.13 L918.17 2382.58 L924.75 2378.53 L931.33 2374.48 L937.91 2369.93 L944.49 2365.54 L950.91 2360.98 L957.49 2356.43 L964.07 2352.04 L970.65 2347.99 L977.23 2344.44 L983.81 2341.24 L990.39 2338.71 L996.81 2336.68 L1003.39 2335.50 L1009.97 2334.99 L1016.55 2335.33 L1023.13 2336.51 L1029.71 2338.37 L1036.29 2340.73 L1042.88 2343.94 L1049.29 2347.48 L1055.87 2351.53 L1062.45 2355.75 L1069.03 2360.31 L1075.61 2364.69 L1082.19 2369.25 L1088.78 2373.81 L1095.19 2378.03 L1101.77 2381.91 L1108.35 2385.62 L1114.93 2388.99 L1121.51 2392.03 L1128.09 2394.73 L1134.68 2397.09 L1141.26 2399.12 L1147.67 2400.81 L1154.25 2402.32 L1160.83 2403.51 L1167.41 2404.52 L1173.99 2405.19 L1180.58 2405.87 L1187.16 2406.38 L1193.57 2406.88 L1200.15 2407.05 L1206.73 2407.39 L1213.31 2407.56 L1219.89 2407.56 L1226.47 2407.73 L1233.06 2407.73 L1239.47 2407.89 L1246.05 2407.89 L1252.63 2407.89 L1259.21 2407.89 L1265.79 2407.89 L1272.38 2407.89 L1278.96 2407.89 L1285.54 2407.89 L1291.95 2407.89 L1298.53 2407.89 L1305.11 2407.89 L1311.69 2407.89 L1318.28 2407.89 L1324.86 2407.89 L1331.44 2407.89 L1337.85 2407.89 L1344.43 2407.89 L1351.01 2407.89 L1357.59 2407.89 L1364.18 2407.89 L1370.76 2407.89 L1377.34 2407.89 L1383.75 2407.89 L1390.33 2407.89 L1396.91 2407.89 L1403.49 2407.89 L1410.08 2407.89 L1416.66 2407.89 L1423.24 2407.89 L1429.82 2407.89 L1436.23 2407.89 L1442.81 2407.89 L1449.39 2407.89 L1455.98 2407.89 L1462.56 2407.89 L1469.14 2407.89 L1475.72 2407.89 L1482.13 2407.89 L1488.71 2407.89 L1495.29 2407.89 L1501.88 2407.89 L1508.46 2407.89 L1515.04 2407.89 L1521.62 2407.89 L1528.03 2407.89 L1534.61 2407.89 L1541.19 2407.89 L1547.78 2407.89 L1554.36 2407.89 L1560.94 2407.89 L1567.52 2407.89 L1574.10 2407.89 L1580.51 2407.73 L1587.09 2407.73 L1593.68 2407.56 L1600.26 2407.56 L1606.84 2407.39 L1613.42 2407.05 L1620.00 2406.71 L1626.41 2406.38 L1632.99 2405.87 L1639.58 2405.19 L1646.16 2404.35 L1652.74 2403.34 L1659.32 2402.16 L1665.90 2400.64 L1672.31 2398.95 L1678.89 2396.76 L1685.48 2394.39 L1692.06 2391.69 L1698.64 2388.66 L1705.22 2385.11 L1711.80 2381.40 L1718.38 2377.52 L1724.79 2373.13 L1731.38 2368.74 L1737.96 2364.19 L1744.54 2359.63 L1751.12 2355.24 L1757.70 2351.03 L1764.28 2346.98 L1770.69 2343.43 L1777.28 2340.56 L1783.86 2338.03 L1790.44 2336.34 L1797.02 2335.33 L1803.60 2335.16 L1810.18 2335.67 L1816.59 2337.02 L1823.18 2339.04 L1829.76 2341.57 L1836.34 2344.78 L1842.92 2348.49 L1849.50 2352.71 L1856.08 2356.93 L1862.66 2361.49 L1869.08 2366.04 L1875.66 2370.43 L1882.24 2374.82 L1888.82 2379.04 L1895.40 2382.75 L1901.98 2386.29 L1908.56 2389.50 L1914.98 2392.37 L1921.56 2394.73 L1928.14 2396.76 L1934.72 2398.28 L1941.30 2399.63 L1947.88 2400.47 L1954.46 2400.81 L1961.04 2400.98 L1967.46 2400.64 L1974.04 2399.96 L1980.62 2398.78 L1987.20 2397.43 L1993.78 2395.57 L2000.36 2393.21 L2006.94 2390.68 L2013.36 2387.64 L2019.94 2384.10 L2026.52 2380.39 L2033.10 2376.34 L2039.68 2372.12 L2046.26 2367.56 L2052.84 2363.01 L2059.26 2358.28 L2065.84 2353.89 L2072.42 2349.51 L2079.00 2345.46 L2085.58 2341.74 L2092.16 2338.37 L2098.74 2335.67 L2105.32 2333.48 L2111.74 2331.79 L2118.32 2330.78 L2124.90 2330.44 L2131.48 2330.44 L2138.06 2330.78 L2144.64 2331.62 L2151.23 2332.63 L2157.64 2333.81 L2164.22 2334.99 L2170.80 2336.01 L2177.38 2336.85 L2183.96 2337.36 L2190.54 2337.69 L2197.13 2337.53 L2203.54 2337.19 L2210.12 2336.51 L2216.70 2335.50 L2223.28 2334.49 L2229.86 2333.31 L2236.44 2332.13 L2243.03 2331.11 L2249.61 2330.44 L2256.02 2330.27 L2262.60 2330.44 L2269.18 2331.11 L2275.76 2332.29 L2282.34 2334.15 L2288.93 2336.68 L2295.51 2339.55 L2301.92 2343.09 L2308.50 2346.98 L2315.08 2351.19 L2321.66 2355.58 L2328.24 2360.31 L2334.82 2364.86 L2341.41 2369.42 L2347.82 2373.81 L2354.40 2378.03 L2360.98 2382.07 L2367.56 2385.62 L2374.14 2388.82 L2380.73 2391.86 L2387.31 2394.23 L2393.89 2396.42 L2400.30 2398.11 L2406.88 2399.29 L2413.46 2400.30 L2420.04 2400.81 L2426.63 2400.98 L2433.21 2400.64 L2439.79 2400.13 L2446.20 2399.12 L2452.78 2397.60 L2459.36 2395.91 L2465.94 2393.55 L2472.53 2390.85 L2479.11 2387.81 L2485.69 2384.27 L2492.10 2380.22 L2498.68 2375.83 L2505.26 2370.94 L2511.84 2365.88 L2518.43 2360.31 L2525.01 2354.40 L2531.59 2348.32 L2538.17 2342.08 L2544.58 2335.50 L2551.16 2328.92 L2557.74 2322.00 L2564.32 2314.91 L2570.91 2307.66 L2577.49 2299.89 L2584.07 2291.79 L2590.48 2283.19 L2597.06 2273.74 L2603.64 2263.44 L2610.23 2252.14 L2616.81 2239.48 L2623.39 2225.31 L2629.97 2209.61 L2636.38 2192.23 L2642.96 2172.82 L2649.54 2151.56 L2656.13 2128.28 L2662.71 2103.13 L2669.29 2076.30 L2675.87 2047.78 L2682.45 2017.91 L2688.86 1987.20 L2695.44 1955.64 L2702.03 1923.92 L2708.61 1892.19 L2715.19 1861.31 L2721.77 1831.44 L2728.35 1803.09 L2734.76 1776.77 L2741.34 1752.81 L2747.93 1731.54 L2754.51 1713.15 L2761.09 1697.96 L2767.67 1685.98 L2774.25 1677.21 L2780.83 1671.81 L2787.24 1669.61 L2793.83 1670.29 L2800.41 1673.83 L2806.99 1679.74 L2813.57 1687.84 L2820.15 1697.63 L2826.73 1708.93 L2833.14 1721.25 L2839.73 1734.24 L2846.31 1747.74 L2852.89 1761.41 L2859.47 1774.91 L2866.05 1788.24 L2872.63 1801.07 L2879.04 1813.39 L2885.63 1825.20 L2892.21 1836.68 L2898.79 1847.48 L2905.37 1857.94 L2911.95 1868.23 L2918.53 1878.02 L2925.11 1887.81 L2931.53 1897.26 L2938.11 1906.37 L2944.69 1915.14 L2951.27 1923.24 L2957.85 1930.50 L2964.43 1936.41 L2971.01 1940.63 L2977.43 1942.82 L2984.01 1942.48 L2990.59 1939.11 L2997.17 1932.19 L3003.75 1921.39 L3010.33 1906.37 L3016.91 1886.96 L3023.33 1863.00 L3029.91 1834.31 L3036.49 1801.24 L3043.07 1763.78 L3049.65 1722.26 L3056.23 1677.38 L3062.81 1629.45 L3069.39 1579.33 L3075.81 1527.53 L3082.39 1475.04 L3088.97 1422.56 L3095.55 1371.09 L3102.13 1321.14 L3108.71 1273.89 L3115.29 1229.68 L3121.71 1189.35 L3128.29 1153.57 L3134.87 1122.86 L3141.45 1097.55 L3148.03 1077.81 L3154.61 1063.80 L3161.19 1055.53 L3167.61 1052.83 L3174.19 1055.53 L3180.77 1063.13 L3187.35 1075.11 L3193.93 1090.80 L3200.51 1109.70 L3207.09 1131.13 L3213.68 1154.25 L3220.09 1178.55 L3226.67 1203.19 L3233.25 1227.66 L3239.83 1251.62 L3246.41 1274.40 L3252.99 1296.00 L3259.58 1316.08 L3265.99 1334.64 L3272.57 1351.52 L3279.15 1367.04 L3285.73 1381.22 L3292.31 1394.38 L3298.89 1406.87 L3305.48 1418.68 L3311.89 1430.33 L3318.47 1442.14 L3325.05 1454.12 L3331.63 1466.61 L3338.21 1479.94 L3344.79 1494.11 L3351.38 1509.30 L3357.96 1525.50 L3364.37 1542.88 L3370.95 1561.44 L3377.53 1581.02 L3384.11 1601.61 L3390.69 1623.04 L3397.28 1645.31 L3403.86 1668.26 L3410.27 1691.72 L3416.85 1715.68 L3423.43 1739.81 L3430.01 1763.94 L3436.59 1788.08 L3443.18 1811.87 L3449.76 1835.33 L3456.17 1858.11 L3462.75 1880.38 L3469.33 1901.64 L3475.91 1922.06 L3482.49 1941.30 L3489.08 1959.53 L3495.66 1976.74 L3502.24 1992.77 L3508.65 2007.45 L3515.23 2021.12 L3521.81 2033.61 L3528.39 2044.74 L3534.98 2055.04 L3541.56 2063.98 L3548.14 2071.91 L3554.55 2078.83 L3561.13 2084.91 L3567.71 2089.80 L3574.29 2094.02 L3580.88 2097.23 L3587.46 2099.76 L3594.04 2101.44 L3600.62 2102.63 L3607.03 2103.30 L3613.61 2103.47 L3620.19 2103.47 L3626.78 2103.30 L3633.36 2102.96 L3639.94 2102.79 L3646.52 2102.79 L3652.93 2103.30 L3659.51 2104.31 L3666.09 2105.83 L3672.68 2108.03 L3679.26 2111.06 L3685.84 2115.11 L3692.42 2119.84 L3698.83 2125.74 L3705.41 2132.32 L3711.99 2139.92 L3718.58 2148.36 L3725.16 2157.64 L3731.74 2167.43 L3738.32 2177.89 L3744.90 2188.86 L3751.31 2199.99 L3757.89 2211.30 L3764.48 2222.61 L3771.06 2233.74 L3777.64 2244.54 L3784.22 2254.84 L3790.80 2264.29 L3797.21 2273.06 L3803.79 2280.82 L3810.38 2287.41 L3816.96 2292.64 L3823.54 2296.86 L3830.12 2299.56 L3836.70 2300.91 L3843.11 2300.91 L3849.69 2299.56 L3856.28 2297.03 L3862.86 2293.48 L3869.44 2288.76 L3876.02 2283.19 L3882.60 2276.78 L3889.18 2270.03 L3895.59 2262.77 L3902.18 2255.51 L3908.76 2248.43 L3915.34 2241.51 L3921.92 2235.09 L3928.50 2229.36 L3935.08 2224.63 L3941.49 2220.75 L3948.08 2218.22 L3954.66 2217.04 L3961.24 2217.21 L3967.82 2218.89 L3974.40 2221.93 L3980.98 2226.49 L3987.39 2232.23 L3993.98 2239.31 L4000.56 2247.58 L4007.14 2256.69 L4013.72 2266.65 L4020.30 2277.11 L4026.88 2287.91 L4033.46 2298.71 L4039.88 2309.68 L4046.46 2320.31 L4053.04 2330.61 L4059.62 2340.23 L4066.20 2349.34 L4072.78 2357.61 L4079.36 2365.20 L4085.78 2372.12 L4092.36 2378.19 L4098.94 2383.43 L4105.52 2387.98 L4112.10 2391.86 L4118.68 2395.07 L4125.26 2397.77 L4131.68 2399.96 L4138.26 2401.82 L4144.84 2403.17 L4151.42 2404.35 L4158.00 2405.19 L4164.58 2406.04 L4171.16 2406.54" stroke-linejoin="round" style="fill:none;stroke:#D41159;stroke-width:9.72"/>
	<path d=" M629.10 2407.56 L636.36 2407.56 L643.78 2407.39 L651.04 2407.22 L658.29 2407.22 L665.72 2407.05 L672.98 2406.88 L680.23 2406.71 L687.49 2406.54 L694.91 2406.21 L702.17 2406.04 L709.43 2405.70 L716.85 2405.36 L724.11 2405.03 L731.36 2404.69 L738.62 2404.18 L746.04 2403.84 L753.30 2403.17 L760.56 2402.66 L767.98 2401.99 L775.24 2401.31 L782.49 2400.64 L789.75 2399.79 L797.18 2399.12 L804.43 2398.11 L811.69 2397.26 L819.11 2396.25 L826.37 2395.24 L833.63 2394.06 L840.88 2393.04 L848.31 2391.86 L855.56 2390.68 L862.82 2389.33 L870.24 2388.15 L877.50 2386.80 L884.76 2385.62 L892.01 2384.27 L899.44 2383.09 L906.69 2381.91 L913.95 2380.56 L921.38 2379.38 L928.63 2378.36 L935.89 2377.35 L943.14 2376.34 L950.57 2375.32 L957.83 2374.48 L965.08 2373.81 L972.51 2373.13 L979.76 2372.63 L987.02 2372.12 L994.28 2371.78 L1001.70 2371.61 L1008.96 2371.44 L1016.21 2371.61 L1023.64 2371.78 L1030.89 2371.95 L1038.15 2372.29 L1045.41 2372.79 L1052.83 2373.47 L1060.09 2374.14 L1067.34 2374.99 L1074.77 2375.83 L1082.03 2376.84 L1089.28 2377.86 L1096.54 2379.04 L1103.96 2380.05 L1111.22 2381.40 L1118.47 2382.58 L1125.90 2383.76 L1133.16 2385.11 L1140.41 2386.29 L1147.67 2387.64 L1155.09 2388.82 L1162.35 2390.01 L1169.61 2391.36 L1177.03 2392.54 L1184.29 2393.55 L1191.54 2394.73 L1198.80 2395.74 L1206.22 2396.76 L1213.48 2397.77 L1220.74 2398.61 L1228.16 2399.46 L1235.42 2400.30 L1242.68 2401.14 L1249.93 2401.82 L1257.36 2402.32 L1264.61 2403.00 L1271.87 2403.51 L1279.29 2404.01 L1286.55 2404.52 L1293.81 2404.86 L1301.06 2405.19 L1308.49 2405.53 L1315.74 2405.87 L1323.00 2406.21 L1330.43 2406.38 L1337.68 2406.54 L1344.94 2406.71 L1352.19 2406.88 L1359.62 2407.05 L1366.88 2407.05 L1374.13 2407.22 L1381.56 2407.22 L1388.81 2407.39 L1396.07 2407.39 L1403.49 2407.39 L1410.75 2407.39 L1418.01 2407.39 L1425.26 2407.39 L1432.69 2407.22 L1439.94 2407.22 L1447.20 2407.05 L1454.63 2407.05 L1461.88 2406.88 L1469.14 2406.71 L1476.39 2406.54 L1483.82 2406.38 L1491.08 2406.04 L1498.33 2405.87 L1505.76 2405.53 L1513.01 2405.19 L1520.27 2404.86 L1527.53 2404.35 L1534.95 2404.01 L1542.21 2403.51 L1549.46 2402.83 L1556.89 2402.32 L1564.14 2401.65 L1571.40 2400.98 L1578.66 2400.13 L1586.08 2399.29 L1593.34 2398.44 L1600.59 2397.60 L1608.02 2396.59 L1615.28 2395.57 L1622.53 2394.56 L1629.79 2393.38 L1637.21 2392.20 L1644.47 2391.02 L1651.73 2389.84 L1659.15 2388.49 L1666.41 2387.31 L1673.66 2385.96 L1680.92 2384.78 L1688.34 2383.43 L1695.60 2382.07 L1702.86 2380.89 L1710.28 2379.71 L1717.54 2378.53 L1724.79 2377.35 L1732.05 2376.34 L1739.48 2375.16 L1746.73 2374.31 L1753.99 2373.47 L1761.41 2372.63 L1768.67 2371.78 L1775.93 2371.28 L1783.18 2370.77 L1790.61 2370.26 L1797.86 2369.93 L1805.12 2369.59 L1812.54 2369.42 L1819.80 2369.42 L1827.06 2369.25 L1834.31 2369.42 L1841.74 2369.59 L1848.99 2369.76 L1856.25 2369.93 L1863.68 2370.09 L1870.93 2370.43 L1878.19 2370.77 L1885.44 2371.11 L1892.87 2371.44 L1900.13 2371.61 L1907.38 2371.95 L1914.81 2372.12 L1922.06 2372.29 L1929.32 2372.29 L1936.58 2372.29 L1944.00 2372.29 L1951.26 2372.12 L1958.51 2371.95 L1965.94 2371.61 L1973.19 2371.28 L1980.45 2370.77 L1987.71 2370.26 L1995.13 2369.59 L2002.39 2368.91 L2009.64 2368.07 L2017.07 2367.06 L2024.33 2366.21 L2031.58 2365.20 L2038.84 2364.02 L2046.26 2363.01 L2053.52 2361.82 L2060.78 2360.64 L2068.20 2359.46 L2075.46 2358.28 L2082.71 2357.10 L2089.97 2355.92 L2097.39 2354.74 L2104.65 2353.73 L2111.91 2352.71 L2119.33 2351.70 L2126.59 2350.69 L2133.84 2349.84 L2141.10 2349.17 L2148.53 2348.49 L2155.78 2347.82 L2163.04 2347.48 L2170.46 2346.98 L2177.72 2346.81 L2184.98 2346.64 L2192.40 2346.47 L2199.66 2346.64 L2206.91 2346.64 L2214.17 2346.98 L2221.59 2347.31 L2228.85 2347.82 L2236.11 2348.32 L2243.53 2349.00 L2250.79 2349.68 L2258.04 2350.35 L2265.30 2351.19 L2272.73 2352.21 L2279.98 2353.05 L2287.24 2354.06 L2294.66 2355.07 L2301.92 2356.09 L2309.18 2356.93 L2316.43 2357.94 L2323.86 2358.79 L2331.11 2359.63 L2338.37 2360.48 L2345.79 2361.15 L2353.05 2361.66 L2360.31 2361.99 L2367.56 2362.33 L2374.99 2362.33 L2382.24 2362.16 L2389.50 2361.82 L2396.93 2361.15 L2404.18 2360.31 L2411.44 2359.13 L2418.69 2357.78 L2426.12 2355.92 L2433.38 2353.89 L2440.63 2351.36 L2448.06 2348.49 L2455.31 2345.12 L2462.57 2341.41 L2469.82 2337.36 L2477.25 2332.63 L2484.51 2327.57 L2491.76 2322.00 L2499.19 2315.93 L2506.44 2309.34 L2513.70 2302.26 L2520.96 2294.66 L2528.38 2286.39 L2535.64 2277.62 L2542.89 2268.51 L2550.32 2258.72 L2557.57 2248.26 L2564.83 2237.46 L2572.09 2226.15 L2579.51 2214.34 L2586.77 2202.02 L2594.03 2189.19 L2601.45 2176.03 L2608.71 2162.53 L2615.96 2148.69 L2623.22 2134.52 L2630.64 2120.01 L2637.90 2105.49 L2645.16 2090.64 L2652.58 2075.79 L2659.84 2060.78 L2667.09 2045.93 L2674.35 2031.08 L2681.78 2016.39 L2689.03 2001.88 L2696.29 1987.71 L2703.71 1973.70 L2710.97 1960.20 L2718.23 1947.04 L2725.48 1934.38 L2732.91 1922.40 L2740.16 1910.93 L2747.42 1899.96 L2754.84 1889.66 L2762.10 1880.04 L2769.36 1871.10 L2776.61 1862.83 L2784.04 1855.07 L2791.29 1848.15 L2798.55 1841.91 L2805.98 1836.17 L2813.23 1831.11 L2820.49 1826.55 L2827.74 1822.33 L2835.17 1818.79 L2842.43 1815.41 L2849.68 1812.38 L2857.11 1809.68 L2864.36 1806.98 L2871.62 1804.28 L2878.88 1801.74 L2886.30 1798.88 L2893.56 1796.01 L2900.81 1792.80 L2908.24 1789.09 L2915.49 1785.04 L2922.75 1780.48 L2930.01 1775.25 L2937.43 1769.51 L2944.69 1762.93 L2951.94 1755.68 L2959.37 1747.58 L2966.63 1738.63 L2973.88 1729.01 L2981.31 1718.38 L2988.56 1707.08 L2995.82 1694.93 L3003.08 1681.93 L3010.50 1668.26 L3017.76 1653.75 L3025.01 1638.73 L3032.44 1623.21 L3039.69 1607.34 L3046.95 1590.98 L3054.21 1574.27 L3061.63 1557.39 L3068.89 1540.52 L3076.14 1523.81 L3083.57 1507.11 L3090.83 1490.74 L3098.08 1474.88 L3105.34 1459.52 L3112.76 1444.67 L3120.02 1430.49 L3127.28 1417.33 L3134.70 1405.01 L3141.96 1393.54 L3149.21 1383.24 L3156.47 1374.13 L3163.89 1366.20 L3171.15 1359.62 L3178.41 1354.05 L3185.83 1350.00 L3193.09 1347.13 L3200.34 1345.61 L3207.60 1345.44 L3215.03 1346.63 L3222.28 1348.99 L3229.54 1352.53 L3236.96 1357.43 L3244.22 1363.50 L3251.48 1370.59 L3258.73 1378.86 L3266.16 1388.14 L3273.41 1398.43 L3280.67 1409.57 L3288.09 1421.55 L3295.35 1434.38 L3302.61 1448.04 L3309.86 1462.22 L3317.29 1477.07 L3324.54 1492.43 L3331.80 1508.29 L3339.23 1524.66 L3346.48 1541.36 L3353.74 1558.41 L3360.99 1575.62 L3368.42 1593.17 L3375.68 1611.06 L3382.93 1628.78 L3390.36 1646.83 L3397.61 1664.72 L3404.87 1682.78 L3412.13 1700.66 L3419.55 1718.55 L3426.81 1736.27 L3434.06 1753.82 L3441.49 1771.20 L3448.74 1788.24 L3456.00 1805.12 L3463.26 1821.66 L3470.68 1837.86 L3477.94 1853.72 L3485.19 1869.24 L3492.62 1884.26 L3499.88 1898.94 L3507.13 1913.29 L3514.39 1927.13 L3521.81 1940.46 L3529.07 1953.28 L3536.33 1965.77 L3543.75 1977.75 L3551.01 1989.39 L3558.26 2000.53 L3565.52 2011.33 L3572.94 2021.63 L3580.20 2031.41 L3587.46 2041.03 L3594.88 2050.14 L3602.14 2058.92 L3609.39 2067.36 L3616.65 2075.46 L3624.08 2083.39 L3631.33 2090.98 L3638.59 2098.41 L3646.01 2105.49 L3653.27 2112.41 L3660.53 2119.16 L3667.78 2125.74 L3675.21 2132.16 L3682.46 2138.40 L3689.72 2144.64 L3697.14 2150.55 L3704.40 2156.46 L3711.66 2162.03 L3718.91 2167.59 L3726.34 2173.16 L3733.59 2178.39 L3740.85 2183.63 L3748.28 2188.69 L3755.53 2193.58 L3762.79 2198.31 L3770.21 2202.86 L3777.47 2207.42 L3784.73 2211.64 L3791.98 2215.69 L3799.41 2219.74 L3806.66 2223.45 L3813.92 2226.99 L3821.34 2230.54 L3828.60 2233.74 L3835.86 2236.78 L3843.11 2239.82 L3850.54 2242.69 L3857.79 2245.39 L3865.05 2247.92 L3872.48 2250.45 L3879.73 2252.81 L3886.99 2255.18 L3894.24 2257.37 L3901.67 2259.73 L3908.93 2261.93 L3916.18 2264.29 L3923.61 2266.65 L3930.86 2269.01 L3938.12 2271.38 L3945.38 2273.91 L3952.80 2276.61 L3960.06 2279.31 L3967.31 2282.18 L3974.74 2285.04 L3981.99 2288.08 L3989.25 2291.29 L3996.51 2294.66 L4003.93 2298.04 L4011.19 2301.58 L4018.44 2305.29 L4025.87 2309.01 L4033.13 2312.89 L4040.38 2316.77 L4047.64 2320.65 L4055.06 2324.70 L4062.32 2328.58 L4069.58 2332.63 L4077.00 2336.68 L4084.26 2340.56 L4091.51 2344.44 L4098.77 2348.32 L4106.19 2352.21 L4113.45 2355.92 L4120.71 2359.46 L4128.13 2362.84 L4135.39 2366.21 L4142.64 2369.42 L4149.90 2372.46 L4157.33 2375.49 L4164.58 2378.19 L4171.84 2380.89 L4179.26 2383.26 L4186.52 2385.62 L4193.77 2387.81 L4201.03 2389.84 L4208.46 2391.69 L4215.71 2393.38 L4222.97 2394.90 L4230.39 2396.42 L4237.65 2397.60 L4244.91 2398.78 L4252.16 2399.96 L4259.59 2400.98 L4266.84 2401.82 L4274.10 2402.49 L4281.52 2403.34 L4288.78 2403.84 L4296.04 2404.52 L4303.29 2404.86 L4310.72 2405.36 L4317.98 2405.70 L4325.23 2406.04 L4332.66 2406.38 L4339.91 2406.54 L4347.17 2406.71 L4354.43 2407.05 L4361.85 2407.05" stroke-linejoin="round" style="fill:none;stroke:#00BF7F;stroke-width:9.72"/>
	<line x1="557.89" y1="2479.11" x2="557.89" y2="113.40" style="stroke:#000000;stroke-width:6.48"/>
	<line x1="557.89" y1="2407.89" x2="513.00" y2="2407.89" style="stroke:#000000;stroke-width:6.48"/>
	<text x="490.39" y="2447.33" style="font-family:'Helvetica';font-size:112.56px;fill:#000000" text-anchor="end">0</text>
	<line x1="557.89" y1="1666.74" x2="513.00" y2="1666.74" style="stroke:#000000;stroke-width:6.48"/>
	<text x="490.39" y="1706.18" style="font-family:'Helvetica';font-size:112.56px;fill:#000000" text-anchor="end">.5</text>
	<line x1="557.89" y1="925.76" x2="513.00" y2="925.76" style="stroke:#000000;stroke-width:6.48"/>
	<text x="490.39" y="965.20" style="font-family:'Helvetica';font-size:112.56px;fill:#000000" text-anchor="end">1</text>
	<line x1="557.89" y1="184.61" x2="513.00" y2="184.61" style="stroke:#000000;stroke-width:6.48"/>
	<text x="490.39" y="224.05" style="font-family:'Helvetica';font-size:112.56px;fill:#000000" text-anchor="end">1.5</text>
	<text x="214.55" y="1296.34" style="font-family:'Helvetica';font-size:112.56px;fill:#000000" transform="rotate(-90 214.55,1296.34)" text-anchor="middle">Density</text>
	<line x1="557.89" y1="2479.11" x2="5286.60" y2="2479.11" style="stroke:#000000;stroke-width:6.48"/>
	<line x1="637.37" y1="2479.11" x2="637.37" y2="2524.16" style="stroke:#000000;stroke-width:6.48"/>
	<text x="637.37" y="2625.31" style="font-family:'Helvetica';font-size:112.56px;fill:#000000" text-anchor="middle">-4</text>
	<line x1="1781.83" y1="2479.11" x2="1781.83" y2="2524.16" style="stroke:#000000;stroke-width:6.48"/>
	<text x="1781.83" y="2625.31" style="font-family:'Helvetica';font-size:112.56px;fill:#000000" text-anchor="middle">-2</text>
	<line x1="2926.29" y1="2479.11" x2="2926.29" y2="2524.16" style="stroke:#000000;stroke-width:6.48"/>
	<text x="2926.29" y="2625.31" style="font-family:'Helvetica';font-size:112.56px;fill:#000000" text-anchor="middle">0</text>
	<line x1="4070.93" y1="2479.11" x2="4070.93" y2="2524.16" style="stroke:#000000;stroke-width:6.48"/>
	<text x="4070.93" y="2625.31" style="font-family:'Helvetica';font-size:112.56px;fill:#000000" text-anchor="middle">2</text>
	<line x1="5215.39" y1="2479.11" x2="5215.39" y2="2524.16" style="stroke:#000000;stroke-width:6.48"/>
	<text x="5215.39" y="2625.31" style="font-family:'Helvetica';font-size:112.56px;fill:#000000" text-anchor="middle">4</text>
	<text x="2922.24" y="2782.75" style="font-family:'Helvetica';font-size:112.56px;fill:#000000" text-anchor="middle">IV estimates</text>
	<rect x="1732.05" y="2878.03" width="2380.39" height="209.76" style="fill:#FFFFFF"/>
	<rect x="1735.29" y="2881.27" width="2373.91" height="203.28" style="fill:none;stroke:#FFFFFF;stroke-width:6.48"/>
	<line x1="1780.65" y1="2982.83" x2="2039.85" y2="2982.83" style="stroke:#1A85FF;stroke-width:9.72"/>
	<line x1="2648.87" y1="2982.83" x2="2908.07" y2="2982.83" style="stroke:#D41159;stroke-width:9.72"/>
	<line x1="3451.61" y1="2982.83" x2="3710.81" y2="2982.83" style="stroke:#00BF7F;stroke-width:9.72"/>
	<text x="2107.35" y="3022.26" style="font-family:'Helvetica';font-size:112.56px;fill:#000000"> = .25</text>
	<text x="2975.57" y="3022.26" style="font-family:'Helvetica';font-size:112.56px;fill:#000000"> = .5</text>
	<text x="3778.31" y="3022.26" style="font-family:'Helvetica';font-size:112.56px;fill:#000000"> = 1</text>
</svg>
