<?xml version="1.0" encoding="UTF-8" standalone="no"?>
<!-- This is a Stata 18.5 generated SVG file (http://www.stata.com) -->

<svg version="1.1" width="600px" height="360px" viewBox="0 0 5400 3240" xmlns="http://www.w3.org/2000/svg" xmlns:xlink="http://www.w3.org/1999/xlink">
	<desc>Stata Graph - Graph</desc>
	<rect x="0" y="0" width="5400" height="3240" style="fill:#FFFFFF;stroke:none"/>
	<rect x="0.00" y="0.00" width="5400.00" height="3240.00" style="fill:#FFFFFF"/>
	<rect x="3.24" y="3.24" width="5393.52" height="3233.52" style="fill:none;stroke:#FFFFFF;stroke-width:6.48"/>
	<rect x="557.89" y="113.40" width="2270.53" height="2653.26" style="fill:#FFFFFF"/>
	<rect x="561.13" y="116.64" width="2264.05" height="2646.78" style="fill:none;stroke:#FFFFFF;stroke-width:6.48"/>
	<line x1="557.89" y1="2695.28" x2="622.69" y2="2695.28" style="stroke:#F0F0F0;stroke-width:9.72"/>
	<line x1="655.09" y1="2695.28" x2="719.89" y2="2695.28" style="stroke:#F0F0F0;stroke-width:9.72"/>
	<line x1="752.29" y1="2695.28" x2="817.09" y2="2695.28" style="stroke:#F0F0F0;stroke-width:9.72"/>
	<line x1="849.49" y1="2695.28" x2="914.29" y2="2695.28" style="stroke:#F0F0F0;stroke-width:9.72"/>
	<line x1="946.69" y1="2695.28" x2="1011.49" y2="2695.28" style="stroke:#F0F0F0;stroke-width:9.72"/>
	<line x1="1043.89" y1="2695.28" x2="1108.69" y2="2695.28" style="stroke:#F0F0F0;stroke-width:9.72"/>
	<line x1="1141.09" y1="2695.28" x2="1205.89" y2="2695.28" style="stroke:#F0F0F0;stroke-width:9.72"/>
	<line x1="1238.29" y1="2695.28" x2="1303.09" y2="2695.28" style="stroke:#F0F0F0;stroke-width:9.72"/>
	<line x1="1335.49" y1="2695.28" x2="1400.29" y2="2695.28" style="stroke:#F0F0F0;stroke-width:9.72"/>
	<line x1="1432.69" y1="2695.28" x2="1497.49" y2="2695.28" style="stroke:#F0F0F0;stroke-width:9.72"/>
	<line x1="1529.89" y1="2695.28" x2="1594.69" y2="2695.28" style="stroke:#F0F0F0;stroke-width:9.72"/>
	<line x1="1627.09" y1="2695.28" x2="1691.89" y2="2695.28" style="stroke:#F0F0F0;stroke-width:9.72"/>
	<line x1="1724.29" y1="2695.28" x2="1789.09" y2="2695.28" style="stroke:#F0F0F0;stroke-width:9.72"/>
	<line x1="1821.49" y1="2695.28" x2="1886.29" y2="2695.28" style="stroke:#F0F0F0;stroke-width:9.72"/>
	<line x1="1918.69" y1="2695.28" x2="1983.49" y2="2695.28" style="stroke:#F0F0F0;stroke-width:9.72"/>
	<line x1="2015.89" y1="2695.28" x2="2080.69" y2="2695.28" style="stroke:#F0F0F0;stroke-width:9.72"/>
	<line x1="2113.09" y1="2695.28" x2="2177.89" y2="2695.28" style="stroke:#F0F0F0;stroke-width:9.72"/>
	<line x1="2210.29" y1="2695.28" x2="2275.09" y2="2695.28" style="stroke:#F0F0F0;stroke-width:9.72"/>
	<line x1="2307.49" y1="2695.28" x2="2372.29" y2="2695.28" style="stroke:#F0F0F0;stroke-width:9.72"/>
	<line x1="2404.69" y1="2695.28" x2="2469.49" y2="2695.28" style="stroke:#F0F0F0;stroke-width:9.72"/>
	<line x1="2501.89" y1="2695.28" x2="2566.69" y2="2695.28" style="stroke:#F0F0F0;stroke-width:9.72"/>
	<line x1="2599.09" y1="2695.28" x2="2663.89" y2="2695.28" style="stroke:#F0F0F0;stroke-width:9.72"/>
	<line x1="2696.29" y1="2695.28" x2="2761.09" y2="2695.28" style="stroke:#F0F0F0;stroke-width:9.72"/>
	<line x1="2793.49" y1="2695.28" x2="2828.42" y2="2695.28" style="stroke:#F0F0F0;stroke-width:9.72"/>
	<line x1="557.89" y1="1858.44" x2="622.69" y2="1858.44" style="stroke:#F0F0F0;stroke-width:9.72"/>
	<line x1="655.09" y1="1858.44" x2="719.89" y2="1858.44" style="stroke:#F0F0F0;stroke-width:9.72"/>
	<line x1="752.29" y1="1858.44" x2="817.09" y2="1858.44" style="stroke:#F0F0F0;stroke-width:9.72"/>
	<line x1="849.49" y1="1858.44" x2="914.29" y2="1858.44" style="stroke:#F0F0F0;stroke-width:9.72"/>
	<line x1="946.69" y1="1858.44" x2="1011.49" y2="1858.44" style="stroke:#F0F0F0;stroke-width:9.72"/>
	<line x1="1043.89" y1="1858.44" x2="1108.69" y2="1858.44" style="stroke:#F0F0F0;stroke-width:9.72"/>
	<line x1="1141.09" y1="1858.44" x2="1205.89" y2="1858.44" style="stroke:#F0F0F0;stroke-width:9.72"/>
	<line x1="1238.29" y1="1858.44" x2="1303.09" y2="1858.44" style="stroke:#F0F0F0;stroke-width:9.72"/>
	<line x1="1335.49" y1="1858.44" x2="1400.29" y2="1858.44" style="stroke:#F0F0F0;stroke-width:9.72"/>
	<line x1="1432.69" y1="1858.44" x2="1497.49" y2="1858.44" style="stroke:#F0F0F0;stroke-width:9.72"/>
	<line x1="1529.89" y1="1858.44" x2="1594.69" y2="1858.44" style="stroke:#F0F0F0;stroke-width:9.72"/>
	<line x1="1627.09" y1="1858.44" x2="1691.89" y2="1858.44" style="stroke:#F0F0F0;stroke-width:9.72"/>
	<line x1="1724.29" y1="1858.44" x2="1789.09" y2="1858.44" style="stroke:#F0F0F0;stroke-width:9.72"/>
	<line x1="1821.49" y1="1858.44" x2="1886.29" y2="1858.44" style="stroke:#F0F0F0;stroke-width:9.72"/>
	<line x1="1918.69" y1="1858.44" x2="1983.49" y2="1858.44" style="stroke:#F0F0F0;stroke-width:9.72"/>
	<line x1="2015.89" y1="1858.44" x2="2080.69" y2="1858.44" style="stroke:#F0F0F0;stroke-width:9.72"/>
	<line x1="2113.09" y1="1858.44" x2="2177.89" y2="1858.44" style="stroke:#F0F0F0;stroke-width:9.72"/>
	<line x1="2210.29" y1="1858.44" x2="2275.09" y2="1858.44" style="stroke:#F0F0F0;stroke-width:9.72"/>
	<line x1="2307.49" y1="1858.44" x2="2372.29" y2="1858.44" style="stroke:#F0F0F0;stroke-width:9.72"/>
	<line x1="2404.69" y1="1858.44" x2="2469.49" y2="1858.44" style="stroke:#F0F0F0;stroke-width:9.72"/>
	<line x1="2501.89" y1="1858.44" x2="2566.69" y2="1858.44" style="stroke:#F0F0F0;stroke-width:9.72"/>
	<line x1="2599.09" y1="1858.44" x2="2663.89" y2="1858.44" style="stroke:#F0F0F0;stroke-width:9.72"/>
	<line x1="2696.29" y1="1858.44" x2="2761.09" y2="1858.44" style="stroke:#F0F0F0;stroke-width:9.72"/>
	<line x1="2793.49" y1="1858.44" x2="2828.42" y2="1858.44" style="stroke:#F0F0F0;stroke-width:9.72"/>
	<line x1="557.89" y1="1021.61" x2="622.69" y2="1021.61" style="stroke:#F0F0F0;stroke-width:9.72"/>
	<line x1="655.09" y1="1021.61" x2="719.89" y2="1021.61" style="stroke:#F0F0F0;stroke-width:9.72"/>
	<line x1="752.29" y1="1021.61" x2="817.09" y2="1021.61" style="stroke:#F0F0F0;stroke-width:9.72"/>
	<line x1="849.49" y1="1021.61" x2="914.29" y2="1021.61" style="stroke:#F0F0F0;stroke-width:9.72"/>
	<line x1="946.69" y1="1021.61" x2="1011.49" y2="1021.61" style="stroke:#F0F0F0;stroke-width:9.72"/>
	<line x1="1043.89" y1="1021.61" x2="1108.69" y2="1021.61" style="stroke:#F0F0F0;stroke-width:9.72"/>
	<line x1="1141.09" y1="1021.61" x2="1205.89" y2="1021.61" style="stroke:#F0F0F0;stroke-width:9.72"/>
	<line x1="1238.29" y1="1021.61" x2="1303.09" y2="1021.61" style="stroke:#F0F0F0;stroke-width:9.72"/>
	<line x1="1335.49" y1="1021.61" x2="1400.29" y2="1021.61" style="stroke:#F0F0F0;stroke-width:9.72"/>
	<line x1="1432.69" y1="1021.61" x2="1497.49" y2="1021.61" style="stroke:#F0F0F0;stroke-width:9.72"/>
	<line x1="1529.89" y1="1021.61" x2="1594.69" y2="1021.61" style="stroke:#F0F0F0;stroke-width:9.72"/>
	<line x1="1627.09" y1="1021.61" x2="1691.89" y2="1021.61" style="stroke:#F0F0F0;stroke-width:9.72"/>
	<line x1="1724.29" y1="1021.61" x2="1789.09" y2="1021.61" style="stroke:#F0F0F0;stroke-width:9.72"/>
	<line x1="1821.49" y1="1021.61" x2="1886.29" y2="1021.61" style="stroke:#F0F0F0;stroke-width:9.72"/>
	<line x1="1918.69" y1="1021.61" x2="1983.49" y2="1021.61" style="stroke:#F0F0F0;stroke-width:9.72"/>
	<line x1="2015.89" y1="1021.61" x2="2080.69" y2="1021.61" style="stroke:#F0F0F0;stroke-width:9.72"/>
	<line x1="2113.09" y1="1021.61" x2="2177.89" y2="1021.61" style="stroke:#F0F0F0;stroke-width:9.72"/>
	<line x1="2210.29" y1="1021.61" x2="2275.09" y2="1021.61" style="stroke:#F0F0F0;stroke-width:9.72"/>
	<line x1="2307.49" y1="1021.61" x2="2372.29" y2="1021.61" style="stroke:#F0F0F0;stroke-width:9.72"/>
	<line x1="2404.69" y1="1021.61" x2="2469.49" y2="1021.61" style="stroke:#F0F0F0;stroke-width:9.72"/>
	<line x1="2501.89" y1="1021.61" x2="2566.69" y2="1021.61" style="stroke:#F0F0F0;stroke-width:9.72"/>
	<line x1="2599.09" y1="1021.61" x2="2663.89" y2="1021.61" style="stroke:#F0F0F0;stroke-width:9.72"/>
	<line x1="2696.29" y1="1021.61" x2="2761.09" y2="1021.61" style="stroke:#F0F0F0;stroke-width:9.72"/>
	<line x1="2793.49" y1="1021.61" x2="2828.42" y2="1021.61" style="stroke:#F0F0F0;stroke-width:9.72"/>
	<line x1="557.89" y1="184.61" x2="622.69" y2="184.61" style="stroke:#F0F0F0;stroke-width:9.72"/>
	<line x1="655.09" y1="184.61" x2="719.89" y2="184.61" style="stroke:#F0F0F0;stroke-width:9.72"/>
	<line x1="752.29" y1="184.61" x2="817.09" y2="184.61" style="stroke:#F0F0F0;stroke-width:9.72"/>
	<line x1="849.49" y1="184.61" x2="914.29" y2="184.61" style="stroke:#F0F0F0;stroke-width:9.72"/>
	<line x1="946.69" y1="184.61" x2="1011.49" y2="184.61" style="stroke:#F0F0F0;stroke-width:9.72"/>
	<line x1="1043.89" y1="184.61" x2="1108.69" y2="184.61" style="stroke:#F0F0F0;stroke-width:9.72"/>
	<line x1="1141.09" y1="184.61" x2="1205.89" y2="184.61" style="stroke:#F0F0F0;stroke-width:9.72"/>
	<line x1="1238.29" y1="184.61" x2="1303.09" y2="184.61" style="stroke:#F0F0F0;stroke-width:9.72"/>
	<line x1="1335.49" y1="184.61" x2="1400.29" y2="184.61" style="stroke:#F0F0F0;stroke-width:9.72"/>
	<line x1="1432.69" y1="184.61" x2="1497.49" y2="184.61" style="stroke:#F0F0F0;stroke-width:9.72"/>
	<line x1="1529.89" y1="184.61" x2="1594.69" y2="184.61" style="stroke:#F0F0F0;stroke-width:9.72"/>
	<line x1="1627.09" y1="184.61" x2="1691.89" y2="184.61" style="stroke:#F0F0F0;stroke-width:9.72"/>
	<line x1="1724.29" y1="184.61" x2="1789.09" y2="184.61" style="stroke:#F0F0F0;stroke-width:9.72"/>
	<line x1="1821.49" y1="184.61" x2="1886.29" y2="184.61" style="stroke:#F0F0F0;stroke-width:9.72"/>
	<line x1="1918.69" y1="184.61" x2="1983.49" y2="184.61" style="stroke:#F0F0F0;stroke-width:9.72"/>
	<line x1="2015.89" y1="184.61" x2="2080.69" y2="184.61" style="stroke:#F0F0F0;stroke-width:9.72"/>
	<line x1="2113.09" y1="184.61" x2="2177.89" y2="184.61" style="stroke:#F0F0F0;stroke-width:9.72"/>
	<line x1="2210.29" y1="184.61" x2="2275.09" y2="184.61" style="stroke:#F0F0F0;stroke-width:9.72"/>
	<line x1="2307.49" y1="184.61" x2="2372.29" y2="184.61" style="stroke:#F0F0F0;stroke-width:9.72"/>
	<line x1="2404.69" y1="184.61" x2="2469.49" y2="184.61" style="stroke:#F0F0F0;stroke-width:9.72"/>
	<line x1="2501.89" y1="184.61" x2="2566.69" y2="184.61" style="stroke:#F0F0F0;stroke-width:9.72"/>
	<line x1="2599.09" y1="184.61" x2="2663.89" y2="184.61" style="stroke:#F0F0F0;stroke-width:9.72"/>
	<line x1="2696.29" y1="184.61" x2="2761.09" y2="184.61" style="stroke:#F0F0F0;stroke-width:9.72"/>
	<line x1="2793.49" y1="184.61" x2="2828.42" y2="184.61" style="stroke:#F0F0F0;stroke-width:9.72"/>
	<line x1="632.98" y1="2766.66" x2="632.98" y2="2701.86" style="stroke:#F0F0F0;stroke-width:9.72"/>
	<line x1="632.98" y1="2669.46" x2="632.98" y2="2604.66" style="stroke:#F0F0F0;stroke-width:9.72"/>
	<line x1="632.98" y1="2572.26" x2="632.98" y2="2507.46" style="stroke:#F0F0F0;stroke-width:9.72"/>
	<line x1="632.98" y1="2475.06" x2="632.98" y2="2410.26" style="stroke:#F0F0F0;stroke-width:9.72"/>
	<line x1="632.98" y1="2377.86" x2="632.98" y2="2313.06" style="stroke:#F0F0F0;stroke-width:9.72"/>
	<line x1="632.98" y1="2280.66" x2="632.98" y2="2215.86" style="stroke:#F0F0F0;stroke-width:9.72"/>
	<line x1="632.98" y1="2183.46" x2="632.98" y2="2118.66" style="stroke:#F0F0F0;stroke-width:9.72"/>
	<line x1="632.98" y1="2086.26" x2="632.98" y2="2021.46" style="stroke:#F0F0F0;stroke-width:9.72"/>
	<line x1="632.98" y1="1989.06" x2="632.98" y2="1924.26" style="stroke:#F0F0F0;stroke-width:9.72"/>
	<line x1="632.98" y1="1891.86" x2="632.98" y2="1827.06" style="stroke:#F0F0F0;stroke-width:9.72"/>
	<line x1="632.98" y1="1794.66" x2="632.98" y2="1729.86" style="stroke:#F0F0F0;stroke-width:9.72"/>
	<line x1="632.98" y1="1697.46" x2="632.98" y2="1632.66" style="stroke:#F0F0F0;stroke-width:9.72"/>
	<line x1="632.98" y1="1600.26" x2="632.98" y2="1535.46" style="stroke:#F0F0F0;stroke-width:9.72"/>
	<line x1="632.98" y1="1503.06" x2="632.98" y2="1438.26" style="stroke:#F0F0F0;stroke-width:9.72"/>
	<line x1="632.98" y1="1405.86" x2="632.98" y2="1341.06" style="stroke:#F0F0F0;stroke-width:9.72"/>
	<line x1="632.98" y1="1308.66" x2="632.98" y2="1243.86" style="stroke:#F0F0F0;stroke-width:9.72"/>
	<line x1="632.98" y1="1211.46" x2="632.98" y2="1146.66" style="stroke:#F0F0F0;stroke-width:9.72"/>
	<line x1="632.98" y1="1114.26" x2="632.98" y2="1049.46" style="stroke:#F0F0F0;stroke-width:9.72"/>
	<line x1="632.98" y1="1017.06" x2="632.98" y2="952.26" style="stroke:#F0F0F0;stroke-width:9.72"/>
	<line x1="632.98" y1="919.86" x2="632.98" y2="855.06" style="stroke:#F0F0F0;stroke-width:9.72"/>
	<line x1="632.98" y1="822.66" x2="632.98" y2="757.86" style="stroke:#F0F0F0;stroke-width:9.72"/>
	<line x1="632.98" y1="725.46" x2="632.98" y2="660.66" style="stroke:#F0F0F0;stroke-width:9.72"/>
	<line x1="632.98" y1="628.26" x2="632.98" y2="563.46" style="stroke:#F0F0F0;stroke-width:9.72"/>
	<line x1="632.98" y1="531.06" x2="632.98" y2="466.26" style="stroke:#F0F0F0;stroke-width:9.72"/>
	<line x1="632.98" y1="433.86" x2="632.98" y2="369.06" style="stroke:#F0F0F0;stroke-width:9.72"/>
	<line x1="632.98" y1="336.66" x2="632.98" y2="271.86" style="stroke:#F0F0F0;stroke-width:9.72"/>
	<line x1="632.98" y1="239.46" x2="632.98" y2="174.66" style="stroke:#F0F0F0;stroke-width:9.72"/>
	<line x1="632.98" y1="142.26" x2="632.98" y2="113.40" style="stroke:#F0F0F0;stroke-width:9.72"/>
	<line x1="1164.04" y1="2766.66" x2="1164.04" y2="2701.86" style="stroke:#F0F0F0;stroke-width:9.72"/>
	<line x1="1164.04" y1="2669.46" x2="1164.04" y2="2604.66" style="stroke:#F0F0F0;stroke-width:9.72"/>
	<line x1="1164.04" y1="2572.26" x2="1164.04" y2="2507.46" style="stroke:#F0F0F0;stroke-width:9.72"/>
	<line x1="1164.04" y1="2475.06" x2="1164.04" y2="2410.26" style="stroke:#F0F0F0;stroke-width:9.72"/>
	<line x1="1164.04" y1="2377.86" x2="1164.04" y2="2313.06" style="stroke:#F0F0F0;stroke-width:9.72"/>
	<line x1="1164.04" y1="2280.66" x2="1164.04" y2="2215.86" style="stroke:#F0F0F0;stroke-width:9.72"/>
	<line x1="1164.04" y1="2183.46" x2="1164.04" y2="2118.66" style="stroke:#F0F0F0;stroke-width:9.72"/>
	<line x1="1164.04" y1="2086.26" x2="1164.04" y2="2021.46" style="stroke:#F0F0F0;stroke-width:9.72"/>
	<line x1="1164.04" y1="1989.06" x2="1164.04" y2="1924.26" style="stroke:#F0F0F0;stroke-width:9.72"/>
	<line x1="1164.04" y1="1891.86" x2="1164.04" y2="1827.06" style="stroke:#F0F0F0;stroke-width:9.72"/>
	<line x1="1164.04" y1="1794.66" x2="1164.04" y2="1729.86" style="stroke:#F0F0F0;stroke-width:9.72"/>
	<line x1="1164.04" y1="1697.46" x2="1164.04" y2="1632.66" style="stroke:#F0F0F0;stroke-width:9.72"/>
	<line x1="1164.04" y1="1600.26" x2="1164.04" y2="1535.46" style="stroke:#F0F0F0;stroke-width:9.72"/>
	<line x1="1164.04" y1="1503.06" x2="1164.04" y2="1438.26" style="stroke:#F0F0F0;stroke-width:9.72"/>
	<line x1="1164.04" y1="1405.86" x2="1164.04" y2="1341.06" style="stroke:#F0F0F0;stroke-width:9.72"/>
	<line x1="1164.04" y1="1308.66" x2="1164.04" y2="1243.86" style="stroke:#F0F0F0;stroke-width:9.72"/>
	<line x1="1164.04" y1="1211.46" x2="1164.04" y2="1146.66" style="stroke:#F0F0F0;stroke-width:9.72"/>
	<line x1="1164.04" y1="1114.26" x2="1164.04" y2="1049.46" style="stroke:#F0F0F0;stroke-width:9.72"/>
	<line x1="1164.04" y1="1017.06" x2="1164.04" y2="952.26" style="stroke:#F0F0F0;stroke-width:9.72"/>
	<line x1="1164.04" y1="919.86" x2="1164.04" y2="855.06" style="stroke:#F0F0F0;stroke-width:9.72"/>
	<line x1="1164.04" y1="822.66" x2="1164.04" y2="757.86" style="stroke:#F0F0F0;stroke-width:9.72"/>
	<line x1="1164.04" y1="725.46" x2="1164.04" y2="660.66" style="stroke:#F0F0F0;stroke-width:9.72"/>
	<line x1="1164.04" y1="628.26" x2="1164.04" y2="563.46" style="stroke:#F0F0F0;stroke-width:9.72"/>
	<line x1="1164.04" y1="531.06" x2="1164.04" y2="466.26" style="stroke:#F0F0F0;stroke-width:9.72"/>
	<line x1="1164.04" y1="433.86" x2="1164.04" y2="369.06" style="stroke:#F0F0F0;stroke-width:9.72"/>
	<line x1="1164.04" y1="336.66" x2="1164.04" y2="271.86" style="stroke:#F0F0F0;stroke-width:9.72"/>
	<line x1="1164.04" y1="239.46" x2="1164.04" y2="174.66" style="stroke:#F0F0F0;stroke-width:9.72"/>
	<line x1="1164.04" y1="142.26" x2="1164.04" y2="113.40" style="stroke:#F0F0F0;stroke-width:9.72"/>
	<line x1="1695.09" y1="2766.66" x2="1695.09" y2="2701.86" style="stroke:#F0F0F0;stroke-width:9.72"/>
	<line x1="1695.09" y1="2669.46" x2="1695.09" y2="2604.66" style="stroke:#F0F0F0;stroke-width:9.72"/>
	<line x1="1695.09" y1="2572.26" x2="1695.09" y2="2507.46" style="stroke:#F0F0F0;stroke-width:9.72"/>
	<line x1="1695.09" y1="2475.06" x2="1695.09" y2="2410.26" style="stroke:#F0F0F0;stroke-width:9.72"/>
	<line x1="1695.09" y1="2377.86" x2="1695.09" y2="2313.06" style="stroke:#F0F0F0;stroke-width:9.72"/>
	<line x1="1695.09" y1="2280.66" x2="1695.09" y2="2215.86" style="stroke:#F0F0F0;stroke-width:9.72"/>
	<line x1="1695.09" y1="2183.46" x2="1695.09" y2="2118.66" style="stroke:#F0F0F0;stroke-width:9.72"/>
	<line x1="1695.09" y1="2086.26" x2="1695.09" y2="2021.46" style="stroke:#F0F0F0;stroke-width:9.72"/>
	<line x1="1695.09" y1="1989.06" x2="1695.09" y2="1924.26" style="stroke:#F0F0F0;stroke-width:9.72"/>
	<line x1="1695.09" y1="1891.86" x2="1695.09" y2="1827.06" style="stroke:#F0F0F0;stroke-width:9.72"/>
	<line x1="1695.09" y1="1794.66" x2="1695.09" y2="1729.86" style="stroke:#F0F0F0;stroke-width:9.72"/>
	<line x1="1695.09" y1="1697.46" x2="1695.09" y2="1632.66" style="stroke:#F0F0F0;stroke-width:9.72"/>
	<line x1="1695.09" y1="1600.26" x2="1695.09" y2="1535.46" style="stroke:#F0F0F0;stroke-width:9.72"/>
	<line x1="1695.09" y1="1503.06" x2="1695.09" y2="1438.26" style="stroke:#F0F0F0;stroke-width:9.72"/>
	<line x1="1695.09" y1="1405.86" x2="1695.09" y2="1341.06" style="stroke:#F0F0F0;stroke-width:9.72"/>
	<line x1="1695.09" y1="1308.66" x2="1695.09" y2="1243.86" style="stroke:#F0F0F0;stroke-width:9.72"/>
	<line x1="1695.09" y1="1211.46" x2="1695.09" y2="1146.66" style="stroke:#F0F0F0;stroke-width:9.72"/>
	<line x1="1695.09" y1="1114.26" x2="1695.09" y2="1049.46" style="stroke:#F0F0F0;stroke-width:9.72"/>
	<line x1="1695.09" y1="1017.06" x2="1695.09" y2="952.26" style="stroke:#F0F0F0;stroke-width:9.72"/>
	<line x1="1695.09" y1="919.86" x2="1695.09" y2="855.06" style="stroke:#F0F0F0;stroke-width:9.72"/>
	<line x1="1695.09" y1="822.66" x2="1695.09" y2="757.86" style="stroke:#F0F0F0;stroke-width:9.72"/>
	<line x1="1695.09" y1="725.46" x2="1695.09" y2="660.66" style="stroke:#F0F0F0;stroke-width:9.72"/>
	<line x1="1695.09" y1="628.26" x2="1695.09" y2="563.46" style="stroke:#F0F0F0;stroke-width:9.72"/>
	<line x1="1695.09" y1="531.06" x2="1695.09" y2="466.26" style="stroke:#F0F0F0;stroke-width:9.72"/>
	<line x1="1695.09" y1="433.86" x2="1695.09" y2="369.06" style="stroke:#F0F0F0;stroke-width:9.72"/>
	<line x1="1695.09" y1="336.66" x2="1695.09" y2="271.86" style="stroke:#F0F0F0;stroke-width:9.72"/>
	<line x1="1695.09" y1="239.46" x2="1695.09" y2="174.66" style="stroke:#F0F0F0;stroke-width:9.72"/>
	<line x1="1695.09" y1="142.26" x2="1695.09" y2="113.40" style="stroke:#F0F0F0;stroke-width:9.72"/>
	<line x1="2225.98" y1="2766.66" x2="2225.98" y2="2701.86" style="stroke:#F0F0F0;stroke-width:9.72"/>
	<line x1="2225.98" y1="2669.46" x2="2225.98" y2="2604.66" style="stroke:#F0F0F0;stroke-width:9.72"/>
	<line x1="2225.98" y1="2572.26" x2="2225.98" y2="2507.46" style="stroke:#F0F0F0;stroke-width:9.72"/>
	<line x1="2225.98" y1="2475.06" x2="2225.98" y2="2410.26" style="stroke:#F0F0F0;stroke-width:9.72"/>
	<line x1="2225.98" y1="2377.86" x2="2225.98" y2="2313.06" style="stroke:#F0F0F0;stroke-width:9.72"/>
	<line x1="2225.98" y1="2280.66" x2="2225.98" y2="2215.86" style="stroke:#F0F0F0;stroke-width:9.72"/>
	<line x1="2225.98" y1="2183.46" x2="2225.98" y2="2118.66" style="stroke:#F0F0F0;stroke-width:9.72"/>
	<line x1="2225.98" y1="2086.26" x2="2225.98" y2="2021.46" style="stroke:#F0F0F0;stroke-width:9.72"/>
	<line x1="2225.98" y1="1989.06" x2="2225.98" y2="1924.26" style="stroke:#F0F0F0;stroke-width:9.72"/>
	<line x1="2225.98" y1="1891.86" x2="2225.98" y2="1827.06" style="stroke:#F0F0F0;stroke-width:9.72"/>
	<line x1="2225.98" y1="1794.66" x2="2225.98" y2="1729.86" style="stroke:#F0F0F0;stroke-width:9.72"/>
	<line x1="2225.98" y1="1697.46" x2="2225.98" y2="1632.66" style="stroke:#F0F0F0;stroke-width:9.72"/>
	<line x1="2225.98" y1="1600.26" x2="2225.98" y2="1535.46" style="stroke:#F0F0F0;stroke-width:9.72"/>
	<line x1="2225.98" y1="1503.06" x2="2225.98" y2="1438.26" style="stroke:#F0F0F0;stroke-width:9.72"/>
	<line x1="2225.98" y1="1405.86" x2="2225.98" y2="1341.06" style="stroke:#F0F0F0;stroke-width:9.72"/>
	<line x1="2225.98" y1="1308.66" x2="2225.98" y2="1243.86" style="stroke:#F0F0F0;stroke-width:9.72"/>
	<line x1="2225.98" y1="1211.46" x2="2225.98" y2="1146.66" style="stroke:#F0F0F0;stroke-width:9.72"/>
	<line x1="2225.98" y1="1114.26" x2="2225.98" y2="1049.46" style="stroke:#F0F0F0;stroke-width:9.72"/>
	<line x1="2225.98" y1="1017.06" x2="2225.98" y2="952.26" style="stroke:#F0F0F0;stroke-width:9.72"/>
	<line x1="2225.98" y1="919.86" x2="2225.98" y2="855.06" style="stroke:#F0F0F0;stroke-width:9.72"/>
	<line x1="2225.98" y1="822.66" x2="2225.98" y2="757.86" style="stroke:#F0F0F0;stroke-width:9.72"/>
	<line x1="2225.98" y1="725.46" x2="2225.98" y2="660.66" style="stroke:#F0F0F0;stroke-width:9.72"/>
	<line x1="2225.98" y1="628.26" x2="2225.98" y2="563.46" style="stroke:#F0F0F0;stroke-width:9.72"/>
	<line x1="2225.98" y1="531.06" x2="2225.98" y2="466.26" style="stroke:#F0F0F0;stroke-width:9.72"/>
	<line x1="2225.98" y1="433.86" x2="2225.98" y2="369.06" style="stroke:#F0F0F0;stroke-width:9.72"/>
	<line x1="2225.98" y1="336.66" x2="2225.98" y2="271.86" style="stroke:#F0F0F0;stroke-width:9.72"/>
	<line x1="2225.98" y1="239.46" x2="2225.98" y2="174.66" style="stroke:#F0F0F0;stroke-width:9.72"/>
	<line x1="2225.98" y1="142.26" x2="2225.98" y2="113.40" style="stroke:#F0F0F0;stroke-width:9.72"/>
	<line x1="2757.04" y1="2766.66" x2="2757.04" y2="2701.86" style="stroke:#F0F0F0;stroke-width:9.72"/>
	<line x1="2757.04" y1="2669.46" x2="2757.04" y2="2604.66" style="stroke:#F0F0F0;stroke-width:9.72"/>
	<line x1="2757.04" y1="2572.26" x2="2757.04" y2="2507.46" style="stroke:#F0F0F0;stroke-width:9.72"/>
	<line x1="2757.04" y1="2475.06" x2="2757.04" y2="2410.26" style="stroke:#F0F0F0;stroke-width:9.72"/>
	<line x1="2757.04" y1="2377.86" x2="2757.04" y2="2313.06" style="stroke:#F0F0F0;stroke-width:9.72"/>
	<line x1="2757.04" y1="2280.66" x2="2757.04" y2="2215.86" style="stroke:#F0F0F0;stroke-width:9.72"/>
	<line x1="2757.04" y1="2183.46" x2="2757.04" y2="2118.66" style="stroke:#F0F0F0;stroke-width:9.72"/>
	<line x1="2757.04" y1="2086.26" x2="2757.04" y2="2021.46" style="stroke:#F0F0F0;stroke-width:9.72"/>
	<line x1="2757.04" y1="1989.06" x2="2757.04" y2="1924.26" style="stroke:#F0F0F0;stroke-width:9.72"/>
	<line x1="2757.04" y1="1891.86" x2="2757.04" y2="1827.06" style="stroke:#F0F0F0;stroke-width:9.72"/>
	<line x1="2757.04" y1="1794.66" x2="2757.04" y2="1729.86" style="stroke:#F0F0F0;stroke-width:9.72"/>
	<line x1="2757.04" y1="1697.46" x2="2757.04" y2="1632.66" style="stroke:#F0F0F0;stroke-width:9.72"/>
	<line x1="2757.04" y1="1600.26" x2="2757.04" y2="1535.46" style="stroke:#F0F0F0;stroke-width:9.72"/>
	<line x1="2757.04" y1="1503.06" x2="2757.04" y2="1438.26" style="stroke:#F0F0F0;stroke-width:9.72"/>
	<line x1="2757.04" y1="1405.86" x2="2757.04" y2="1341.06" style="stroke:#F0F0F0;stroke-width:9.72"/>
	<line x1="2757.04" y1="1308.66" x2="2757.04" y2="1243.86" style="stroke:#F0F0F0;stroke-width:9.72"/>
	<line x1="2757.04" y1="1211.46" x2="2757.04" y2="1146.66" style="stroke:#F0F0F0;stroke-width:9.72"/>
	<line x1="2757.04" y1="1114.26" x2="2757.04" y2="1049.46" style="stroke:#F0F0F0;stroke-width:9.72"/>
	<line x1="2757.04" y1="1017.06" x2="2757.04" y2="952.26" style="stroke:#F0F0F0;stroke-width:9.72"/>
	<line x1="2757.04" y1="919.86" x2="2757.04" y2="855.06" style="stroke:#F0F0F0;stroke-width:9.72"/>
	<line x1="2757.04" y1="822.66" x2="2757.04" y2="757.86" style="stroke:#F0F0F0;stroke-width:9.72"/>
	<line x1="2757.04" y1="725.46" x2="2757.04" y2="660.66" style="stroke:#F0F0F0;stroke-width:9.72"/>
	<line x1="2757.04" y1="628.26" x2="2757.04" y2="563.46" style="stroke:#F0F0F0;stroke-width:9.72"/>
	<line x1="2757.04" y1="531.06" x2="2757.04" y2="466.26" style="stroke:#F0F0F0;stroke-width:9.72"/>
	<line x1="2757.04" y1="433.86" x2="2757.04" y2="369.06" style="stroke:#F0F0F0;stroke-width:9.72"/>
	<line x1="2757.04" y1="336.66" x2="2757.04" y2="271.86" style="stroke:#F0F0F0;stroke-width:9.72"/>
	<line x1="2757.04" y1="239.46" x2="2757.04" y2="174.66" style="stroke:#F0F0F0;stroke-width:9.72"/>
	<line x1="2757.04" y1="142.26" x2="2757.04" y2="113.40" style="stroke:#F0F0F0;stroke-width:9.72"/>
	<path d=" M761.91 2693.59 L764.78 2692.07 L767.64 2689.88 L770.51 2686.33 L773.38 2681.27 L776.25 2674.01 L779.12 2664.39 L781.99 2652.08 L784.86 2637.06 L787.73 2619.68 L790.59 2600.94 L793.46 2581.71 L796.33 2563.65 L799.20 2548.46 L802.07 2537.49 L804.94 2532.09 L807.81 2532.60 L810.68 2539.01 L813.54 2550.82 L816.41 2566.52 L819.28 2584.91 L822.15 2604.15 L825.02 2622.71 L827.89 2639.76 L830.76 2654.27 L833.63 2666.08 L836.49 2675.36 L839.36 2682.11 L842.23 2687.01 L845.10 2690.21 L847.97 2692.41 L850.84 2693.76 L853.71 2694.43 L856.58 2694.94 L859.44 2695.11 L862.31 2695.28 L865.18 2695.28 L868.05 2695.44 L870.92 2695.44 L873.79 2695.44 L876.66 2695.44 L879.53 2695.44 L882.39 2695.44 L885.26 2695.44 L888.13 2695.44 L891.00 2695.44 L893.87 2695.44 L896.74 2695.44 L899.61 2695.44 L902.48 2695.44 L905.34 2695.44 L908.21 2695.44 L911.08 2695.44 L913.95 2695.44 L916.82 2695.44 L919.69 2695.44 L922.56 2695.44 L925.43 2695.44 L928.29 2695.44 L931.16 2695.44 L934.03 2695.44 L936.90 2695.44 L939.77 2695.44 L942.64 2695.44 L945.51 2695.44 L948.38 2695.44 L951.24 2695.44 L954.11 2695.44 L956.98 2695.44 L959.85 2695.44 L962.72 2695.44 L965.59 2695.44 L968.46 2695.44 L971.33 2695.44 L974.19 2695.44 L977.06 2695.44 L979.93 2695.44 L982.80 2695.44 L985.67 2695.44 L988.54 2695.44 L991.41 2695.44 L994.28 2695.44 L997.14 2695.44 L1000.01 2695.44 L1002.88 2695.44 L1005.75 2695.44 L1008.62 2695.44 L1011.49 2695.44 L1014.36 2695.44 L1017.23 2695.44 L1020.09 2695.44 L1022.96 2695.44 L1025.83 2695.44 L1028.70 2695.44 L1031.57 2695.44 L1034.44 2695.44 L1037.31 2695.44 L1040.18 2695.44 L1043.04 2695.44 L1045.91 2695.44 L1048.78 2695.44 L1051.65 2695.44 L1054.52 2695.44 L1057.39 2695.44 L1060.26 2695.44 L1063.13 2695.44 L1065.99 2695.44 L1068.86 2695.44 L1071.73 2695.44 L1074.60 2695.44 L1077.47 2695.44 L1080.34 2695.44 L1083.21 2695.44 L1086.08 2695.44 L1088.94 2695.44 L1091.81 2695.44 L1094.68 2695.44 L1097.55 2695.44 L1100.42 2695.44 L1103.29 2695.44 L1106.16 2695.44 L1109.03 2695.44 L1111.89 2695.44 L1114.76 2695.28 L1117.63 2695.28 L1120.50 2695.11 L1123.37 2694.94 L1126.24 2694.43 L1129.11 2693.59 L1131.97 2692.07 L1134.84 2689.88 L1137.71 2686.33 L1140.58 2681.27 L1143.45 2674.01 L1146.32 2664.39 L1149.19 2652.08 L1152.06 2637.06 L1154.93 2619.68 L1157.79 2600.94 L1160.66 2581.71 L1163.53 2563.82 L1166.40 2548.46 L1169.27 2537.49 L1172.14 2532.09 L1175.01 2532.60 L1177.88 2539.01 L1180.74 2550.66 L1183.61 2566.52 L1186.48 2584.74 L1189.35 2603.98 L1192.22 2622.71 L1195.26 2639.59 L1198.13 2654.27 L1200.99 2666.08 L1203.86 2675.36 L1206.73 2682.11 L1209.60 2687.01 L1212.47 2690.21 L1215.34 2692.41 L1218.21 2693.76 L1221.08 2694.43 L1223.94 2694.94 L1226.81 2695.11 L1229.68 2695.28 L1232.55 2695.28 L1235.42 2695.44 L1238.29 2695.44 L1241.16 2695.44 L1244.03 2695.44 L1246.89 2695.44 L1249.76 2695.44 L1252.63 2695.44 L1255.50 2695.44 L1258.37 2695.44 L1261.24 2695.28 L1264.11 2695.28 L1266.97 2695.11 L1269.84 2694.77 L1272.71 2694.09 L1275.58 2693.25 L1278.45 2691.56 L1281.32 2688.86 L1284.19 2684.98 L1287.06 2679.24 L1289.93 2671.31 L1292.79 2660.85 L1295.66 2647.52 L1298.53 2631.66 L1301.40 2613.60 L1304.27 2594.53 L1307.14 2575.46 L1310.01 2558.08 L1312.88 2543.91 L1315.74 2534.63 L1318.61 2530.91 L1321.48 2533.61 L1324.35 2542.05 L1327.22 2555.38 L1330.09 2572.26 L1332.96 2591.16 L1335.83 2610.23 L1338.69 2628.28 L1341.56 2644.31 L1344.43 2657.31 L1347.30 2667.26 L1350.17 2673.84 L1353.04 2677.05 L1355.91 2677.22 L1358.78 2673.84 L1361.64 2667.43 L1364.51 2657.48 L1367.38 2644.48 L1370.25 2628.62 L1373.12 2610.56 L1375.99 2591.32 L1378.86 2572.43 L1381.73 2555.55 L1384.59 2542.05 L1387.46 2533.61 L1390.33 2530.91 L1393.20 2534.46 L1396.07 2543.74 L1398.94 2557.74 L1401.81 2575.13 L1404.68 2594.19 L1407.54 2613.43 L1410.41 2631.49 L1413.28 2647.35 L1416.15 2660.68 L1419.02 2671.14 L1421.89 2679.24 L1424.76 2684.98 L1427.63 2688.86 L1430.49 2691.56 L1433.36 2693.08 L1436.23 2694.09 L1439.10 2694.77 L1441.97 2695.11 L1444.84 2695.28 L1447.71 2695.28 L1450.58 2695.44 L1453.44 2695.44 L1456.31 2695.44 L1459.18 2695.44 L1462.05 2695.44 L1464.92 2695.44 L1467.79 2695.44 L1470.66 2695.44 L1473.53 2695.44 L1476.39 2695.28 L1479.26 2695.28 L1482.13 2695.11 L1485.00 2694.94 L1487.87 2694.43 L1490.74 2693.76 L1493.61 2692.41 L1496.48 2690.38 L1499.34 2687.18 L1502.21 2682.45 L1505.08 2675.87 L1507.95 2666.76 L1510.82 2655.11 L1513.69 2640.60 L1516.56 2623.73 L1519.43 2605.16 L1522.29 2585.93 L1525.16 2567.36 L1528.03 2551.16 L1530.90 2538.84 L1533.77 2531.42 L1536.64 2529.39 L1539.51 2532.77 L1542.38 2540.53 L1545.24 2551.33 L1548.11 2562.98 L1550.98 2573.61 L1553.85 2580.86 L1556.72 2583.56 L1559.59 2580.53 L1562.46 2571.24 L1565.33 2556.23 L1568.19 2535.64 L1571.06 2510.16 L1573.93 2480.12 L1576.80 2445.53 L1579.67 2406.04 L1582.54 2360.81 L1585.41 2308.67 L1588.28 2249.44 L1591.14 2182.78 L1594.01 2110.39 L1596.88 2034.11 L1599.75 1957.16 L1602.62 1883.25 L1605.49 1816.26 L1608.36 1759.05 L1611.23 1713.83 L1614.09 1681.93 L1616.96 1663.20 L1619.83 1656.45 L1622.70 1660.33 L1625.57 1672.82 L1628.44 1691.55 L1631.31 1714.33 L1634.18 1739.48 L1637.04 1765.29 L1639.91 1790.78 L1642.78 1815.41 L1645.65 1839.88 L1648.52 1865.03 L1651.39 1892.03 L1654.26 1922.23 L1657.13 1956.15 L1659.99 1993.78 L1662.86 2033.78 L1665.73 2073.60 L1668.60 2110.22 L1671.64 2139.92 L1674.51 2159.32 L1677.38 2166.58 L1680.24 2160.51 L1683.11 2142.11 L1685.98 2114.27 L1688.85 2080.86 L1691.72 2046.77 L1694.59 2017.24 L1697.46 1996.82 L1700.33 1988.72 L1703.19 1995.47 L1706.06 2017.41 L1708.93 2053.69 L1711.80 2101.61 L1714.67 2158.31 L1717.54 2219.74 L1720.41 2281.67 L1723.28 2340.23 L1726.14 2391.19 L1729.01 2431.69 L1731.88 2458.69 L1734.75 2469.99 L1737.62 2464.43 L1740.49 2440.80 L1743.36 2399.12 L1746.23 2339.89 L1749.09 2264.63 L1751.96 2175.19 L1754.83 2074.61 L1757.70 1966.44 L1760.57 1854.90 L1763.44 1744.03 L1766.31 1637.72 L1769.18 1538.66 L1772.04 1448.72 L1774.91 1367.89 L1777.78 1294.99 L1780.65 1227.99 L1783.52 1164.04 L1786.39 1100.76 L1789.26 1036.63 L1792.13 971.16 L1794.99 906.02 L1797.86 844.43 L1800.73 791.61 L1803.60 753.30 L1806.47 735.75 L1809.34 744.02 L1812.21 781.31 L1815.08 847.97 L1817.94 940.78 L1820.81 1053.17 L1823.68 1176.02 L1826.55 1299.04 L1829.42 1411.59 L1832.29 1505.42 L1835.16 1574.94 L1838.03 1618.31 L1840.89 1637.21 L1843.76 1636.71 L1846.63 1622.87 L1849.50 1602.96 L1852.37 1582.88 L1855.24 1566.68 L1858.11 1556.72 L1860.98 1552.67 L1863.84 1553.34 L1866.71 1556.21 L1869.58 1559.59 L1872.45 1561.44 L1875.32 1561.44 L1878.19 1560.26 L1881.06 1559.08 L1883.93 1560.09 L1886.79 1565.16 L1889.66 1575.79 L1892.53 1593.17 L1895.40 1617.13 L1898.27 1646.83 L1901.14 1680.58 L1904.01 1716.19 L1906.88 1751.29 L1909.74 1783.86 L1912.61 1812.71 L1915.48 1837.86 L1918.35 1859.79 L1921.22 1880.38 L1924.09 1901.98 L1926.96 1926.79 L1929.83 1956.49 L1932.69 1992.09 L1935.56 2033.27 L1938.43 2078.16 L1941.30 2124.39 L1944.17 2168.78 L1947.04 2208.09 L1949.91 2239.99 L1952.78 2263.11 L1955.64 2277.79 L1958.51 2285.04 L1961.38 2287.57 L1964.25 2288.08 L1967.12 2289.09 L1969.99 2292.47 L1972.86 2299.39 L1975.73 2309.68 L1978.59 2322.51 L1981.46 2336.85 L1984.33 2351.36 L1987.20 2364.53 L1990.07 2375.83 L1992.94 2384.61 L1995.81 2390.85 L1998.68 2394.56 L2001.54 2395.74 L2004.41 2394.90 L2007.28 2392.03 L2010.15 2387.64 L2013.02 2381.74 L2015.89 2374.31 L2018.76 2365.88 L2021.63 2356.59 L2024.49 2346.47 L2027.36 2335.84 L2030.23 2325.38 L2033.10 2315.76 L2035.97 2307.32 L2038.84 2300.91 L2041.71 2297.03 L2044.58 2296.52 L2047.44 2299.39 L2050.31 2305.80 L2053.18 2315.59 L2056.05 2328.07 L2058.92 2342.76 L2061.79 2358.62 L2064.66 2374.82 L2067.53 2390.85 L2070.39 2406.38 L2073.26 2421.23 L2076.13 2436.07 L2079.00 2451.26 L2081.87 2467.80 L2084.74 2486.03 L2087.61 2506.28 L2090.48 2528.21 L2093.34 2551.33 L2096.21 2574.62 L2099.08 2597.06 L2101.95 2617.48 L2104.82 2635.03 L2107.69 2649.21 L2110.56 2659.33 L2113.43 2665.41 L2116.29 2667.43 L2119.16 2665.24 L2122.03 2658.83 L2124.90 2648.53 L2127.77 2634.69 L2130.64 2617.99 L2133.51 2598.92 L2136.38 2578.84 L2139.24 2559.09 L2142.11 2540.70 L2144.98 2524.67 L2148.02 2511.51 L2150.89 2500.88 L2153.76 2491.76 L2156.63 2482.99 L2159.49 2472.86 L2162.36 2460.04 L2165.23 2443.84 L2168.10 2424.60 L2170.97 2403.68 L2173.84 2383.43 L2176.71 2366.89 L2179.57 2356.76 L2182.44 2355.41 L2185.31 2364.02 L2188.18 2382.92 L2191.05 2410.43 L2193.92 2444.68 L2196.79 2482.65 L2199.66 2521.29 L2202.53 2557.91 L2205.39 2590.99 L2208.26 2618.83 L2211.13 2641.44 L2214.00 2658.66 L2216.87 2671.31 L2219.74 2680.26 L2222.61 2686.16 L2225.48 2690.04 L2228.34 2692.41" stroke-linejoin="round" style="fill:none;stroke:#1A85FF;stroke-width:9.72"/>
	<path d=" M717.53 2694.43 L720.56 2694.09 L723.60 2693.76 L726.81 2693.25 L729.84 2692.58 L732.88 2691.56 L735.92 2690.55 L738.96 2689.20 L741.99 2687.68 L745.03 2685.83 L748.07 2683.46 L751.11 2680.93 L754.14 2677.89 L757.18 2674.52 L760.22 2670.81 L763.26 2666.76 L766.29 2662.20 L769.33 2657.48 L772.37 2652.58 L775.41 2647.52 L778.44 2642.29 L781.48 2637.23 L784.52 2632.33 L787.56 2627.78 L790.59 2623.73 L793.63 2620.01 L796.67 2617.14 L799.71 2614.95 L802.74 2613.60 L805.78 2613.09 L808.82 2613.43 L811.86 2614.78 L814.89 2616.81 L817.93 2619.51 L821.14 2623.05 L824.18 2627.10 L827.21 2631.66 L830.25 2636.38 L833.29 2641.44 L836.33 2646.68 L839.36 2651.74 L842.40 2656.80 L845.44 2661.53 L848.48 2666.08 L851.51 2670.30 L854.55 2674.01 L857.59 2677.39 L860.63 2680.43 L863.66 2683.13 L866.70 2685.49 L869.74 2687.34 L872.78 2689.03 L875.81 2690.38 L878.85 2691.56 L881.89 2692.41 L884.93 2693.08 L887.96 2693.59 L891.00 2694.09 L894.04 2694.43 L897.08 2694.77 L900.11 2694.94 L903.15 2695.11 L906.19 2695.11 L909.23 2695.28 L912.26 2695.28 L915.47 2695.28 L918.51 2695.28 L921.54 2695.44 L924.58 2695.44 L927.62 2695.44 L930.66 2695.44 L933.69 2695.44 L936.73 2695.44 L939.77 2695.44 L942.81 2695.44 L945.84 2695.44 L948.88 2695.44 L951.92 2695.44 L954.96 2695.44 L957.99 2695.44 L961.03 2695.44 L964.07 2695.44 L967.11 2695.44 L970.14 2695.44 L973.18 2695.44 L976.22 2695.44 L979.26 2695.44 L982.29 2695.44 L985.33 2695.44 L988.37 2695.44 L991.41 2695.44 L994.44 2695.44 L997.48 2695.44 L1000.52 2695.44 L1003.56 2695.44 L1006.59 2695.44 L1009.80 2695.44 L1012.84 2695.44 L1015.88 2695.44 L1018.91 2695.44 L1021.95 2695.44 L1024.99 2695.44 L1028.03 2695.44 L1031.06 2695.44 L1034.10 2695.44 L1037.14 2695.44 L1040.18 2695.44 L1043.21 2695.44 L1046.25 2695.44 L1049.29 2695.44 L1052.33 2695.44 L1055.36 2695.44 L1058.40 2695.44 L1061.44 2695.28 L1064.47 2695.28 L1067.51 2695.28 L1070.55 2695.28 L1073.59 2695.11 L1076.63 2695.11 L1079.66 2694.94 L1082.70 2694.60 L1085.74 2694.43 L1088.78 2694.09 L1091.81 2693.59 L1094.85 2693.08 L1097.89 2692.24 L1100.93 2691.39 L1104.13 2690.21 L1107.17 2688.86 L1110.21 2687.18 L1113.24 2685.15 L1116.28 2682.79 L1119.32 2680.09 L1122.36 2677.05 L1125.39 2673.51 L1128.43 2669.79 L1131.47 2665.58 L1134.51 2661.02 L1137.54 2656.13 L1140.58 2651.06 L1143.62 2646.00 L1146.66 2640.94 L1149.69 2635.88 L1152.73 2630.98 L1155.77 2626.59 L1158.81 2622.54 L1161.84 2619.17 L1164.88 2616.47 L1167.92 2614.61 L1170.96 2613.43 L1173.99 2613.09 L1177.03 2613.77 L1180.07 2615.29 L1183.11 2617.48 L1186.14 2620.52 L1189.18 2624.23 L1192.22 2628.28 L1195.26 2633.01 L1198.29 2637.90 L1201.50 2642.96 L1204.54 2648.03 L1207.58 2653.09 L1210.61 2657.98 L1213.65 2662.71 L1216.69 2667.09 L1219.72 2670.98 L1222.76 2674.69 L1225.80 2677.73 L1228.84 2680.43 L1231.88 2682.79 L1234.91 2684.48 L1237.95 2685.99 L1240.99 2686.84 L1244.03 2687.34 L1247.06 2687.51 L1250.10 2687.18 L1253.14 2686.33 L1256.18 2685.15 L1259.21 2683.46 L1262.25 2681.44 L1265.29 2678.74 L1268.33 2675.87 L1271.36 2672.33 L1274.40 2668.61 L1277.44 2664.23 L1280.47 2659.67 L1283.51 2654.78 L1286.55 2649.71 L1289.59 2644.65 L1292.63 2639.42 L1295.83 2634.36 L1298.87 2629.29 L1301.91 2624.74 L1304.94 2620.52 L1307.98 2616.81 L1311.02 2613.77 L1314.06 2611.24 L1317.09 2609.55 L1320.13 2608.37 L1323.17 2607.86 L1326.21 2607.86 L1329.24 2608.37 L1332.28 2609.21 L1335.32 2610.39 L1338.36 2611.74 L1341.39 2612.93 L1344.43 2614.11 L1347.47 2615.12 L1350.51 2615.79 L1353.54 2615.96 L1356.58 2615.96 L1359.62 2615.46 L1362.66 2614.61 L1365.69 2613.60 L1368.73 2612.42 L1371.77 2611.07 L1374.81 2609.72 L1377.84 2608.71 L1380.88 2608.03 L1383.92 2607.69 L1386.96 2607.86 L1390.16 2608.54 L1393.20 2610.06 L1396.24 2612.08 L1399.28 2614.95 L1402.31 2618.32 L1405.35 2622.21 L1408.39 2626.59 L1411.43 2631.32 L1414.46 2636.38 L1417.50 2641.44 L1420.54 2646.68 L1423.58 2651.91 L1426.61 2656.97 L1429.65 2661.69 L1432.69 2666.08 L1435.73 2670.13 L1438.76 2673.84 L1441.80 2677.22 L1444.84 2679.92 L1447.88 2682.28 L1450.91 2684.31 L1453.95 2685.66 L1456.99 2686.67 L1460.03 2687.34 L1463.06 2687.51 L1466.10 2687.18 L1469.14 2686.50 L1472.18 2685.32 L1475.21 2683.80 L1478.25 2681.78 L1481.29 2679.24 L1484.49 2676.21 L1487.53 2672.66 L1490.57 2668.61 L1493.61 2664.06 L1496.64 2659.16 L1499.68 2653.59 L1502.72 2647.86 L1505.76 2641.61 L1508.79 2635.03 L1511.83 2628.11 L1514.87 2621.03 L1517.91 2613.60 L1520.94 2606.18 L1523.98 2598.41 L1527.02 2590.31 L1530.06 2582.04 L1533.09 2573.44 L1536.13 2564.16 L1539.17 2554.37 L1542.21 2543.91 L1545.24 2532.26 L1548.28 2519.44 L1551.32 2505.09 L1554.36 2489.23 L1557.39 2471.51 L1560.43 2451.77 L1563.47 2429.83 L1566.51 2405.87 L1569.54 2379.54 L1572.58 2351.19 L1575.62 2320.82 L1578.83 2288.76 L1581.86 2255.01 L1584.90 2220.24 L1587.94 2184.64 L1590.98 2148.69 L1594.01 2113.09 L1597.05 2077.99 L1600.09 2044.41 L1603.13 2012.34 L1606.16 1982.64 L1609.20 1955.48 L1612.24 1931.51 L1615.28 1910.76 L1618.31 1893.54 L1621.35 1880.04 L1624.39 1870.26 L1627.43 1864.18 L1630.46 1861.65 L1633.50 1862.49 L1636.54 1866.38 L1639.58 1873.13 L1642.61 1882.07 L1645.65 1893.21 L1648.69 1906.03 L1651.73 1919.87 L1654.76 1934.72 L1657.80 1949.91 L1660.84 1965.26 L1663.88 1980.62 L1666.91 1995.47 L1669.95 2009.98 L1673.16 2023.99 L1676.19 2037.32 L1679.23 2050.14 L1682.27 2062.46 L1685.31 2074.28 L1688.34 2085.75 L1691.38 2097.06 L1694.42 2108.03 L1697.46 2118.66 L1700.49 2129.12 L1703.53 2138.91 L1706.57 2148.02 L1709.61 2156.12 L1712.64 2162.87 L1715.68 2167.76 L1718.72 2170.13 L1721.76 2169.79 L1724.79 2165.91 L1727.83 2158.14 L1730.87 2145.99 L1733.91 2129.12 L1736.94 2107.18 L1739.98 2080.01 L1743.02 2047.61 L1746.06 2010.15 L1749.09 1967.79 L1752.13 1921.05 L1755.17 1870.26 L1758.21 1816.26 L1761.24 1759.56 L1764.28 1701.17 L1767.49 1641.94 L1770.53 1582.71 L1773.56 1524.49 L1776.60 1468.13 L1779.64 1414.63 L1782.68 1364.85 L1785.71 1319.29 L1788.75 1278.96 L1791.79 1244.19 L1794.83 1215.51 L1797.86 1193.23 L1800.90 1177.37 L1803.94 1168.09 L1806.98 1165.05 L1810.01 1168.09 L1813.05 1176.69 L1816.09 1190.19 L1819.13 1207.91 L1822.16 1229.34 L1825.20 1253.47 L1828.24 1279.63 L1831.28 1306.97 L1834.31 1334.81 L1837.35 1362.49 L1840.39 1389.49 L1843.43 1415.31 L1846.46 1439.78 L1849.50 1462.39 L1852.54 1483.31 L1855.58 1502.38 L1858.61 1519.93 L1861.82 1535.96 L1864.86 1550.81 L1867.89 1564.82 L1870.93 1578.15 L1873.97 1591.31 L1877.01 1604.64 L1880.04 1618.14 L1883.08 1632.32 L1886.12 1647.34 L1889.16 1663.37 L1892.19 1680.58 L1895.23 1698.98 L1898.27 1718.55 L1901.31 1739.48 L1904.34 1761.58 L1907.38 1784.70 L1910.42 1809.00 L1913.46 1834.14 L1916.49 1860.13 L1919.53 1886.63 L1922.57 1913.63 L1925.61 1940.96 L1928.64 1968.30 L1931.68 1995.47 L1934.72 2022.30 L1937.76 2048.79 L1940.79 2074.61 L1943.83 2099.59 L1946.87 2123.55 L1949.91 2146.67 L1952.94 2168.44 L1956.15 2189.03 L1959.19 2208.43 L1962.23 2226.49 L1965.26 2243.19 L1968.30 2258.55 L1971.34 2272.56 L1974.38 2285.38 L1977.41 2296.86 L1980.45 2306.98 L1983.49 2315.93 L1986.53 2323.86 L1989.56 2330.61 L1992.60 2336.18 L1995.64 2340.90 L1998.68 2344.44 L2001.71 2347.31 L2004.75 2349.34 L2007.79 2350.69 L2010.83 2351.36 L2013.86 2351.70 L2016.90 2351.53 L2019.94 2351.36 L2022.98 2351.03 L2026.01 2350.86 L2029.05 2350.86 L2032.09 2351.36 L2035.13 2352.38 L2038.16 2354.23 L2041.20 2356.76 L2044.24 2360.14 L2047.28 2364.69 L2050.31 2370.09 L2053.52 2376.68 L2056.56 2384.10 L2059.59 2392.71 L2062.63 2402.32 L2065.67 2412.62 L2068.71 2423.76 L2071.74 2435.57 L2074.78 2447.89 L2077.82 2460.54 L2080.86 2473.37 L2083.89 2486.19 L2086.93 2498.68 L2089.97 2511.00 L2093.01 2522.48 L2096.04 2533.28 L2099.08 2543.06 L2102.12 2551.84 L2105.16 2559.26 L2108.19 2565.34 L2111.23 2569.89 L2114.27 2572.93 L2117.31 2574.45 L2120.34 2574.45 L2123.38 2573.10 L2126.42 2570.23 L2129.46 2566.01 L2132.49 2560.78 L2135.53 2554.37 L2138.57 2547.28 L2141.61 2539.69 L2144.64 2531.59 L2147.85 2523.32 L2150.89 2515.22 L2153.93 2507.46 L2156.96 2500.20 L2160.00 2493.79 L2163.04 2488.39 L2166.07 2484.17 L2169.11 2481.30 L2172.15 2479.78 L2175.19 2480.12 L2178.23 2481.81 L2181.26 2485.35 L2184.30 2490.41 L2187.34 2496.99 L2190.38 2505.09 L2193.41 2514.38 L2196.45 2524.67 L2199.49 2535.81 L2202.53 2547.62 L2205.56 2559.77 L2208.60 2572.09 L2211.64 2584.41 L2214.68 2596.39 L2217.71 2608.03 L2220.75 2619.00 L2223.79 2629.13 L2226.82 2638.58 L2229.86 2647.18 L2232.90 2654.94 L2235.94 2661.69 L2238.98 2667.60 L2242.18 2672.83 L2245.22 2677.22 L2248.26 2680.93 L2251.29 2683.97 L2254.33 2686.33 L2257.37 2688.53 L2260.41 2690.04 L2263.44 2691.39 L2266.48 2692.41 L2269.52 2693.08 L2272.56 2693.76" stroke-linejoin="round" style="fill:none;stroke:#D41159;stroke-width:9.72"/>
	<path d=" M629.10 2694.94 L632.48 2694.94 L635.85 2694.77 L639.23 2694.60 L642.60 2694.60 L646.14 2694.43 L649.52 2694.26 L652.89 2693.93 L656.27 2693.76 L659.64 2693.59 L663.02 2693.25 L666.39 2692.91 L669.77 2692.58 L673.14 2692.24 L676.52 2691.73 L679.89 2691.23 L683.27 2690.72 L686.81 2690.04 L690.19 2689.37 L693.56 2688.69 L696.94 2688.02 L700.31 2687.18 L703.69 2686.33 L707.06 2685.32 L710.44 2684.31 L713.81 2683.29 L717.19 2682.11 L720.56 2680.93 L723.94 2679.75 L727.48 2678.57 L730.86 2677.22 L734.23 2675.87 L737.61 2674.52 L740.98 2673.00 L744.36 2671.65 L747.73 2670.13 L751.11 2668.78 L754.48 2667.26 L757.86 2665.91 L761.23 2664.56 L764.61 2663.21 L768.15 2662.03 L771.53 2660.68 L774.90 2659.67 L778.28 2658.66 L781.65 2657.64 L785.03 2656.80 L788.40 2656.13 L791.78 2655.45 L795.15 2654.94 L798.53 2654.61 L801.90 2654.44 L805.28 2654.27 L808.82 2654.27 L812.19 2654.44 L815.57 2654.78 L818.94 2655.28 L822.32 2655.79 L825.69 2656.46 L829.07 2657.31 L832.44 2658.15 L835.82 2659.16 L839.19 2660.34 L842.57 2661.53 L845.94 2662.71 L849.49 2664.06 L852.86 2665.41 L856.24 2666.76 L859.61 2668.11 L862.99 2669.63 L866.36 2670.98 L869.74 2672.49 L873.11 2673.84 L876.49 2675.19 L879.86 2676.54 L883.24 2677.89 L886.61 2679.24 L890.16 2680.43 L893.53 2681.61 L896.91 2682.79 L900.28 2683.97 L903.66 2684.98 L907.03 2685.83 L910.41 2686.84 L913.78 2687.68 L917.16 2688.36 L920.53 2689.20 L923.91 2689.88 L927.45 2690.38 L930.83 2691.06 L934.20 2691.56 L937.58 2691.90 L940.95 2692.41 L944.33 2692.74 L947.70 2693.08 L951.08 2693.42 L954.45 2693.59 L957.83 2693.93 L961.20 2694.09 L964.58 2694.26 L968.12 2694.43 L971.49 2694.43 L974.87 2694.60 L978.24 2694.60 L981.62 2694.77 L984.99 2694.77 L988.37 2694.77 L991.74 2694.77 L995.12 2694.77 L998.49 2694.77 L1001.87 2694.60 L1005.24 2694.60 L1008.79 2694.43 L1012.16 2694.26 L1015.54 2694.26 L1018.91 2694.09 L1022.29 2693.76 L1025.66 2693.59 L1029.04 2693.25 L1032.41 2693.08 L1035.79 2692.74 L1039.16 2692.24 L1042.54 2691.90 L1045.91 2691.39 L1049.46 2690.89 L1052.83 2690.38 L1056.21 2689.71 L1059.58 2689.03 L1062.96 2688.36 L1066.33 2687.51 L1069.71 2686.67 L1073.08 2685.66 L1076.46 2684.64 L1079.83 2683.63 L1083.21 2682.62 L1086.58 2681.44 L1090.13 2680.26 L1093.50 2678.91 L1096.88 2677.73 L1100.25 2676.38 L1103.63 2674.86 L1107.00 2673.51 L1110.38 2671.99 L1113.75 2670.64 L1117.13 2669.12 L1120.50 2667.77 L1123.88 2666.25 L1127.25 2664.90 L1130.79 2663.55 L1134.17 2662.20 L1137.54 2660.85 L1140.92 2659.67 L1144.29 2658.49 L1147.67 2657.31 L1151.04 2656.29 L1154.42 2655.45 L1157.79 2654.61 L1161.17 2653.93 L1164.54 2653.26 L1167.92 2652.75 L1171.46 2652.41 L1174.84 2652.08 L1178.21 2651.91 L1181.59 2651.74 L1184.96 2651.74 L1188.34 2651.91 L1191.71 2652.08 L1195.09 2652.24 L1198.46 2652.41 L1201.84 2652.75 L1205.21 2653.09 L1208.76 2653.43 L1212.13 2653.76 L1215.51 2654.10 L1218.88 2654.44 L1222.26 2654.61 L1225.63 2654.94 L1229.01 2655.11 L1232.38 2655.11 L1235.76 2655.28 L1239.13 2655.11 L1242.51 2655.11 L1245.88 2654.78 L1249.43 2654.44 L1252.80 2653.93 L1256.18 2653.43 L1259.55 2652.75 L1262.93 2652.08 L1266.30 2651.23 L1269.68 2650.39 L1273.05 2649.38 L1276.43 2648.19 L1279.80 2647.01 L1283.18 2645.83 L1286.55 2644.48 L1290.09 2643.30 L1293.47 2641.95 L1296.84 2640.60 L1300.22 2639.25 L1303.59 2637.90 L1306.97 2636.55 L1310.34 2635.37 L1313.72 2634.19 L1317.09 2633.01 L1320.47 2631.83 L1323.84 2630.81 L1327.22 2629.80 L1330.76 2628.96 L1334.14 2628.28 L1337.51 2627.61 L1340.89 2627.10 L1344.26 2626.59 L1347.64 2626.26 L1351.01 2626.09 L1354.39 2626.09 L1357.76 2626.09 L1361.14 2626.26 L1364.51 2626.59 L1367.89 2626.93 L1371.43 2627.44 L1374.81 2628.11 L1378.18 2628.79 L1381.56 2629.63 L1384.93 2630.48 L1388.31 2631.32 L1391.68 2632.33 L1395.06 2633.51 L1398.43 2634.53 L1401.81 2635.71 L1405.18 2636.72 L1408.56 2637.90 L1412.10 2638.91 L1415.48 2639.93 L1418.85 2640.94 L1422.23 2641.78 L1425.60 2642.46 L1428.98 2643.13 L1432.35 2643.47 L1435.73 2643.81 L1439.10 2643.81 L1442.48 2643.64 L1445.85 2643.30 L1449.23 2642.63 L1452.77 2641.61 L1456.14 2640.43 L1459.52 2638.74 L1462.89 2636.72 L1466.27 2634.36 L1469.64 2631.49 L1473.02 2628.28 L1476.39 2624.57 L1479.77 2620.35 L1483.14 2615.63 L1486.52 2610.39 L1490.06 2604.66 L1493.44 2598.41 L1496.81 2591.49 L1500.19 2584.07 L1503.56 2575.97 L1506.94 2567.36 L1510.31 2558.08 L1513.69 2548.29 L1517.06 2537.83 L1520.44 2526.86 L1523.81 2515.22 L1527.19 2502.90 L1530.73 2490.07 L1534.11 2476.74 L1537.48 2462.91 L1540.86 2448.39 L1544.23 2433.54 L1547.61 2418.36 L1550.98 2402.66 L1554.36 2386.63 L1557.73 2370.26 L1561.11 2353.73 L1564.48 2337.02 L1567.86 2320.31 L1571.40 2303.44 L1574.78 2286.56 L1578.15 2269.86 L1581.53 2253.15 L1584.90 2236.78 L1588.28 2220.75 L1591.65 2205.06 L1595.03 2189.70 L1598.40 2175.02 L1601.78 2160.68 L1605.15 2147.01 L1608.53 2134.01 L1612.07 2121.69 L1615.44 2110.05 L1618.82 2099.25 L1622.19 2089.13 L1625.57 2079.68 L1628.94 2071.07 L1632.32 2063.31 L1635.69 2056.22 L1639.07 2049.64 L1642.44 2043.90 L1645.82 2038.84 L1649.19 2034.11 L1652.74 2030.06 L1656.11 2026.18 L1659.49 2022.81 L1662.86 2019.77 L1666.24 2016.73 L1669.61 2013.69 L1672.99 2010.83 L1676.36 2007.62 L1679.74 2004.24 L1683.11 2000.70 L1686.49 1996.48 L1689.86 1991.93 L1693.41 1986.86 L1696.78 1980.96 L1700.16 1974.38 L1703.53 1966.95 L1706.91 1958.85 L1710.28 1949.57 L1713.66 1939.61 L1717.03 1928.64 L1720.41 1916.66 L1723.78 1903.84 L1727.16 1890.17 L1730.53 1875.49 L1734.08 1859.96 L1737.45 1843.76 L1740.83 1826.89 L1744.20 1809.34 L1747.58 1791.28 L1750.95 1772.72 L1754.33 1753.99 L1757.70 1734.92 L1761.08 1715.85 L1764.45 1696.95 L1767.83 1678.22 L1771.37 1659.66 L1774.74 1641.77 L1778.12 1624.22 L1781.49 1607.51 L1784.87 1591.65 L1788.24 1576.63 L1791.62 1562.79 L1794.99 1549.97 L1798.37 1538.33 L1801.74 1528.03 L1805.12 1519.09 L1808.49 1511.49 L1812.04 1505.25 L1815.41 1500.69 L1818.79 1497.49 L1822.16 1495.80 L1825.54 1495.46 L1828.91 1496.81 L1832.29 1499.51 L1835.66 1503.56 L1839.04 1509.13 L1842.41 1515.88 L1845.79 1523.98 L1849.16 1533.26 L1852.71 1543.73 L1856.08 1555.37 L1859.46 1568.03 L1862.83 1581.53 L1866.21 1596.04 L1869.58 1611.39 L1872.96 1627.43 L1876.33 1644.13 L1879.71 1661.51 L1883.08 1679.40 L1886.46 1697.79 L1889.83 1716.69 L1893.38 1735.93 L1896.75 1755.51 L1900.13 1775.42 L1903.50 1795.33 L1906.88 1815.58 L1910.25 1835.83 L1913.63 1856.08 L1917.00 1876.50 L1920.38 1896.75 L1923.75 1916.83 L1927.13 1936.91 L1930.50 1956.66 L1934.04 1976.23 L1937.42 1995.64 L1940.79 2014.54 L1944.17 2033.27 L1947.54 2051.66 L1950.92 2069.55 L1954.29 2086.93 L1957.67 2103.98 L1961.04 2120.68 L1964.42 2136.71 L1967.79 2152.41 L1971.17 2167.43 L1974.71 2181.94 L1978.09 2196.11 L1981.46 2209.61 L1984.84 2222.78 L1988.21 2235.26 L1991.59 2247.41 L1994.96 2259.06 L1998.34 2270.19 L2001.71 2280.99 L2005.09 2291.29 L2008.46 2301.24 L2011.84 2310.86 L2015.38 2319.98 L2018.76 2328.92 L2022.13 2337.53 L2025.51 2345.79 L2028.88 2353.89 L2032.26 2361.66 L2035.63 2369.42 L2039.01 2376.84 L2042.38 2383.93 L2045.76 2391.02 L2049.13 2397.94 L2052.68 2404.69 L2056.05 2411.27 L2059.43 2417.68 L2062.80 2424.09 L2066.18 2430.17 L2069.55 2436.24 L2072.93 2442.15 L2076.30 2447.72 L2079.68 2453.29 L2083.05 2458.69 L2086.43 2463.92 L2089.80 2468.81 L2093.34 2473.71 L2096.72 2478.43 L2100.09 2482.82 L2103.47 2487.04 L2106.84 2491.09 L2110.22 2494.97 L2113.59 2498.68 L2116.97 2502.23 L2120.34 2505.43 L2123.72 2508.64 L2127.09 2511.68 L2130.47 2514.71 L2134.01 2517.41 L2137.39 2520.11 L2140.76 2522.81 L2144.14 2525.51 L2147.51 2528.04 L2150.89 2530.57 L2154.26 2533.11 L2157.64 2535.81 L2161.01 2538.51 L2164.39 2541.21 L2167.76 2544.07 L2171.14 2546.94 L2174.68 2550.15 L2178.06 2553.36 L2181.43 2556.56 L2184.81 2560.11 L2188.18 2563.65 L2191.56 2567.36 L2194.93 2571.24 L2198.31 2575.29 L2201.68 2579.51 L2205.06 2583.73 L2208.43 2587.95 L2211.81 2592.34 L2215.35 2596.89 L2218.73 2601.28 L2222.10 2605.84 L2225.48 2610.39 L2228.85 2614.95 L2232.23 2619.34 L2235.60 2623.73 L2238.98 2628.11 L2242.35 2632.33 L2245.73 2636.55 L2249.10 2640.60 L2252.48 2644.48 L2256.02 2648.36 L2259.39 2651.91 L2262.77 2655.45 L2266.14 2658.66 L2269.52 2661.86 L2272.89 2664.73 L2276.27 2667.60 L2279.64 2670.13 L2283.02 2672.66 L2286.39 2674.86 L2289.77 2677.05 L2293.14 2678.91 L2296.69 2680.59 L2300.06 2682.28 L2303.44 2683.80 L2306.81 2685.15 L2310.19 2686.33 L2313.56 2687.51 L2316.94 2688.36 L2320.31 2689.37 L2323.69 2690.04 L2327.06 2690.89 L2330.44 2691.39 L2333.98 2692.07 L2337.36 2692.41 L2340.73 2692.91 L2344.11 2693.25 L2347.48 2693.59 L2350.86 2693.93 L2354.23 2694.09 L2357.61 2694.26 L2360.98 2694.43" stroke-linejoin="round" style="fill:none;stroke:#00BF7F;stroke-width:9.72"/>
	<line x1="557.89" y1="2766.66" x2="557.89" y2="113.40" style="stroke:#000000;stroke-width:6.48"/>
	<line x1="557.89" y1="2695.28" x2="513.00" y2="2695.28" style="stroke:#000000;stroke-width:6.48"/>
	<text x="490.39" y="2734.71" style="font-family:'Helvetica';font-size:112.56px;fill:#000000" text-anchor="end">0</text>
	<line x1="557.89" y1="1858.44" x2="513.00" y2="1858.44" style="stroke:#000000;stroke-width:6.48"/>
	<text x="490.39" y="1897.88" style="font-family:'Helvetica';font-size:112.56px;fill:#000000" text-anchor="end">.5</text>
	<line x1="557.89" y1="1021.61" x2="513.00" y2="1021.61" style="stroke:#000000;stroke-width:6.48"/>
	<text x="490.39" y="1061.05" style="font-family:'Helvetica';font-size:112.56px;fill:#000000" text-anchor="end">1</text>
	<line x1="557.89" y1="184.61" x2="513.00" y2="184.61" style="stroke:#000000;stroke-width:6.48"/>
	<text x="490.39" y="224.05" style="font-family:'Helvetica';font-size:112.56px;fill:#000000" text-anchor="end">1.5</text>
	<text x="214.55" y="1439.94" style="font-family:'Helvetica';font-size:112.56px;fill:#000000" transform="rotate(-90 214.55,1439.94)" text-anchor="middle">Density</text>
	<line x1="557.89" y1="2766.66" x2="2828.42" y2="2766.66" style="stroke:#000000;stroke-width:6.48"/>
	<line x1="632.98" y1="2766.66" x2="632.98" y2="2811.54" style="stroke:#000000;stroke-width:6.48"/>
	<text x="632.98" y="2912.86" style="font-family:'Helvetica';font-size:112.56px;fill:#000000" text-anchor="middle">-4</text>
	<line x1="1164.04" y1="2766.66" x2="1164.04" y2="2811.54" style="stroke:#000000;stroke-width:6.48"/>
	<text x="1164.04" y="2912.86" style="font-family:'Helvetica';font-size:112.56px;fill:#000000" text-anchor="middle">-2</text>
	<line x1="1695.09" y1="2766.66" x2="1695.09" y2="2811.54" style="stroke:#000000;stroke-width:6.48"/>
	<text x="1695.09" y="2912.86" style="font-family:'Helvetica';font-size:112.56px;fill:#000000" text-anchor="middle">0</text>
	<line x1="2225.98" y1="2766.66" x2="2225.98" y2="2811.54" style="stroke:#000000;stroke-width:6.48"/>
	<text x="2225.98" y="2912.86" style="font-family:'Helvetica';font-size:112.56px;fill:#000000" text-anchor="middle">2</text>
	<line x1="2757.04" y1="2766.66" x2="2757.04" y2="2811.54" style="stroke:#000000;stroke-width:6.48"/>
	<text x="2757.04" y="2912.86" style="font-family:'Helvetica';font-size:112.56px;fill:#000000" text-anchor="middle">4</text>
	<text x="1693.07" y="3070.31" style="font-family:'Helvetica';font-size:112.56px;fill:#000000" text-anchor="middle">IV estimates</text>
	<rect x="2867.23" y="1335.15" width="2380.56" height="209.76" style="fill:#FFFFFF"/>
	<rect x="2870.47" y="1338.39" width="2374.08" height="203.28" style="fill:none;stroke:#FFFFFF;stroke-width:6.48"/>
	<line x1="2915.83" y1="1439.94" x2="3175.03" y2="1439.94" style="stroke:#1A85FF;stroke-width:9.72"/>
	<line x1="3784.22" y1="1439.94" x2="4043.42" y2="1439.94" style="stroke:#D41159;stroke-width:9.72"/>
	<line x1="4586.79" y1="1439.94" x2="4845.99" y2="1439.94" style="stroke:#00BF7F;stroke-width:9.72"/>
	<text x="3242.53" y="1479.38" style="font-family:'Helvetica';font-size:112.56px;fill:#000000"> = .25</text>
	<text x="4110.92" y="1479.38" style="font-family:'Helvetica';font-size:112.56px;fill:#000000"> = .5</text>
	<text x="4913.49" y="1479.38" style="font-family:'Helvetica';font-size:112.56px;fill:#000000"> = 1</text>
</svg>
