<?xml version="1.0" encoding="UTF-8" standalone="no"?>
<!-- This is a Stata 15.1 generated SVG file (http://www.stata.com) -->

<svg version="1.1" width="600px" height="436px" viewBox="0 0 3960 2880" xmlns="http://www.w3.org/2000/svg" xmlns:xlink="http://www.w3.org/1999/xlink">
	<desc>Stata Graph - Graph</desc>
	<rect x="0" y="0" width="3960" height="2880" style="fill:#EAF2F3;stroke:none"/>
	<rect x="0.00" y="0.00" width="3959.88" height="2880.00" style="fill:#EAF2F3"/>
	<rect x="2.88" y="2.88" width="3954.12" height="2874.24" style="fill:none;stroke:#EAF2F3;stroke-width:5.76"/>
	<rect x="390.80" y="100.86" width="3468.22" height="2132.77" style="fill:#FFFFFF"/>
	<rect x="393.68" y="103.74" width="3462.46" height="2127.01" style="fill:none;stroke:#FFFFFF;stroke-width:5.76"/>
	<line x1="390.80" y1="2170.27" x2="3859.02" y2="2170.27" style="stroke:#EAF2F3;stroke-width:8.64"/>
	<line x1="390.80" y1="1686.77" x2="3859.02" y2="1686.77" style="stroke:#EAF2F3;stroke-width:8.64"/>
	<line x1="390.80" y1="1203.14" x2="3859.02" y2="1203.14" style="stroke:#EAF2F3;stroke-width:8.64"/>
	<line x1="390.80" y1="719.63" x2="3859.02" y2="719.63" style="stroke:#EAF2F3;stroke-width:8.64"/>
	<line x1="390.80" y1="236.00" x2="3859.02" y2="236.00" style="stroke:#EAF2F3;stroke-width:8.64"/>
	<path d=" M735.82 2167.80 L740.89 2166.19 L745.97 2163.84 L751.04 2160.37 L756.11 2155.30 L761.19 2148.37 L766.14 2138.96 L771.21 2126.46 L776.28 2110.62 L781.36 2091.07 L786.43 2067.43 L791.50 2040.08 L796.58 2009.14 L801.65 1975.48 L806.73 1940.34 L811.68 1904.94 L816.75 1871.16 L821.82 1840.84 L826.90 1815.59 L831.97 1797.15 L837.04 1786.51 L842.12 1784.65 L847.19 1791.46 L852.27 1806.56 L857.34 1828.96 L862.29 1857.30 L867.36 1889.85 L872.44 1924.74 L877.51 1960.26 L882.59 1994.79 L887.66 2027.09 L892.73 2056.05 L897.81 2081.42 L902.88 2102.70 L907.95 2120.15 L912.90 2133.76 L917.98 2144.28 L923.05 2151.96 L928.13 2157.28 L933.20 2160.50 L938.27 2162.10 L943.35 2162.10 L948.42 2160.50 L953.49 2157.40 L958.44 2152.45 L963.52 2145.64 L968.59 2136.61 L973.66 2125.10 L978.74 2111.24 L983.81 2094.91 L988.89 2076.47 L993.96 2056.29 L999.03 2035.26 L1004.11 2014.09 L1009.06 1993.67 L1014.13 1974.99 L1019.21 1958.90 L1024.28 1945.66 L1029.35 1935.76 L1034.43 1928.95 L1039.50 1924.74 L1044.57 1922.64 L1049.65 1921.77 L1054.60 1921.53 L1059.67 1921.53 L1064.74 1921.53 L1069.82 1921.77 L1074.89 1922.52 L1079.97 1924.62 L1085.04 1928.83 L1090.11 1935.51 L1095.19 1945.29 L1100.26 1958.03 L1105.21 1973.75 L1110.29 1991.57 L1115.36 2010.63 L1120.43 2029.81 L1125.51 2048.13 L1130.58 2064.21 L1135.65 2077.21 L1140.73 2086.12 L1145.80 2090.57 L1150.88 2089.96 L1155.83 2084.39 L1160.90 2073.99 L1165.97 2059.26 L1171.05 2040.70 L1176.12 2019.17 L1181.19 1995.78 L1186.27 1971.40 L1191.34 1947.14 L1196.41 1923.75 L1201.37 1902.22 L1206.44 1882.79 L1211.51 1865.96 L1216.59 1851.73 L1221.66 1840.10 L1226.73 1830.57 L1231.81 1822.89 L1236.88 1816.71 L1241.95 1811.76 L1247.03 1807.43 L1251.98 1803.59 L1257.05 1799.88 L1262.13 1795.54 L1267.20 1790.47 L1272.27 1783.66 L1277.35 1774.51 L1282.42 1761.88 L1287.49 1744.81 L1292.57 1721.91 L1297.52 1692.09 L1302.59 1654.09 L1307.67 1607.07 L1312.74 1550.51 L1317.81 1484.80 L1322.89 1410.79 L1327.96 1330.35 L1333.04 1246.20 L1338.11 1161.68 L1343.18 1080.62 L1348.13 1007.23 L1353.21 945.36 L1358.28 898.08 L1363.35 868.01 L1368.43 856.01 L1373.50 862.32 L1378.58 885.46 L1383.65 923.33 L1388.72 972.95 L1393.80 1031.12 L1398.75 1094.73 L1403.82 1161.06 L1408.89 1228.26 L1413.97 1294.84 L1419.04 1360.30 L1424.12 1424.53 L1429.19 1487.52 L1434.26 1549.65 L1439.34 1610.53 L1444.29 1669.81 L1449.36 1726.74 L1454.43 1779.95 L1459.51 1828.22 L1464.58 1870.17 L1469.65 1904.32 L1474.73 1930.07 L1479.80 1946.77 L1484.88 1954.44 L1489.95 1953.58 L1494.90 1944.79 L1499.97 1928.95 L1505.05 1906.92 L1510.12 1879.45 L1515.19 1846.78 L1520.27 1809.28 L1525.34 1766.96 L1530.42 1719.68 L1535.49 1667.83 L1540.44 1611.65 L1545.51 1552.24 L1550.59 1491.23 L1555.66 1430.72 L1560.73 1373.17 L1565.81 1321.32 L1570.88 1277.39 L1575.96 1242.98 L1581.03 1219.22 L1586.10 1205.73 L1591.05 1201.40 L1596.13 1204.13 L1601.20 1211.30 L1606.28 1220.09 L1611.35 1227.76 L1616.42 1232.46 L1621.50 1232.84 L1626.57 1228.50 L1631.64 1219.84 L1636.72 1207.84 L1641.67 1193.85 L1646.74 1179.13 L1651.82 1164.65 L1656.89 1150.91 L1661.96 1137.55 L1667.04 1123.69 L1672.11 1108.09 L1677.18 1088.91 L1682.26 1064.78 L1687.21 1034.33 L1692.28 997.21 L1697.36 953.89 L1702.43 905.75 L1707.50 855.51 L1712.58 806.38 L1717.65 762.70 L1722.72 728.29 L1727.80 707.38 L1732.87 702.92 L1737.82 717.28 L1742.89 750.69 L1747.97 802.42 L1753.04 869.99 L1758.12 949.44 L1763.19 1036.07 L1768.26 1124.43 L1773.34 1208.70 L1778.41 1283.82 L1783.36 1344.71 L1788.43 1387.65 L1793.51 1409.68 L1798.58 1408.94 L1803.66 1385.05 L1808.73 1338.65 L1813.80 1271.57 L1818.88 1186.43 L1823.95 1086.93 L1829.03 977.28 L1833.97 862.07 L1839.05 745.99 L1844.12 633.25 L1849.20 527.93 L1854.27 433.14 L1859.34 351.21 L1864.42 283.77 L1869.49 231.54 L1874.57 194.54 L1879.64 172.39 L1884.59 164.22 L1889.66 169.17 L1894.74 186.37 L1899.81 214.59 L1904.88 253.20 L1909.96 300.85 L1915.03 356.66 L1920.11 418.78 L1925.18 485.36 L1930.13 554.05 L1935.20 621.99 L1940.28 685.84 L1945.35 742.40 L1950.42 788.44 L1955.50 821.35 L1960.57 839.42 L1965.64 842.02 L1970.72 829.77 L1975.79 804.90 L1980.74 770.37 L1985.82 730.64 L1990.89 690.30 L1995.96 653.92 L2001.04 625.33 L2006.11 607.76 L2011.18 602.81 L2016.26 610.73 L2021.33 630.28 L2026.28 659.11 L2031.36 694.38 L2036.43 732.62 L2041.50 770.74 L2046.58 806.26 L2051.65 837.44 L2056.72 863.68 L2061.80 885.46 L2066.87 903.77 L2071.95 920.36 L2076.90 936.94 L2081.97 954.76 L2087.04 974.93 L2092.12 997.58 L2097.19 1021.84 L2102.26 1046.59 L2107.34 1069.85 L2112.41 1089.78 L2117.49 1104.87 L2122.56 1114.16 L2127.51 1117.25 L2132.58 1115.39 L2137.66 1110.32 L2142.73 1105.00 L2147.80 1102.77 L2152.88 1107.23 L2157.95 1121.33 L2163.03 1147.45 L2168.10 1186.80 L2173.05 1238.90 L2178.12 1302.01 L2183.20 1373.17 L2188.27 1448.29 L2193.34 1523.29 L2198.42 1593.45 L2203.49 1655.33 L2208.57 1705.82 L2213.64 1743.57 L2218.71 1768.20 L2223.66 1780.57 L2228.74 1783.05 L2233.81 1778.47 L2238.89 1770.05 L2243.96 1761.27 L2249.03 1755.32 L2254.11 1754.71 L2259.18 1761.02 L2264.25 1775.00 L2269.20 1796.78 L2274.28 1825.12 L2279.35 1858.78 L2284.43 1895.66 L2289.50 1933.90 L2294.57 1971.40 L2299.65 2006.55 L2304.72 2037.98 L2309.79 2064.59 L2314.87 2086.00 L2319.82 2101.59 L2324.89 2111.36 L2329.97 2115.32 L2335.04 2113.34 L2340.11 2105.67 L2345.19 2092.18 L2350.26 2073.25 L2355.33 2049.12 L2360.41 2020.28 L2365.48 1987.49 L2370.43 1951.72 L2375.51 1914.60 L2380.58 1877.47 L2385.65 1842.20 L2390.73 1810.40 L2395.80 1783.54 L2400.87 1762.75 L2405.95 1748.64 L2411.02 1741.59 L2415.97 1740.97 L2421.05 1746.04 L2426.12 1755.70 L2431.19 1768.69 L2436.27 1784.04 L2441.34 1800.50 L2446.41 1817.70 L2451.49 1835.27 L2456.56 1853.21 L2461.64 1871.90 L2466.59 1891.58 L2471.66 1912.24 L2476.73 1934.15 L2481.81 1957.04 L2486.88 1980.31 L2491.95 2003.33 L2497.03 2024.98 L2502.10 2044.54 L2507.18 2060.87 L2512.13 2073.12 L2517.20 2080.55 L2522.27 2082.65 L2527.35 2079.19 L2532.42 2070.03 L2537.49 2055.43 L2542.57 2035.63 L2547.64 2011.25 L2552.72 1983.28 L2557.79 1952.34 L2562.74 1919.67 L2567.81 1886.26 L2572.89 1853.21 L2577.96 1821.41 L2583.03 1791.71 L2588.11 1765.10 L2593.18 1742.21 L2598.26 1723.64 L2603.33 1709.91 L2608.40 1701.49 L2613.35 1698.65 L2618.43 1701.62 L2623.50 1710.15 L2628.57 1724.02 L2633.65 1742.45 L2638.72 1764.61 L2643.80 1788.99 L2648.87 1814.36 L2653.94 1839.11 L2658.89 1861.88 L2663.97 1881.55 L2669.04 1897.52 L2674.11 1909.52 L2679.19 1917.81 L2684.26 1923.01 L2689.34 1926.35 L2694.41 1928.95 L2699.48 1931.92 L2704.56 1936.13 L2709.51 1942.32 L2714.58 1950.48 L2719.65 1960.26 L2724.73 1971.03 L2729.80 1981.55 L2734.88 1990.95 L2739.95 1998.01 L2745.02 2001.97 L2750.10 2002.46 L2755.05 1999.49 L2760.12 1993.43 L2765.19 1985.38 L2770.27 1976.60 L2775.34 1968.31 L2780.41 1962.12 L2785.49 1958.90 L2790.56 1959.77 L2795.64 1965.09 L2800.71 1974.74 L2805.66 1988.48 L2810.73 2005.31 L2815.81 2024.37 L2820.88 2044.41 L2825.95 2064.46 L2831.03 2083.64 L2836.10 2101.09 L2841.18 2116.56 L2846.25 2129.56 L2851.32 2140.20 L2856.27 2148.74 L2861.35 2155.17 L2866.42 2160.00 L2871.49 2163.47 L2876.57 2165.94 L2881.64 2167.55 L2886.72 2168.66 L2891.79 2169.41 L2896.86 2169.78 L2901.81 2170.02 L2906.89 2170.15 L2911.96 2170.27 L2917.03 2170.40 L2922.11 2170.40 L2927.18 2170.40 L2932.26 2170.40 L2937.33 2170.40 L2942.40 2170.40 L2947.48 2170.40 L2952.43 2170.40 L2957.50 2170.40 L2962.57 2170.40 L2967.65 2170.40 L2972.72 2170.40 L2977.80 2170.40 L2982.87 2170.40 L2987.94 2170.40 L2993.02 2170.40 L2997.97 2170.40 L3003.04 2170.40 L3008.11 2170.40 L3013.19 2170.40 L3018.26 2170.40 L3023.34 2170.40 L3028.41 2170.40 L3033.48 2170.40 L3038.56 2170.40 L3043.63 2170.40 L3048.58 2170.40 L3053.66 2170.40 L3058.73 2170.40 L3063.80 2170.40 L3068.88 2170.40 L3073.95 2170.40 L3079.02 2170.40 L3084.10 2170.40 L3089.17 2170.40 L3094.24 2170.40 L3099.20 2170.40 L3104.27 2170.27 L3109.34 2170.27 L3114.42 2170.15 L3119.49 2169.90 L3124.56 2169.53 L3129.64 2168.91 L3134.71 2167.92 L3139.78 2166.44 L3144.74 2164.21 L3149.81 2161.11 L3154.88 2156.78 L3159.96 2150.72 L3165.03 2142.92 L3170.10 2132.90 L3175.18 2120.65 L3180.25 2106.04 L3185.32 2089.21 L3190.40 2070.53 L3195.35 2050.85 L3200.42 2030.92 L3205.50 2011.74 L3210.57 1994.66 L3215.64 1980.68 L3220.72 1970.90 L3225.79 1965.95 L3230.86 1966.33 L3235.94 1971.77 L3240.89 1982.17 L3245.96 1996.52 L3251.04 2013.85 L3256.11 2033.15 L3261.18 2053.08 L3266.26 2072.75 L3271.33 2091.19 L3276.41 2107.78 L3281.48 2122.13 L3286.55 2134.26 L3291.50 2143.91 L3296.58 2151.58 L3301.65 2157.28 L3306.72 2161.49 L3311.80 2164.58 L3316.87 2166.68 L3321.95 2168.04" stroke-linecap="round" stroke-linejoin="round" style="fill:none;stroke:#A0A0A0;stroke-width:8.64"/>
	<path d=" M641.89 2168.91 L647.34 2168.42 L652.78 2167.80 L658.23 2167.05 L663.67 2166.19 L668.99 2165.07 L674.44 2163.71 L679.88 2162.10 L685.33 2160.12 L690.77 2157.77 L696.22 2155.05 L701.66 2151.83 L707.11 2148.12 L712.43 2143.79 L717.87 2138.96 L723.32 2133.39 L728.76 2127.33 L734.21 2120.52 L739.65 2113.10 L745.10 2104.93 L750.42 2096.27 L755.87 2087.11 L761.31 2077.33 L766.75 2067.31 L772.20 2056.91 L777.64 2046.52 L783.09 2036.00 L788.53 2025.73 L793.86 2015.83 L799.30 2006.42 L804.75 1997.63 L810.19 1989.71 L815.64 1982.78 L821.08 1976.97 L826.53 1972.51 L831.85 1969.17 L837.29 1967.32 L842.74 1966.82 L848.18 1967.81 L853.63 1970.04 L859.07 1973.63 L864.52 1978.21 L869.96 1983.90 L875.28 1990.46 L880.73 1997.76 L886.17 2005.43 L891.62 2013.48 L897.06 2021.52 L902.51 2029.44 L907.95 2036.99 L913.27 2044.17 L918.72 2050.60 L924.16 2056.17 L929.61 2060.87 L935.05 2064.59 L940.50 2067.18 L945.95 2068.67 L951.39 2069.04 L956.71 2068.30 L962.16 2066.57 L967.60 2063.72 L973.05 2060.13 L978.49 2055.68 L983.94 2050.48 L989.38 2044.79 L994.70 2038.72 L1000.15 2032.41 L1005.59 2025.97 L1011.04 2019.54 L1016.48 2013.35 L1021.93 2007.29 L1027.37 2001.72 L1032.82 1996.64 L1038.14 1992.07 L1043.58 1988.23 L1049.03 1984.89 L1054.47 1982.41 L1059.92 1980.56 L1065.36 1979.32 L1070.81 1978.82 L1076.13 1978.82 L1081.58 1979.32 L1087.02 1980.31 L1092.46 1981.42 L1097.91 1982.78 L1103.36 1984.27 L1108.80 1985.63 L1114.12 1986.74 L1119.57 1987.49 L1125.01 1987.73 L1130.46 1987.49 L1135.90 1986.50 L1141.35 1984.76 L1146.79 1982.29 L1152.24 1978.82 L1157.56 1974.37 L1163.00 1969.05 L1168.45 1962.74 L1173.89 1955.43 L1179.34 1947.14 L1184.78 1937.99 L1190.23 1927.96 L1195.55 1916.95 L1200.99 1905.19 L1206.44 1892.44 L1211.88 1878.95 L1217.33 1864.60 L1222.77 1849.25 L1228.22 1833.04 L1233.66 1815.96 L1238.98 1797.77 L1244.43 1778.71 L1249.88 1758.42 L1255.32 1737.01 L1260.77 1714.61 L1266.21 1690.97 L1271.65 1666.22 L1276.98 1640.36 L1282.42 1613.63 L1287.87 1586.03 L1293.31 1557.81 L1298.76 1529.23 L1304.20 1500.52 L1309.65 1471.93 L1315.09 1443.84 L1320.41 1416.73 L1325.86 1390.87 L1331.30 1366.74 L1336.75 1344.59 L1342.19 1325.03 L1347.64 1308.33 L1353.08 1294.71 L1358.40 1284.57 L1363.85 1278.01 L1369.29 1275.28 L1374.74 1276.40 L1380.18 1281.35 L1385.63 1290.01 L1391.07 1302.26 L1396.52 1317.85 L1401.84 1336.42 L1407.29 1357.58 L1412.73 1380.97 L1418.17 1406.09 L1423.62 1432.33 L1429.07 1459.31 L1434.51 1486.41 L1439.83 1513.14 L1445.28 1538.88 L1450.72 1563.26 L1456.17 1585.78 L1461.61 1605.95 L1467.06 1623.53 L1472.50 1638.25 L1477.95 1649.76 L1483.27 1658.05 L1488.71 1662.88 L1494.16 1664.24 L1499.60 1662.26 L1505.05 1656.94 L1510.49 1648.53 L1515.94 1637.14 L1521.26 1623.03 L1526.70 1606.45 L1532.15 1587.89 L1537.59 1567.47 L1543.04 1545.69 L1548.48 1522.79 L1553.93 1499.03 L1559.37 1474.77 L1564.69 1450.27 L1570.14 1425.89 L1575.59 1401.76 L1581.03 1377.88 L1586.47 1354.61 L1591.92 1331.96 L1597.37 1310.06 L1602.69 1288.90 L1608.13 1268.35 L1613.58 1248.43 L1619.02 1229.25 L1624.47 1210.68 L1629.91 1192.62 L1635.36 1175.04 L1640.80 1157.96 L1646.12 1141.38 L1651.57 1125.29 L1657.01 1109.70 L1662.46 1094.60 L1667.90 1080.12 L1673.35 1066.51 L1678.79 1053.64 L1684.11 1041.76 L1689.56 1030.99 L1695.00 1021.34 L1700.45 1013.05 L1705.89 1006.12 L1711.34 1000.55 L1716.78 996.34 L1722.23 993.37 L1727.55 991.52 L1732.99 990.65 L1738.44 990.53 L1743.88 990.90 L1749.33 991.27 L1754.78 991.39 L1760.22 990.90 L1765.54 989.29 L1770.99 986.32 L1776.43 981.37 L1781.88 974.44 L1787.32 965.16 L1792.77 953.15 L1798.21 938.67 L1803.53 921.35 L1808.98 901.55 L1814.42 879.39 L1819.87 855.02 L1825.31 828.90 L1830.76 801.43 L1836.20 773.09 L1841.65 744.38 L1846.97 715.92 L1852.41 688.20 L1857.86 661.84 L1863.30 637.08 L1868.75 614.56 L1874.19 594.64 L1879.64 577.56 L1884.96 563.58 L1890.40 552.68 L1895.85 545.01 L1901.30 540.56 L1906.74 539.07 L1912.18 540.43 L1917.63 544.27 L1923.08 550.33 L1928.40 558.38 L1933.84 568.03 L1939.29 578.92 L1944.73 590.80 L1950.18 603.30 L1955.62 616.17 L1961.07 629.16 L1966.39 642.28 L1971.83 655.15 L1977.28 667.90 L1982.72 680.52 L1988.17 692.90 L1993.61 705.15 L1999.06 717.40 L2004.50 729.53 L2009.82 741.90 L2015.27 754.53 L2020.71 767.52 L2026.16 780.89 L2031.60 794.75 L2037.05 809.10 L2042.49 824.08 L2047.82 839.67 L2053.26 855.88 L2058.70 872.59 L2064.15 890.04 L2069.59 907.98 L2075.04 926.42 L2080.49 945.48 L2085.93 965.03 L2091.25 985.08 L2096.70 1005.62 L2102.14 1026.66 L2107.59 1048.32 L2113.03 1070.59 L2118.48 1093.37 L2123.92 1116.75 L2129.24 1140.89 L2134.69 1165.76 L2140.13 1191.38 L2145.58 1217.61 L2151.02 1244.59 L2156.47 1272.19 L2161.91 1300.41 L2167.36 1329.24 L2172.68 1358.57 L2178.12 1388.15 L2183.57 1417.97 L2189.01 1447.92 L2194.46 1477.87 L2199.90 1507.69 L2205.35 1537.15 L2210.67 1566.11 L2216.11 1594.69 L2221.56 1622.54 L2227.01 1649.64 L2232.45 1675.87 L2237.89 1701.24 L2243.34 1725.62 L2248.78 1749.14 L2254.11 1771.41 L2259.55 1792.70 L2265.00 1812.75 L2270.44 1831.68 L2275.89 1849.38 L2281.33 1865.71 L2286.78 1880.69 L2292.10 1894.18 L2297.54 1906.18 L2302.99 1916.70 L2308.43 1925.73 L2313.88 1933.04 L2319.32 1938.73 L2324.77 1942.81 L2330.21 1945.29 L2335.53 1946.15 L2340.98 1945.66 L2346.42 1943.93 L2351.87 1940.83 L2357.31 1936.87 L2362.76 1931.92 L2368.20 1926.35 L2373.53 1920.41 L2378.97 1914.35 L2384.41 1908.16 L2389.86 1902.34 L2395.30 1896.90 L2400.75 1892.07 L2406.20 1888.11 L2411.64 1884.90 L2416.96 1882.79 L2422.41 1881.80 L2427.85 1881.80 L2433.30 1882.92 L2438.74 1885.02 L2444.19 1888.11 L2449.63 1891.95 L2454.95 1896.53 L2460.40 1901.60 L2465.84 1906.92 L2471.29 1912.49 L2476.73 1917.94 L2482.18 1923.14 L2487.62 1927.96 L2492.94 1932.05 L2498.39 1935.39 L2503.83 1937.86 L2509.28 1939.22 L2514.72 1939.59 L2520.17 1938.73 L2525.61 1936.62 L2531.06 1933.41 L2536.38 1929.20 L2541.82 1923.88 L2547.27 1917.81 L2552.72 1910.88 L2558.16 1903.58 L2563.61 1895.79 L2569.05 1887.87 L2574.37 1879.94 L2579.82 1872.27 L2585.26 1864.97 L2590.71 1858.29 L2596.15 1852.35 L2601.60 1847.27 L2607.04 1843.31 L2612.49 1840.34 L2617.81 1838.49 L2623.25 1837.74 L2628.70 1838.24 L2634.14 1839.85 L2639.59 1842.45 L2645.03 1846.16 L2650.48 1850.62 L2655.80 1855.94 L2661.24 1861.88 L2666.69 1868.44 L2672.13 1875.37 L2677.58 1882.54 L2683.02 1889.97 L2688.47 1897.52 L2693.91 1905.07 L2699.24 1912.62 L2704.68 1919.92 L2710.13 1927.10 L2715.57 1934.15 L2721.01 1940.96 L2726.46 1947.51 L2731.91 1953.83 L2737.23 1960.01 L2742.67 1965.95 L2748.12 1971.89 L2753.56 1977.71 L2759.01 1983.53 L2764.45 1989.34 L2769.90 1995.28 L2775.34 2001.35 L2780.66 2007.54 L2786.11 2013.85 L2791.55 2020.28 L2797.00 2027.09 L2802.44 2034.02 L2807.89 2041.07 L2813.33 2048.25 L2818.65 2055.68 L2824.10 2063.10 L2829.54 2070.53 L2834.99 2077.95 L2840.43 2085.25 L2845.88 2092.55 L2851.32 2099.48 L2856.77 2106.29 L2862.09 2112.85 L2867.53 2118.91 L2872.98 2124.73 L2878.43 2130.18 L2883.87 2135.13 L2889.32 2139.83 L2894.76 2143.91 L2900.08 2147.75 L2905.53 2151.09 L2910.97 2154.06 L2916.42 2156.66 L2921.86 2158.89 L2927.31 2160.87 L2932.75 2162.60 L2938.20 2164.08 L2943.52 2165.20 L2948.96 2166.19 L2954.41 2167.05 L2959.85 2167.80 L2965.30 2168.29 L2970.74 2168.79 L2976.19 2169.16 L2981.51 2169.41 L2986.95 2169.65 L2992.40 2169.78 L2997.84 2169.90 L3003.29 2169.90 L3008.73 2169.90 L3014.18 2169.90 L3019.62 2169.90 L3024.95 2169.78 L3030.39 2169.65 L3035.84 2169.41 L3041.28 2169.16 L3046.72 2168.79 L3052.17 2168.42 L3057.61 2167.80 L3062.94 2167.18 L3068.38 2166.31 L3073.83 2165.45 L3079.27 2164.21 L3084.72 2162.85 L3090.16 2161.24 L3095.61 2159.38 L3100.93 2157.28 L3106.37 2154.80 L3111.82 2151.96 L3117.26 2148.86 L3122.71 2145.40 L3128.15 2141.56 L3133.60 2137.35 L3139.04 2132.90 L3144.36 2128.20 L3149.81 2123.25 L3155.25 2118.05 L3160.70 2112.73 L3166.14 2107.28 L3171.59 2101.96 L3177.03 2096.64 L3182.36 2091.56 L3187.80 2086.74 L3193.24 2082.28 L3198.69 2078.32 L3204.14 2074.86 L3209.58 2072.01 L3215.03 2069.91 L3220.47 2068.42 L3225.79 2067.80 L3231.24 2067.80 L3236.68 2068.67 L3242.13 2070.28 L3247.57 2072.51 L3253.02 2075.48 L3258.46 2079.06 L3263.78 2083.15 L3269.23 2087.73 L3274.67 2092.55 L3280.12 2097.75 L3285.56 2103.07 L3291.01 2108.39 L3296.45 2113.84 L3301.90 2119.04 L3307.22 2124.24 L3312.66 2129.19 L3318.11 2133.89 L3323.55 2138.22 L3329.00 2142.30 L3334.44 2146.14 L3339.89 2149.48 L3345.21 2152.57 L3350.66 2155.30 L3356.10 2157.65 L3361.55 2159.75 L3366.99 2161.61 L3372.43 2163.22 L3377.88 2164.46 L3383.32 2165.57 L3388.65 2166.56 L3394.09 2167.30 L3399.54 2167.92 L3404.98 2168.54 L3410.43 2168.91 L3415.87 2169.28" stroke-linecap="round" stroke-linejoin="round" style="fill:none;stroke:#505050;stroke-width:8.64"/>
	<path d=" M454.04 2169.53 L460.23 2169.28 L466.41 2169.16 L472.60 2169.03 L478.79 2168.79 L484.85 2168.54 L491.04 2168.29 L497.23 2167.92 L503.42 2167.55 L509.60 2167.18 L515.67 2166.81 L521.85 2166.31 L528.04 2165.69 L534.23 2165.07 L540.42 2164.46 L546.48 2163.71 L552.67 2162.97 L558.86 2161.98 L565.04 2161.11 L571.23 2160.00 L577.29 2158.89 L583.48 2157.65 L589.67 2156.29 L595.86 2154.80 L602.04 2153.32 L608.11 2151.71 L614.29 2149.85 L620.48 2148.00 L626.67 2146.02 L632.86 2143.91 L639.04 2141.56 L645.11 2139.21 L651.30 2136.73 L657.48 2134.14 L663.67 2131.54 L669.86 2128.69 L675.92 2125.72 L682.11 2122.75 L688.30 2119.66 L694.49 2116.44 L700.67 2113.22 L706.74 2109.88 L712.92 2106.54 L719.11 2103.07 L725.30 2099.73 L731.49 2096.27 L737.55 2092.68 L743.74 2089.21 L749.92 2085.75 L756.11 2082.28 L762.30 2078.94 L768.36 2075.60 L774.55 2072.26 L780.74 2069.04 L786.93 2065.95 L793.11 2062.98 L799.18 2060.01 L805.37 2057.16 L811.55 2054.44 L817.74 2051.84 L823.93 2049.36 L830.12 2047.01 L836.18 2044.79 L842.37 2042.56 L848.55 2040.58 L854.74 2038.72 L860.93 2036.99 L866.99 2035.26 L873.18 2033.77 L879.37 2032.29 L885.55 2030.92 L891.74 2029.56 L897.81 2028.33 L903.99 2027.09 L910.18 2025.97 L916.37 2024.86 L922.56 2023.75 L928.62 2022.63 L934.81 2021.40 L941.00 2020.28 L947.18 2019.17 L953.37 2017.81 L959.43 2016.57 L965.62 2015.21 L971.81 2013.72 L978.00 2012.11 L984.18 2010.51 L990.25 2008.65 L996.43 2006.79 L1002.62 2004.69 L1008.81 2002.46 L1015.00 2000.11 L1021.18 1997.51 L1027.25 1994.66 L1033.44 1991.69 L1039.62 1988.60 L1045.81 1985.14 L1052.00 1981.55 L1058.06 1977.71 L1064.25 1973.50 L1070.44 1969.17 L1076.63 1964.47 L1082.81 1959.52 L1088.88 1954.32 L1095.06 1948.75 L1101.25 1942.81 L1107.44 1936.62 L1113.63 1930.07 L1119.69 1923.14 L1125.88 1915.83 L1132.07 1908.28 L1138.25 1900.36 L1144.44 1892.07 L1150.50 1883.29 L1156.69 1874.25 L1162.88 1864.97 L1169.07 1855.19 L1175.25 1845.17 L1181.44 1834.77 L1187.51 1824.13 L1193.69 1813.12 L1199.88 1801.98 L1206.07 1790.47 L1212.26 1778.84 L1218.32 1766.96 L1224.51 1754.95 L1230.69 1742.83 L1236.88 1730.70 L1243.07 1718.45 L1249.13 1706.19 L1255.32 1694.07 L1261.51 1681.94 L1267.69 1669.93 L1273.88 1658.05 L1279.95 1646.42 L1286.13 1635.04 L1292.32 1623.90 L1298.51 1613.01 L1304.70 1602.61 L1310.76 1592.46 L1316.95 1582.81 L1323.13 1573.53 L1329.32 1564.74 L1335.51 1556.33 L1341.57 1548.41 L1347.76 1540.98 L1353.95 1534.05 L1360.14 1527.62 L1366.32 1521.55 L1372.51 1515.98 L1378.58 1510.79 L1384.76 1505.96 L1390.95 1501.63 L1397.14 1497.55 L1403.33 1493.71 L1409.39 1490.24 L1415.58 1486.90 L1421.76 1483.81 L1427.95 1480.72 L1434.14 1477.87 L1440.20 1474.90 L1446.39 1471.93 L1452.58 1468.83 L1458.77 1465.62 L1464.95 1462.28 L1471.02 1458.69 L1477.20 1454.85 L1483.39 1450.77 L1489.58 1446.19 L1495.77 1441.36 L1501.83 1436.04 L1508.02 1430.35 L1514.20 1424.28 L1520.39 1417.72 L1526.58 1410.55 L1532.64 1403.00 L1538.83 1395.08 L1545.02 1386.54 L1551.21 1377.50 L1557.39 1368.10 L1563.58 1358.20 L1569.64 1347.93 L1575.83 1337.28 L1582.02 1326.15 L1588.21 1314.64 L1594.39 1302.88 L1600.46 1290.75 L1606.65 1278.38 L1612.83 1265.75 L1619.02 1252.88 L1625.21 1239.89 L1631.27 1226.65 L1637.46 1213.28 L1643.65 1199.79 L1649.84 1186.30 L1656.02 1172.69 L1662.09 1159.08 L1668.27 1145.34 L1674.46 1131.61 L1680.65 1117.99 L1686.84 1104.38 L1692.90 1090.77 L1699.09 1077.15 L1705.28 1063.79 L1711.46 1050.30 L1717.65 1037.06 L1723.84 1023.82 L1729.90 1010.70 L1736.09 997.83 L1742.28 984.96 L1748.46 972.21 L1754.65 959.71 L1760.71 947.34 L1766.90 935.08 L1773.09 923.08 L1779.28 911.32 L1785.46 899.69 L1791.53 888.43 L1797.72 877.41 L1803.90 866.65 L1810.09 856.25 L1816.28 846.11 L1822.34 836.45 L1828.53 827.05 L1834.72 818.14 L1840.90 809.72 L1847.09 801.80 L1853.16 794.38 L1859.34 787.45 L1865.53 781.13 L1871.72 775.44 L1877.91 770.37 L1883.97 766.04 L1890.16 762.32 L1896.35 759.35 L1902.53 757.13 L1908.72 755.64 L1914.91 754.90 L1920.97 754.90 L1927.16 755.89 L1933.35 757.62 L1939.53 760.10 L1945.72 763.44 L1951.79 767.77 L1957.97 772.84 L1964.16 778.66 L1970.35 785.47 L1976.54 793.01 L1982.60 801.55 L1988.79 810.71 L1994.97 820.86 L2001.16 831.63 L2007.35 843.38 L2013.41 855.76 L2019.60 868.88 L2025.79 882.74 L2031.97 897.34 L2038.16 912.68 L2044.23 928.65 L2050.41 945.23 L2056.60 962.31 L2062.79 980.13 L2068.98 998.45 L2075.04 1017.26 L2081.23 1036.56 L2087.41 1056.36 L2093.60 1076.66 L2099.79 1097.20 L2105.98 1118.24 L2112.04 1139.53 L2118.23 1161.06 L2124.42 1182.84 L2130.60 1204.87 L2136.79 1227.14 L2142.86 1249.42 L2149.04 1271.82 L2155.23 1294.34 L2161.42 1316.74 L2167.61 1339.26 L2173.67 1361.54 L2179.86 1383.82 L2186.04 1405.84 L2192.23 1427.75 L2198.42 1449.28 L2204.48 1470.69 L2210.67 1491.73 L2216.86 1512.27 L2223.05 1532.57 L2229.23 1552.37 L2235.30 1571.80 L2241.48 1590.73 L2247.67 1609.05 L2253.86 1626.87 L2260.05 1644.19 L2266.11 1660.78 L2272.30 1676.86 L2278.49 1692.33 L2284.67 1707.18 L2290.86 1721.42 L2297.05 1734.91 L2303.11 1747.78 L2309.30 1760.03 L2315.49 1771.66 L2321.67 1782.67 L2327.86 1793.07 L2333.93 1802.72 L2340.11 1811.88 L2346.30 1820.30 L2352.49 1828.22 L2358.68 1835.64 L2364.74 1842.45 L2370.93 1848.76 L2377.11 1854.58 L2383.30 1859.90 L2389.49 1864.72 L2395.55 1869.05 L2401.74 1873.14 L2407.93 1876.73 L2414.11 1879.94 L2420.30 1882.79 L2426.37 1885.39 L2432.55 1887.62 L2438.74 1889.60 L2444.93 1891.33 L2451.12 1892.82 L2457.30 1894.05 L2463.37 1895.17 L2469.55 1896.03 L2475.74 1896.78 L2481.93 1897.39 L2488.12 1897.77 L2494.18 1898.14 L2500.37 1898.38 L2506.56 1898.63 L2512.74 1898.76 L2518.93 1898.88 L2524.99 1899.00 L2531.18 1899.00 L2537.37 1899.13 L2543.56 1899.25 L2549.74 1899.37 L2555.81 1899.62 L2562.00 1899.87 L2568.18 1900.24 L2574.37 1900.61 L2580.56 1901.23 L2586.62 1901.85 L2592.81 1902.59 L2599.00 1903.58 L2605.18 1904.70 L2611.37 1905.93 L2617.44 1907.42 L2623.62 1909.03 L2629.81 1910.76 L2636.00 1912.74 L2642.19 1914.97 L2648.37 1917.32 L2654.44 1919.92 L2660.63 1922.76 L2666.81 1925.73 L2673.00 1928.95 L2679.19 1932.42 L2685.25 1936.01 L2691.44 1939.84 L2697.63 1943.80 L2703.81 1947.89 L2710.00 1952.22 L2716.07 1956.80 L2722.25 1961.38 L2728.44 1966.20 L2734.63 1971.15 L2740.82 1976.10 L2746.88 1981.30 L2753.07 1986.50 L2759.25 1991.82 L2765.44 1997.26 L2771.63 2002.71 L2777.69 2008.15 L2783.88 2013.72 L2790.07 2019.29 L2796.26 2024.74 L2802.44 2030.31 L2808.51 2035.75 L2814.69 2041.20 L2820.88 2046.64 L2827.07 2051.96 L2833.26 2057.28 L2839.44 2062.48 L2845.51 2067.56 L2851.70 2072.51 L2857.88 2077.33 L2864.07 2082.16 L2870.26 2086.74 L2876.32 2091.19 L2882.51 2095.52 L2888.70 2099.61 L2894.88 2103.57 L2901.07 2107.40 L2907.14 2111.12 L2913.32 2114.58 L2919.51 2117.80 L2925.70 2120.89 L2931.89 2123.86 L2937.95 2126.59 L2944.14 2129.06 L2950.32 2131.41 L2956.51 2133.52 L2962.70 2135.50 L2968.76 2137.23 L2974.95 2138.84 L2981.14 2140.20 L2987.32 2141.44 L2993.51 2142.43 L2999.70 2143.29 L3005.76 2144.04 L3011.95 2144.53 L3018.14 2144.78 L3024.33 2145.03 L3030.51 2145.03 L3036.58 2144.90 L3042.76 2144.65 L3048.95 2144.28 L3055.14 2143.79 L3061.33 2143.05 L3067.39 2142.30 L3073.58 2141.56 L3079.77 2140.57 L3085.95 2139.58 L3092.14 2138.47 L3098.20 2137.35 L3104.39 2136.24 L3110.58 2135.00 L3116.77 2133.76 L3122.95 2132.53 L3129.02 2131.29 L3135.21 2130.05 L3141.39 2128.81 L3147.58 2127.58 L3153.77 2126.46 L3159.83 2125.35 L3166.02 2124.24 L3172.21 2123.25 L3178.39 2122.38 L3184.58 2121.64 L3190.77 2120.89 L3196.83 2120.28 L3203.02 2119.78 L3209.21 2119.41 L3215.40 2119.04 L3221.58 2118.91 L3227.65 2118.91 L3233.84 2118.91 L3240.02 2119.16 L3246.21 2119.41 L3252.40 2119.90 L3258.46 2120.40 L3264.65 2121.14 L3270.84 2121.88 L3277.02 2122.75 L3283.21 2123.74 L3289.28 2124.73 L3295.46 2125.97 L3301.65 2127.21 L3307.84 2128.44 L3314.03 2129.80 L3320.09 2131.17 L3326.28 2132.65 L3332.46 2134.14 L3338.65 2135.62 L3344.84 2137.11 L3350.90 2138.59 L3357.09 2140.20 L3363.28 2141.68 L3369.47 2143.17 L3375.65 2144.78 L3381.84 2146.26 L3387.90 2147.62 L3394.09 2149.11 L3400.28 2150.47 L3406.47 2151.71 L3412.65 2153.07 L3418.72 2154.31 L3424.91 2155.42 L3431.09 2156.53 L3437.28 2157.65 L3443.47 2158.64 L3449.53 2159.63 L3455.72 2160.50 L3461.91 2161.36 L3468.09 2162.23 L3474.28 2162.97 L3480.34 2163.59 L3486.53 2164.33 L3492.72 2164.83 L3498.91 2165.45 L3505.09 2165.94 L3511.16 2166.44 L3517.35 2166.81 L3523.53 2167.18 L3529.72 2167.55 L3535.91 2167.92 L3542.10 2168.17 L3548.16 2168.42 L3554.35 2168.66 L3560.53 2168.91 L3566.72 2169.03 L3572.91 2169.28 L3578.97 2169.41 L3585.16 2169.53 L3591.35 2169.65 L3597.54 2169.78 L3603.72 2169.78" stroke-linecap="round" stroke-linejoin="round" style="fill:none;stroke:#000000;stroke-width:8.64"/>
	<line x1="390.80" y1="2233.63" x2="390.80" y2="100.86" style="stroke:#000000;stroke-width:5.76"/>
	<line x1="390.80" y1="2170.27" x2="350.83" y2="2170.27" style="stroke:#000000;stroke-width:5.76"/>
	<text x="300.72" y="2170.27" style="font-family:'Helvetica';font-size:99.99px;fill:#000000" transform="rotate(-90 300.72,2170.27)" text-anchor="middle">0</text>
	<line x1="390.80" y1="1686.77" x2="350.83" y2="1686.77" style="stroke:#000000;stroke-width:5.76"/>
	<text x="300.72" y="1686.77" style="font-family:'Helvetica';font-size:99.99px;fill:#000000" transform="rotate(-90 300.72,1686.77)" text-anchor="middle">2</text>
	<line x1="390.80" y1="1203.14" x2="350.83" y2="1203.14" style="stroke:#000000;stroke-width:5.76"/>
	<text x="300.72" y="1203.14" style="font-family:'Helvetica';font-size:99.99px;fill:#000000" transform="rotate(-90 300.72,1203.14)" text-anchor="middle">4</text>
	<line x1="390.80" y1="719.63" x2="350.83" y2="719.63" style="stroke:#000000;stroke-width:5.76"/>
	<text x="300.72" y="719.63" style="font-family:'Helvetica';font-size:99.99px;fill:#000000" transform="rotate(-90 300.72,719.63)" text-anchor="middle">6</text>
	<line x1="390.80" y1="236.00" x2="350.83" y2="236.00" style="stroke:#000000;stroke-width:5.76"/>
	<text x="300.72" y="236.00" style="font-family:'Helvetica';font-size:99.99px;fill:#000000" transform="rotate(-90 300.72,236.00)" text-anchor="middle">8</text>
	<text x="190.71" y="1167.25" style="font-family:'Helvetica';font-size:99.99px;fill:#000000" transform="rotate(-90 190.71,1167.25)" text-anchor="middle">Density</text>
	<line x1="390.80" y1="2233.63" x2="3859.02" y2="2233.63" style="stroke:#000000;stroke-width:5.76"/>
	<line x1="633.11" y1="2233.63" x2="633.11" y2="2273.73" style="stroke:#000000;stroke-width:5.76"/>
	<text x="633.11" y="2363.59" style="font-family:'Helvetica';font-size:99.99px;fill:#000000" text-anchor="middle">-.2</text>
	<line x1="1687.33" y1="2233.63" x2="1687.33" y2="2273.73" style="stroke:#000000;stroke-width:5.76"/>
	<text x="1687.33" y="2363.59" style="font-family:'Helvetica';font-size:99.99px;fill:#000000" text-anchor="middle">0</text>
	<line x1="2741.56" y1="2233.63" x2="2741.56" y2="2273.73" style="stroke:#000000;stroke-width:5.76"/>
	<text x="2741.56" y="2363.59" style="font-family:'Helvetica';font-size:99.99px;fill:#000000" text-anchor="middle">.2</text>
	<line x1="3795.66" y1="2233.63" x2="3795.66" y2="2273.73" style="stroke:#000000;stroke-width:5.76"/>
	<text x="3795.66" y="2363.59" style="font-family:'Helvetica';font-size:99.99px;fill:#000000" text-anchor="middle">.4</text>
	<text x="2124.91" y="2473.60" style="font-family:'Helvetica';font-size:99.99px;fill:#000000" text-anchor="middle">IV estimates</text>
	<rect x="864.39" y="2558.24" width="2521.16" height="186.37" style="fill:#FFFFFF"/>
	<rect x="867.27" y="2561.12" width="2515.40" height="180.61" style="fill:none;stroke:#000000;stroke-width:5.76"/>
	<line x1="907.58" y1="2651.43" x2="1281.93" y2="2651.43" style="stroke:#A0A0A0;stroke-width:8.64"/>
	<line x1="1814.42" y1="2651.43" x2="2188.77" y2="2651.43" style="stroke:#505050;stroke-width:8.64"/>
	<line x1="2662.98" y1="2651.43" x2="3037.32" y2="2651.43" style="stroke:#000000;stroke-width:8.64"/>
	<text x="1341.94" y="2686.46" style="font-family:'Helvetica';font-size:99.99px;fill:#000000">φ = .25</text>
	<text x="2248.78" y="2686.46" style="font-family:'Helvetica';font-size:99.99px;fill:#000000">φ = .5</text>
	<text x="3097.34" y="2686.46" style="font-family:'Helvetica';font-size:99.99px;fill:#000000">φ = 1</text>
</svg>
