<?xml version="1.0" encoding="UTF-8" standalone="no"?>
<!-- This is a Stata 18.5 generated SVG file (http://www.stata.com) -->

<svg version="1.1" width="600px" height="360px" viewBox="0 0 5400 3240" xmlns="http://www.w3.org/2000/svg" xmlns:xlink="http://www.w3.org/1999/xlink">
	<desc>Stata Graph - Graph</desc>
	<rect x="0" y="0" width="5400" height="3240" style="fill:#FFFFFF;stroke:none"/>
	<rect x="0.00" y="0.00" width="5400.00" height="3240.00" style="fill:#FFFFFF"/>
	<rect x="3.24" y="3.24" width="5393.52" height="3233.52" style="fill:none;stroke:#FFFFFF;stroke-width:6.48"/>
	<rect x="459.34" y="113.40" width="4827.26" height="2365.71" style="fill:#FFFFFF"/>
	<rect x="462.58" y="116.64" width="4820.78" height="2359.23" style="fill:none;stroke:#FFFFFF;stroke-width:6.48"/>
	<line x1="459.34" y1="2407.89" x2="524.14" y2="2407.89" style="stroke:#F0F0F0;stroke-width:9.72"/>
	<line x1="556.54" y1="2407.89" x2="621.34" y2="2407.89" style="stroke:#F0F0F0;stroke-width:9.72"/>
	<line x1="653.74" y1="2407.89" x2="718.54" y2="2407.89" style="stroke:#F0F0F0;stroke-width:9.72"/>
	<line x1="750.94" y1="2407.89" x2="815.74" y2="2407.89" style="stroke:#F0F0F0;stroke-width:9.72"/>
	<line x1="848.14" y1="2407.89" x2="912.94" y2="2407.89" style="stroke:#F0F0F0;stroke-width:9.72"/>
	<line x1="945.34" y1="2407.89" x2="1010.14" y2="2407.89" style="stroke:#F0F0F0;stroke-width:9.72"/>
	<line x1="1042.54" y1="2407.89" x2="1107.34" y2="2407.89" style="stroke:#F0F0F0;stroke-width:9.72"/>
	<line x1="1139.74" y1="2407.89" x2="1204.54" y2="2407.89" style="stroke:#F0F0F0;stroke-width:9.72"/>
	<line x1="1236.94" y1="2407.89" x2="1301.74" y2="2407.89" style="stroke:#F0F0F0;stroke-width:9.72"/>
	<line x1="1334.14" y1="2407.89" x2="1398.94" y2="2407.89" style="stroke:#F0F0F0;stroke-width:9.72"/>
	<line x1="1431.34" y1="2407.89" x2="1496.14" y2="2407.89" style="stroke:#F0F0F0;stroke-width:9.72"/>
	<line x1="1528.54" y1="2407.89" x2="1593.34" y2="2407.89" style="stroke:#F0F0F0;stroke-width:9.72"/>
	<line x1="1625.74" y1="2407.89" x2="1690.54" y2="2407.89" style="stroke:#F0F0F0;stroke-width:9.72"/>
	<line x1="1722.94" y1="2407.89" x2="1787.74" y2="2407.89" style="stroke:#F0F0F0;stroke-width:9.72"/>
	<line x1="1820.14" y1="2407.89" x2="1884.94" y2="2407.89" style="stroke:#F0F0F0;stroke-width:9.72"/>
	<line x1="1917.34" y1="2407.89" x2="1982.14" y2="2407.89" style="stroke:#F0F0F0;stroke-width:9.72"/>
	<line x1="2014.54" y1="2407.89" x2="2079.34" y2="2407.89" style="stroke:#F0F0F0;stroke-width:9.72"/>
	<line x1="2111.74" y1="2407.89" x2="2176.54" y2="2407.89" style="stroke:#F0F0F0;stroke-width:9.72"/>
	<line x1="2208.94" y1="2407.89" x2="2273.74" y2="2407.89" style="stroke:#F0F0F0;stroke-width:9.72"/>
	<line x1="2306.14" y1="2407.89" x2="2370.94" y2="2407.89" style="stroke:#F0F0F0;stroke-width:9.72"/>
	<line x1="2403.34" y1="2407.89" x2="2468.14" y2="2407.89" style="stroke:#F0F0F0;stroke-width:9.72"/>
	<line x1="2500.54" y1="2407.89" x2="2565.34" y2="2407.89" style="stroke:#F0F0F0;stroke-width:9.72"/>
	<line x1="2597.74" y1="2407.89" x2="2662.54" y2="2407.89" style="stroke:#F0F0F0;stroke-width:9.72"/>
	<line x1="2694.94" y1="2407.89" x2="2759.74" y2="2407.89" style="stroke:#F0F0F0;stroke-width:9.72"/>
	<line x1="2792.14" y1="2407.89" x2="2856.94" y2="2407.89" style="stroke:#F0F0F0;stroke-width:9.72"/>
	<line x1="2889.34" y1="2407.89" x2="2954.14" y2="2407.89" style="stroke:#F0F0F0;stroke-width:9.72"/>
	<line x1="2986.54" y1="2407.89" x2="3051.34" y2="2407.89" style="stroke:#F0F0F0;stroke-width:9.72"/>
	<line x1="3083.74" y1="2407.89" x2="3148.54" y2="2407.89" style="stroke:#F0F0F0;stroke-width:9.72"/>
	<line x1="3180.94" y1="2407.89" x2="3245.74" y2="2407.89" style="stroke:#F0F0F0;stroke-width:9.72"/>
	<line x1="3278.14" y1="2407.89" x2="3342.94" y2="2407.89" style="stroke:#F0F0F0;stroke-width:9.72"/>
	<line x1="3375.34" y1="2407.89" x2="3440.14" y2="2407.89" style="stroke:#F0F0F0;stroke-width:9.72"/>
	<line x1="3472.54" y1="2407.89" x2="3537.34" y2="2407.89" style="stroke:#F0F0F0;stroke-width:9.72"/>
	<line x1="3569.74" y1="2407.89" x2="3634.54" y2="2407.89" style="stroke:#F0F0F0;stroke-width:9.72"/>
	<line x1="3666.94" y1="2407.89" x2="3731.74" y2="2407.89" style="stroke:#F0F0F0;stroke-width:9.72"/>
	<line x1="3764.14" y1="2407.89" x2="3828.94" y2="2407.89" style="stroke:#F0F0F0;stroke-width:9.72"/>
	<line x1="3861.34" y1="2407.89" x2="3926.14" y2="2407.89" style="stroke:#F0F0F0;stroke-width:9.72"/>
	<line x1="3958.54" y1="2407.89" x2="4023.34" y2="2407.89" style="stroke:#F0F0F0;stroke-width:9.72"/>
	<line x1="4055.74" y1="2407.89" x2="4120.54" y2="2407.89" style="stroke:#F0F0F0;stroke-width:9.72"/>
	<line x1="4152.94" y1="2407.89" x2="4217.74" y2="2407.89" style="stroke:#F0F0F0;stroke-width:9.72"/>
	<line x1="4250.14" y1="2407.89" x2="4314.94" y2="2407.89" style="stroke:#F0F0F0;stroke-width:9.72"/>
	<line x1="4347.34" y1="2407.89" x2="4412.14" y2="2407.89" style="stroke:#F0F0F0;stroke-width:9.72"/>
	<line x1="4444.54" y1="2407.89" x2="4509.34" y2="2407.89" style="stroke:#F0F0F0;stroke-width:9.72"/>
	<line x1="4541.74" y1="2407.89" x2="4606.54" y2="2407.89" style="stroke:#F0F0F0;stroke-width:9.72"/>
	<line x1="4638.94" y1="2407.89" x2="4703.74" y2="2407.89" style="stroke:#F0F0F0;stroke-width:9.72"/>
	<line x1="4736.14" y1="2407.89" x2="4800.94" y2="2407.89" style="stroke:#F0F0F0;stroke-width:9.72"/>
	<line x1="4833.34" y1="2407.89" x2="4898.14" y2="2407.89" style="stroke:#F0F0F0;stroke-width:9.72"/>
	<line x1="4930.54" y1="2407.89" x2="4995.34" y2="2407.89" style="stroke:#F0F0F0;stroke-width:9.72"/>
	<line x1="5027.74" y1="2407.89" x2="5092.54" y2="2407.89" style="stroke:#F0F0F0;stroke-width:9.72"/>
	<line x1="5124.94" y1="2407.89" x2="5189.74" y2="2407.89" style="stroke:#F0F0F0;stroke-width:9.72"/>
	<line x1="5222.14" y1="2407.89" x2="5286.60" y2="2407.89" style="stroke:#F0F0F0;stroke-width:9.72"/>
	<line x1="459.34" y1="1666.74" x2="524.14" y2="1666.74" style="stroke:#F0F0F0;stroke-width:9.72"/>
	<line x1="556.54" y1="1666.74" x2="621.34" y2="1666.74" style="stroke:#F0F0F0;stroke-width:9.72"/>
	<line x1="653.74" y1="1666.74" x2="718.54" y2="1666.74" style="stroke:#F0F0F0;stroke-width:9.72"/>
	<line x1="750.94" y1="1666.74" x2="815.74" y2="1666.74" style="stroke:#F0F0F0;stroke-width:9.72"/>
	<line x1="848.14" y1="1666.74" x2="912.94" y2="1666.74" style="stroke:#F0F0F0;stroke-width:9.72"/>
	<line x1="945.34" y1="1666.74" x2="1010.14" y2="1666.74" style="stroke:#F0F0F0;stroke-width:9.72"/>
	<line x1="1042.54" y1="1666.74" x2="1107.34" y2="1666.74" style="stroke:#F0F0F0;stroke-width:9.72"/>
	<line x1="1139.74" y1="1666.74" x2="1204.54" y2="1666.74" style="stroke:#F0F0F0;stroke-width:9.72"/>
	<line x1="1236.94" y1="1666.74" x2="1301.74" y2="1666.74" style="stroke:#F0F0F0;stroke-width:9.72"/>
	<line x1="1334.14" y1="1666.74" x2="1398.94" y2="1666.74" style="stroke:#F0F0F0;stroke-width:9.72"/>
	<line x1="1431.34" y1="1666.74" x2="1496.14" y2="1666.74" style="stroke:#F0F0F0;stroke-width:9.72"/>
	<line x1="1528.54" y1="1666.74" x2="1593.34" y2="1666.74" style="stroke:#F0F0F0;stroke-width:9.72"/>
	<line x1="1625.74" y1="1666.74" x2="1690.54" y2="1666.74" style="stroke:#F0F0F0;stroke-width:9.72"/>
	<line x1="1722.94" y1="1666.74" x2="1787.74" y2="1666.74" style="stroke:#F0F0F0;stroke-width:9.72"/>
	<line x1="1820.14" y1="1666.74" x2="1884.94" y2="1666.74" style="stroke:#F0F0F0;stroke-width:9.72"/>
	<line x1="1917.34" y1="1666.74" x2="1982.14" y2="1666.74" style="stroke:#F0F0F0;stroke-width:9.72"/>
	<line x1="2014.54" y1="1666.74" x2="2079.34" y2="1666.74" style="stroke:#F0F0F0;stroke-width:9.72"/>
	<line x1="2111.74" y1="1666.74" x2="2176.54" y2="1666.74" style="stroke:#F0F0F0;stroke-width:9.72"/>
	<line x1="2208.94" y1="1666.74" x2="2273.74" y2="1666.74" style="stroke:#F0F0F0;stroke-width:9.72"/>
	<line x1="2306.14" y1="1666.74" x2="2370.94" y2="1666.74" style="stroke:#F0F0F0;stroke-width:9.72"/>
	<line x1="2403.34" y1="1666.74" x2="2468.14" y2="1666.74" style="stroke:#F0F0F0;stroke-width:9.72"/>
	<line x1="2500.54" y1="1666.74" x2="2565.34" y2="1666.74" style="stroke:#F0F0F0;stroke-width:9.72"/>
	<line x1="2597.74" y1="1666.74" x2="2662.54" y2="1666.74" style="stroke:#F0F0F0;stroke-width:9.72"/>
	<line x1="2694.94" y1="1666.74" x2="2759.74" y2="1666.74" style="stroke:#F0F0F0;stroke-width:9.72"/>
	<line x1="2792.14" y1="1666.74" x2="2856.94" y2="1666.74" style="stroke:#F0F0F0;stroke-width:9.72"/>
	<line x1="2889.34" y1="1666.74" x2="2954.14" y2="1666.74" style="stroke:#F0F0F0;stroke-width:9.72"/>
	<line x1="2986.54" y1="1666.74" x2="3051.34" y2="1666.74" style="stroke:#F0F0F0;stroke-width:9.72"/>
	<line x1="3083.74" y1="1666.74" x2="3148.54" y2="1666.74" style="stroke:#F0F0F0;stroke-width:9.72"/>
	<line x1="3180.94" y1="1666.74" x2="3245.74" y2="1666.74" style="stroke:#F0F0F0;stroke-width:9.72"/>
	<line x1="3278.14" y1="1666.74" x2="3342.94" y2="1666.74" style="stroke:#F0F0F0;stroke-width:9.72"/>
	<line x1="3375.34" y1="1666.74" x2="3440.14" y2="1666.74" style="stroke:#F0F0F0;stroke-width:9.72"/>
	<line x1="3472.54" y1="1666.74" x2="3537.34" y2="1666.74" style="stroke:#F0F0F0;stroke-width:9.72"/>
	<line x1="3569.74" y1="1666.74" x2="3634.54" y2="1666.74" style="stroke:#F0F0F0;stroke-width:9.72"/>
	<line x1="3666.94" y1="1666.74" x2="3731.74" y2="1666.74" style="stroke:#F0F0F0;stroke-width:9.72"/>
	<line x1="3764.14" y1="1666.74" x2="3828.94" y2="1666.74" style="stroke:#F0F0F0;stroke-width:9.72"/>
	<line x1="3861.34" y1="1666.74" x2="3926.14" y2="1666.74" style="stroke:#F0F0F0;stroke-width:9.72"/>
	<line x1="3958.54" y1="1666.74" x2="4023.34" y2="1666.74" style="stroke:#F0F0F0;stroke-width:9.72"/>
	<line x1="4055.74" y1="1666.74" x2="4120.54" y2="1666.74" style="stroke:#F0F0F0;stroke-width:9.72"/>
	<line x1="4152.94" y1="1666.74" x2="4217.74" y2="1666.74" style="stroke:#F0F0F0;stroke-width:9.72"/>
	<line x1="4250.14" y1="1666.74" x2="4314.94" y2="1666.74" style="stroke:#F0F0F0;stroke-width:9.72"/>
	<line x1="4347.34" y1="1666.74" x2="4412.14" y2="1666.74" style="stroke:#F0F0F0;stroke-width:9.72"/>
	<line x1="4444.54" y1="1666.74" x2="4509.34" y2="1666.74" style="stroke:#F0F0F0;stroke-width:9.72"/>
	<line x1="4541.74" y1="1666.74" x2="4606.54" y2="1666.74" style="stroke:#F0F0F0;stroke-width:9.72"/>
	<line x1="4638.94" y1="1666.74" x2="4703.74" y2="1666.74" style="stroke:#F0F0F0;stroke-width:9.72"/>
	<line x1="4736.14" y1="1666.74" x2="4800.94" y2="1666.74" style="stroke:#F0F0F0;stroke-width:9.72"/>
	<line x1="4833.34" y1="1666.74" x2="4898.14" y2="1666.74" style="stroke:#F0F0F0;stroke-width:9.72"/>
	<line x1="4930.54" y1="1666.74" x2="4995.34" y2="1666.74" style="stroke:#F0F0F0;stroke-width:9.72"/>
	<line x1="5027.74" y1="1666.74" x2="5092.54" y2="1666.74" style="stroke:#F0F0F0;stroke-width:9.72"/>
	<line x1="5124.94" y1="1666.74" x2="5189.74" y2="1666.74" style="stroke:#F0F0F0;stroke-width:9.72"/>
	<line x1="5222.14" y1="1666.74" x2="5286.60" y2="1666.74" style="stroke:#F0F0F0;stroke-width:9.72"/>
	<line x1="459.34" y1="925.76" x2="524.14" y2="925.76" style="stroke:#F0F0F0;stroke-width:9.72"/>
	<line x1="556.54" y1="925.76" x2="621.34" y2="925.76" style="stroke:#F0F0F0;stroke-width:9.72"/>
	<line x1="653.74" y1="925.76" x2="718.54" y2="925.76" style="stroke:#F0F0F0;stroke-width:9.72"/>
	<line x1="750.94" y1="925.76" x2="815.74" y2="925.76" style="stroke:#F0F0F0;stroke-width:9.72"/>
	<line x1="848.14" y1="925.76" x2="912.94" y2="925.76" style="stroke:#F0F0F0;stroke-width:9.72"/>
	<line x1="945.34" y1="925.76" x2="1010.14" y2="925.76" style="stroke:#F0F0F0;stroke-width:9.72"/>
	<line x1="1042.54" y1="925.76" x2="1107.34" y2="925.76" style="stroke:#F0F0F0;stroke-width:9.72"/>
	<line x1="1139.74" y1="925.76" x2="1204.54" y2="925.76" style="stroke:#F0F0F0;stroke-width:9.72"/>
	<line x1="1236.94" y1="925.76" x2="1301.74" y2="925.76" style="stroke:#F0F0F0;stroke-width:9.72"/>
	<line x1="1334.14" y1="925.76" x2="1398.94" y2="925.76" style="stroke:#F0F0F0;stroke-width:9.72"/>
	<line x1="1431.34" y1="925.76" x2="1496.14" y2="925.76" style="stroke:#F0F0F0;stroke-width:9.72"/>
	<line x1="1528.54" y1="925.76" x2="1593.34" y2="925.76" style="stroke:#F0F0F0;stroke-width:9.72"/>
	<line x1="1625.74" y1="925.76" x2="1690.54" y2="925.76" style="stroke:#F0F0F0;stroke-width:9.72"/>
	<line x1="1722.94" y1="925.76" x2="1787.74" y2="925.76" style="stroke:#F0F0F0;stroke-width:9.72"/>
	<line x1="1820.14" y1="925.76" x2="1884.94" y2="925.76" style="stroke:#F0F0F0;stroke-width:9.72"/>
	<line x1="1917.34" y1="925.76" x2="1982.14" y2="925.76" style="stroke:#F0F0F0;stroke-width:9.72"/>
	<line x1="2014.54" y1="925.76" x2="2079.34" y2="925.76" style="stroke:#F0F0F0;stroke-width:9.72"/>
	<line x1="2111.74" y1="925.76" x2="2176.54" y2="925.76" style="stroke:#F0F0F0;stroke-width:9.72"/>
	<line x1="2208.94" y1="925.76" x2="2273.74" y2="925.76" style="stroke:#F0F0F0;stroke-width:9.72"/>
	<line x1="2306.14" y1="925.76" x2="2370.94" y2="925.76" style="stroke:#F0F0F0;stroke-width:9.72"/>
	<line x1="2403.34" y1="925.76" x2="2468.14" y2="925.76" style="stroke:#F0F0F0;stroke-width:9.72"/>
	<line x1="2500.54" y1="925.76" x2="2565.34" y2="925.76" style="stroke:#F0F0F0;stroke-width:9.72"/>
	<line x1="2597.74" y1="925.76" x2="2662.54" y2="925.76" style="stroke:#F0F0F0;stroke-width:9.72"/>
	<line x1="2694.94" y1="925.76" x2="2759.74" y2="925.76" style="stroke:#F0F0F0;stroke-width:9.72"/>
	<line x1="2792.14" y1="925.76" x2="2856.94" y2="925.76" style="stroke:#F0F0F0;stroke-width:9.72"/>
	<line x1="2889.34" y1="925.76" x2="2954.14" y2="925.76" style="stroke:#F0F0F0;stroke-width:9.72"/>
	<line x1="2986.54" y1="925.76" x2="3051.34" y2="925.76" style="stroke:#F0F0F0;stroke-width:9.72"/>
	<line x1="3083.74" y1="925.76" x2="3148.54" y2="925.76" style="stroke:#F0F0F0;stroke-width:9.72"/>
	<line x1="3180.94" y1="925.76" x2="3245.74" y2="925.76" style="stroke:#F0F0F0;stroke-width:9.72"/>
	<line x1="3278.14" y1="925.76" x2="3342.94" y2="925.76" style="stroke:#F0F0F0;stroke-width:9.72"/>
	<line x1="3375.34" y1="925.76" x2="3440.14" y2="925.76" style="stroke:#F0F0F0;stroke-width:9.72"/>
	<line x1="3472.54" y1="925.76" x2="3537.34" y2="925.76" style="stroke:#F0F0F0;stroke-width:9.72"/>
	<line x1="3569.74" y1="925.76" x2="3634.54" y2="925.76" style="stroke:#F0F0F0;stroke-width:9.72"/>
	<line x1="3666.94" y1="925.76" x2="3731.74" y2="925.76" style="stroke:#F0F0F0;stroke-width:9.72"/>
	<line x1="3764.14" y1="925.76" x2="3828.94" y2="925.76" style="stroke:#F0F0F0;stroke-width:9.72"/>
	<line x1="3861.34" y1="925.76" x2="3926.14" y2="925.76" style="stroke:#F0F0F0;stroke-width:9.72"/>
	<line x1="3958.54" y1="925.76" x2="4023.34" y2="925.76" style="stroke:#F0F0F0;stroke-width:9.72"/>
	<line x1="4055.74" y1="925.76" x2="4120.54" y2="925.76" style="stroke:#F0F0F0;stroke-width:9.72"/>
	<line x1="4152.94" y1="925.76" x2="4217.74" y2="925.76" style="stroke:#F0F0F0;stroke-width:9.72"/>
	<line x1="4250.14" y1="925.76" x2="4314.94" y2="925.76" style="stroke:#F0F0F0;stroke-width:9.72"/>
	<line x1="4347.34" y1="925.76" x2="4412.14" y2="925.76" style="stroke:#F0F0F0;stroke-width:9.72"/>
	<line x1="4444.54" y1="925.76" x2="4509.34" y2="925.76" style="stroke:#F0F0F0;stroke-width:9.72"/>
	<line x1="4541.74" y1="925.76" x2="4606.54" y2="925.76" style="stroke:#F0F0F0;stroke-width:9.72"/>
	<line x1="4638.94" y1="925.76" x2="4703.74" y2="925.76" style="stroke:#F0F0F0;stroke-width:9.72"/>
	<line x1="4736.14" y1="925.76" x2="4800.94" y2="925.76" style="stroke:#F0F0F0;stroke-width:9.72"/>
	<line x1="4833.34" y1="925.76" x2="4898.14" y2="925.76" style="stroke:#F0F0F0;stroke-width:9.72"/>
	<line x1="4930.54" y1="925.76" x2="4995.34" y2="925.76" style="stroke:#F0F0F0;stroke-width:9.72"/>
	<line x1="5027.74" y1="925.76" x2="5092.54" y2="925.76" style="stroke:#F0F0F0;stroke-width:9.72"/>
	<line x1="5124.94" y1="925.76" x2="5189.74" y2="925.76" style="stroke:#F0F0F0;stroke-width:9.72"/>
	<line x1="5222.14" y1="925.76" x2="5286.60" y2="925.76" style="stroke:#F0F0F0;stroke-width:9.72"/>
	<line x1="459.34" y1="184.61" x2="524.14" y2="184.61" style="stroke:#F0F0F0;stroke-width:9.72"/>
	<line x1="556.54" y1="184.61" x2="621.34" y2="184.61" style="stroke:#F0F0F0;stroke-width:9.72"/>
	<line x1="653.74" y1="184.61" x2="718.54" y2="184.61" style="stroke:#F0F0F0;stroke-width:9.72"/>
	<line x1="750.94" y1="184.61" x2="815.74" y2="184.61" style="stroke:#F0F0F0;stroke-width:9.72"/>
	<line x1="848.14" y1="184.61" x2="912.94" y2="184.61" style="stroke:#F0F0F0;stroke-width:9.72"/>
	<line x1="945.34" y1="184.61" x2="1010.14" y2="184.61" style="stroke:#F0F0F0;stroke-width:9.72"/>
	<line x1="1042.54" y1="184.61" x2="1107.34" y2="184.61" style="stroke:#F0F0F0;stroke-width:9.72"/>
	<line x1="1139.74" y1="184.61" x2="1204.54" y2="184.61" style="stroke:#F0F0F0;stroke-width:9.72"/>
	<line x1="1236.94" y1="184.61" x2="1301.74" y2="184.61" style="stroke:#F0F0F0;stroke-width:9.72"/>
	<line x1="1334.14" y1="184.61" x2="1398.94" y2="184.61" style="stroke:#F0F0F0;stroke-width:9.72"/>
	<line x1="1431.34" y1="184.61" x2="1496.14" y2="184.61" style="stroke:#F0F0F0;stroke-width:9.72"/>
	<line x1="1528.54" y1="184.61" x2="1593.34" y2="184.61" style="stroke:#F0F0F0;stroke-width:9.72"/>
	<line x1="1625.74" y1="184.61" x2="1690.54" y2="184.61" style="stroke:#F0F0F0;stroke-width:9.72"/>
	<line x1="1722.94" y1="184.61" x2="1787.74" y2="184.61" style="stroke:#F0F0F0;stroke-width:9.72"/>
	<line x1="1820.14" y1="184.61" x2="1884.94" y2="184.61" style="stroke:#F0F0F0;stroke-width:9.72"/>
	<line x1="1917.34" y1="184.61" x2="1982.14" y2="184.61" style="stroke:#F0F0F0;stroke-width:9.72"/>
	<line x1="2014.54" y1="184.61" x2="2079.34" y2="184.61" style="stroke:#F0F0F0;stroke-width:9.72"/>
	<line x1="2111.74" y1="184.61" x2="2176.54" y2="184.61" style="stroke:#F0F0F0;stroke-width:9.72"/>
	<line x1="2208.94" y1="184.61" x2="2273.74" y2="184.61" style="stroke:#F0F0F0;stroke-width:9.72"/>
	<line x1="2306.14" y1="184.61" x2="2370.94" y2="184.61" style="stroke:#F0F0F0;stroke-width:9.72"/>
	<line x1="2403.34" y1="184.61" x2="2468.14" y2="184.61" style="stroke:#F0F0F0;stroke-width:9.72"/>
	<line x1="2500.54" y1="184.61" x2="2565.34" y2="184.61" style="stroke:#F0F0F0;stroke-width:9.72"/>
	<line x1="2597.74" y1="184.61" x2="2662.54" y2="184.61" style="stroke:#F0F0F0;stroke-width:9.72"/>
	<line x1="2694.94" y1="184.61" x2="2759.74" y2="184.61" style="stroke:#F0F0F0;stroke-width:9.72"/>
	<line x1="2792.14" y1="184.61" x2="2856.94" y2="184.61" style="stroke:#F0F0F0;stroke-width:9.72"/>
	<line x1="2889.34" y1="184.61" x2="2954.14" y2="184.61" style="stroke:#F0F0F0;stroke-width:9.72"/>
	<line x1="2986.54" y1="184.61" x2="3051.34" y2="184.61" style="stroke:#F0F0F0;stroke-width:9.72"/>
	<line x1="3083.74" y1="184.61" x2="3148.54" y2="184.61" style="stroke:#F0F0F0;stroke-width:9.72"/>
	<line x1="3180.94" y1="184.61" x2="3245.74" y2="184.61" style="stroke:#F0F0F0;stroke-width:9.72"/>
	<line x1="3278.14" y1="184.61" x2="3342.94" y2="184.61" style="stroke:#F0F0F0;stroke-width:9.72"/>
	<line x1="3375.34" y1="184.61" x2="3440.14" y2="184.61" style="stroke:#F0F0F0;stroke-width:9.72"/>
	<line x1="3472.54" y1="184.61" x2="3537.34" y2="184.61" style="stroke:#F0F0F0;stroke-width:9.72"/>
	<line x1="3569.74" y1="184.61" x2="3634.54" y2="184.61" style="stroke:#F0F0F0;stroke-width:9.72"/>
	<line x1="3666.94" y1="184.61" x2="3731.74" y2="184.61" style="stroke:#F0F0F0;stroke-width:9.72"/>
	<line x1="3764.14" y1="184.61" x2="3828.94" y2="184.61" style="stroke:#F0F0F0;stroke-width:9.72"/>
	<line x1="3861.34" y1="184.61" x2="3926.14" y2="184.61" style="stroke:#F0F0F0;stroke-width:9.72"/>
	<line x1="3958.54" y1="184.61" x2="4023.34" y2="184.61" style="stroke:#F0F0F0;stroke-width:9.72"/>
	<line x1="4055.74" y1="184.61" x2="4120.54" y2="184.61" style="stroke:#F0F0F0;stroke-width:9.72"/>
	<line x1="4152.94" y1="184.61" x2="4217.74" y2="184.61" style="stroke:#F0F0F0;stroke-width:9.72"/>
	<line x1="4250.14" y1="184.61" x2="4314.94" y2="184.61" style="stroke:#F0F0F0;stroke-width:9.72"/>
	<line x1="4347.34" y1="184.61" x2="4412.14" y2="184.61" style="stroke:#F0F0F0;stroke-width:9.72"/>
	<line x1="4444.54" y1="184.61" x2="4509.34" y2="184.61" style="stroke:#F0F0F0;stroke-width:9.72"/>
	<line x1="4541.74" y1="184.61" x2="4606.54" y2="184.61" style="stroke:#F0F0F0;stroke-width:9.72"/>
	<line x1="4638.94" y1="184.61" x2="4703.74" y2="184.61" style="stroke:#F0F0F0;stroke-width:9.72"/>
	<line x1="4736.14" y1="184.61" x2="4800.94" y2="184.61" style="stroke:#F0F0F0;stroke-width:9.72"/>
	<line x1="4833.34" y1="184.61" x2="4898.14" y2="184.61" style="stroke:#F0F0F0;stroke-width:9.72"/>
	<line x1="4930.54" y1="184.61" x2="4995.34" y2="184.61" style="stroke:#F0F0F0;stroke-width:9.72"/>
	<line x1="5027.74" y1="184.61" x2="5092.54" y2="184.61" style="stroke:#F0F0F0;stroke-width:9.72"/>
	<line x1="5124.94" y1="184.61" x2="5189.74" y2="184.61" style="stroke:#F0F0F0;stroke-width:9.72"/>
	<line x1="5222.14" y1="184.61" x2="5286.60" y2="184.61" style="stroke:#F0F0F0;stroke-width:9.72"/>
	<line x1="718.54" y1="2479.11" x2="718.54" y2="2414.31" style="stroke:#F0F0F0;stroke-width:9.72"/>
	<line x1="718.54" y1="2381.91" x2="718.54" y2="2317.11" style="stroke:#F0F0F0;stroke-width:9.72"/>
	<line x1="718.54" y1="2284.71" x2="718.54" y2="2219.91" style="stroke:#F0F0F0;stroke-width:9.72"/>
	<line x1="718.54" y1="2187.51" x2="718.54" y2="2122.71" style="stroke:#F0F0F0;stroke-width:9.72"/>
	<line x1="718.54" y1="2090.31" x2="718.54" y2="2025.51" style="stroke:#F0F0F0;stroke-width:9.72"/>
	<line x1="718.54" y1="1993.11" x2="718.54" y2="1928.31" style="stroke:#F0F0F0;stroke-width:9.72"/>
	<line x1="718.54" y1="1895.91" x2="718.54" y2="1831.11" style="stroke:#F0F0F0;stroke-width:9.72"/>
	<line x1="718.54" y1="1798.71" x2="718.54" y2="1733.91" style="stroke:#F0F0F0;stroke-width:9.72"/>
	<line x1="718.54" y1="1701.51" x2="718.54" y2="1636.71" style="stroke:#F0F0F0;stroke-width:9.72"/>
	<line x1="718.54" y1="1604.31" x2="718.54" y2="1539.51" style="stroke:#F0F0F0;stroke-width:9.72"/>
	<line x1="718.54" y1="1507.11" x2="718.54" y2="1442.31" style="stroke:#F0F0F0;stroke-width:9.72"/>
	<line x1="718.54" y1="1409.91" x2="718.54" y2="1345.11" style="stroke:#F0F0F0;stroke-width:9.72"/>
	<line x1="718.54" y1="1312.71" x2="718.54" y2="1247.91" style="stroke:#F0F0F0;stroke-width:9.72"/>
	<line x1="718.54" y1="1215.51" x2="718.54" y2="1150.71" style="stroke:#F0F0F0;stroke-width:9.72"/>
	<line x1="718.54" y1="1118.31" x2="718.54" y2="1053.51" style="stroke:#F0F0F0;stroke-width:9.72"/>
	<line x1="718.54" y1="1021.11" x2="718.54" y2="956.31" style="stroke:#F0F0F0;stroke-width:9.72"/>
	<line x1="718.54" y1="923.91" x2="718.54" y2="859.11" style="stroke:#F0F0F0;stroke-width:9.72"/>
	<line x1="718.54" y1="826.71" x2="718.54" y2="761.91" style="stroke:#F0F0F0;stroke-width:9.72"/>
	<line x1="718.54" y1="729.51" x2="718.54" y2="664.71" style="stroke:#F0F0F0;stroke-width:9.72"/>
	<line x1="718.54" y1="632.31" x2="718.54" y2="567.51" style="stroke:#F0F0F0;stroke-width:9.72"/>
	<line x1="718.54" y1="535.11" x2="718.54" y2="470.31" style="stroke:#F0F0F0;stroke-width:9.72"/>
	<line x1="718.54" y1="437.91" x2="718.54" y2="373.11" style="stroke:#F0F0F0;stroke-width:9.72"/>
	<line x1="718.54" y1="340.71" x2="718.54" y2="275.91" style="stroke:#F0F0F0;stroke-width:9.72"/>
	<line x1="718.54" y1="243.51" x2="718.54" y2="178.71" style="stroke:#F0F0F0;stroke-width:9.72"/>
	<line x1="718.54" y1="146.31" x2="718.54" y2="113.40" style="stroke:#F0F0F0;stroke-width:9.72"/>
	<line x1="1842.75" y1="2479.11" x2="1842.75" y2="2414.31" style="stroke:#F0F0F0;stroke-width:9.72"/>
	<line x1="1842.75" y1="2381.91" x2="1842.75" y2="2317.11" style="stroke:#F0F0F0;stroke-width:9.72"/>
	<line x1="1842.75" y1="2284.71" x2="1842.75" y2="2219.91" style="stroke:#F0F0F0;stroke-width:9.72"/>
	<line x1="1842.75" y1="2187.51" x2="1842.75" y2="2122.71" style="stroke:#F0F0F0;stroke-width:9.72"/>
	<line x1="1842.75" y1="2090.31" x2="1842.75" y2="2025.51" style="stroke:#F0F0F0;stroke-width:9.72"/>
	<line x1="1842.75" y1="1993.11" x2="1842.75" y2="1928.31" style="stroke:#F0F0F0;stroke-width:9.72"/>
	<line x1="1842.75" y1="1895.91" x2="1842.75" y2="1831.11" style="stroke:#F0F0F0;stroke-width:9.72"/>
	<line x1="1842.75" y1="1798.71" x2="1842.75" y2="1733.91" style="stroke:#F0F0F0;stroke-width:9.72"/>
	<line x1="1842.75" y1="1701.51" x2="1842.75" y2="1636.71" style="stroke:#F0F0F0;stroke-width:9.72"/>
	<line x1="1842.75" y1="1604.31" x2="1842.75" y2="1539.51" style="stroke:#F0F0F0;stroke-width:9.72"/>
	<line x1="1842.75" y1="1507.11" x2="1842.75" y2="1442.31" style="stroke:#F0F0F0;stroke-width:9.72"/>
	<line x1="1842.75" y1="1409.91" x2="1842.75" y2="1345.11" style="stroke:#F0F0F0;stroke-width:9.72"/>
	<line x1="1842.75" y1="1312.71" x2="1842.75" y2="1247.91" style="stroke:#F0F0F0;stroke-width:9.72"/>
	<line x1="1842.75" y1="1215.51" x2="1842.75" y2="1150.71" style="stroke:#F0F0F0;stroke-width:9.72"/>
	<line x1="1842.75" y1="1118.31" x2="1842.75" y2="1053.51" style="stroke:#F0F0F0;stroke-width:9.72"/>
	<line x1="1842.75" y1="1021.11" x2="1842.75" y2="956.31" style="stroke:#F0F0F0;stroke-width:9.72"/>
	<line x1="1842.75" y1="923.91" x2="1842.75" y2="859.11" style="stroke:#F0F0F0;stroke-width:9.72"/>
	<line x1="1842.75" y1="826.71" x2="1842.75" y2="761.91" style="stroke:#F0F0F0;stroke-width:9.72"/>
	<line x1="1842.75" y1="729.51" x2="1842.75" y2="664.71" style="stroke:#F0F0F0;stroke-width:9.72"/>
	<line x1="1842.75" y1="632.31" x2="1842.75" y2="567.51" style="stroke:#F0F0F0;stroke-width:9.72"/>
	<line x1="1842.75" y1="535.11" x2="1842.75" y2="470.31" style="stroke:#F0F0F0;stroke-width:9.72"/>
	<line x1="1842.75" y1="437.91" x2="1842.75" y2="373.11" style="stroke:#F0F0F0;stroke-width:9.72"/>
	<line x1="1842.75" y1="340.71" x2="1842.75" y2="275.91" style="stroke:#F0F0F0;stroke-width:9.72"/>
	<line x1="1842.75" y1="243.51" x2="1842.75" y2="178.71" style="stroke:#F0F0F0;stroke-width:9.72"/>
	<line x1="1842.75" y1="146.31" x2="1842.75" y2="113.40" style="stroke:#F0F0F0;stroke-width:9.72"/>
	<line x1="2966.96" y1="2479.11" x2="2966.96" y2="2414.31" style="stroke:#F0F0F0;stroke-width:9.72"/>
	<line x1="2966.96" y1="2381.91" x2="2966.96" y2="2317.11" style="stroke:#F0F0F0;stroke-width:9.72"/>
	<line x1="2966.96" y1="2284.71" x2="2966.96" y2="2219.91" style="stroke:#F0F0F0;stroke-width:9.72"/>
	<line x1="2966.96" y1="2187.51" x2="2966.96" y2="2122.71" style="stroke:#F0F0F0;stroke-width:9.72"/>
	<line x1="2966.96" y1="2090.31" x2="2966.96" y2="2025.51" style="stroke:#F0F0F0;stroke-width:9.72"/>
	<line x1="2966.96" y1="1993.11" x2="2966.96" y2="1928.31" style="stroke:#F0F0F0;stroke-width:9.72"/>
	<line x1="2966.96" y1="1895.91" x2="2966.96" y2="1831.11" style="stroke:#F0F0F0;stroke-width:9.72"/>
	<line x1="2966.96" y1="1798.71" x2="2966.96" y2="1733.91" style="stroke:#F0F0F0;stroke-width:9.72"/>
	<line x1="2966.96" y1="1701.51" x2="2966.96" y2="1636.71" style="stroke:#F0F0F0;stroke-width:9.72"/>
	<line x1="2966.96" y1="1604.31" x2="2966.96" y2="1539.51" style="stroke:#F0F0F0;stroke-width:9.72"/>
	<line x1="2966.96" y1="1507.11" x2="2966.96" y2="1442.31" style="stroke:#F0F0F0;stroke-width:9.72"/>
	<line x1="2966.96" y1="1409.91" x2="2966.96" y2="1345.11" style="stroke:#F0F0F0;stroke-width:9.72"/>
	<line x1="2966.96" y1="1312.71" x2="2966.96" y2="1247.91" style="stroke:#F0F0F0;stroke-width:9.72"/>
	<line x1="2966.96" y1="1215.51" x2="2966.96" y2="1150.71" style="stroke:#F0F0F0;stroke-width:9.72"/>
	<line x1="2966.96" y1="1118.31" x2="2966.96" y2="1053.51" style="stroke:#F0F0F0;stroke-width:9.72"/>
	<line x1="2966.96" y1="1021.11" x2="2966.96" y2="956.31" style="stroke:#F0F0F0;stroke-width:9.72"/>
	<line x1="2966.96" y1="923.91" x2="2966.96" y2="859.11" style="stroke:#F0F0F0;stroke-width:9.72"/>
	<line x1="2966.96" y1="826.71" x2="2966.96" y2="761.91" style="stroke:#F0F0F0;stroke-width:9.72"/>
	<line x1="2966.96" y1="729.51" x2="2966.96" y2="664.71" style="stroke:#F0F0F0;stroke-width:9.72"/>
	<line x1="2966.96" y1="632.31" x2="2966.96" y2="567.51" style="stroke:#F0F0F0;stroke-width:9.72"/>
	<line x1="2966.96" y1="535.11" x2="2966.96" y2="470.31" style="stroke:#F0F0F0;stroke-width:9.72"/>
	<line x1="2966.96" y1="437.91" x2="2966.96" y2="373.11" style="stroke:#F0F0F0;stroke-width:9.72"/>
	<line x1="2966.96" y1="340.71" x2="2966.96" y2="275.91" style="stroke:#F0F0F0;stroke-width:9.72"/>
	<line x1="2966.96" y1="243.51" x2="2966.96" y2="178.71" style="stroke:#F0F0F0;stroke-width:9.72"/>
	<line x1="2966.96" y1="146.31" x2="2966.96" y2="113.40" style="stroke:#F0F0F0;stroke-width:9.72"/>
	<line x1="4091.18" y1="2479.11" x2="4091.18" y2="2414.31" style="stroke:#F0F0F0;stroke-width:9.72"/>
	<line x1="4091.18" y1="2381.91" x2="4091.18" y2="2317.11" style="stroke:#F0F0F0;stroke-width:9.72"/>
	<line x1="4091.18" y1="2284.71" x2="4091.18" y2="2219.91" style="stroke:#F0F0F0;stroke-width:9.72"/>
	<line x1="4091.18" y1="2187.51" x2="4091.18" y2="2122.71" style="stroke:#F0F0F0;stroke-width:9.72"/>
	<line x1="4091.18" y1="2090.31" x2="4091.18" y2="2025.51" style="stroke:#F0F0F0;stroke-width:9.72"/>
	<line x1="4091.18" y1="1993.11" x2="4091.18" y2="1928.31" style="stroke:#F0F0F0;stroke-width:9.72"/>
	<line x1="4091.18" y1="1895.91" x2="4091.18" y2="1831.11" style="stroke:#F0F0F0;stroke-width:9.72"/>
	<line x1="4091.18" y1="1798.71" x2="4091.18" y2="1733.91" style="stroke:#F0F0F0;stroke-width:9.72"/>
	<line x1="4091.18" y1="1701.51" x2="4091.18" y2="1636.71" style="stroke:#F0F0F0;stroke-width:9.72"/>
	<line x1="4091.18" y1="1604.31" x2="4091.18" y2="1539.51" style="stroke:#F0F0F0;stroke-width:9.72"/>
	<line x1="4091.18" y1="1507.11" x2="4091.18" y2="1442.31" style="stroke:#F0F0F0;stroke-width:9.72"/>
	<line x1="4091.18" y1="1409.91" x2="4091.18" y2="1345.11" style="stroke:#F0F0F0;stroke-width:9.72"/>
	<line x1="4091.18" y1="1312.71" x2="4091.18" y2="1247.91" style="stroke:#F0F0F0;stroke-width:9.72"/>
	<line x1="4091.18" y1="1215.51" x2="4091.18" y2="1150.71" style="stroke:#F0F0F0;stroke-width:9.72"/>
	<line x1="4091.18" y1="1118.31" x2="4091.18" y2="1053.51" style="stroke:#F0F0F0;stroke-width:9.72"/>
	<line x1="4091.18" y1="1021.11" x2="4091.18" y2="956.31" style="stroke:#F0F0F0;stroke-width:9.72"/>
	<line x1="4091.18" y1="923.91" x2="4091.18" y2="859.11" style="stroke:#F0F0F0;stroke-width:9.72"/>
	<line x1="4091.18" y1="826.71" x2="4091.18" y2="761.91" style="stroke:#F0F0F0;stroke-width:9.72"/>
	<line x1="4091.18" y1="729.51" x2="4091.18" y2="664.71" style="stroke:#F0F0F0;stroke-width:9.72"/>
	<line x1="4091.18" y1="632.31" x2="4091.18" y2="567.51" style="stroke:#F0F0F0;stroke-width:9.72"/>
	<line x1="4091.18" y1="535.11" x2="4091.18" y2="470.31" style="stroke:#F0F0F0;stroke-width:9.72"/>
	<line x1="4091.18" y1="437.91" x2="4091.18" y2="373.11" style="stroke:#F0F0F0;stroke-width:9.72"/>
	<line x1="4091.18" y1="340.71" x2="4091.18" y2="275.91" style="stroke:#F0F0F0;stroke-width:9.72"/>
	<line x1="4091.18" y1="243.51" x2="4091.18" y2="178.71" style="stroke:#F0F0F0;stroke-width:9.72"/>
	<line x1="4091.18" y1="146.31" x2="4091.18" y2="113.40" style="stroke:#F0F0F0;stroke-width:9.72"/>
	<line x1="5215.39" y1="2479.11" x2="5215.39" y2="2414.31" style="stroke:#F0F0F0;stroke-width:9.72"/>
	<line x1="5215.39" y1="2381.91" x2="5215.39" y2="2317.11" style="stroke:#F0F0F0;stroke-width:9.72"/>
	<line x1="5215.39" y1="2284.71" x2="5215.39" y2="2219.91" style="stroke:#F0F0F0;stroke-width:9.72"/>
	<line x1="5215.39" y1="2187.51" x2="5215.39" y2="2122.71" style="stroke:#F0F0F0;stroke-width:9.72"/>
	<line x1="5215.39" y1="2090.31" x2="5215.39" y2="2025.51" style="stroke:#F0F0F0;stroke-width:9.72"/>
	<line x1="5215.39" y1="1993.11" x2="5215.39" y2="1928.31" style="stroke:#F0F0F0;stroke-width:9.72"/>
	<line x1="5215.39" y1="1895.91" x2="5215.39" y2="1831.11" style="stroke:#F0F0F0;stroke-width:9.72"/>
	<line x1="5215.39" y1="1798.71" x2="5215.39" y2="1733.91" style="stroke:#F0F0F0;stroke-width:9.72"/>
	<line x1="5215.39" y1="1701.51" x2="5215.39" y2="1636.71" style="stroke:#F0F0F0;stroke-width:9.72"/>
	<line x1="5215.39" y1="1604.31" x2="5215.39" y2="1539.51" style="stroke:#F0F0F0;stroke-width:9.72"/>
	<line x1="5215.39" y1="1507.11" x2="5215.39" y2="1442.31" style="stroke:#F0F0F0;stroke-width:9.72"/>
	<line x1="5215.39" y1="1409.91" x2="5215.39" y2="1345.11" style="stroke:#F0F0F0;stroke-width:9.72"/>
	<line x1="5215.39" y1="1312.71" x2="5215.39" y2="1247.91" style="stroke:#F0F0F0;stroke-width:9.72"/>
	<line x1="5215.39" y1="1215.51" x2="5215.39" y2="1150.71" style="stroke:#F0F0F0;stroke-width:9.72"/>
	<line x1="5215.39" y1="1118.31" x2="5215.39" y2="1053.51" style="stroke:#F0F0F0;stroke-width:9.72"/>
	<line x1="5215.39" y1="1021.11" x2="5215.39" y2="956.31" style="stroke:#F0F0F0;stroke-width:9.72"/>
	<line x1="5215.39" y1="923.91" x2="5215.39" y2="859.11" style="stroke:#F0F0F0;stroke-width:9.72"/>
	<line x1="5215.39" y1="826.71" x2="5215.39" y2="761.91" style="stroke:#F0F0F0;stroke-width:9.72"/>
	<line x1="5215.39" y1="729.51" x2="5215.39" y2="664.71" style="stroke:#F0F0F0;stroke-width:9.72"/>
	<line x1="5215.39" y1="632.31" x2="5215.39" y2="567.51" style="stroke:#F0F0F0;stroke-width:9.72"/>
	<line x1="5215.39" y1="535.11" x2="5215.39" y2="470.31" style="stroke:#F0F0F0;stroke-width:9.72"/>
	<line x1="5215.39" y1="437.91" x2="5215.39" y2="373.11" style="stroke:#F0F0F0;stroke-width:9.72"/>
	<line x1="5215.39" y1="340.71" x2="5215.39" y2="275.91" style="stroke:#F0F0F0;stroke-width:9.72"/>
	<line x1="5215.39" y1="243.51" x2="5215.39" y2="178.71" style="stroke:#F0F0F0;stroke-width:9.72"/>
	<line x1="5215.39" y1="146.31" x2="5215.39" y2="113.40" style="stroke:#F0F0F0;stroke-width:9.72"/>
	<path d=" M798.02 2407.05 L805.11 2406.21 L812.19 2404.69 L819.28 2402.16 L826.37 2398.28 L833.46 2392.71 L840.54 2385.28 L847.63 2376.17 L854.89 2365.71 L861.98 2354.74 L869.06 2344.78 L876.15 2337.19 L883.24 2332.97 L890.33 2332.80 L897.41 2336.68 L904.50 2344.11 L911.76 2354.06 L918.84 2364.86 L925.93 2375.32 L933.02 2384.61 L940.11 2392.20 L947.19 2397.94 L954.28 2401.99 L961.37 2404.52 L968.46 2406.04 L975.71 2407.05 L982.80 2407.56 L989.89 2407.73 L996.98 2407.89 L1004.06 2407.89 L1011.15 2407.89 L1018.24 2407.89 L1025.33 2407.89 L1032.58 2407.89 L1039.67 2407.89 L1046.76 2407.89 L1053.84 2407.89 L1060.93 2407.89 L1068.02 2407.89 L1075.11 2407.89 L1082.19 2407.89 L1089.45 2407.89 L1096.54 2407.89 L1103.63 2407.89 L1110.71 2407.89 L1117.80 2407.89 L1124.89 2407.89 L1131.97 2407.89 L1139.06 2407.89 L1146.15 2407.89 L1153.41 2407.89 L1160.49 2407.89 L1167.58 2407.89 L1174.67 2407.89 L1181.76 2407.89 L1188.84 2407.89 L1195.93 2407.89 L1203.02 2407.89 L1210.28 2407.89 L1217.36 2407.89 L1224.45 2407.89 L1231.54 2407.89 L1238.63 2407.89 L1245.71 2407.89 L1252.80 2407.89 L1259.89 2407.89 L1267.14 2407.89 L1274.23 2407.89 L1281.32 2407.89 L1288.41 2407.89 L1295.49 2407.89 L1302.58 2407.89 L1309.67 2407.89 L1316.76 2407.89 L1323.84 2407.89 L1331.10 2407.89 L1338.19 2407.89 L1345.28 2407.89 L1352.36 2407.89 L1359.45 2407.89 L1366.54 2407.73 L1373.63 2407.39 L1380.71 2406.88 L1387.97 2405.87 L1395.06 2404.18 L1402.14 2401.31 L1409.23 2396.93 L1416.32 2390.85 L1423.41 2382.92 L1430.49 2373.30 L1437.58 2362.50 L1444.84 2351.87 L1451.93 2342.25 L1459.01 2335.50 L1466.10 2332.29 L1473.19 2333.31 L1480.28 2338.37 L1487.36 2346.64 L1494.45 2356.93 L1501.54 2367.90 L1508.79 2378.19 L1515.88 2386.97 L1522.97 2394.06 L1530.06 2399.29 L1537.14 2402.83 L1544.23 2405.03 L1551.32 2406.38 L1558.41 2407.22 L1565.66 2407.56 L1572.75 2407.73 L1579.84 2407.89 L1586.93 2407.89 L1594.01 2407.89 L1601.10 2407.89 L1608.19 2407.89 L1615.28 2407.89 L1622.36 2407.89 L1629.62 2407.89 L1636.71 2407.89 L1643.79 2407.89 L1650.88 2407.89 L1657.97 2407.89 L1665.06 2407.89 L1672.14 2407.89 L1679.23 2407.89 L1686.49 2407.89 L1693.58 2407.89 L1700.66 2407.89 L1707.75 2407.89 L1714.84 2407.89 L1721.93 2407.89 L1729.01 2407.89 L1736.10 2407.89 L1743.36 2407.89 L1750.44 2407.89 L1757.53 2407.73 L1764.62 2407.56 L1771.71 2407.05 L1778.79 2406.21 L1785.88 2404.86 L1792.97 2402.32 L1800.06 2398.61 L1807.31 2393.04 L1814.40 2385.45 L1821.49 2375.83 L1828.58 2364.36 L1835.66 2351.70 L1842.75 2338.71 L1849.84 2326.39 L1856.93 2315.25 L1864.18 2306.14 L1871.27 2298.71 L1878.36 2292.64 L1885.44 2287.74 L1892.53 2283.19 L1899.62 2278.80 L1906.71 2274.58 L1913.79 2270.53 L1921.05 2266.99 L1928.14 2264.12 L1935.23 2261.93 L1942.31 2261.08 L1949.40 2261.59 L1956.49 2263.61 L1963.58 2268.00 L1970.66 2274.58 L1977.75 2284.03 L1985.01 2295.84 L1992.09 2309.85 L1999.18 2325.21 L2006.27 2340.90 L2013.36 2355.92 L2020.44 2369.59 L2027.53 2380.89 L2034.62 2389.84 L2041.88 2396.42 L2048.96 2400.98 L2056.05 2404.01 L2063.14 2405.87 L2070.23 2406.88 L2077.31 2407.39 L2084.40 2407.73 L2091.49 2407.89 L2098.74 2407.89 L2105.83 2407.89 L2112.92 2407.89 L2120.01 2407.73 L2127.09 2407.56 L2134.18 2406.88 L2141.27 2405.87 L2148.36 2403.84 L2155.44 2400.13 L2162.70 2394.23 L2169.79 2384.61 L2176.88 2370.09 L2183.96 2349.17 L2191.05 2320.82 L2198.14 2284.03 L2205.23 2238.47 L2212.31 2184.98 L2219.57 2124.73 L2226.66 2059.59 L2233.74 1992.26 L2240.83 1924.59 L2247.92 1858.78 L2255.01 1796.51 L2262.09 1738.97 L2269.18 1688.01 L2276.27 1644.98 L2283.53 1611.56 L2290.61 1589.29 L2297.70 1578.66 L2304.79 1579.33 L2311.88 1589.29 L2318.96 1605.83 L2326.05 1625.57 L2333.14 1644.81 L2340.39 1661.68 L2347.48 1675.01 L2354.57 1684.80 L2361.66 1692.06 L2368.74 1697.46 L2375.83 1701.17 L2382.92 1702.18 L2390.01 1699.14 L2397.26 1689.53 L2404.35 1671.13 L2411.44 1642.44 L2418.53 1602.79 L2425.61 1552.67 L2432.70 1494.45 L2439.79 1431.00 L2446.88 1366.88 L2453.96 1306.80 L2461.22 1254.99 L2468.31 1214.66 L2475.39 1187.32 L2482.48 1171.97 L2489.57 1165.22 L2496.66 1162.86 L2503.74 1159.65 L2510.83 1152.39 L2518.09 1138.89 L2525.18 1119.82 L2532.26 1097.04 L2539.35 1073.76 L2546.44 1052.32 L2553.53 1035.11 L2560.61 1023.81 L2567.70 1020.09 L2574.96 1026.34 L2582.04 1044.56 L2589.13 1075.61 L2596.22 1118.14 L2603.31 1167.58 L2610.39 1216.01 L2617.48 1254.15 L2624.57 1273.05 L2631.66 1267.31 L2638.91 1236.09 L2646.00 1183.95 L2653.09 1119.99 L2660.18 1055.19 L2667.26 1000.18 L2674.35 962.21 L2681.44 944.32 L2688.53 943.65 L2695.78 953.27 L2702.87 962.55 L2709.96 961.20 L2717.04 940.95 L2724.13 898.26 L2731.22 835.48 L2738.31 759.88 L2745.39 681.24 L2752.65 609.53 L2759.74 551.47 L2766.83 510.13 L2773.91 483.64 L2781.00 467.44 L2788.09 456.47 L2795.18 446.01 L2802.26 434.36 L2809.35 422.04 L2816.61 411.41 L2823.69 405.68 L2830.78 407.87 L2837.87 419.68 L2844.96 440.61 L2852.04 467.94 L2859.13 497.31 L2866.22 523.13 L2873.48 539.83 L2880.56 543.71 L2887.65 533.59 L2894.74 511.31 L2901.83 481.78 L2908.91 450.73 L2916.00 423.56 L2923.09 403.65 L2930.18 391.33 L2937.43 384.07 L2944.52 378.17 L2951.61 370.07 L2958.69 357.07 L2965.78 338.68 L2972.87 316.74 L2979.96 294.13 L2987.04 274.89 L2994.30 263.08 L3001.39 262.07 L3008.48 274.22 L3015.56 299.36 L3022.65 335.47 L3029.74 378.34 L3036.83 422.21 L3043.91 462.38 L3051.17 494.94 L3058.26 519.58 L3065.34 538.48 L3072.43 556.20 L3079.52 578.81 L3086.61 611.04 L3093.69 656.10 L3100.78 713.47 L3107.87 780.13 L3115.13 850.50 L3122.21 918.00 L3129.30 975.88 L3136.39 1018.24 L3143.48 1041.36 L3150.56 1044.22 L3157.65 1027.86 L3164.74 996.30 L3171.99 954.79 L3179.08 909.39 L3186.17 866.19 L3193.26 829.07 L3200.34 801.22 L3207.43 783.00 L3214.52 774.22 L3221.61 774.06 L3228.86 781.14 L3235.95 794.81 L3243.04 814.56 L3250.13 839.19 L3257.21 867.38 L3264.30 896.74 L3271.39 924.92 L3278.48 949.56 L3285.56 969.30 L3292.82 983.81 L3299.91 993.60 L3306.99 999.68 L3314.08 1003.22 L3321.17 1004.91 L3328.26 1005.58 L3335.34 1006.76 L3342.43 1009.97 L3349.69 1017.06 L3356.78 1029.71 L3363.86 1049.12 L3370.95 1074.94 L3378.04 1106.32 L3385.13 1141.43 L3392.21 1178.38 L3399.30 1215.34 L3406.56 1251.11 L3413.64 1284.69 L3420.73 1315.41 L3427.82 1342.58 L3434.91 1365.36 L3441.99 1381.73 L3449.08 1390.33 L3456.17 1389.32 L3463.26 1378.35 L3470.51 1358.78 L3477.60 1334.31 L3484.69 1310.34 L3491.78 1293.13 L3498.86 1288.41 L3505.95 1299.71 L3513.04 1327.73 L3520.13 1369.58 L3527.38 1420.03 L3534.47 1473.36 L3541.56 1523.64 L3548.64 1567.18 L3555.73 1602.45 L3562.82 1629.62 L3569.91 1650.21 L3576.99 1666.58 L3584.08 1680.92 L3591.34 1694.76 L3598.43 1709.61 L3605.51 1725.98 L3612.60 1744.37 L3619.69 1764.62 L3626.78 1786.89 L3633.86 1811.19 L3640.95 1838.03 L3648.21 1867.89 L3655.29 1901.81 L3662.38 1940.29 L3669.47 1982.98 L3676.56 2029.22 L3683.64 2076.81 L3690.73 2123.89 L3697.82 2168.27 L3705.08 2208.60 L3712.16 2243.70 L3719.25 2273.57 L3726.34 2297.70 L3733.43 2315.76 L3740.51 2327.06 L3747.60 2330.44 L3754.69 2325.21 L3761.78 2311.03 L3769.03 2288.42 L3776.12 2259.06 L3783.21 2225.81 L3790.29 2192.23 L3797.38 2161.86 L3804.47 2137.22 L3811.56 2119.84 L3818.64 2109.54 L3825.90 2104.82 L3832.99 2102.79 L3840.08 2101.28 L3847.16 2098.41 L3854.25 2093.34 L3861.34 2086.76 L3868.43 2079.51 L3875.51 2073.09 L3882.77 2068.37 L3889.86 2066.18 L3896.94 2066.18 L3904.03 2067.86 L3911.12 2070.39 L3918.21 2073.94 L3925.29 2078.66 L3932.38 2085.92 L3939.47 2096.38 L3946.73 2111.40 L3953.81 2130.81 L3960.90 2154.09 L3967.99 2179.91 L3975.08 2206.74 L3982.16 2233.24 L3989.25 2258.38 L3996.34 2282.01 L4003.59 2303.78 L4010.68 2323.69 L4017.77 2341.74 L4024.86 2357.10 L4031.94 2369.59 L4039.03 2378.53 L4046.12 2383.09 L4053.21 2382.75 L4060.46 2376.68 L4067.55 2364.02 L4074.64 2344.44 L4081.73 2317.78 L4088.81 2284.71 L4095.90 2247.24 L4102.99 2208.60 L4110.08 2172.66 L4117.16 2143.97 L4124.42 2126.08 L4131.51 2122.03 L4138.59 2131.82 L4145.68 2154.43 L4152.77 2186.66 L4159.86 2224.29 L4166.94 2263.11 L4174.03 2299.39 L4181.29 2330.61 L4188.38 2355.58 L4195.46 2374.31 L4202.55 2387.48 L4209.64 2396.08 L4216.73 2401.48 L4223.81 2404.52 L4230.90 2406.21 L4238.16 2407.05 L4245.24 2407.22 L4252.33 2406.88 L4259.42 2406.04 L4266.51 2404.52 L4273.59 2401.82 L4280.68 2397.94 L4287.77 2392.20 L4294.86 2384.61 L4302.11 2375.32 L4309.20 2364.86 L4316.29 2354.06 L4323.38 2344.11 L4330.46 2336.68 L4337.55 2332.80 L4344.64 2332.97 L4351.73 2337.19 L4358.98 2344.78 L4366.07 2354.74 L4373.16 2365.71 L4380.24 2376.17 L4387.33 2385.28 L4394.42 2392.71 L4401.51 2398.28 L4408.59 2402.16 L4415.68 2404.69 L4422.94 2406.21 L4430.02 2407.05" stroke-linejoin="round" style="fill:none;stroke:#A0A0A0;stroke-width:9.72"/>
	<path d=" M708.92 2407.56 L716.34 2407.39 L723.77 2407.05 L731.19 2406.71 L738.62 2406.21 L746.04 2405.70 L753.64 2404.86 L761.06 2404.01 L768.49 2402.66 L775.91 2401.31 L783.34 2399.63 L790.93 2397.60 L798.36 2395.41 L805.78 2393.04 L813.21 2390.34 L820.63 2387.48 L828.06 2384.61 L835.65 2381.74 L843.08 2379.04 L850.50 2376.51 L857.93 2374.14 L865.35 2372.29 L872.94 2370.94 L880.37 2370.09 L887.79 2369.93 L895.22 2370.26 L902.64 2371.11 L910.24 2372.63 L917.66 2374.65 L925.09 2376.84 L932.51 2379.54 L939.94 2382.24 L947.36 2385.28 L954.96 2388.15 L962.38 2390.85 L969.81 2393.55 L977.23 2395.91 L984.66 2398.11 L992.25 2399.96 L999.68 2401.65 L1007.10 2403.00 L1014.53 2404.18 L1021.95 2405.03 L1029.54 2405.87 L1036.97 2406.38 L1044.39 2406.88 L1051.82 2407.22 L1059.24 2407.39 L1066.67 2407.56 L1074.26 2407.73 L1081.69 2407.73 L1089.11 2407.89 L1096.54 2407.89 L1103.96 2407.89 L1111.56 2407.89 L1118.98 2407.89 L1126.41 2407.89 L1133.83 2407.89 L1141.26 2407.89 L1148.85 2407.89 L1156.28 2407.89 L1163.70 2407.89 L1171.13 2407.89 L1178.55 2407.89 L1185.97 2407.89 L1193.57 2407.89 L1200.99 2407.89 L1208.42 2407.89 L1215.84 2407.89 L1223.27 2407.89 L1230.86 2407.89 L1238.29 2407.89 L1245.71 2407.89 L1253.14 2407.89 L1260.56 2407.89 L1268.16 2407.89 L1275.58 2407.73 L1283.01 2407.73 L1290.43 2407.56 L1297.86 2407.39 L1305.28 2407.05 L1312.88 2406.71 L1320.30 2406.21 L1327.73 2405.53 L1335.15 2404.86 L1342.58 2403.84 L1350.17 2402.66 L1357.59 2401.14 L1365.02 2399.46 L1372.44 2397.43 L1379.87 2395.24 L1387.29 2392.71 L1394.89 2390.01 L1402.31 2387.31 L1409.74 2384.44 L1417.16 2381.57 L1424.59 2378.70 L1432.18 2376.17 L1439.61 2373.98 L1447.03 2372.12 L1454.46 2370.94 L1461.88 2370.09 L1469.48 2369.93 L1476.90 2370.26 L1484.33 2371.28 L1491.75 2372.79 L1499.18 2374.82 L1506.60 2377.18 L1514.19 2379.88 L1521.62 2382.58 L1529.04 2385.45 L1536.47 2388.32 L1543.89 2391.19 L1551.49 2393.72 L1558.91 2396.08 L1566.34 2398.28 L1573.76 2400.13 L1581.19 2401.82 L1588.78 2403.17 L1596.21 2404.18 L1603.63 2405.19 L1611.06 2405.87 L1618.48 2406.38 L1625.91 2406.88 L1633.50 2407.22 L1640.93 2407.39 L1648.35 2407.56 L1655.78 2407.56 L1663.20 2407.56 L1670.79 2407.56 L1678.22 2407.56 L1685.64 2407.39 L1693.07 2407.22 L1700.49 2406.88 L1708.09 2406.38 L1715.51 2405.87 L1722.94 2405.03 L1730.36 2404.18 L1737.79 2402.83 L1745.21 2401.31 L1752.81 2399.29 L1760.23 2396.93 L1767.66 2394.23 L1775.08 2390.85 L1782.51 2387.14 L1790.10 2382.92 L1797.53 2378.03 L1804.95 2372.79 L1812.38 2367.06 L1819.80 2360.98 L1827.23 2354.57 L1834.82 2347.82 L1842.24 2341.07 L1849.67 2334.32 L1857.09 2327.57 L1864.52 2321.16 L1872.11 2315.08 L1879.54 2309.51 L1886.96 2304.45 L1894.39 2300.06 L1901.81 2296.35 L1909.41 2293.48 L1916.83 2291.63 L1924.26 2290.61 L1931.68 2290.61 L1939.11 2291.63 L1946.53 2293.65 L1954.13 2296.52 L1961.55 2300.40 L1968.98 2305.13 L1976.40 2310.69 L1983.83 2316.77 L1991.42 2323.52 L1998.84 2330.44 L2006.27 2337.53 L2013.69 2344.78 L2021.12 2351.87 L2028.71 2358.79 L2036.14 2365.20 L2043.56 2371.11 L2050.99 2376.34 L2058.41 2380.89 L2065.84 2384.44 L2073.43 2387.31 L2080.86 2389.16 L2088.28 2389.84 L2095.71 2389.33 L2103.13 2387.48 L2110.73 2384.27 L2118.15 2379.21 L2125.57 2372.46 L2133.00 2363.51 L2140.43 2352.38 L2148.02 2338.71 L2155.44 2322.34 L2162.87 2303.10 L2170.29 2280.99 L2177.72 2255.85 L2185.14 2227.67 L2192.74 2196.79 L2200.16 2163.21 L2207.59 2127.43 L2215.01 2089.97 L2222.44 2051.16 L2230.03 2011.84 L2237.46 1972.35 L2244.88 1933.54 L2252.31 1895.91 L2259.73 1860.30 L2267.32 1827.06 L2274.75 1796.51 L2282.18 1769.18 L2289.60 1745.21 L2297.03 1724.46 L2304.45 1706.74 L2312.04 1692.23 L2319.47 1680.08 L2326.89 1669.95 L2334.32 1661.51 L2341.74 1653.75 L2349.34 1646.16 L2356.76 1638.23 L2364.19 1629.45 L2371.61 1618.99 L2379.04 1606.67 L2386.46 1592.16 L2394.06 1575.11 L2401.48 1555.54 L2408.91 1533.60 L2416.33 1509.30 L2423.76 1483.14 L2431.35 1455.47 L2438.78 1426.61 L2446.20 1397.08 L2453.63 1367.55 L2461.05 1338.19 L2468.64 1309.67 L2476.07 1282.50 L2483.49 1256.68 L2490.92 1232.89 L2498.34 1211.12 L2505.77 1191.54 L2513.36 1174.33 L2520.79 1159.31 L2528.21 1146.82 L2535.64 1136.70 L2543.06 1128.77 L2550.66 1122.86 L2558.08 1118.81 L2565.51 1116.45 L2572.93 1114.93 L2580.36 1114.43 L2587.95 1113.92 L2595.38 1113.41 L2602.80 1112.06 L2610.23 1109.53 L2617.65 1105.31 L2625.08 1099.07 L2632.67 1090.63 L2640.09 1079.66 L2647.52 1066.16 L2654.94 1049.96 L2662.37 1031.23 L2669.96 1010.14 L2677.39 986.85 L2684.81 961.37 L2692.24 934.03 L2699.66 905.18 L2707.26 874.80 L2714.68 843.58 L2722.11 811.35 L2729.53 778.95 L2736.96 746.38 L2744.38 714.32 L2751.98 683.10 L2759.40 653.23 L2766.83 624.88 L2774.25 598.72 L2781.68 574.93 L2789.27 553.50 L2796.69 534.94 L2804.12 519.07 L2811.54 505.74 L2818.97 494.94 L2826.39 486.17 L2833.99 479.42 L2841.41 474.02 L2848.84 469.63 L2856.26 465.75 L2863.69 462.21 L2871.28 458.49 L2878.71 454.44 L2886.13 449.55 L2893.56 443.98 L2900.98 437.57 L2908.58 430.48 L2916.00 422.72 L2923.43 414.62 L2930.85 406.35 L2938.28 398.25 L2945.70 390.82 L2953.29 384.41 L2960.72 379.35 L2968.14 375.97 L2975.57 374.63 L2982.99 375.81 L2990.59 379.52 L2998.01 386.10 L3005.44 395.72 L3012.86 408.21 L3020.29 423.73 L3027.88 442.29 L3035.31 463.56 L3042.73 487.35 L3050.16 513.51 L3057.58 541.52 L3065.01 571.05 L3072.60 601.59 L3080.03 632.64 L3087.45 663.69 L3094.88 694.24 L3102.30 723.60 L3109.89 751.44 L3117.32 776.93 L3124.74 799.88 L3132.17 819.79 L3139.59 836.49 L3147.19 849.99 L3154.61 860.29 L3162.04 867.71 L3169.46 872.27 L3176.89 874.97 L3184.31 875.81 L3191.91 875.64 L3199.33 875.14 L3206.76 874.63 L3214.18 874.80 L3221.61 875.81 L3229.20 878.18 L3236.63 882.06 L3244.05 887.46 L3251.48 894.38 L3258.90 902.81 L3266.33 912.43 L3273.92 923.23 L3281.34 934.88 L3288.77 947.36 L3296.19 960.53 L3303.62 974.36 L3311.21 988.54 L3318.64 1003.39 L3326.06 1018.74 L3333.49 1034.78 L3340.91 1051.48 L3348.51 1068.86 L3355.93 1086.75 L3363.36 1105.48 L3370.78 1124.72 L3378.21 1144.29 L3385.63 1164.04 L3393.23 1183.78 L3400.65 1203.19 L3408.08 1222.26 L3415.50 1240.48 L3422.93 1257.86 L3430.52 1274.40 L3437.94 1289.93 L3445.37 1304.44 L3452.79 1318.44 L3460.22 1331.78 L3467.81 1344.94 L3475.24 1358.27 L3482.66 1371.94 L3490.09 1386.45 L3497.51 1401.81 L3504.94 1418.51 L3512.53 1436.57 L3519.96 1455.98 L3527.38 1476.90 L3534.81 1499.01 L3542.23 1522.13 L3549.83 1546.26 L3557.25 1571.23 L3564.68 1596.88 L3572.10 1622.87 L3579.53 1649.36 L3587.12 1676.03 L3594.54 1703.03 L3601.97 1730.53 L3609.39 1758.21 L3616.82 1786.56 L3624.24 1815.24 L3631.84 1844.44 L3639.26 1874.31 L3646.69 1904.34 L3654.11 1934.72 L3661.54 1965.09 L3669.13 1995.13 L3676.56 2024.66 L3683.98 2053.18 L3691.41 2080.35 L3698.83 2105.66 L3706.43 2128.78 L3713.85 2149.20 L3721.28 2166.92 L3728.70 2181.43 L3736.13 2192.91 L3743.55 2201.01 L3751.14 2205.90 L3758.57 2207.76 L3765.99 2206.74 L3773.42 2203.37 L3780.84 2197.97 L3788.44 2190.71 L3795.86 2182.44 L3803.29 2173.16 L3810.71 2163.54 L3818.14 2153.76 L3825.56 2144.31 L3833.16 2135.53 L3840.58 2127.43 L3848.01 2120.34 L3855.43 2114.44 L3862.86 2109.88 L3870.45 2106.51 L3877.88 2104.65 L3885.30 2104.14 L3892.73 2105.32 L3900.15 2108.03 L3907.74 2112.41 L3915.17 2118.32 L3922.59 2125.74 L3930.02 2134.52 L3937.44 2144.81 L3944.87 2156.29 L3952.46 2168.78 L3959.89 2182.11 L3967.31 2195.94 L3974.74 2209.95 L3982.16 2223.96 L3989.76 2237.46 L3997.18 2250.11 L4004.61 2261.59 L4012.03 2271.71 L4019.46 2280.15 L4027.05 2286.73 L4034.48 2291.12 L4041.90 2293.65 L4049.33 2293.99 L4056.75 2292.47 L4064.18 2289.43 L4071.77 2284.88 L4079.19 2279.64 L4086.62 2273.74 L4094.04 2268.00 L4101.47 2262.77 L4109.06 2258.38 L4116.49 2255.34 L4123.91 2253.99 L4131.34 2254.50 L4138.76 2256.86 L4146.36 2261.25 L4153.78 2267.49 L4161.21 2275.43 L4168.63 2284.54 L4176.06 2294.66 L4183.48 2305.29 L4191.08 2316.09 L4198.50 2326.73 L4205.93 2336.85 L4213.35 2346.30 L4220.77 2354.57 L4228.37 2361.66 L4235.79 2367.56 L4243.22 2372.12 L4250.64 2375.49 L4258.07 2377.69 L4265.49 2378.87 L4273.09 2379.04 L4280.51 2378.53 L4287.94 2377.35 L4295.36 2376.00 L4302.79 2374.48 L4310.38 2372.79 L4317.81 2371.44 L4325.23 2370.43 L4332.66 2369.76 L4340.08 2369.59 L4347.68 2369.93 L4355.10 2370.77 L4362.52 2372.29 L4369.95 2374.14 L4377.38 2376.34 L4384.80 2379.04 L4392.39 2381.74 L4399.82 2384.61 L4407.24 2387.48 L4414.67 2390.34 L4422.09 2393.04 L4429.69 2395.41 L4437.11 2397.60 L4444.54 2399.63 L4451.96 2401.31 L4459.39 2402.66 L4466.98 2404.01 L4474.41 2404.86 L4481.83 2405.70 L4489.26 2406.21 L4496.68 2406.71 L4504.11 2407.05 L4511.70 2407.39 L4519.13 2407.56" stroke-linejoin="round" style="fill:none;stroke:#505050;stroke-width:9.72"/>
	<path d=" M530.55 2407.73 L538.82 2407.73 L546.92 2407.56 L555.02 2407.56 L563.29 2407.56 L571.39 2407.39 L579.49 2407.22 L587.76 2407.22 L595.86 2407.05 L603.96 2406.88 L612.23 2406.71 L620.33 2406.38 L628.42 2406.21 L636.53 2405.87 L644.79 2405.53 L652.89 2405.19 L660.99 2404.86 L669.26 2404.35 L677.36 2404.01 L685.46 2403.51 L693.73 2402.83 L701.83 2402.32 L709.93 2401.65 L718.20 2400.98 L726.30 2400.30 L734.40 2399.63 L742.67 2398.78 L750.77 2398.11 L758.87 2397.26 L767.14 2396.59 L775.24 2395.74 L783.34 2394.90 L791.61 2394.23 L799.71 2393.38 L807.81 2392.71 L816.08 2392.03 L824.18 2391.36 L832.28 2390.85 L840.38 2390.34 L848.64 2389.84 L856.74 2389.50 L864.84 2389.16 L873.11 2388.99 L881.21 2388.99 L889.31 2388.99 L897.58 2388.99 L905.68 2389.16 L913.78 2389.33 L922.05 2389.67 L930.15 2390.18 L938.25 2390.68 L946.52 2391.19 L954.62 2391.69 L962.72 2392.37 L970.99 2393.04 L979.09 2393.89 L987.19 2394.56 L995.46 2395.41 L1003.56 2396.08 L1011.66 2396.93 L1019.93 2397.77 L1028.03 2398.44 L1036.13 2399.29 L1044.22 2399.96 L1052.49 2400.64 L1060.59 2401.31 L1068.69 2401.99 L1076.96 2402.49 L1085.06 2403.17 L1093.16 2403.51 L1101.43 2404.01 L1109.53 2404.52 L1117.63 2404.86 L1125.90 2405.19 L1134.00 2405.36 L1142.10 2405.53 L1150.37 2405.70 L1158.47 2405.87 L1166.57 2406.04 L1174.84 2406.04 L1182.94 2406.04 L1191.04 2406.04 L1199.31 2405.87 L1207.41 2405.70 L1215.51 2405.53 L1223.78 2405.36 L1231.88 2405.03 L1239.97 2404.69 L1248.08 2404.35 L1256.34 2403.84 L1264.44 2403.51 L1272.54 2403.00 L1280.81 2402.32 L1288.91 2401.82 L1297.01 2401.14 L1305.28 2400.47 L1313.38 2399.79 L1321.48 2398.95 L1329.75 2398.28 L1337.85 2397.43 L1345.95 2396.76 L1354.22 2395.91 L1362.32 2395.07 L1370.42 2394.39 L1378.69 2393.55 L1386.79 2392.88 L1394.89 2392.20 L1403.16 2391.53 L1411.26 2390.85 L1419.36 2390.34 L1427.63 2390.01 L1435.73 2389.50 L1443.83 2389.16 L1452.09 2388.99 L1460.19 2388.82 L1468.29 2388.82 L1476.39 2388.82 L1484.66 2388.99 L1492.76 2389.16 L1500.86 2389.33 L1509.13 2389.67 L1517.23 2390.01 L1525.33 2390.51 L1533.60 2391.02 L1541.70 2391.53 L1549.80 2392.03 L1558.07 2392.54 L1566.17 2393.04 L1574.27 2393.55 L1582.54 2394.06 L1590.64 2394.56 L1598.74 2394.90 L1607.01 2395.24 L1615.11 2395.41 L1623.21 2395.57 L1631.48 2395.57 L1639.58 2395.41 L1647.68 2395.24 L1655.94 2394.90 L1664.04 2394.39 L1672.14 2393.72 L1680.24 2392.88 L1688.51 2391.86 L1696.61 2390.68 L1704.71 2389.33 L1712.98 2387.81 L1721.08 2386.13 L1729.18 2384.44 L1737.45 2382.41 L1745.55 2380.22 L1753.65 2378.03 L1761.92 2375.66 L1770.02 2373.30 L1778.12 2370.60 L1786.39 2368.07 L1794.49 2365.37 L1802.59 2362.67 L1810.86 2359.97 L1818.96 2357.27 L1827.06 2354.57 L1835.33 2352.04 L1843.43 2349.51 L1851.53 2347.14 L1859.79 2344.95 L1867.89 2342.76 L1875.99 2340.90 L1884.09 2339.04 L1892.36 2337.36 L1900.46 2336.01 L1908.56 2334.82 L1916.83 2333.64 L1924.93 2332.80 L1933.03 2331.96 L1941.30 2331.28 L1949.40 2330.78 L1957.50 2330.27 L1965.77 2329.76 L1973.87 2329.26 L1981.97 2328.75 L1990.24 2327.91 L1998.34 2327.06 L2006.44 2325.71 L2014.71 2324.19 L2022.81 2322.34 L2030.91 2319.81 L2039.18 2316.94 L2047.28 2313.23 L2055.38 2309.01 L2063.64 2303.94 L2071.74 2298.21 L2079.84 2291.46 L2088.11 2283.86 L2096.21 2275.26 L2104.31 2265.64 L2112.41 2255.18 L2120.68 2243.53 L2128.78 2230.88 L2136.88 2217.21 L2145.15 2202.53 L2153.25 2186.83 L2161.35 2170.13 L2169.62 2152.41 L2177.72 2134.01 L2185.82 2114.61 L2194.09 2094.53 L2202.19 2073.77 L2210.29 2052.34 L2218.56 2030.40 L2226.66 2007.96 L2234.76 1985.18 L2243.03 1962.06 L2251.13 1938.60 L2259.23 1915.14 L2267.49 1891.35 L2275.59 1867.73 L2283.69 1843.93 L2291.96 1820.31 L2300.06 1796.68 L2308.16 1773.23 L2316.26 1749.77 L2324.53 1726.65 L2332.63 1703.70 L2340.73 1680.92 L2349.00 1658.31 L2357.10 1636.03 L2365.20 1613.93 L2373.47 1591.99 L2381.57 1570.22 L2389.67 1548.79 L2397.94 1527.53 L2406.04 1506.60 L2414.14 1485.68 L2422.41 1465.09 L2430.51 1444.84 L2438.61 1424.76 L2446.88 1405.01 L2454.98 1385.44 L2463.07 1366.20 L2471.34 1347.13 L2479.44 1328.40 L2487.54 1310.01 L2495.81 1291.78 L2503.91 1274.06 L2512.01 1256.34 L2520.11 1238.96 L2528.38 1221.92 L2536.48 1205.04 L2544.58 1188.17 L2552.85 1171.63 L2560.95 1155.09 L2569.05 1138.72 L2577.32 1122.19 L2585.42 1105.82 L2593.52 1089.28 L2601.79 1072.74 L2609.89 1055.87 L2617.99 1038.99 L2626.26 1021.78 L2634.36 1004.40 L2642.46 986.68 L2650.73 968.79 L2658.83 950.57 L2666.93 932.18 L2675.19 913.44 L2683.29 894.54 L2691.39 875.31 L2699.66 856.07 L2707.76 836.66 L2715.86 817.26 L2724.13 797.85 L2732.23 778.44 L2740.33 759.21 L2748.43 740.14 L2756.70 721.41 L2764.80 703.01 L2772.90 684.96 L2781.17 667.41 L2789.27 650.36 L2797.37 633.99 L2805.64 618.13 L2813.74 603.11 L2821.84 588.77 L2830.11 575.27 L2838.21 562.61 L2846.31 550.97 L2854.58 540.00 L2862.68 530.21 L2870.78 521.27 L2879.04 513.34 L2887.14 506.42 L2895.24 500.68 L2903.51 495.96 L2911.61 492.24 L2919.71 489.71 L2927.98 488.19 L2936.08 487.86 L2944.18 488.53 L2952.28 490.39 L2960.55 493.26 L2968.65 497.31 L2976.75 502.37 L2985.02 508.44 L2993.12 515.53 L3001.22 523.63 L3009.49 532.57 L3017.59 542.53 L3025.69 553.16 L3033.96 564.47 L3042.06 576.62 L3050.16 589.28 L3058.43 602.44 L3066.53 616.28 L3074.63 630.28 L3082.89 644.63 L3090.99 659.31 L3099.09 673.99 L3107.36 688.84 L3115.46 703.69 L3123.56 718.54 L3131.83 733.39 L3139.93 748.07 L3148.03 762.58 L3156.13 776.93 L3164.40 791.10 L3172.50 804.94 L3180.60 818.78 L3188.87 832.28 L3196.97 845.61 L3205.07 858.94 L3213.34 872.10 L3221.44 885.09 L3229.54 898.09 L3237.81 910.91 L3245.91 923.91 L3254.01 936.90 L3262.28 950.06 L3270.38 963.22 L3278.48 976.72 L3286.74 990.22 L3294.84 1004.06 L3302.94 1018.07 L3311.21 1032.41 L3319.31 1047.09 L3327.41 1061.94 L3335.68 1077.13 L3343.78 1092.66 L3351.88 1108.52 L3359.98 1124.55 L3368.25 1141.09 L3376.35 1157.79 L3384.45 1175.01 L3392.72 1192.39 L3400.82 1210.28 L3408.92 1228.33 L3417.19 1246.72 L3425.29 1265.46 L3433.39 1284.36 L3441.66 1303.76 L3449.76 1323.51 L3457.86 1343.42 L3466.13 1363.67 L3474.23 1384.26 L3482.33 1405.18 L3490.59 1426.44 L3498.69 1448.04 L3506.79 1469.98 L3515.06 1492.09 L3523.16 1514.53 L3531.26 1537.14 L3539.53 1560.09 L3547.63 1583.21 L3555.73 1606.50 L3564.00 1629.96 L3572.10 1653.41 L3580.20 1677.04 L3588.30 1700.49 L3596.57 1723.95 L3604.67 1747.24 L3612.77 1770.36 L3621.04 1793.14 L3629.14 1815.75 L3637.24 1837.69 L3645.51 1859.29 L3653.61 1880.38 L3661.71 1900.80 L3669.98 1920.54 L3678.08 1939.44 L3686.18 1957.67 L3694.44 1975.05 L3702.54 1991.42 L3710.64 2007.11 L3718.91 2021.63 L3727.01 2035.29 L3735.11 2048.12 L3743.38 2059.93 L3751.48 2070.73 L3759.58 2080.69 L3767.85 2089.80 L3775.95 2098.24 L3784.05 2105.66 L3792.15 2112.58 L3800.42 2118.82 L3808.52 2124.39 L3816.62 2129.46 L3824.89 2134.18 L3832.99 2138.40 L3841.09 2142.45 L3849.36 2146.33 L3857.46 2149.88 L3865.56 2153.42 L3873.83 2156.96 L3881.93 2160.34 L3890.03 2163.88 L3898.29 2167.43 L3906.39 2171.14 L3914.49 2175.02 L3922.76 2178.90 L3930.86 2182.95 L3938.96 2187.00 L3947.23 2191.39 L3955.33 2195.78 L3963.43 2200.33 L3971.70 2204.89 L3979.80 2209.44 L3987.90 2214.17 L3996.00 2218.89 L4004.27 2223.62 L4012.37 2228.34 L4020.47 2233.07 L4028.74 2237.63 L4036.84 2242.18 L4044.94 2246.74 L4053.21 2251.13 L4061.31 2255.51 L4069.41 2259.73 L4077.68 2263.95 L4085.78 2268.00 L4093.88 2272.05 L4102.14 2276.10 L4110.24 2279.98 L4118.34 2284.03 L4126.61 2287.91 L4134.71 2291.79 L4142.81 2295.51 L4151.08 2299.39 L4159.18 2303.27 L4167.28 2306.98 L4175.55 2310.69 L4183.65 2314.41 L4191.75 2318.12 L4200.02 2321.83 L4208.12 2325.54 L4216.22 2329.09 L4224.32 2332.63 L4232.59 2336.01 L4240.69 2339.38 L4248.79 2342.76 L4257.06 2345.96 L4265.16 2349.00 L4273.26 2352.04 L4281.52 2354.91 L4289.63 2357.61 L4297.73 2360.31 L4305.99 2362.84 L4314.09 2365.20 L4322.19 2367.56 L4330.46 2369.76 L4338.56 2371.78 L4346.66 2373.81 L4354.93 2375.83 L4363.03 2377.69 L4371.13 2379.38 L4379.40 2381.06 L4387.50 2382.75 L4395.60 2384.27 L4403.87 2385.79 L4411.97 2387.31 L4420.07 2388.66 L4428.17 2390.01 L4436.44 2391.36 L4444.54 2392.54 L4452.64 2393.72 L4460.91 2394.90 L4469.01 2395.91 L4477.11 2396.93 L4485.38 2397.94 L4493.48 2398.78 L4501.58 2399.79 L4509.84 2400.47 L4517.94 2401.31 L4526.04 2401.99 L4534.31 2402.66 L4542.41 2403.17 L4550.51 2403.84 L4558.78 2404.35 L4566.88 2404.69 L4574.98 2405.19 L4583.25 2405.53 L4591.35 2405.87 L4599.45 2406.21 L4607.72 2406.38 L4615.82 2406.54 L4623.92 2406.88 L4632.02 2407.05 L4640.29 2407.22 L4648.39 2407.22 L4656.49 2407.39 L4664.76 2407.56 L4672.86 2407.56 L4680.96 2407.56 L4689.23 2407.73 L4697.33 2407.73" stroke-linejoin="round" style="fill:none;stroke:#000000;stroke-width:9.72"/>
	<line x1="459.34" y1="2479.11" x2="459.34" y2="113.40" style="stroke:#000000;stroke-width:6.48"/>
	<line x1="459.34" y1="2407.89" x2="414.45" y2="2407.89" style="stroke:#000000;stroke-width:6.48"/>
	<text x="391.84" y="2447.33" style="font-family:'Helvetica';font-size:112.56px;fill:#000000" text-anchor="end">0</text>
	<line x1="459.34" y1="1666.74" x2="414.45" y2="1666.74" style="stroke:#000000;stroke-width:6.48"/>
	<text x="391.84" y="1706.18" style="font-family:'Helvetica';font-size:112.56px;fill:#000000" text-anchor="end">2</text>
	<line x1="459.34" y1="925.76" x2="414.45" y2="925.76" style="stroke:#000000;stroke-width:6.48"/>
	<text x="391.84" y="965.20" style="font-family:'Helvetica';font-size:112.56px;fill:#000000" text-anchor="end">4</text>
	<line x1="459.34" y1="184.61" x2="414.45" y2="184.61" style="stroke:#000000;stroke-width:6.48"/>
	<text x="391.84" y="224.05" style="font-family:'Helvetica';font-size:112.56px;fill:#000000" text-anchor="end">6</text>
	<text x="214.55" y="1296.34" style="font-family:'Helvetica';font-size:112.56px;fill:#000000" transform="rotate(-90 214.55,1296.34)" text-anchor="middle">Density</text>
	<line x1="459.34" y1="2479.11" x2="5286.60" y2="2479.11" style="stroke:#000000;stroke-width:6.48"/>
	<line x1="718.54" y1="2479.11" x2="718.54" y2="2524.16" style="stroke:#000000;stroke-width:6.48"/>
	<text x="718.54" y="2625.31" style="font-family:'Helvetica';font-size:112.56px;fill:#000000" text-anchor="middle">-.4</text>
	<line x1="1842.75" y1="2479.11" x2="1842.75" y2="2524.16" style="stroke:#000000;stroke-width:6.48"/>
	<text x="1842.75" y="2625.31" style="font-family:'Helvetica';font-size:112.56px;fill:#000000" text-anchor="middle">-.2</text>
	<line x1="2966.96" y1="2479.11" x2="2966.96" y2="2524.16" style="stroke:#000000;stroke-width:6.48"/>
	<text x="2966.96" y="2625.31" style="font-family:'Helvetica';font-size:112.56px;fill:#000000" text-anchor="middle">0</text>
	<line x1="4091.18" y1="2479.11" x2="4091.18" y2="2524.16" style="stroke:#000000;stroke-width:6.48"/>
	<text x="4091.18" y="2625.31" style="font-family:'Helvetica';font-size:112.56px;fill:#000000" text-anchor="middle">.2</text>
	<line x1="5215.39" y1="2479.11" x2="5215.39" y2="2524.16" style="stroke:#000000;stroke-width:6.48"/>
	<text x="5215.39" y="2625.31" style="font-family:'Helvetica';font-size:112.56px;fill:#000000" text-anchor="middle">.4</text>
	<text x="2872.97" y="2782.75" style="font-family:'Helvetica';font-size:112.56px;fill:#000000" text-anchor="middle">IV estimates</text>
	<rect x="1682.78" y="2878.03" width="2380.56" height="209.76" style="fill:#FFFFFF"/>
	<rect x="1686.02" y="2881.27" width="2374.08" height="203.28" style="fill:none;stroke:#FFFFFF;stroke-width:6.48"/>
	<line x1="1731.38" y1="2982.83" x2="1990.58" y2="2982.83" style="stroke:#A0A0A0;stroke-width:9.72"/>
	<line x1="2599.76" y1="2982.83" x2="2858.96" y2="2982.83" style="stroke:#505050;stroke-width:9.72"/>
	<line x1="3402.34" y1="2982.83" x2="3661.54" y2="2982.83" style="stroke:#000000;stroke-width:9.72"/>
	<text x="2058.07" y="3022.26" style="font-family:'Helvetica';font-size:112.56px;fill:#000000"> = .25</text>
	<text x="2926.46" y="3022.26" style="font-family:'Helvetica';font-size:112.56px;fill:#000000"> = .5</text>
	<text x="3729.04" y="3022.26" style="font-family:'Helvetica';font-size:112.56px;fill:#000000"> = 1</text>
</svg>
