<?xml version="1.0" encoding="UTF-8" standalone="no"?>
<!-- This is a Stata 18.5 generated SVG file (http://www.stata.com) -->

<svg version="1.1" width="600px" height="360px" viewBox="0 0 5400 3240" xmlns="http://www.w3.org/2000/svg" xmlns:xlink="http://www.w3.org/1999/xlink">
	<desc>Stata Graph - Graph</desc>
	<rect x="0" y="0" width="5400" height="3240" style="fill:#FFFFFF;stroke:none"/>
	<rect x="0.00" y="0.00" width="5400.00" height="3240.00" style="fill:#FFFFFF"/>
	<rect x="3.24" y="3.24" width="5393.52" height="3233.52" style="fill:none;stroke:#FFFFFF;stroke-width:6.48"/>
	<rect x="459.34" y="113.40" width="2369.08" height="2653.26" style="fill:#FFFFFF"/>
	<rect x="462.58" y="116.64" width="2362.60" height="2646.78" style="fill:none;stroke:#FFFFFF;stroke-width:6.48"/>
	<line x1="459.34" y1="2695.28" x2="524.14" y2="2695.28" style="stroke:#F0F0F0;stroke-width:9.72"/>
	<line x1="556.54" y1="2695.28" x2="621.34" y2="2695.28" style="stroke:#F0F0F0;stroke-width:9.72"/>
	<line x1="653.74" y1="2695.28" x2="718.54" y2="2695.28" style="stroke:#F0F0F0;stroke-width:9.72"/>
	<line x1="750.94" y1="2695.28" x2="815.74" y2="2695.28" style="stroke:#F0F0F0;stroke-width:9.72"/>
	<line x1="848.14" y1="2695.28" x2="912.94" y2="2695.28" style="stroke:#F0F0F0;stroke-width:9.72"/>
	<line x1="945.34" y1="2695.28" x2="1010.14" y2="2695.28" style="stroke:#F0F0F0;stroke-width:9.72"/>
	<line x1="1042.54" y1="2695.28" x2="1107.34" y2="2695.28" style="stroke:#F0F0F0;stroke-width:9.72"/>
	<line x1="1139.74" y1="2695.28" x2="1204.54" y2="2695.28" style="stroke:#F0F0F0;stroke-width:9.72"/>
	<line x1="1236.94" y1="2695.28" x2="1301.74" y2="2695.28" style="stroke:#F0F0F0;stroke-width:9.72"/>
	<line x1="1334.14" y1="2695.28" x2="1398.94" y2="2695.28" style="stroke:#F0F0F0;stroke-width:9.72"/>
	<line x1="1431.34" y1="2695.28" x2="1496.14" y2="2695.28" style="stroke:#F0F0F0;stroke-width:9.72"/>
	<line x1="1528.54" y1="2695.28" x2="1593.34" y2="2695.28" style="stroke:#F0F0F0;stroke-width:9.72"/>
	<line x1="1625.74" y1="2695.28" x2="1690.54" y2="2695.28" style="stroke:#F0F0F0;stroke-width:9.72"/>
	<line x1="1722.94" y1="2695.28" x2="1787.74" y2="2695.28" style="stroke:#F0F0F0;stroke-width:9.72"/>
	<line x1="1820.14" y1="2695.28" x2="1884.94" y2="2695.28" style="stroke:#F0F0F0;stroke-width:9.72"/>
	<line x1="1917.34" y1="2695.28" x2="1982.14" y2="2695.28" style="stroke:#F0F0F0;stroke-width:9.72"/>
	<line x1="2014.54" y1="2695.28" x2="2079.34" y2="2695.28" style="stroke:#F0F0F0;stroke-width:9.72"/>
	<line x1="2111.74" y1="2695.28" x2="2176.54" y2="2695.28" style="stroke:#F0F0F0;stroke-width:9.72"/>
	<line x1="2208.94" y1="2695.28" x2="2273.74" y2="2695.28" style="stroke:#F0F0F0;stroke-width:9.72"/>
	<line x1="2306.14" y1="2695.28" x2="2370.94" y2="2695.28" style="stroke:#F0F0F0;stroke-width:9.72"/>
	<line x1="2403.34" y1="2695.28" x2="2468.14" y2="2695.28" style="stroke:#F0F0F0;stroke-width:9.72"/>
	<line x1="2500.54" y1="2695.28" x2="2565.34" y2="2695.28" style="stroke:#F0F0F0;stroke-width:9.72"/>
	<line x1="2597.74" y1="2695.28" x2="2662.54" y2="2695.28" style="stroke:#F0F0F0;stroke-width:9.72"/>
	<line x1="2694.94" y1="2695.28" x2="2759.74" y2="2695.28" style="stroke:#F0F0F0;stroke-width:9.72"/>
	<line x1="2792.14" y1="2695.28" x2="2828.42" y2="2695.28" style="stroke:#F0F0F0;stroke-width:9.72"/>
	<line x1="459.34" y1="1858.44" x2="524.14" y2="1858.44" style="stroke:#F0F0F0;stroke-width:9.72"/>
	<line x1="556.54" y1="1858.44" x2="621.34" y2="1858.44" style="stroke:#F0F0F0;stroke-width:9.72"/>
	<line x1="653.74" y1="1858.44" x2="718.54" y2="1858.44" style="stroke:#F0F0F0;stroke-width:9.72"/>
	<line x1="750.94" y1="1858.44" x2="815.74" y2="1858.44" style="stroke:#F0F0F0;stroke-width:9.72"/>
	<line x1="848.14" y1="1858.44" x2="912.94" y2="1858.44" style="stroke:#F0F0F0;stroke-width:9.72"/>
	<line x1="945.34" y1="1858.44" x2="1010.14" y2="1858.44" style="stroke:#F0F0F0;stroke-width:9.72"/>
	<line x1="1042.54" y1="1858.44" x2="1107.34" y2="1858.44" style="stroke:#F0F0F0;stroke-width:9.72"/>
	<line x1="1139.74" y1="1858.44" x2="1204.54" y2="1858.44" style="stroke:#F0F0F0;stroke-width:9.72"/>
	<line x1="1236.94" y1="1858.44" x2="1301.74" y2="1858.44" style="stroke:#F0F0F0;stroke-width:9.72"/>
	<line x1="1334.14" y1="1858.44" x2="1398.94" y2="1858.44" style="stroke:#F0F0F0;stroke-width:9.72"/>
	<line x1="1431.34" y1="1858.44" x2="1496.14" y2="1858.44" style="stroke:#F0F0F0;stroke-width:9.72"/>
	<line x1="1528.54" y1="1858.44" x2="1593.34" y2="1858.44" style="stroke:#F0F0F0;stroke-width:9.72"/>
	<line x1="1625.74" y1="1858.44" x2="1690.54" y2="1858.44" style="stroke:#F0F0F0;stroke-width:9.72"/>
	<line x1="1722.94" y1="1858.44" x2="1787.74" y2="1858.44" style="stroke:#F0F0F0;stroke-width:9.72"/>
	<line x1="1820.14" y1="1858.44" x2="1884.94" y2="1858.44" style="stroke:#F0F0F0;stroke-width:9.72"/>
	<line x1="1917.34" y1="1858.44" x2="1982.14" y2="1858.44" style="stroke:#F0F0F0;stroke-width:9.72"/>
	<line x1="2014.54" y1="1858.44" x2="2079.34" y2="1858.44" style="stroke:#F0F0F0;stroke-width:9.72"/>
	<line x1="2111.74" y1="1858.44" x2="2176.54" y2="1858.44" style="stroke:#F0F0F0;stroke-width:9.72"/>
	<line x1="2208.94" y1="1858.44" x2="2273.74" y2="1858.44" style="stroke:#F0F0F0;stroke-width:9.72"/>
	<line x1="2306.14" y1="1858.44" x2="2370.94" y2="1858.44" style="stroke:#F0F0F0;stroke-width:9.72"/>
	<line x1="2403.34" y1="1858.44" x2="2468.14" y2="1858.44" style="stroke:#F0F0F0;stroke-width:9.72"/>
	<line x1="2500.54" y1="1858.44" x2="2565.34" y2="1858.44" style="stroke:#F0F0F0;stroke-width:9.72"/>
	<line x1="2597.74" y1="1858.44" x2="2662.54" y2="1858.44" style="stroke:#F0F0F0;stroke-width:9.72"/>
	<line x1="2694.94" y1="1858.44" x2="2759.74" y2="1858.44" style="stroke:#F0F0F0;stroke-width:9.72"/>
	<line x1="2792.14" y1="1858.44" x2="2828.42" y2="1858.44" style="stroke:#F0F0F0;stroke-width:9.72"/>
	<line x1="459.34" y1="1021.61" x2="524.14" y2="1021.61" style="stroke:#F0F0F0;stroke-width:9.72"/>
	<line x1="556.54" y1="1021.61" x2="621.34" y2="1021.61" style="stroke:#F0F0F0;stroke-width:9.72"/>
	<line x1="653.74" y1="1021.61" x2="718.54" y2="1021.61" style="stroke:#F0F0F0;stroke-width:9.72"/>
	<line x1="750.94" y1="1021.61" x2="815.74" y2="1021.61" style="stroke:#F0F0F0;stroke-width:9.72"/>
	<line x1="848.14" y1="1021.61" x2="912.94" y2="1021.61" style="stroke:#F0F0F0;stroke-width:9.72"/>
	<line x1="945.34" y1="1021.61" x2="1010.14" y2="1021.61" style="stroke:#F0F0F0;stroke-width:9.72"/>
	<line x1="1042.54" y1="1021.61" x2="1107.34" y2="1021.61" style="stroke:#F0F0F0;stroke-width:9.72"/>
	<line x1="1139.74" y1="1021.61" x2="1204.54" y2="1021.61" style="stroke:#F0F0F0;stroke-width:9.72"/>
	<line x1="1236.94" y1="1021.61" x2="1301.74" y2="1021.61" style="stroke:#F0F0F0;stroke-width:9.72"/>
	<line x1="1334.14" y1="1021.61" x2="1398.94" y2="1021.61" style="stroke:#F0F0F0;stroke-width:9.72"/>
	<line x1="1431.34" y1="1021.61" x2="1496.14" y2="1021.61" style="stroke:#F0F0F0;stroke-width:9.72"/>
	<line x1="1528.54" y1="1021.61" x2="1593.34" y2="1021.61" style="stroke:#F0F0F0;stroke-width:9.72"/>
	<line x1="1625.74" y1="1021.61" x2="1690.54" y2="1021.61" style="stroke:#F0F0F0;stroke-width:9.72"/>
	<line x1="1722.94" y1="1021.61" x2="1787.74" y2="1021.61" style="stroke:#F0F0F0;stroke-width:9.72"/>
	<line x1="1820.14" y1="1021.61" x2="1884.94" y2="1021.61" style="stroke:#F0F0F0;stroke-width:9.72"/>
	<line x1="1917.34" y1="1021.61" x2="1982.14" y2="1021.61" style="stroke:#F0F0F0;stroke-width:9.72"/>
	<line x1="2014.54" y1="1021.61" x2="2079.34" y2="1021.61" style="stroke:#F0F0F0;stroke-width:9.72"/>
	<line x1="2111.74" y1="1021.61" x2="2176.54" y2="1021.61" style="stroke:#F0F0F0;stroke-width:9.72"/>
	<line x1="2208.94" y1="1021.61" x2="2273.74" y2="1021.61" style="stroke:#F0F0F0;stroke-width:9.72"/>
	<line x1="2306.14" y1="1021.61" x2="2370.94" y2="1021.61" style="stroke:#F0F0F0;stroke-width:9.72"/>
	<line x1="2403.34" y1="1021.61" x2="2468.14" y2="1021.61" style="stroke:#F0F0F0;stroke-width:9.72"/>
	<line x1="2500.54" y1="1021.61" x2="2565.34" y2="1021.61" style="stroke:#F0F0F0;stroke-width:9.72"/>
	<line x1="2597.74" y1="1021.61" x2="2662.54" y2="1021.61" style="stroke:#F0F0F0;stroke-width:9.72"/>
	<line x1="2694.94" y1="1021.61" x2="2759.74" y2="1021.61" style="stroke:#F0F0F0;stroke-width:9.72"/>
	<line x1="2792.14" y1="1021.61" x2="2828.42" y2="1021.61" style="stroke:#F0F0F0;stroke-width:9.72"/>
	<line x1="459.34" y1="184.61" x2="524.14" y2="184.61" style="stroke:#F0F0F0;stroke-width:9.72"/>
	<line x1="556.54" y1="184.61" x2="621.34" y2="184.61" style="stroke:#F0F0F0;stroke-width:9.72"/>
	<line x1="653.74" y1="184.61" x2="718.54" y2="184.61" style="stroke:#F0F0F0;stroke-width:9.72"/>
	<line x1="750.94" y1="184.61" x2="815.74" y2="184.61" style="stroke:#F0F0F0;stroke-width:9.72"/>
	<line x1="848.14" y1="184.61" x2="912.94" y2="184.61" style="stroke:#F0F0F0;stroke-width:9.72"/>
	<line x1="945.34" y1="184.61" x2="1010.14" y2="184.61" style="stroke:#F0F0F0;stroke-width:9.72"/>
	<line x1="1042.54" y1="184.61" x2="1107.34" y2="184.61" style="stroke:#F0F0F0;stroke-width:9.72"/>
	<line x1="1139.74" y1="184.61" x2="1204.54" y2="184.61" style="stroke:#F0F0F0;stroke-width:9.72"/>
	<line x1="1236.94" y1="184.61" x2="1301.74" y2="184.61" style="stroke:#F0F0F0;stroke-width:9.72"/>
	<line x1="1334.14" y1="184.61" x2="1398.94" y2="184.61" style="stroke:#F0F0F0;stroke-width:9.72"/>
	<line x1="1431.34" y1="184.61" x2="1496.14" y2="184.61" style="stroke:#F0F0F0;stroke-width:9.72"/>
	<line x1="1528.54" y1="184.61" x2="1593.34" y2="184.61" style="stroke:#F0F0F0;stroke-width:9.72"/>
	<line x1="1625.74" y1="184.61" x2="1690.54" y2="184.61" style="stroke:#F0F0F0;stroke-width:9.72"/>
	<line x1="1722.94" y1="184.61" x2="1787.74" y2="184.61" style="stroke:#F0F0F0;stroke-width:9.72"/>
	<line x1="1820.14" y1="184.61" x2="1884.94" y2="184.61" style="stroke:#F0F0F0;stroke-width:9.72"/>
	<line x1="1917.34" y1="184.61" x2="1982.14" y2="184.61" style="stroke:#F0F0F0;stroke-width:9.72"/>
	<line x1="2014.54" y1="184.61" x2="2079.34" y2="184.61" style="stroke:#F0F0F0;stroke-width:9.72"/>
	<line x1="2111.74" y1="184.61" x2="2176.54" y2="184.61" style="stroke:#F0F0F0;stroke-width:9.72"/>
	<line x1="2208.94" y1="184.61" x2="2273.74" y2="184.61" style="stroke:#F0F0F0;stroke-width:9.72"/>
	<line x1="2306.14" y1="184.61" x2="2370.94" y2="184.61" style="stroke:#F0F0F0;stroke-width:9.72"/>
	<line x1="2403.34" y1="184.61" x2="2468.14" y2="184.61" style="stroke:#F0F0F0;stroke-width:9.72"/>
	<line x1="2500.54" y1="184.61" x2="2565.34" y2="184.61" style="stroke:#F0F0F0;stroke-width:9.72"/>
	<line x1="2597.74" y1="184.61" x2="2662.54" y2="184.61" style="stroke:#F0F0F0;stroke-width:9.72"/>
	<line x1="2694.94" y1="184.61" x2="2759.74" y2="184.61" style="stroke:#F0F0F0;stroke-width:9.72"/>
	<line x1="2792.14" y1="184.61" x2="2828.42" y2="184.61" style="stroke:#F0F0F0;stroke-width:9.72"/>
	<line x1="619.99" y1="2766.66" x2="619.99" y2="2701.86" style="stroke:#F0F0F0;stroke-width:9.72"/>
	<line x1="619.99" y1="2669.46" x2="619.99" y2="2604.66" style="stroke:#F0F0F0;stroke-width:9.72"/>
	<line x1="619.99" y1="2572.26" x2="619.99" y2="2507.46" style="stroke:#F0F0F0;stroke-width:9.72"/>
	<line x1="619.99" y1="2475.06" x2="619.99" y2="2410.26" style="stroke:#F0F0F0;stroke-width:9.72"/>
	<line x1="619.99" y1="2377.86" x2="619.99" y2="2313.06" style="stroke:#F0F0F0;stroke-width:9.72"/>
	<line x1="619.99" y1="2280.66" x2="619.99" y2="2215.86" style="stroke:#F0F0F0;stroke-width:9.72"/>
	<line x1="619.99" y1="2183.46" x2="619.99" y2="2118.66" style="stroke:#F0F0F0;stroke-width:9.72"/>
	<line x1="619.99" y1="2086.26" x2="619.99" y2="2021.46" style="stroke:#F0F0F0;stroke-width:9.72"/>
	<line x1="619.99" y1="1989.06" x2="619.99" y2="1924.26" style="stroke:#F0F0F0;stroke-width:9.72"/>
	<line x1="619.99" y1="1891.86" x2="619.99" y2="1827.06" style="stroke:#F0F0F0;stroke-width:9.72"/>
	<line x1="619.99" y1="1794.66" x2="619.99" y2="1729.86" style="stroke:#F0F0F0;stroke-width:9.72"/>
	<line x1="619.99" y1="1697.46" x2="619.99" y2="1632.66" style="stroke:#F0F0F0;stroke-width:9.72"/>
	<line x1="619.99" y1="1600.26" x2="619.99" y2="1535.46" style="stroke:#F0F0F0;stroke-width:9.72"/>
	<line x1="619.99" y1="1503.06" x2="619.99" y2="1438.26" style="stroke:#F0F0F0;stroke-width:9.72"/>
	<line x1="619.99" y1="1405.86" x2="619.99" y2="1341.06" style="stroke:#F0F0F0;stroke-width:9.72"/>
	<line x1="619.99" y1="1308.66" x2="619.99" y2="1243.86" style="stroke:#F0F0F0;stroke-width:9.72"/>
	<line x1="619.99" y1="1211.46" x2="619.99" y2="1146.66" style="stroke:#F0F0F0;stroke-width:9.72"/>
	<line x1="619.99" y1="1114.26" x2="619.99" y2="1049.46" style="stroke:#F0F0F0;stroke-width:9.72"/>
	<line x1="619.99" y1="1017.06" x2="619.99" y2="952.26" style="stroke:#F0F0F0;stroke-width:9.72"/>
	<line x1="619.99" y1="919.86" x2="619.99" y2="855.06" style="stroke:#F0F0F0;stroke-width:9.72"/>
	<line x1="619.99" y1="822.66" x2="619.99" y2="757.86" style="stroke:#F0F0F0;stroke-width:9.72"/>
	<line x1="619.99" y1="725.46" x2="619.99" y2="660.66" style="stroke:#F0F0F0;stroke-width:9.72"/>
	<line x1="619.99" y1="628.26" x2="619.99" y2="563.46" style="stroke:#F0F0F0;stroke-width:9.72"/>
	<line x1="619.99" y1="531.06" x2="619.99" y2="466.26" style="stroke:#F0F0F0;stroke-width:9.72"/>
	<line x1="619.99" y1="433.86" x2="619.99" y2="369.06" style="stroke:#F0F0F0;stroke-width:9.72"/>
	<line x1="619.99" y1="336.66" x2="619.99" y2="271.86" style="stroke:#F0F0F0;stroke-width:9.72"/>
	<line x1="619.99" y1="239.46" x2="619.99" y2="174.66" style="stroke:#F0F0F0;stroke-width:9.72"/>
	<line x1="619.99" y1="142.26" x2="619.99" y2="113.40" style="stroke:#F0F0F0;stroke-width:9.72"/>
	<line x1="1154.25" y1="2766.66" x2="1154.25" y2="2701.86" style="stroke:#F0F0F0;stroke-width:9.72"/>
	<line x1="1154.25" y1="2669.46" x2="1154.25" y2="2604.66" style="stroke:#F0F0F0;stroke-width:9.72"/>
	<line x1="1154.25" y1="2572.26" x2="1154.25" y2="2507.46" style="stroke:#F0F0F0;stroke-width:9.72"/>
	<line x1="1154.25" y1="2475.06" x2="1154.25" y2="2410.26" style="stroke:#F0F0F0;stroke-width:9.72"/>
	<line x1="1154.25" y1="2377.86" x2="1154.25" y2="2313.06" style="stroke:#F0F0F0;stroke-width:9.72"/>
	<line x1="1154.25" y1="2280.66" x2="1154.25" y2="2215.86" style="stroke:#F0F0F0;stroke-width:9.72"/>
	<line x1="1154.25" y1="2183.46" x2="1154.25" y2="2118.66" style="stroke:#F0F0F0;stroke-width:9.72"/>
	<line x1="1154.25" y1="2086.26" x2="1154.25" y2="2021.46" style="stroke:#F0F0F0;stroke-width:9.72"/>
	<line x1="1154.25" y1="1989.06" x2="1154.25" y2="1924.26" style="stroke:#F0F0F0;stroke-width:9.72"/>
	<line x1="1154.25" y1="1891.86" x2="1154.25" y2="1827.06" style="stroke:#F0F0F0;stroke-width:9.72"/>
	<line x1="1154.25" y1="1794.66" x2="1154.25" y2="1729.86" style="stroke:#F0F0F0;stroke-width:9.72"/>
	<line x1="1154.25" y1="1697.46" x2="1154.25" y2="1632.66" style="stroke:#F0F0F0;stroke-width:9.72"/>
	<line x1="1154.25" y1="1600.26" x2="1154.25" y2="1535.46" style="stroke:#F0F0F0;stroke-width:9.72"/>
	<line x1="1154.25" y1="1503.06" x2="1154.25" y2="1438.26" style="stroke:#F0F0F0;stroke-width:9.72"/>
	<line x1="1154.25" y1="1405.86" x2="1154.25" y2="1341.06" style="stroke:#F0F0F0;stroke-width:9.72"/>
	<line x1="1154.25" y1="1308.66" x2="1154.25" y2="1243.86" style="stroke:#F0F0F0;stroke-width:9.72"/>
	<line x1="1154.25" y1="1211.46" x2="1154.25" y2="1146.66" style="stroke:#F0F0F0;stroke-width:9.72"/>
	<line x1="1154.25" y1="1114.26" x2="1154.25" y2="1049.46" style="stroke:#F0F0F0;stroke-width:9.72"/>
	<line x1="1154.25" y1="1017.06" x2="1154.25" y2="952.26" style="stroke:#F0F0F0;stroke-width:9.72"/>
	<line x1="1154.25" y1="919.86" x2="1154.25" y2="855.06" style="stroke:#F0F0F0;stroke-width:9.72"/>
	<line x1="1154.25" y1="822.66" x2="1154.25" y2="757.86" style="stroke:#F0F0F0;stroke-width:9.72"/>
	<line x1="1154.25" y1="725.46" x2="1154.25" y2="660.66" style="stroke:#F0F0F0;stroke-width:9.72"/>
	<line x1="1154.25" y1="628.26" x2="1154.25" y2="563.46" style="stroke:#F0F0F0;stroke-width:9.72"/>
	<line x1="1154.25" y1="531.06" x2="1154.25" y2="466.26" style="stroke:#F0F0F0;stroke-width:9.72"/>
	<line x1="1154.25" y1="433.86" x2="1154.25" y2="369.06" style="stroke:#F0F0F0;stroke-width:9.72"/>
	<line x1="1154.25" y1="336.66" x2="1154.25" y2="271.86" style="stroke:#F0F0F0;stroke-width:9.72"/>
	<line x1="1154.25" y1="239.46" x2="1154.25" y2="174.66" style="stroke:#F0F0F0;stroke-width:9.72"/>
	<line x1="1154.25" y1="142.26" x2="1154.25" y2="113.40" style="stroke:#F0F0F0;stroke-width:9.72"/>
	<line x1="1688.51" y1="2766.66" x2="1688.51" y2="2701.86" style="stroke:#F0F0F0;stroke-width:9.72"/>
	<line x1="1688.51" y1="2669.46" x2="1688.51" y2="2604.66" style="stroke:#F0F0F0;stroke-width:9.72"/>
	<line x1="1688.51" y1="2572.26" x2="1688.51" y2="2507.46" style="stroke:#F0F0F0;stroke-width:9.72"/>
	<line x1="1688.51" y1="2475.06" x2="1688.51" y2="2410.26" style="stroke:#F0F0F0;stroke-width:9.72"/>
	<line x1="1688.51" y1="2377.86" x2="1688.51" y2="2313.06" style="stroke:#F0F0F0;stroke-width:9.72"/>
	<line x1="1688.51" y1="2280.66" x2="1688.51" y2="2215.86" style="stroke:#F0F0F0;stroke-width:9.72"/>
	<line x1="1688.51" y1="2183.46" x2="1688.51" y2="2118.66" style="stroke:#F0F0F0;stroke-width:9.72"/>
	<line x1="1688.51" y1="2086.26" x2="1688.51" y2="2021.46" style="stroke:#F0F0F0;stroke-width:9.72"/>
	<line x1="1688.51" y1="1989.06" x2="1688.51" y2="1924.26" style="stroke:#F0F0F0;stroke-width:9.72"/>
	<line x1="1688.51" y1="1891.86" x2="1688.51" y2="1827.06" style="stroke:#F0F0F0;stroke-width:9.72"/>
	<line x1="1688.51" y1="1794.66" x2="1688.51" y2="1729.86" style="stroke:#F0F0F0;stroke-width:9.72"/>
	<line x1="1688.51" y1="1697.46" x2="1688.51" y2="1632.66" style="stroke:#F0F0F0;stroke-width:9.72"/>
	<line x1="1688.51" y1="1600.26" x2="1688.51" y2="1535.46" style="stroke:#F0F0F0;stroke-width:9.72"/>
	<line x1="1688.51" y1="1503.06" x2="1688.51" y2="1438.26" style="stroke:#F0F0F0;stroke-width:9.72"/>
	<line x1="1688.51" y1="1405.86" x2="1688.51" y2="1341.06" style="stroke:#F0F0F0;stroke-width:9.72"/>
	<line x1="1688.51" y1="1308.66" x2="1688.51" y2="1243.86" style="stroke:#F0F0F0;stroke-width:9.72"/>
	<line x1="1688.51" y1="1211.46" x2="1688.51" y2="1146.66" style="stroke:#F0F0F0;stroke-width:9.72"/>
	<line x1="1688.51" y1="1114.26" x2="1688.51" y2="1049.46" style="stroke:#F0F0F0;stroke-width:9.72"/>
	<line x1="1688.51" y1="1017.06" x2="1688.51" y2="952.26" style="stroke:#F0F0F0;stroke-width:9.72"/>
	<line x1="1688.51" y1="919.86" x2="1688.51" y2="855.06" style="stroke:#F0F0F0;stroke-width:9.72"/>
	<line x1="1688.51" y1="822.66" x2="1688.51" y2="757.86" style="stroke:#F0F0F0;stroke-width:9.72"/>
	<line x1="1688.51" y1="725.46" x2="1688.51" y2="660.66" style="stroke:#F0F0F0;stroke-width:9.72"/>
	<line x1="1688.51" y1="628.26" x2="1688.51" y2="563.46" style="stroke:#F0F0F0;stroke-width:9.72"/>
	<line x1="1688.51" y1="531.06" x2="1688.51" y2="466.26" style="stroke:#F0F0F0;stroke-width:9.72"/>
	<line x1="1688.51" y1="433.86" x2="1688.51" y2="369.06" style="stroke:#F0F0F0;stroke-width:9.72"/>
	<line x1="1688.51" y1="336.66" x2="1688.51" y2="271.86" style="stroke:#F0F0F0;stroke-width:9.72"/>
	<line x1="1688.51" y1="239.46" x2="1688.51" y2="174.66" style="stroke:#F0F0F0;stroke-width:9.72"/>
	<line x1="1688.51" y1="142.26" x2="1688.51" y2="113.40" style="stroke:#F0F0F0;stroke-width:9.72"/>
	<line x1="2222.78" y1="2766.66" x2="2222.78" y2="2701.86" style="stroke:#F0F0F0;stroke-width:9.72"/>
	<line x1="2222.78" y1="2669.46" x2="2222.78" y2="2604.66" style="stroke:#F0F0F0;stroke-width:9.72"/>
	<line x1="2222.78" y1="2572.26" x2="2222.78" y2="2507.46" style="stroke:#F0F0F0;stroke-width:9.72"/>
	<line x1="2222.78" y1="2475.06" x2="2222.78" y2="2410.26" style="stroke:#F0F0F0;stroke-width:9.72"/>
	<line x1="2222.78" y1="2377.86" x2="2222.78" y2="2313.06" style="stroke:#F0F0F0;stroke-width:9.72"/>
	<line x1="2222.78" y1="2280.66" x2="2222.78" y2="2215.86" style="stroke:#F0F0F0;stroke-width:9.72"/>
	<line x1="2222.78" y1="2183.46" x2="2222.78" y2="2118.66" style="stroke:#F0F0F0;stroke-width:9.72"/>
	<line x1="2222.78" y1="2086.26" x2="2222.78" y2="2021.46" style="stroke:#F0F0F0;stroke-width:9.72"/>
	<line x1="2222.78" y1="1989.06" x2="2222.78" y2="1924.26" style="stroke:#F0F0F0;stroke-width:9.72"/>
	<line x1="2222.78" y1="1891.86" x2="2222.78" y2="1827.06" style="stroke:#F0F0F0;stroke-width:9.72"/>
	<line x1="2222.78" y1="1794.66" x2="2222.78" y2="1729.86" style="stroke:#F0F0F0;stroke-width:9.72"/>
	<line x1="2222.78" y1="1697.46" x2="2222.78" y2="1632.66" style="stroke:#F0F0F0;stroke-width:9.72"/>
	<line x1="2222.78" y1="1600.26" x2="2222.78" y2="1535.46" style="stroke:#F0F0F0;stroke-width:9.72"/>
	<line x1="2222.78" y1="1503.06" x2="2222.78" y2="1438.26" style="stroke:#F0F0F0;stroke-width:9.72"/>
	<line x1="2222.78" y1="1405.86" x2="2222.78" y2="1341.06" style="stroke:#F0F0F0;stroke-width:9.72"/>
	<line x1="2222.78" y1="1308.66" x2="2222.78" y2="1243.86" style="stroke:#F0F0F0;stroke-width:9.72"/>
	<line x1="2222.78" y1="1211.46" x2="2222.78" y2="1146.66" style="stroke:#F0F0F0;stroke-width:9.72"/>
	<line x1="2222.78" y1="1114.26" x2="2222.78" y2="1049.46" style="stroke:#F0F0F0;stroke-width:9.72"/>
	<line x1="2222.78" y1="1017.06" x2="2222.78" y2="952.26" style="stroke:#F0F0F0;stroke-width:9.72"/>
	<line x1="2222.78" y1="919.86" x2="2222.78" y2="855.06" style="stroke:#F0F0F0;stroke-width:9.72"/>
	<line x1="2222.78" y1="822.66" x2="2222.78" y2="757.86" style="stroke:#F0F0F0;stroke-width:9.72"/>
	<line x1="2222.78" y1="725.46" x2="2222.78" y2="660.66" style="stroke:#F0F0F0;stroke-width:9.72"/>
	<line x1="2222.78" y1="628.26" x2="2222.78" y2="563.46" style="stroke:#F0F0F0;stroke-width:9.72"/>
	<line x1="2222.78" y1="531.06" x2="2222.78" y2="466.26" style="stroke:#F0F0F0;stroke-width:9.72"/>
	<line x1="2222.78" y1="433.86" x2="2222.78" y2="369.06" style="stroke:#F0F0F0;stroke-width:9.72"/>
	<line x1="2222.78" y1="336.66" x2="2222.78" y2="271.86" style="stroke:#F0F0F0;stroke-width:9.72"/>
	<line x1="2222.78" y1="239.46" x2="2222.78" y2="174.66" style="stroke:#F0F0F0;stroke-width:9.72"/>
	<line x1="2222.78" y1="142.26" x2="2222.78" y2="113.40" style="stroke:#F0F0F0;stroke-width:9.72"/>
	<line x1="2757.04" y1="2766.66" x2="2757.04" y2="2701.86" style="stroke:#F0F0F0;stroke-width:9.72"/>
	<line x1="2757.04" y1="2669.46" x2="2757.04" y2="2604.66" style="stroke:#F0F0F0;stroke-width:9.72"/>
	<line x1="2757.04" y1="2572.26" x2="2757.04" y2="2507.46" style="stroke:#F0F0F0;stroke-width:9.72"/>
	<line x1="2757.04" y1="2475.06" x2="2757.04" y2="2410.26" style="stroke:#F0F0F0;stroke-width:9.72"/>
	<line x1="2757.04" y1="2377.86" x2="2757.04" y2="2313.06" style="stroke:#F0F0F0;stroke-width:9.72"/>
	<line x1="2757.04" y1="2280.66" x2="2757.04" y2="2215.86" style="stroke:#F0F0F0;stroke-width:9.72"/>
	<line x1="2757.04" y1="2183.46" x2="2757.04" y2="2118.66" style="stroke:#F0F0F0;stroke-width:9.72"/>
	<line x1="2757.04" y1="2086.26" x2="2757.04" y2="2021.46" style="stroke:#F0F0F0;stroke-width:9.72"/>
	<line x1="2757.04" y1="1989.06" x2="2757.04" y2="1924.26" style="stroke:#F0F0F0;stroke-width:9.72"/>
	<line x1="2757.04" y1="1891.86" x2="2757.04" y2="1827.06" style="stroke:#F0F0F0;stroke-width:9.72"/>
	<line x1="2757.04" y1="1794.66" x2="2757.04" y2="1729.86" style="stroke:#F0F0F0;stroke-width:9.72"/>
	<line x1="2757.04" y1="1697.46" x2="2757.04" y2="1632.66" style="stroke:#F0F0F0;stroke-width:9.72"/>
	<line x1="2757.04" y1="1600.26" x2="2757.04" y2="1535.46" style="stroke:#F0F0F0;stroke-width:9.72"/>
	<line x1="2757.04" y1="1503.06" x2="2757.04" y2="1438.26" style="stroke:#F0F0F0;stroke-width:9.72"/>
	<line x1="2757.04" y1="1405.86" x2="2757.04" y2="1341.06" style="stroke:#F0F0F0;stroke-width:9.72"/>
	<line x1="2757.04" y1="1308.66" x2="2757.04" y2="1243.86" style="stroke:#F0F0F0;stroke-width:9.72"/>
	<line x1="2757.04" y1="1211.46" x2="2757.04" y2="1146.66" style="stroke:#F0F0F0;stroke-width:9.72"/>
	<line x1="2757.04" y1="1114.26" x2="2757.04" y2="1049.46" style="stroke:#F0F0F0;stroke-width:9.72"/>
	<line x1="2757.04" y1="1017.06" x2="2757.04" y2="952.26" style="stroke:#F0F0F0;stroke-width:9.72"/>
	<line x1="2757.04" y1="919.86" x2="2757.04" y2="855.06" style="stroke:#F0F0F0;stroke-width:9.72"/>
	<line x1="2757.04" y1="822.66" x2="2757.04" y2="757.86" style="stroke:#F0F0F0;stroke-width:9.72"/>
	<line x1="2757.04" y1="725.46" x2="2757.04" y2="660.66" style="stroke:#F0F0F0;stroke-width:9.72"/>
	<line x1="2757.04" y1="628.26" x2="2757.04" y2="563.46" style="stroke:#F0F0F0;stroke-width:9.72"/>
	<line x1="2757.04" y1="531.06" x2="2757.04" y2="466.26" style="stroke:#F0F0F0;stroke-width:9.72"/>
	<line x1="2757.04" y1="433.86" x2="2757.04" y2="369.06" style="stroke:#F0F0F0;stroke-width:9.72"/>
	<line x1="2757.04" y1="336.66" x2="2757.04" y2="271.86" style="stroke:#F0F0F0;stroke-width:9.72"/>
	<line x1="2757.04" y1="239.46" x2="2757.04" y2="174.66" style="stroke:#F0F0F0;stroke-width:9.72"/>
	<line x1="2757.04" y1="142.26" x2="2757.04" y2="113.40" style="stroke:#F0F0F0;stroke-width:9.72"/>
	<path d=" M657.62 2694.43 L660.99 2693.42 L664.37 2691.73 L667.74 2688.86 L671.12 2684.48 L674.49 2678.23 L677.87 2669.79 L681.24 2659.50 L684.62 2647.69 L687.99 2635.37 L691.37 2624.23 L694.74 2615.46 L698.12 2610.73 L701.49 2610.39 L704.87 2614.95 L708.41 2623.39 L711.79 2634.53 L715.16 2646.68 L718.54 2658.66 L721.91 2669.12 L725.29 2677.73 L728.66 2684.14 L732.04 2688.53 L735.41 2691.56 L738.79 2693.25 L742.16 2694.43 L745.54 2694.94 L748.91 2695.11 L752.29 2695.28 L755.66 2695.44 L759.04 2695.44 L762.41 2695.44 L765.79 2695.44 L769.16 2695.44 L772.54 2695.44 L775.91 2695.44 L779.29 2695.44 L782.66 2695.44 L786.04 2695.44 L789.41 2695.44 L792.79 2695.44 L796.16 2695.44 L799.54 2695.44 L802.91 2695.44 L806.29 2695.44 L809.66 2695.44 L813.04 2695.44 L816.41 2695.44 L819.79 2695.44 L823.16 2695.44 L826.54 2695.44 L829.91 2695.44 L833.29 2695.44 L836.66 2695.44 L840.04 2695.44 L843.41 2695.44 L846.79 2695.44 L850.16 2695.44 L853.54 2695.44 L856.91 2695.44 L860.29 2695.44 L863.66 2695.44 L867.04 2695.44 L870.41 2695.44 L873.79 2695.44 L877.16 2695.44 L880.54 2695.44 L883.91 2695.44 L887.29 2695.44 L890.66 2695.44 L894.04 2695.44 L897.41 2695.44 L900.96 2695.44 L904.33 2695.44 L907.71 2695.44 L911.08 2695.44 L914.46 2695.44 L917.83 2695.44 L921.21 2695.44 L924.58 2695.28 L927.96 2695.11 L931.33 2694.77 L934.71 2694.26 L938.08 2693.08 L941.46 2691.06 L944.83 2687.85 L948.21 2682.96 L951.58 2676.21 L954.96 2667.09 L958.33 2656.29 L961.71 2644.14 L965.08 2631.99 L968.46 2621.36 L971.83 2613.60 L975.21 2609.89 L978.58 2611.07 L981.96 2616.81 L985.33 2626.26 L988.71 2637.90 L992.08 2650.22 L995.46 2661.69 L998.83 2671.82 L1002.21 2679.75 L1005.58 2685.66 L1008.96 2689.54 L1012.33 2692.07 L1015.71 2693.76 L1019.08 2694.60 L1022.46 2694.94 L1025.83 2695.28 L1029.21 2695.28 L1032.58 2695.44 L1035.96 2695.44 L1039.33 2695.44 L1042.71 2695.44 L1046.08 2695.44 L1049.46 2695.44 L1052.83 2695.44 L1056.21 2695.44 L1059.58 2695.44 L1062.96 2695.44 L1066.33 2695.44 L1069.71 2695.44 L1073.08 2695.44 L1076.46 2695.44 L1079.83 2695.44 L1083.21 2695.44 L1086.58 2695.44 L1089.96 2695.44 L1093.33 2695.44 L1096.88 2695.44 L1100.25 2695.44 L1103.63 2695.44 L1107.00 2695.44 L1110.38 2695.28 L1113.75 2695.28 L1117.13 2694.94 L1120.50 2694.43 L1123.88 2693.59 L1127.25 2691.90 L1130.63 2689.03 L1134.00 2684.81 L1137.38 2678.57 L1140.75 2669.96 L1144.13 2659.16 L1147.50 2646.17 L1150.88 2631.99 L1154.25 2617.31 L1157.63 2603.31 L1161.00 2590.82 L1164.38 2580.36 L1167.75 2571.92 L1171.13 2565.17 L1174.50 2559.60 L1177.88 2554.54 L1181.25 2549.48 L1184.63 2544.75 L1188.00 2540.19 L1191.38 2536.14 L1194.75 2532.94 L1198.13 2530.57 L1201.50 2529.56 L1204.88 2530.07 L1208.25 2532.43 L1211.63 2537.32 L1215.00 2544.92 L1218.38 2555.38 L1221.75 2568.71 L1225.13 2584.57 L1228.50 2601.96 L1231.88 2619.68 L1235.25 2636.72 L1238.63 2652.08 L1242.00 2664.90 L1245.38 2675.03 L1248.75 2682.45 L1252.13 2687.51 L1255.50 2690.89 L1258.88 2693.08 L1262.25 2694.26 L1265.63 2694.77 L1269.00 2695.11 L1272.38 2695.28 L1275.75 2695.28 L1279.13 2695.28 L1282.50 2695.28 L1285.88 2695.11 L1289.42 2694.94 L1292.79 2694.26 L1296.17 2693.08 L1299.54 2690.72 L1302.92 2686.67 L1306.29 2679.92 L1309.67 2668.95 L1313.04 2652.58 L1316.42 2629.13 L1319.79 2597.06 L1323.17 2555.38 L1326.54 2504.08 L1329.92 2443.50 L1333.29 2375.49 L1336.67 2302.09 L1340.04 2225.98 L1343.42 2149.54 L1346.79 2075.29 L1350.17 2004.92 L1353.54 1939.95 L1356.92 1882.41 L1360.29 1833.81 L1363.67 1796.01 L1367.04 1770.86 L1370.42 1758.88 L1373.79 1759.56 L1377.17 1770.86 L1380.54 1789.59 L1383.92 1811.70 L1387.29 1833.64 L1390.67 1852.71 L1394.04 1867.73 L1397.42 1878.69 L1400.79 1886.96 L1404.17 1893.04 L1407.54 1897.26 L1410.92 1898.44 L1414.29 1894.89 L1417.67 1883.93 L1421.04 1863.34 L1424.42 1830.94 L1427.79 1786.05 L1431.17 1729.69 L1434.54 1663.71 L1437.92 1592.16 L1441.29 1519.76 L1444.67 1451.76 L1448.04 1393.37 L1451.42 1347.81 L1454.79 1316.93 L1458.17 1299.54 L1461.54 1292.12 L1464.92 1289.25 L1468.29 1285.88 L1471.67 1277.44 L1475.04 1262.25 L1478.42 1240.65 L1481.96 1215.00 L1485.34 1188.68 L1488.71 1164.54 L1492.09 1144.97 L1495.46 1132.31 L1498.84 1128.26 L1502.21 1135.18 L1505.59 1155.77 L1508.96 1190.70 L1512.34 1238.79 L1515.71 1294.65 L1519.09 1349.33 L1522.46 1392.36 L1525.84 1413.79 L1529.21 1407.21 L1532.59 1371.94 L1535.96 1313.21 L1539.34 1240.99 L1542.71 1167.75 L1546.09 1105.48 L1549.46 1062.79 L1552.84 1042.54 L1556.21 1041.86 L1559.59 1052.66 L1562.96 1063.13 L1566.34 1061.61 L1569.71 1038.66 L1573.09 990.56 L1576.46 919.69 L1579.84 834.30 L1583.21 745.54 L1586.59 664.37 L1589.96 598.89 L1593.34 552.15 L1596.71 522.28 L1600.09 504.06 L1603.46 491.57 L1606.84 479.93 L1610.21 466.76 L1613.59 452.76 L1616.96 440.61 L1620.34 434.19 L1623.71 436.72 L1627.09 450.06 L1630.46 473.68 L1633.84 504.56 L1637.21 537.64 L1640.59 566.83 L1643.96 585.73 L1647.34 590.12 L1650.71 578.64 L1654.09 553.67 L1657.46 520.26 L1660.84 485.16 L1664.21 454.61 L1667.59 432.00 L1670.96 417.99 L1674.34 409.89 L1677.88 403.31 L1681.26 394.03 L1684.63 379.35 L1688.01 358.59 L1691.38 333.79 L1694.76 308.31 L1698.13 286.54 L1701.51 273.21 L1704.88 272.19 L1708.26 285.86 L1711.63 314.21 L1715.01 355.05 L1718.38 403.31 L1721.76 452.93 L1725.13 498.15 L1728.51 535.11 L1731.88 562.95 L1735.26 584.21 L1738.63 604.29 L1742.01 629.78 L1745.38 666.22 L1748.76 717.02 L1752.13 781.82 L1755.51 857.08 L1758.88 936.56 L1762.26 1012.84 L1765.63 1078.14 L1769.01 1125.90 L1772.38 1152.22 L1775.76 1155.26 L1779.13 1136.87 L1782.51 1101.09 L1785.88 1054.18 L1789.26 1003.05 L1792.63 954.28 L1796.01 912.43 L1799.38 880.88 L1802.76 860.29 L1806.13 850.50 L1809.51 850.16 L1812.88 858.26 L1816.26 873.79 L1819.63 895.89 L1823.01 923.74 L1826.38 955.63 L1829.76 988.88 L1833.13 1020.60 L1836.51 1048.44 L1839.88 1070.72 L1843.26 1087.09 L1846.63 1098.22 L1850.01 1105.14 L1853.38 1109.03 L1856.76 1110.88 L1860.13 1111.72 L1863.51 1113.07 L1866.88 1116.62 L1870.43 1124.72 L1873.80 1139.06 L1877.18 1160.83 L1880.55 1190.03 L1883.93 1225.46 L1887.30 1265.12 L1890.68 1306.80 L1894.05 1348.65 L1897.43 1388.98 L1900.80 1426.95 L1904.18 1461.54 L1907.55 1492.43 L1910.93 1517.91 L1914.30 1536.47 L1917.68 1546.09 L1921.05 1545.08 L1924.43 1532.59 L1927.80 1510.65 L1931.18 1482.98 L1934.55 1455.98 L1937.93 1436.40 L1941.30 1431.17 L1944.68 1443.99 L1948.05 1475.55 L1951.43 1522.63 L1954.80 1579.84 L1958.18 1639.91 L1961.55 1696.78 L1964.93 1746.06 L1968.30 1785.71 L1971.68 1816.43 L1975.05 1839.71 L1978.43 1858.28 L1981.80 1874.31 L1985.18 1890.00 L1988.55 1906.71 L1991.93 1925.27 L1995.30 1946.03 L1998.68 1968.98 L2002.05 1994.12 L2005.43 2021.63 L2008.80 2051.83 L2012.18 2085.58 L2015.55 2123.89 L2018.93 2167.26 L2022.30 2215.52 L2025.68 2267.66 L2029.05 2321.49 L2032.43 2374.65 L2035.80 2424.77 L2039.18 2470.16 L2042.55 2509.99 L2045.93 2543.57 L2049.30 2570.91 L2052.68 2591.32 L2056.05 2603.98 L2059.43 2607.86 L2062.97 2601.96 L2066.34 2585.93 L2069.72 2560.44 L2073.09 2527.20 L2076.47 2489.74 L2079.84 2451.77 L2083.22 2417.34 L2086.59 2389.67 L2089.97 2370.09 L2093.34 2358.45 L2096.72 2353.05 L2100.09 2350.86 L2103.47 2349.00 L2106.84 2345.79 L2110.22 2340.23 L2113.59 2332.63 L2116.97 2324.53 L2120.34 2317.11 L2123.72 2312.04 L2127.09 2309.51 L2130.47 2309.51 L2133.84 2311.20 L2137.22 2314.24 L2140.59 2318.29 L2143.97 2323.69 L2147.34 2331.62 L2150.72 2343.60 L2154.09 2360.48 L2157.47 2382.41 L2160.84 2408.74 L2164.22 2437.93 L2167.59 2468.14 L2170.97 2498.01 L2174.34 2526.53 L2177.72 2553.19 L2181.09 2577.82 L2184.47 2600.27 L2187.84 2620.52 L2191.22 2638.07 L2194.59 2652.08 L2197.97 2662.03 L2201.34 2667.26 L2204.72 2666.93 L2208.09 2660.01 L2211.47 2645.83 L2214.84 2623.73 L2218.22 2593.52 L2221.59 2556.23 L2224.97 2513.87 L2228.34 2470.16 L2231.72 2429.66 L2235.09 2397.26 L2238.47 2377.18 L2241.84 2372.46 L2245.22 2383.59 L2248.59 2409.24 L2251.97 2445.53 L2255.34 2488.05 L2258.89 2531.76 L2262.26 2572.76 L2265.64 2608.03 L2269.01 2636.38 L2272.39 2657.48 L2275.76 2672.33 L2279.14 2682.11 L2282.51 2688.02 L2285.89 2691.56 L2289.26 2693.42 L2292.64 2694.26 L2296.01 2694.60 L2299.39 2694.26 L2302.76 2693.25 L2306.14 2691.56 L2309.51 2688.53 L2312.89 2684.14 L2316.26 2677.73 L2319.64 2669.12 L2323.01 2658.66 L2326.39 2646.68 L2329.76 2634.53 L2333.14 2623.39 L2336.51 2614.95 L2339.89 2610.39 L2343.26 2610.73 L2346.64 2615.46 L2350.01 2624.23 L2353.39 2635.37 L2356.76 2647.69 L2360.14 2659.50 L2363.51 2669.79 L2366.89 2678.23 L2370.26 2684.48 L2373.64 2688.86 L2377.01 2691.73 L2380.39 2693.42 L2383.76 2694.43" stroke-linejoin="round" style="fill:none;stroke:#A0A0A0;stroke-width:9.72"/>
	<path d=" M615.26 2694.94 L618.81 2694.77 L622.35 2694.43 L625.89 2694.09 L629.44 2693.59 L632.98 2692.74 L636.53 2691.90 L640.07 2690.89 L643.61 2689.54 L647.16 2687.85 L650.70 2685.99 L654.24 2683.80 L657.79 2681.27 L661.33 2678.57 L664.88 2675.53 L668.42 2672.33 L671.96 2669.12 L675.51 2665.91 L679.05 2662.71 L682.59 2659.84 L686.14 2657.31 L689.68 2655.11 L693.23 2653.59 L696.77 2652.75 L700.31 2652.41 L703.86 2652.75 L707.40 2653.93 L710.94 2655.45 L714.49 2657.64 L718.03 2660.34 L721.58 2663.38 L725.12 2666.42 L728.66 2669.79 L732.21 2673.00 L735.75 2676.21 L739.29 2679.08 L742.84 2681.78 L746.38 2684.31 L749.93 2686.33 L753.47 2688.19 L757.01 2689.88 L760.56 2691.06 L764.10 2692.07 L767.64 2692.91 L771.19 2693.59 L774.73 2694.09 L778.28 2694.43 L781.82 2694.77 L785.36 2694.94 L788.91 2695.11 L792.45 2695.28 L795.99 2695.28 L799.54 2695.28 L803.08 2695.28 L806.63 2695.44 L810.17 2695.44 L813.71 2695.44 L817.26 2695.44 L820.80 2695.44 L824.34 2695.44 L827.89 2695.44 L831.43 2695.44 L834.98 2695.44 L838.52 2695.44 L842.06 2695.44 L845.61 2695.44 L849.15 2695.44 L852.69 2695.44 L856.24 2695.44 L859.78 2695.44 L863.33 2695.44 L866.87 2695.44 L870.41 2695.44 L873.96 2695.28 L877.50 2695.28 L881.04 2695.28 L884.59 2695.11 L888.13 2695.11 L891.68 2694.94 L895.22 2694.77 L898.76 2694.43 L902.31 2693.93 L905.85 2693.42 L909.39 2692.74 L912.94 2691.90 L916.48 2690.72 L920.03 2689.37 L923.57 2687.68 L927.11 2685.83 L930.66 2683.63 L934.20 2681.10 L937.74 2678.23 L941.29 2675.19 L944.83 2671.99 L948.38 2668.78 L951.92 2665.58 L955.46 2662.37 L959.01 2659.50 L962.55 2656.97 L966.09 2654.94 L969.64 2653.59 L973.18 2652.58 L976.73 2652.41 L980.27 2652.92 L983.81 2654.10 L987.36 2655.79 L990.90 2657.98 L994.44 2660.68 L997.99 2663.55 L1001.53 2666.76 L1005.08 2670.13 L1008.62 2673.34 L1012.16 2676.38 L1015.71 2679.41 L1019.25 2682.11 L1022.79 2684.48 L1026.34 2686.67 L1029.88 2688.36 L1033.43 2689.88 L1036.97 2691.23 L1040.51 2692.24 L1044.06 2693.08 L1047.60 2693.59 L1051.14 2694.09 L1054.69 2694.43 L1058.23 2694.77 L1061.78 2694.94 L1065.32 2694.94 L1068.86 2695.11 L1072.41 2694.94 L1075.95 2694.94 L1079.49 2694.77 L1083.04 2694.60 L1086.58 2694.09 L1090.13 2693.76 L1093.67 2693.08 L1097.21 2692.24 L1100.76 2691.06 L1104.30 2689.71 L1107.84 2687.85 L1111.39 2685.66 L1114.93 2682.96 L1118.47 2679.92 L1122.02 2676.21 L1125.56 2671.99 L1129.11 2667.09 L1132.65 2661.69 L1136.19 2655.62 L1139.74 2649.21 L1143.28 2642.29 L1146.83 2635.03 L1150.37 2627.61 L1153.91 2619.84 L1157.46 2612.25 L1161.00 2604.66 L1164.54 2597.40 L1168.09 2590.65 L1171.63 2584.24 L1175.18 2578.50 L1178.72 2573.44 L1182.26 2569.39 L1185.81 2566.18 L1189.35 2563.99 L1192.89 2562.81 L1196.44 2562.81 L1199.98 2563.99 L1203.53 2566.18 L1207.07 2569.56 L1210.61 2573.94 L1214.16 2579.34 L1217.70 2585.59 L1221.24 2592.51 L1224.79 2599.93 L1228.33 2607.86 L1231.88 2615.96 L1235.42 2624.06 L1238.96 2632.16 L1242.51 2639.76 L1246.05 2647.01 L1249.59 2653.76 L1253.14 2659.67 L1256.68 2664.73 L1260.22 2668.95 L1263.77 2672.16 L1267.31 2674.18 L1270.86 2675.03 L1274.40 2674.35 L1277.94 2672.33 L1281.49 2668.61 L1285.03 2663.04 L1288.58 2655.28 L1292.12 2645.33 L1295.66 2632.67 L1299.21 2617.14 L1302.75 2598.75 L1306.29 2576.98 L1309.84 2552.01 L1313.38 2523.49 L1316.93 2491.76 L1320.47 2456.83 L1324.01 2419.03 L1327.56 2378.70 L1331.10 2336.34 L1334.64 2292.47 L1338.19 2247.92 L1341.73 2203.37 L1345.28 2159.66 L1348.82 2117.14 L1352.36 2076.98 L1355.91 2039.34 L1359.45 2004.92 L1362.99 1974.04 L1366.54 1946.87 L1370.08 1923.41 L1373.63 1903.67 L1377.17 1887.13 L1380.71 1873.46 L1384.26 1861.99 L1387.80 1852.37 L1391.34 1843.59 L1394.89 1835.16 L1398.43 1826.21 L1401.98 1816.26 L1405.52 1804.44 L1409.06 1790.61 L1412.61 1774.07 L1416.15 1754.83 L1419.69 1732.73 L1423.24 1707.92 L1426.78 1680.58 L1430.33 1651.05 L1433.87 1619.83 L1437.41 1587.09 L1440.96 1553.85 L1444.50 1520.44 L1448.04 1487.36 L1451.59 1455.13 L1455.13 1424.42 L1458.68 1395.39 L1462.22 1368.39 L1465.76 1343.76 L1469.31 1321.65 L1472.85 1302.24 L1476.39 1285.37 L1479.94 1271.36 L1483.48 1259.89 L1487.03 1250.94 L1490.57 1244.19 L1494.11 1239.64 L1497.66 1236.77 L1501.20 1235.25 L1504.74 1234.58 L1508.29 1234.07 L1511.83 1233.39 L1515.38 1231.88 L1518.92 1229.01 L1522.46 1224.28 L1526.01 1217.36 L1529.55 1207.74 L1533.09 1195.43 L1536.64 1180.07 L1540.18 1161.84 L1543.73 1140.75 L1547.27 1116.96 L1550.81 1090.63 L1554.36 1061.78 L1557.90 1030.89 L1561.44 998.32 L1564.99 964.07 L1568.53 928.63 L1572.08 892.52 L1575.62 855.73 L1579.16 819.11 L1582.71 782.83 L1586.25 747.56 L1589.79 713.81 L1593.34 681.92 L1596.88 652.22 L1600.43 625.39 L1603.97 601.26 L1607.51 580.16 L1611.06 562.28 L1614.60 547.26 L1618.14 534.94 L1621.69 525.15 L1625.23 517.39 L1628.78 511.31 L1632.32 506.42 L1635.86 502.20 L1639.41 498.15 L1642.95 493.93 L1646.49 489.21 L1650.04 483.81 L1653.58 477.56 L1657.13 470.31 L1660.67 462.21 L1664.21 453.43 L1667.76 444.32 L1671.30 435.04 L1674.84 425.93 L1678.39 417.49 L1681.93 410.23 L1685.48 404.49 L1689.02 400.61 L1692.56 399.26 L1696.11 400.44 L1699.65 404.66 L1703.19 412.09 L1706.74 422.89 L1710.28 437.06 L1713.83 454.78 L1717.37 475.71 L1720.91 499.67 L1724.46 526.50 L1728.00 556.03 L1731.54 587.59 L1735.09 621.00 L1738.63 655.43 L1742.18 690.53 L1745.72 725.63 L1749.26 760.22 L1752.81 793.29 L1756.35 824.68 L1759.89 853.54 L1763.44 879.36 L1766.98 901.80 L1770.53 920.70 L1774.07 936.06 L1777.61 947.70 L1781.16 955.97 L1784.70 961.20 L1788.24 964.07 L1791.79 965.08 L1795.33 965.08 L1798.88 964.41 L1802.42 963.90 L1805.96 963.90 L1809.51 965.25 L1813.05 967.95 L1816.59 972.17 L1820.14 978.24 L1823.68 986.18 L1827.23 995.63 L1830.77 1006.43 L1834.31 1018.57 L1837.86 1031.91 L1841.40 1045.91 L1844.94 1060.76 L1848.49 1076.29 L1852.03 1092.49 L1855.58 1109.19 L1859.12 1126.57 L1862.66 1144.63 L1866.21 1163.53 L1869.75 1183.11 L1873.29 1203.53 L1876.84 1224.45 L1880.38 1246.22 L1883.93 1268.33 L1887.47 1290.60 L1891.01 1312.88 L1894.56 1334.98 L1898.10 1356.41 L1901.64 1377.00 L1905.19 1396.58 L1908.73 1415.31 L1912.28 1432.69 L1915.82 1449.23 L1919.36 1464.92 L1922.91 1480.11 L1926.45 1494.96 L1929.99 1509.98 L1933.54 1525.33 L1937.08 1541.70 L1940.63 1559.25 L1944.17 1578.15 L1947.71 1598.40 L1951.26 1620.34 L1954.80 1643.96 L1958.34 1668.77 L1961.89 1695.09 L1965.43 1722.43 L1968.98 1750.61 L1972.52 1779.47 L1976.06 1808.83 L1979.61 1838.70 L1983.15 1868.91 L1986.69 1899.45 L1990.24 1930.33 L1993.78 1961.72 L1997.33 1993.61 L2000.87 2026.01 L2004.41 2059.09 L2007.96 2092.67 L2011.50 2126.76 L2015.04 2161.01 L2018.59 2195.27 L2022.13 2229.19 L2025.68 2262.60 L2029.22 2294.83 L2032.76 2325.38 L2036.31 2354.06 L2039.85 2380.05 L2043.39 2403.34 L2046.94 2423.25 L2050.48 2439.62 L2054.03 2452.44 L2057.57 2461.73 L2061.11 2467.13 L2064.66 2469.32 L2068.20 2468.31 L2071.74 2464.43 L2075.29 2458.18 L2078.83 2450.08 L2082.38 2440.63 L2085.92 2430.17 L2089.46 2419.37 L2093.01 2408.40 L2096.55 2397.77 L2100.09 2387.81 L2103.64 2378.70 L2107.18 2370.60 L2110.73 2364.02 L2114.27 2358.79 L2117.81 2354.91 L2121.36 2352.88 L2124.90 2352.38 L2128.44 2353.73 L2131.99 2356.76 L2135.53 2361.66 L2139.07 2368.24 L2142.62 2376.68 L2146.16 2386.63 L2149.71 2398.28 L2153.25 2411.10 L2156.79 2425.28 L2160.34 2440.29 L2163.88 2455.99 L2167.43 2471.85 L2170.97 2487.54 L2174.51 2502.73 L2178.06 2517.07 L2181.60 2530.24 L2185.14 2541.54 L2188.69 2551.16 L2192.23 2558.42 L2195.78 2563.48 L2199.32 2566.35 L2202.86 2566.69 L2206.41 2565.00 L2209.95 2561.46 L2213.49 2556.56 L2217.04 2550.49 L2220.58 2543.91 L2224.13 2537.32 L2227.67 2531.42 L2231.21 2526.53 L2234.76 2522.98 L2238.30 2521.46 L2241.84 2522.14 L2245.39 2524.84 L2248.93 2529.90 L2252.48 2536.82 L2256.02 2545.76 L2259.56 2556.06 L2263.11 2567.36 L2266.65 2579.51 L2270.19 2591.66 L2273.74 2603.81 L2277.28 2615.12 L2280.82 2625.75 L2284.37 2635.20 L2287.91 2643.13 L2291.46 2649.88 L2295.00 2654.94 L2298.54 2658.83 L2302.09 2661.19 L2305.63 2662.54 L2309.18 2662.71 L2312.72 2662.20 L2316.26 2661.02 L2319.81 2659.33 L2323.35 2657.48 L2326.89 2655.79 L2330.44 2654.27 L2333.98 2652.92 L2337.53 2652.24 L2341.07 2652.08 L2344.61 2652.41 L2348.16 2653.43 L2351.70 2655.11 L2355.24 2657.14 L2358.79 2659.84 L2362.33 2662.71 L2365.88 2665.91 L2369.42 2669.12 L2372.96 2672.33 L2376.51 2675.53 L2380.05 2678.57 L2383.59 2681.27 L2387.14 2683.80 L2390.68 2685.99 L2394.23 2687.85 L2397.77 2689.54 L2401.31 2690.89 L2404.86 2691.90 L2408.40 2692.74 L2411.94 2693.59 L2415.49 2694.09 L2419.03 2694.43 L2422.57 2694.77 L2426.12 2694.94" stroke-linejoin="round" style="fill:none;stroke:#505050;stroke-width:9.72"/>
	<path d=" M530.55 2695.11 L534.43 2695.11 L538.31 2695.11 L542.19 2694.94 L546.08 2694.94 L549.96 2694.77 L553.84 2694.60 L557.72 2694.43 L561.60 2694.26 L565.48 2694.09 L569.36 2693.93 L573.24 2693.76 L577.13 2693.42 L581.01 2693.08 L584.89 2692.74 L588.77 2692.41 L592.65 2691.90 L596.53 2691.39 L600.41 2690.89 L604.29 2690.38 L608.17 2689.71 L612.06 2689.03 L615.94 2688.36 L619.65 2687.51 L623.53 2686.84 L627.41 2685.99 L631.29 2685.15 L635.17 2684.31 L639.06 2683.46 L642.94 2682.45 L646.82 2681.61 L650.70 2680.76 L654.58 2679.92 L658.46 2679.08 L662.34 2678.23 L666.23 2677.39 L670.11 2676.71 L673.99 2676.04 L677.87 2675.53 L681.75 2675.03 L685.63 2674.52 L689.51 2674.35 L693.39 2674.01 L697.28 2674.01 L701.16 2673.84 L705.04 2674.01 L708.92 2674.18 L712.80 2674.52 L716.68 2674.86 L720.56 2675.19 L724.44 2675.87 L728.16 2676.38 L732.04 2677.05 L735.92 2677.89 L739.80 2678.57 L743.68 2679.41 L747.56 2680.26 L751.44 2681.27 L755.33 2682.11 L759.21 2682.96 L763.09 2683.80 L766.97 2684.81 L770.85 2685.66 L774.73 2686.33 L778.61 2687.18 L782.49 2688.02 L786.38 2688.69 L790.26 2689.37 L794.14 2689.88 L798.02 2690.55 L801.90 2691.06 L805.78 2691.39 L809.66 2691.90 L813.54 2692.24 L817.43 2692.58 L821.31 2692.74 L825.19 2692.91 L829.07 2693.08 L832.95 2693.25 L836.66 2693.25 L840.54 2693.25 L844.43 2693.25 L848.31 2693.08 L852.19 2692.91 L856.07 2692.74 L859.95 2692.41 L863.83 2692.07 L867.71 2691.73 L871.59 2691.23 L875.48 2690.89 L879.36 2690.38 L883.24 2689.71 L887.12 2689.03 L891.00 2688.36 L894.88 2687.68 L898.76 2687.01 L902.64 2686.16 L906.53 2685.32 L910.41 2684.48 L914.29 2683.63 L918.17 2682.62 L922.05 2681.78 L925.93 2680.93 L929.81 2680.09 L933.69 2679.24 L937.58 2678.40 L941.46 2677.56 L945.17 2676.88 L949.05 2676.21 L952.93 2675.53 L956.81 2675.03 L960.69 2674.69 L964.58 2674.35 L968.46 2674.01 L972.34 2673.84 L976.22 2673.84 L980.10 2673.84 L983.98 2673.84 L987.86 2674.18 L991.74 2674.35 L995.63 2674.86 L999.51 2675.19 L1003.39 2675.70 L1007.27 2676.21 L1011.15 2676.88 L1015.03 2677.39 L1018.91 2678.06 L1022.79 2678.57 L1026.68 2679.24 L1030.56 2679.75 L1034.44 2680.26 L1038.32 2680.76 L1042.20 2681.10 L1046.08 2681.27 L1049.96 2681.44 L1053.68 2681.44 L1057.56 2681.27 L1061.44 2681.10 L1065.32 2680.59 L1069.20 2680.09 L1073.08 2679.24 L1076.96 2678.40 L1080.84 2677.22 L1084.72 2675.87 L1088.61 2674.35 L1092.49 2672.66 L1096.37 2670.81 L1100.25 2668.78 L1104.13 2666.59 L1108.01 2664.23 L1111.89 2661.69 L1115.78 2658.99 L1119.66 2656.13 L1123.54 2653.26 L1127.42 2650.39 L1131.30 2647.35 L1135.18 2644.31 L1139.06 2641.28 L1142.94 2638.24 L1146.83 2635.20 L1150.71 2632.33 L1154.59 2629.46 L1158.47 2626.76 L1162.18 2624.23 L1166.06 2621.87 L1169.94 2619.68 L1173.83 2617.65 L1177.71 2615.79 L1181.59 2614.11 L1185.47 2612.76 L1189.35 2611.57 L1193.23 2610.56 L1197.11 2609.72 L1200.99 2608.88 L1204.88 2608.20 L1208.76 2607.69 L1212.64 2607.19 L1216.52 2606.51 L1220.40 2605.84 L1224.28 2604.99 L1228.16 2603.98 L1232.04 2602.63 L1235.93 2600.78 L1239.81 2598.58 L1243.69 2595.88 L1247.57 2592.51 L1251.45 2588.46 L1255.33 2583.73 L1259.21 2577.99 L1263.09 2571.41 L1266.97 2563.82 L1270.86 2555.21 L1274.57 2545.59 L1278.45 2534.79 L1282.33 2522.81 L1286.21 2509.65 L1290.09 2495.48 L1293.97 2479.95 L1297.86 2463.41 L1301.74 2445.53 L1305.62 2426.79 L1309.50 2406.88 L1313.38 2385.96 L1317.26 2364.19 L1321.14 2341.41 L1325.03 2317.95 L1328.91 2293.82 L1332.79 2269.01 L1336.67 2243.70 L1340.55 2217.88 L1344.43 2191.89 L1348.31 2165.40 L1352.19 2138.74 L1356.08 2112.07 L1359.96 2085.24 L1363.84 2058.41 L1367.72 2031.75 L1371.60 2005.09 L1375.48 1978.59 L1379.36 1952.27 L1383.08 1926.11 L1386.96 1900.13 L1390.84 1874.48 L1394.72 1848.99 L1398.60 1823.68 L1402.48 1798.71 L1406.36 1773.90 L1410.24 1749.43 L1414.13 1725.13 L1418.01 1701.17 L1421.89 1677.38 L1425.77 1653.92 L1429.65 1630.80 L1433.53 1607.85 L1437.41 1585.07 L1441.29 1562.79 L1445.18 1540.69 L1449.06 1518.92 L1452.94 1497.49 L1456.82 1476.23 L1460.70 1455.47 L1464.58 1435.05 L1468.46 1414.80 L1472.34 1394.89 L1476.23 1375.31 L1480.11 1356.08 L1483.99 1336.84 L1487.87 1317.94 L1491.58 1299.21 L1495.46 1280.64 L1499.34 1262.08 L1503.23 1243.52 L1507.11 1224.96 L1510.99 1206.22 L1514.87 1187.49 L1518.75 1168.59 L1522.63 1149.36 L1526.51 1129.95 L1530.39 1110.38 L1534.28 1090.46 L1538.16 1070.21 L1542.04 1049.63 L1545.92 1028.70 L1549.80 1007.61 L1553.68 986.18 L1557.56 964.57 L1561.44 942.81 L1565.33 921.04 L1569.21 899.10 L1573.09 877.16 L1576.97 855.22 L1580.85 833.46 L1584.73 812.03 L1588.61 790.76 L1592.49 770.01 L1596.38 749.59 L1600.09 729.84 L1603.97 710.61 L1607.85 692.04 L1611.73 674.32 L1615.61 657.28 L1619.49 641.08 L1623.38 625.89 L1627.26 611.55 L1631.14 598.22 L1635.02 586.07 L1638.90 574.76 L1642.78 564.81 L1646.66 555.86 L1650.54 548.10 L1654.43 541.52 L1658.31 536.12 L1662.19 532.07 L1666.07 529.03 L1669.95 527.34 L1673.83 527.01 L1677.71 527.85 L1681.59 529.88 L1685.48 533.25 L1689.36 537.64 L1693.24 543.38 L1697.12 550.29 L1701.00 558.39 L1704.88 567.51 L1708.59 577.63 L1712.48 588.77 L1716.36 600.75 L1720.24 613.57 L1724.12 627.24 L1728.00 641.59 L1731.88 656.61 L1735.76 671.96 L1739.64 687.82 L1743.53 704.19 L1747.41 720.56 L1751.29 737.27 L1755.17 753.97 L1759.05 770.85 L1762.93 787.56 L1766.81 804.26 L1770.69 820.80 L1774.58 837.17 L1778.46 853.37 L1782.34 869.40 L1786.22 885.09 L1790.10 900.62 L1793.98 915.97 L1797.86 931.16 L1801.74 946.01 L1805.63 960.86 L1809.51 975.54 L1813.39 990.22 L1817.10 1004.91 L1820.98 1019.42 L1824.86 1034.27 L1828.74 1048.95 L1832.63 1063.97 L1836.51 1078.99 L1840.39 1094.34 L1844.27 1110.04 L1848.15 1125.90 L1852.03 1142.10 L1855.91 1158.47 L1859.79 1175.34 L1863.68 1192.56 L1867.56 1209.94 L1871.44 1227.83 L1875.32 1246.05 L1879.20 1264.78 L1883.08 1283.68 L1886.96 1303.09 L1890.84 1322.66 L1894.73 1342.74 L1898.61 1363.16 L1902.49 1383.92 L1906.37 1405.18 L1910.25 1426.61 L1914.13 1448.38 L1918.01 1470.66 L1921.89 1493.27 L1925.61 1516.22 L1929.49 1539.51 L1933.37 1563.13 L1937.25 1587.09 L1941.13 1611.39 L1945.01 1636.03 L1948.89 1661.18 L1952.78 1686.49 L1956.66 1711.97 L1960.54 1737.96 L1964.42 1763.94 L1968.30 1790.27 L1972.18 1816.76 L1976.06 1843.26 L1979.94 1869.92 L1983.83 1896.41 L1987.71 1922.91 L1991.59 1949.23 L1995.47 1975.39 L1999.35 2001.21 L2003.23 2026.52 L2007.11 2051.49 L2010.99 2075.79 L2014.88 2099.59 L2018.76 2122.71 L2022.64 2144.98 L2026.52 2166.41 L2030.40 2187.00 L2034.11 2206.57 L2037.99 2225.14 L2041.88 2242.69 L2045.76 2259.23 L2049.64 2274.58 L2053.52 2289.09 L2057.40 2302.43 L2061.28 2314.57 L2065.16 2325.88 L2069.04 2336.18 L2072.93 2345.63 L2076.81 2354.06 L2080.69 2361.82 L2084.57 2368.74 L2088.45 2375.16 L2092.33 2380.89 L2096.21 2386.29 L2100.09 2391.02 L2103.98 2395.57 L2107.86 2399.96 L2111.74 2404.01 L2115.62 2408.06 L2119.50 2411.94 L2123.38 2415.82 L2127.26 2419.88 L2131.14 2423.93 L2135.03 2427.98 L2138.91 2432.19 L2142.62 2436.75 L2146.50 2441.31 L2150.38 2446.03 L2154.26 2450.76 L2158.14 2455.82 L2162.03 2460.88 L2165.91 2466.11 L2169.79 2471.34 L2173.67 2476.57 L2177.55 2481.98 L2181.43 2487.21 L2185.31 2492.61 L2189.19 2497.84 L2193.07 2503.07 L2196.96 2508.13 L2200.84 2513.36 L2204.72 2518.26 L2208.60 2523.15 L2212.48 2528.04 L2216.36 2532.77 L2220.24 2537.32 L2224.13 2542.05 L2228.01 2546.44 L2231.89 2550.99 L2235.77 2555.38 L2239.65 2559.77 L2243.53 2564.16 L2247.41 2568.54 L2251.13 2572.76 L2255.01 2577.15 L2258.89 2581.37 L2262.77 2585.59 L2266.65 2589.81 L2270.53 2594.03 L2274.41 2598.24 L2278.29 2602.29 L2282.18 2606.34 L2286.06 2610.39 L2289.94 2614.28 L2293.82 2617.99 L2297.70 2621.70 L2301.58 2625.41 L2305.46 2628.79 L2309.34 2632.16 L2313.23 2635.37 L2317.11 2638.58 L2320.99 2641.61 L2324.87 2644.48 L2328.75 2647.18 L2332.63 2649.71 L2336.51 2652.24 L2340.39 2654.61 L2344.28 2656.97 L2348.16 2659.16 L2352.04 2661.19 L2355.92 2663.21 L2359.80 2665.07 L2363.51 2666.93 L2367.39 2668.78 L2371.28 2670.47 L2375.16 2672.16 L2379.04 2673.68 L2382.92 2675.19 L2386.80 2676.71 L2390.68 2678.06 L2394.56 2679.41 L2398.44 2680.59 L2402.32 2681.94 L2406.21 2682.96 L2410.09 2684.14 L2413.97 2685.15 L2417.85 2686.16 L2421.73 2687.01 L2425.61 2687.85 L2429.49 2688.69 L2433.38 2689.37 L2437.26 2690.04 L2441.14 2690.72 L2445.02 2691.23 L2448.90 2691.73 L2452.78 2692.24 L2456.66 2692.58 L2460.54 2693.08 L2464.43 2693.42 L2468.31 2693.59 L2472.02 2693.93 L2475.90 2694.09 L2479.78 2694.26 L2483.66 2694.43 L2487.54 2694.60 L2491.43 2694.77 L2495.31 2694.94 L2499.19 2694.94 L2503.07 2695.11 L2506.95 2695.11 L2510.83 2695.11" stroke-linejoin="round" style="fill:none;stroke:#000000;stroke-width:9.72"/>
	<line x1="459.34" y1="2766.66" x2="459.34" y2="113.40" style="stroke:#000000;stroke-width:6.48"/>
	<line x1="459.34" y1="2695.28" x2="414.45" y2="2695.28" style="stroke:#000000;stroke-width:6.48"/>
	<text x="391.84" y="2734.71" style="font-family:'Helvetica';font-size:112.56px;fill:#000000" text-anchor="end">0</text>
	<line x1="459.34" y1="1858.44" x2="414.45" y2="1858.44" style="stroke:#000000;stroke-width:6.48"/>
	<text x="391.84" y="1897.88" style="font-family:'Helvetica';font-size:112.56px;fill:#000000" text-anchor="end">2</text>
	<line x1="459.34" y1="1021.61" x2="414.45" y2="1021.61" style="stroke:#000000;stroke-width:6.48"/>
	<text x="391.84" y="1061.05" style="font-family:'Helvetica';font-size:112.56px;fill:#000000" text-anchor="end">4</text>
	<line x1="459.34" y1="184.61" x2="414.45" y2="184.61" style="stroke:#000000;stroke-width:6.48"/>
	<text x="391.84" y="224.05" style="font-family:'Helvetica';font-size:112.56px;fill:#000000" text-anchor="end">6</text>
	<text x="214.55" y="1439.94" style="font-family:'Helvetica';font-size:112.56px;fill:#000000" transform="rotate(-90 214.55,1439.94)" text-anchor="middle">Density</text>
	<line x1="459.34" y1="2766.66" x2="2828.42" y2="2766.66" style="stroke:#000000;stroke-width:6.48"/>
	<line x1="619.99" y1="2766.66" x2="619.99" y2="2811.54" style="stroke:#000000;stroke-width:6.48"/>
	<text x="619.99" y="2912.86" style="font-family:'Helvetica';font-size:112.56px;fill:#000000" text-anchor="middle">-.4</text>
	<line x1="1154.25" y1="2766.66" x2="1154.25" y2="2811.54" style="stroke:#000000;stroke-width:6.48"/>
	<text x="1154.25" y="2912.86" style="font-family:'Helvetica';font-size:112.56px;fill:#000000" text-anchor="middle">-.2</text>
	<line x1="1688.51" y1="2766.66" x2="1688.51" y2="2811.54" style="stroke:#000000;stroke-width:6.48"/>
	<text x="1688.51" y="2912.86" style="font-family:'Helvetica';font-size:112.56px;fill:#000000" text-anchor="middle">0</text>
	<line x1="2222.78" y1="2766.66" x2="2222.78" y2="2811.54" style="stroke:#000000;stroke-width:6.48"/>
	<text x="2222.78" y="2912.86" style="font-family:'Helvetica';font-size:112.56px;fill:#000000" text-anchor="middle">.2</text>
	<line x1="2757.04" y1="2766.66" x2="2757.04" y2="2811.54" style="stroke:#000000;stroke-width:6.48"/>
	<text x="2757.04" y="2912.86" style="font-family:'Helvetica';font-size:112.56px;fill:#000000" text-anchor="middle">.4</text>
	<text x="1643.79" y="3070.31" style="font-family:'Helvetica';font-size:112.56px;fill:#000000" text-anchor="middle">IV estimates</text>
	<rect x="2867.23" y="1335.15" width="2380.56" height="209.76" style="fill:#FFFFFF"/>
	<rect x="2870.47" y="1338.39" width="2374.08" height="203.28" style="fill:none;stroke:#FFFFFF;stroke-width:6.48"/>
	<line x1="2915.83" y1="1439.94" x2="3175.03" y2="1439.94" style="stroke:#A0A0A0;stroke-width:9.72"/>
	<line x1="3784.22" y1="1439.94" x2="4043.42" y2="1439.94" style="stroke:#505050;stroke-width:9.72"/>
	<line x1="4586.79" y1="1439.94" x2="4845.99" y2="1439.94" style="stroke:#000000;stroke-width:9.72"/>
	<text x="3242.53" y="1479.38" style="font-family:'Helvetica';font-size:112.56px;fill:#000000"> = .25</text>
	<text x="4110.92" y="1479.38" style="font-family:'Helvetica';font-size:112.56px;fill:#000000"> = .5</text>
	<text x="4913.49" y="1479.38" style="font-family:'Helvetica';font-size:112.56px;fill:#000000"> = 1</text>
</svg>
