<?xml version="1.0" encoding="UTF-8" standalone="no"?>
<!-- This is a Stata 17.0 generated SVG file (http://www.stata.com) -->

<svg version="1.1" width="600px" height="436px" viewBox="0 0 3960 2880" xmlns="http://www.w3.org/2000/svg" xmlns:xlink="http://www.w3.org/1999/xlink">
	<desc>Stata Graph - Graph</desc>
	<rect x="0" y="0" width="3960" height="2880" style="fill:#EAF2F3;stroke:none"/>
	<rect x="0.00" y="0.00" width="3959.88" height="2880.00" style="fill:#FFFFFF"/>
	<rect x="2.88" y="2.88" width="3954.12" height="2874.24" style="fill:none;stroke:#FFFFFF;stroke-width:5.76"/>
	<rect x="370.14" y="100.86" width="3488.88" height="2132.77" style="fill:#FFFFFF"/>
	<rect x="373.02" y="103.74" width="3483.12" height="2127.01" style="fill:none;stroke:#FFFFFF;stroke-width:5.76"/>
	<line x1="370.14" y1="2170.27" x2="3859.02" y2="2170.27" style="stroke:#EAF2F3;stroke-width:8.64"/>
	<line x1="370.14" y1="1782.30" x2="3859.02" y2="1782.30" style="stroke:#EAF2F3;stroke-width:8.64"/>
	<line x1="370.14" y1="1394.33" x2="3859.02" y2="1394.33" style="stroke:#EAF2F3;stroke-width:8.64"/>
	<line x1="370.14" y1="1006.24" x2="3859.02" y2="1006.24" style="stroke:#EAF2F3;stroke-width:8.64"/>
	<line x1="370.14" y1="618.27" x2="3859.02" y2="618.27" style="stroke:#EAF2F3;stroke-width:8.64"/>
	<line x1="370.14" y1="230.18" x2="3859.02" y2="230.18" style="stroke:#EAF2F3;stroke-width:8.64"/>
	<defs>
		<path id="path_mBoIHZXx" d="M683.60 1433.19 L683.60 1433.19 L711.69 1422.43 L739.78 1411.78 L767.75 1401.14 L795.84 1390.62 L823.93 1380.10 L851.90 1369.71 L879.99 1359.31 L908.08 1349.04 L936.05 1338.89 L964.14 1328.75 L992.23 1318.72 L1020.20 1308.82 L1048.29 1299.04 L1076.38 1289.39 L1104.47 1279.74 L1132.44 1270.33 L1160.53 1260.93 L1188.62 1251.65 L1216.59 1242.37 L1244.68 1233.33 L1272.77 1224.30 L1300.74 1215.51 L1328.83 1206.72 L1356.92 1197.94 L1384.89 1189.27 L1412.98 1180.74 L1441.07 1172.32 L1469.04 1163.91 L1497.13 1155.49 L1525.22 1147.20 L1553.31 1139.03 L1581.28 1130.74 L1609.37 1122.70 L1637.46 1114.53 L1665.43 1106.48 L1693.52 1098.44 L1721.61 1090.40 L1749.58 1082.48 L1777.67 1074.55 L1805.76 1066.63 L1833.73 1058.71 L1861.82 1050.92 L1889.91 1043.00 L1918.00 1035.20 L1945.97 1027.40 L1974.06 1019.61 L2002.15 1011.81 L2030.12 1004.14 L2058.21 996.34 L2086.30 988.67 L2114.27 980.87 L2142.36 973.20 L2170.45 965.53 L2198.42 957.85 L2226.51 950.18 L2254.60 942.51 L2282.57 934.84 L2310.66 927.16 L2338.75 919.49 L2366.84 911.82 L2394.81 904.27 L2422.90 896.60 L2450.99 889.05 L2478.96 881.38 L2507.05 873.83 L2535.14 866.15 L2563.11 858.60 L2591.20 850.93 L2619.29 843.38 L2647.26 835.83 L2675.35 828.16 L2703.44 820.61 L2731.41 813.06 L2759.50 805.51 L2787.59 797.84 L2815.68 790.29 L2843.65 782.74 L2871.74 775.19 L2899.83 767.65 L2927.80 760.10 L2955.89 752.55 L2983.98 745.00 L3011.95 737.45 L3040.04 729.90 L3068.13 722.35 L3096.10 714.80 L3124.19 707.25 L3152.28 699.70 L3180.38 692.16 L3208.34 684.61 L3236.43 677.06 L3264.53 669.51 L3292.49 662.08 L3320.58 654.53 L3348.68 646.99 L3376.64 639.44 L3404.73 631.89 L3432.83 624.34 L3460.79 616.91 L3460.79 274.61 L3432.83 286.12 L3404.73 297.50 L3376.64 308.89 L3348.68 320.40 L3320.58 331.78 L3292.49 343.17 L3264.53 354.68 L3236.43 366.06 L3208.34 377.45 L3180.38 388.83 L3152.28 400.34 L3124.19 411.73 L3096.10 423.11 L3068.13 434.50 L3040.04 445.89 L3011.95 457.39 L2983.98 468.78 L2955.89 480.17 L2927.80 491.55 L2899.83 502.94 L2871.74 514.32 L2843.65 525.71 L2815.68 537.09 L2787.59 548.48 L2759.50 559.86 L2731.41 571.25 L2703.44 582.63 L2675.35 594.02 L2647.26 605.40 L2619.29 616.79 L2591.20 628.05 L2563.11 639.44 L2535.14 650.82 L2507.05 662.21 L2478.96 673.47 L2450.99 684.85 L2422.90 696.12 L2394.81 707.50 L2366.84 718.76 L2338.75 730.15 L2310.66 741.41 L2282.57 752.67 L2254.60 764.06 L2226.51 775.32 L2198.42 786.58 L2170.45 797.84 L2142.36 809.10 L2114.27 820.36 L2086.30 831.63 L2058.21 842.76 L2030.12 854.03 L2002.15 865.16 L1974.06 876.42 L1945.97 887.56 L1918.00 898.70 L1889.91 909.84 L1861.82 920.98 L1833.73 931.99 L1805.76 943.13 L1777.67 954.14 L1749.58 965.16 L1721.61 976.17 L1693.52 987.06 L1665.43 998.07 L1637.46 1008.97 L1609.37 1019.73 L1581.28 1030.62 L1553.31 1041.27 L1525.22 1052.03 L1497.13 1062.67 L1469.04 1073.32 L1441.07 1083.84 L1412.98 1094.23 L1384.89 1104.75 L1356.92 1115.02 L1328.83 1125.29 L1300.74 1135.44 L1272.77 1145.47 L1244.68 1155.49 L1216.59 1165.27 L1188.62 1175.04 L1160.53 1184.70 L1132.44 1194.35 L1104.47 1203.75 L1076.38 1213.16 L1048.29 1222.44 L1020.20 1231.47 L992.23 1240.63 L964.14 1249.54 L936.05 1258.33 L908.08 1267.12 L879.99 1275.78 L851.90 1284.44 L823.93 1292.98 L795.84 1301.40 L767.75 1309.81 L739.78 1318.23 L711.69 1326.39 L683.60 1334.69 L683.60 1433.19 Z" stroke-linejoin="round"/>
	</defs>
	<defs>
		<clipPath id="clipPath_remcLyBq">
			<use xlink:href="#path_mBoIHZXx"/>
		</clipPath>
	</defs>
	<use xlink:href="#path_mBoIHZXx" style="stroke:none;fill:#E6E6E6"/>
	<use xlink:href="#path_mBoIHZXx" style="fill:none;stroke:#C0C0C0;stroke-width:8.64" clip-path="url(#clipPath_remcLyBq)"/>
	<path d=" M683.60 1383.94 L686.19 1383.07 L721.22 1371.32 L754.88 1359.93 L758.84 1358.57 L760.20 1358.07 L760.20 1358.07 L768.24 1355.35 L795.22 1346.32 L801.90 1343.97 L803.26 1343.60 L826.16 1335.80 L835.56 1332.58 L835.56 1332.58 L836.92 1332.21 L840.88 1330.85 L851.65 1327.14 L851.65 1327.14 L854.37 1326.27 L858.45 1324.91 L878.63 1318.10 L885.31 1315.87 L896.07 1312.16 L897.44 1311.79 L917.61 1304.98 L922.93 1303.13 L937.78 1298.05 L947.18 1294.96 L952.50 1293.10 L959.31 1290.88 L960.55 1290.38 L1019.82 1270.46 L1031.83 1266.37 L1034.55 1265.38 L1041.36 1263.16 L1046.68 1261.30 L1080.34 1249.91 L1091.10 1246.33 L1104.47 1241.75 L1116.60 1237.66 L1122.04 1235.93 L1143.57 1228.63 L1191.96 1212.29 L1226.86 1200.41 L1260.52 1189.03 L1296.78 1176.78 L1307.54 1173.19 L1393.67 1144.10 L1419.17 1135.44 L1464.95 1119.97 L1525.47 1099.55 L1550.96 1090.89 L1583.26 1080.00 L1759.48 1020.47 L1815.91 1001.42 L2025.79 930.63 L2028.51 929.64 L2396.91 805.14 L2586.62 741.16 L2678.07 710.22 L3404.24 464.94 L3460.79 445.89" stroke-linejoin="round" style="fill:none;stroke:#000000;stroke-width:8.64"/>
	<line x1="858.45" y1="1338.15" x2="858.45" y2="991.39" style="stroke:#000000;stroke-width:4.32"/>
	<line x1="850.91" y1="991.39" x2="865.88" y2="991.39" stroke-linecap="round" style="stroke:#000000;stroke-width:4.32"/>
	<line x1="850.91" y1="1338.15" x2="865.88" y2="1338.15" stroke-linecap="round" style="stroke:#000000;stroke-width:4.32"/>
	<line x1="2025.79" y1="1261.67" x2="2025.79" y2="738.81" style="stroke:#000000;stroke-width:4.32"/>
	<line x1="2018.24" y1="738.81" x2="2033.21" y2="738.81" stroke-linecap="round" style="stroke:#000000;stroke-width:4.32"/>
	<line x1="2018.24" y1="1261.67" x2="2033.21" y2="1261.67" stroke-linecap="round" style="stroke:#000000;stroke-width:4.32"/>
	<line x1="1116.72" y1="1424.16" x2="1116.72" y2="850.68" style="stroke:#000000;stroke-width:4.32"/>
	<line x1="1109.17" y1="850.68" x2="1124.15" y2="850.68" stroke-linecap="round" style="stroke:#000000;stroke-width:4.32"/>
	<line x1="1109.17" y1="1424.16" x2="1124.15" y2="1424.16" stroke-linecap="round" style="stroke:#000000;stroke-width:4.32"/>
	<line x1="795.22" y1="2022.88" x2="795.22" y2="1695.80" style="stroke:#000000;stroke-width:4.32"/>
	<line x1="787.67" y1="1695.80" x2="802.64" y2="1695.80" stroke-linecap="round" style="stroke:#000000;stroke-width:4.32"/>
	<line x1="787.67" y1="2022.88" x2="802.64" y2="2022.88" stroke-linecap="round" style="stroke:#000000;stroke-width:4.32"/>
	<line x1="1034.67" y1="1610.90" x2="1034.67" y2="1291.50" style="stroke:#000000;stroke-width:4.32"/>
	<line x1="1027.13" y1="1291.50" x2="1042.10" y2="1291.50" stroke-linecap="round" style="stroke:#000000;stroke-width:4.32"/>
	<line x1="1027.13" y1="1610.90" x2="1042.10" y2="1610.90" stroke-linecap="round" style="stroke:#000000;stroke-width:4.32"/>
	<line x1="1551.08" y1="1018.99" x2="1551.08" y2="612.95" style="stroke:#000000;stroke-width:4.32"/>
	<line x1="1543.53" y1="612.95" x2="1558.51" y2="612.95" stroke-linecap="round" style="stroke:#000000;stroke-width:4.32"/>
	<line x1="1543.53" y1="1018.99" x2="1558.51" y2="1018.99" stroke-linecap="round" style="stroke:#000000;stroke-width:4.32"/>
	<line x1="1226.98" y1="1309.07" x2="1226.98" y2="919.12" style="stroke:#000000;stroke-width:4.32"/>
	<line x1="1219.43" y1="919.12" x2="1234.41" y2="919.12" stroke-linecap="round" style="stroke:#000000;stroke-width:4.32"/>
	<line x1="1219.43" y1="1309.07" x2="1234.41" y2="1309.07" stroke-linecap="round" style="stroke:#000000;stroke-width:4.32"/>
	<line x1="897.44" y1="1516.11" x2="897.44" y2="1057.23" style="stroke:#000000;stroke-width:4.32"/>
	<line x1="889.89" y1="1057.23" x2="904.86" y2="1057.23" stroke-linecap="round" style="stroke:#000000;stroke-width:4.32"/>
	<line x1="889.89" y1="1516.11" x2="904.86" y2="1516.11" stroke-linecap="round" style="stroke:#000000;stroke-width:4.32"/>
	<line x1="937.78" y1="1180.24" x2="937.78" y2="880.14" style="stroke:#000000;stroke-width:4.32"/>
	<line x1="930.23" y1="880.14" x2="945.20" y2="880.14" stroke-linecap="round" style="stroke:#000000;stroke-width:4.32"/>
	<line x1="930.23" y1="1180.24" x2="945.20" y2="1180.24" stroke-linecap="round" style="stroke:#000000;stroke-width:4.32"/>
	<line x1="836.92" y1="1615.73" x2="836.92" y2="1326.77" style="stroke:#000000;stroke-width:4.32"/>
	<line x1="829.37" y1="1326.77" x2="844.35" y2="1326.77" stroke-linecap="round" style="stroke:#000000;stroke-width:4.32"/>
	<line x1="829.37" y1="1615.73" x2="844.35" y2="1615.73" stroke-linecap="round" style="stroke:#000000;stroke-width:4.32"/>
	<line x1="760.32" y1="1822.65" x2="760.32" y2="1491.11" style="stroke:#000000;stroke-width:4.32"/>
	<line x1="752.77" y1="1491.11" x2="767.75" y2="1491.11" stroke-linecap="round" style="stroke:#000000;stroke-width:4.32"/>
	<line x1="752.77" y1="1822.65" x2="767.75" y2="1822.65" stroke-linecap="round" style="stroke:#000000;stroke-width:4.32"/>
	<line x1="896.07" y1="1446.93" x2="896.07" y2="1119.97" style="stroke:#000000;stroke-width:4.32"/>
	<line x1="888.53" y1="1119.97" x2="903.50" y2="1119.97" stroke-linecap="round" style="stroke:#000000;stroke-width:4.32"/>
	<line x1="888.53" y1="1446.93" x2="903.50" y2="1446.93" stroke-linecap="round" style="stroke:#000000;stroke-width:4.32"/>
	<line x1="1104.59" y1="1570.31" x2="1104.59" y2="1006.00" style="stroke:#000000;stroke-width:4.32"/>
	<line x1="1097.04" y1="1006.00" x2="1112.02" y2="1006.00" stroke-linecap="round" style="stroke:#000000;stroke-width:4.32"/>
	<line x1="1097.04" y1="1570.31" x2="1112.02" y2="1570.31" stroke-linecap="round" style="stroke:#000000;stroke-width:4.32"/>
	<line x1="1419.29" y1="1260.56" x2="1419.29" y2="971.96" style="stroke:#000000;stroke-width:4.32"/>
	<line x1="1411.74" y1="971.96" x2="1426.71" y2="971.96" stroke-linecap="round" style="stroke:#000000;stroke-width:4.32"/>
	<line x1="1411.74" y1="1260.56" x2="1426.71" y2="1260.56" stroke-linecap="round" style="stroke:#000000;stroke-width:4.32"/>
	<line x1="2028.51" y1="1236.80" x2="2028.51" y2="913.30" style="stroke:#000000;stroke-width:4.32"/>
	<line x1="2020.96" y1="913.30" x2="2035.94" y2="913.30" stroke-linecap="round" style="stroke:#000000;stroke-width:4.32"/>
	<line x1="2020.96" y1="1236.80" x2="2035.94" y2="1236.80" stroke-linecap="round" style="stroke:#000000;stroke-width:4.32"/>
	<line x1="1080.34" y1="1361.54" x2="1080.34" y2="967.88" style="stroke:#000000;stroke-width:4.32"/>
	<line x1="1072.79" y1="967.88" x2="1087.76" y2="967.88" stroke-linecap="round" style="stroke:#000000;stroke-width:4.32"/>
	<line x1="1072.79" y1="1361.54" x2="1087.76" y2="1361.54" stroke-linecap="round" style="stroke:#000000;stroke-width:4.32"/>
	<line x1="1759.60" y1="1411.29" x2="1759.60" y2="905.01" style="stroke:#000000;stroke-width:4.32"/>
	<line x1="1752.05" y1="905.01" x2="1767.03" y2="905.01" stroke-linecap="round" style="stroke:#000000;stroke-width:4.32"/>
	<line x1="1752.05" y1="1411.29" x2="1767.03" y2="1411.29" stroke-linecap="round" style="stroke:#000000;stroke-width:4.32"/>
	<line x1="885.31" y1="1555.21" x2="885.31" y2="1148.68" style="stroke:#000000;stroke-width:4.32"/>
	<line x1="877.76" y1="1148.68" x2="892.73" y2="1148.68" stroke-linecap="round" style="stroke:#000000;stroke-width:4.32"/>
	<line x1="877.76" y1="1555.21" x2="892.73" y2="1555.21" stroke-linecap="round" style="stroke:#000000;stroke-width:4.32"/>
	<line x1="1122.04" y1="1373.79" x2="1122.04" y2="1066.88" style="stroke:#000000;stroke-width:4.32"/>
	<line x1="1114.49" y1="1066.88" x2="1129.47" y2="1066.88" stroke-linecap="round" style="stroke:#000000;stroke-width:4.32"/>
	<line x1="1114.49" y1="1373.79" x2="1129.47" y2="1373.79" stroke-linecap="round" style="stroke:#000000;stroke-width:4.32"/>
	<line x1="1260.64" y1="1423.54" x2="1260.64" y2="699.83" style="stroke:#000000;stroke-width:4.32"/>
	<line x1="1253.09" y1="699.83" x2="1268.07" y2="699.83" stroke-linecap="round" style="stroke:#000000;stroke-width:4.32"/>
	<line x1="1253.09" y1="1423.54" x2="1268.07" y2="1423.54" stroke-linecap="round" style="stroke:#000000;stroke-width:4.32"/>
	<line x1="1816.03" y1="1613.50" x2="1816.03" y2="512.09" style="stroke:#000000;stroke-width:4.32"/>
	<line x1="1808.48" y1="512.09" x2="1823.46" y2="512.09" stroke-linecap="round" style="stroke:#000000;stroke-width:4.32"/>
	<line x1="1808.48" y1="1613.50" x2="1823.46" y2="1613.50" stroke-linecap="round" style="stroke:#000000;stroke-width:4.32"/>
	<line x1="1307.67" y1="1273.18" x2="1307.67" y2="939.79" style="stroke:#000000;stroke-width:4.32"/>
	<line x1="1300.12" y1="939.79" x2="1315.09" y2="939.79" stroke-linecap="round" style="stroke:#000000;stroke-width:4.32"/>
	<line x1="1300.12" y1="1273.18" x2="1315.09" y2="1273.18" stroke-linecap="round" style="stroke:#000000;stroke-width:4.32"/>
	<line x1="721.34" y1="1447.05" x2="721.34" y2="1152.52" style="stroke:#000000;stroke-width:4.32"/>
	<line x1="713.79" y1="1152.52" x2="728.76" y2="1152.52" stroke-linecap="round" style="stroke:#000000;stroke-width:4.32"/>
	<line x1="713.79" y1="1447.05" x2="728.76" y2="1447.05" stroke-linecap="round" style="stroke:#000000;stroke-width:4.32"/>
	<line x1="952.63" y1="1469.45" x2="952.63" y2="1107.23" style="stroke:#000000;stroke-width:4.32"/>
	<line x1="945.08" y1="1107.23" x2="960.05" y2="1107.23" stroke-linecap="round" style="stroke:#000000;stroke-width:4.32"/>
	<line x1="945.08" y1="1469.45" x2="960.05" y2="1469.45" stroke-linecap="round" style="stroke:#000000;stroke-width:4.32"/>
	<line x1="851.77" y1="1550.14" x2="851.77" y2="1253.13" style="stroke:#000000;stroke-width:4.32"/>
	<line x1="844.22" y1="1253.13" x2="859.20" y2="1253.13" stroke-linecap="round" style="stroke:#000000;stroke-width:4.32"/>
	<line x1="844.22" y1="1550.14" x2="859.20" y2="1550.14" stroke-linecap="round" style="stroke:#000000;stroke-width:4.32"/>
	<line x1="1091.10" y1="1451.39" x2="1091.10" y2="1156.97" style="stroke:#000000;stroke-width:4.32"/>
	<line x1="1083.56" y1="1156.97" x2="1098.53" y2="1156.97" stroke-linecap="round" style="stroke:#000000;stroke-width:4.32"/>
	<line x1="1083.56" y1="1451.39" x2="1098.53" y2="1451.39" stroke-linecap="round" style="stroke:#000000;stroke-width:4.32"/>
	<line x1="683.60" y1="1612.14" x2="683.60" y2="1312.66" style="stroke:#000000;stroke-width:4.32"/>
	<line x1="676.05" y1="1312.66" x2="691.02" y2="1312.66" stroke-linecap="round" style="stroke:#000000;stroke-width:4.32"/>
	<line x1="676.05" y1="1612.14" x2="691.02" y2="1612.14" stroke-linecap="round" style="stroke:#000000;stroke-width:4.32"/>
	<line x1="835.56" y1="1472.42" x2="835.56" y2="1156.60" style="stroke:#000000;stroke-width:4.32"/>
	<line x1="828.01" y1="1156.60" x2="842.99" y2="1156.60" stroke-linecap="round" style="stroke:#000000;stroke-width:4.32"/>
	<line x1="828.01" y1="1472.42" x2="842.99" y2="1472.42" stroke-linecap="round" style="stroke:#000000;stroke-width:4.32"/>
	<line x1="835.56" y1="1472.05" x2="835.56" y2="1121.95" style="stroke:#000000;stroke-width:4.32"/>
	<line x1="828.01" y1="1121.95" x2="842.99" y2="1121.95" stroke-linecap="round" style="stroke:#000000;stroke-width:4.32"/>
	<line x1="828.01" y1="1472.05" x2="842.99" y2="1472.05" stroke-linecap="round" style="stroke:#000000;stroke-width:4.32"/>
	<line x1="1296.90" y1="1328.25" x2="1296.90" y2="1011.44" style="stroke:#000000;stroke-width:4.32"/>
	<line x1="1289.35" y1="1011.44" x2="1304.33" y2="1011.44" stroke-linecap="round" style="stroke:#000000;stroke-width:4.32"/>
	<line x1="1289.35" y1="1328.25" x2="1304.33" y2="1328.25" stroke-linecap="round" style="stroke:#000000;stroke-width:4.32"/>
	<line x1="917.61" y1="1448.42" x2="917.61" y2="1127.27" style="stroke:#000000;stroke-width:4.32"/>
	<line x1="910.06" y1="1127.27" x2="925.03" y2="1127.27" stroke-linecap="round" style="stroke:#000000;stroke-width:4.32"/>
	<line x1="910.06" y1="1448.42" x2="925.03" y2="1448.42" stroke-linecap="round" style="stroke:#000000;stroke-width:4.32"/>
	<line x1="878.63" y1="1764.98" x2="878.63" y2="1331.22" style="stroke:#000000;stroke-width:4.32"/>
	<line x1="871.08" y1="1331.22" x2="886.05" y2="1331.22" stroke-linecap="round" style="stroke:#000000;stroke-width:4.32"/>
	<line x1="871.08" y1="1764.98" x2="886.05" y2="1764.98" stroke-linecap="round" style="stroke:#000000;stroke-width:4.32"/>
	<line x1="754.88" y1="1313.40" x2="754.88" y2="1010.08" style="stroke:#000000;stroke-width:4.32"/>
	<line x1="747.33" y1="1010.08" x2="762.30" y2="1010.08" stroke-linecap="round" style="stroke:#000000;stroke-width:4.32"/>
	<line x1="747.33" y1="1313.40" x2="762.30" y2="1313.40" stroke-linecap="round" style="stroke:#000000;stroke-width:4.32"/>
	<line x1="802.02" y1="1528.98" x2="802.02" y2="1219.35" style="stroke:#000000;stroke-width:4.32"/>
	<line x1="794.48" y1="1219.35" x2="809.45" y2="1219.35" stroke-linecap="round" style="stroke:#000000;stroke-width:4.32"/>
	<line x1="794.48" y1="1528.98" x2="809.45" y2="1528.98" stroke-linecap="round" style="stroke:#000000;stroke-width:4.32"/>
	<line x1="1191.96" y1="1195.83" x2="1191.96" y2="911.82" style="stroke:#000000;stroke-width:4.32"/>
	<line x1="1184.41" y1="911.82" x2="1199.39" y2="911.82" stroke-linecap="round" style="stroke:#000000;stroke-width:4.32"/>
	<line x1="1184.41" y1="1195.83" x2="1199.39" y2="1195.83" stroke-linecap="round" style="stroke:#000000;stroke-width:4.32"/>
	<line x1="758.96" y1="1448.17" x2="758.96" y2="1146.95" style="stroke:#000000;stroke-width:4.32"/>
	<line x1="751.41" y1="1146.95" x2="766.38" y2="1146.95" stroke-linecap="round" style="stroke:#000000;stroke-width:4.32"/>
	<line x1="751.41" y1="1448.17" x2="766.38" y2="1448.17" stroke-linecap="round" style="stroke:#000000;stroke-width:4.32"/>
	<line x1="1041.36" y1="1402.87" x2="1041.36" y2="911.20" style="stroke:#000000;stroke-width:4.32"/>
	<line x1="1033.81" y1="911.20" x2="1048.78" y2="911.20" stroke-linecap="round" style="stroke:#000000;stroke-width:4.32"/>
	<line x1="1033.81" y1="1402.87" x2="1048.78" y2="1402.87" stroke-linecap="round" style="stroke:#000000;stroke-width:4.32"/>
	<line x1="768.36" y1="1487.15" x2="768.36" y2="1195.71" style="stroke:#000000;stroke-width:4.32"/>
	<line x1="760.82" y1="1195.71" x2="775.79" y2="1195.71" stroke-linecap="round" style="stroke:#000000;stroke-width:4.32"/>
	<line x1="760.82" y1="1487.15" x2="775.79" y2="1487.15" stroke-linecap="round" style="stroke:#000000;stroke-width:4.32"/>
	<line x1="947.18" y1="1608.06" x2="947.18" y2="1282.34" style="stroke:#000000;stroke-width:4.32"/>
	<line x1="939.63" y1="1282.34" x2="954.61" y2="1282.34" stroke-linecap="round" style="stroke:#000000;stroke-width:4.32"/>
	<line x1="939.63" y1="1608.06" x2="954.61" y2="1608.06" stroke-linecap="round" style="stroke:#000000;stroke-width:4.32"/>
	<line x1="1143.57" y1="1298.18" x2="1143.57" y2="990.77" style="stroke:#000000;stroke-width:4.32"/>
	<line x1="1136.03" y1="990.77" x2="1151.00" y2="990.77" stroke-linecap="round" style="stroke:#000000;stroke-width:4.32"/>
	<line x1="1136.03" y1="1298.18" x2="1151.00" y2="1298.18" stroke-linecap="round" style="stroke:#000000;stroke-width:4.32"/>
	<line x1="1031.95" y1="1608.68" x2="1031.95" y2="1053.15" style="stroke:#000000;stroke-width:4.32"/>
	<line x1="1024.40" y1="1053.15" x2="1039.38" y2="1053.15" stroke-linecap="round" style="stroke:#000000;stroke-width:4.32"/>
	<line x1="1024.40" y1="1608.68" x2="1039.38" y2="1608.68" stroke-linecap="round" style="stroke:#000000;stroke-width:4.32"/>
	<line x1="854.37" y1="1357.33" x2="854.37" y2="867.39" style="stroke:#000000;stroke-width:4.32"/>
	<line x1="846.82" y1="867.39" x2="861.80" y2="867.39" stroke-linecap="round" style="stroke:#000000;stroke-width:4.32"/>
	<line x1="846.82" y1="1357.33" x2="861.80" y2="1357.33" stroke-linecap="round" style="stroke:#000000;stroke-width:4.32"/>
	<line x1="1525.59" y1="1159.33" x2="1525.59" y2="841.16" style="stroke:#000000;stroke-width:4.32"/>
	<line x1="1518.04" y1="841.16" x2="1533.02" y2="841.16" stroke-linecap="round" style="stroke:#000000;stroke-width:4.32"/>
	<line x1="1518.04" y1="1159.33" x2="1533.02" y2="1159.33" stroke-linecap="round" style="stroke:#000000;stroke-width:4.32"/>
	<line x1="3460.79" y1="895.48" x2="3460.79" y2="466.55" style="stroke:#000000;stroke-width:4.32"/>
	<line x1="3453.24" y1="466.55" x2="3468.22" y2="466.55" stroke-linecap="round" style="stroke:#000000;stroke-width:4.32"/>
	<line x1="3453.24" y1="895.48" x2="3468.22" y2="895.48" stroke-linecap="round" style="stroke:#000000;stroke-width:4.32"/>
	<line x1="803.26" y1="1811.63" x2="803.26" y2="1524.15" style="stroke:#000000;stroke-width:4.32"/>
	<line x1="795.71" y1="1524.15" x2="810.69" y2="1524.15" stroke-linecap="round" style="stroke:#000000;stroke-width:4.32"/>
	<line x1="795.71" y1="1811.63" x2="810.69" y2="1811.63" stroke-linecap="round" style="stroke:#000000;stroke-width:4.32"/>
	<line x1="959.31" y1="1538.26" x2="959.31" y2="1128.26" style="stroke:#000000;stroke-width:4.32"/>
	<line x1="951.76" y1="1128.26" x2="966.74" y2="1128.26" stroke-linecap="round" style="stroke:#000000;stroke-width:4.32"/>
	<line x1="951.76" y1="1538.26" x2="966.74" y2="1538.26" stroke-linecap="round" style="stroke:#000000;stroke-width:4.32"/>
	<line x1="760.32" y1="1369.21" x2="760.32" y2="1091.88" style="stroke:#000000;stroke-width:4.32"/>
	<line x1="752.77" y1="1091.88" x2="767.75" y2="1091.88" stroke-linecap="round" style="stroke:#000000;stroke-width:4.32"/>
	<line x1="752.77" y1="1369.21" x2="767.75" y2="1369.21" stroke-linecap="round" style="stroke:#000000;stroke-width:4.32"/>
	<line x1="923.05" y1="1375.15" x2="923.05" y2="1086.31" style="stroke:#000000;stroke-width:4.32"/>
	<line x1="915.50" y1="1086.31" x2="930.48" y2="1086.31" stroke-linecap="round" style="stroke:#000000;stroke-width:4.32"/>
	<line x1="915.50" y1="1375.15" x2="930.48" y2="1375.15" stroke-linecap="round" style="stroke:#000000;stroke-width:4.32"/>
	<line x1="2397.04" y1="1063.05" x2="2397.04" y2="682.63" style="stroke:#000000;stroke-width:4.32"/>
	<line x1="2389.49" y1="682.63" x2="2404.46" y2="682.63" stroke-linecap="round" style="stroke:#000000;stroke-width:4.32"/>
	<line x1="2389.49" y1="1063.05" x2="2404.46" y2="1063.05" stroke-linecap="round" style="stroke:#000000;stroke-width:4.32"/>
	<line x1="1464.95" y1="1431.09" x2="1464.95" y2="854.89" style="stroke:#000000;stroke-width:4.32"/>
	<line x1="1457.40" y1="854.89" x2="1472.38" y2="854.89" stroke-linecap="round" style="stroke:#000000;stroke-width:4.32"/>
	<line x1="1457.40" y1="1431.09" x2="1472.38" y2="1431.09" stroke-linecap="round" style="stroke:#000000;stroke-width:4.32"/>
	<line x1="2586.62" y1="823.83" x2="2586.62" y2="475.71" style="stroke:#000000;stroke-width:4.32"/>
	<line x1="2579.07" y1="475.71" x2="2594.05" y2="475.71" stroke-linecap="round" style="stroke:#000000;stroke-width:4.32"/>
	<line x1="2579.07" y1="823.83" x2="2594.05" y2="823.83" stroke-linecap="round" style="stroke:#000000;stroke-width:4.32"/>
	<line x1="1019.82" y1="1372.93" x2="1019.82" y2="1084.95" style="stroke:#000000;stroke-width:4.32"/>
	<line x1="1012.28" y1="1084.95" x2="1027.25" y2="1084.95" stroke-linecap="round" style="stroke:#000000;stroke-width:4.32"/>
	<line x1="1012.28" y1="1372.93" x2="1027.25" y2="1372.93" stroke-linecap="round" style="stroke:#000000;stroke-width:4.32"/>
	<line x1="2678.07" y1="780.76" x2="2678.07" y2="433.26" style="stroke:#000000;stroke-width:4.32"/>
	<line x1="2670.53" y1="433.26" x2="2685.50" y2="433.26" stroke-linecap="round" style="stroke:#000000;stroke-width:4.32"/>
	<line x1="2670.53" y1="780.76" x2="2685.50" y2="780.76" stroke-linecap="round" style="stroke:#000000;stroke-width:4.32"/>
	<line x1="3404.36" y1="679.66" x2="3404.36" y2="164.22" style="stroke:#000000;stroke-width:4.32"/>
	<line x1="3396.81" y1="164.22" x2="3411.79" y2="164.22" stroke-linecap="round" style="stroke:#000000;stroke-width:4.32"/>
	<line x1="3396.81" y1="679.66" x2="3411.79" y2="679.66" stroke-linecap="round" style="stroke:#000000;stroke-width:4.32"/>
	<line x1="686.32" y1="1324.66" x2="686.32" y2="1034.95" style="stroke:#000000;stroke-width:4.32"/>
	<line x1="678.77" y1="1034.95" x2="693.74" y2="1034.95" stroke-linecap="round" style="stroke:#000000;stroke-width:4.32"/>
	<line x1="678.77" y1="1324.66" x2="693.74" y2="1324.66" stroke-linecap="round" style="stroke:#000000;stroke-width:4.32"/>
	<line x1="1046.80" y1="1432.70" x2="1046.80" y2="1139.40" style="stroke:#000000;stroke-width:4.32"/>
	<line x1="1039.25" y1="1139.40" x2="1054.23" y2="1139.40" stroke-linecap="round" style="stroke:#000000;stroke-width:4.32"/>
	<line x1="1039.25" y1="1432.70" x2="1054.23" y2="1432.70" stroke-linecap="round" style="stroke:#000000;stroke-width:4.32"/>
	<line x1="826.16" y1="1419.09" x2="826.16" y2="1137.05" style="stroke:#000000;stroke-width:4.32"/>
	<line x1="818.61" y1="1137.05" x2="833.58" y2="1137.05" stroke-linecap="round" style="stroke:#000000;stroke-width:4.32"/>
	<line x1="818.61" y1="1419.09" x2="833.58" y2="1419.09" stroke-linecap="round" style="stroke:#000000;stroke-width:4.32"/>
	<line x1="960.67" y1="1328.75" x2="960.67" y2="798.83" style="stroke:#000000;stroke-width:4.32"/>
	<line x1="953.12" y1="798.83" x2="968.10" y2="798.83" stroke-linecap="round" style="stroke:#000000;stroke-width:4.32"/>
	<line x1="953.12" y1="1328.75" x2="968.10" y2="1328.75" stroke-linecap="round" style="stroke:#000000;stroke-width:4.32"/>
	<line x1="841.01" y1="1490.62" x2="841.01" y2="1181.11" style="stroke:#000000;stroke-width:4.32"/>
	<line x1="833.46" y1="1181.11" x2="848.43" y2="1181.11" stroke-linecap="round" style="stroke:#000000;stroke-width:4.32"/>
	<line x1="833.46" y1="1490.62" x2="848.43" y2="1490.62" stroke-linecap="round" style="stroke:#000000;stroke-width:4.32"/>
	<line x1="851.77" y1="1628.97" x2="851.77" y2="1316.37" style="stroke:#000000;stroke-width:4.32"/>
	<line x1="844.22" y1="1316.37" x2="859.20" y2="1316.37" stroke-linecap="round" style="stroke:#000000;stroke-width:4.32"/>
	<line x1="844.22" y1="1628.97" x2="859.20" y2="1628.97" stroke-linecap="round" style="stroke:#000000;stroke-width:4.32"/>
	<line x1="1583.38" y1="1195.21" x2="1583.38" y2="818.01" style="stroke:#000000;stroke-width:4.32"/>
	<line x1="1575.83" y1="818.01" x2="1590.81" y2="818.01" stroke-linecap="round" style="stroke:#000000;stroke-width:4.32"/>
	<line x1="1575.83" y1="1195.21" x2="1590.81" y2="1195.21" stroke-linecap="round" style="stroke:#000000;stroke-width:4.32"/>
	<line x1="1393.67" y1="1628.97" x2="1393.67" y2="1142.12" style="stroke:#000000;stroke-width:4.32"/>
	<line x1="1386.12" y1="1142.12" x2="1401.10" y2="1142.12" stroke-linecap="round" style="stroke:#000000;stroke-width:4.32"/>
	<line x1="1386.12" y1="1628.97" x2="1401.10" y2="1628.97" stroke-linecap="round" style="stroke:#000000;stroke-width:4.32"/>
	<rect x="848.81" y="1155.13" width="19.28" height="19.28" style="fill:#000000"/>
	<rect x="853.13" y="1159.45" width="10.64" height="10.64" style="fill:none;stroke:#000000;stroke-width:8.64"/>
	<rect x="2016.15" y="990.66" width="19.28" height="19.28" style="fill:#000000"/>
	<rect x="2020.47" y="994.98" width="10.64" height="10.64" style="fill:none;stroke:#000000;stroke-width:8.64"/>
	<rect x="1106.96" y="1127.78" width="19.28" height="19.28" style="fill:#000000"/>
	<rect x="1111.28" y="1132.10" width="10.64" height="10.64" style="fill:none;stroke:#000000;stroke-width:8.64"/>
	<rect x="785.58" y="1849.76" width="19.28" height="19.28" style="fill:#000000"/>
	<rect x="789.90" y="1854.08" width="10.64" height="10.64" style="fill:none;stroke:#000000;stroke-width:8.64"/>
	<rect x="1024.91" y="1441.62" width="19.28" height="19.28" style="fill:#000000"/>
	<rect x="1029.23" y="1445.94" width="10.64" height="10.64" style="fill:none;stroke:#000000;stroke-width:8.64"/>
	<rect x="1541.32" y="806.39" width="19.28" height="19.28" style="fill:#000000"/>
	<rect x="1545.64" y="810.71" width="10.64" height="10.64" style="fill:none;stroke:#000000;stroke-width:8.64"/>
	<rect x="1217.22" y="1104.51" width="19.28" height="19.28" style="fill:#000000"/>
	<rect x="1221.54" y="1108.83" width="10.64" height="10.64" style="fill:none;stroke:#000000;stroke-width:8.64"/>
	<rect x="887.79" y="1277.03" width="19.28" height="19.28" style="fill:#000000"/>
	<rect x="892.11" y="1281.35" width="10.64" height="10.64" style="fill:none;stroke:#000000;stroke-width:8.64"/>
	<rect x="928.14" y="1020.61" width="19.28" height="19.28" style="fill:#000000"/>
	<rect x="932.46" y="1024.93" width="10.64" height="10.64" style="fill:none;stroke:#000000;stroke-width:8.64"/>
	<rect x="827.28" y="1461.67" width="19.28" height="19.28" style="fill:#000000"/>
	<rect x="831.60" y="1465.99" width="10.64" height="10.64" style="fill:none;stroke:#000000;stroke-width:8.64"/>
	<rect x="750.56" y="1647.30" width="19.28" height="19.28" style="fill:#000000"/>
	<rect x="754.88" y="1651.62" width="10.64" height="10.64" style="fill:none;stroke:#000000;stroke-width:8.64"/>
	<rect x="886.43" y="1273.81" width="19.28" height="19.28" style="fill:#000000"/>
	<rect x="890.75" y="1278.13" width="10.64" height="10.64" style="fill:none;stroke:#000000;stroke-width:8.64"/>
	<rect x="1094.83" y="1278.64" width="19.28" height="19.28" style="fill:#000000"/>
	<rect x="1099.15" y="1282.96" width="10.64" height="10.64" style="fill:none;stroke:#000000;stroke-width:8.64"/>
	<rect x="1409.52" y="1106.62" width="19.28" height="19.28" style="fill:#000000"/>
	<rect x="1413.84" y="1110.94" width="10.64" height="10.64" style="fill:none;stroke:#000000;stroke-width:8.64"/>
	<rect x="2018.87" y="1065.41" width="19.28" height="19.28" style="fill:#000000"/>
	<rect x="2023.19" y="1069.73" width="10.64" height="10.64" style="fill:none;stroke:#000000;stroke-width:8.64"/>
	<rect x="1070.70" y="1155.13" width="19.28" height="19.28" style="fill:#000000"/>
	<rect x="1075.02" y="1159.45" width="10.64" height="10.64" style="fill:none;stroke:#000000;stroke-width:8.64"/>
	<rect x="1749.84" y="1148.57" width="19.28" height="19.28" style="fill:#000000"/>
	<rect x="1754.16" y="1152.89" width="10.64" height="10.64" style="fill:none;stroke:#000000;stroke-width:8.64"/>
	<rect x="875.67" y="1342.37" width="19.28" height="19.28" style="fill:#000000"/>
	<rect x="879.99" y="1346.69" width="10.64" height="10.64" style="fill:none;stroke:#000000;stroke-width:8.64"/>
	<rect x="1112.40" y="1210.82" width="19.28" height="19.28" style="fill:#000000"/>
	<rect x="1116.72" y="1215.14" width="10.64" height="10.64" style="fill:none;stroke:#000000;stroke-width:8.64"/>
	<rect x="1250.88" y="1052.04" width="19.28" height="19.28" style="fill:#000000"/>
	<rect x="1255.20" y="1056.36" width="10.64" height="10.64" style="fill:none;stroke:#000000;stroke-width:8.64"/>
	<rect x="1806.27" y="1053.28" width="19.28" height="19.28" style="fill:#000000"/>
	<rect x="1810.59" y="1057.60" width="10.64" height="10.64" style="fill:none;stroke:#000000;stroke-width:8.64"/>
	<rect x="1297.90" y="1096.84" width="19.28" height="19.28" style="fill:#000000"/>
	<rect x="1302.22" y="1101.16" width="10.64" height="10.64" style="fill:none;stroke:#000000;stroke-width:8.64"/>
	<rect x="711.57" y="1290.15" width="19.28" height="19.28" style="fill:#000000"/>
	<rect x="715.89" y="1294.47" width="10.64" height="10.64" style="fill:none;stroke:#000000;stroke-width:8.64"/>
	<rect x="942.86" y="1278.76" width="19.28" height="19.28" style="fill:#000000"/>
	<rect x="947.18" y="1283.08" width="10.64" height="10.64" style="fill:none;stroke:#000000;stroke-width:8.64"/>
	<rect x="842.01" y="1392.12" width="19.28" height="19.28" style="fill:#000000"/>
	<rect x="846.33" y="1396.44" width="10.64" height="10.64" style="fill:none;stroke:#000000;stroke-width:8.64"/>
	<rect x="1081.46" y="1294.60" width="19.28" height="19.28" style="fill:#000000"/>
	<rect x="1085.78" y="1298.92" width="10.64" height="10.64" style="fill:none;stroke:#000000;stroke-width:8.64"/>
	<rect x="673.95" y="1452.88" width="19.28" height="19.28" style="fill:#000000"/>
	<rect x="678.27" y="1457.20" width="10.64" height="10.64" style="fill:none;stroke:#000000;stroke-width:8.64"/>
	<rect x="825.92" y="1304.87" width="19.28" height="19.28" style="fill:#000000"/>
	<rect x="830.24" y="1309.19" width="10.64" height="10.64" style="fill:none;stroke:#000000;stroke-width:8.64"/>
	<rect x="825.92" y="1287.42" width="19.28" height="19.28" style="fill:#000000"/>
	<rect x="830.24" y="1291.74" width="10.64" height="10.64" style="fill:none;stroke:#000000;stroke-width:8.64"/>
	<rect x="1287.14" y="1160.20" width="19.28" height="19.28" style="fill:#000000"/>
	<rect x="1291.46" y="1164.52" width="10.64" height="10.64" style="fill:none;stroke:#000000;stroke-width:8.64"/>
	<rect x="907.97" y="1278.27" width="19.28" height="19.28" style="fill:#000000"/>
	<rect x="912.29" y="1282.59" width="10.64" height="10.64" style="fill:none;stroke:#000000;stroke-width:8.64"/>
	<rect x="868.98" y="1538.52" width="19.28" height="19.28" style="fill:#000000"/>
	<rect x="873.30" y="1542.84" width="10.64" height="10.64" style="fill:none;stroke:#000000;stroke-width:8.64"/>
	<rect x="745.23" y="1152.16" width="19.28" height="19.28" style="fill:#000000"/>
	<rect x="749.55" y="1156.48" width="10.64" height="10.64" style="fill:none;stroke:#000000;stroke-width:8.64"/>
	<rect x="792.26" y="1364.65" width="19.28" height="19.28" style="fill:#000000"/>
	<rect x="796.58" y="1368.97" width="10.64" height="10.64" style="fill:none;stroke:#000000;stroke-width:8.64"/>
	<rect x="1182.32" y="1044.25" width="19.28" height="19.28" style="fill:#000000"/>
	<rect x="1186.64" y="1048.57" width="10.64" height="10.64" style="fill:none;stroke:#000000;stroke-width:8.64"/>
	<rect x="749.19" y="1288.04" width="19.28" height="19.28" style="fill:#000000"/>
	<rect x="753.51" y="1292.36" width="10.64" height="10.64" style="fill:none;stroke:#000000;stroke-width:8.64"/>
	<rect x="1031.72" y="1147.46" width="19.28" height="19.28" style="fill:#000000"/>
	<rect x="1036.04" y="1151.78" width="10.64" height="10.64" style="fill:none;stroke:#000000;stroke-width:8.64"/>
	<rect x="758.60" y="1331.85" width="19.28" height="19.28" style="fill:#000000"/>
	<rect x="762.92" y="1336.17" width="10.64" height="10.64" style="fill:none;stroke:#000000;stroke-width:8.64"/>
	<rect x="937.54" y="1435.68" width="19.28" height="19.28" style="fill:#000000"/>
	<rect x="941.86" y="1440.00" width="10.64" height="10.64" style="fill:none;stroke:#000000;stroke-width:8.64"/>
	<rect x="1133.93" y="1134.83" width="19.28" height="19.28" style="fill:#000000"/>
	<rect x="1138.25" y="1139.15" width="10.64" height="10.64" style="fill:none;stroke:#000000;stroke-width:8.64"/>
	<rect x="1022.19" y="1321.33" width="19.28" height="19.28" style="fill:#000000"/>
	<rect x="1026.51" y="1325.65" width="10.64" height="10.64" style="fill:none;stroke:#000000;stroke-width:8.64"/>
	<rect x="844.73" y="1102.78" width="19.28" height="19.28" style="fill:#000000"/>
	<rect x="849.05" y="1107.10" width="10.64" height="10.64" style="fill:none;stroke:#000000;stroke-width:8.64"/>
	<rect x="1515.83" y="990.66" width="19.28" height="19.28" style="fill:#000000"/>
	<rect x="1520.15" y="994.98" width="10.64" height="10.64" style="fill:none;stroke:#000000;stroke-width:8.64"/>
	<rect x="3451.15" y="671.50" width="19.28" height="19.28" style="fill:#000000"/>
	<rect x="3455.47" y="675.82" width="10.64" height="10.64" style="fill:none;stroke:#000000;stroke-width:8.64"/>
	<rect x="793.62" y="1658.31" width="19.28" height="19.28" style="fill:#000000"/>
	<rect x="797.94" y="1662.63" width="10.64" height="10.64" style="fill:none;stroke:#000000;stroke-width:8.64"/>
	<rect x="949.67" y="1323.68" width="19.28" height="19.28" style="fill:#000000"/>
	<rect x="953.99" y="1328.00" width="10.64" height="10.64" style="fill:none;stroke:#000000;stroke-width:8.64"/>
	<rect x="750.56" y="1220.97" width="19.28" height="19.28" style="fill:#000000"/>
	<rect x="754.88" y="1225.29" width="10.64" height="10.64" style="fill:none;stroke:#000000;stroke-width:8.64"/>
	<rect x="913.29" y="1221.09" width="19.28" height="19.28" style="fill:#000000"/>
	<rect x="917.61" y="1225.41" width="10.64" height="10.64" style="fill:none;stroke:#000000;stroke-width:8.64"/>
	<rect x="2387.27" y="863.32" width="19.28" height="19.28" style="fill:#000000"/>
	<rect x="2391.59" y="867.64" width="10.64" height="10.64" style="fill:none;stroke:#000000;stroke-width:8.64"/>
	<rect x="1455.31" y="1133.35" width="19.28" height="19.28" style="fill:#000000"/>
	<rect x="1459.63" y="1137.67" width="10.64" height="10.64" style="fill:none;stroke:#000000;stroke-width:8.64"/>
	<rect x="2576.98" y="640.19" width="19.28" height="19.28" style="fill:#000000"/>
	<rect x="2581.30" y="644.51" width="10.64" height="10.64" style="fill:none;stroke:#000000;stroke-width:8.64"/>
	<rect x="1010.18" y="1219.36" width="19.28" height="19.28" style="fill:#000000"/>
	<rect x="1014.50" y="1223.68" width="10.64" height="10.64" style="fill:none;stroke:#000000;stroke-width:8.64"/>
	<rect x="2668.43" y="597.50" width="19.28" height="19.28" style="fill:#000000"/>
	<rect x="2672.75" y="601.82" width="10.64" height="10.64" style="fill:none;stroke:#000000;stroke-width:8.64"/>
	<rect x="3394.60" y="412.36" width="19.28" height="19.28" style="fill:#000000"/>
	<rect x="3398.92" y="416.68" width="10.64" height="10.64" style="fill:none;stroke:#000000;stroke-width:8.64"/>
	<rect x="676.55" y="1170.23" width="19.28" height="19.28" style="fill:#000000"/>
	<rect x="680.87" y="1174.55" width="10.64" height="10.64" style="fill:none;stroke:#000000;stroke-width:8.64"/>
	<rect x="1037.04" y="1276.53" width="19.28" height="19.28" style="fill:#000000"/>
	<rect x="1041.36" y="1280.85" width="10.64" height="10.64" style="fill:none;stroke:#000000;stroke-width:8.64"/>
	<rect x="816.51" y="1268.49" width="19.28" height="19.28" style="fill:#000000"/>
	<rect x="820.83" y="1272.81" width="10.64" height="10.64" style="fill:none;stroke:#000000;stroke-width:8.64"/>
	<rect x="950.91" y="1054.27" width="19.28" height="19.28" style="fill:#000000"/>
	<rect x="955.23" y="1058.59" width="10.64" height="10.64" style="fill:none;stroke:#000000;stroke-width:8.64"/>
	<rect x="831.24" y="1326.28" width="19.28" height="19.28" style="fill:#000000"/>
	<rect x="835.56" y="1330.60" width="10.64" height="10.64" style="fill:none;stroke:#000000;stroke-width:8.64"/>
	<rect x="842.01" y="1463.03" width="19.28" height="19.28" style="fill:#000000"/>
	<rect x="846.33" y="1467.35" width="10.64" height="10.64" style="fill:none;stroke:#000000;stroke-width:8.64"/>
	<rect x="1573.62" y="996.97" width="19.28" height="19.28" style="fill:#000000"/>
	<rect x="1577.94" y="1001.29" width="10.64" height="10.64" style="fill:none;stroke:#000000;stroke-width:8.64"/>
	<rect x="1384.03" y="1376.03" width="19.28" height="19.28" style="fill:#000000"/>
	<rect x="1388.35" y="1380.35" width="10.64" height="10.64" style="fill:none;stroke:#000000;stroke-width:8.64"/>
	<line x1="370.14" y1="2233.63" x2="370.14" y2="100.86" style="stroke:#000000;stroke-width:5.76"/>
	<line x1="370.14" y1="2170.27" x2="330.17" y2="2170.27" style="stroke:#000000;stroke-width:5.76"/>
	<text x="280.06" y="2170.27" style="font-family:'Helvetica';font-size:99.99px;fill:#000000" transform="rotate(-90 280.06,2170.27)" text-anchor="middle">-.1</text>
	<line x1="370.14" y1="1782.30" x2="330.17" y2="1782.30" style="stroke:#000000;stroke-width:5.76"/>
	<text x="280.06" y="1782.30" style="font-family:'Helvetica';font-size:99.99px;fill:#000000" transform="rotate(-90 280.06,1782.30)" text-anchor="middle">-.05</text>
	<line x1="370.14" y1="1394.33" x2="330.17" y2="1394.33" style="stroke:#000000;stroke-width:5.76"/>
	<text x="280.06" y="1394.33" style="font-family:'Helvetica';font-size:99.99px;fill:#000000" transform="rotate(-90 280.06,1394.33)" text-anchor="middle">0</text>
	<line x1="370.14" y1="1006.24" x2="330.17" y2="1006.24" style="stroke:#000000;stroke-width:5.76"/>
	<text x="280.06" y="1006.24" style="font-family:'Helvetica';font-size:99.99px;fill:#000000" transform="rotate(-90 280.06,1006.24)" text-anchor="middle">.05</text>
	<line x1="370.14" y1="618.27" x2="330.17" y2="618.27" style="stroke:#000000;stroke-width:5.76"/>
	<text x="280.06" y="618.27" style="font-family:'Helvetica';font-size:99.99px;fill:#000000" transform="rotate(-90 280.06,618.27)" text-anchor="middle">.1</text>
	<line x1="370.14" y1="230.18" x2="330.17" y2="230.18" style="stroke:#000000;stroke-width:5.76"/>
	<text x="280.06" y="230.18" style="font-family:'Helvetica';font-size:99.99px;fill:#000000" transform="rotate(-90 280.06,230.18)" text-anchor="middle">.15</text>
	<text x="190.71" y="1167.25" style="font-family:'Helvetica';font-size:99.99px;fill:#000000" transform="rotate(-90 190.71,1167.25)" text-anchor="middle">Instrument-outcome associations</text>
	<line x1="370.14" y1="2233.63" x2="3859.02" y2="2233.63" style="stroke:#000000;stroke-width:5.76"/>
	<line x1="433.50" y1="2233.63" x2="433.50" y2="2273.73" style="stroke:#000000;stroke-width:5.76"/>
	<text x="433.50" y="2363.59" style="font-family:'Helvetica';font-size:99.99px;fill:#000000" text-anchor="middle">0</text>
	<line x1="1105.95" y1="2233.63" x2="1105.95" y2="2273.73" style="stroke:#000000;stroke-width:5.76"/>
	<text x="1105.95" y="2363.59" style="font-family:'Helvetica';font-size:99.99px;fill:#000000" text-anchor="middle">.05</text>
	<line x1="1778.41" y1="2233.63" x2="1778.41" y2="2273.73" style="stroke:#000000;stroke-width:5.76"/>
	<text x="1778.41" y="2363.59" style="font-family:'Helvetica';font-size:99.99px;fill:#000000" text-anchor="middle">.1</text>
	<line x1="2450.87" y1="2233.63" x2="2450.87" y2="2273.73" style="stroke:#000000;stroke-width:5.76"/>
	<text x="2450.87" y="2363.59" style="font-family:'Helvetica';font-size:99.99px;fill:#000000" text-anchor="middle">.15</text>
	<line x1="3123.33" y1="2233.63" x2="3123.33" y2="2273.73" style="stroke:#000000;stroke-width:5.76"/>
	<text x="3123.33" y="2363.59" style="font-family:'Helvetica';font-size:99.99px;fill:#000000" text-anchor="middle">.2</text>
	<line x1="3795.78" y1="2233.63" x2="3795.78" y2="2273.73" style="stroke:#000000;stroke-width:5.76"/>
	<text x="3795.78" y="2363.59" style="font-family:'Helvetica';font-size:99.99px;fill:#000000" text-anchor="middle">.25</text>
	<text x="2114.64" y="2473.60" style="font-family:'Helvetica';font-size:99.99px;fill:#000000" text-anchor="middle">Instrument-exposure associations</text>
	<rect x="404.66" y="2558.24" width="3419.83" height="186.37" style="fill:#FFFFFF"/>
	<rect x="407.54" y="2561.12" width="3414.07" height="180.61" style="fill:none;stroke:#000000;stroke-width:5.76"/>
	<rect x="445.14" y="2641.79" width="19.28" height="19.28" style="fill:#000000"/>
	<rect x="449.46" y="2646.11" width="10.64" height="10.64" style="fill:none;stroke:#000000;stroke-width:8.64"/>
	<line x1="1046.31" y1="2651.43" x2="1392.81" y2="2651.43" style="stroke:#000000;stroke-width:4.32"/>
	<line x1="1046.31" y1="2658.98" x2="1046.31" y2="2644.00" style="stroke:#000000;stroke-width:4.32"/>
	<line x1="1392.81" y1="2658.98" x2="1392.81" y2="2644.00" style="stroke:#000000;stroke-width:4.32"/>
	<line x1="1869.49" y1="2651.43" x2="2215.99" y2="2651.43" style="stroke:#000000;stroke-width:8.64"/>
	<rect x="2753.07" y="2601.43" width="346.62" height="99.99" style="fill:#E6E6E6"/>
	<rect x="2755.23" y="2603.59" width="342.30" height="95.67" style="fill:none;stroke:#C0C0C0;stroke-width:4.32"/>
	<text x="517.28" y="2679.44" style="font-family:'Helvetica';font-size:79.94px;fill:#000000">Instruments</text>
	<text x="1448.37" y="2679.44" style="font-family:'Helvetica';font-size:79.94px;fill:#000000">95% CIs</text>
	<text x="2271.55" y="2679.44" style="font-family:'Helvetica';font-size:79.94px;fill:#000000">MR-Egger</text>
	<text x="3155.13" y="2679.44" style="font-family:'Helvetica';font-size:79.94px;fill:#000000">MR-Egger 95% CI</text>
</svg>
