<?xml version="1.0" encoding="UTF-8" standalone="no"?>
<!-- This is a Stata 17.0 generated SVG file (http://www.stata.com) -->

<svg version="1.1" width="600px" height="436px" viewBox="0 0 3960 2880" xmlns="http://www.w3.org/2000/svg" xmlns:xlink="http://www.w3.org/1999/xlink">
	<desc>Stata Graph - Graph</desc>
	<rect x="0" y="0" width="3960" height="2880" style="fill:#EAF2F3;stroke:none"/>
	<rect x="0.00" y="0.00" width="3959.88" height="2880.00" style="fill:#FFFFFF"/>
	<rect x="2.88" y="2.88" width="3954.12" height="2874.24" style="fill:none;stroke:#FFFFFF;stroke-width:5.76"/>
	<rect x="372.86" y="100.86" width="3486.16" height="2132.77" style="fill:#FFFFFF"/>
	<rect x="375.74" y="103.74" width="3480.40" height="2127.01" style="fill:none;stroke:#FFFFFF;stroke-width:5.76"/>
	<line x1="372.86" y1="2170.27" x2="3859.02" y2="2170.27" style="stroke:#EAF2F3;stroke-width:8.64"/>
	<line x1="372.86" y1="1782.30" x2="3859.02" y2="1782.30" style="stroke:#EAF2F3;stroke-width:8.64"/>
	<line x1="372.86" y1="1394.33" x2="3859.02" y2="1394.33" style="stroke:#EAF2F3;stroke-width:8.64"/>
	<line x1="372.86" y1="1006.24" x2="3859.02" y2="1006.24" style="stroke:#EAF2F3;stroke-width:8.64"/>
	<line x1="372.86" y1="618.27" x2="3859.02" y2="618.27" style="stroke:#EAF2F3;stroke-width:8.64"/>
	<line x1="372.86" y1="230.18" x2="3859.02" y2="230.18" style="stroke:#EAF2F3;stroke-width:8.64"/>
	<defs>
		<path id="path_vKUJNOSK" d="M686.19 1433.07 L686.19 1433.07 L714.16 1422.30 L742.25 1411.66 L770.22 1401.02 L798.31 1390.50 L826.28 1379.98 L854.37 1369.58 L882.34 1359.19 L910.43 1348.92 L938.52 1338.77 L966.49 1328.62 L994.58 1318.60 L1022.55 1308.70 L1050.64 1298.92 L1078.61 1289.27 L1106.70 1279.61 L1134.66 1270.09 L1162.76 1260.80 L1190.72 1251.52 L1218.81 1242.24 L1246.78 1233.21 L1274.87 1224.17 L1302.84 1215.39 L1330.93 1206.60 L1358.90 1197.81 L1386.99 1189.15 L1414.96 1180.61 L1443.05 1172.20 L1471.02 1163.78 L1499.11 1155.37 L1527.08 1147.07 L1555.17 1138.91 L1583.13 1130.74 L1611.23 1122.57 L1639.19 1114.40 L1667.28 1106.36 L1695.25 1098.32 L1723.34 1090.40 L1751.31 1082.35 L1779.40 1074.43 L1807.37 1066.51 L1835.46 1058.71 L1863.43 1050.79 L1891.52 1043.00 L1919.49 1035.20 L1947.58 1027.40 L1975.55 1019.61 L2003.64 1011.81 L2031.60 1004.02 L2059.70 996.34 L2087.66 988.55 L2115.75 980.87 L2143.72 973.20 L2171.81 965.53 L2199.78 957.85 L2227.87 950.18 L2255.84 942.51 L2283.93 934.84 L2311.90 927.16 L2339.99 919.49 L2367.96 911.82 L2396.05 904.27 L2424.02 896.60 L2452.11 889.05 L2480.07 881.38 L2508.17 873.83 L2536.13 866.15 L2564.22 858.60 L2592.19 851.06 L2620.28 843.38 L2648.25 835.83 L2676.34 828.28 L2704.31 820.61 L2732.40 813.06 L2760.37 805.51 L2788.46 797.96 L2816.43 790.42 L2844.52 782.87 L2872.49 775.32 L2900.58 767.77 L2928.54 760.22 L2956.64 752.67 L2984.60 745.12 L3012.69 737.57 L3040.66 730.02 L3068.75 722.48 L3096.72 714.93 L3124.81 707.38 L3152.78 699.83 L3180.87 692.28 L3208.84 684.73 L3236.93 677.18 L3264.90 669.76 L3292.99 662.21 L3320.96 654.66 L3349.05 647.11 L3377.01 639.56 L3405.11 632.01 L3433.07 624.59 L3461.16 617.04 L3461.16 274.36 L3433.07 285.75 L3405.11 297.26 L3377.01 308.64 L3349.05 320.03 L3320.96 331.54 L3292.99 342.92 L3264.90 354.31 L3236.93 365.82 L3208.84 377.20 L3180.87 388.59 L3152.78 399.97 L3124.81 411.48 L3096.72 422.87 L3068.75 434.25 L3040.66 445.64 L3012.69 457.02 L2984.60 468.41 L2956.64 479.92 L2928.54 491.30 L2900.58 502.69 L2872.49 514.07 L2844.52 525.46 L2816.43 536.84 L2788.46 548.23 L2760.37 559.61 L2732.40 571.00 L2704.31 582.39 L2676.34 593.77 L2648.25 605.16 L2620.28 616.42 L2592.19 627.80 L2564.22 639.19 L2536.13 650.57 L2508.17 661.84 L2480.07 673.22 L2452.11 684.61 L2424.02 695.87 L2396.05 707.25 L2367.96 718.51 L2339.99 729.90 L2311.90 741.16 L2283.93 752.42 L2255.84 763.81 L2227.87 775.07 L2199.78 786.33 L2171.81 797.59 L2143.72 808.86 L2115.75 820.12 L2087.66 831.38 L2059.70 842.52 L2031.60 853.78 L2003.64 864.92 L1975.55 876.18 L1947.58 887.32 L1919.49 898.45 L1891.52 909.59 L1863.43 920.73 L1835.46 931.74 L1807.37 942.88 L1779.40 953.89 L1751.31 964.91 L1723.34 975.92 L1695.25 986.81 L1667.28 997.83 L1639.19 1008.72 L1611.23 1019.48 L1583.13 1030.37 L1555.17 1041.02 L1527.08 1051.78 L1499.11 1062.43 L1471.02 1073.07 L1443.05 1083.59 L1414.96 1093.98 L1386.99 1104.38 L1358.90 1114.77 L1330.93 1125.05 L1302.84 1135.19 L1274.87 1145.22 L1246.78 1155.24 L1218.81 1165.02 L1190.72 1174.80 L1162.76 1184.45 L1134.66 1194.10 L1106.70 1203.51 L1078.61 1212.91 L1050.64 1222.07 L1022.55 1231.23 L994.58 1240.26 L966.49 1249.30 L938.52 1258.08 L910.43 1266.87 L882.34 1275.53 L854.37 1284.19 L826.28 1292.73 L798.31 1301.15 L770.22 1309.56 L742.25 1317.85 L714.16 1326.15 L686.19 1334.31 L686.19 1433.07 Z" stroke-linejoin="round"/>
	</defs>
	<defs>
		<clipPath id="clipPath_ncWUsBYj">
			<use xlink:href="#path_vKUJNOSK"/>
		</clipPath>
	</defs>
	<use xlink:href="#path_vKUJNOSK" style="stroke:none;fill:#E6E6E6"/>
	<use xlink:href="#path_vKUJNOSK" style="fill:none;stroke:#C0C0C0;stroke-width:8.64" clip-path="url(#clipPath_ncWUsBYj)"/>
	<path d=" M686.07 1383.69 L688.79 1382.83 L723.81 1371.07 L757.35 1359.68 L761.43 1358.32 L762.67 1357.83 L762.67 1357.83 L770.84 1355.10 L797.69 1346.07 L804.38 1343.72 L805.74 1343.35 L828.63 1335.55 L838.04 1332.46 L838.04 1332.46 L839.27 1331.96 L843.36 1330.60 L854.12 1327.01 L854.12 1327.01 L856.85 1326.02 L860.81 1324.66 L880.98 1317.85 L887.66 1315.63 L898.43 1312.04 L899.79 1311.54 L919.96 1304.74 L925.28 1302.88 L940.13 1297.93 L949.53 1294.71 L954.86 1292.86 L961.66 1290.63 L962.90 1290.13 L1022.05 1270.21 L1034.18 1266.13 L1036.90 1265.14 L1043.58 1262.91 L1048.91 1261.05 L1082.57 1249.79 L1093.33 1246.08 L1106.70 1241.62 L1118.82 1237.54 L1124.15 1235.68 L1145.68 1228.38 L1194.06 1212.05 L1228.96 1200.29 L1262.62 1188.90 L1298.88 1176.65 L1309.65 1172.94 L1395.65 1143.86 L1421.15 1135.32 L1466.93 1119.85 L1527.32 1099.43 L1552.82 1090.77 L1585.11 1079.88 L1761.21 1020.35 L1817.64 1001.29 L2027.27 930.38 L2029.87 929.52 L2398.15 805.02 L2587.61 741.04 L2678.94 710.10 L3404.61 464.82 L3461.04 445.76" stroke-linejoin="round" style="fill:none;stroke:#000000;stroke-width:8.64"/>
	<line x1="860.93" y1="1338.15" x2="860.93" y2="991.39" style="stroke:#000000;stroke-width:4.32"/>
	<line x1="853.38" y1="991.39" x2="868.35" y2="991.39" stroke-linecap="round" style="stroke:#000000;stroke-width:4.32"/>
	<line x1="853.38" y1="1338.15" x2="868.35" y2="1338.15" stroke-linecap="round" style="stroke:#000000;stroke-width:4.32"/>
	<line x1="2027.27" y1="1261.67" x2="2027.27" y2="738.81" style="stroke:#000000;stroke-width:4.32"/>
	<line x1="2019.72" y1="738.81" x2="2034.70" y2="738.81" stroke-linecap="round" style="stroke:#000000;stroke-width:4.32"/>
	<line x1="2019.72" y1="1261.67" x2="2034.70" y2="1261.67" stroke-linecap="round" style="stroke:#000000;stroke-width:4.32"/>
	<line x1="1118.95" y1="1424.16" x2="1118.95" y2="850.68" style="stroke:#000000;stroke-width:4.32"/>
	<line x1="1111.40" y1="850.68" x2="1126.37" y2="850.68" stroke-linecap="round" style="stroke:#000000;stroke-width:4.32"/>
	<line x1="1111.40" y1="1424.16" x2="1126.37" y2="1424.16" stroke-linecap="round" style="stroke:#000000;stroke-width:4.32"/>
	<line x1="797.69" y1="2022.88" x2="797.69" y2="1695.80" style="stroke:#000000;stroke-width:4.32"/>
	<line x1="790.14" y1="1695.80" x2="805.12" y2="1695.80" stroke-linecap="round" style="stroke:#000000;stroke-width:4.32"/>
	<line x1="790.14" y1="2022.88" x2="805.12" y2="2022.88" stroke-linecap="round" style="stroke:#000000;stroke-width:4.32"/>
	<line x1="1036.90" y1="1610.90" x2="1036.90" y2="1291.50" style="stroke:#000000;stroke-width:4.32"/>
	<line x1="1029.35" y1="1291.50" x2="1044.33" y2="1291.50" stroke-linecap="round" style="stroke:#000000;stroke-width:4.32"/>
	<line x1="1029.35" y1="1610.90" x2="1044.33" y2="1610.90" stroke-linecap="round" style="stroke:#000000;stroke-width:4.32"/>
	<line x1="1552.94" y1="1018.99" x2="1552.94" y2="612.95" style="stroke:#000000;stroke-width:4.32"/>
	<line x1="1545.39" y1="612.95" x2="1560.36" y2="612.95" stroke-linecap="round" style="stroke:#000000;stroke-width:4.32"/>
	<line x1="1545.39" y1="1018.99" x2="1560.36" y2="1018.99" stroke-linecap="round" style="stroke:#000000;stroke-width:4.32"/>
	<line x1="1229.09" y1="1309.07" x2="1229.09" y2="919.12" style="stroke:#000000;stroke-width:4.32"/>
	<line x1="1221.54" y1="919.12" x2="1236.51" y2="919.12" stroke-linecap="round" style="stroke:#000000;stroke-width:4.32"/>
	<line x1="1221.54" y1="1309.07" x2="1236.51" y2="1309.07" stroke-linecap="round" style="stroke:#000000;stroke-width:4.32"/>
	<line x1="899.91" y1="1516.11" x2="899.91" y2="1057.23" style="stroke:#000000;stroke-width:4.32"/>
	<line x1="892.36" y1="1057.23" x2="907.34" y2="1057.23" stroke-linecap="round" style="stroke:#000000;stroke-width:4.32"/>
	<line x1="892.36" y1="1516.11" x2="907.34" y2="1516.11" stroke-linecap="round" style="stroke:#000000;stroke-width:4.32"/>
	<line x1="940.13" y1="1180.24" x2="940.13" y2="880.14" style="stroke:#000000;stroke-width:4.32"/>
	<line x1="932.58" y1="880.14" x2="947.55" y2="880.14" stroke-linecap="round" style="stroke:#000000;stroke-width:4.32"/>
	<line x1="932.58" y1="1180.24" x2="947.55" y2="1180.24" stroke-linecap="round" style="stroke:#000000;stroke-width:4.32"/>
	<line x1="839.40" y1="1615.73" x2="839.40" y2="1326.77" style="stroke:#000000;stroke-width:4.32"/>
	<line x1="831.85" y1="1326.77" x2="846.82" y2="1326.77" stroke-linecap="round" style="stroke:#000000;stroke-width:4.32"/>
	<line x1="831.85" y1="1615.73" x2="846.82" y2="1615.73" stroke-linecap="round" style="stroke:#000000;stroke-width:4.32"/>
	<line x1="762.80" y1="1822.65" x2="762.80" y2="1491.11" style="stroke:#000000;stroke-width:4.32"/>
	<line x1="755.25" y1="1491.11" x2="770.22" y2="1491.11" stroke-linecap="round" style="stroke:#000000;stroke-width:4.32"/>
	<line x1="755.25" y1="1822.65" x2="770.22" y2="1822.65" stroke-linecap="round" style="stroke:#000000;stroke-width:4.32"/>
	<line x1="898.55" y1="1446.93" x2="898.55" y2="1119.97" style="stroke:#000000;stroke-width:4.32"/>
	<line x1="891.00" y1="1119.97" x2="905.97" y2="1119.97" stroke-linecap="round" style="stroke:#000000;stroke-width:4.32"/>
	<line x1="891.00" y1="1446.93" x2="905.97" y2="1446.93" stroke-linecap="round" style="stroke:#000000;stroke-width:4.32"/>
	<line x1="1106.82" y1="1570.31" x2="1106.82" y2="1006.00" style="stroke:#000000;stroke-width:4.32"/>
	<line x1="1099.27" y1="1006.00" x2="1114.24" y2="1006.00" stroke-linecap="round" style="stroke:#000000;stroke-width:4.32"/>
	<line x1="1099.27" y1="1570.31" x2="1114.24" y2="1570.31" stroke-linecap="round" style="stroke:#000000;stroke-width:4.32"/>
	<line x1="1421.27" y1="1260.56" x2="1421.27" y2="971.96" style="stroke:#000000;stroke-width:4.32"/>
	<line x1="1413.72" y1="971.96" x2="1428.69" y2="971.96" stroke-linecap="round" style="stroke:#000000;stroke-width:4.32"/>
	<line x1="1413.72" y1="1260.56" x2="1428.69" y2="1260.56" stroke-linecap="round" style="stroke:#000000;stroke-width:4.32"/>
	<line x1="2030.00" y1="1236.80" x2="2030.00" y2="913.30" style="stroke:#000000;stroke-width:4.32"/>
	<line x1="2022.45" y1="913.30" x2="2037.42" y2="913.30" stroke-linecap="round" style="stroke:#000000;stroke-width:4.32"/>
	<line x1="2022.45" y1="1236.80" x2="2037.42" y2="1236.80" stroke-linecap="round" style="stroke:#000000;stroke-width:4.32"/>
	<line x1="1082.57" y1="1361.54" x2="1082.57" y2="967.88" style="stroke:#000000;stroke-width:4.32"/>
	<line x1="1075.02" y1="967.88" x2="1089.99" y2="967.88" stroke-linecap="round" style="stroke:#000000;stroke-width:4.32"/>
	<line x1="1075.02" y1="1361.54" x2="1089.99" y2="1361.54" stroke-linecap="round" style="stroke:#000000;stroke-width:4.32"/>
	<line x1="1761.21" y1="1411.29" x2="1761.21" y2="905.01" style="stroke:#000000;stroke-width:4.32"/>
	<line x1="1753.66" y1="905.01" x2="1768.64" y2="905.01" stroke-linecap="round" style="stroke:#000000;stroke-width:4.32"/>
	<line x1="1753.66" y1="1411.29" x2="1768.64" y2="1411.29" stroke-linecap="round" style="stroke:#000000;stroke-width:4.32"/>
	<line x1="887.78" y1="1555.21" x2="887.78" y2="1148.68" style="stroke:#000000;stroke-width:4.32"/>
	<line x1="880.23" y1="1148.68" x2="895.21" y2="1148.68" stroke-linecap="round" style="stroke:#000000;stroke-width:4.32"/>
	<line x1="880.23" y1="1555.21" x2="895.21" y2="1555.21" stroke-linecap="round" style="stroke:#000000;stroke-width:4.32"/>
	<line x1="1124.27" y1="1373.79" x2="1124.27" y2="1066.88" style="stroke:#000000;stroke-width:4.32"/>
	<line x1="1116.72" y1="1066.88" x2="1131.69" y2="1066.88" stroke-linecap="round" style="stroke:#000000;stroke-width:4.32"/>
	<line x1="1116.72" y1="1373.79" x2="1131.69" y2="1373.79" stroke-linecap="round" style="stroke:#000000;stroke-width:4.32"/>
	<line x1="1262.62" y1="1423.54" x2="1262.62" y2="699.83" style="stroke:#000000;stroke-width:4.32"/>
	<line x1="1255.07" y1="699.83" x2="1270.05" y2="699.83" stroke-linecap="round" style="stroke:#000000;stroke-width:4.32"/>
	<line x1="1255.07" y1="1423.54" x2="1270.05" y2="1423.54" stroke-linecap="round" style="stroke:#000000;stroke-width:4.32"/>
	<line x1="1817.64" y1="1613.50" x2="1817.64" y2="512.09" style="stroke:#000000;stroke-width:4.32"/>
	<line x1="1810.09" y1="512.09" x2="1825.07" y2="512.09" stroke-linecap="round" style="stroke:#000000;stroke-width:4.32"/>
	<line x1="1810.09" y1="1613.50" x2="1825.07" y2="1613.50" stroke-linecap="round" style="stroke:#000000;stroke-width:4.32"/>
	<line x1="1309.77" y1="1273.18" x2="1309.77" y2="939.79" style="stroke:#000000;stroke-width:4.32"/>
	<line x1="1302.22" y1="939.79" x2="1317.20" y2="939.79" stroke-linecap="round" style="stroke:#000000;stroke-width:4.32"/>
	<line x1="1302.22" y1="1273.18" x2="1317.20" y2="1273.18" stroke-linecap="round" style="stroke:#000000;stroke-width:4.32"/>
	<line x1="723.81" y1="1447.05" x2="723.81" y2="1152.52" style="stroke:#000000;stroke-width:4.32"/>
	<line x1="716.27" y1="1152.52" x2="731.24" y2="1152.52" stroke-linecap="round" style="stroke:#000000;stroke-width:4.32"/>
	<line x1="716.27" y1="1447.05" x2="731.24" y2="1447.05" stroke-linecap="round" style="stroke:#000000;stroke-width:4.32"/>
	<line x1="954.98" y1="1469.45" x2="954.98" y2="1107.23" style="stroke:#000000;stroke-width:4.32"/>
	<line x1="947.43" y1="1107.23" x2="962.40" y2="1107.23" stroke-linecap="round" style="stroke:#000000;stroke-width:4.32"/>
	<line x1="947.43" y1="1469.45" x2="962.40" y2="1469.45" stroke-linecap="round" style="stroke:#000000;stroke-width:4.32"/>
	<line x1="854.12" y1="1550.14" x2="854.12" y2="1253.13" style="stroke:#000000;stroke-width:4.32"/>
	<line x1="846.57" y1="1253.13" x2="861.55" y2="1253.13" stroke-linecap="round" style="stroke:#000000;stroke-width:4.32"/>
	<line x1="846.57" y1="1550.14" x2="861.55" y2="1550.14" stroke-linecap="round" style="stroke:#000000;stroke-width:4.32"/>
	<line x1="1093.33" y1="1451.39" x2="1093.33" y2="1156.97" style="stroke:#000000;stroke-width:4.32"/>
	<line x1="1085.78" y1="1156.97" x2="1100.76" y2="1156.97" stroke-linecap="round" style="stroke:#000000;stroke-width:4.32"/>
	<line x1="1085.78" y1="1451.39" x2="1100.76" y2="1451.39" stroke-linecap="round" style="stroke:#000000;stroke-width:4.32"/>
	<line x1="686.19" y1="1612.14" x2="686.19" y2="1312.66" style="stroke:#000000;stroke-width:4.32"/>
	<line x1="678.65" y1="1312.66" x2="693.62" y2="1312.66" stroke-linecap="round" style="stroke:#000000;stroke-width:4.32"/>
	<line x1="678.65" y1="1612.14" x2="693.62" y2="1612.14" stroke-linecap="round" style="stroke:#000000;stroke-width:4.32"/>
	<line x1="838.04" y1="1472.42" x2="838.04" y2="1156.60" style="stroke:#000000;stroke-width:4.32"/>
	<line x1="830.49" y1="1156.60" x2="845.46" y2="1156.60" stroke-linecap="round" style="stroke:#000000;stroke-width:4.32"/>
	<line x1="830.49" y1="1472.42" x2="845.46" y2="1472.42" stroke-linecap="round" style="stroke:#000000;stroke-width:4.32"/>
	<line x1="838.04" y1="1472.05" x2="838.04" y2="1121.95" style="stroke:#000000;stroke-width:4.32"/>
	<line x1="830.49" y1="1121.95" x2="845.46" y2="1121.95" stroke-linecap="round" style="stroke:#000000;stroke-width:4.32"/>
	<line x1="830.49" y1="1472.05" x2="845.46" y2="1472.05" stroke-linecap="round" style="stroke:#000000;stroke-width:4.32"/>
	<line x1="1299.00" y1="1328.25" x2="1299.00" y2="1011.44" style="stroke:#000000;stroke-width:4.32"/>
	<line x1="1291.46" y1="1011.44" x2="1306.43" y2="1011.44" stroke-linecap="round" style="stroke:#000000;stroke-width:4.32"/>
	<line x1="1291.46" y1="1328.25" x2="1306.43" y2="1328.25" stroke-linecap="round" style="stroke:#000000;stroke-width:4.32"/>
	<line x1="919.96" y1="1448.42" x2="919.96" y2="1127.27" style="stroke:#000000;stroke-width:4.32"/>
	<line x1="912.41" y1="1127.27" x2="927.38" y2="1127.27" stroke-linecap="round" style="stroke:#000000;stroke-width:4.32"/>
	<line x1="912.41" y1="1448.42" x2="927.38" y2="1448.42" stroke-linecap="round" style="stroke:#000000;stroke-width:4.32"/>
	<line x1="881.10" y1="1764.98" x2="881.10" y2="1331.22" style="stroke:#000000;stroke-width:4.32"/>
	<line x1="873.55" y1="1331.22" x2="888.53" y2="1331.22" stroke-linecap="round" style="stroke:#000000;stroke-width:4.32"/>
	<line x1="873.55" y1="1764.98" x2="888.53" y2="1764.98" stroke-linecap="round" style="stroke:#000000;stroke-width:4.32"/>
	<line x1="757.47" y1="1313.40" x2="757.47" y2="1010.08" style="stroke:#000000;stroke-width:4.32"/>
	<line x1="749.93" y1="1010.08" x2="764.90" y2="1010.08" stroke-linecap="round" style="stroke:#000000;stroke-width:4.32"/>
	<line x1="749.93" y1="1313.40" x2="764.90" y2="1313.40" stroke-linecap="round" style="stroke:#000000;stroke-width:4.32"/>
	<line x1="804.50" y1="1528.98" x2="804.50" y2="1219.35" style="stroke:#000000;stroke-width:4.32"/>
	<line x1="796.95" y1="1219.35" x2="811.92" y2="1219.35" stroke-linecap="round" style="stroke:#000000;stroke-width:4.32"/>
	<line x1="796.95" y1="1528.98" x2="811.92" y2="1528.98" stroke-linecap="round" style="stroke:#000000;stroke-width:4.32"/>
	<line x1="1194.19" y1="1195.83" x2="1194.19" y2="911.82" style="stroke:#000000;stroke-width:4.32"/>
	<line x1="1186.64" y1="911.82" x2="1201.61" y2="911.82" stroke-linecap="round" style="stroke:#000000;stroke-width:4.32"/>
	<line x1="1186.64" y1="1195.83" x2="1201.61" y2="1195.83" stroke-linecap="round" style="stroke:#000000;stroke-width:4.32"/>
	<line x1="761.43" y1="1448.17" x2="761.43" y2="1146.95" style="stroke:#000000;stroke-width:4.32"/>
	<line x1="753.89" y1="1146.95" x2="768.86" y2="1146.95" stroke-linecap="round" style="stroke:#000000;stroke-width:4.32"/>
	<line x1="753.89" y1="1448.17" x2="768.86" y2="1448.17" stroke-linecap="round" style="stroke:#000000;stroke-width:4.32"/>
	<line x1="1043.58" y1="1376.89" x2="1043.58" y2="865.78" style="stroke:#000000;stroke-width:4.32"/>
	<line x1="1036.04" y1="865.78" x2="1051.01" y2="865.78" stroke-linecap="round" style="stroke:#000000;stroke-width:4.32"/>
	<line x1="1036.04" y1="1376.89" x2="1051.01" y2="1376.89" stroke-linecap="round" style="stroke:#000000;stroke-width:4.32"/>
	<line x1="770.84" y1="1487.15" x2="770.84" y2="1195.71" style="stroke:#000000;stroke-width:4.32"/>
	<line x1="763.29" y1="1195.71" x2="778.26" y2="1195.71" stroke-linecap="round" style="stroke:#000000;stroke-width:4.32"/>
	<line x1="763.29" y1="1487.15" x2="778.26" y2="1487.15" stroke-linecap="round" style="stroke:#000000;stroke-width:4.32"/>
	<line x1="949.53" y1="1608.06" x2="949.53" y2="1282.34" style="stroke:#000000;stroke-width:4.32"/>
	<line x1="941.99" y1="1282.34" x2="956.96" y2="1282.34" stroke-linecap="round" style="stroke:#000000;stroke-width:4.32"/>
	<line x1="941.99" y1="1608.06" x2="956.96" y2="1608.06" stroke-linecap="round" style="stroke:#000000;stroke-width:4.32"/>
	<line x1="1145.80" y1="1298.18" x2="1145.80" y2="990.77" style="stroke:#000000;stroke-width:4.32"/>
	<line x1="1138.25" y1="990.77" x2="1153.23" y2="990.77" stroke-linecap="round" style="stroke:#000000;stroke-width:4.32"/>
	<line x1="1138.25" y1="1298.18" x2="1153.23" y2="1298.18" stroke-linecap="round" style="stroke:#000000;stroke-width:4.32"/>
	<line x1="1034.18" y1="1608.68" x2="1034.18" y2="1053.15" style="stroke:#000000;stroke-width:4.32"/>
	<line x1="1026.63" y1="1053.15" x2="1041.60" y2="1053.15" stroke-linecap="round" style="stroke:#000000;stroke-width:4.32"/>
	<line x1="1026.63" y1="1608.68" x2="1041.60" y2="1608.68" stroke-linecap="round" style="stroke:#000000;stroke-width:4.32"/>
	<line x1="856.85" y1="1357.33" x2="856.85" y2="867.39" style="stroke:#000000;stroke-width:4.32"/>
	<line x1="849.30" y1="867.39" x2="864.27" y2="867.39" stroke-linecap="round" style="stroke:#000000;stroke-width:4.32"/>
	<line x1="849.30" y1="1357.33" x2="864.27" y2="1357.33" stroke-linecap="round" style="stroke:#000000;stroke-width:4.32"/>
	<line x1="1527.45" y1="1159.33" x2="1527.45" y2="841.16" style="stroke:#000000;stroke-width:4.32"/>
	<line x1="1519.90" y1="841.16" x2="1534.87" y2="841.16" stroke-linecap="round" style="stroke:#000000;stroke-width:4.32"/>
	<line x1="1519.90" y1="1159.33" x2="1534.87" y2="1159.33" stroke-linecap="round" style="stroke:#000000;stroke-width:4.32"/>
	<line x1="3461.16" y1="895.48" x2="3461.16" y2="466.55" style="stroke:#000000;stroke-width:4.32"/>
	<line x1="3453.62" y1="466.55" x2="3468.59" y2="466.55" stroke-linecap="round" style="stroke:#000000;stroke-width:4.32"/>
	<line x1="3453.62" y1="895.48" x2="3468.59" y2="895.48" stroke-linecap="round" style="stroke:#000000;stroke-width:4.32"/>
	<line x1="805.74" y1="1811.63" x2="805.74" y2="1524.15" style="stroke:#000000;stroke-width:4.32"/>
	<line x1="798.19" y1="1524.15" x2="813.16" y2="1524.15" stroke-linecap="round" style="stroke:#000000;stroke-width:4.32"/>
	<line x1="798.19" y1="1811.63" x2="813.16" y2="1811.63" stroke-linecap="round" style="stroke:#000000;stroke-width:4.32"/>
	<line x1="961.66" y1="1538.26" x2="961.66" y2="1128.26" style="stroke:#000000;stroke-width:4.32"/>
	<line x1="954.11" y1="1128.26" x2="969.09" y2="1128.26" stroke-linecap="round" style="stroke:#000000;stroke-width:4.32"/>
	<line x1="954.11" y1="1538.26" x2="969.09" y2="1538.26" stroke-linecap="round" style="stroke:#000000;stroke-width:4.32"/>
	<line x1="762.80" y1="1369.21" x2="762.80" y2="1091.88" style="stroke:#000000;stroke-width:4.32"/>
	<line x1="755.25" y1="1091.88" x2="770.22" y2="1091.88" stroke-linecap="round" style="stroke:#000000;stroke-width:4.32"/>
	<line x1="755.25" y1="1369.21" x2="770.22" y2="1369.21" stroke-linecap="round" style="stroke:#000000;stroke-width:4.32"/>
	<line x1="925.40" y1="1375.15" x2="925.40" y2="1086.31" style="stroke:#000000;stroke-width:4.32"/>
	<line x1="917.85" y1="1086.31" x2="932.83" y2="1086.31" stroke-linecap="round" style="stroke:#000000;stroke-width:4.32"/>
	<line x1="917.85" y1="1375.15" x2="932.83" y2="1375.15" stroke-linecap="round" style="stroke:#000000;stroke-width:4.32"/>
	<line x1="2398.15" y1="1063.05" x2="2398.15" y2="682.63" style="stroke:#000000;stroke-width:4.32"/>
	<line x1="2390.60" y1="682.63" x2="2405.58" y2="682.63" stroke-linecap="round" style="stroke:#000000;stroke-width:4.32"/>
	<line x1="2390.60" y1="1063.05" x2="2405.58" y2="1063.05" stroke-linecap="round" style="stroke:#000000;stroke-width:4.32"/>
	<line x1="1466.93" y1="1431.09" x2="1466.93" y2="854.89" style="stroke:#000000;stroke-width:4.32"/>
	<line x1="1459.38" y1="854.89" x2="1474.36" y2="854.89" stroke-linecap="round" style="stroke:#000000;stroke-width:4.32"/>
	<line x1="1459.38" y1="1431.09" x2="1474.36" y2="1431.09" stroke-linecap="round" style="stroke:#000000;stroke-width:4.32"/>
	<line x1="2587.61" y1="823.83" x2="2587.61" y2="475.71" style="stroke:#000000;stroke-width:4.32"/>
	<line x1="2580.06" y1="475.71" x2="2595.04" y2="475.71" stroke-linecap="round" style="stroke:#000000;stroke-width:4.32"/>
	<line x1="2580.06" y1="823.83" x2="2595.04" y2="823.83" stroke-linecap="round" style="stroke:#000000;stroke-width:4.32"/>
	<line x1="1022.18" y1="1372.93" x2="1022.18" y2="1084.95" style="stroke:#000000;stroke-width:4.32"/>
	<line x1="1014.63" y1="1084.95" x2="1029.60" y2="1084.95" stroke-linecap="round" style="stroke:#000000;stroke-width:4.32"/>
	<line x1="1014.63" y1="1372.93" x2="1029.60" y2="1372.93" stroke-linecap="round" style="stroke:#000000;stroke-width:4.32"/>
	<line x1="2679.06" y1="780.76" x2="2679.06" y2="433.26" style="stroke:#000000;stroke-width:4.32"/>
	<line x1="2671.52" y1="433.26" x2="2686.49" y2="433.26" stroke-linecap="round" style="stroke:#000000;stroke-width:4.32"/>
	<line x1="2671.52" y1="780.76" x2="2686.49" y2="780.76" stroke-linecap="round" style="stroke:#000000;stroke-width:4.32"/>
	<line x1="3404.73" y1="679.66" x2="3404.73" y2="164.22" style="stroke:#000000;stroke-width:4.32"/>
	<line x1="3397.19" y1="164.22" x2="3412.16" y2="164.22" stroke-linecap="round" style="stroke:#000000;stroke-width:4.32"/>
	<line x1="3397.19" y1="679.66" x2="3412.16" y2="679.66" stroke-linecap="round" style="stroke:#000000;stroke-width:4.32"/>
	<line x1="688.92" y1="1324.66" x2="688.92" y2="1034.95" style="stroke:#000000;stroke-width:4.32"/>
	<line x1="681.37" y1="1034.95" x2="696.34" y2="1034.95" stroke-linecap="round" style="stroke:#000000;stroke-width:4.32"/>
	<line x1="681.37" y1="1324.66" x2="696.34" y2="1324.66" stroke-linecap="round" style="stroke:#000000;stroke-width:4.32"/>
	<line x1="1049.03" y1="1432.70" x2="1049.03" y2="1139.40" style="stroke:#000000;stroke-width:4.32"/>
	<line x1="1041.48" y1="1139.40" x2="1056.45" y2="1139.40" stroke-linecap="round" style="stroke:#000000;stroke-width:4.32"/>
	<line x1="1041.48" y1="1432.70" x2="1056.45" y2="1432.70" stroke-linecap="round" style="stroke:#000000;stroke-width:4.32"/>
	<line x1="828.63" y1="1419.09" x2="828.63" y2="1137.05" style="stroke:#000000;stroke-width:4.32"/>
	<line x1="821.08" y1="1137.05" x2="836.06" y2="1137.05" stroke-linecap="round" style="stroke:#000000;stroke-width:4.32"/>
	<line x1="821.08" y1="1419.09" x2="836.06" y2="1419.09" stroke-linecap="round" style="stroke:#000000;stroke-width:4.32"/>
	<line x1="963.02" y1="1328.75" x2="963.02" y2="798.83" style="stroke:#000000;stroke-width:4.32"/>
	<line x1="955.47" y1="798.83" x2="970.45" y2="798.83" stroke-linecap="round" style="stroke:#000000;stroke-width:4.32"/>
	<line x1="955.47" y1="1328.75" x2="970.45" y2="1328.75" stroke-linecap="round" style="stroke:#000000;stroke-width:4.32"/>
	<line x1="843.36" y1="1490.62" x2="843.36" y2="1181.11" style="stroke:#000000;stroke-width:4.32"/>
	<line x1="835.81" y1="1181.11" x2="850.78" y2="1181.11" stroke-linecap="round" style="stroke:#000000;stroke-width:4.32"/>
	<line x1="835.81" y1="1490.62" x2="850.78" y2="1490.62" stroke-linecap="round" style="stroke:#000000;stroke-width:4.32"/>
	<line x1="854.12" y1="1628.97" x2="854.12" y2="1316.37" style="stroke:#000000;stroke-width:4.32"/>
	<line x1="846.57" y1="1316.37" x2="861.55" y2="1316.37" stroke-linecap="round" style="stroke:#000000;stroke-width:4.32"/>
	<line x1="846.57" y1="1628.97" x2="861.55" y2="1628.97" stroke-linecap="round" style="stroke:#000000;stroke-width:4.32"/>
	<line x1="1585.24" y1="1195.21" x2="1585.24" y2="818.01" style="stroke:#000000;stroke-width:4.32"/>
	<line x1="1577.69" y1="818.01" x2="1592.66" y2="818.01" stroke-linecap="round" style="stroke:#000000;stroke-width:4.32"/>
	<line x1="1577.69" y1="1195.21" x2="1592.66" y2="1195.21" stroke-linecap="round" style="stroke:#000000;stroke-width:4.32"/>
	<line x1="1395.65" y1="1628.97" x2="1395.65" y2="1142.12" style="stroke:#000000;stroke-width:4.32"/>
	<line x1="1388.10" y1="1142.12" x2="1403.08" y2="1142.12" stroke-linecap="round" style="stroke:#000000;stroke-width:4.32"/>
	<line x1="1388.10" y1="1628.97" x2="1403.08" y2="1628.97" stroke-linecap="round" style="stroke:#000000;stroke-width:4.32"/>
	<rect x="851.16" y="1155.13" width="19.28" height="19.28" style="fill:#000000"/>
	<rect x="855.48" y="1159.45" width="10.64" height="10.64" style="fill:none;stroke:#000000;stroke-width:8.64"/>
	<rect x="2017.63" y="990.66" width="19.28" height="19.28" style="fill:#000000"/>
	<rect x="2021.95" y="994.98" width="10.64" height="10.64" style="fill:none;stroke:#000000;stroke-width:8.64"/>
	<rect x="1109.18" y="1127.78" width="19.28" height="19.28" style="fill:#000000"/>
	<rect x="1113.50" y="1132.10" width="10.64" height="10.64" style="fill:none;stroke:#000000;stroke-width:8.64"/>
	<rect x="788.05" y="1849.76" width="19.28" height="19.28" style="fill:#000000"/>
	<rect x="792.37" y="1854.08" width="10.64" height="10.64" style="fill:none;stroke:#000000;stroke-width:8.64"/>
	<rect x="1027.26" y="1441.62" width="19.28" height="19.28" style="fill:#000000"/>
	<rect x="1031.58" y="1445.94" width="10.64" height="10.64" style="fill:none;stroke:#000000;stroke-width:8.64"/>
	<rect x="1543.17" y="806.39" width="19.28" height="19.28" style="fill:#000000"/>
	<rect x="1547.49" y="810.71" width="10.64" height="10.64" style="fill:none;stroke:#000000;stroke-width:8.64"/>
	<rect x="1219.32" y="1104.51" width="19.28" height="19.28" style="fill:#000000"/>
	<rect x="1223.64" y="1108.83" width="10.64" height="10.64" style="fill:none;stroke:#000000;stroke-width:8.64"/>
	<rect x="890.15" y="1277.03" width="19.28" height="19.28" style="fill:#000000"/>
	<rect x="894.47" y="1281.35" width="10.64" height="10.64" style="fill:none;stroke:#000000;stroke-width:8.64"/>
	<rect x="930.49" y="1020.61" width="19.28" height="19.28" style="fill:#000000"/>
	<rect x="934.81" y="1024.93" width="10.64" height="10.64" style="fill:none;stroke:#000000;stroke-width:8.64"/>
	<rect x="829.63" y="1461.67" width="19.28" height="19.28" style="fill:#000000"/>
	<rect x="833.95" y="1465.99" width="10.64" height="10.64" style="fill:none;stroke:#000000;stroke-width:8.64"/>
	<rect x="753.03" y="1647.30" width="19.28" height="19.28" style="fill:#000000"/>
	<rect x="757.35" y="1651.62" width="10.64" height="10.64" style="fill:none;stroke:#000000;stroke-width:8.64"/>
	<rect x="888.78" y="1273.81" width="19.28" height="19.28" style="fill:#000000"/>
	<rect x="893.10" y="1278.13" width="10.64" height="10.64" style="fill:none;stroke:#000000;stroke-width:8.64"/>
	<rect x="1097.06" y="1278.64" width="19.28" height="19.28" style="fill:#000000"/>
	<rect x="1101.38" y="1282.96" width="10.64" height="10.64" style="fill:none;stroke:#000000;stroke-width:8.64"/>
	<rect x="1411.50" y="1106.62" width="19.28" height="19.28" style="fill:#000000"/>
	<rect x="1415.82" y="1110.94" width="10.64" height="10.64" style="fill:none;stroke:#000000;stroke-width:8.64"/>
	<rect x="2020.23" y="1065.41" width="19.28" height="19.28" style="fill:#000000"/>
	<rect x="2024.55" y="1069.73" width="10.64" height="10.64" style="fill:none;stroke:#000000;stroke-width:8.64"/>
	<rect x="1072.92" y="1155.13" width="19.28" height="19.28" style="fill:#000000"/>
	<rect x="1077.24" y="1159.45" width="10.64" height="10.64" style="fill:none;stroke:#000000;stroke-width:8.64"/>
	<rect x="1751.57" y="1148.57" width="19.28" height="19.28" style="fill:#000000"/>
	<rect x="1755.89" y="1152.89" width="10.64" height="10.64" style="fill:none;stroke:#000000;stroke-width:8.64"/>
	<rect x="878.02" y="1342.37" width="19.28" height="19.28" style="fill:#000000"/>
	<rect x="882.34" y="1346.69" width="10.64" height="10.64" style="fill:none;stroke:#000000;stroke-width:8.64"/>
	<rect x="1114.50" y="1210.82" width="19.28" height="19.28" style="fill:#000000"/>
	<rect x="1118.82" y="1215.14" width="10.64" height="10.64" style="fill:none;stroke:#000000;stroke-width:8.64"/>
	<rect x="1252.98" y="1052.04" width="19.28" height="19.28" style="fill:#000000"/>
	<rect x="1257.30" y="1056.36" width="10.64" height="10.64" style="fill:none;stroke:#000000;stroke-width:8.64"/>
	<rect x="1808.00" y="1053.28" width="19.28" height="19.28" style="fill:#000000"/>
	<rect x="1812.32" y="1057.60" width="10.64" height="10.64" style="fill:none;stroke:#000000;stroke-width:8.64"/>
	<rect x="1300.01" y="1096.84" width="19.28" height="19.28" style="fill:#000000"/>
	<rect x="1304.33" y="1101.16" width="10.64" height="10.64" style="fill:none;stroke:#000000;stroke-width:8.64"/>
	<rect x="714.17" y="1290.15" width="19.28" height="19.28" style="fill:#000000"/>
	<rect x="718.49" y="1294.47" width="10.64" height="10.64" style="fill:none;stroke:#000000;stroke-width:8.64"/>
	<rect x="945.21" y="1278.76" width="19.28" height="19.28" style="fill:#000000"/>
	<rect x="949.53" y="1283.08" width="10.64" height="10.64" style="fill:none;stroke:#000000;stroke-width:8.64"/>
	<rect x="844.48" y="1392.12" width="19.28" height="19.28" style="fill:#000000"/>
	<rect x="848.80" y="1396.44" width="10.64" height="10.64" style="fill:none;stroke:#000000;stroke-width:8.64"/>
	<rect x="1083.69" y="1294.60" width="19.28" height="19.28" style="fill:#000000"/>
	<rect x="1088.01" y="1298.92" width="10.64" height="10.64" style="fill:none;stroke:#000000;stroke-width:8.64"/>
	<rect x="676.43" y="1452.88" width="19.28" height="19.28" style="fill:#000000"/>
	<rect x="680.75" y="1457.20" width="10.64" height="10.64" style="fill:none;stroke:#000000;stroke-width:8.64"/>
	<rect x="828.39" y="1304.87" width="19.28" height="19.28" style="fill:#000000"/>
	<rect x="832.71" y="1309.19" width="10.64" height="10.64" style="fill:none;stroke:#000000;stroke-width:8.64"/>
	<rect x="828.39" y="1287.42" width="19.28" height="19.28" style="fill:#000000"/>
	<rect x="832.71" y="1291.74" width="10.64" height="10.64" style="fill:none;stroke:#000000;stroke-width:8.64"/>
	<rect x="1289.24" y="1160.20" width="19.28" height="19.28" style="fill:#000000"/>
	<rect x="1293.56" y="1164.52" width="10.64" height="10.64" style="fill:none;stroke:#000000;stroke-width:8.64"/>
	<rect x="910.32" y="1278.27" width="19.28" height="19.28" style="fill:#000000"/>
	<rect x="914.64" y="1282.59" width="10.64" height="10.64" style="fill:none;stroke:#000000;stroke-width:8.64"/>
	<rect x="871.34" y="1538.52" width="19.28" height="19.28" style="fill:#000000"/>
	<rect x="875.66" y="1542.84" width="10.64" height="10.64" style="fill:none;stroke:#000000;stroke-width:8.64"/>
	<rect x="747.71" y="1152.16" width="19.28" height="19.28" style="fill:#000000"/>
	<rect x="752.03" y="1156.48" width="10.64" height="10.64" style="fill:none;stroke:#000000;stroke-width:8.64"/>
	<rect x="794.73" y="1364.65" width="19.28" height="19.28" style="fill:#000000"/>
	<rect x="799.05" y="1368.97" width="10.64" height="10.64" style="fill:none;stroke:#000000;stroke-width:8.64"/>
	<rect x="1184.42" y="1044.25" width="19.28" height="19.28" style="fill:#000000"/>
	<rect x="1188.74" y="1048.57" width="10.64" height="10.64" style="fill:none;stroke:#000000;stroke-width:8.64"/>
	<rect x="751.79" y="1288.04" width="19.28" height="19.28" style="fill:#000000"/>
	<rect x="756.11" y="1292.36" width="10.64" height="10.64" style="fill:none;stroke:#000000;stroke-width:8.64"/>
	<rect x="1033.94" y="1111.82" width="19.28" height="19.28" style="fill:#000000"/>
	<rect x="1038.26" y="1116.14" width="10.64" height="10.64" style="fill:none;stroke:#000000;stroke-width:8.64"/>
	<rect x="761.20" y="1331.85" width="19.28" height="19.28" style="fill:#000000"/>
	<rect x="765.52" y="1336.17" width="10.64" height="10.64" style="fill:none;stroke:#000000;stroke-width:8.64"/>
	<rect x="939.89" y="1435.68" width="19.28" height="19.28" style="fill:#000000"/>
	<rect x="944.21" y="1440.00" width="10.64" height="10.64" style="fill:none;stroke:#000000;stroke-width:8.64"/>
	<rect x="1136.04" y="1134.83" width="19.28" height="19.28" style="fill:#000000"/>
	<rect x="1140.36" y="1139.15" width="10.64" height="10.64" style="fill:none;stroke:#000000;stroke-width:8.64"/>
	<rect x="1024.54" y="1321.33" width="19.28" height="19.28" style="fill:#000000"/>
	<rect x="1028.86" y="1325.65" width="10.64" height="10.64" style="fill:none;stroke:#000000;stroke-width:8.64"/>
	<rect x="847.20" y="1102.78" width="19.28" height="19.28" style="fill:#000000"/>
	<rect x="851.52" y="1107.10" width="10.64" height="10.64" style="fill:none;stroke:#000000;stroke-width:8.64"/>
	<rect x="1517.68" y="990.66" width="19.28" height="19.28" style="fill:#000000"/>
	<rect x="1522.00" y="994.98" width="10.64" height="10.64" style="fill:none;stroke:#000000;stroke-width:8.64"/>
	<rect x="3451.40" y="671.50" width="19.28" height="19.28" style="fill:#000000"/>
	<rect x="3455.72" y="675.82" width="10.64" height="10.64" style="fill:none;stroke:#000000;stroke-width:8.64"/>
	<rect x="796.10" y="1658.31" width="19.28" height="19.28" style="fill:#000000"/>
	<rect x="800.42" y="1662.63" width="10.64" height="10.64" style="fill:none;stroke:#000000;stroke-width:8.64"/>
	<rect x="952.02" y="1323.68" width="19.28" height="19.28" style="fill:#000000"/>
	<rect x="956.34" y="1328.00" width="10.64" height="10.64" style="fill:none;stroke:#000000;stroke-width:8.64"/>
	<rect x="753.03" y="1220.97" width="19.28" height="19.28" style="fill:#000000"/>
	<rect x="757.35" y="1225.29" width="10.64" height="10.64" style="fill:none;stroke:#000000;stroke-width:8.64"/>
	<rect x="915.64" y="1221.09" width="19.28" height="19.28" style="fill:#000000"/>
	<rect x="919.96" y="1225.41" width="10.64" height="10.64" style="fill:none;stroke:#000000;stroke-width:8.64"/>
	<rect x="2388.51" y="863.32" width="19.28" height="19.28" style="fill:#000000"/>
	<rect x="2392.83" y="867.64" width="10.64" height="10.64" style="fill:none;stroke:#000000;stroke-width:8.64"/>
	<rect x="1457.29" y="1133.35" width="19.28" height="19.28" style="fill:#000000"/>
	<rect x="1461.61" y="1137.67" width="10.64" height="10.64" style="fill:none;stroke:#000000;stroke-width:8.64"/>
	<rect x="2577.97" y="640.19" width="19.28" height="19.28" style="fill:#000000"/>
	<rect x="2582.29" y="644.51" width="10.64" height="10.64" style="fill:none;stroke:#000000;stroke-width:8.64"/>
	<rect x="1012.41" y="1219.36" width="19.28" height="19.28" style="fill:#000000"/>
	<rect x="1016.73" y="1223.68" width="10.64" height="10.64" style="fill:none;stroke:#000000;stroke-width:8.64"/>
	<rect x="2669.30" y="597.50" width="19.28" height="19.28" style="fill:#000000"/>
	<rect x="2673.62" y="601.82" width="10.64" height="10.64" style="fill:none;stroke:#000000;stroke-width:8.64"/>
	<rect x="3394.97" y="412.36" width="19.28" height="19.28" style="fill:#000000"/>
	<rect x="3399.29" y="416.68" width="10.64" height="10.64" style="fill:none;stroke:#000000;stroke-width:8.64"/>
	<rect x="679.15" y="1170.23" width="19.28" height="19.28" style="fill:#000000"/>
	<rect x="683.47" y="1174.55" width="10.64" height="10.64" style="fill:none;stroke:#000000;stroke-width:8.64"/>
	<rect x="1039.26" y="1276.53" width="19.28" height="19.28" style="fill:#000000"/>
	<rect x="1043.58" y="1280.85" width="10.64" height="10.64" style="fill:none;stroke:#000000;stroke-width:8.64"/>
	<rect x="818.99" y="1268.49" width="19.28" height="19.28" style="fill:#000000"/>
	<rect x="823.31" y="1272.81" width="10.64" height="10.64" style="fill:none;stroke:#000000;stroke-width:8.64"/>
	<rect x="953.26" y="1054.27" width="19.28" height="19.28" style="fill:#000000"/>
	<rect x="957.58" y="1058.59" width="10.64" height="10.64" style="fill:none;stroke:#000000;stroke-width:8.64"/>
	<rect x="833.72" y="1326.28" width="19.28" height="19.28" style="fill:#000000"/>
	<rect x="838.04" y="1330.60" width="10.64" height="10.64" style="fill:none;stroke:#000000;stroke-width:8.64"/>
	<rect x="844.48" y="1463.03" width="19.28" height="19.28" style="fill:#000000"/>
	<rect x="848.80" y="1467.35" width="10.64" height="10.64" style="fill:none;stroke:#000000;stroke-width:8.64"/>
	<rect x="1575.47" y="996.97" width="19.28" height="19.28" style="fill:#000000"/>
	<rect x="1579.79" y="1001.29" width="10.64" height="10.64" style="fill:none;stroke:#000000;stroke-width:8.64"/>
	<rect x="1386.01" y="1376.03" width="19.28" height="19.28" style="fill:#000000"/>
	<rect x="1390.33" y="1380.35" width="10.64" height="10.64" style="fill:none;stroke:#000000;stroke-width:8.64"/>
	<line x1="372.86" y1="2233.63" x2="372.86" y2="100.86" style="stroke:#000000;stroke-width:5.76"/>
	<line x1="372.86" y1="2170.27" x2="332.89" y2="2170.27" style="stroke:#000000;stroke-width:5.76"/>
	<text x="282.78" y="2170.27" style="font-family:'Helvetica';font-size:99.99px;fill:#000000" transform="rotate(-90 282.78,2170.27)" text-anchor="middle">-.1</text>
	<line x1="372.86" y1="1782.30" x2="332.89" y2="1782.30" style="stroke:#000000;stroke-width:5.76"/>
	<text x="282.78" y="1782.30" style="font-family:'Helvetica';font-size:99.99px;fill:#000000" transform="rotate(-90 282.78,1782.30)" text-anchor="middle">-.05</text>
	<line x1="372.86" y1="1394.33" x2="332.89" y2="1394.33" style="stroke:#000000;stroke-width:5.76"/>
	<text x="282.78" y="1394.33" style="font-family:'Helvetica';font-size:99.99px;fill:#000000" transform="rotate(-90 282.78,1394.33)" text-anchor="middle">0</text>
	<line x1="372.86" y1="1006.24" x2="332.89" y2="1006.24" style="stroke:#000000;stroke-width:5.76"/>
	<text x="282.78" y="1006.24" style="font-family:'Helvetica';font-size:99.99px;fill:#000000" transform="rotate(-90 282.78,1006.24)" text-anchor="middle">.05</text>
	<line x1="372.86" y1="618.27" x2="332.89" y2="618.27" style="stroke:#000000;stroke-width:5.76"/>
	<text x="282.78" y="618.27" style="font-family:'Helvetica';font-size:99.99px;fill:#000000" transform="rotate(-90 282.78,618.27)" text-anchor="middle">.1</text>
	<line x1="372.86" y1="230.18" x2="332.89" y2="230.18" style="stroke:#000000;stroke-width:5.76"/>
	<text x="282.78" y="230.18" style="font-family:'Helvetica';font-size:99.99px;fill:#000000" transform="rotate(-90 282.78,230.18)" text-anchor="middle">.15</text>
	<text x="190.71" y="1167.25" style="font-family:'Helvetica';font-size:99.99px;fill:#000000" transform="rotate(-90 190.71,1167.25)" text-anchor="middle">Instrument-outcome associations</text>
	<line x1="372.86" y1="2233.63" x2="3859.02" y2="2233.63" style="stroke:#000000;stroke-width:5.76"/>
	<line x1="436.22" y1="2233.63" x2="436.22" y2="2273.73" style="stroke:#000000;stroke-width:5.76"/>
	<text x="436.22" y="2363.59" style="font-family:'Helvetica';font-size:99.99px;fill:#000000" text-anchor="middle">0</text>
	<line x1="1108.18" y1="2233.63" x2="1108.18" y2="2273.73" style="stroke:#000000;stroke-width:5.76"/>
	<text x="1108.18" y="2363.59" style="font-family:'Helvetica';font-size:99.99px;fill:#000000" text-anchor="middle">.05</text>
	<line x1="1780.02" y1="2233.63" x2="1780.02" y2="2273.73" style="stroke:#000000;stroke-width:5.76"/>
	<text x="1780.02" y="2363.59" style="font-family:'Helvetica';font-size:99.99px;fill:#000000" text-anchor="middle">.1</text>
	<line x1="2451.98" y1="2233.63" x2="2451.98" y2="2273.73" style="stroke:#000000;stroke-width:5.76"/>
	<text x="2451.98" y="2363.59" style="font-family:'Helvetica';font-size:99.99px;fill:#000000" text-anchor="middle">.15</text>
	<line x1="3123.82" y1="2233.63" x2="3123.82" y2="2273.73" style="stroke:#000000;stroke-width:5.76"/>
	<text x="3123.82" y="2363.59" style="font-family:'Helvetica';font-size:99.99px;fill:#000000" text-anchor="middle">.2</text>
	<line x1="3795.78" y1="2233.63" x2="3795.78" y2="2273.73" style="stroke:#000000;stroke-width:5.76"/>
	<text x="3795.78" y="2363.59" style="font-family:'Helvetica';font-size:99.99px;fill:#000000" text-anchor="middle">.25</text>
	<text x="2116.00" y="2473.60" style="font-family:'Helvetica';font-size:99.99px;fill:#000000" text-anchor="middle">Instrument-exposure associations</text>
	<rect x="407.51" y="2558.24" width="3416.99" height="186.37" style="fill:#FFFFFF"/>
	<rect x="410.39" y="2561.12" width="3411.23" height="180.61" style="fill:none;stroke:#000000;stroke-width:5.76"/>
	<rect x="447.99" y="2641.79" width="19.28" height="19.28" style="fill:#000000"/>
	<rect x="452.31" y="2646.11" width="10.64" height="10.64" style="fill:none;stroke:#000000;stroke-width:8.64"/>
	<line x1="1048.53" y1="2651.43" x2="1398.87" y2="2651.43" style="stroke:#000000;stroke-width:4.32"/>
	<line x1="1048.53" y1="2658.98" x2="1048.53" y2="2644.00" style="stroke:#000000;stroke-width:4.32"/>
	<line x1="1398.87" y1="2658.98" x2="1398.87" y2="2644.00" style="stroke:#000000;stroke-width:4.32"/>
	<line x1="1875.06" y1="2651.43" x2="2225.40" y2="2651.43" style="stroke:#000000;stroke-width:8.64"/>
	<rect x="2757.40" y="2601.43" width="350.21" height="99.99" style="fill:#E6E6E6"/>
	<rect x="2759.56" y="2603.59" width="345.89" height="95.67" style="fill:none;stroke:#C0C0C0;stroke-width:4.32"/>
	<text x="520.86" y="2679.44" style="font-family:'Helvetica';font-size:79.94px;fill:#000000">Instruments</text>
	<text x="1454.93" y="2679.44" style="font-family:'Helvetica';font-size:79.94px;fill:#000000">95% CIs</text>
	<text x="2281.46" y="2679.44" style="font-family:'Helvetica';font-size:79.94px;fill:#000000">MR-Egger</text>
	<text x="3163.79" y="2679.44" style="font-family:'Helvetica';font-size:79.94px;fill:#000000">MR-Egger 95% CI</text>
</svg>
