<?xml version="1.0" encoding="UTF-8" standalone="no"?>
<!-- This is a Stata 17.0 generated SVG file (http://www.stata.com) -->

<svg version="1.1" width="600px" height="436px" viewBox="0 0 3960 2880" xmlns="http://www.w3.org/2000/svg" xmlns:xlink="http://www.w3.org/1999/xlink">
	<desc>Stata Graph - Graph</desc>
	<rect x="0" y="0" width="3960" height="2880" style="fill:#EAF2F3;stroke:none"/>
	<rect x="0.00" y="0.00" width="3959.88" height="2880.00" style="fill:#FFFFFF"/>
	<rect x="2.88" y="2.88" width="3954.12" height="2874.24" style="fill:none;stroke:#FFFFFF;stroke-width:5.76"/>
	<rect x="369.02" y="100.86" width="3490.00" height="2132.77" style="fill:#FFFFFF"/>
	<rect x="371.90" y="103.74" width="3484.24" height="2127.01" style="fill:none;stroke:#FFFFFF;stroke-width:5.76"/>
	<line x1="369.02" y1="2170.27" x2="3859.02" y2="2170.27" style="stroke:#EAF2F3;stroke-width:8.64"/>
	<line x1="369.02" y1="1782.30" x2="3859.02" y2="1782.30" style="stroke:#EAF2F3;stroke-width:8.64"/>
	<line x1="369.02" y1="1394.33" x2="3859.02" y2="1394.33" style="stroke:#EAF2F3;stroke-width:8.64"/>
	<line x1="369.02" y1="1006.24" x2="3859.02" y2="1006.24" style="stroke:#EAF2F3;stroke-width:8.64"/>
	<line x1="369.02" y1="618.27" x2="3859.02" y2="618.27" style="stroke:#EAF2F3;stroke-width:8.64"/>
	<line x1="369.02" y1="230.18" x2="3859.02" y2="230.18" style="stroke:#EAF2F3;stroke-width:8.64"/>
	<defs>
		<path id="path_TUUcQeSS" d="M682.61 1433.19 L682.61 1433.19 L710.70 1422.43 L738.66 1411.78 L766.76 1401.14 L794.85 1390.62 L822.94 1380.10 L850.91 1369.71 L879.00 1359.31 L907.09 1349.04 L935.18 1338.89 L963.15 1328.75 L991.24 1318.72 L1019.33 1308.82 L1047.42 1299.04 L1075.51 1289.39 L1103.48 1279.74 L1131.57 1270.33 L1159.66 1260.93 L1187.75 1251.65 L1215.72 1242.37 L1243.81 1233.33 L1271.90 1224.30 L1299.99 1215.51 L1327.96 1206.72 L1356.05 1197.94 L1384.14 1189.27 L1412.24 1180.74 L1440.20 1172.32 L1468.29 1163.91 L1496.39 1155.49 L1524.48 1147.20 L1552.57 1139.03 L1580.54 1130.74 L1608.63 1122.70 L1636.72 1114.53 L1664.81 1106.48 L1692.78 1098.44 L1720.87 1090.40 L1748.96 1082.48 L1777.05 1074.55 L1805.02 1066.63 L1833.11 1058.71 L1861.20 1050.92 L1889.29 1043.00 L1917.26 1035.20 L1945.35 1027.40 L1973.44 1019.61 L2001.53 1011.81 L2029.50 1004.14 L2057.59 996.34 L2085.68 988.67 L2113.77 980.87 L2141.86 973.20 L2169.83 965.53 L2197.92 957.85 L2226.02 950.18 L2254.11 942.51 L2282.07 934.84 L2310.17 927.16 L2338.26 919.49 L2366.35 911.82 L2394.32 904.27 L2422.41 896.60 L2450.50 889.05 L2478.59 881.38 L2506.56 873.83 L2534.65 866.15 L2562.74 858.60 L2590.83 850.93 L2618.92 843.38 L2646.89 835.83 L2674.98 828.16 L2703.07 820.61 L2731.16 813.06 L2759.13 805.51 L2787.22 797.84 L2815.31 790.29 L2843.40 782.74 L2871.37 775.19 L2899.46 767.65 L2927.55 760.10 L2955.65 752.55 L2983.61 745.00 L3011.70 737.45 L3039.80 729.90 L3067.89 722.35 L3095.98 714.80 L3123.95 707.25 L3152.04 699.70 L3180.13 692.16 L3208.22 684.61 L3236.19 677.06 L3264.28 669.51 L3292.37 662.08 L3320.46 654.53 L3348.43 646.99 L3376.52 639.44 L3404.61 631.89 L3432.70 624.34 L3460.67 616.91 L3460.67 274.61 L3432.70 286.12 L3404.61 297.50 L3376.52 308.89 L3348.43 320.40 L3320.46 331.78 L3292.37 343.17 L3264.28 354.68 L3236.19 366.06 L3208.22 377.45 L3180.13 388.83 L3152.04 400.34 L3123.95 411.73 L3095.98 423.11 L3067.89 434.50 L3039.80 445.89 L3011.70 457.39 L2983.61 468.78 L2955.65 480.17 L2927.55 491.55 L2899.46 502.94 L2871.37 514.32 L2843.40 525.71 L2815.31 537.09 L2787.22 548.48 L2759.13 559.86 L2731.16 571.25 L2703.07 582.63 L2674.98 594.02 L2646.89 605.40 L2618.92 616.79 L2590.83 628.05 L2562.74 639.44 L2534.65 650.82 L2506.56 662.21 L2478.59 673.47 L2450.50 684.85 L2422.41 696.12 L2394.32 707.50 L2366.35 718.76 L2338.26 730.15 L2310.17 741.41 L2282.07 752.67 L2254.11 764.06 L2226.02 775.32 L2197.92 786.58 L2169.83 797.84 L2141.86 809.10 L2113.77 820.36 L2085.68 831.63 L2057.59 842.76 L2029.50 854.03 L2001.53 865.16 L1973.44 876.42 L1945.35 887.56 L1917.26 898.70 L1889.29 909.84 L1861.20 920.98 L1833.11 931.99 L1805.02 943.13 L1777.05 954.14 L1748.96 965.16 L1720.87 976.17 L1692.78 987.06 L1664.81 998.07 L1636.72 1008.97 L1608.63 1019.73 L1580.54 1030.62 L1552.57 1041.27 L1524.48 1052.03 L1496.39 1062.67 L1468.29 1073.32 L1440.20 1083.84 L1412.24 1094.23 L1384.14 1104.75 L1356.05 1115.02 L1327.96 1125.29 L1299.99 1135.44 L1271.90 1145.47 L1243.81 1155.49 L1215.72 1165.27 L1187.75 1175.04 L1159.66 1184.70 L1131.57 1194.35 L1103.48 1203.75 L1075.51 1213.16 L1047.42 1222.44 L1019.33 1231.47 L991.24 1240.63 L963.15 1249.54 L935.18 1258.33 L907.09 1267.12 L879.00 1275.78 L850.91 1284.44 L822.94 1292.98 L794.85 1301.40 L766.76 1309.81 L738.66 1318.23 L710.70 1326.39 L682.61 1334.69 L682.61 1433.19 Z" stroke-linejoin="round"/>
	</defs>
	<defs>
		<clipPath id="clipPath_dZdQMbkH">
			<use xlink:href="#path_TUUcQeSS"/>
		</clipPath>
	</defs>
	<use xlink:href="#path_TUUcQeSS" style="stroke:none;fill:#E6E6E6"/>
	<use xlink:href="#path_TUUcQeSS" style="fill:none;stroke:#C0C0C0;stroke-width:8.64" clip-path="url(#clipPath_dZdQMbkH)"/>
	<path d=" M682.48 1383.94 L685.20 1383.07 L720.23 1371.32 L753.76 1359.93 L757.85 1358.57 L759.21 1358.07 L759.21 1358.07 L767.25 1355.35 L794.23 1346.32 L800.91 1343.97 L802.27 1343.60 L825.17 1335.80 L834.57 1332.58 L834.57 1332.58 L835.93 1332.21 L839.89 1330.85 L850.66 1327.14 L850.66 1327.14 L853.38 1326.27 L857.46 1324.91 L877.64 1318.10 L884.32 1315.87 L895.08 1312.16 L896.45 1311.79 L916.62 1304.98 L921.94 1303.13 L936.79 1298.05 L946.19 1294.96 L951.64 1293.10 L958.32 1290.88 L959.68 1290.38 L1018.83 1270.46 L1030.96 1266.37 L1033.68 1265.38 L1040.37 1263.16 L1045.81 1261.30 L1079.35 1249.91 L1090.11 1246.33 L1103.60 1241.75 L1115.73 1237.66 L1121.05 1235.93 L1142.58 1228.63 L1191.09 1212.29 L1225.99 1200.41 L1259.65 1189.03 L1296.03 1176.78 L1306.80 1173.19 L1392.81 1144.10 L1418.42 1135.44 L1464.21 1119.97 L1524.72 1099.55 L1550.22 1090.89 L1582.52 1080.00 L1758.86 1020.47 L1815.29 1001.42 L2025.17 930.63 L2027.89 929.64 L2396.54 805.14 L2586.25 741.16 L2677.70 710.22 L3404.12 464.94 L3460.67 445.89" stroke-linejoin="round" style="fill:none;stroke:#000000;stroke-width:8.64"/>
	<line x1="857.46" y1="1338.15" x2="857.46" y2="991.39" style="stroke:#000000;stroke-width:4.32"/>
	<line x1="849.92" y1="991.39" x2="864.89" y2="991.39" stroke-linecap="round" style="stroke:#000000;stroke-width:4.32"/>
	<line x1="849.92" y1="1338.15" x2="864.89" y2="1338.15" stroke-linecap="round" style="stroke:#000000;stroke-width:4.32"/>
	<line x1="2025.29" y1="1261.67" x2="2025.29" y2="738.81" style="stroke:#000000;stroke-width:4.32"/>
	<line x1="2017.74" y1="738.81" x2="2032.72" y2="738.81" stroke-linecap="round" style="stroke:#000000;stroke-width:4.32"/>
	<line x1="2017.74" y1="1261.67" x2="2032.72" y2="1261.67" stroke-linecap="round" style="stroke:#000000;stroke-width:4.32"/>
	<line x1="1115.73" y1="1424.16" x2="1115.73" y2="850.68" style="stroke:#000000;stroke-width:4.32"/>
	<line x1="1108.18" y1="850.68" x2="1123.16" y2="850.68" stroke-linecap="round" style="stroke:#000000;stroke-width:4.32"/>
	<line x1="1108.18" y1="1424.16" x2="1123.16" y2="1424.16" stroke-linecap="round" style="stroke:#000000;stroke-width:4.32"/>
	<line x1="794.23" y1="2022.88" x2="794.23" y2="1695.80" style="stroke:#000000;stroke-width:4.32"/>
	<line x1="786.68" y1="1695.80" x2="801.65" y2="1695.80" stroke-linecap="round" style="stroke:#000000;stroke-width:4.32"/>
	<line x1="786.68" y1="2022.88" x2="801.65" y2="2022.88" stroke-linecap="round" style="stroke:#000000;stroke-width:4.32"/>
	<line x1="1033.68" y1="1610.90" x2="1033.68" y2="1291.50" style="stroke:#000000;stroke-width:4.32"/>
	<line x1="1026.14" y1="1291.50" x2="1041.11" y2="1291.50" stroke-linecap="round" style="stroke:#000000;stroke-width:4.32"/>
	<line x1="1026.14" y1="1610.90" x2="1041.11" y2="1610.90" stroke-linecap="round" style="stroke:#000000;stroke-width:4.32"/>
	<line x1="1550.34" y1="1018.99" x2="1550.34" y2="612.95" style="stroke:#000000;stroke-width:4.32"/>
	<line x1="1542.79" y1="612.95" x2="1557.77" y2="612.95" stroke-linecap="round" style="stroke:#000000;stroke-width:4.32"/>
	<line x1="1542.79" y1="1018.99" x2="1557.77" y2="1018.99" stroke-linecap="round" style="stroke:#000000;stroke-width:4.32"/>
	<line x1="1226.12" y1="1309.07" x2="1226.12" y2="919.12" style="stroke:#000000;stroke-width:4.32"/>
	<line x1="1218.57" y1="919.12" x2="1233.54" y2="919.12" stroke-linecap="round" style="stroke:#000000;stroke-width:4.32"/>
	<line x1="1218.57" y1="1309.07" x2="1233.54" y2="1309.07" stroke-linecap="round" style="stroke:#000000;stroke-width:4.32"/>
	<line x1="896.45" y1="1516.11" x2="896.45" y2="1057.23" style="stroke:#000000;stroke-width:4.32"/>
	<line x1="888.90" y1="1057.23" x2="903.87" y2="1057.23" stroke-linecap="round" style="stroke:#000000;stroke-width:4.32"/>
	<line x1="888.90" y1="1516.11" x2="903.87" y2="1516.11" stroke-linecap="round" style="stroke:#000000;stroke-width:4.32"/>
	<line x1="936.91" y1="1180.24" x2="936.91" y2="880.14" style="stroke:#000000;stroke-width:4.32"/>
	<line x1="929.36" y1="880.14" x2="944.34" y2="880.14" stroke-linecap="round" style="stroke:#000000;stroke-width:4.32"/>
	<line x1="929.36" y1="1180.24" x2="944.34" y2="1180.24" stroke-linecap="round" style="stroke:#000000;stroke-width:4.32"/>
	<line x1="835.93" y1="1615.73" x2="835.93" y2="1326.77" style="stroke:#000000;stroke-width:4.32"/>
	<line x1="828.38" y1="1326.77" x2="843.36" y2="1326.77" stroke-linecap="round" style="stroke:#000000;stroke-width:4.32"/>
	<line x1="828.38" y1="1615.73" x2="843.36" y2="1615.73" stroke-linecap="round" style="stroke:#000000;stroke-width:4.32"/>
	<line x1="759.21" y1="1822.65" x2="759.21" y2="1491.11" style="stroke:#000000;stroke-width:4.32"/>
	<line x1="751.66" y1="1491.11" x2="766.63" y2="1491.11" stroke-linecap="round" style="stroke:#000000;stroke-width:4.32"/>
	<line x1="751.66" y1="1822.65" x2="766.63" y2="1822.65" stroke-linecap="round" style="stroke:#000000;stroke-width:4.32"/>
	<line x1="895.21" y1="1446.93" x2="895.21" y2="1119.97" style="stroke:#000000;stroke-width:4.32"/>
	<line x1="887.66" y1="1119.97" x2="902.63" y2="1119.97" stroke-linecap="round" style="stroke:#000000;stroke-width:4.32"/>
	<line x1="887.66" y1="1446.93" x2="902.63" y2="1446.93" stroke-linecap="round" style="stroke:#000000;stroke-width:4.32"/>
	<line x1="1103.73" y1="1570.31" x2="1103.73" y2="1006.00" style="stroke:#000000;stroke-width:4.32"/>
	<line x1="1096.18" y1="1006.00" x2="1111.15" y2="1006.00" stroke-linecap="round" style="stroke:#000000;stroke-width:4.32"/>
	<line x1="1096.18" y1="1570.31" x2="1111.15" y2="1570.31" stroke-linecap="round" style="stroke:#000000;stroke-width:4.32"/>
	<line x1="1418.55" y1="1260.56" x2="1418.55" y2="971.96" style="stroke:#000000;stroke-width:4.32"/>
	<line x1="1411.00" y1="971.96" x2="1425.97" y2="971.96" stroke-linecap="round" style="stroke:#000000;stroke-width:4.32"/>
	<line x1="1411.00" y1="1260.56" x2="1425.97" y2="1260.56" stroke-linecap="round" style="stroke:#000000;stroke-width:4.32"/>
	<line x1="2027.89" y1="1236.80" x2="2027.89" y2="913.30" style="stroke:#000000;stroke-width:4.32"/>
	<line x1="2020.34" y1="913.30" x2="2035.32" y2="913.30" stroke-linecap="round" style="stroke:#000000;stroke-width:4.32"/>
	<line x1="2020.34" y1="1236.80" x2="2035.32" y2="1236.80" stroke-linecap="round" style="stroke:#000000;stroke-width:4.32"/>
	<line x1="1079.47" y1="1361.54" x2="1079.47" y2="967.88" style="stroke:#000000;stroke-width:4.32"/>
	<line x1="1071.92" y1="967.88" x2="1086.90" y2="967.88" stroke-linecap="round" style="stroke:#000000;stroke-width:4.32"/>
	<line x1="1071.92" y1="1361.54" x2="1086.90" y2="1361.54" stroke-linecap="round" style="stroke:#000000;stroke-width:4.32"/>
	<line x1="1758.86" y1="1411.29" x2="1758.86" y2="905.01" style="stroke:#000000;stroke-width:4.32"/>
	<line x1="1751.31" y1="905.01" x2="1766.28" y2="905.01" stroke-linecap="round" style="stroke:#000000;stroke-width:4.32"/>
	<line x1="1751.31" y1="1411.29" x2="1766.28" y2="1411.29" stroke-linecap="round" style="stroke:#000000;stroke-width:4.32"/>
	<line x1="884.44" y1="1555.21" x2="884.44" y2="1148.68" style="stroke:#000000;stroke-width:4.32"/>
	<line x1="876.89" y1="1148.68" x2="891.87" y2="1148.68" stroke-linecap="round" style="stroke:#000000;stroke-width:4.32"/>
	<line x1="876.89" y1="1555.21" x2="891.87" y2="1555.21" stroke-linecap="round" style="stroke:#000000;stroke-width:4.32"/>
	<line x1="1121.18" y1="1373.79" x2="1121.18" y2="1066.88" style="stroke:#000000;stroke-width:4.32"/>
	<line x1="1113.63" y1="1066.88" x2="1128.60" y2="1066.88" stroke-linecap="round" style="stroke:#000000;stroke-width:4.32"/>
	<line x1="1113.63" y1="1373.79" x2="1128.60" y2="1373.79" stroke-linecap="round" style="stroke:#000000;stroke-width:4.32"/>
	<line x1="1259.78" y1="1423.54" x2="1259.78" y2="699.83" style="stroke:#000000;stroke-width:4.32"/>
	<line x1="1252.23" y1="699.83" x2="1267.20" y2="699.83" stroke-linecap="round" style="stroke:#000000;stroke-width:4.32"/>
	<line x1="1252.23" y1="1423.54" x2="1267.20" y2="1423.54" stroke-linecap="round" style="stroke:#000000;stroke-width:4.32"/>
	<line x1="1815.41" y1="1613.50" x2="1815.41" y2="512.09" style="stroke:#000000;stroke-width:4.32"/>
	<line x1="1807.86" y1="512.09" x2="1822.84" y2="512.09" stroke-linecap="round" style="stroke:#000000;stroke-width:4.32"/>
	<line x1="1807.86" y1="1613.50" x2="1822.84" y2="1613.50" stroke-linecap="round" style="stroke:#000000;stroke-width:4.32"/>
	<line x1="1306.80" y1="1273.18" x2="1306.80" y2="939.79" style="stroke:#000000;stroke-width:4.32"/>
	<line x1="1299.25" y1="939.79" x2="1314.23" y2="939.79" stroke-linecap="round" style="stroke:#000000;stroke-width:4.32"/>
	<line x1="1299.25" y1="1273.18" x2="1314.23" y2="1273.18" stroke-linecap="round" style="stroke:#000000;stroke-width:4.32"/>
	<line x1="720.23" y1="1447.05" x2="720.23" y2="1152.52" style="stroke:#000000;stroke-width:4.32"/>
	<line x1="712.68" y1="1152.52" x2="727.65" y2="1152.52" stroke-linecap="round" style="stroke:#000000;stroke-width:4.32"/>
	<line x1="712.68" y1="1447.05" x2="727.65" y2="1447.05" stroke-linecap="round" style="stroke:#000000;stroke-width:4.32"/>
	<line x1="951.64" y1="1469.45" x2="951.64" y2="1107.23" style="stroke:#000000;stroke-width:4.32"/>
	<line x1="944.09" y1="1107.23" x2="959.06" y2="1107.23" stroke-linecap="round" style="stroke:#000000;stroke-width:4.32"/>
	<line x1="944.09" y1="1469.45" x2="959.06" y2="1469.45" stroke-linecap="round" style="stroke:#000000;stroke-width:4.32"/>
	<line x1="850.78" y1="1550.14" x2="850.78" y2="1253.13" style="stroke:#000000;stroke-width:4.32"/>
	<line x1="843.23" y1="1253.13" x2="858.21" y2="1253.13" stroke-linecap="round" style="stroke:#000000;stroke-width:4.32"/>
	<line x1="843.23" y1="1550.14" x2="858.21" y2="1550.14" stroke-linecap="round" style="stroke:#000000;stroke-width:4.32"/>
	<line x1="1090.24" y1="1451.39" x2="1090.24" y2="1156.97" style="stroke:#000000;stroke-width:4.32"/>
	<line x1="1082.69" y1="1156.97" x2="1097.66" y2="1156.97" stroke-linecap="round" style="stroke:#000000;stroke-width:4.32"/>
	<line x1="1082.69" y1="1451.39" x2="1097.66" y2="1451.39" stroke-linecap="round" style="stroke:#000000;stroke-width:4.32"/>
	<line x1="682.61" y1="1612.14" x2="682.61" y2="1312.66" style="stroke:#000000;stroke-width:4.32"/>
	<line x1="675.06" y1="1312.66" x2="690.03" y2="1312.66" stroke-linecap="round" style="stroke:#000000;stroke-width:4.32"/>
	<line x1="675.06" y1="1612.14" x2="690.03" y2="1612.14" stroke-linecap="round" style="stroke:#000000;stroke-width:4.32"/>
	<line x1="834.57" y1="1472.42" x2="834.57" y2="1156.60" style="stroke:#000000;stroke-width:4.32"/>
	<line x1="827.02" y1="1156.60" x2="842.00" y2="1156.60" stroke-linecap="round" style="stroke:#000000;stroke-width:4.32"/>
	<line x1="827.02" y1="1472.42" x2="842.00" y2="1472.42" stroke-linecap="round" style="stroke:#000000;stroke-width:4.32"/>
	<line x1="834.57" y1="1472.05" x2="834.57" y2="1121.95" style="stroke:#000000;stroke-width:4.32"/>
	<line x1="827.02" y1="1121.95" x2="842.00" y2="1121.95" stroke-linecap="round" style="stroke:#000000;stroke-width:4.32"/>
	<line x1="827.02" y1="1472.05" x2="842.00" y2="1472.05" stroke-linecap="round" style="stroke:#000000;stroke-width:4.32"/>
	<line x1="1296.03" y1="1328.25" x2="1296.03" y2="1011.44" style="stroke:#000000;stroke-width:4.32"/>
	<line x1="1288.48" y1="1011.44" x2="1303.46" y2="1011.44" stroke-linecap="round" style="stroke:#000000;stroke-width:4.32"/>
	<line x1="1288.48" y1="1328.25" x2="1303.46" y2="1328.25" stroke-linecap="round" style="stroke:#000000;stroke-width:4.32"/>
	<line x1="916.62" y1="1448.42" x2="916.62" y2="1127.27" style="stroke:#000000;stroke-width:4.32"/>
	<line x1="909.07" y1="1127.27" x2="924.04" y2="1127.27" stroke-linecap="round" style="stroke:#000000;stroke-width:4.32"/>
	<line x1="909.07" y1="1448.42" x2="924.04" y2="1448.42" stroke-linecap="round" style="stroke:#000000;stroke-width:4.32"/>
	<line x1="877.64" y1="1764.98" x2="877.64" y2="1331.22" style="stroke:#000000;stroke-width:4.32"/>
	<line x1="870.09" y1="1331.22" x2="885.06" y2="1331.22" stroke-linecap="round" style="stroke:#000000;stroke-width:4.32"/>
	<line x1="870.09" y1="1764.98" x2="885.06" y2="1764.98" stroke-linecap="round" style="stroke:#000000;stroke-width:4.32"/>
	<line x1="753.89" y1="1313.40" x2="753.89" y2="1010.08" style="stroke:#000000;stroke-width:4.32"/>
	<line x1="746.34" y1="1010.08" x2="761.31" y2="1010.08" stroke-linecap="round" style="stroke:#000000;stroke-width:4.32"/>
	<line x1="746.34" y1="1313.40" x2="761.31" y2="1313.40" stroke-linecap="round" style="stroke:#000000;stroke-width:4.32"/>
	<line x1="801.03" y1="1528.98" x2="801.03" y2="1219.35" style="stroke:#000000;stroke-width:4.32"/>
	<line x1="793.49" y1="1219.35" x2="808.46" y2="1219.35" stroke-linecap="round" style="stroke:#000000;stroke-width:4.32"/>
	<line x1="793.49" y1="1528.98" x2="808.46" y2="1528.98" stroke-linecap="round" style="stroke:#000000;stroke-width:4.32"/>
	<line x1="1191.09" y1="1195.83" x2="1191.09" y2="911.82" style="stroke:#000000;stroke-width:4.32"/>
	<line x1="1183.55" y1="911.82" x2="1198.52" y2="911.82" stroke-linecap="round" style="stroke:#000000;stroke-width:4.32"/>
	<line x1="1183.55" y1="1195.83" x2="1198.52" y2="1195.83" stroke-linecap="round" style="stroke:#000000;stroke-width:4.32"/>
	<line x1="757.97" y1="1448.17" x2="757.97" y2="1146.95" style="stroke:#000000;stroke-width:4.32"/>
	<line x1="750.42" y1="1146.95" x2="765.39" y2="1146.95" stroke-linecap="round" style="stroke:#000000;stroke-width:4.32"/>
	<line x1="750.42" y1="1448.17" x2="765.39" y2="1448.17" stroke-linecap="round" style="stroke:#000000;stroke-width:4.32"/>
	<line x1="1040.49" y1="1402.87" x2="1040.49" y2="911.20" style="stroke:#000000;stroke-width:4.32"/>
	<line x1="1032.94" y1="911.20" x2="1047.92" y2="911.20" stroke-linecap="round" style="stroke:#000000;stroke-width:4.32"/>
	<line x1="1032.94" y1="1402.87" x2="1047.92" y2="1402.87" stroke-linecap="round" style="stroke:#000000;stroke-width:4.32"/>
	<line x1="767.37" y1="1487.15" x2="767.37" y2="1195.71" style="stroke:#000000;stroke-width:4.32"/>
	<line x1="759.83" y1="1195.71" x2="774.80" y2="1195.71" stroke-linecap="round" style="stroke:#000000;stroke-width:4.32"/>
	<line x1="759.83" y1="1487.15" x2="774.80" y2="1487.15" stroke-linecap="round" style="stroke:#000000;stroke-width:4.32"/>
	<line x1="946.32" y1="1608.06" x2="946.32" y2="1282.34" style="stroke:#000000;stroke-width:4.32"/>
	<line x1="938.77" y1="1282.34" x2="953.74" y2="1282.34" stroke-linecap="round" style="stroke:#000000;stroke-width:4.32"/>
	<line x1="938.77" y1="1608.06" x2="953.74" y2="1608.06" stroke-linecap="round" style="stroke:#000000;stroke-width:4.32"/>
	<line x1="1142.71" y1="1298.18" x2="1142.71" y2="990.77" style="stroke:#000000;stroke-width:4.32"/>
	<line x1="1135.16" y1="990.77" x2="1150.13" y2="990.77" stroke-linecap="round" style="stroke:#000000;stroke-width:4.32"/>
	<line x1="1135.16" y1="1298.18" x2="1150.13" y2="1298.18" stroke-linecap="round" style="stroke:#000000;stroke-width:4.32"/>
	<line x1="1031.09" y1="1608.68" x2="1031.09" y2="1053.15" style="stroke:#000000;stroke-width:4.32"/>
	<line x1="1023.54" y1="1053.15" x2="1038.51" y2="1053.15" stroke-linecap="round" style="stroke:#000000;stroke-width:4.32"/>
	<line x1="1023.54" y1="1608.68" x2="1038.51" y2="1608.68" stroke-linecap="round" style="stroke:#000000;stroke-width:4.32"/>
	<line x1="853.38" y1="1357.33" x2="853.38" y2="867.39" style="stroke:#000000;stroke-width:4.32"/>
	<line x1="845.83" y1="867.39" x2="860.81" y2="867.39" stroke-linecap="round" style="stroke:#000000;stroke-width:4.32"/>
	<line x1="845.83" y1="1357.33" x2="860.81" y2="1357.33" stroke-linecap="round" style="stroke:#000000;stroke-width:4.32"/>
	<line x1="1524.72" y1="1159.33" x2="1524.72" y2="841.16" style="stroke:#000000;stroke-width:4.32"/>
	<line x1="1517.18" y1="841.16" x2="1532.15" y2="841.16" stroke-linecap="round" style="stroke:#000000;stroke-width:4.32"/>
	<line x1="1517.18" y1="1159.33" x2="1532.15" y2="1159.33" stroke-linecap="round" style="stroke:#000000;stroke-width:4.32"/>
	<line x1="3460.67" y1="895.48" x2="3460.67" y2="466.55" style="stroke:#000000;stroke-width:4.32"/>
	<line x1="3453.12" y1="466.55" x2="3468.09" y2="466.55" stroke-linecap="round" style="stroke:#000000;stroke-width:4.32"/>
	<line x1="3453.12" y1="895.48" x2="3468.09" y2="895.48" stroke-linecap="round" style="stroke:#000000;stroke-width:4.32"/>
	<line x1="802.27" y1="1811.63" x2="802.27" y2="1524.15" style="stroke:#000000;stroke-width:4.32"/>
	<line x1="794.72" y1="1524.15" x2="809.70" y2="1524.15" stroke-linecap="round" style="stroke:#000000;stroke-width:4.32"/>
	<line x1="794.72" y1="1811.63" x2="809.70" y2="1811.63" stroke-linecap="round" style="stroke:#000000;stroke-width:4.32"/>
	<line x1="958.32" y1="1538.26" x2="958.32" y2="1128.26" style="stroke:#000000;stroke-width:4.32"/>
	<line x1="950.77" y1="1128.26" x2="965.75" y2="1128.26" stroke-linecap="round" style="stroke:#000000;stroke-width:4.32"/>
	<line x1="950.77" y1="1538.26" x2="965.75" y2="1538.26" stroke-linecap="round" style="stroke:#000000;stroke-width:4.32"/>
	<line x1="759.21" y1="1369.21" x2="759.21" y2="1091.88" style="stroke:#000000;stroke-width:4.32"/>
	<line x1="751.66" y1="1091.88" x2="766.63" y2="1091.88" stroke-linecap="round" style="stroke:#000000;stroke-width:4.32"/>
	<line x1="751.66" y1="1369.21" x2="766.63" y2="1369.21" stroke-linecap="round" style="stroke:#000000;stroke-width:4.32"/>
	<line x1="922.06" y1="1375.15" x2="922.06" y2="1086.31" style="stroke:#000000;stroke-width:4.32"/>
	<line x1="914.51" y1="1086.31" x2="929.49" y2="1086.31" stroke-linecap="round" style="stroke:#000000;stroke-width:4.32"/>
	<line x1="914.51" y1="1375.15" x2="929.49" y2="1375.15" stroke-linecap="round" style="stroke:#000000;stroke-width:4.32"/>
	<line x1="2396.54" y1="1063.05" x2="2396.54" y2="682.63" style="stroke:#000000;stroke-width:4.32"/>
	<line x1="2388.99" y1="682.63" x2="2403.97" y2="682.63" stroke-linecap="round" style="stroke:#000000;stroke-width:4.32"/>
	<line x1="2388.99" y1="1063.05" x2="2403.97" y2="1063.05" stroke-linecap="round" style="stroke:#000000;stroke-width:4.32"/>
	<line x1="1464.21" y1="1431.09" x2="1464.21" y2="854.89" style="stroke:#000000;stroke-width:4.32"/>
	<line x1="1456.66" y1="854.89" x2="1471.64" y2="854.89" stroke-linecap="round" style="stroke:#000000;stroke-width:4.32"/>
	<line x1="1456.66" y1="1431.09" x2="1471.64" y2="1431.09" stroke-linecap="round" style="stroke:#000000;stroke-width:4.32"/>
	<line x1="2586.25" y1="823.83" x2="2586.25" y2="475.71" style="stroke:#000000;stroke-width:4.32"/>
	<line x1="2578.70" y1="475.71" x2="2593.68" y2="475.71" stroke-linecap="round" style="stroke:#000000;stroke-width:4.32"/>
	<line x1="2578.70" y1="823.83" x2="2593.68" y2="823.83" stroke-linecap="round" style="stroke:#000000;stroke-width:4.32"/>
	<line x1="1018.96" y1="1372.93" x2="1018.96" y2="1084.95" style="stroke:#000000;stroke-width:4.32"/>
	<line x1="1011.41" y1="1084.95" x2="1026.38" y2="1084.95" stroke-linecap="round" style="stroke:#000000;stroke-width:4.32"/>
	<line x1="1011.41" y1="1372.93" x2="1026.38" y2="1372.93" stroke-linecap="round" style="stroke:#000000;stroke-width:4.32"/>
	<line x1="2677.70" y1="780.76" x2="2677.70" y2="433.26" style="stroke:#000000;stroke-width:4.32"/>
	<line x1="2670.15" y1="433.26" x2="2685.13" y2="433.26" stroke-linecap="round" style="stroke:#000000;stroke-width:4.32"/>
	<line x1="2670.15" y1="780.76" x2="2685.13" y2="780.76" stroke-linecap="round" style="stroke:#000000;stroke-width:4.32"/>
	<line x1="3404.24" y1="679.66" x2="3404.24" y2="164.22" style="stroke:#000000;stroke-width:4.32"/>
	<line x1="3396.69" y1="164.22" x2="3411.66" y2="164.22" stroke-linecap="round" style="stroke:#000000;stroke-width:4.32"/>
	<line x1="3396.69" y1="679.66" x2="3411.66" y2="679.66" stroke-linecap="round" style="stroke:#000000;stroke-width:4.32"/>
	<line x1="685.33" y1="1324.66" x2="685.33" y2="1034.95" style="stroke:#000000;stroke-width:4.32"/>
	<line x1="677.78" y1="1034.95" x2="692.75" y2="1034.95" stroke-linecap="round" style="stroke:#000000;stroke-width:4.32"/>
	<line x1="677.78" y1="1324.66" x2="692.75" y2="1324.66" stroke-linecap="round" style="stroke:#000000;stroke-width:4.32"/>
	<line x1="1045.81" y1="1432.70" x2="1045.81" y2="1139.40" style="stroke:#000000;stroke-width:4.32"/>
	<line x1="1038.26" y1="1139.40" x2="1053.24" y2="1139.40" stroke-linecap="round" style="stroke:#000000;stroke-width:4.32"/>
	<line x1="1038.26" y1="1432.70" x2="1053.24" y2="1432.70" stroke-linecap="round" style="stroke:#000000;stroke-width:4.32"/>
	<line x1="825.17" y1="1419.09" x2="825.17" y2="1137.05" style="stroke:#000000;stroke-width:4.32"/>
	<line x1="817.62" y1="1137.05" x2="832.59" y2="1137.05" stroke-linecap="round" style="stroke:#000000;stroke-width:4.32"/>
	<line x1="817.62" y1="1419.09" x2="832.59" y2="1419.09" stroke-linecap="round" style="stroke:#000000;stroke-width:4.32"/>
	<line x1="959.68" y1="1328.75" x2="959.68" y2="798.83" style="stroke:#000000;stroke-width:4.32"/>
	<line x1="952.13" y1="798.83" x2="967.11" y2="798.83" stroke-linecap="round" style="stroke:#000000;stroke-width:4.32"/>
	<line x1="952.13" y1="1328.75" x2="967.11" y2="1328.75" stroke-linecap="round" style="stroke:#000000;stroke-width:4.32"/>
	<line x1="840.02" y1="1490.62" x2="840.02" y2="1181.11" style="stroke:#000000;stroke-width:4.32"/>
	<line x1="832.47" y1="1181.11" x2="847.44" y2="1181.11" stroke-linecap="round" style="stroke:#000000;stroke-width:4.32"/>
	<line x1="832.47" y1="1490.62" x2="847.44" y2="1490.62" stroke-linecap="round" style="stroke:#000000;stroke-width:4.32"/>
	<line x1="850.78" y1="1628.97" x2="850.78" y2="1316.37" style="stroke:#000000;stroke-width:4.32"/>
	<line x1="843.23" y1="1316.37" x2="858.21" y2="1316.37" stroke-linecap="round" style="stroke:#000000;stroke-width:4.32"/>
	<line x1="843.23" y1="1628.97" x2="858.21" y2="1628.97" stroke-linecap="round" style="stroke:#000000;stroke-width:4.32"/>
	<line x1="1582.64" y1="1195.21" x2="1582.64" y2="818.01" style="stroke:#000000;stroke-width:4.32"/>
	<line x1="1575.09" y1="818.01" x2="1590.06" y2="818.01" stroke-linecap="round" style="stroke:#000000;stroke-width:4.32"/>
	<line x1="1575.09" y1="1195.21" x2="1590.06" y2="1195.21" stroke-linecap="round" style="stroke:#000000;stroke-width:4.32"/>
	<line x1="1392.93" y1="1628.97" x2="1392.93" y2="1142.12" style="stroke:#000000;stroke-width:4.32"/>
	<line x1="1385.38" y1="1142.12" x2="1400.36" y2="1142.12" stroke-linecap="round" style="stroke:#000000;stroke-width:4.32"/>
	<line x1="1385.38" y1="1628.97" x2="1400.36" y2="1628.97" stroke-linecap="round" style="stroke:#000000;stroke-width:4.32"/>
	<rect x="847.82" y="1155.13" width="19.28" height="19.28" style="fill:#000000"/>
	<rect x="852.14" y="1159.45" width="10.64" height="10.64" style="fill:none;stroke:#000000;stroke-width:8.64"/>
	<rect x="2015.53" y="990.66" width="19.28" height="19.28" style="fill:#000000"/>
	<rect x="2019.85" y="994.98" width="10.64" height="10.64" style="fill:none;stroke:#000000;stroke-width:8.64"/>
	<rect x="1106.09" y="1127.78" width="19.28" height="19.28" style="fill:#000000"/>
	<rect x="1110.41" y="1132.10" width="10.64" height="10.64" style="fill:none;stroke:#000000;stroke-width:8.64"/>
	<rect x="784.59" y="1849.76" width="19.28" height="19.28" style="fill:#000000"/>
	<rect x="788.91" y="1854.08" width="10.64" height="10.64" style="fill:none;stroke:#000000;stroke-width:8.64"/>
	<rect x="1024.04" y="1441.62" width="19.28" height="19.28" style="fill:#000000"/>
	<rect x="1028.36" y="1445.94" width="10.64" height="10.64" style="fill:none;stroke:#000000;stroke-width:8.64"/>
	<rect x="1540.58" y="806.39" width="19.28" height="19.28" style="fill:#000000"/>
	<rect x="1544.90" y="810.71" width="10.64" height="10.64" style="fill:none;stroke:#000000;stroke-width:8.64"/>
	<rect x="1216.35" y="1104.51" width="19.28" height="19.28" style="fill:#000000"/>
	<rect x="1220.67" y="1108.83" width="10.64" height="10.64" style="fill:none;stroke:#000000;stroke-width:8.64"/>
	<rect x="886.80" y="1277.03" width="19.28" height="19.28" style="fill:#000000"/>
	<rect x="891.12" y="1281.35" width="10.64" height="10.64" style="fill:none;stroke:#000000;stroke-width:8.64"/>
	<rect x="927.15" y="1020.61" width="19.28" height="19.28" style="fill:#000000"/>
	<rect x="931.47" y="1024.93" width="10.64" height="10.64" style="fill:none;stroke:#000000;stroke-width:8.64"/>
	<rect x="826.29" y="1461.67" width="19.28" height="19.28" style="fill:#000000"/>
	<rect x="830.61" y="1465.99" width="10.64" height="10.64" style="fill:none;stroke:#000000;stroke-width:8.64"/>
	<rect x="749.57" y="1647.30" width="19.28" height="19.28" style="fill:#000000"/>
	<rect x="753.89" y="1651.62" width="10.64" height="10.64" style="fill:none;stroke:#000000;stroke-width:8.64"/>
	<rect x="885.44" y="1273.81" width="19.28" height="19.28" style="fill:#000000"/>
	<rect x="889.76" y="1278.13" width="10.64" height="10.64" style="fill:none;stroke:#000000;stroke-width:8.64"/>
	<rect x="1093.96" y="1278.64" width="19.28" height="19.28" style="fill:#000000"/>
	<rect x="1098.28" y="1282.96" width="10.64" height="10.64" style="fill:none;stroke:#000000;stroke-width:8.64"/>
	<rect x="1408.78" y="1106.62" width="19.28" height="19.28" style="fill:#000000"/>
	<rect x="1413.10" y="1110.94" width="10.64" height="10.64" style="fill:none;stroke:#000000;stroke-width:8.64"/>
	<rect x="2018.25" y="1065.41" width="19.28" height="19.28" style="fill:#000000"/>
	<rect x="2022.57" y="1069.73" width="10.64" height="10.64" style="fill:none;stroke:#000000;stroke-width:8.64"/>
	<rect x="1069.71" y="1155.13" width="19.28" height="19.28" style="fill:#000000"/>
	<rect x="1074.03" y="1159.45" width="10.64" height="10.64" style="fill:none;stroke:#000000;stroke-width:8.64"/>
	<rect x="1749.22" y="1148.57" width="19.28" height="19.28" style="fill:#000000"/>
	<rect x="1753.54" y="1152.89" width="10.64" height="10.64" style="fill:none;stroke:#000000;stroke-width:8.64"/>
	<rect x="874.68" y="1342.37" width="19.28" height="19.28" style="fill:#000000"/>
	<rect x="879.00" y="1346.69" width="10.64" height="10.64" style="fill:none;stroke:#000000;stroke-width:8.64"/>
	<rect x="1111.41" y="1210.82" width="19.28" height="19.28" style="fill:#000000"/>
	<rect x="1115.73" y="1215.14" width="10.64" height="10.64" style="fill:none;stroke:#000000;stroke-width:8.64"/>
	<rect x="1250.01" y="1052.04" width="19.28" height="19.28" style="fill:#000000"/>
	<rect x="1254.33" y="1056.36" width="10.64" height="10.64" style="fill:none;stroke:#000000;stroke-width:8.64"/>
	<rect x="1805.65" y="1053.28" width="19.28" height="19.28" style="fill:#000000"/>
	<rect x="1809.97" y="1057.60" width="10.64" height="10.64" style="fill:none;stroke:#000000;stroke-width:8.64"/>
	<rect x="1297.16" y="1096.84" width="19.28" height="19.28" style="fill:#000000"/>
	<rect x="1301.48" y="1101.16" width="10.64" height="10.64" style="fill:none;stroke:#000000;stroke-width:8.64"/>
	<rect x="710.58" y="1290.15" width="19.28" height="19.28" style="fill:#000000"/>
	<rect x="714.90" y="1294.47" width="10.64" height="10.64" style="fill:none;stroke:#000000;stroke-width:8.64"/>
	<rect x="942.00" y="1278.76" width="19.28" height="19.28" style="fill:#000000"/>
	<rect x="946.32" y="1283.08" width="10.64" height="10.64" style="fill:none;stroke:#000000;stroke-width:8.64"/>
	<rect x="841.02" y="1392.12" width="19.28" height="19.28" style="fill:#000000"/>
	<rect x="845.34" y="1396.44" width="10.64" height="10.64" style="fill:none;stroke:#000000;stroke-width:8.64"/>
	<rect x="1080.47" y="1294.60" width="19.28" height="19.28" style="fill:#000000"/>
	<rect x="1084.79" y="1298.92" width="10.64" height="10.64" style="fill:none;stroke:#000000;stroke-width:8.64"/>
	<rect x="672.84" y="1452.88" width="19.28" height="19.28" style="fill:#000000"/>
	<rect x="677.16" y="1457.20" width="10.64" height="10.64" style="fill:none;stroke:#000000;stroke-width:8.64"/>
	<rect x="824.93" y="1304.87" width="19.28" height="19.28" style="fill:#000000"/>
	<rect x="829.25" y="1309.19" width="10.64" height="10.64" style="fill:none;stroke:#000000;stroke-width:8.64"/>
	<rect x="824.93" y="1287.42" width="19.28" height="19.28" style="fill:#000000"/>
	<rect x="829.25" y="1291.74" width="10.64" height="10.64" style="fill:none;stroke:#000000;stroke-width:8.64"/>
	<rect x="1286.39" y="1160.20" width="19.28" height="19.28" style="fill:#000000"/>
	<rect x="1290.71" y="1164.52" width="10.64" height="10.64" style="fill:none;stroke:#000000;stroke-width:8.64"/>
	<rect x="906.98" y="1278.27" width="19.28" height="19.28" style="fill:#000000"/>
	<rect x="911.30" y="1282.59" width="10.64" height="10.64" style="fill:none;stroke:#000000;stroke-width:8.64"/>
	<rect x="867.99" y="1538.52" width="19.28" height="19.28" style="fill:#000000"/>
	<rect x="872.31" y="1542.84" width="10.64" height="10.64" style="fill:none;stroke:#000000;stroke-width:8.64"/>
	<rect x="744.12" y="1152.16" width="19.28" height="19.28" style="fill:#000000"/>
	<rect x="748.44" y="1156.48" width="10.64" height="10.64" style="fill:none;stroke:#000000;stroke-width:8.64"/>
	<rect x="791.27" y="1364.65" width="19.28" height="19.28" style="fill:#000000"/>
	<rect x="795.59" y="1368.97" width="10.64" height="10.64" style="fill:none;stroke:#000000;stroke-width:8.64"/>
	<rect x="1181.45" y="1044.25" width="19.28" height="19.28" style="fill:#000000"/>
	<rect x="1185.77" y="1048.57" width="10.64" height="10.64" style="fill:none;stroke:#000000;stroke-width:8.64"/>
	<rect x="748.20" y="1288.04" width="19.28" height="19.28" style="fill:#000000"/>
	<rect x="752.52" y="1292.36" width="10.64" height="10.64" style="fill:none;stroke:#000000;stroke-width:8.64"/>
	<rect x="1030.73" y="1147.46" width="19.28" height="19.28" style="fill:#000000"/>
	<rect x="1035.05" y="1151.78" width="10.64" height="10.64" style="fill:none;stroke:#000000;stroke-width:8.64"/>
	<rect x="757.61" y="1331.85" width="19.28" height="19.28" style="fill:#000000"/>
	<rect x="761.93" y="1336.17" width="10.64" height="10.64" style="fill:none;stroke:#000000;stroke-width:8.64"/>
	<rect x="936.55" y="1435.68" width="19.28" height="19.28" style="fill:#000000"/>
	<rect x="940.87" y="1440.00" width="10.64" height="10.64" style="fill:none;stroke:#000000;stroke-width:8.64"/>
	<rect x="1132.94" y="1134.83" width="19.28" height="19.28" style="fill:#000000"/>
	<rect x="1137.26" y="1139.15" width="10.64" height="10.64" style="fill:none;stroke:#000000;stroke-width:8.64"/>
	<rect x="1021.32" y="1321.33" width="19.28" height="19.28" style="fill:#000000"/>
	<rect x="1025.64" y="1325.65" width="10.64" height="10.64" style="fill:none;stroke:#000000;stroke-width:8.64"/>
	<rect x="843.74" y="1102.78" width="19.28" height="19.28" style="fill:#000000"/>
	<rect x="848.06" y="1107.10" width="10.64" height="10.64" style="fill:none;stroke:#000000;stroke-width:8.64"/>
	<rect x="1515.08" y="990.66" width="19.28" height="19.28" style="fill:#000000"/>
	<rect x="1519.40" y="994.98" width="10.64" height="10.64" style="fill:none;stroke:#000000;stroke-width:8.64"/>
	<rect x="3451.03" y="671.50" width="19.28" height="19.28" style="fill:#000000"/>
	<rect x="3455.35" y="675.82" width="10.64" height="10.64" style="fill:none;stroke:#000000;stroke-width:8.64"/>
	<rect x="792.63" y="1658.31" width="19.28" height="19.28" style="fill:#000000"/>
	<rect x="796.95" y="1662.63" width="10.64" height="10.64" style="fill:none;stroke:#000000;stroke-width:8.64"/>
	<rect x="948.68" y="1323.68" width="19.28" height="19.28" style="fill:#000000"/>
	<rect x="953.00" y="1328.00" width="10.64" height="10.64" style="fill:none;stroke:#000000;stroke-width:8.64"/>
	<rect x="749.57" y="1220.97" width="19.28" height="19.28" style="fill:#000000"/>
	<rect x="753.89" y="1225.29" width="10.64" height="10.64" style="fill:none;stroke:#000000;stroke-width:8.64"/>
	<rect x="912.30" y="1221.09" width="19.28" height="19.28" style="fill:#000000"/>
	<rect x="916.62" y="1225.41" width="10.64" height="10.64" style="fill:none;stroke:#000000;stroke-width:8.64"/>
	<rect x="2386.90" y="863.32" width="19.28" height="19.28" style="fill:#000000"/>
	<rect x="2391.22" y="867.64" width="10.64" height="10.64" style="fill:none;stroke:#000000;stroke-width:8.64"/>
	<rect x="1454.57" y="1133.35" width="19.28" height="19.28" style="fill:#000000"/>
	<rect x="1458.89" y="1137.67" width="10.64" height="10.64" style="fill:none;stroke:#000000;stroke-width:8.64"/>
	<rect x="2576.61" y="640.19" width="19.28" height="19.28" style="fill:#000000"/>
	<rect x="2580.93" y="644.51" width="10.64" height="10.64" style="fill:none;stroke:#000000;stroke-width:8.64"/>
	<rect x="1009.19" y="1219.36" width="19.28" height="19.28" style="fill:#000000"/>
	<rect x="1013.51" y="1223.68" width="10.64" height="10.64" style="fill:none;stroke:#000000;stroke-width:8.64"/>
	<rect x="2668.06" y="597.50" width="19.28" height="19.28" style="fill:#000000"/>
	<rect x="2672.38" y="601.82" width="10.64" height="10.64" style="fill:none;stroke:#000000;stroke-width:8.64"/>
	<rect x="3394.47" y="412.36" width="19.28" height="19.28" style="fill:#000000"/>
	<rect x="3398.79" y="416.68" width="10.64" height="10.64" style="fill:none;stroke:#000000;stroke-width:8.64"/>
	<rect x="675.56" y="1170.23" width="19.28" height="19.28" style="fill:#000000"/>
	<rect x="679.88" y="1174.55" width="10.64" height="10.64" style="fill:none;stroke:#000000;stroke-width:8.64"/>
	<rect x="1036.17" y="1276.53" width="19.28" height="19.28" style="fill:#000000"/>
	<rect x="1040.49" y="1280.85" width="10.64" height="10.64" style="fill:none;stroke:#000000;stroke-width:8.64"/>
	<rect x="815.52" y="1268.49" width="19.28" height="19.28" style="fill:#000000"/>
	<rect x="819.84" y="1272.81" width="10.64" height="10.64" style="fill:none;stroke:#000000;stroke-width:8.64"/>
	<rect x="950.04" y="1054.27" width="19.28" height="19.28" style="fill:#000000"/>
	<rect x="954.36" y="1058.59" width="10.64" height="10.64" style="fill:none;stroke:#000000;stroke-width:8.64"/>
	<rect x="830.25" y="1326.28" width="19.28" height="19.28" style="fill:#000000"/>
	<rect x="834.57" y="1330.60" width="10.64" height="10.64" style="fill:none;stroke:#000000;stroke-width:8.64"/>
	<rect x="841.02" y="1463.03" width="19.28" height="19.28" style="fill:#000000"/>
	<rect x="845.34" y="1467.35" width="10.64" height="10.64" style="fill:none;stroke:#000000;stroke-width:8.64"/>
	<rect x="1572.87" y="996.97" width="19.28" height="19.28" style="fill:#000000"/>
	<rect x="1577.19" y="1001.29" width="10.64" height="10.64" style="fill:none;stroke:#000000;stroke-width:8.64"/>
	<rect x="1383.17" y="1376.03" width="19.28" height="19.28" style="fill:#000000"/>
	<rect x="1387.49" y="1380.35" width="10.64" height="10.64" style="fill:none;stroke:#000000;stroke-width:8.64"/>
	<line x1="369.02" y1="2233.63" x2="369.02" y2="100.86" style="stroke:#000000;stroke-width:5.76"/>
	<line x1="369.02" y1="2170.27" x2="329.05" y2="2170.27" style="stroke:#000000;stroke-width:5.76"/>
	<text x="278.94" y="2170.27" style="font-family:'Helvetica';font-size:99.99px;fill:#000000" transform="rotate(-90 278.94,2170.27)" text-anchor="middle">-.1</text>
	<line x1="369.02" y1="1782.30" x2="329.05" y2="1782.30" style="stroke:#000000;stroke-width:5.76"/>
	<text x="278.94" y="1782.30" style="font-family:'Helvetica';font-size:99.99px;fill:#000000" transform="rotate(-90 278.94,1782.30)" text-anchor="middle">-.05</text>
	<line x1="369.02" y1="1394.33" x2="329.05" y2="1394.33" style="stroke:#000000;stroke-width:5.76"/>
	<text x="278.94" y="1394.33" style="font-family:'Helvetica';font-size:99.99px;fill:#000000" transform="rotate(-90 278.94,1394.33)" text-anchor="middle">0</text>
	<line x1="369.02" y1="1006.24" x2="329.05" y2="1006.24" style="stroke:#000000;stroke-width:5.76"/>
	<text x="278.94" y="1006.24" style="font-family:'Helvetica';font-size:99.99px;fill:#000000" transform="rotate(-90 278.94,1006.24)" text-anchor="middle">.05</text>
	<line x1="369.02" y1="618.27" x2="329.05" y2="618.27" style="stroke:#000000;stroke-width:5.76"/>
	<text x="278.94" y="618.27" style="font-family:'Helvetica';font-size:99.99px;fill:#000000" transform="rotate(-90 278.94,618.27)" text-anchor="middle">.1</text>
	<line x1="369.02" y1="230.18" x2="329.05" y2="230.18" style="stroke:#000000;stroke-width:5.76"/>
	<text x="278.94" y="230.18" style="font-family:'Helvetica';font-size:99.99px;fill:#000000" transform="rotate(-90 278.94,230.18)" text-anchor="middle">.15</text>
	<text x="190.71" y="1167.25" style="font-family:'Helvetica';font-size:99.99px;fill:#000000" transform="rotate(-90 190.71,1167.25)" text-anchor="middle">Instrument-outcome associations</text>
	<line x1="369.02" y1="2233.63" x2="3859.02" y2="2233.63" style="stroke:#000000;stroke-width:5.76"/>
	<line x1="432.38" y1="2233.63" x2="432.38" y2="2273.73" style="stroke:#000000;stroke-width:5.76"/>
	<text x="432.38" y="2363.59" style="font-family:'Helvetica';font-size:99.99px;fill:#000000" text-anchor="middle">0</text>
	<line x1="1104.96" y1="2233.63" x2="1104.96" y2="2273.73" style="stroke:#000000;stroke-width:5.76"/>
	<text x="1104.96" y="2363.59" style="font-family:'Helvetica';font-size:99.99px;fill:#000000" text-anchor="middle">.05</text>
	<line x1="1777.67" y1="2233.63" x2="1777.67" y2="2273.73" style="stroke:#000000;stroke-width:5.76"/>
	<text x="1777.67" y="2363.59" style="font-family:'Helvetica';font-size:99.99px;fill:#000000" text-anchor="middle">.1</text>
	<line x1="2450.37" y1="2233.63" x2="2450.37" y2="2273.73" style="stroke:#000000;stroke-width:5.76"/>
	<text x="2450.37" y="2363.59" style="font-family:'Helvetica';font-size:99.99px;fill:#000000" text-anchor="middle">.15</text>
	<line x1="3123.08" y1="2233.63" x2="3123.08" y2="2273.73" style="stroke:#000000;stroke-width:5.76"/>
	<text x="3123.08" y="2363.59" style="font-family:'Helvetica';font-size:99.99px;fill:#000000" text-anchor="middle">.2</text>
	<line x1="3795.66" y1="2233.63" x2="3795.66" y2="2273.73" style="stroke:#000000;stroke-width:5.76"/>
	<text x="3795.66" y="2363.59" style="font-family:'Helvetica';font-size:99.99px;fill:#000000" text-anchor="middle">.25</text>
	<text x="2114.02" y="2473.60" style="font-family:'Helvetica';font-size:99.99px;fill:#000000" text-anchor="middle">Instrument-exposure associations</text>
	<rect x="403.55" y="2558.24" width="3420.95" height="186.37" style="fill:#FFFFFF"/>
	<rect x="406.43" y="2561.12" width="3415.19" height="180.61" style="fill:none;stroke:#000000;stroke-width:5.76"/>
	<rect x="444.03" y="2641.79" width="19.28" height="19.28" style="fill:#000000"/>
	<rect x="448.35" y="2646.11" width="10.64" height="10.64" style="fill:none;stroke:#000000;stroke-width:8.64"/>
	<line x1="1049.15" y1="2651.43" x2="1394.29" y2="2651.43" style="stroke:#000000;stroke-width:4.32"/>
	<line x1="1049.15" y1="2658.98" x2="1049.15" y2="2644.00" style="stroke:#000000;stroke-width:4.32"/>
	<line x1="1394.29" y1="2658.98" x2="1394.29" y2="2644.00" style="stroke:#000000;stroke-width:4.32"/>
	<line x1="1870.98" y1="2651.43" x2="2216.11" y2="2651.43" style="stroke:#000000;stroke-width:8.64"/>
	<rect x="2753.07" y="2601.43" width="345.02" height="99.99" style="fill:#E6E6E6"/>
	<rect x="2755.23" y="2603.59" width="340.70" height="95.67" style="fill:none;stroke:#C0C0C0;stroke-width:4.32"/>
	<text x="515.91" y="2679.44" style="font-family:'Helvetica';font-size:79.94px;fill:#000000">Instruments</text>
	<text x="1449.48" y="2679.44" style="font-family:'Helvetica';font-size:79.94px;fill:#000000">95% CIs</text>
	<text x="2271.43" y="2679.44" style="font-family:'Helvetica';font-size:79.94px;fill:#000000">MR-Egger</text>
	<text x="3153.40" y="2679.44" style="font-family:'Helvetica';font-size:79.94px;fill:#000000">MR-Egger 95% CI</text>
</svg>
