<?xml version="1.0" encoding="UTF-8" standalone="no"?>
<!-- This is a Stata 16.1 generated SVG file (http://www.stata.com) -->

<svg version="1.1" width="600px" height="770px" viewBox="0 0 6737 8640" xmlns="http://www.w3.org/2000/svg" xmlns:xlink="http://www.w3.org/1999/xlink">
	<desc>Stata Graph - Graph</desc>
	<rect x="0" y="0" width="6737" height="8640" style="fill:#E1E6F0;stroke:none"/>
	<rect x="0.00" y="0.00" width="6737.00" height="8640.00" style="fill:#FFFFFF"/>
	<rect x="6.74" y="6.74" width="6723.53" height="8626.53" style="fill:none;stroke:#FFFFFF;stroke-width:13.47"/>
	<rect x="412.03" y="235.98" width="5983.13" height="7629.12" style="fill:#FFFFFF"/>
	<rect x="418.77" y="242.72" width="5969.66" height="7615.65" style="fill:none;stroke:#FFFFFF;stroke-width:13.47"/>
	<line x1="412.03" y1="474.39" x2="6395.17" y2="474.39" style="stroke:#C0C0C0;stroke-width:13.47"/>
	<line x1="3183.14" y1="7865.10" x2="3183.14" y2="474.39" style="stroke:#000000;stroke-width:13.47"/>
	<line x1="3390.51" y1="659.61" x2="4885.28" y2="659.61" style="stroke:#000000;stroke-width:20.21"/>
	<line x1="3408.87" y1="765.72" x2="4585.57" y2="765.72" style="stroke:#000000;stroke-width:20.21"/>
	<line x1="3620.01" y1="871.56" x2="4370.91" y2="871.56" style="stroke:#000000;stroke-width:20.21"/>
	<line x1="3223.37" y1="977.67" x2="4650.37" y2="977.67" style="stroke:#000000;stroke-width:20.21"/>
	<line x1="3272.78" y1="1083.51" x2="4504.02" y2="1083.51" style="stroke:#000000;stroke-width:20.21"/>
	<line x1="3301.40" y1="1189.62" x2="4280.19" y2="1189.62" style="stroke:#000000;stroke-width:20.21"/>
	<line x1="3549.81" y1="1295.46" x2="3981.02" y2="1295.46" style="stroke:#000000;stroke-width:20.21"/>
	<line x1="3240.65" y1="1401.57" x2="4253.19" y2="1401.57" style="stroke:#000000;stroke-width:20.21"/>
	<line x1="3201.77" y1="1507.41" x2="4174.88" y2="1507.41" style="stroke:#000000;stroke-width:20.21"/>
	<line x1="3468.27" y1="1613.52" x2="3908.11" y2="1613.52" style="stroke:#000000;stroke-width:20.21"/>
	<line x1="3129.95" y1="1719.36" x2="4141.40" y2="1719.36" style="stroke:#000000;stroke-width:20.21"/>
	<line x1="3120.77" y1="1825.20" x2="4091.72" y2="1825.20" style="stroke:#000000;stroke-width:20.21"/>
	<line x1="3419.40" y1="1931.31" x2="3758.80" y2="1931.31" style="stroke:#000000;stroke-width:20.21"/>
	<line x1="3230.39" y1="2037.15" x2="3934.30" y2="2037.15" style="stroke:#000000;stroke-width:20.21"/>
	<line x1="3293.03" y1="2143.26" x2="3867.61" y2="2143.26" style="stroke:#000000;stroke-width:20.21"/>
	<line x1="3327.59" y1="2249.10" x2="3830.35" y2="2249.10" style="stroke:#000000;stroke-width:20.21"/>
	<line x1="3487.71" y1="2355.21" x2="3667.81" y2="2355.21" style="stroke:#000000;stroke-width:20.21"/>
	<line x1="3478.80" y1="2461.05" x2="3665.65" y2="2461.05" style="stroke:#000000;stroke-width:20.21"/>
	<line x1="3365.93" y1="2567.16" x2="3759.07" y2="2567.16" style="stroke:#000000;stroke-width:20.21"/>
	<line x1="3209.60" y1="2673.00" x2="3908.38" y2="2673.00" style="stroke:#000000;stroke-width:20.21"/>
	<line x1="3332.99" y1="2779.11" x2="3774.19" y2="2779.11" style="stroke:#000000;stroke-width:20.21"/>
	<line x1="2962.81" y1="2884.95" x2="4142.48" y2="2884.95" style="stroke:#000000;stroke-width:20.21"/>
	<line x1="3451.80" y1="2990.79" x2="3651.06" y2="2990.79" style="stroke:#000000;stroke-width:20.21"/>
	<line x1="2986.57" y1="3096.90" x2="4048.52" y2="3096.90" style="stroke:#000000;stroke-width:20.21"/>
	<line x1="3093.50" y1="3202.74" x2="3938.35" y2="3202.74" style="stroke:#000000;stroke-width:20.21"/>
	<line x1="3332.72" y1="3308.85" x2="3668.35" y2="3308.85" style="stroke:#000000;stroke-width:20.21"/>
	<line x1="3214.46" y1="3414.69" x2="3786.34" y2="3414.69" style="stroke:#000000;stroke-width:20.21"/>
	<line x1="3369.45" y1="3520.80" x2="3594.36" y2="3520.80" style="stroke:#000000;stroke-width:20.21"/>
	<line x1="3266.03" y1="3626.64" x2="3685.36" y2="3626.64" style="stroke:#000000;stroke-width:20.21"/>
	<line x1="3213.38" y1="3732.75" x2="3721.54" y2="3732.75" style="stroke:#000000;stroke-width:20.21"/>
	<line x1="3273.86" y1="3838.59" x2="3649.17" y2="3838.59" style="stroke:#000000;stroke-width:20.21"/>
	<line x1="3131.84" y1="3944.70" x2="3782.83" y2="3944.70" style="stroke:#000000;stroke-width:20.21"/>
	<line x1="2957.41" y1="4050.54" x2="3953.20" y2="4050.54" style="stroke:#000000;stroke-width:20.21"/>
	<line x1="2998.99" y1="4156.38" x2="3906.76" y2="4156.38" style="stroke:#000000;stroke-width:20.21"/>
	<line x1="3049.75" y1="4262.49" x2="3855.73" y2="4262.49" style="stroke:#000000;stroke-width:20.21"/>
	<line x1="3366.47" y1="4368.33" x2="3529.83" y2="4368.33" style="stroke:#000000;stroke-width:20.21"/>
	<line x1="2879.92" y1="4474.44" x2="4008.29" y2="4474.44" style="stroke:#000000;stroke-width:20.21"/>
	<line x1="3050.29" y1="4580.28" x2="3810.64" y2="4580.28" style="stroke:#000000;stroke-width:20.21"/>
	<line x1="3016.27" y1="4686.39" x2="3809.02" y2="4686.39" style="stroke:#000000;stroke-width:20.21"/>
	<line x1="3293.30" y1="4792.23" x2="3523.35" y2="4792.23" style="stroke:#000000;stroke-width:20.21"/>
	<line x1="2960.65" y1="4898.34" x2="3851.95" y2="4898.34" style="stroke:#000000;stroke-width:20.21"/>
	<line x1="3166.94" y1="5004.18" x2="3600.03" y2="5004.18" style="stroke:#000000;stroke-width:20.21"/>
	<line x1="3110.51" y1="5110.29" x2="3652.68" y2="5110.29" style="stroke:#000000;stroke-width:20.21"/>
	<line x1="2885.59" y1="5216.13" x2="3836.29" y2="5216.13" style="stroke:#000000;stroke-width:20.21"/>
	<line x1="2868.31" y1="5321.97" x2="3853.03" y2="5321.97" style="stroke:#000000;stroke-width:20.21"/>
	<line x1="2915.02" y1="5428.08" x2="3773.65" y2="5428.08" style="stroke:#000000;stroke-width:20.21"/>
	<line x1="3084.32" y1="5533.92" x2="3590.31" y2="5533.92" style="stroke:#000000;stroke-width:20.21"/>
	<line x1="2873.71" y1="5640.03" x2="3753.67" y2="5640.03" style="stroke:#000000;stroke-width:20.21"/>
	<line x1="2778.66" y1="5745.87" x2="3826.03" y2="5745.87" style="stroke:#000000;stroke-width:20.21"/>
	<line x1="2781.09" y1="5851.98" x2="3795.79" y2="5851.98" style="stroke:#000000;stroke-width:20.21"/>
	<line x1="2771.37" y1="5957.82" x2="3717.49" y2="5957.82" style="stroke:#000000;stroke-width:20.21"/>
	<line x1="2908.00" y1="6063.93" x2="3478.53" y2="6063.93" style="stroke:#000000;stroke-width:20.21"/>
	<line x1="2763.54" y1="6169.77" x2="3562.77" y2="6169.77" style="stroke:#000000;stroke-width:20.21"/>
	<line x1="2776.23" y1="6275.88" x2="3377.01" y2="6275.88" style="stroke:#000000;stroke-width:20.21"/>
	<line x1="2713.86" y1="6381.72" x2="3429.12" y2="6381.72" style="stroke:#000000;stroke-width:20.21"/>
	<line x1="2545.65" y1="6487.83" x2="3398.61" y2="6487.83" style="stroke:#000000;stroke-width:20.21"/>
	<line x1="2561.85" y1="6593.67" x2="3374.85" y2="6593.67" style="stroke:#000000;stroke-width:20.21"/>
	<line x1="2180.59" y1="6699.51" x2="3572.49" y2="6699.51" style="stroke:#000000;stroke-width:20.21"/>
	<line x1="2232.44" y1="6805.62" x2="3355.94" y2="6805.62" style="stroke:#000000;stroke-width:20.21"/>
	<line x1="1863.87" y1="6911.46" x2="2837.26" y2="6911.46" style="stroke:#000000;stroke-width:20.21"/>
	<line x1="1631.13" y1="7017.57" x2="2926.63" y2="7017.57" style="stroke:#000000;stroke-width:20.21"/>
	<line x1="1088.95" y1="7123.41" x2="2383.91" y2="7123.41" style="stroke:#000000;stroke-width:20.21"/>
	<line x1="3458.55" y1="7441.47" x2="3516.60" y2="7441.47" style="stroke:#000000;stroke-width:20.21"/>
	<line x1="3482.85" y1="7547.31" x2="3643.50" y2="7547.31" style="stroke:#000000;stroke-width:20.21"/>
	<text x="510.32" y="591.35" style="font-family:'Helvetica';font-weight:bold;font-size:107.19px;fill:#000000">Genotypes</text>
	<text x="510.32" y="697.19" style="font-family:'Helvetica';font-size:107.19px;fill:#000000">rs6831256</text>
	<text x="510.32" y="803.30" style="font-family:'Helvetica';font-size:107.19px;fill:#000000">rs2710642</text>
	<text x="510.32" y="909.14" style="font-family:'Helvetica';font-size:107.19px;fill:#000000">rs1169288</text>
	<text x="510.32" y="1015.25" style="font-family:'Helvetica';font-size:107.19px;fill:#000000">rs4253772</text>
	<text x="510.32" y="1121.09" style="font-family:'Helvetica';font-size:107.19px;fill:#000000">rs7640978</text>
	<text x="510.32" y="1227.20" style="font-family:'Helvetica';font-size:107.19px;fill:#000000">rs10102164</text>
	<text x="510.32" y="1333.04" style="font-family:'Helvetica';font-size:107.19px;fill:#000000">rs11206510</text>
	<text x="510.32" y="1439.15" style="font-family:'Helvetica';font-size:107.19px;fill:#000000">rs4942486</text>
	<text x="510.32" y="1544.99" style="font-family:'Helvetica';font-size:107.19px;fill:#000000">rs3177928</text>
	<text x="510.32" y="1651.10" style="font-family:'Helvetica';font-size:107.19px;fill:#000000">rs2954029</text>
	<text x="510.32" y="1756.94" style="font-family:'Helvetica';font-size:107.19px;fill:#000000">rs1800562</text>
	<text x="510.32" y="1862.78" style="font-family:'Helvetica';font-size:107.19px;fill:#000000">rs10490626</text>
	<text x="510.32" y="1968.89" style="font-family:'Helvetica';font-size:107.19px;fill:#000000">rs4299376</text>
	<text x="510.32" y="2074.73" style="font-family:'Helvetica';font-size:107.19px;fill:#000000">rs1564348</text>
	<text x="510.32" y="2180.84" style="font-family:'Helvetica';font-size:107.19px;fill:#000000">rs11220462</text>
	<text x="510.32" y="2286.68" style="font-family:'Helvetica';font-size:107.19px;fill:#000000">rs3764261</text>
	<text x="510.32" y="2392.79" style="font-family:'Helvetica';font-size:107.19px;fill:#000000">rs629301</text>
	<text x="510.32" y="2498.63" style="font-family:'Helvetica';font-size:107.19px;fill:#000000">rs599839</text>
	<text x="510.32" y="2604.74" style="font-family:'Helvetica';font-size:107.19px;fill:#000000">rs964184</text>
	<text x="510.32" y="2710.58" style="font-family:'Helvetica';font-size:107.19px;fill:#000000">rs514230</text>
	<text x="510.32" y="2816.69" style="font-family:'Helvetica';font-size:107.19px;fill:#000000">rs2000999</text>
	<text x="510.32" y="2922.53" style="font-family:'Helvetica';font-size:107.19px;fill:#000000">rs2030746</text>
	<text x="510.32" y="3028.37" style="font-family:'Helvetica';font-size:107.19px;fill:#000000">rs6511720</text>
	<text x="510.32" y="3134.48" style="font-family:'Helvetica';font-size:107.19px;fill:#000000">rs314253</text>
	<text x="510.32" y="3240.32" style="font-family:'Helvetica';font-size:107.19px;fill:#000000">rs7206971</text>
	<text x="510.32" y="3346.43" style="font-family:'Helvetica';font-size:107.19px;fill:#000000">rs12916</text>
	<text x="510.32" y="3452.27" style="font-family:'Helvetica';font-size:107.19px;fill:#000000">rs6029526</text>
	<text x="510.32" y="3558.38" style="font-family:'Helvetica';font-size:107.19px;fill:#000000">rs562338</text>
	<text x="510.32" y="3664.22" style="font-family:'Helvetica';font-size:107.19px;fill:#000000">rs2479409</text>
	<text x="510.32" y="3770.33" style="font-family:'Helvetica';font-size:107.19px;fill:#000000">rs174546</text>
	<text x="510.32" y="3876.17" style="font-family:'Helvetica';font-size:107.19px;fill:#000000">rs10401969</text>
	<text x="510.32" y="3982.28" style="font-family:'Helvetica';font-size:107.19px;fill:#000000">rs5763662</text>
	<text x="510.32" y="4088.12" style="font-family:'Helvetica';font-size:107.19px;fill:#000000">rs2328223</text>
	<text x="510.32" y="4193.96" style="font-family:'Helvetica';font-size:107.19px;fill:#000000">rs1801689</text>
	<text x="510.32" y="4300.07" style="font-family:'Helvetica';font-size:107.19px;fill:#000000">rs12670798</text>
	<text x="510.32" y="4405.91" style="font-family:'Helvetica';font-size:107.19px;fill:#000000">rs4420638</text>
	<text x="510.32" y="4512.02" style="font-family:'Helvetica';font-size:107.19px;fill:#000000">rs11563251</text>
	<text x="510.32" y="4617.86" style="font-family:'Helvetica';font-size:107.19px;fill:#000000">rs2642442</text>
	<text x="510.32" y="4723.97" style="font-family:'Helvetica';font-size:107.19px;fill:#000000">rs2072183</text>
	<text x="510.32" y="4829.81" style="font-family:'Helvetica';font-size:107.19px;fill:#000000">rs1367117</text>
	<text x="510.32" y="4935.92" style="font-family:'Helvetica';font-size:107.19px;fill:#000000">rs2255141</text>
	<text x="510.32" y="5041.76" style="font-family:'Helvetica';font-size:107.19px;fill:#000000">rs16996148</text>
	<text x="510.32" y="5147.87" style="font-family:'Helvetica';font-size:107.19px;fill:#000000">rs6882076</text>
	<text x="510.32" y="5253.71" style="font-family:'Helvetica';font-size:107.19px;fill:#000000">rs12748152</text>
	<text x="510.32" y="5359.55" style="font-family:'Helvetica';font-size:107.19px;fill:#000000">rs364585</text>
	<text x="510.32" y="5465.66" style="font-family:'Helvetica';font-size:107.19px;fill:#000000">rs8017377</text>
	<text x="510.32" y="5571.50" style="font-family:'Helvetica';font-size:107.19px;fill:#000000">rs2131925</text>
	<text x="510.32" y="5677.61" style="font-family:'Helvetica';font-size:107.19px;fill:#000000">rs4722551</text>
	<text x="510.32" y="5783.45" style="font-family:'Helvetica';font-size:107.19px;fill:#000000">rs3780181</text>
	<text x="510.32" y="5889.56" style="font-family:'Helvetica';font-size:107.19px;fill:#000000">rs17404153</text>
	<text x="510.32" y="5995.40" style="font-family:'Helvetica';font-size:107.19px;fill:#000000">rs2902940</text>
	<text x="510.32" y="6101.51" style="font-family:'Helvetica';font-size:107.19px;fill:#000000">rs9987289</text>
	<text x="510.32" y="6207.35" style="font-family:'Helvetica';font-size:107.19px;fill:#000000">rs2081687</text>
	<text x="510.32" y="6313.46" style="font-family:'Helvetica';font-size:107.19px;fill:#000000">rs11136341</text>
	<text x="510.32" y="6419.30" style="font-family:'Helvetica';font-size:107.19px;fill:#000000">rs3757354</text>
	<text x="510.32" y="6525.41" style="font-family:'Helvetica';font-size:107.19px;fill:#000000">rs9488822</text>
	<text x="510.32" y="6631.25" style="font-family:'Helvetica';font-size:107.19px;fill:#000000">rs12027135</text>
	<text x="510.32" y="6737.09" style="font-family:'Helvetica';font-size:107.19px;fill:#000000">rs2254287</text>
	<text x="510.32" y="6843.20" style="font-family:'Helvetica';font-size:107.19px;fill:#000000">rs267733</text>
	<text x="510.32" y="6949.04" style="font-family:'Helvetica';font-size:107.19px;fill:#000000">rs4530754</text>
	<text x="510.32" y="7055.15" style="font-family:'Helvetica';font-size:107.19px;fill:#000000">rs1250229</text>
	<text x="510.32" y="7160.99" style="font-family:'Helvetica';font-size:107.19px;fill:#000000">rs11065987</text>
	<text x="510.32" y="7372.94" style="font-family:'Helvetica';font-weight:bold;font-size:107.19px;fill:#000000">Summary</text>
	<text x="510.32" y="7479.05" style="font-family:'Helvetica';font-size:107.19px;fill:#000000">IVW</text>
	<text x="510.32" y="7584.89" style="font-family:'Helvetica';font-size:107.19px;fill:#000000">MR-Egger</text>
	<text x="5375.34" y="697.19" style="font-family:'Helvetica';font-size:107.19px;fill:#000000">1.47 (0.32, 2.62)</text>
	<text x="5375.34" y="803.30" style="font-family:'Helvetica';font-size:107.19px;fill:#000000">1.25 (0.35, 2.16)</text>
	<text x="5375.34" y="909.14" style="font-family:'Helvetica';font-size:107.19px;fill:#000000">1.25 (0.67, 1.83)</text>
	<text x="5375.34" y="1015.25" style="font-family:'Helvetica';font-size:107.19px;fill:#000000">1.16 (0.06, 2.26)</text>
	<text x="5375.34" y="1121.09" style="font-family:'Helvetica';font-size:107.19px;fill:#000000">1.09 (0.14, 2.03)</text>
	<text x="5375.34" y="1227.20" style="font-family:'Helvetica';font-size:107.19px;fill:#000000">0.94 (0.18, 1.69)</text>
	<text x="5375.34" y="1333.04" style="font-family:'Helvetica';font-size:107.19px;fill:#000000">0.90 (0.56, 1.23)</text>
	<text x="5375.34" y="1439.15" style="font-family:'Helvetica';font-size:107.19px;fill:#000000">0.87 (0.09, 1.65)</text>
	<text x="5375.34" y="1544.99" style="font-family:'Helvetica';font-size:107.19px;fill:#000000">0.78 (0.03, 1.53)</text>
	<text x="5375.34" y="1651.10" style="font-family:'Helvetica';font-size:107.19px;fill:#000000">0.78 (0.44, 1.12)</text>
	<text x="5375.34" y="1756.94" style="font-family:'Helvetica';font-size:107.19px;fill:#000000">0.70 (-0.08, 1.48)</text>
	<text x="5375.34" y="1862.78" style="font-family:'Helvetica';font-size:107.19px;fill:#000000">0.65 (-0.10, 1.40)</text>
	<text x="5375.34" y="1968.89" style="font-family:'Helvetica';font-size:107.19px;fill:#000000">0.63 (0.36, 0.89)</text>
	<text x="5375.34" y="2074.73" style="font-family:'Helvetica';font-size:107.19px;fill:#000000">0.61 (0.07, 1.16)</text>
	<text x="5375.34" y="2180.84" style="font-family:'Helvetica';font-size:107.19px;fill:#000000">0.61 (0.17, 1.05)</text>
	<text x="5375.34" y="2286.68" style="font-family:'Helvetica';font-size:107.19px;fill:#000000">0.61 (0.22, 1.00)</text>
	<text x="5375.34" y="2392.79" style="font-family:'Helvetica';font-size:107.19px;fill:#000000">0.61 (0.47, 0.75)</text>
	<text x="5375.34" y="2498.63" style="font-family:'Helvetica';font-size:107.19px;fill:#000000">0.60 (0.46, 0.74)</text>
	<text x="5375.34" y="2604.74" style="font-family:'Helvetica';font-size:107.19px;fill:#000000">0.58 (0.28, 0.89)</text>
	<text x="5375.34" y="2710.58" style="font-family:'Helvetica';font-size:107.19px;fill:#000000">0.58 (0.04, 1.12)</text>
	<text x="5375.34" y="2816.69" style="font-family:'Helvetica';font-size:107.19px;fill:#000000">0.57 (0.23, 0.91)</text>
	<text x="5375.34" y="2922.53" style="font-family:'Helvetica';font-size:107.19px;fill:#000000">0.57 (-0.34, 1.48)</text>
	<text x="5375.34" y="3028.37" style="font-family:'Helvetica';font-size:107.19px;fill:#000000">0.57 (0.41, 0.72)</text>
	<text x="5375.34" y="3134.48" style="font-family:'Helvetica';font-size:107.19px;fill:#000000">0.51 (-0.30, 1.33)</text>
	<text x="5375.34" y="3240.32" style="font-family:'Helvetica';font-size:107.19px;fill:#000000">0.51 (-0.14, 1.16)</text>
	<text x="5375.34" y="3346.43" style="font-family:'Helvetica';font-size:107.19px;fill:#000000">0.49 (0.23, 0.75)</text>
	<text x="5375.34" y="3452.27" style="font-family:'Helvetica';font-size:107.19px;fill:#000000">0.49 (0.05, 0.93)</text>
	<text x="5375.34" y="3558.38" style="font-family:'Helvetica';font-size:107.19px;fill:#000000">0.46 (0.29, 0.63)</text>
	<text x="5375.34" y="3664.22" style="font-family:'Helvetica';font-size:107.19px;fill:#000000">0.45 (0.13, 0.77)</text>
	<text x="5375.34" y="3770.33" style="font-family:'Helvetica';font-size:107.19px;fill:#000000">0.44 (0.05, 0.83)</text>
	<text x="5375.34" y="3876.17" style="font-family:'Helvetica';font-size:107.19px;fill:#000000">0.43 (0.14, 0.72)</text>
	<text x="5375.34" y="3982.28" style="font-family:'Helvetica';font-size:107.19px;fill:#000000">0.42 (-0.08, 0.92)</text>
	<text x="5375.34" y="4088.12" style="font-family:'Helvetica';font-size:107.19px;fill:#000000">0.42 (-0.35, 1.19)</text>
	<text x="5375.34" y="4193.96" style="font-family:'Helvetica';font-size:107.19px;fill:#000000">0.42 (-0.28, 1.11)</text>
	<text x="5375.34" y="4300.07" style="font-family:'Helvetica';font-size:107.19px;fill:#000000">0.42 (-0.21, 1.04)</text>
	<text x="5375.34" y="4405.91" style="font-family:'Helvetica';font-size:107.19px;fill:#000000">0.41 (0.28, 0.53)</text>
	<text x="5375.34" y="4512.02" style="font-family:'Helvetica';font-size:107.19px;fill:#000000">0.40 (-0.47, 1.27)</text>
	<text x="5375.34" y="4617.86" style="font-family:'Helvetica';font-size:107.19px;fill:#000000">0.38 (-0.20, 0.97)</text>
	<text x="5375.34" y="4723.97" style="font-family:'Helvetica';font-size:107.19px;fill:#000000">0.35 (-0.26, 0.96)</text>
	<text x="5375.34" y="4829.81" style="font-family:'Helvetica';font-size:107.19px;fill:#000000">0.35 (0.17, 0.52)</text>
	<text x="5375.34" y="4935.92" style="font-family:'Helvetica';font-size:107.19px;fill:#000000">0.34 (-0.34, 1.03)</text>
	<text x="5375.34" y="5041.76" style="font-family:'Helvetica';font-size:107.19px;fill:#000000">0.31 (-0.02, 0.64)</text>
	<text x="5375.34" y="5147.87" style="font-family:'Helvetica';font-size:107.19px;fill:#000000">0.31 (-0.11, 0.72)</text>
	<text x="5375.34" y="5253.71" style="font-family:'Helvetica';font-size:107.19px;fill:#000000">0.27 (-0.46, 1.01)</text>
	<text x="5375.34" y="5359.55" style="font-family:'Helvetica';font-size:107.19px;fill:#000000">0.27 (-0.48, 1.03)</text>
	<text x="5375.34" y="5465.66" style="font-family:'Helvetica';font-size:107.19px;fill:#000000">0.25 (-0.41, 0.91)</text>
	<text x="5375.34" y="5571.50" style="font-family:'Helvetica';font-size:107.19px;fill:#000000">0.24 (-0.15, 0.63)</text>
	<text x="5375.34" y="5677.61" style="font-family:'Helvetica';font-size:107.19px;fill:#000000">0.20 (-0.48, 0.88)</text>
	<text x="5375.34" y="5783.45" style="font-family:'Helvetica';font-size:107.19px;fill:#000000">0.18 (-0.62, 0.99)</text>
	<text x="5375.34" y="5889.56" style="font-family:'Helvetica';font-size:107.19px;fill:#000000">0.16 (-0.62, 0.94)</text>
	<text x="5375.34" y="5995.40" style="font-family:'Helvetica';font-size:107.19px;fill:#000000">0.09 (-0.63, 0.82)</text>
	<text x="5375.34" y="6101.51" style="font-family:'Helvetica';font-size:107.19px;fill:#000000">0.02 (-0.42, 0.45)</text>
	<text x="5375.34" y="6207.35" style="font-family:'Helvetica';font-size:107.19px;fill:#000000">-0.03 (-0.65, 0.58)</text>
	<text x="5375.34" y="6313.46" style="font-family:'Helvetica';font-size:107.19px;fill:#000000">-0.16 (-0.63, 0.30)</text>
	<text x="5375.34" y="6419.30" style="font-family:'Helvetica';font-size:107.19px;fill:#000000">-0.17 (-0.72, 0.38)</text>
	<text x="5375.34" y="6525.41" style="font-family:'Helvetica';font-size:107.19px;fill:#000000">-0.32 (-0.98, 0.33)</text>
	<text x="5375.34" y="6631.25" style="font-family:'Helvetica';font-size:107.19px;fill:#000000">-0.33 (-0.96, 0.30)</text>
	<text x="5375.34" y="6737.09" style="font-family:'Helvetica';font-size:107.19px;fill:#000000">-0.47 (-1.54, 0.60)</text>
	<text x="5375.34" y="6843.20" style="font-family:'Helvetica';font-size:107.19px;fill:#000000">-0.60 (-1.46, 0.27)</text>
	<text x="5375.34" y="6949.04" style="font-family:'Helvetica';font-size:107.19px;fill:#000000">-1.28 (-2.03, -0.53)</text>
	<text x="5375.34" y="7055.15" style="font-family:'Helvetica';font-size:107.19px;fill:#000000">-1.39 (-2.39, -0.39)</text>
	<text x="5375.34" y="7160.99" style="font-family:'Helvetica';font-size:107.19px;fill:#000000">-2.23 (-3.22, -1.23)</text>
	<text x="5375.34" y="7479.05" style="font-family:'Helvetica';font-size:107.19px;fill:#000000">0.47 (0.42, 0.51)</text>
	<text x="5375.34" y="7584.89" style="font-family:'Helvetica';font-size:107.19px;fill:#000000">0.59 (0.46, 0.71)</text>
	<text x="5375.34" y="379.40" style="font-family:'Helvetica';font-size:107.19px;fill:#000000">Estimate (95% CI)</text>
	<text x="5375.34" y="697.19" style="font-family:'Helvetica';font-size:107.19px;fill:#000000">1.47 (0.32, 2.62)</text>
	<text x="5375.34" y="803.30" style="font-family:'Helvetica';font-size:107.19px;fill:#000000">1.25 (0.35, 2.16)</text>
	<text x="5375.34" y="909.14" style="font-family:'Helvetica';font-size:107.19px;fill:#000000">1.25 (0.67, 1.83)</text>
	<text x="5375.34" y="1015.25" style="font-family:'Helvetica';font-size:107.19px;fill:#000000">1.16 (0.06, 2.26)</text>
	<text x="5375.34" y="1121.09" style="font-family:'Helvetica';font-size:107.19px;fill:#000000">1.09 (0.14, 2.03)</text>
	<text x="5375.34" y="1227.20" style="font-family:'Helvetica';font-size:107.19px;fill:#000000">0.94 (0.18, 1.69)</text>
	<text x="5375.34" y="1333.04" style="font-family:'Helvetica';font-size:107.19px;fill:#000000">0.90 (0.56, 1.23)</text>
	<text x="5375.34" y="1439.15" style="font-family:'Helvetica';font-size:107.19px;fill:#000000">0.87 (0.09, 1.65)</text>
	<text x="5375.34" y="1544.99" style="font-family:'Helvetica';font-size:107.19px;fill:#000000">0.78 (0.03, 1.53)</text>
	<text x="5375.34" y="1651.10" style="font-family:'Helvetica';font-size:107.19px;fill:#000000">0.78 (0.44, 1.12)</text>
	<text x="5375.34" y="1756.94" style="font-family:'Helvetica';font-size:107.19px;fill:#000000">0.70 (-0.08, 1.48)</text>
	<text x="5375.34" y="1862.78" style="font-family:'Helvetica';font-size:107.19px;fill:#000000">0.65 (-0.10, 1.40)</text>
	<text x="5375.34" y="1968.89" style="font-family:'Helvetica';font-size:107.19px;fill:#000000">0.63 (0.36, 0.89)</text>
	<text x="5375.34" y="2074.73" style="font-family:'Helvetica';font-size:107.19px;fill:#000000">0.61 (0.07, 1.16)</text>
	<text x="5375.34" y="2180.84" style="font-family:'Helvetica';font-size:107.19px;fill:#000000">0.61 (0.17, 1.05)</text>
	<text x="5375.34" y="2286.68" style="font-family:'Helvetica';font-size:107.19px;fill:#000000">0.61 (0.22, 1.00)</text>
	<text x="5375.34" y="2392.79" style="font-family:'Helvetica';font-size:107.19px;fill:#000000">0.61 (0.47, 0.75)</text>
	<text x="5375.34" y="2498.63" style="font-family:'Helvetica';font-size:107.19px;fill:#000000">0.60 (0.46, 0.74)</text>
	<text x="5375.34" y="2604.74" style="font-family:'Helvetica';font-size:107.19px;fill:#000000">0.58 (0.28, 0.89)</text>
	<text x="5375.34" y="2710.58" style="font-family:'Helvetica';font-size:107.19px;fill:#000000">0.58 (0.04, 1.12)</text>
	<text x="5375.34" y="2816.69" style="font-family:'Helvetica';font-size:107.19px;fill:#000000">0.57 (0.23, 0.91)</text>
	<text x="5375.34" y="2922.53" style="font-family:'Helvetica';font-size:107.19px;fill:#000000">0.57 (-0.34, 1.48)</text>
	<text x="5375.34" y="3028.37" style="font-family:'Helvetica';font-size:107.19px;fill:#000000">0.57 (0.41, 0.72)</text>
	<text x="5375.34" y="3134.48" style="font-family:'Helvetica';font-size:107.19px;fill:#000000">0.51 (-0.30, 1.33)</text>
	<text x="5375.34" y="3240.32" style="font-family:'Helvetica';font-size:107.19px;fill:#000000">0.51 (-0.14, 1.16)</text>
	<text x="5375.34" y="3346.43" style="font-family:'Helvetica';font-size:107.19px;fill:#000000">0.49 (0.23, 0.75)</text>
	<text x="5375.34" y="3452.27" style="font-family:'Helvetica';font-size:107.19px;fill:#000000">0.49 (0.05, 0.93)</text>
	<text x="5375.34" y="3558.38" style="font-family:'Helvetica';font-size:107.19px;fill:#000000">0.46 (0.29, 0.63)</text>
	<text x="5375.34" y="3664.22" style="font-family:'Helvetica';font-size:107.19px;fill:#000000">0.45 (0.13, 0.77)</text>
	<text x="5375.34" y="3770.33" style="font-family:'Helvetica';font-size:107.19px;fill:#000000">0.44 (0.05, 0.83)</text>
	<text x="5375.34" y="3876.17" style="font-family:'Helvetica';font-size:107.19px;fill:#000000">0.43 (0.14, 0.72)</text>
	<text x="5375.34" y="3982.28" style="font-family:'Helvetica';font-size:107.19px;fill:#000000">0.42 (-0.08, 0.92)</text>
	<text x="5375.34" y="4088.12" style="font-family:'Helvetica';font-size:107.19px;fill:#000000">0.42 (-0.35, 1.19)</text>
	<text x="5375.34" y="4193.96" style="font-family:'Helvetica';font-size:107.19px;fill:#000000">0.42 (-0.28, 1.11)</text>
	<text x="5375.34" y="4300.07" style="font-family:'Helvetica';font-size:107.19px;fill:#000000">0.42 (-0.21, 1.04)</text>
	<text x="5375.34" y="4405.91" style="font-family:'Helvetica';font-size:107.19px;fill:#000000">0.41 (0.28, 0.53)</text>
	<text x="5375.34" y="4512.02" style="font-family:'Helvetica';font-size:107.19px;fill:#000000">0.40 (-0.47, 1.27)</text>
	<text x="5375.34" y="4617.86" style="font-family:'Helvetica';font-size:107.19px;fill:#000000">0.38 (-0.20, 0.97)</text>
	<text x="5375.34" y="4723.97" style="font-family:'Helvetica';font-size:107.19px;fill:#000000">0.35 (-0.26, 0.96)</text>
	<text x="5375.34" y="4829.81" style="font-family:'Helvetica';font-size:107.19px;fill:#000000">0.35 (0.17, 0.52)</text>
	<text x="5375.34" y="4935.92" style="font-family:'Helvetica';font-size:107.19px;fill:#000000">0.34 (-0.34, 1.03)</text>
	<text x="5375.34" y="5041.76" style="font-family:'Helvetica';font-size:107.19px;fill:#000000">0.31 (-0.02, 0.64)</text>
	<text x="5375.34" y="5147.87" style="font-family:'Helvetica';font-size:107.19px;fill:#000000">0.31 (-0.11, 0.72)</text>
	<text x="5375.34" y="5253.71" style="font-family:'Helvetica';font-size:107.19px;fill:#000000">0.27 (-0.46, 1.01)</text>
	<text x="5375.34" y="5359.55" style="font-family:'Helvetica';font-size:107.19px;fill:#000000">0.27 (-0.48, 1.03)</text>
	<text x="5375.34" y="5465.66" style="font-family:'Helvetica';font-size:107.19px;fill:#000000">0.25 (-0.41, 0.91)</text>
	<text x="5375.34" y="5571.50" style="font-family:'Helvetica';font-size:107.19px;fill:#000000">0.24 (-0.15, 0.63)</text>
	<text x="5375.34" y="5677.61" style="font-family:'Helvetica';font-size:107.19px;fill:#000000">0.20 (-0.48, 0.88)</text>
	<text x="5375.34" y="5783.45" style="font-family:'Helvetica';font-size:107.19px;fill:#000000">0.18 (-0.62, 0.99)</text>
	<text x="5375.34" y="5889.56" style="font-family:'Helvetica';font-size:107.19px;fill:#000000">0.16 (-0.62, 0.94)</text>
	<text x="5375.34" y="5995.40" style="font-family:'Helvetica';font-size:107.19px;fill:#000000">0.09 (-0.63, 0.82)</text>
	<text x="5375.34" y="6101.51" style="font-family:'Helvetica';font-size:107.19px;fill:#000000">0.02 (-0.42, 0.45)</text>
	<text x="5375.34" y="6207.35" style="font-family:'Helvetica';font-size:107.19px;fill:#000000">-0.03 (-0.65, 0.58)</text>
	<text x="5375.34" y="6313.46" style="font-family:'Helvetica';font-size:107.19px;fill:#000000">-0.16 (-0.63, 0.30)</text>
	<text x="5375.34" y="6419.30" style="font-family:'Helvetica';font-size:107.19px;fill:#000000">-0.17 (-0.72, 0.38)</text>
	<text x="5375.34" y="6525.41" style="font-family:'Helvetica';font-size:107.19px;fill:#000000">-0.32 (-0.98, 0.33)</text>
	<text x="5375.34" y="6631.25" style="font-family:'Helvetica';font-size:107.19px;fill:#000000">-0.33 (-0.96, 0.30)</text>
	<text x="5375.34" y="6737.09" style="font-family:'Helvetica';font-size:107.19px;fill:#000000">-0.47 (-1.54, 0.60)</text>
	<text x="5375.34" y="6843.20" style="font-family:'Helvetica';font-size:107.19px;fill:#000000">-0.60 (-1.46, 0.27)</text>
	<text x="5375.34" y="6949.04" style="font-family:'Helvetica';font-size:107.19px;fill:#000000">-1.28 (-2.03, -0.53)</text>
	<text x="5375.34" y="7055.15" style="font-family:'Helvetica';font-size:107.19px;fill:#000000">-1.39 (-2.39, -0.39)</text>
	<text x="5375.34" y="7160.99" style="font-family:'Helvetica';font-size:107.19px;fill:#000000">-2.23 (-3.22, -1.23)</text>
	<text x="5375.34" y="7479.05" style="font-family:'Helvetica';font-size:107.19px;fill:#000000">0.47 (0.42, 0.51)</text>
	<text x="5375.34" y="7584.89" style="font-family:'Helvetica';font-size:107.19px;fill:#000000">0.59 (0.46, 0.71)</text>
	<text x="5375.34" y="379.40" style="font-family:'Helvetica';font-size:107.19px;fill:#000000">Estimate (95% CI)</text>
	<polygon points="4098.49,659.88 4137.62,620.75 4176.75,659.88 4137.62,699.01" style="fill:#000000"/>
	<polygon points="4112.78,659.88 4137.62,635.04 4162.46,659.88 4137.62,684.72" style="fill:none;stroke:#000000;stroke-width:20.21"/>
	<polygon points="3958.08,765.72 3997.22,726.59 4036.35,765.72 3997.22,804.85" style="fill:#000000"/>
	<polygon points="3972.38,765.72 3997.22,740.88 4022.06,765.72 3997.22,790.56" style="fill:none;stroke:#000000;stroke-width:20.21"/>
	<polygon points="3956.19,871.83 3995.33,832.70 4034.46,871.83 3995.33,910.96" style="fill:#000000"/>
	<polygon points="3970.49,871.83 3995.33,846.99 4020.17,871.83 3995.33,896.67" style="fill:none;stroke:#000000;stroke-width:20.21"/>
	<polygon points="3897.60,977.67 3936.73,938.54 3975.87,977.67 3936.73,1016.80" style="fill:#000000"/>
	<polygon points="3911.89,977.67 3936.73,952.83 3961.58,977.67 3936.73,1002.51" style="fill:none;stroke:#000000;stroke-width:20.21"/>
	<polygon points="3849.27,1083.78 3888.40,1044.65 3927.53,1083.78 3888.40,1122.91" style="fill:#000000"/>
	<polygon points="3863.56,1083.78 3888.40,1058.94 3913.24,1083.78 3888.40,1108.62" style="fill:none;stroke:#000000;stroke-width:20.21"/>
	<polygon points="3751.53,1189.62 3790.66,1150.49 3829.79,1189.62 3790.66,1228.75" style="fill:#000000"/>
	<polygon points="3765.82,1189.62 3790.66,1164.78 3815.50,1189.62 3790.66,1214.46" style="fill:none;stroke:#000000;stroke-width:20.21"/>
	<polygon points="3726.15,1295.73 3765.28,1256.60 3804.41,1295.73 3765.28,1334.86" style="fill:#000000"/>
	<polygon points="3740.44,1295.73 3765.28,1270.89 3790.12,1295.73 3765.28,1320.57" style="fill:none;stroke:#000000;stroke-width:20.21"/>
	<polygon points="3707.79,1401.57 3746.92,1362.44 3786.05,1401.57 3746.92,1440.70" style="fill:#000000"/>
	<polygon points="3722.08,1401.57 3746.92,1376.73 3771.76,1401.57 3746.92,1426.41" style="fill:none;stroke:#000000;stroke-width:20.21"/>
	<polygon points="3649.19,1507.68 3688.33,1468.55 3727.46,1507.68 3688.33,1546.81" style="fill:#000000"/>
	<polygon points="3663.49,1507.68 3688.33,1482.84 3713.17,1507.68 3688.33,1532.52" style="fill:none;stroke:#000000;stroke-width:20.21"/>
	<polygon points="3648.92,1613.52 3688.06,1574.39 3727.19,1613.52 3688.06,1652.65" style="fill:#000000"/>
	<polygon points="3663.22,1613.52 3688.06,1588.68 3712.90,1613.52 3688.06,1638.36" style="fill:none;stroke:#000000;stroke-width:20.21"/>
	<polygon points="3596.27,1719.36 3635.40,1680.23 3674.54,1719.36 3635.40,1758.49" style="fill:#000000"/>
	<polygon points="3610.56,1719.36 3635.40,1694.52 3660.24,1719.36 3635.40,1744.20" style="fill:none;stroke:#000000;stroke-width:20.21"/>
	<polygon points="3566.84,1825.47 3605.97,1786.34 3645.11,1825.47 3605.97,1864.60" style="fill:#000000"/>
	<polygon points="3581.13,1825.47 3605.97,1800.63 3630.81,1825.47 3605.97,1850.31" style="fill:none;stroke:#000000;stroke-width:20.21"/>
	<polygon points="3549.83,1931.31 3588.96,1892.18 3628.09,1931.31 3588.96,1970.44" style="fill:#000000"/>
	<polygon points="3564.12,1931.31 3588.96,1906.47 3613.80,1931.31 3588.96,1956.15" style="fill:none;stroke:#000000;stroke-width:20.21"/>
	<polygon points="3543.08,2037.42 3582.21,1998.29 3621.34,2037.42 3582.21,2076.55" style="fill:#000000"/>
	<polygon points="3557.37,2037.42 3582.21,2012.58 3607.05,2037.42 3582.21,2062.26" style="fill:none;stroke:#000000;stroke-width:20.21"/>
	<polygon points="3541.19,2143.26 3580.32,2104.13 3619.45,2143.26 3580.32,2182.39" style="fill:#000000"/>
	<polygon points="3555.48,2143.26 3580.32,2118.42 3605.16,2143.26 3580.32,2168.10" style="fill:none;stroke:#000000;stroke-width:20.21"/>
	<polygon points="3539.57,2249.37 3578.70,2210.24 3617.83,2249.37 3578.70,2288.50" style="fill:#000000"/>
	<polygon points="3553.86,2249.37 3578.70,2224.53 3603.54,2249.37 3578.70,2274.21" style="fill:none;stroke:#000000;stroke-width:20.21"/>
	<polygon points="3538.49,2355.21 3577.62,2316.08 3616.75,2355.21 3577.62,2394.34" style="fill:#000000"/>
	<polygon points="3552.78,2355.21 3577.62,2330.37 3602.46,2355.21 3577.62,2380.05" style="fill:none;stroke:#000000;stroke-width:20.21"/>
	<polygon points="3532.82,2461.32 3571.95,2422.19 3611.08,2461.32 3571.95,2500.45" style="fill:#000000"/>
	<polygon points="3547.11,2461.32 3571.95,2436.48 3596.79,2461.32 3571.95,2486.16" style="fill:none;stroke:#000000;stroke-width:20.21"/>
	<polygon points="3523.37,2567.16 3562.50,2528.03 3601.63,2567.16 3562.50,2606.29" style="fill:#000000"/>
	<polygon points="3537.66,2567.16 3562.50,2542.32 3587.34,2567.16 3562.50,2592.00" style="fill:none;stroke:#000000;stroke-width:20.21"/>
	<polygon points="3519.86,2673.27 3558.99,2634.14 3598.12,2673.27 3558.99,2712.40" style="fill:#000000"/>
	<polygon points="3534.15,2673.27 3558.99,2648.43 3583.83,2673.27 3558.99,2698.11" style="fill:none;stroke:#000000;stroke-width:20.21"/>
	<polygon points="3514.19,2779.11 3553.32,2739.98 3592.45,2779.11 3553.32,2818.24" style="fill:#000000"/>
	<polygon points="3528.48,2779.11 3553.32,2754.27 3578.16,2779.11 3553.32,2803.95" style="fill:none;stroke:#000000;stroke-width:20.21"/>
	<polygon points="3513.38,2884.95 3552.51,2845.82 3591.64,2884.95 3552.51,2924.08" style="fill:#000000"/>
	<polygon points="3527.67,2884.95 3552.51,2860.11 3577.35,2884.95 3552.51,2909.79" style="fill:none;stroke:#000000;stroke-width:20.21"/>
	<polygon points="3512.03,2991.06 3551.16,2951.93 3590.29,2991.06 3551.16,3030.19" style="fill:#000000"/>
	<polygon points="3526.32,2991.06 3551.16,2966.22 3576.00,2991.06 3551.16,3015.90" style="fill:none;stroke:#000000;stroke-width:20.21"/>
	<polygon points="3478.28,3096.90 3517.41,3057.77 3556.54,3096.90 3517.41,3136.03" style="fill:#000000"/>
	<polygon points="3492.57,3096.90 3517.41,3072.06 3542.25,3096.90 3517.41,3121.74" style="fill:none;stroke:#000000;stroke-width:20.21"/>
	<polygon points="3476.66,3203.01 3515.79,3163.88 3554.92,3203.01 3515.79,3242.14" style="fill:#000000"/>
	<polygon points="3490.95,3203.01 3515.79,3178.17 3540.63,3203.01 3515.79,3227.85" style="fill:none;stroke:#000000;stroke-width:20.21"/>
	<polygon points="3461.27,3308.85 3500.40,3269.72 3539.53,3308.85 3500.40,3347.98" style="fill:#000000"/>
	<polygon points="3475.56,3308.85 3500.40,3284.01 3525.24,3308.85 3500.40,3333.69" style="fill:none;stroke:#000000;stroke-width:20.21"/>
	<polygon points="3461.27,3414.96 3500.40,3375.83 3539.53,3414.96 3500.40,3454.09" style="fill:#000000"/>
	<polygon points="3475.56,3414.96 3500.40,3390.12 3525.24,3414.96 3500.40,3439.80" style="fill:none;stroke:#000000;stroke-width:20.21"/>
	<polygon points="3442.64,3520.80 3481.77,3481.67 3520.90,3520.80 3481.77,3559.93" style="fill:#000000"/>
	<polygon points="3456.93,3520.80 3481.77,3495.96 3506.61,3520.80 3481.77,3545.64" style="fill:none;stroke:#000000;stroke-width:20.21"/>
	<polygon points="3436.43,3626.91 3475.56,3587.78 3514.69,3626.91 3475.56,3666.04" style="fill:#000000"/>
	<polygon points="3450.72,3626.91 3475.56,3602.07 3500.40,3626.91 3475.56,3651.75" style="fill:none;stroke:#000000;stroke-width:20.21"/>
	<polygon points="3428.06,3732.75 3467.19,3693.62 3506.32,3732.75 3467.19,3771.88" style="fill:#000000"/>
	<polygon points="3442.35,3732.75 3467.19,3707.91 3492.03,3732.75 3467.19,3757.59" style="fill:none;stroke:#000000;stroke-width:20.21"/>
	<polygon points="3422.39,3838.86 3461.52,3799.73 3500.65,3838.86 3461.52,3877.99" style="fill:#000000"/>
	<polygon points="3436.68,3838.86 3461.52,3814.02 3486.36,3838.86 3461.52,3863.70" style="fill:none;stroke:#000000;stroke-width:20.21"/>
	<polygon points="3418.07,3944.70 3457.20,3905.57 3496.33,3944.70 3457.20,3983.83" style="fill:#000000"/>
	<polygon points="3432.36,3944.70 3457.20,3919.86 3482.04,3944.70 3457.20,3969.54" style="fill:none;stroke:#000000;stroke-width:20.21"/>
	<polygon points="3415.91,4050.81 3455.04,4011.68 3494.17,4050.81 3455.04,4089.94" style="fill:#000000"/>
	<polygon points="3430.20,4050.81 3455.04,4025.97 3479.88,4050.81 3455.04,4075.65" style="fill:none;stroke:#000000;stroke-width:20.21"/>
	<polygon points="3413.75,4156.65 3452.88,4117.52 3492.01,4156.65 3452.88,4195.78" style="fill:#000000"/>
	<polygon points="3428.04,4156.65 3452.88,4131.81 3477.72,4156.65 3452.88,4181.49" style="fill:none;stroke:#000000;stroke-width:20.21"/>
	<polygon points="3413.48,4262.49 3452.61,4223.36 3491.74,4262.49 3452.61,4301.62" style="fill:#000000"/>
	<polygon points="3427.77,4262.49 3452.61,4237.65 3477.45,4262.49 3452.61,4287.33" style="fill:none;stroke:#000000;stroke-width:20.21"/>
	<polygon points="3408.89,4368.60 3448.02,4329.47 3487.15,4368.60 3448.02,4407.73" style="fill:#000000"/>
	<polygon points="3423.18,4368.60 3448.02,4343.76 3472.86,4368.60 3448.02,4393.44" style="fill:none;stroke:#000000;stroke-width:20.21"/>
	<polygon points="3404.84,4474.44 3443.97,4435.31 3483.10,4474.44 3443.97,4513.57" style="fill:#000000"/>
	<polygon points="3419.13,4474.44 3443.97,4449.60 3468.81,4474.44 3443.97,4499.28" style="fill:none;stroke:#000000;stroke-width:20.21"/>
	<polygon points="3391.33,4580.55 3430.47,4541.42 3469.60,4580.55 3430.47,4619.68" style="fill:#000000"/>
	<polygon points="3405.63,4580.55 3430.47,4555.71 3455.31,4580.55 3430.47,4605.39" style="fill:none;stroke:#000000;stroke-width:20.21"/>
	<polygon points="3373.51,4686.39 3412.65,4647.26 3451.78,4686.39 3412.65,4725.52" style="fill:#000000"/>
	<polygon points="3387.81,4686.39 3412.65,4661.55 3437.49,4686.39 3412.65,4711.23" style="fill:none;stroke:#000000;stroke-width:20.21"/>
	<polygon points="3369.19,4792.50 3408.33,4753.37 3447.46,4792.50 3408.33,4831.63" style="fill:#000000"/>
	<polygon points="3383.49,4792.50 3408.33,4767.66 3433.17,4792.50 3408.33,4817.34" style="fill:none;stroke:#000000;stroke-width:20.21"/>
	<polygon points="3367.03,4898.34 3406.17,4859.21 3445.30,4898.34 3406.17,4937.47" style="fill:#000000"/>
	<polygon points="3381.33,4898.34 3406.17,4873.50 3431.01,4898.34 3406.17,4923.18" style="fill:none;stroke:#000000;stroke-width:20.21"/>
	<polygon points="3344.35,5004.45 3383.49,4965.32 3422.62,5004.45 3383.49,5043.58" style="fill:#000000"/>
	<polygon points="3358.64,5004.45 3383.49,4979.61 3408.33,5004.45 3383.49,5029.29" style="fill:none;stroke:#000000;stroke-width:20.21"/>
	<polygon points="3342.46,5110.29 3381.60,5071.16 3420.73,5110.29 3381.60,5149.42" style="fill:#000000"/>
	<polygon points="3356.75,5110.29 3381.60,5085.45 3406.44,5110.29 3381.60,5135.13" style="fill:none;stroke:#000000;stroke-width:20.21"/>
	<polygon points="3321.67,5216.40 3360.80,5177.27 3399.94,5216.40 3360.80,5255.53" style="fill:#000000"/>
	<polygon points="3335.96,5216.40 3360.80,5191.56 3385.65,5216.40 3360.80,5241.24" style="fill:none;stroke:#000000;stroke-width:20.21"/>
	<polygon points="3321.40,5322.24 3360.53,5283.11 3399.67,5322.24 3360.53,5361.37" style="fill:#000000"/>
	<polygon points="3335.69,5322.24 3360.53,5297.40 3385.38,5322.24 3360.53,5347.08" style="fill:none;stroke:#000000;stroke-width:20.21"/>
	<polygon points="3305.20,5428.08 3344.33,5388.95 3383.47,5428.08 3344.33,5467.21" style="fill:#000000"/>
	<polygon points="3319.49,5428.08 3344.33,5403.24 3369.18,5428.08 3344.33,5452.92" style="fill:none;stroke:#000000;stroke-width:20.21"/>
	<polygon points="3297.91,5534.19 3337.04,5495.06 3376.18,5534.19 3337.04,5573.32" style="fill:#000000"/>
	<polygon points="3312.20,5534.19 3337.04,5509.35 3361.88,5534.19 3337.04,5559.03" style="fill:none;stroke:#000000;stroke-width:20.21"/>
	<polygon points="3274.42,5640.03 3313.55,5600.90 3352.69,5640.03 3313.55,5679.16" style="fill:#000000"/>
	<polygon points="3288.71,5640.03 3313.55,5615.19 3338.39,5640.03 3313.55,5664.87" style="fill:none;stroke:#000000;stroke-width:20.21"/>
	<polygon points="3263.08,5746.14 3302.21,5707.01 3341.34,5746.14 3302.21,5785.27" style="fill:#000000"/>
	<polygon points="3277.37,5746.14 3302.21,5721.30 3327.05,5746.14 3302.21,5770.98" style="fill:none;stroke:#000000;stroke-width:20.21"/>
	<polygon points="3249.31,5851.98 3288.44,5812.85 3327.57,5851.98 3288.44,5891.11" style="fill:#000000"/>
	<polygon points="3263.60,5851.98 3288.44,5827.14 3313.28,5851.98 3288.44,5876.82" style="fill:none;stroke:#000000;stroke-width:20.21"/>
	<polygon points="3205.30,5958.09 3244.43,5918.96 3283.56,5958.09 3244.43,5997.22" style="fill:#000000"/>
	<polygon points="3219.59,5958.09 3244.43,5933.25 3269.27,5958.09 3244.43,5982.93" style="fill:none;stroke:#000000;stroke-width:20.21"/>
	<polygon points="3154.00,6063.93 3193.13,6024.80 3232.26,6063.93 3193.13,6103.06" style="fill:#000000"/>
	<polygon points="3168.29,6063.93 3193.13,6039.09 3217.97,6063.93 3193.13,6088.77" style="fill:none;stroke:#000000;stroke-width:20.21"/>
	<polygon points="3124.03,6170.04 3163.16,6130.91 3202.29,6170.04 3163.16,6209.17" style="fill:#000000"/>
	<polygon points="3138.32,6170.04 3163.16,6145.20 3188.00,6170.04 3163.16,6194.88" style="fill:none;stroke:#000000;stroke-width:20.21"/>
	<polygon points="3037.35,6275.88 3076.49,6236.75 3115.62,6275.88 3076.49,6315.01" style="fill:#000000"/>
	<polygon points="3051.64,6275.88 3076.49,6251.04 3101.33,6275.88 3076.49,6300.72" style="fill:none;stroke:#000000;stroke-width:20.21"/>
	<polygon points="3032.22,6381.99 3071.35,6342.86 3110.49,6381.99 3071.35,6421.12" style="fill:#000000"/>
	<polygon points="3046.51,6381.99 3071.35,6357.15 3096.20,6381.99 3071.35,6406.83" style="fill:none;stroke:#000000;stroke-width:20.21"/>
	<polygon points="2932.86,6487.83 2971.99,6448.70 3011.12,6487.83 2971.99,6526.96" style="fill:#000000"/>
	<polygon points="2947.15,6487.83 2971.99,6462.99 2996.83,6487.83 2971.99,6512.67" style="fill:none;stroke:#000000;stroke-width:20.21"/>
	<polygon points="2929.08,6593.67 2968.21,6554.54 3007.34,6593.67 2968.21,6632.80" style="fill:#000000"/>
	<polygon points="2943.37,6593.67 2968.21,6568.83 2993.05,6593.67 2968.21,6618.51" style="fill:none;stroke:#000000;stroke-width:20.21"/>
	<polygon points="2837.28,6699.78 2876.41,6660.65 2915.54,6699.78 2876.41,6738.91" style="fill:#000000"/>
	<polygon points="2851.57,6699.78 2876.41,6674.94 2901.25,6699.78 2876.41,6724.62" style="fill:none;stroke:#000000;stroke-width:20.21"/>
	<polygon points="2754.92,6805.62 2794.06,6766.49 2833.19,6805.62 2794.06,6844.75" style="fill:#000000"/>
	<polygon points="2769.21,6805.62 2794.06,6780.78 2818.90,6805.62 2794.06,6830.46" style="fill:none;stroke:#000000;stroke-width:20.21"/>
	<polygon points="2311.30,6911.73 2350.43,6872.60 2389.56,6911.73 2350.43,6950.86" style="fill:#000000"/>
	<polygon points="2325.59,6911.73 2350.43,6886.89 2375.27,6911.73 2350.43,6936.57" style="fill:none;stroke:#000000;stroke-width:20.21"/>
	<polygon points="2239.75,7017.57 2278.88,6978.44 2318.01,7017.57 2278.88,7056.70" style="fill:#000000"/>
	<polygon points="2254.04,7017.57 2278.88,6992.73 2303.72,7017.57 2278.88,7042.41" style="fill:none;stroke:#000000;stroke-width:20.21"/>
	<polygon points="1697.30,7123.68 1736.43,7084.55 1775.56,7123.68 1736.43,7162.81" style="fill:#000000"/>
	<polygon points="1711.59,7123.68 1736.43,7098.84 1761.27,7123.68 1736.43,7148.52" style="fill:none;stroke:#000000;stroke-width:20.21"/>
	<polygon points="3448.31,7441.47 3487.44,7402.34 3526.57,7441.47 3487.44,7480.60" style="fill:#000000"/>
	<polygon points="3462.60,7441.47 3487.44,7416.63 3512.28,7441.47 3487.44,7466.31" style="fill:none;stroke:#000000;stroke-width:20.21"/>
	<polygon points="3523.91,7547.58 3563.04,7508.45 3602.17,7547.58 3563.04,7586.71" style="fill:#000000"/>
	<polygon points="3538.20,7547.58 3563.04,7522.74 3587.88,7547.58 3563.04,7572.42" style="fill:none;stroke:#000000;stroke-width:20.21"/>
	<line x1="412.03" y1="7865.10" x2="6395.17" y2="7865.10" style="stroke:#000000;stroke-width:13.47"/>
	<text x="2136.04" y="7986.98" style="font-family:'Helvetica';font-size:107.19px;fill:#000000" text-anchor="middle"> </text>
	<text x="4230.23" y="7986.98" style="font-family:'Helvetica';font-size:107.19px;fill:#000000" text-anchor="middle"> </text>
	<line x1="3183.14" y1="7865.10" x2="3183.14" y2="7958.79" style="stroke:#000000;stroke-width:13.47"/>
	<text x="3183.14" y="8080.40" style="font-family:'Helvetica';font-size:107.19px;fill:#000000" text-anchor="middle">0</text>
	<line x1="1235.02" y1="7865.10" x2="1235.02" y2="7958.79" style="stroke:#000000;stroke-width:13.47"/>
	<text x="1235.02" y="8080.40" style="font-family:'Helvetica';font-size:107.19px;fill:#000000" text-anchor="middle">-3</text>
	<line x1="1884.39" y1="7865.10" x2="1884.39" y2="7958.79" style="stroke:#000000;stroke-width:13.47"/>
	<text x="1884.39" y="8080.40" style="font-family:'Helvetica';font-size:107.19px;fill:#000000" text-anchor="middle">-2</text>
	<line x1="2533.77" y1="7865.10" x2="2533.77" y2="7958.79" style="stroke:#000000;stroke-width:13.47"/>
	<text x="2533.77" y="8080.40" style="font-family:'Helvetica';font-size:107.19px;fill:#000000" text-anchor="middle">-1</text>
	<line x1="3183.14" y1="7865.10" x2="3183.14" y2="7958.79" style="stroke:#000000;stroke-width:13.47"/>
	<text x="3183.14" y="8080.40" style="font-family:'Helvetica';font-size:107.19px;fill:#000000" text-anchor="middle">0</text>
	<line x1="3832.51" y1="7865.10" x2="3832.51" y2="7958.79" style="stroke:#000000;stroke-width:13.47"/>
	<text x="3832.51" y="8080.40" style="font-family:'Helvetica';font-size:107.19px;fill:#000000" text-anchor="middle">1</text>
	<line x1="4481.88" y1="7865.10" x2="4481.88" y2="7958.79" style="stroke:#000000;stroke-width:13.47"/>
	<text x="4481.88" y="8080.40" style="font-family:'Helvetica';font-size:107.19px;fill:#000000" text-anchor="middle">2</text>
	<line x1="5131.26" y1="7865.10" x2="5131.26" y2="7958.79" style="stroke:#000000;stroke-width:13.47"/>
	<text x="5131.26" y="8080.40" style="font-family:'Helvetica';font-size:107.19px;fill:#000000" text-anchor="middle">3</text>
	<line x1="3183.14" y1="7865.10" x2="3183.14" y2="7958.79" style="stroke:#000000;stroke-width:13.47"/>
	<text x="452.54" y="8321.54" style="fill:#000000">
		<tspan style="font-family:'Helvetica';font-style:italic;font-size:140.40px">I</tspan>
		<tspan dy="20.06px" style="font-family:'Helvetica';font-style:italic;font-size:81.86px">GX</tspan>
		<tspan dy="-93.60px" style="font-family:'Helvetica';font-style:italic;font-size:81.86px">2</tspan>
		<tspan dy="93.60px" style="font-family:'Helvetica';font-size:140.40px">=98.4%</tspan>
	</text>
</svg>
