<?xml version="1.0" encoding="UTF-8" standalone="no"?>
<!-- This is a Stata 17.0 generated SVG file (http://www.stata.com) -->

<svg version="1.1" width="600px" height="776px" viewBox="0 0 6678 8640" xmlns="http://www.w3.org/2000/svg" xmlns:xlink="http://www.w3.org/1999/xlink">
	<desc>Stata Graph - Graph</desc>
	<rect x="0" y="0" width="6678" height="8640" style="fill:#EAF2F3;stroke:none"/>
	<rect x="0.00" y="0.27" width="6678.00" height="8639.73" style="fill:#FFFFFF"/>
	<rect x="6.68" y="6.95" width="6664.64" height="8626.37" style="fill:none;stroke:#FFFFFF;stroke-width:13.36"/>
	<rect x="408.55" y="233.82" width="5930.30" height="7638.84" style="fill:#FFFFFF"/>
	<rect x="415.23" y="240.50" width="5916.94" height="7625.48" style="fill:none;stroke:#FFFFFF;stroke-width:13.36"/>
	<line x1="408.55" y1="472.77" x2="6338.85" y2="472.77" style="stroke:#C0C0C0;stroke-width:13.36"/>
	<line x1="3152.01" y1="7872.66" x2="3152.01" y2="472.77" style="stroke:#000000;stroke-width:13.36"/>
	<line x1="3357.50" y1="658.26" x2="4839.13" y2="658.26" style="stroke:#000000;stroke-width:20.03"/>
	<line x1="3375.86" y1="764.37" x2="4542.10" y2="764.37" style="stroke:#000000;stroke-width:20.03"/>
	<line x1="3585.13" y1="870.48" x2="4329.32" y2="870.48" style="stroke:#000000;stroke-width:20.03"/>
	<line x1="3191.70" y1="976.59" x2="4606.36" y2="976.59" style="stroke:#000000;stroke-width:20.03"/>
	<line x1="3241.12" y1="1082.70" x2="4461.36" y2="1082.70" style="stroke:#000000;stroke-width:20.03"/>
	<line x1="3269.20" y1="1188.81" x2="4239.67" y2="1188.81" style="stroke:#000000;stroke-width:20.03"/>
	<line x1="3515.46" y1="1294.92" x2="3942.91" y2="1294.92" style="stroke:#000000;stroke-width:20.03"/>
	<line x1="3209.25" y1="1401.03" x2="4212.67" y2="1401.03" style="stroke:#000000;stroke-width:20.03"/>
	<line x1="3170.64" y1="1507.14" x2="4135.17" y2="1507.14" style="stroke:#000000;stroke-width:20.03"/>
	<line x1="3434.72" y1="1613.25" x2="3870.82" y2="1613.25" style="stroke:#000000;stroke-width:20.03"/>
	<line x1="3099.35" y1="1719.36" x2="4101.69" y2="1719.36" style="stroke:#000000;stroke-width:20.03"/>
	<line x1="3090.17" y1="1825.47" x2="4052.54" y2="1825.47" style="stroke:#000000;stroke-width:20.03"/>
	<line x1="3386.12" y1="1931.31" x2="3722.84" y2="1931.31" style="stroke:#000000;stroke-width:20.03"/>
	<line x1="3198.99" y1="2037.42" x2="3896.74" y2="2037.42" style="stroke:#000000;stroke-width:20.03"/>
	<line x1="3261.10" y1="2143.53" x2="3830.58" y2="2143.53" style="stroke:#000000;stroke-width:20.03"/>
	<line x1="3295.39" y1="2249.64" x2="3793.59" y2="2249.64" style="stroke:#000000;stroke-width:20.03"/>
	<line x1="3453.90" y1="2355.75" x2="3632.38" y2="2355.75" style="stroke:#000000;stroke-width:20.03"/>
	<line x1="3445.26" y1="2461.86" x2="3630.22" y2="2461.86" style="stroke:#000000;stroke-width:20.03"/>
	<line x1="3333.19" y1="2567.97" x2="3723.11" y2="2567.97" style="stroke:#000000;stroke-width:20.03"/>
	<line x1="3178.20" y1="2674.08" x2="3871.09" y2="2674.08" style="stroke:#000000;stroke-width:20.03"/>
	<line x1="3300.52" y1="2780.19" x2="3737.96" y2="2780.19" style="stroke:#000000;stroke-width:20.03"/>
	<line x1="2933.56" y1="2886.30" x2="4102.77" y2="2886.30" style="stroke:#000000;stroke-width:20.03"/>
	<line x1="3418.25" y1="2992.41" x2="3615.91" y2="2992.41" style="stroke:#000000;stroke-width:20.03"/>
	<line x1="2957.32" y1="3098.52" x2="4009.88" y2="3098.52" style="stroke:#000000;stroke-width:20.03"/>
	<line x1="3063.44" y1="3204.63" x2="3900.52" y2="3204.63" style="stroke:#000000;stroke-width:20.03"/>
	<line x1="3300.25" y1="3310.74" x2="3632.92" y2="3310.74" style="stroke:#000000;stroke-width:20.03"/>
	<line x1="3183.06" y1="3416.85" x2="3750.11" y2="3416.85" style="stroke:#000000;stroke-width:20.03"/>
	<line x1="3336.70" y1="3522.96" x2="3559.75" y2="3522.96" style="stroke:#000000;stroke-width:20.03"/>
	<line x1="3234.10" y1="3629.07" x2="3649.93" y2="3629.07" style="stroke:#000000;stroke-width:20.03"/>
	<line x1="3181.98" y1="3734.91" x2="3685.58" y2="3734.91" style="stroke:#000000;stroke-width:20.03"/>
	<line x1="3241.93" y1="3841.02" x2="3614.02" y2="3841.02" style="stroke:#000000;stroke-width:20.03"/>
	<line x1="3101.24" y1="3947.13" x2="3746.33" y2="3947.13" style="stroke:#000000;stroke-width:20.03"/>
	<line x1="2928.43" y1="4053.24" x2="3915.10" y2="4053.24" style="stroke:#000000;stroke-width:20.03"/>
	<line x1="2969.47" y1="4159.35" x2="3869.20" y2="4159.35" style="stroke:#000000;stroke-width:20.03"/>
	<line x1="3019.96" y1="4265.46" x2="3818.70" y2="4265.46" style="stroke:#000000;stroke-width:20.03"/>
	<line x1="3334.00" y1="4371.57" x2="3495.75" y2="4371.57" style="stroke:#000000;stroke-width:20.03"/>
	<line x1="2851.74" y1="4477.68" x2="3969.91" y2="4477.68" style="stroke:#000000;stroke-width:20.03"/>
	<line x1="3020.50" y1="4583.79" x2="3774.15" y2="4583.79" style="stroke:#000000;stroke-width:20.03"/>
	<line x1="2986.75" y1="4689.90" x2="3772.53" y2="4689.90" style="stroke:#000000;stroke-width:20.03"/>
	<line x1="3261.10" y1="4796.01" x2="3489.27" y2="4796.01" style="stroke:#000000;stroke-width:20.03"/>
	<line x1="2931.67" y1="4902.12" x2="3814.92" y2="4902.12" style="stroke:#000000;stroke-width:20.03"/>
	<line x1="3136.08" y1="5008.23" x2="3565.15" y2="5008.23" style="stroke:#000000;stroke-width:20.03"/>
	<line x1="3080.18" y1="5114.34" x2="3617.53" y2="5114.34" style="stroke:#000000;stroke-width:20.03"/>
	<line x1="2857.14" y1="5220.45" x2="3799.53" y2="5220.45" style="stroke:#000000;stroke-width:20.03"/>
	<line x1="2839.86" y1="5326.56" x2="3816.00" y2="5326.56" style="stroke:#000000;stroke-width:20.03"/>
	<line x1="2886.30" y1="5432.40" x2="3737.42" y2="5432.40" style="stroke:#000000;stroke-width:20.03"/>
	<line x1="3053.99" y1="5538.51" x2="3555.70" y2="5538.51" style="stroke:#000000;stroke-width:20.03"/>
	<line x1="2845.53" y1="5644.62" x2="3717.44" y2="5644.62" style="stroke:#000000;stroke-width:20.03"/>
	<line x1="2751.02" y1="5750.73" x2="3789.27" y2="5750.73" style="stroke:#000000;stroke-width:20.03"/>
	<line x1="2753.72" y1="5856.84" x2="3759.29" y2="5856.84" style="stroke:#000000;stroke-width:20.03"/>
	<line x1="2744.00" y1="5962.95" x2="3681.80" y2="5962.95" style="stroke:#000000;stroke-width:20.03"/>
	<line x1="2879.55" y1="6069.06" x2="3444.98" y2="6069.06" style="stroke:#000000;stroke-width:20.03"/>
	<line x1="2736.44" y1="6175.17" x2="3528.42" y2="6175.17" style="stroke:#000000;stroke-width:20.03"/>
	<line x1="2748.86" y1="6281.28" x2="3344.00" y2="6281.28" style="stroke:#000000;stroke-width:20.03"/>
	<line x1="2687.02" y1="6387.39" x2="3396.11" y2="6387.39" style="stroke:#000000;stroke-width:20.03"/>
	<line x1="2520.42" y1="6493.50" x2="3365.60" y2="6493.50" style="stroke:#000000;stroke-width:20.03"/>
	<line x1="2536.35" y1="6599.61" x2="3342.11" y2="6599.61" style="stroke:#000000;stroke-width:20.03"/>
	<line x1="2158.31" y1="6705.72" x2="3538.14" y2="6705.72" style="stroke:#000000;stroke-width:20.03"/>
	<line x1="2209.89" y1="6811.83" x2="3323.20" y2="6811.83" style="stroke:#000000;stroke-width:20.03"/>
	<line x1="1844.54" y1="6917.94" x2="2809.35" y2="6917.94" style="stroke:#000000;stroke-width:20.03"/>
	<line x1="1613.94" y1="7024.05" x2="2897.91" y2="7024.05" style="stroke:#000000;stroke-width:20.03"/>
	<line x1="1076.59" y1="7130.16" x2="2360.02" y2="7130.16" style="stroke:#000000;stroke-width:20.03"/>
	<line x1="3425.00" y1="7448.22" x2="3482.79" y2="7448.22" style="stroke:#000000;stroke-width:20.03"/>
	<line x1="3449.04" y1="7554.33" x2="3608.35" y2="7554.33" style="stroke:#000000;stroke-width:20.03"/>
	<text x="506.03" y="589.26" style="font-family:'Helvetica';font-weight:bold;font-size:105.85px;fill:#000000">Genotypes</text>
	<text x="506.03" y="695.37" style="font-family:'Helvetica';font-size:105.85px;fill:#000000">rs6831256</text>
	<text x="506.03" y="801.48" style="font-family:'Helvetica';font-size:105.85px;fill:#000000">rs2710642</text>
	<text x="506.03" y="907.59" style="font-family:'Helvetica';font-size:105.85px;fill:#000000">rs1169288</text>
	<text x="506.03" y="1013.70" style="font-family:'Helvetica';font-size:105.85px;fill:#000000">rs4253772</text>
	<text x="506.03" y="1119.81" style="font-family:'Helvetica';font-size:105.85px;fill:#000000">rs7640978</text>
	<text x="506.03" y="1225.92" style="font-family:'Helvetica';font-size:105.85px;fill:#000000">rs10102164</text>
	<text x="506.03" y="1332.03" style="font-family:'Helvetica';font-size:105.85px;fill:#000000">rs11206510</text>
	<text x="506.03" y="1438.14" style="font-family:'Helvetica';font-size:105.85px;fill:#000000">rs4942486</text>
	<text x="506.03" y="1544.25" style="font-family:'Helvetica';font-size:105.85px;fill:#000000">rs3177928</text>
	<text x="506.03" y="1650.36" style="font-family:'Helvetica';font-size:105.85px;fill:#000000">rs2954029</text>
	<text x="506.03" y="1756.47" style="font-family:'Helvetica';font-size:105.85px;fill:#000000">rs1800562</text>
	<text x="506.03" y="1862.58" style="font-family:'Helvetica';font-size:105.85px;fill:#000000">rs10490626</text>
	<text x="506.03" y="1968.42" style="font-family:'Helvetica';font-size:105.85px;fill:#000000">rs4299376</text>
	<text x="506.03" y="2074.53" style="font-family:'Helvetica';font-size:105.85px;fill:#000000">rs1564348</text>
	<text x="506.03" y="2180.64" style="font-family:'Helvetica';font-size:105.85px;fill:#000000">rs11220462</text>
	<text x="506.03" y="2286.75" style="font-family:'Helvetica';font-size:105.85px;fill:#000000">rs3764261</text>
	<text x="506.03" y="2392.86" style="font-family:'Helvetica';font-size:105.85px;fill:#000000">rs629301</text>
	<text x="506.03" y="2498.97" style="font-family:'Helvetica';font-size:105.85px;fill:#000000">rs599839</text>
	<text x="506.03" y="2605.08" style="font-family:'Helvetica';font-size:105.85px;fill:#000000">rs964184</text>
	<text x="506.03" y="2711.19" style="font-family:'Helvetica';font-size:105.85px;fill:#000000">rs514230</text>
	<text x="506.03" y="2817.30" style="font-family:'Helvetica';font-size:105.85px;fill:#000000">rs2000999</text>
	<text x="506.03" y="2923.41" style="font-family:'Helvetica';font-size:105.85px;fill:#000000">rs2030746</text>
	<text x="506.03" y="3029.52" style="font-family:'Helvetica';font-size:105.85px;fill:#000000">rs6511720</text>
	<text x="506.03" y="3135.63" style="font-family:'Helvetica';font-size:105.85px;fill:#000000">rs314253</text>
	<text x="506.03" y="3241.74" style="font-family:'Helvetica';font-size:105.85px;fill:#000000">rs7206971</text>
	<text x="506.03" y="3347.85" style="font-family:'Helvetica';font-size:105.85px;fill:#000000">rs12916</text>
	<text x="506.03" y="3453.96" style="font-family:'Helvetica';font-size:105.85px;fill:#000000">rs6029526</text>
	<text x="506.03" y="3560.07" style="font-family:'Helvetica';font-size:105.85px;fill:#000000">rs562338</text>
	<text x="506.03" y="3666.18" style="font-family:'Helvetica';font-size:105.85px;fill:#000000">rs2479409</text>
	<text x="506.03" y="3772.02" style="font-family:'Helvetica';font-size:105.85px;fill:#000000">rs174546</text>
	<text x="506.03" y="3878.13" style="font-family:'Helvetica';font-size:105.85px;fill:#000000">rs10401969</text>
	<text x="506.03" y="3984.24" style="font-family:'Helvetica';font-size:105.85px;fill:#000000">rs5763662</text>
	<text x="506.03" y="4090.35" style="font-family:'Helvetica';font-size:105.85px;fill:#000000">rs2328223</text>
	<text x="506.03" y="4196.46" style="font-family:'Helvetica';font-size:105.85px;fill:#000000">rs1801689</text>
	<text x="506.03" y="4302.57" style="font-family:'Helvetica';font-size:105.85px;fill:#000000">rs12670798</text>
	<text x="506.03" y="4408.68" style="font-family:'Helvetica';font-size:105.85px;fill:#000000">rs4420638</text>
	<text x="506.03" y="4514.79" style="font-family:'Helvetica';font-size:105.85px;fill:#000000">rs11563251</text>
	<text x="506.03" y="4620.90" style="font-family:'Helvetica';font-size:105.85px;fill:#000000">rs2642442</text>
	<text x="506.03" y="4727.01" style="font-family:'Helvetica';font-size:105.85px;fill:#000000">rs2072183</text>
	<text x="506.03" y="4833.12" style="font-family:'Helvetica';font-size:105.85px;fill:#000000">rs1367117</text>
	<text x="506.03" y="4939.23" style="font-family:'Helvetica';font-size:105.85px;fill:#000000">rs2255141</text>
	<text x="506.03" y="5045.34" style="font-family:'Helvetica';font-size:105.85px;fill:#000000">rs16996148</text>
	<text x="506.03" y="5151.45" style="font-family:'Helvetica';font-size:105.85px;fill:#000000">rs6882076</text>
	<text x="506.03" y="5257.56" style="font-family:'Helvetica';font-size:105.85px;fill:#000000">rs12748152</text>
	<text x="506.03" y="5363.67" style="font-family:'Helvetica';font-size:105.85px;fill:#000000">rs364585</text>
	<text x="506.03" y="5469.51" style="font-family:'Helvetica';font-size:105.85px;fill:#000000">rs8017377</text>
	<text x="506.03" y="5575.62" style="font-family:'Helvetica';font-size:105.85px;fill:#000000">rs2131925</text>
	<text x="506.03" y="5681.73" style="font-family:'Helvetica';font-size:105.85px;fill:#000000">rs4722551</text>
	<text x="506.03" y="5787.84" style="font-family:'Helvetica';font-size:105.85px;fill:#000000">rs3780181</text>
	<text x="506.03" y="5893.95" style="font-family:'Helvetica';font-size:105.85px;fill:#000000">rs17404153</text>
	<text x="506.03" y="6000.06" style="font-family:'Helvetica';font-size:105.85px;fill:#000000">rs2902940</text>
	<text x="506.03" y="6106.17" style="font-family:'Helvetica';font-size:105.85px;fill:#000000">rs9987289</text>
	<text x="506.03" y="6212.28" style="font-family:'Helvetica';font-size:105.85px;fill:#000000">rs2081687</text>
	<text x="506.03" y="6318.39" style="font-family:'Helvetica';font-size:105.85px;fill:#000000">rs11136341</text>
	<text x="506.03" y="6424.50" style="font-family:'Helvetica';font-size:105.85px;fill:#000000">rs3757354</text>
	<text x="506.03" y="6530.61" style="font-family:'Helvetica';font-size:105.85px;fill:#000000">rs9488822</text>
	<text x="506.03" y="6636.72" style="font-family:'Helvetica';font-size:105.85px;fill:#000000">rs12027135</text>
	<text x="506.03" y="6742.83" style="font-family:'Helvetica';font-size:105.85px;fill:#000000">rs2254287</text>
	<text x="506.03" y="6848.94" style="font-family:'Helvetica';font-size:105.85px;fill:#000000">rs267733</text>
	<text x="506.03" y="6955.05" style="font-family:'Helvetica';font-size:105.85px;fill:#000000">rs4530754</text>
	<text x="506.03" y="7061.16" style="font-family:'Helvetica';font-size:105.85px;fill:#000000">rs1250229</text>
	<text x="506.03" y="7167.27" style="font-family:'Helvetica';font-size:105.85px;fill:#000000">rs11065987</text>
	<text x="506.03" y="7379.22" style="font-family:'Helvetica';font-weight:bold;font-size:105.85px;fill:#000000">Summary</text>
	<text x="506.03" y="7485.33" style="font-family:'Helvetica';font-size:105.85px;fill:#000000">IVW</text>
	<text x="506.03" y="7591.44" style="font-family:'Helvetica';font-size:105.85px;fill:#000000">MR-Egger</text>
	<text x="5325.17" y="695.37" style="font-family:'Helvetica';font-size:105.85px;fill:#000000">1.47 (0.32, 2.62)</text>
	<text x="5325.17" y="801.48" style="font-family:'Helvetica';font-size:105.85px;fill:#000000">1.25 (0.35, 2.16)</text>
	<text x="5325.17" y="907.59" style="font-family:'Helvetica';font-size:105.85px;fill:#000000">1.25 (0.67, 1.83)</text>
	<text x="5325.17" y="1013.70" style="font-family:'Helvetica';font-size:105.85px;fill:#000000">1.16 (0.06, 2.26)</text>
	<text x="5325.17" y="1119.81" style="font-family:'Helvetica';font-size:105.85px;fill:#000000">1.09 (0.14, 2.03)</text>
	<text x="5325.17" y="1225.92" style="font-family:'Helvetica';font-size:105.85px;fill:#000000">0.94 (0.18, 1.69)</text>
	<text x="5325.17" y="1332.03" style="font-family:'Helvetica';font-size:105.85px;fill:#000000">0.90 (0.56, 1.23)</text>
	<text x="5325.17" y="1438.14" style="font-family:'Helvetica';font-size:105.85px;fill:#000000">0.87 (0.09, 1.65)</text>
	<text x="5325.17" y="1544.25" style="font-family:'Helvetica';font-size:105.85px;fill:#000000">0.78 (0.03, 1.53)</text>
	<text x="5325.17" y="1650.36" style="font-family:'Helvetica';font-size:105.85px;fill:#000000">0.78 (0.44, 1.12)</text>
	<text x="5325.17" y="1756.47" style="font-family:'Helvetica';font-size:105.85px;fill:#000000">0.70 (-0.08, 1.48)</text>
	<text x="5325.17" y="1862.58" style="font-family:'Helvetica';font-size:105.85px;fill:#000000">0.65 (-0.10, 1.40)</text>
	<text x="5325.17" y="1968.42" style="font-family:'Helvetica';font-size:105.85px;fill:#000000">0.63 (0.36, 0.89)</text>
	<text x="5325.17" y="2074.53" style="font-family:'Helvetica';font-size:105.85px;fill:#000000">0.61 (0.07, 1.16)</text>
	<text x="5325.17" y="2180.64" style="font-family:'Helvetica';font-size:105.85px;fill:#000000">0.61 (0.17, 1.05)</text>
	<text x="5325.17" y="2286.75" style="font-family:'Helvetica';font-size:105.85px;fill:#000000">0.61 (0.22, 1.00)</text>
	<text x="5325.17" y="2392.86" style="font-family:'Helvetica';font-size:105.85px;fill:#000000">0.61 (0.47, 0.75)</text>
	<text x="5325.17" y="2498.97" style="font-family:'Helvetica';font-size:105.85px;fill:#000000">0.60 (0.46, 0.74)</text>
	<text x="5325.17" y="2605.08" style="font-family:'Helvetica';font-size:105.85px;fill:#000000">0.58 (0.28, 0.89)</text>
	<text x="5325.17" y="2711.19" style="font-family:'Helvetica';font-size:105.85px;fill:#000000">0.58 (0.04, 1.12)</text>
	<text x="5325.17" y="2817.30" style="font-family:'Helvetica';font-size:105.85px;fill:#000000">0.57 (0.23, 0.91)</text>
	<text x="5325.17" y="2923.41" style="font-family:'Helvetica';font-size:105.85px;fill:#000000">0.57 (-0.34, 1.48)</text>
	<text x="5325.17" y="3029.52" style="font-family:'Helvetica';font-size:105.85px;fill:#000000">0.57 (0.41, 0.72)</text>
	<text x="5325.17" y="3135.63" style="font-family:'Helvetica';font-size:105.85px;fill:#000000">0.51 (-0.30, 1.33)</text>
	<text x="5325.17" y="3241.74" style="font-family:'Helvetica';font-size:105.85px;fill:#000000">0.51 (-0.14, 1.16)</text>
	<text x="5325.17" y="3347.85" style="font-family:'Helvetica';font-size:105.85px;fill:#000000">0.49 (0.23, 0.75)</text>
	<text x="5325.17" y="3453.96" style="font-family:'Helvetica';font-size:105.85px;fill:#000000">0.49 (0.05, 0.93)</text>
	<text x="5325.17" y="3560.07" style="font-family:'Helvetica';font-size:105.85px;fill:#000000">0.46 (0.29, 0.63)</text>
	<text x="5325.17" y="3666.18" style="font-family:'Helvetica';font-size:105.85px;fill:#000000">0.45 (0.13, 0.77)</text>
	<text x="5325.17" y="3772.02" style="font-family:'Helvetica';font-size:105.85px;fill:#000000">0.44 (0.05, 0.83)</text>
	<text x="5325.17" y="3878.13" style="font-family:'Helvetica';font-size:105.85px;fill:#000000">0.43 (0.14, 0.72)</text>
	<text x="5325.17" y="3984.24" style="font-family:'Helvetica';font-size:105.85px;fill:#000000">0.42 (-0.08, 0.92)</text>
	<text x="5325.17" y="4090.35" style="font-family:'Helvetica';font-size:105.85px;fill:#000000">0.42 (-0.35, 1.19)</text>
	<text x="5325.17" y="4196.46" style="font-family:'Helvetica';font-size:105.85px;fill:#000000">0.42 (-0.28, 1.11)</text>
	<text x="5325.17" y="4302.57" style="font-family:'Helvetica';font-size:105.85px;fill:#000000">0.42 (-0.21, 1.04)</text>
	<text x="5325.17" y="4408.68" style="font-family:'Helvetica';font-size:105.85px;fill:#000000">0.41 (0.28, 0.53)</text>
	<text x="5325.17" y="4514.79" style="font-family:'Helvetica';font-size:105.85px;fill:#000000">0.40 (-0.47, 1.27)</text>
	<text x="5325.17" y="4620.90" style="font-family:'Helvetica';font-size:105.85px;fill:#000000">0.38 (-0.20, 0.97)</text>
	<text x="5325.17" y="4727.01" style="font-family:'Helvetica';font-size:105.85px;fill:#000000">0.35 (-0.26, 0.96)</text>
	<text x="5325.17" y="4833.12" style="font-family:'Helvetica';font-size:105.85px;fill:#000000">0.35 (0.17, 0.52)</text>
	<text x="5325.17" y="4939.23" style="font-family:'Helvetica';font-size:105.85px;fill:#000000">0.34 (-0.34, 1.03)</text>
	<text x="5325.17" y="5045.34" style="font-family:'Helvetica';font-size:105.85px;fill:#000000">0.31 (-0.02, 0.64)</text>
	<text x="5325.17" y="5151.45" style="font-family:'Helvetica';font-size:105.85px;fill:#000000">0.31 (-0.11, 0.72)</text>
	<text x="5325.17" y="5257.56" style="font-family:'Helvetica';font-size:105.85px;fill:#000000">0.27 (-0.46, 1.01)</text>
	<text x="5325.17" y="5363.67" style="font-family:'Helvetica';font-size:105.85px;fill:#000000">0.27 (-0.48, 1.03)</text>
	<text x="5325.17" y="5469.51" style="font-family:'Helvetica';font-size:105.85px;fill:#000000">0.25 (-0.41, 0.91)</text>
	<text x="5325.17" y="5575.62" style="font-family:'Helvetica';font-size:105.85px;fill:#000000">0.24 (-0.15, 0.63)</text>
	<text x="5325.17" y="5681.73" style="font-family:'Helvetica';font-size:105.85px;fill:#000000">0.20 (-0.48, 0.88)</text>
	<text x="5325.17" y="5787.84" style="font-family:'Helvetica';font-size:105.85px;fill:#000000">0.18 (-0.62, 0.99)</text>
	<text x="5325.17" y="5893.95" style="font-family:'Helvetica';font-size:105.85px;fill:#000000">0.16 (-0.62, 0.94)</text>
	<text x="5325.17" y="6000.06" style="font-family:'Helvetica';font-size:105.85px;fill:#000000">0.09 (-0.63, 0.82)</text>
	<text x="5325.17" y="6106.17" style="font-family:'Helvetica';font-size:105.85px;fill:#000000">0.02 (-0.42, 0.45)</text>
	<text x="5325.17" y="6212.28" style="font-family:'Helvetica';font-size:105.85px;fill:#000000">-0.03 (-0.65, 0.58)</text>
	<text x="5325.17" y="6318.39" style="font-family:'Helvetica';font-size:105.85px;fill:#000000">-0.16 (-0.63, 0.30)</text>
	<text x="5325.17" y="6424.50" style="font-family:'Helvetica';font-size:105.85px;fill:#000000">-0.17 (-0.72, 0.38)</text>
	<text x="5325.17" y="6530.61" style="font-family:'Helvetica';font-size:105.85px;fill:#000000">-0.32 (-0.98, 0.33)</text>
	<text x="5325.17" y="6636.72" style="font-family:'Helvetica';font-size:105.85px;fill:#000000">-0.33 (-0.96, 0.30)</text>
	<text x="5325.17" y="6742.83" style="font-family:'Helvetica';font-size:105.85px;fill:#000000">-0.47 (-1.54, 0.60)</text>
	<text x="5325.17" y="6848.94" style="font-family:'Helvetica';font-size:105.85px;fill:#000000">-0.60 (-1.46, 0.27)</text>
	<text x="5325.17" y="6955.05" style="font-family:'Helvetica';font-size:105.85px;fill:#000000">-1.28 (-2.03, -0.53)</text>
	<text x="5325.17" y="7061.16" style="font-family:'Helvetica';font-size:105.85px;fill:#000000">-1.39 (-2.39, -0.39)</text>
	<text x="5325.17" y="7167.27" style="font-family:'Helvetica';font-size:105.85px;fill:#000000">-2.23 (-3.22, -1.23)</text>
	<text x="5325.17" y="7485.33" style="font-family:'Helvetica';font-size:105.85px;fill:#000000">0.47 (0.42, 0.51)</text>
	<text x="5325.17" y="7591.44" style="font-family:'Helvetica';font-size:105.85px;fill:#000000">0.59 (0.46, 0.71)</text>
	<text x="5325.17" y="377.04" style="font-family:'Helvetica';font-size:105.85px;fill:#000000">Estimate (95% CI)</text>
	<text x="5325.17" y="695.37" style="font-family:'Helvetica';font-size:105.85px;fill:#000000">1.47 (0.32, 2.62)</text>
	<text x="5325.17" y="801.48" style="font-family:'Helvetica';font-size:105.85px;fill:#000000">1.25 (0.35, 2.16)</text>
	<text x="5325.17" y="907.59" style="font-family:'Helvetica';font-size:105.85px;fill:#000000">1.25 (0.67, 1.83)</text>
	<text x="5325.17" y="1013.70" style="font-family:'Helvetica';font-size:105.85px;fill:#000000">1.16 (0.06, 2.26)</text>
	<text x="5325.17" y="1119.81" style="font-family:'Helvetica';font-size:105.85px;fill:#000000">1.09 (0.14, 2.03)</text>
	<text x="5325.17" y="1225.92" style="font-family:'Helvetica';font-size:105.85px;fill:#000000">0.94 (0.18, 1.69)</text>
	<text x="5325.17" y="1332.03" style="font-family:'Helvetica';font-size:105.85px;fill:#000000">0.90 (0.56, 1.23)</text>
	<text x="5325.17" y="1438.14" style="font-family:'Helvetica';font-size:105.85px;fill:#000000">0.87 (0.09, 1.65)</text>
	<text x="5325.17" y="1544.25" style="font-family:'Helvetica';font-size:105.85px;fill:#000000">0.78 (0.03, 1.53)</text>
	<text x="5325.17" y="1650.36" style="font-family:'Helvetica';font-size:105.85px;fill:#000000">0.78 (0.44, 1.12)</text>
	<text x="5325.17" y="1756.47" style="font-family:'Helvetica';font-size:105.85px;fill:#000000">0.70 (-0.08, 1.48)</text>
	<text x="5325.17" y="1862.58" style="font-family:'Helvetica';font-size:105.85px;fill:#000000">0.65 (-0.10, 1.40)</text>
	<text x="5325.17" y="1968.42" style="font-family:'Helvetica';font-size:105.85px;fill:#000000">0.63 (0.36, 0.89)</text>
	<text x="5325.17" y="2074.53" style="font-family:'Helvetica';font-size:105.85px;fill:#000000">0.61 (0.07, 1.16)</text>
	<text x="5325.17" y="2180.64" style="font-family:'Helvetica';font-size:105.85px;fill:#000000">0.61 (0.17, 1.05)</text>
	<text x="5325.17" y="2286.75" style="font-family:'Helvetica';font-size:105.85px;fill:#000000">0.61 (0.22, 1.00)</text>
	<text x="5325.17" y="2392.86" style="font-family:'Helvetica';font-size:105.85px;fill:#000000">0.61 (0.47, 0.75)</text>
	<text x="5325.17" y="2498.97" style="font-family:'Helvetica';font-size:105.85px;fill:#000000">0.60 (0.46, 0.74)</text>
	<text x="5325.17" y="2605.08" style="font-family:'Helvetica';font-size:105.85px;fill:#000000">0.58 (0.28, 0.89)</text>
	<text x="5325.17" y="2711.19" style="font-family:'Helvetica';font-size:105.85px;fill:#000000">0.58 (0.04, 1.12)</text>
	<text x="5325.17" y="2817.30" style="font-family:'Helvetica';font-size:105.85px;fill:#000000">0.57 (0.23, 0.91)</text>
	<text x="5325.17" y="2923.41" style="font-family:'Helvetica';font-size:105.85px;fill:#000000">0.57 (-0.34, 1.48)</text>
	<text x="5325.17" y="3029.52" style="font-family:'Helvetica';font-size:105.85px;fill:#000000">0.57 (0.41, 0.72)</text>
	<text x="5325.17" y="3135.63" style="font-family:'Helvetica';font-size:105.85px;fill:#000000">0.51 (-0.30, 1.33)</text>
	<text x="5325.17" y="3241.74" style="font-family:'Helvetica';font-size:105.85px;fill:#000000">0.51 (-0.14, 1.16)</text>
	<text x="5325.17" y="3347.85" style="font-family:'Helvetica';font-size:105.85px;fill:#000000">0.49 (0.23, 0.75)</text>
	<text x="5325.17" y="3453.96" style="font-family:'Helvetica';font-size:105.85px;fill:#000000">0.49 (0.05, 0.93)</text>
	<text x="5325.17" y="3560.07" style="font-family:'Helvetica';font-size:105.85px;fill:#000000">0.46 (0.29, 0.63)</text>
	<text x="5325.17" y="3666.18" style="font-family:'Helvetica';font-size:105.85px;fill:#000000">0.45 (0.13, 0.77)</text>
	<text x="5325.17" y="3772.02" style="font-family:'Helvetica';font-size:105.85px;fill:#000000">0.44 (0.05, 0.83)</text>
	<text x="5325.17" y="3878.13" style="font-family:'Helvetica';font-size:105.85px;fill:#000000">0.43 (0.14, 0.72)</text>
	<text x="5325.17" y="3984.24" style="font-family:'Helvetica';font-size:105.85px;fill:#000000">0.42 (-0.08, 0.92)</text>
	<text x="5325.17" y="4090.35" style="font-family:'Helvetica';font-size:105.85px;fill:#000000">0.42 (-0.35, 1.19)</text>
	<text x="5325.17" y="4196.46" style="font-family:'Helvetica';font-size:105.85px;fill:#000000">0.42 (-0.28, 1.11)</text>
	<text x="5325.17" y="4302.57" style="font-family:'Helvetica';font-size:105.85px;fill:#000000">0.42 (-0.21, 1.04)</text>
	<text x="5325.17" y="4408.68" style="font-family:'Helvetica';font-size:105.85px;fill:#000000">0.41 (0.28, 0.53)</text>
	<text x="5325.17" y="4514.79" style="font-family:'Helvetica';font-size:105.85px;fill:#000000">0.40 (-0.47, 1.27)</text>
	<text x="5325.17" y="4620.90" style="font-family:'Helvetica';font-size:105.85px;fill:#000000">0.38 (-0.20, 0.97)</text>
	<text x="5325.17" y="4727.01" style="font-family:'Helvetica';font-size:105.85px;fill:#000000">0.35 (-0.26, 0.96)</text>
	<text x="5325.17" y="4833.12" style="font-family:'Helvetica';font-size:105.85px;fill:#000000">0.35 (0.17, 0.52)</text>
	<text x="5325.17" y="4939.23" style="font-family:'Helvetica';font-size:105.85px;fill:#000000">0.34 (-0.34, 1.03)</text>
	<text x="5325.17" y="5045.34" style="font-family:'Helvetica';font-size:105.85px;fill:#000000">0.31 (-0.02, 0.64)</text>
	<text x="5325.17" y="5151.45" style="font-family:'Helvetica';font-size:105.85px;fill:#000000">0.31 (-0.11, 0.72)</text>
	<text x="5325.17" y="5257.56" style="font-family:'Helvetica';font-size:105.85px;fill:#000000">0.27 (-0.46, 1.01)</text>
	<text x="5325.17" y="5363.67" style="font-family:'Helvetica';font-size:105.85px;fill:#000000">0.27 (-0.48, 1.03)</text>
	<text x="5325.17" y="5469.51" style="font-family:'Helvetica';font-size:105.85px;fill:#000000">0.25 (-0.41, 0.91)</text>
	<text x="5325.17" y="5575.62" style="font-family:'Helvetica';font-size:105.85px;fill:#000000">0.24 (-0.15, 0.63)</text>
	<text x="5325.17" y="5681.73" style="font-family:'Helvetica';font-size:105.85px;fill:#000000">0.20 (-0.48, 0.88)</text>
	<text x="5325.17" y="5787.84" style="font-family:'Helvetica';font-size:105.85px;fill:#000000">0.18 (-0.62, 0.99)</text>
	<text x="5325.17" y="5893.95" style="font-family:'Helvetica';font-size:105.85px;fill:#000000">0.16 (-0.62, 0.94)</text>
	<text x="5325.17" y="6000.06" style="font-family:'Helvetica';font-size:105.85px;fill:#000000">0.09 (-0.63, 0.82)</text>
	<text x="5325.17" y="6106.17" style="font-family:'Helvetica';font-size:105.85px;fill:#000000">0.02 (-0.42, 0.45)</text>
	<text x="5325.17" y="6212.28" style="font-family:'Helvetica';font-size:105.85px;fill:#000000">-0.03 (-0.65, 0.58)</text>
	<text x="5325.17" y="6318.39" style="font-family:'Helvetica';font-size:105.85px;fill:#000000">-0.16 (-0.63, 0.30)</text>
	<text x="5325.17" y="6424.50" style="font-family:'Helvetica';font-size:105.85px;fill:#000000">-0.17 (-0.72, 0.38)</text>
	<text x="5325.17" y="6530.61" style="font-family:'Helvetica';font-size:105.85px;fill:#000000">-0.32 (-0.98, 0.33)</text>
	<text x="5325.17" y="6636.72" style="font-family:'Helvetica';font-size:105.85px;fill:#000000">-0.33 (-0.96, 0.30)</text>
	<text x="5325.17" y="6742.83" style="font-family:'Helvetica';font-size:105.85px;fill:#000000">-0.47 (-1.54, 0.60)</text>
	<text x="5325.17" y="6848.94" style="font-family:'Helvetica';font-size:105.85px;fill:#000000">-0.60 (-1.46, 0.27)</text>
	<text x="5325.17" y="6955.05" style="font-family:'Helvetica';font-size:105.85px;fill:#000000">-1.28 (-2.03, -0.53)</text>
	<text x="5325.17" y="7061.16" style="font-family:'Helvetica';font-size:105.85px;fill:#000000">-1.39 (-2.39, -0.39)</text>
	<text x="5325.17" y="7167.27" style="font-family:'Helvetica';font-size:105.85px;fill:#000000">-2.23 (-3.22, -1.23)</text>
	<text x="5325.17" y="7485.33" style="font-family:'Helvetica';font-size:105.85px;fill:#000000">0.47 (0.42, 0.51)</text>
	<text x="5325.17" y="7591.44" style="font-family:'Helvetica';font-size:105.85px;fill:#000000">0.59 (0.46, 0.71)</text>
	<text x="5325.17" y="377.04" style="font-family:'Helvetica';font-size:105.85px;fill:#000000">Estimate (95% CI)</text>
	<polygon points="4059.44,658.53 4098.18,619.79 4136.92,658.53 4098.18,697.27" style="fill:#000000"/>
	<polygon points="4073.60,658.53 4098.18,633.96 4122.75,658.53 4098.18,683.10" style="fill:none;stroke:#000000;stroke-width:20.03"/>
	<polygon points="3920.10,764.64 3958.84,725.90 3997.58,764.64 3958.84,803.38" style="fill:#000000"/>
	<polygon points="3934.27,764.64 3958.84,740.07 3983.42,764.64 3958.84,789.21" style="fill:none;stroke:#000000;stroke-width:20.03"/>
	<polygon points="3918.21,870.75 3956.95,832.01 3995.69,870.75 3956.95,909.49" style="fill:#000000"/>
	<polygon points="3932.38,870.75 3956.95,846.18 3981.53,870.75 3956.95,895.32" style="fill:none;stroke:#000000;stroke-width:20.03"/>
	<polygon points="3860.16,976.86 3898.90,938.12 3937.64,976.86 3898.90,1015.60" style="fill:#000000"/>
	<polygon points="3874.33,976.86 3898.90,952.29 3923.47,976.86 3898.90,1001.43" style="fill:none;stroke:#000000;stroke-width:20.03"/>
	<polygon points="3812.36,1082.70 3851.10,1043.96 3889.84,1082.70 3851.10,1121.44" style="fill:#000000"/>
	<polygon points="3826.53,1082.70 3851.10,1058.13 3875.68,1082.70 3851.10,1107.27" style="fill:none;stroke:#000000;stroke-width:20.03"/>
	<polygon points="3715.70,1188.81 3754.43,1150.07 3793.17,1188.81 3754.43,1227.55" style="fill:#000000"/>
	<polygon points="3729.86,1188.81 3754.43,1164.24 3779.01,1188.81 3754.43,1213.38" style="fill:none;stroke:#000000;stroke-width:20.03"/>
	<polygon points="3690.31,1294.92 3729.05,1256.18 3767.79,1294.92 3729.05,1333.66" style="fill:#000000"/>
	<polygon points="3704.48,1294.92 3729.05,1270.35 3753.62,1294.92 3729.05,1319.49" style="fill:none;stroke:#000000;stroke-width:20.03"/>
	<polygon points="3671.95,1401.03 3710.69,1362.29 3749.43,1401.03 3710.69,1439.77" style="fill:#000000"/>
	<polygon points="3686.12,1401.03 3710.69,1376.46 3735.26,1401.03 3710.69,1425.60" style="fill:none;stroke:#000000;stroke-width:20.03"/>
	<polygon points="3613.90,1507.14 3652.63,1468.40 3691.37,1507.14 3652.63,1545.88" style="fill:#000000"/>
	<polygon points="3628.06,1507.14 3652.63,1482.57 3677.21,1507.14 3652.63,1531.71" style="fill:none;stroke:#000000;stroke-width:20.03"/>
	<polygon points="3613.90,1613.25 3652.63,1574.51 3691.37,1613.25 3652.63,1651.99" style="fill:#000000"/>
	<polygon points="3628.06,1613.25 3652.63,1588.68 3677.21,1613.25 3652.63,1637.82" style="fill:none;stroke:#000000;stroke-width:20.03"/>
	<polygon points="3561.78,1719.36 3600.52,1680.62 3639.26,1719.36 3600.52,1758.10" style="fill:#000000"/>
	<polygon points="3575.95,1719.36 3600.52,1694.79 3625.09,1719.36 3600.52,1743.93" style="fill:none;stroke:#000000;stroke-width:20.03"/>
	<polygon points="3532.62,1825.47 3571.36,1786.73 3610.10,1825.47 3571.36,1864.21" style="fill:#000000"/>
	<polygon points="3546.78,1825.47 3571.36,1800.90 3595.93,1825.47 3571.36,1850.04" style="fill:none;stroke:#000000;stroke-width:20.03"/>
	<polygon points="3515.61,1931.58 3554.35,1892.84 3593.08,1931.58 3554.35,1970.32" style="fill:#000000"/>
	<polygon points="3529.77,1931.58 3554.35,1907.01 3578.92,1931.58 3554.35,1956.15" style="fill:none;stroke:#000000;stroke-width:20.03"/>
	<polygon points="3508.86,2037.69 3547.59,1998.95 3586.33,2037.69 3547.59,2076.43" style="fill:#000000"/>
	<polygon points="3523.02,2037.69 3547.59,2013.12 3572.17,2037.69 3547.59,2062.26" style="fill:none;stroke:#000000;stroke-width:20.03"/>
	<polygon points="3506.97,2143.80 3545.70,2105.06 3584.44,2143.80 3545.70,2182.54" style="fill:#000000"/>
	<polygon points="3521.13,2143.80 3545.70,2119.23 3570.28,2143.80 3545.70,2168.37" style="fill:none;stroke:#000000;stroke-width:20.03"/>
	<polygon points="3505.62,2249.91 3544.35,2211.17 3583.09,2249.91 3544.35,2288.65" style="fill:#000000"/>
	<polygon points="3519.78,2249.91 3544.35,2225.34 3568.93,2249.91 3544.35,2274.48" style="fill:none;stroke:#000000;stroke-width:20.03"/>
	<polygon points="3504.27,2356.02 3543.00,2317.28 3581.74,2356.02 3543.00,2394.76" style="fill:#000000"/>
	<polygon points="3518.43,2356.02 3543.00,2331.45 3567.58,2356.02 3543.00,2380.59" style="fill:none;stroke:#000000;stroke-width:20.03"/>
	<polygon points="3498.87,2462.13 3537.60,2423.39 3576.34,2462.13 3537.60,2500.87" style="fill:#000000"/>
	<polygon points="3513.03,2462.13 3537.60,2437.56 3562.18,2462.13 3537.60,2486.70" style="fill:none;stroke:#000000;stroke-width:20.03"/>
	<polygon points="3489.14,2568.24 3527.88,2529.50 3566.62,2568.24 3527.88,2606.98" style="fill:#000000"/>
	<polygon points="3503.31,2568.24 3527.88,2543.67 3552.46,2568.24 3527.88,2592.81" style="fill:none;stroke:#000000;stroke-width:20.03"/>
	<polygon points="3485.90,2674.35 3524.64,2635.61 3563.38,2674.35 3524.64,2713.09" style="fill:#000000"/>
	<polygon points="3500.07,2674.35 3524.64,2649.78 3549.21,2674.35 3524.64,2698.92" style="fill:none;stroke:#000000;stroke-width:20.03"/>
	<polygon points="3480.50,2780.46 3519.24,2741.72 3557.98,2780.46 3519.24,2819.20" style="fill:#000000"/>
	<polygon points="3494.67,2780.46 3519.24,2755.89 3543.81,2780.46 3519.24,2805.03" style="fill:none;stroke:#000000;stroke-width:20.03"/>
	<polygon points="3479.42,2886.30 3518.16,2847.56 3556.90,2886.30 3518.16,2925.04" style="fill:#000000"/>
	<polygon points="3493.59,2886.30 3518.16,2861.73 3542.73,2886.30 3518.16,2910.87" style="fill:none;stroke:#000000;stroke-width:20.03"/>
	<polygon points="3478.34,2992.41 3517.08,2953.67 3555.82,2992.41 3517.08,3031.15" style="fill:#000000"/>
	<polygon points="3492.51,2992.41 3517.08,2967.84 3541.65,2992.41 3517.08,3016.98" style="fill:none;stroke:#000000;stroke-width:20.03"/>
	<polygon points="3444.59,3098.52 3483.33,3059.78 3522.07,3098.52 3483.33,3137.26" style="fill:#000000"/>
	<polygon points="3458.76,3098.52 3483.33,3073.95 3507.90,3098.52 3483.33,3123.09" style="fill:none;stroke:#000000;stroke-width:20.03"/>
	<polygon points="3442.97,3204.63 3481.71,3165.89 3520.45,3204.63 3481.71,3243.37" style="fill:#000000"/>
	<polygon points="3457.14,3204.63 3481.71,3180.06 3506.28,3204.63 3481.71,3229.20" style="fill:none;stroke:#000000;stroke-width:20.03"/>
	<polygon points="3427.85,3310.74 3466.59,3272.00 3505.33,3310.74 3466.59,3349.48" style="fill:#000000"/>
	<polygon points="3442.01,3310.74 3466.59,3286.17 3491.16,3310.74 3466.59,3335.31" style="fill:none;stroke:#000000;stroke-width:20.03"/>
	<polygon points="3427.58,3416.85 3466.32,3378.11 3505.06,3416.85 3466.32,3455.59" style="fill:#000000"/>
	<polygon points="3441.74,3416.85 3466.32,3392.28 3490.89,3416.85 3466.32,3441.42" style="fill:none;stroke:#000000;stroke-width:20.03"/>
	<polygon points="3409.49,3522.96 3448.23,3484.22 3486.96,3522.96 3448.23,3561.70" style="fill:#000000"/>
	<polygon points="3423.65,3522.96 3448.23,3498.39 3472.80,3522.96 3448.23,3547.53" style="fill:none;stroke:#000000;stroke-width:20.03"/>
	<polygon points="3403.01,3629.07 3441.74,3590.33 3480.48,3629.07 3441.74,3667.81" style="fill:#000000"/>
	<polygon points="3417.17,3629.07 3441.74,3604.50 3466.32,3629.07 3441.74,3653.64" style="fill:none;stroke:#000000;stroke-width:20.03"/>
	<polygon points="3394.91,3735.18 3433.64,3696.44 3472.38,3735.18 3433.64,3773.92" style="fill:#000000"/>
	<polygon points="3409.07,3735.18 3433.64,3710.61 3458.22,3735.18 3433.64,3759.75" style="fill:none;stroke:#000000;stroke-width:20.03"/>
	<polygon points="3389.23,3841.29 3427.97,3802.55 3466.71,3841.29 3427.97,3880.03" style="fill:#000000"/>
	<polygon points="3403.40,3841.29 3427.97,3816.72 3452.55,3841.29 3427.97,3865.86" style="fill:none;stroke:#000000;stroke-width:20.03"/>
	<polygon points="3384.91,3947.40 3423.65,3908.66 3462.39,3947.40 3423.65,3986.14" style="fill:#000000"/>
	<polygon points="3399.08,3947.40 3423.65,3922.83 3448.23,3947.40 3423.65,3971.97" style="fill:none;stroke:#000000;stroke-width:20.03"/>
	<polygon points="3383.02,4053.51 3421.76,4014.77 3460.50,4053.51 3421.76,4092.25" style="fill:#000000"/>
	<polygon points="3397.19,4053.51 3421.76,4028.94 3446.34,4053.51 3421.76,4078.08" style="fill:none;stroke:#000000;stroke-width:20.03"/>
	<polygon points="3380.59,4159.62 3419.33,4120.88 3458.07,4159.62 3419.33,4198.36" style="fill:#000000"/>
	<polygon points="3394.76,4159.62 3419.33,4135.05 3443.90,4159.62 3419.33,4184.19" style="fill:none;stroke:#000000;stroke-width:20.03"/>
	<polygon points="3380.32,4265.73 3419.06,4226.99 3457.80,4265.73 3419.06,4304.47" style="fill:#000000"/>
	<polygon points="3394.49,4265.73 3419.06,4241.16 3443.63,4265.73 3419.06,4290.30" style="fill:none;stroke:#000000;stroke-width:20.03"/>
	<polygon points="3376.00,4371.84 3414.74,4333.10 3453.48,4371.84 3414.74,4410.58" style="fill:#000000"/>
	<polygon points="3390.17,4371.84 3414.74,4347.27 3439.31,4371.84 3414.74,4396.41" style="fill:none;stroke:#000000;stroke-width:20.03"/>
	<polygon points="3371.95,4477.95 3410.69,4439.21 3449.43,4477.95 3410.69,4516.69" style="fill:#000000"/>
	<polygon points="3386.12,4477.95 3410.69,4453.38 3435.26,4477.95 3410.69,4502.52" style="fill:none;stroke:#000000;stroke-width:20.03"/>
	<polygon points="3358.45,4583.79 3397.19,4545.05 3435.93,4583.79 3397.19,4622.53" style="fill:#000000"/>
	<polygon points="3372.62,4583.79 3397.19,4559.22 3421.76,4583.79 3397.19,4608.36" style="fill:none;stroke:#000000;stroke-width:20.03"/>
	<polygon points="3340.63,4689.90 3379.37,4651.16 3418.11,4689.90 3379.37,4728.64" style="fill:#000000"/>
	<polygon points="3354.80,4689.90 3379.37,4665.33 3403.94,4689.90 3379.37,4714.47" style="fill:none;stroke:#000000;stroke-width:20.03"/>
	<polygon points="3336.31,4796.01 3375.05,4757.27 3413.79,4796.01 3375.05,4834.75" style="fill:#000000"/>
	<polygon points="3350.48,4796.01 3375.05,4771.44 3399.62,4796.01 3375.05,4820.58" style="fill:none;stroke:#000000;stroke-width:20.03"/>
	<polygon points="3334.42,4902.12 3373.16,4863.38 3411.90,4902.12 3373.16,4940.86" style="fill:#000000"/>
	<polygon points="3348.59,4902.12 3373.16,4877.55 3397.73,4902.12 3373.16,4926.69" style="fill:none;stroke:#000000;stroke-width:20.03"/>
	<polygon points="3311.74,5008.23 3350.48,4969.49 3389.21,5008.23 3350.48,5046.97" style="fill:#000000"/>
	<polygon points="3325.90,5008.23 3350.48,4983.66 3375.05,5008.23 3350.48,5032.80" style="fill:none;stroke:#000000;stroke-width:20.03"/>
	<polygon points="3309.85,5114.34 3348.59,5075.60 3387.32,5114.34 3348.59,5153.08" style="fill:#000000"/>
	<polygon points="3324.01,5114.34 3348.59,5089.77 3373.16,5114.34 3348.59,5138.91" style="fill:none;stroke:#000000;stroke-width:20.03"/>
	<polygon points="3289.60,5220.45 3328.33,5181.71 3367.07,5220.45 3328.33,5259.19" style="fill:#000000"/>
	<polygon points="3303.76,5220.45 3328.33,5195.88 3352.91,5220.45 3328.33,5245.02" style="fill:none;stroke:#000000;stroke-width:20.03"/>
	<polygon points="3289.06,5326.56 3327.79,5287.82 3366.53,5326.56 3327.79,5365.30" style="fill:#000000"/>
	<polygon points="3303.22,5326.56 3327.79,5301.99 3352.37,5326.56 3327.79,5351.13" style="fill:none;stroke:#000000;stroke-width:20.03"/>
	<polygon points="3273.12,5432.67 3311.86,5393.93 3350.60,5432.67 3311.86,5471.41" style="fill:#000000"/>
	<polygon points="3287.29,5432.67 3311.86,5408.10 3336.43,5432.67 3311.86,5457.24" style="fill:none;stroke:#000000;stroke-width:20.03"/>
	<polygon points="3266.10,5538.78 3304.84,5500.04 3343.58,5538.78 3304.84,5577.52" style="fill:#000000"/>
	<polygon points="3280.27,5538.78 3304.84,5514.21 3329.41,5538.78 3304.84,5563.35" style="fill:none;stroke:#000000;stroke-width:20.03"/>
	<polygon points="3242.61,5644.89 3281.35,5606.15 3320.09,5644.89 3281.35,5683.63" style="fill:#000000"/>
	<polygon points="3256.78,5644.89 3281.35,5620.32 3305.92,5644.89 3281.35,5669.46" style="fill:none;stroke:#000000;stroke-width:20.03"/>
	<polygon points="3231.27,5751.00 3270.01,5712.26 3308.75,5751.00 3270.01,5789.74" style="fill:#000000"/>
	<polygon points="3245.44,5751.00 3270.01,5726.43 3294.58,5751.00 3270.01,5775.57" style="fill:none;stroke:#000000;stroke-width:20.03"/>
	<polygon points="3217.50,5857.11 3256.24,5818.37 3294.98,5857.11 3256.24,5895.85" style="fill:#000000"/>
	<polygon points="3231.66,5857.11 3256.24,5832.54 3280.81,5857.11 3256.24,5881.68" style="fill:none;stroke:#000000;stroke-width:20.03"/>
	<polygon points="3174.02,5963.22 3212.76,5924.48 3251.50,5963.22 3212.76,6001.96" style="fill:#000000"/>
	<polygon points="3188.19,5963.22 3212.76,5938.65 3237.34,5963.22 3212.76,5987.79" style="fill:none;stroke:#000000;stroke-width:20.03"/>
	<polygon points="3123.26,6069.33 3162.00,6030.59 3200.74,6069.33 3162.00,6108.07" style="fill:#000000"/>
	<polygon points="3137.43,6069.33 3162.00,6044.76 3186.57,6069.33 3162.00,6093.90" style="fill:none;stroke:#000000;stroke-width:20.03"/>
	<polygon points="3093.56,6175.44 3132.30,6136.70 3171.03,6175.44 3132.30,6214.18" style="fill:#000000"/>
	<polygon points="3107.72,6175.44 3132.30,6150.87 3156.87,6175.44 3132.30,6200.01" style="fill:none;stroke:#000000;stroke-width:20.03"/>
	<polygon points="3007.69,6281.55 3046.43,6242.81 3085.17,6281.55 3046.43,6320.29" style="fill:#000000"/>
	<polygon points="3021.86,6281.55 3046.43,6256.98 3071.00,6281.55 3046.43,6306.12" style="fill:none;stroke:#000000;stroke-width:20.03"/>
	<polygon points="3002.56,6387.39 3041.30,6348.65 3080.04,6387.39 3041.30,6426.13" style="fill:#000000"/>
	<polygon points="3016.72,6387.39 3041.30,6362.82 3065.87,6387.39 3041.30,6411.96" style="fill:none;stroke:#000000;stroke-width:20.03"/>
	<polygon points="2904.27,6493.50 2943.01,6454.76 2981.75,6493.50 2943.01,6532.24" style="fill:#000000"/>
	<polygon points="2918.44,6493.50 2943.01,6468.93 2967.58,6493.50 2943.01,6518.07" style="fill:none;stroke:#000000;stroke-width:20.03"/>
	<polygon points="2900.22,6599.61 2938.96,6560.87 2977.70,6599.61 2938.96,6638.35" style="fill:#000000"/>
	<polygon points="2914.38,6599.61 2938.96,6575.04 2963.53,6599.61 2938.96,6624.18" style="fill:none;stroke:#000000;stroke-width:20.03"/>
	<polygon points="2809.49,6705.72 2848.23,6666.98 2886.97,6705.72 2848.23,6744.46" style="fill:#000000"/>
	<polygon points="2823.66,6705.72 2848.23,6681.15 2872.80,6705.72 2848.23,6730.29" style="fill:none;stroke:#000000;stroke-width:20.03"/>
	<polygon points="2727.67,6811.83 2766.41,6773.09 2805.15,6811.83 2766.41,6850.57" style="fill:#000000"/>
	<polygon points="2741.84,6811.83 2766.41,6787.26 2790.98,6811.83 2766.41,6836.40" style="fill:none;stroke:#000000;stroke-width:20.03"/>
	<polygon points="2288.07,6917.94 2326.81,6879.20 2365.55,6917.94 2326.81,6956.68" style="fill:#000000"/>
	<polygon points="2302.24,6917.94 2326.81,6893.37 2351.38,6917.94 2326.81,6942.51" style="fill:none;stroke:#000000;stroke-width:20.03"/>
	<polygon points="2217.05,7024.05 2255.79,6985.31 2294.53,7024.05 2255.79,7062.79" style="fill:#000000"/>
	<polygon points="2231.22,7024.05 2255.79,6999.48 2280.37,7024.05 2255.79,7048.62" style="fill:none;stroke:#000000;stroke-width:20.03"/>
	<polygon points="1679.43,7130.16 1718.17,7091.42 1756.91,7130.16 1718.17,7168.90" style="fill:#000000"/>
	<polygon points="1693.60,7130.16 1718.17,7105.59 1742.74,7130.16 1718.17,7154.73" style="fill:none;stroke:#000000;stroke-width:20.03"/>
	<polygon points="3414.89,7448.49 3453.63,7409.75 3492.36,7448.49 3453.63,7487.23" style="fill:#000000"/>
	<polygon points="3429.05,7448.49 3453.63,7423.92 3478.20,7448.49 3453.63,7473.06" style="fill:none;stroke:#000000;stroke-width:20.03"/>
	<polygon points="3489.95,7554.60 3528.69,7515.86 3567.43,7554.60 3528.69,7593.34" style="fill:#000000"/>
	<polygon points="3504.12,7554.60 3528.69,7530.03 3553.27,7554.60 3528.69,7579.17" style="fill:none;stroke:#000000;stroke-width:20.03"/>
	<line x1="408.55" y1="7872.66" x2="6338.85" y2="7872.66" style="stroke:#000000;stroke-width:13.36"/>
	<text x="2114.30" y="7993.05" style="font-family:'Helvetica';font-size:105.85px;fill:#000000" text-anchor="middle"> </text>
	<text x="4189.72" y="7993.05" style="font-family:'Helvetica';font-size:105.85px;fill:#000000" text-anchor="middle"> </text>
	<line x1="3152.01" y1="7872.66" x2="3152.01" y2="7965.54" style="stroke:#000000;stroke-width:13.36"/>
	<text x="3152.01" y="8085.66" style="font-family:'Helvetica';font-size:105.85px;fill:#000000" text-anchor="middle">0</text>
	<line x1="1221.33" y1="7872.66" x2="1221.33" y2="7965.54" style="stroke:#000000;stroke-width:13.36"/>
	<text x="1221.33" y="8085.66" style="font-family:'Helvetica';font-size:105.85px;fill:#000000" text-anchor="middle">-3</text>
	<line x1="1864.80" y1="7872.66" x2="1864.80" y2="7965.54" style="stroke:#000000;stroke-width:13.36"/>
	<text x="1864.80" y="8085.66" style="font-family:'Helvetica';font-size:105.85px;fill:#000000" text-anchor="middle">-2</text>
	<line x1="2508.54" y1="7872.66" x2="2508.54" y2="7965.54" style="stroke:#000000;stroke-width:13.36"/>
	<text x="2508.54" y="8085.66" style="font-family:'Helvetica';font-size:105.85px;fill:#000000" text-anchor="middle">-1</text>
	<line x1="3152.01" y1="7872.66" x2="3152.01" y2="7965.54" style="stroke:#000000;stroke-width:13.36"/>
	<text x="3152.01" y="8085.66" style="font-family:'Helvetica';font-size:105.85px;fill:#000000" text-anchor="middle">0</text>
	<line x1="3795.75" y1="7872.66" x2="3795.75" y2="7965.54" style="stroke:#000000;stroke-width:13.36"/>
	<text x="3795.75" y="8085.66" style="font-family:'Helvetica';font-size:105.85px;fill:#000000" text-anchor="middle">1</text>
	<line x1="4439.22" y1="7872.66" x2="4439.22" y2="7965.54" style="stroke:#000000;stroke-width:13.36"/>
	<text x="4439.22" y="8085.66" style="font-family:'Helvetica';font-size:105.85px;fill:#000000" text-anchor="middle">2</text>
	<line x1="5082.96" y1="7872.66" x2="5082.96" y2="7965.54" style="stroke:#000000;stroke-width:13.36"/>
	<text x="5082.96" y="8085.66" style="font-family:'Helvetica';font-size:105.85px;fill:#000000" text-anchor="middle">3</text>
	<line x1="3152.01" y1="7872.66" x2="3152.01" y2="7965.54" style="stroke:#000000;stroke-width:13.36"/>
	<text x="448.78" y="8324.37" style="fill:#000000">
		<tspan style="font-family:'Helvetica';font-style:italic;font-size:139.06px">I</tspan>
		<tspan dy="19.86px" style="font-family:'Helvetica';font-style:italic;font-size:81.07px">GX</tspan>
		<tspan dy="-92.70px" style="font-family:'Helvetica';font-style:italic;font-size:81.07px">2</tspan>
		<tspan dy="92.70px" style="font-family:'Helvetica';font-size:139.06px">=98.4%</tspan>
	</text>
</svg>
