<?xml version="1.0" encoding="UTF-8" standalone="no"?>
<!-- This is a Stata 17.0 generated SVG file (http://www.stata.com) -->

<svg version="1.1" width="600px" height="436px" viewBox="0 0 3960 2880" xmlns="http://www.w3.org/2000/svg" xmlns:xlink="http://www.w3.org/1999/xlink">
	<desc>Stata Graph - mreggersimex</desc>
	<rect x="0" y="0" width="3960" height="2880" style="fill:#E1E6F0;stroke:none"/>
	<rect x="0.00" y="0.00" width="3959.88" height="2880.00" style="fill:#E1E6F0"/>
	<rect x="2.88" y="2.88" width="3954.12" height="2874.24" style="fill:none;stroke:#E1E6F0;stroke-width:5.76"/>
	<rect x="63.36" y="63.36" width="1916.64" height="2377.81" style="fill:#E1E6F0"/>
	<rect x="65.52" y="65.52" width="1912.32" height="2373.49" style="fill:none;stroke:#E1E6F0;stroke-width:4.32"/>
	<rect x="356.40" y="138.98" width="1547.99" height="2009.02" style="fill:#FFFFFF"/>
	<rect x="358.56" y="141.14" width="1543.67" height="2004.70" style="fill:none;stroke:#FFFFFF;stroke-width:4.32"/>
	<line x1="356.40" y1="2100.47" x2="1904.39" y2="2100.47" style="stroke:#E1E6F0;stroke-width:6.48"/>
	<line x1="356.40" y1="1622.04" x2="1904.39" y2="1622.04" style="stroke:#E1E6F0;stroke-width:6.48"/>
	<line x1="356.40" y1="1143.49" x2="1904.39" y2="1143.49" style="stroke:#E1E6F0;stroke-width:6.48"/>
	<line x1="356.40" y1="665.05" x2="1904.39" y2="665.05" style="stroke:#E1E6F0;stroke-width:6.48"/>
	<line x1="356.40" y1="186.50" x2="1904.39" y2="186.50" style="stroke:#E1E6F0;stroke-width:6.48"/>
	<circle cx="1856.75" cy="1861.26" r="19.70" style="fill:#000000"/>
	<circle cx="1856.75" cy="1861.26" r="16.46" style="fill:none;stroke:#000000;stroke-width:6.48"/>
	<circle cx="1614.57" cy="1490.24" r="19.70" style="fill:#000000"/>
	<circle cx="1614.57" cy="1490.24" r="16.46" style="fill:none;stroke:#000000;stroke-width:6.48"/>
	<circle cx="1372.51" cy="1323.30" r="19.70" style="fill:#000000"/>
	<circle cx="1372.51" cy="1323.30" r="16.46" style="fill:none;stroke:#000000;stroke-width:6.48"/>
	<circle cx="1130.33" cy="1051.04" r="19.70" style="fill:#000000"/>
	<circle cx="1130.33" cy="1051.04" r="16.46" style="fill:none;stroke:#000000;stroke-width:6.48"/>
	<path d=" M888.15 806.38 L897.93 815.41 L907.71 824.45 L917.48 833.48 L927.38 842.64 L937.16 851.80 L946.94 860.96 L956.71 870.11 L966.49 879.27 L976.26 888.55 L986.04 897.83 L995.82 907.12 L1005.59 916.40 L1015.37 925.80 L1025.15 935.08 L1034.92 944.49 L1044.70 954.02 L1054.47 963.42 L1064.25 972.95 L1074.03 982.48 L1083.80 992.01 L1093.70 1001.54 L1103.48 1011.19 L1113.26 1020.85 L1123.03 1030.50 L1132.81 1040.15 L1142.58 1049.80 L1152.36 1059.58 L1162.14 1069.36 L1171.91 1079.13 L1181.69 1089.03 L1191.46 1098.93 L1201.24 1108.83 L1211.02 1118.73 L1220.79 1128.64 L1230.57 1138.66 L1240.35 1148.56 L1250.12 1158.71 L1260.02 1168.73 L1269.80 1178.76 L1279.58 1188.90 L1289.35 1199.05 L1299.13 1209.20 L1308.90 1219.47 L1318.68 1229.62 L1328.46 1239.89 L1338.23 1250.16 L1348.01 1260.56 L1357.79 1270.83 L1367.56 1281.22 L1377.34 1291.62 L1387.11 1302.14 L1396.89 1312.53 L1406.67 1323.05 L1416.44 1333.57 L1426.34 1344.09 L1436.12 1354.61 L1445.90 1365.25 L1455.67 1375.90 L1465.45 1386.54 L1475.22 1397.18 L1485.00 1407.95 L1494.78 1418.71 L1504.55 1429.48 L1514.33 1440.25 L1524.11 1451.14 L1533.88 1461.90 L1543.66 1472.79 L1553.43 1483.81 L1563.21 1494.70 L1572.99 1505.71 L1582.76 1516.60 L1592.66 1527.74 L1602.44 1538.76 L1612.22 1549.89 L1621.99 1560.91 L1631.77 1572.05 L1641.54 1583.31 L1651.32 1594.44 L1661.10 1605.71 L1670.87 1616.97 L1680.65 1628.23 L1690.43 1639.49 L1700.20 1650.88 L1709.98 1662.26 L1719.75 1673.65 L1729.53 1685.03 L1739.31 1696.54 L1749.08 1708.05 L1758.98 1719.56 L1768.76 1731.07 L1778.54 1742.58 L1788.31 1754.21 L1798.09 1765.84 L1807.86 1777.48 L1817.64 1789.23 L1827.42 1800.87 L1837.19 1812.62 L1846.97 1824.38 L1856.75 1836.26" stroke-linejoin="round" style="fill:none;stroke:#000000;stroke-width:6.48"/>
	<line x1="385.37" y1="414.69" x2="422.47" y2="377.59" stroke-linecap="round" style="fill:none;stroke:#000000;stroke-width:6.48"/>
	<line x1="422.47" y1="414.69" x2="385.37" y2="377.59" stroke-linecap="round" style="fill:none;stroke:#000000;stroke-width:6.48"/>
	<line x1="403.92" y1="396.14" x2="408.75" y2="399.97" style="stroke:#000000;stroke-width:6.48"/>
	<line x1="408.75" y1="399.97" x2="413.70" y2="403.81" style="stroke:#000000;stroke-width:6.48"/>
	<line x1="413.70" y1="403.81" x2="418.52" y2="407.52" style="stroke:#000000;stroke-width:6.48"/>
	<line x1="418.52" y1="407.52" x2="423.47" y2="411.36" style="stroke:#000000;stroke-width:6.48"/>
	<line x1="423.47" y1="411.36" x2="428.30" y2="415.19" style="stroke:#000000;stroke-width:6.48"/>
	<line x1="428.30" y1="415.19" x2="433.25" y2="419.03" style="stroke:#000000;stroke-width:6.48"/>
	<line x1="433.25" y1="419.03" x2="438.20" y2="422.87" style="stroke:#000000;stroke-width:6.48"/>
	<line x1="438.20" y1="422.87" x2="443.03" y2="426.70" style="stroke:#000000;stroke-width:6.48"/>
	<line x1="443.03" y1="426.70" x2="447.98" y2="430.54" style="stroke:#000000;stroke-width:6.48"/>
	<line x1="447.98" y1="430.54" x2="449.21" y2="431.53" style="stroke:#000000;stroke-width:6.48"/>
	<line x1="471.74" y1="449.47" x2="472.35" y2="449.97" style="stroke:#000000;stroke-width:6.48"/>
	<line x1="472.35" y1="449.97" x2="477.30" y2="453.81" style="stroke:#000000;stroke-width:6.48"/>
	<line x1="477.30" y1="453.81" x2="482.13" y2="457.77" style="stroke:#000000;stroke-width:6.48"/>
	<line x1="482.13" y1="457.77" x2="487.08" y2="461.60" style="stroke:#000000;stroke-width:6.48"/>
	<line x1="487.08" y1="461.60" x2="491.91" y2="465.56" style="stroke:#000000;stroke-width:6.48"/>
	<line x1="491.91" y1="465.56" x2="496.86" y2="469.52" style="stroke:#000000;stroke-width:6.48"/>
	<line x1="496.86" y1="469.52" x2="501.68" y2="473.48" style="stroke:#000000;stroke-width:6.48"/>
	<line x1="501.68" y1="473.48" x2="506.63" y2="477.32" style="stroke:#000000;stroke-width:6.48"/>
	<line x1="506.63" y1="477.32" x2="511.46" y2="481.28" style="stroke:#000000;stroke-width:6.48"/>
	<line x1="511.46" y1="481.28" x2="516.41" y2="485.24" style="stroke:#000000;stroke-width:6.48"/>
	<line x1="516.41" y1="485.24" x2="516.66" y2="485.49" style="stroke:#000000;stroke-width:6.48"/>
	<line x1="539.05" y1="503.68" x2="540.91" y2="505.16" style="stroke:#000000;stroke-width:6.48"/>
	<line x1="540.91" y1="505.16" x2="545.74" y2="509.12" style="stroke:#000000;stroke-width:6.48"/>
	<line x1="545.74" y1="509.12" x2="550.69" y2="513.08" style="stroke:#000000;stroke-width:6.48"/>
	<line x1="550.69" y1="513.08" x2="555.51" y2="517.17" style="stroke:#000000;stroke-width:6.48"/>
	<line x1="555.51" y1="517.17" x2="560.46" y2="521.13" style="stroke:#000000;stroke-width:6.48"/>
	<line x1="560.46" y1="521.13" x2="565.29" y2="525.21" style="stroke:#000000;stroke-width:6.48"/>
	<line x1="565.29" y1="525.21" x2="570.24" y2="529.17" style="stroke:#000000;stroke-width:6.48"/>
	<line x1="570.24" y1="529.17" x2="575.07" y2="533.26" style="stroke:#000000;stroke-width:6.48"/>
	<line x1="575.07" y1="533.26" x2="580.02" y2="537.34" style="stroke:#000000;stroke-width:6.48"/>
	<line x1="580.02" y1="537.34" x2="583.48" y2="540.19" style="stroke:#000000;stroke-width:6.48"/>
	<line x1="605.63" y1="558.62" x2="609.35" y2="561.72" style="stroke:#000000;stroke-width:6.48"/>
	<line x1="609.35" y1="561.72" x2="614.29" y2="565.80" style="stroke:#000000;stroke-width:6.48"/>
	<line x1="614.29" y1="565.80" x2="619.12" y2="569.89" style="stroke:#000000;stroke-width:6.48"/>
	<line x1="619.12" y1="569.89" x2="624.07" y2="573.97" style="stroke:#000000;stroke-width:6.48"/>
	<line x1="624.07" y1="573.97" x2="628.90" y2="578.05" style="stroke:#000000;stroke-width:6.48"/>
	<line x1="628.90" y1="578.05" x2="633.85" y2="582.26" style="stroke:#000000;stroke-width:6.48"/>
	<line x1="633.85" y1="582.26" x2="638.67" y2="586.35" style="stroke:#000000;stroke-width:6.48"/>
	<line x1="638.67" y1="586.35" x2="643.62" y2="590.55" style="stroke:#000000;stroke-width:6.48"/>
	<line x1="643.62" y1="590.55" x2="648.45" y2="594.64" style="stroke:#000000;stroke-width:6.48"/>
	<line x1="648.45" y1="594.64" x2="649.56" y2="595.63" style="stroke:#000000;stroke-width:6.48"/>
	<line x1="671.59" y1="614.31" x2="672.95" y2="615.43" style="stroke:#000000;stroke-width:6.48"/>
	<line x1="672.95" y1="615.43" x2="677.78" y2="619.64" style="stroke:#000000;stroke-width:6.48"/>
	<line x1="677.78" y1="619.64" x2="682.73" y2="623.84" style="stroke:#000000;stroke-width:6.48"/>
	<line x1="682.73" y1="623.84" x2="687.68" y2="628.05" style="stroke:#000000;stroke-width:6.48"/>
	<line x1="687.68" y1="628.05" x2="692.51" y2="632.26" style="stroke:#000000;stroke-width:6.48"/>
	<line x1="692.51" y1="632.26" x2="697.46" y2="636.47" style="stroke:#000000;stroke-width:6.48"/>
	<line x1="697.46" y1="636.47" x2="702.28" y2="640.67" style="stroke:#000000;stroke-width:6.48"/>
	<line x1="702.28" y1="640.67" x2="707.23" y2="644.88" style="stroke:#000000;stroke-width:6.48"/>
	<line x1="707.23" y1="644.88" x2="712.06" y2="649.21" style="stroke:#000000;stroke-width:6.48"/>
	<line x1="712.06" y1="649.21" x2="715.15" y2="651.94" style="stroke:#000000;stroke-width:6.48"/>
	<line x1="736.93" y1="670.75" x2="741.39" y2="674.71" style="stroke:#000000;stroke-width:6.48"/>
	<line x1="741.39" y1="674.71" x2="746.34" y2="679.04" style="stroke:#000000;stroke-width:6.48"/>
	<line x1="746.34" y1="679.04" x2="751.16" y2="683.37" style="stroke:#000000;stroke-width:6.48"/>
	<line x1="751.16" y1="683.37" x2="756.11" y2="687.58" style="stroke:#000000;stroke-width:6.48"/>
	<line x1="756.11" y1="687.58" x2="760.94" y2="691.91" style="stroke:#000000;stroke-width:6.48"/>
	<line x1="760.94" y1="691.91" x2="765.89" y2="696.24" style="stroke:#000000;stroke-width:6.48"/>
	<line x1="765.89" y1="696.24" x2="770.84" y2="700.57" style="stroke:#000000;stroke-width:6.48"/>
	<line x1="770.84" y1="700.57" x2="775.67" y2="704.90" style="stroke:#000000;stroke-width:6.48"/>
	<line x1="775.67" y1="704.90" x2="780.12" y2="708.86" style="stroke:#000000;stroke-width:6.48"/>
	<line x1="801.78" y1="728.04" x2="804.99" y2="731.01" style="stroke:#000000;stroke-width:6.48"/>
	<line x1="804.99" y1="731.01" x2="809.94" y2="735.35" style="stroke:#000000;stroke-width:6.48"/>
	<line x1="809.94" y1="735.35" x2="814.77" y2="739.80" style="stroke:#000000;stroke-width:6.48"/>
	<line x1="814.77" y1="739.80" x2="819.72" y2="744.13" style="stroke:#000000;stroke-width:6.48"/>
	<line x1="819.72" y1="744.13" x2="824.55" y2="748.59" style="stroke:#000000;stroke-width:6.48"/>
	<line x1="824.55" y1="748.59" x2="829.50" y2="753.04" style="stroke:#000000;stroke-width:6.48"/>
	<line x1="829.50" y1="753.04" x2="834.32" y2="757.37" style="stroke:#000000;stroke-width:6.48"/>
	<line x1="834.32" y1="757.37" x2="839.27" y2="761.83" style="stroke:#000000;stroke-width:6.48"/>
	<line x1="839.27" y1="761.83" x2="844.22" y2="766.28" style="stroke:#000000;stroke-width:6.48"/>
	<line x1="844.22" y1="766.28" x2="844.47" y2="766.53" style="stroke:#000000;stroke-width:6.48"/>
	<line x1="865.88" y1="785.96" x2="868.60" y2="788.56" style="stroke:#000000;stroke-width:6.48"/>
	<line x1="868.60" y1="788.56" x2="873.55" y2="793.01" style="stroke:#000000;stroke-width:6.48"/>
	<line x1="873.55" y1="793.01" x2="878.38" y2="797.47" style="stroke:#000000;stroke-width:6.48"/>
	<line x1="878.38" y1="797.47" x2="883.33" y2="801.93" style="stroke:#000000;stroke-width:6.48"/>
	<line x1="883.33" y1="801.93" x2="888.15" y2="806.38" style="stroke:#000000;stroke-width:6.48"/>
	<path d="" stroke-linejoin="round" style="fill:none;stroke:#000000;stroke-width:6.48"/>
	<circle cx="888.15" cy="793.63" r="16.46" style="fill:none;stroke:#000000;stroke-width:6.48"/>
	<line x1="356.40" y1="2148.00" x2="356.40" y2="138.98" style="stroke:#000000;stroke-width:4.32"/>
	<line x1="356.40" y1="2100.47" x2="326.45" y2="2100.47" style="stroke:#000000;stroke-width:4.32"/>
	<text x="288.92" y="2100.47" style="font-family:'Helvetica';font-size:74.99px;fill:#000000" transform="rotate(-90 288.92,2100.47)" text-anchor="middle">.59</text>
	<line x1="356.40" y1="1622.04" x2="326.45" y2="1622.04" style="stroke:#000000;stroke-width:4.32"/>
	<text x="288.92" y="1622.04" style="font-family:'Helvetica';font-size:74.99px;fill:#000000" transform="rotate(-90 288.92,1622.04)" text-anchor="middle">.6</text>
	<line x1="356.40" y1="1143.49" x2="326.45" y2="1143.49" style="stroke:#000000;stroke-width:4.32"/>
	<text x="288.92" y="1143.49" style="font-family:'Helvetica';font-size:74.99px;fill:#000000" transform="rotate(-90 288.92,1143.49)" text-anchor="middle">.61</text>
	<line x1="356.40" y1="665.05" x2="326.45" y2="665.05" style="stroke:#000000;stroke-width:4.32"/>
	<text x="288.92" y="665.05" style="font-family:'Helvetica';font-size:74.99px;fill:#000000" transform="rotate(-90 288.92,665.05)" text-anchor="middle">.62</text>
	<line x1="356.40" y1="186.50" x2="326.45" y2="186.50" style="stroke:#000000;stroke-width:4.32"/>
	<text x="288.92" y="186.50" style="font-family:'Helvetica';font-size:74.99px;fill:#000000" transform="rotate(-90 288.92,186.50)" text-anchor="middle">.63</text>
	<text x="206.38" y="1143.49" style="font-family:'Helvetica';font-size:74.99px;fill:#000000" transform="rotate(-90 206.38,1143.49)" text-anchor="middle">MR-Egger slope</text>
	<line x1="356.40" y1="2148.00" x2="1904.39" y2="2148.00" style="stroke:#000000;stroke-width:4.32"/>
	<line x1="403.92" y1="2148.00" x2="403.92" y2="2178.07" style="stroke:#000000;stroke-width:4.32"/>
	<text x="403.92" y="2245.48" style="font-family:'Helvetica';font-size:74.99px;fill:#000000" text-anchor="middle">-1</text>
	<line x1="888.28" y1="2148.00" x2="888.28" y2="2178.07" style="stroke:#000000;stroke-width:4.32"/>
	<text x="888.28" y="2245.48" style="font-family:'Helvetica';font-size:74.99px;fill:#000000" text-anchor="middle">0</text>
	<line x1="1372.51" y1="2148.00" x2="1372.51" y2="2178.07" style="stroke:#000000;stroke-width:4.32"/>
	<text x="1372.51" y="2245.48" style="font-family:'Helvetica';font-size:74.99px;fill:#000000" text-anchor="middle">1</text>
	<line x1="1856.87" y1="2148.00" x2="1856.87" y2="2178.07" style="stroke:#000000;stroke-width:4.32"/>
	<text x="1856.87" y="2245.48" style="font-family:'Helvetica';font-size:74.99px;fill:#000000" text-anchor="middle">2</text>
	<text x="1130.33" y="2328.02" style="font-family:'Helvetica';font-size:74.99px;fill:#000000" text-anchor="middle">λ</text>
	<rect x="1980.00" y="63.36" width="1916.52" height="2377.81" style="fill:#E1E6F0"/>
	<rect x="1982.16" y="65.52" width="1912.20" height="2373.49" style="fill:none;stroke:#E1E6F0;stroke-width:4.32"/>
	<rect x="2273.04" y="138.98" width="1547.87" height="2009.02" style="fill:#FFFFFF"/>
	<rect x="2275.20" y="141.14" width="1543.55" height="2004.70" style="fill:none;stroke:#FFFFFF;stroke-width:4.32"/>
	<line x1="2273.04" y1="2100.47" x2="3820.91" y2="2100.47" style="stroke:#E1E6F0;stroke-width:6.48"/>
	<line x1="2273.04" y1="1462.52" x2="3820.91" y2="1462.52" style="stroke:#E1E6F0;stroke-width:6.48"/>
	<line x1="2273.04" y1="824.45" x2="3820.91" y2="824.45" style="stroke:#E1E6F0;stroke-width:6.48"/>
	<circle cx="3773.39" cy="578.43" r="19.70" style="fill:#000000"/>
	<circle cx="3773.39" cy="578.43" r="16.46" style="fill:none;stroke:#000000;stroke-width:6.48"/>
	<circle cx="3531.21" cy="1080.25" r="19.70" style="fill:#000000"/>
	<circle cx="3531.21" cy="1080.25" r="16.46" style="fill:none;stroke:#000000;stroke-width:6.48"/>
	<circle cx="3289.03" cy="1234.57" r="19.70" style="fill:#000000"/>
	<circle cx="3289.03" cy="1234.57" r="16.46" style="fill:none;stroke:#000000;stroke-width:6.48"/>
	<circle cx="3046.85" cy="1540.36" r="19.70" style="fill:#000000"/>
	<circle cx="3046.85" cy="1540.36" r="16.46" style="fill:none;stroke:#000000;stroke-width:6.48"/>
	<path d=" M2804.79 1786.88 L2814.57 1778.71 L2824.35 1770.42 L2834.12 1762.13 L2843.90 1753.72 L2853.68 1745.30 L2863.45 1736.76 L2873.23 1728.10 L2883.00 1719.44 L2892.78 1710.65 L2902.56 1701.74 L2912.33 1692.83 L2922.11 1683.92 L2932.01 1674.88 L2941.79 1665.73 L2951.56 1656.45 L2961.34 1647.16 L2971.11 1637.88 L2980.89 1628.48 L2990.67 1618.95 L3000.44 1609.42 L3010.22 1599.77 L3020.00 1589.99 L3029.77 1580.21 L3039.55 1570.31 L3049.32 1560.41 L3059.10 1550.39 L3068.88 1540.24 L3078.65 1530.09 L3088.43 1519.82 L3098.33 1509.55 L3108.11 1499.15 L3117.88 1488.64 L3127.66 1478.12 L3137.43 1467.47 L3147.21 1456.83 L3156.99 1446.06 L3166.76 1435.30 L3176.54 1424.28 L3186.32 1413.39 L3196.09 1402.26 L3205.87 1391.12 L3215.64 1379.98 L3225.42 1368.72 L3235.20 1357.33 L3244.97 1345.95 L3254.87 1334.44 L3264.65 1322.81 L3274.43 1311.17 L3284.20 1299.42 L3293.98 1287.66 L3303.75 1275.78 L3313.53 1263.90 L3323.31 1251.89 L3333.08 1239.77 L3342.86 1227.64 L3352.64 1215.39 L3362.41 1203.01 L3372.19 1190.64 L3381.96 1178.14 L3391.74 1165.64 L3401.52 1153.01 L3411.29 1140.39 L3421.19 1127.65 L3430.97 1114.77 L3440.75 1101.90 L3450.52 1088.91 L3460.30 1075.79 L3470.07 1062.67 L3479.85 1049.56 L3489.63 1036.19 L3499.40 1022.95 L3509.18 1009.46 L3518.96 995.97 L3528.73 982.36 L3538.51 968.75 L3548.28 955.01 L3558.06 941.27 L3567.84 927.41 L3577.61 913.43 L3587.51 899.44 L3597.29 885.34 L3607.07 871.23 L3616.84 857.00 L3626.62 842.64 L3636.39 828.28 L3646.17 813.81 L3655.95 799.33 L3665.72 784.72 L3675.50 770.00 L3685.28 755.27 L3695.05 740.42 L3704.83 725.45 L3714.60 710.47 L3724.38 695.50 L3734.16 680.40 L3743.93 665.18 L3753.83 649.83 L3763.61 634.49 L3773.39 619.14" stroke-linejoin="round" style="fill:none;stroke:#000000;stroke-width:6.48"/>
	<line x1="2301.89" y1="2117.42" x2="2338.99" y2="2080.31" stroke-linecap="round" style="fill:none;stroke:#000000;stroke-width:6.48"/>
	<line x1="2338.99" y1="2117.42" x2="2301.89" y2="2080.31" stroke-linecap="round" style="fill:none;stroke:#000000;stroke-width:6.48"/>
	<line x1="2320.44" y1="2098.87" x2="2325.39" y2="2096.64" style="stroke:#000000;stroke-width:6.48"/>
	<line x1="2325.39" y1="2096.64" x2="2330.21" y2="2094.41" style="stroke:#000000;stroke-width:6.48"/>
	<line x1="2330.21" y1="2094.41" x2="2335.16" y2="2092.06" style="stroke:#000000;stroke-width:6.48"/>
	<line x1="2335.16" y1="2092.06" x2="2339.99" y2="2089.83" style="stroke:#000000;stroke-width:6.48"/>
	<line x1="2339.99" y1="2089.83" x2="2344.94" y2="2087.48" style="stroke:#000000;stroke-width:6.48"/>
	<line x1="2344.94" y1="2087.48" x2="2349.89" y2="2085.13" style="stroke:#000000;stroke-width:6.48"/>
	<line x1="2349.89" y1="2085.13" x2="2354.72" y2="2082.78" style="stroke:#000000;stroke-width:6.48"/>
	<line x1="2354.72" y1="2082.78" x2="2359.67" y2="2080.43" style="stroke:#000000;stroke-width:6.48"/>
	<line x1="2359.67" y1="2080.43" x2="2364.49" y2="2078.07" style="stroke:#000000;stroke-width:6.48"/>
	<line x1="2364.49" y1="2078.07" x2="2369.44" y2="2075.60" style="stroke:#000000;stroke-width:6.48"/>
	<line x1="2369.44" y1="2075.60" x2="2372.41" y2="2074.11" style="stroke:#000000;stroke-width:6.48"/>
	<line x1="2398.15" y1="2061.00" x2="2398.77" y2="2060.75" style="stroke:#000000;stroke-width:6.48"/>
	<line x1="2398.77" y1="2060.75" x2="2403.60" y2="2058.15" style="stroke:#000000;stroke-width:6.48"/>
	<line x1="2403.60" y1="2058.15" x2="2408.55" y2="2055.68" style="stroke:#000000;stroke-width:6.48"/>
	<line x1="2408.55" y1="2055.68" x2="2413.37" y2="2053.08" style="stroke:#000000;stroke-width:6.48"/>
	<line x1="2413.37" y1="2053.08" x2="2418.32" y2="2050.48" style="stroke:#000000;stroke-width:6.48"/>
	<line x1="2418.32" y1="2050.48" x2="2423.15" y2="2047.88" style="stroke:#000000;stroke-width:6.48"/>
	<line x1="2423.15" y1="2047.88" x2="2428.10" y2="2045.28" style="stroke:#000000;stroke-width:6.48"/>
	<line x1="2428.10" y1="2045.28" x2="2433.05" y2="2042.56" style="stroke:#000000;stroke-width:6.48"/>
	<line x1="2433.05" y1="2042.56" x2="2437.88" y2="2039.83" style="stroke:#000000;stroke-width:6.48"/>
	<line x1="2437.88" y1="2039.83" x2="2442.82" y2="2037.24" style="stroke:#000000;stroke-width:6.48"/>
	<line x1="2442.82" y1="2037.24" x2="2447.65" y2="2034.51" style="stroke:#000000;stroke-width:6.48"/>
	<line x1="2447.65" y1="2034.51" x2="2448.77" y2="2033.77" style="stroke:#000000;stroke-width:6.48"/>
	<line x1="2473.89" y1="2019.66" x2="2476.98" y2="2017.81" style="stroke:#000000;stroke-width:6.48"/>
	<line x1="2476.98" y1="2017.81" x2="2481.93" y2="2014.96" style="stroke:#000000;stroke-width:6.48"/>
	<line x1="2481.93" y1="2014.96" x2="2486.76" y2="2012.11" style="stroke:#000000;stroke-width:6.48"/>
	<line x1="2486.76" y1="2012.11" x2="2491.71" y2="2009.27" style="stroke:#000000;stroke-width:6.48"/>
	<line x1="2491.71" y1="2009.27" x2="2496.53" y2="2006.42" style="stroke:#000000;stroke-width:6.48"/>
	<line x1="2496.53" y1="2006.42" x2="2501.48" y2="2003.45" style="stroke:#000000;stroke-width:6.48"/>
	<line x1="2501.48" y1="2003.45" x2="2506.31" y2="2000.61" style="stroke:#000000;stroke-width:6.48"/>
	<line x1="2506.31" y1="2000.61" x2="2511.26" y2="1997.63" style="stroke:#000000;stroke-width:6.48"/>
	<line x1="2511.26" y1="1997.63" x2="2516.21" y2="1994.66" style="stroke:#000000;stroke-width:6.48"/>
	<line x1="2516.21" y1="1994.66" x2="2521.04" y2="1991.69" style="stroke:#000000;stroke-width:6.48"/>
	<line x1="2521.04" y1="1991.69" x2="2523.26" y2="1990.33" style="stroke:#000000;stroke-width:6.48"/>
	<line x1="2547.77" y1="1975.11" x2="2550.36" y2="1973.38" style="stroke:#000000;stroke-width:6.48"/>
	<line x1="2550.36" y1="1973.38" x2="2555.31" y2="1970.29" style="stroke:#000000;stroke-width:6.48"/>
	<line x1="2555.31" y1="1970.29" x2="2560.14" y2="1967.07" style="stroke:#000000;stroke-width:6.48"/>
	<line x1="2560.14" y1="1967.07" x2="2565.09" y2="1963.97" style="stroke:#000000;stroke-width:6.48"/>
	<line x1="2565.09" y1="1963.97" x2="2569.92" y2="1960.76" style="stroke:#000000;stroke-width:6.48"/>
	<line x1="2569.92" y1="1960.76" x2="2574.87" y2="1957.54" style="stroke:#000000;stroke-width:6.48"/>
	<line x1="2574.87" y1="1957.54" x2="2579.69" y2="1954.32" style="stroke:#000000;stroke-width:6.48"/>
	<line x1="2579.69" y1="1954.32" x2="2584.64" y2="1951.10" style="stroke:#000000;stroke-width:6.48"/>
	<line x1="2584.64" y1="1951.10" x2="2589.47" y2="1947.89" style="stroke:#000000;stroke-width:6.48"/>
	<line x1="2589.47" y1="1947.89" x2="2594.42" y2="1944.67" style="stroke:#000000;stroke-width:6.48"/>
	<line x1="2594.42" y1="1944.67" x2="2595.90" y2="1943.68" style="stroke:#000000;stroke-width:6.48"/>
	<line x1="2619.79" y1="1927.47" x2="2623.75" y2="1924.62" style="stroke:#000000;stroke-width:6.48"/>
	<line x1="2623.75" y1="1924.62" x2="2628.70" y2="1921.28" style="stroke:#000000;stroke-width:6.48"/>
	<line x1="2628.70" y1="1921.28" x2="2633.52" y2="1917.81" style="stroke:#000000;stroke-width:6.48"/>
	<line x1="2633.52" y1="1917.81" x2="2638.47" y2="1914.47" style="stroke:#000000;stroke-width:6.48"/>
	<line x1="2638.47" y1="1914.47" x2="2643.30" y2="1911.01" style="stroke:#000000;stroke-width:6.48"/>
	<line x1="2643.30" y1="1911.01" x2="2648.25" y2="1907.54" style="stroke:#000000;stroke-width:6.48"/>
	<line x1="2648.25" y1="1907.54" x2="2653.08" y2="1904.08" style="stroke:#000000;stroke-width:6.48"/>
	<line x1="2653.08" y1="1904.08" x2="2658.03" y2="1900.49" style="stroke:#000000;stroke-width:6.48"/>
	<line x1="2658.03" y1="1900.49" x2="2662.85" y2="1897.02" style="stroke:#000000;stroke-width:6.48"/>
	<line x1="2662.85" y1="1897.02" x2="2666.81" y2="1894.18" style="stroke:#000000;stroke-width:6.48"/>
	<line x1="2690.08" y1="1877.10" x2="2692.31" y2="1875.49" style="stroke:#000000;stroke-width:6.48"/>
	<line x1="2692.31" y1="1875.49" x2="2697.13" y2="1871.90" style="stroke:#000000;stroke-width:6.48"/>
	<line x1="2697.13" y1="1871.90" x2="2702.08" y2="1868.19" style="stroke:#000000;stroke-width:6.48"/>
	<line x1="2702.08" y1="1868.19" x2="2706.91" y2="1864.48" style="stroke:#000000;stroke-width:6.48"/>
	<line x1="2706.91" y1="1864.48" x2="2711.86" y2="1860.76" style="stroke:#000000;stroke-width:6.48"/>
	<line x1="2711.86" y1="1860.76" x2="2716.68" y2="1857.05" style="stroke:#000000;stroke-width:6.48"/>
	<line x1="2716.68" y1="1857.05" x2="2721.63" y2="1853.34" style="stroke:#000000;stroke-width:6.48"/>
	<line x1="2721.63" y1="1853.34" x2="2726.46" y2="1849.50" style="stroke:#000000;stroke-width:6.48"/>
	<line x1="2726.46" y1="1849.50" x2="2731.41" y2="1845.79" style="stroke:#000000;stroke-width:6.48"/>
	<line x1="2731.41" y1="1845.79" x2="2735.99" y2="1842.20" style="stroke:#000000;stroke-width:6.48"/>
	<line x1="2758.64" y1="1824.38" x2="2760.74" y2="1822.65" style="stroke:#000000;stroke-width:6.48"/>
	<line x1="2760.74" y1="1822.65" x2="2765.69" y2="1818.81" style="stroke:#000000;stroke-width:6.48"/>
	<line x1="2765.69" y1="1818.81" x2="2770.52" y2="1814.85" style="stroke:#000000;stroke-width:6.48"/>
	<line x1="2770.52" y1="1814.85" x2="2775.47" y2="1810.89" style="stroke:#000000;stroke-width:6.48"/>
	<line x1="2775.47" y1="1810.89" x2="2780.29" y2="1806.93" style="stroke:#000000;stroke-width:6.48"/>
	<line x1="2780.29" y1="1806.93" x2="2785.24" y2="1802.97" style="stroke:#000000;stroke-width:6.48"/>
	<line x1="2785.24" y1="1802.97" x2="2790.07" y2="1799.01" style="stroke:#000000;stroke-width:6.48"/>
	<line x1="2790.07" y1="1799.01" x2="2795.02" y2="1794.93" style="stroke:#000000;stroke-width:6.48"/>
	<line x1="2795.02" y1="1794.93" x2="2799.84" y2="1790.84" style="stroke:#000000;stroke-width:6.48"/>
	<line x1="2799.84" y1="1790.84" x2="2803.31" y2="1788.12" style="stroke:#000000;stroke-width:6.48"/>
	<path d="" stroke-linejoin="round" style="fill:none;stroke:#000000;stroke-width:6.48"/>
	<circle cx="2804.79" cy="1807.92" r="16.46" style="fill:none;stroke:#000000;stroke-width:6.48"/>
	<line x1="2273.04" y1="2148.00" x2="2273.04" y2="138.98" style="stroke:#000000;stroke-width:4.32"/>
	<line x1="2273.04" y1="2100.47" x2="2242.97" y2="2100.47" style="stroke:#000000;stroke-width:4.32"/>
	<text x="2205.44" y="2100.47" style="font-family:'Helvetica';font-size:74.99px;fill:#000000" transform="rotate(-90 2205.44,2100.47)" text-anchor="middle">-.009</text>
	<line x1="2273.04" y1="1462.52" x2="2242.97" y2="1462.52" style="stroke:#000000;stroke-width:4.32"/>
	<text x="2205.44" y="1462.52" style="font-family:'Helvetica';font-size:74.99px;fill:#000000" transform="rotate(-90 2205.44,1462.52)" text-anchor="middle">-.0085</text>
	<line x1="2273.04" y1="824.45" x2="2242.97" y2="824.45" style="stroke:#000000;stroke-width:4.32"/>
	<text x="2205.44" y="824.45" style="font-family:'Helvetica';font-size:74.99px;fill:#000000" transform="rotate(-90 2205.44,824.45)" text-anchor="middle">-.008</text>
	<line x1="2273.04" y1="186.50" x2="2242.97" y2="186.50" style="stroke:#000000;stroke-width:4.32"/>
	<text x="2205.44" y="186.50" style="font-family:'Helvetica';font-size:74.99px;fill:#000000" transform="rotate(-90 2205.44,186.50)" text-anchor="middle">-.0075</text>
	<text x="2123.02" y="1143.49" style="font-family:'Helvetica';font-size:74.99px;fill:#000000" transform="rotate(-90 2123.02,1143.49)" text-anchor="middle">MR-Egger intercept</text>
	<line x1="2273.04" y1="2148.00" x2="3820.91" y2="2148.00" style="stroke:#000000;stroke-width:4.32"/>
	<line x1="2320.56" y1="2148.00" x2="2320.56" y2="2178.07" style="stroke:#000000;stroke-width:4.32"/>
	<text x="2320.56" y="2245.48" style="font-family:'Helvetica';font-size:74.99px;fill:#000000" text-anchor="middle">-1</text>
	<line x1="2804.79" y1="2148.00" x2="2804.79" y2="2178.07" style="stroke:#000000;stroke-width:4.32"/>
	<text x="2804.79" y="2245.48" style="font-family:'Helvetica';font-size:74.99px;fill:#000000" text-anchor="middle">0</text>
	<line x1="3289.15" y1="2148.00" x2="3289.15" y2="2178.07" style="stroke:#000000;stroke-width:4.32"/>
	<text x="3289.15" y="2245.48" style="font-family:'Helvetica';font-size:74.99px;fill:#000000" text-anchor="middle">1</text>
	<line x1="3773.39" y1="2148.00" x2="3773.39" y2="2178.07" style="stroke:#000000;stroke-width:4.32"/>
	<text x="3773.39" y="2245.48" style="font-family:'Helvetica';font-size:74.99px;fill:#000000" text-anchor="middle">2</text>
	<text x="3046.97" y="2328.02" style="font-family:'Helvetica';font-size:74.99px;fill:#000000" text-anchor="middle">λ</text>
	<rect x="664.29" y="2475.70" width="2631.30" height="306.41" style="fill:#FFFFFF"/>
	<rect x="667.17" y="2478.58" width="2625.54" height="300.65" style="fill:none;stroke:#000000;stroke-width:5.76"/>
	<line x1="869.82" y1="2583.62" x2="919.35" y2="2534.09" stroke-linecap="round" style="fill:none;stroke:#000000;stroke-width:8.64"/>
	<line x1="919.35" y1="2583.62" x2="869.82" y2="2534.09" stroke-linecap="round" style="fill:none;stroke:#000000;stroke-width:8.64"/>
	<circle cx="1914.54" cy="2558.86" r="22.03" style="fill:none;stroke:#000000;stroke-width:8.64"/>
	<circle cx="2801.95" cy="2558.86" r="26.35" style="fill:#000000"/>
	<circle cx="2801.95" cy="2558.86" r="22.03" style="fill:none;stroke:#000000;stroke-width:8.64"/>
	<line x1="707.48" y1="2688.92" x2="1081.82" y2="2688.92" style="stroke:#000000;stroke-width:8.64"/>
	<line x1="1727.30" y1="2688.92" x2="1784.85" y2="2688.92" style="stroke:#000000;stroke-width:8.64"/>
	<line x1="1813.68" y1="2688.92" x2="1871.22" y2="2688.92" style="stroke:#000000;stroke-width:8.64"/>
	<line x1="1900.06" y1="2688.92" x2="1957.60" y2="2688.92" style="stroke:#000000;stroke-width:8.64"/>
	<line x1="1986.44" y1="2688.92" x2="2043.98" y2="2688.92" style="stroke:#000000;stroke-width:8.64"/>
	<line x1="2072.81" y1="2688.92" x2="2101.77" y2="2688.92" style="stroke:#000000;stroke-width:8.64"/>
	<text x="1141.84" y="2586.87" style="font-family:'Helvetica';font-size:79.94px;fill:#000000">SIMEX</text>
	<text x="2161.67" y="2586.87" style="font-family:'Helvetica';font-size:79.94px;fill:#000000">Original</text>
	<text x="2883.87" y="2586.87" style="font-family:'Helvetica';font-size:79.94px;fill:#000000">Simulated</text>
	<text x="1141.84" y="2716.94" style="font-family:'Helvetica';font-size:79.94px;fill:#000000">Quadratic fit</text>
	<text x="2161.67" y="2716.94" style="font-family:'Helvetica';font-size:79.94px;fill:#000000">Extrapolation</text>
</svg>
