<?xml version="1.0" encoding="UTF-8" standalone="no"?>
<!-- This is a Stata 17.0 generated SVG file (http://www.stata.com) -->

<svg version="1.1" width="600px" height="629px" viewBox="0 0 8242 8640" xmlns="http://www.w3.org/2000/svg" xmlns:xlink="http://www.w3.org/1999/xlink">
	<desc>Stata Graph - Graph</desc>
	<rect x="0" y="0" width="8242" height="8640" style="fill:#EAF2F3;stroke:none"/>
	<rect x="0.00" y="0.00" width="8242.00" height="8640.00" style="fill:#FFFFFF"/>
	<rect x="8.24" y="8.24" width="8225.52" height="8623.52" style="fill:none;stroke:#FFFFFF;stroke-width:16.48"/>
	<rect x="389.34" y="288.63" width="7549.18" height="7590.78" style="fill:#FFFFFF"/>
	<rect x="397.58" y="296.87" width="7532.70" height="7574.30" style="fill:none;stroke:#FFFFFF;stroke-width:16.48"/>
	<line x1="389.34" y1="857.79" x2="7938.52" y2="857.79" style="stroke:#C0C0C0;stroke-width:16.48"/>
	<line x1="3700.34" y1="7879.41" x2="3700.34" y2="857.79" style="stroke:#000000;stroke-width:16.48"/>
	<line x1="4624.82" y1="1300.59" x2="5503.94" y2="1300.59" style="stroke:#000000;stroke-width:24.73"/>
	<line x1="4722.29" y1="1553.85" x2="5470.73" y2="1553.85" style="stroke:#000000;stroke-width:24.73"/>
	<line x1="4552.46" y1="1806.84" x2="5511.50" y2="1806.84" style="stroke:#000000;stroke-width:24.73"/>
	<line x1="4649.12" y1="2059.83" x2="5510.15" y2="2059.83" style="stroke:#000000;stroke-width:24.73"/>
	<line x1="4731.47" y1="2312.82" x2="5587.37" y2="2312.82" style="stroke:#000000;stroke-width:24.73"/>
	<line x1="4617.26" y1="2565.81" x2="5528.51" y2="2565.81" style="stroke:#000000;stroke-width:24.73"/>
	<line x1="4578.11" y1="2818.80" x2="5447.78" y2="2818.80" style="stroke:#000000;stroke-width:24.73"/>
	<line x1="4608.62" y1="3072.06" x2="5500.97" y2="3072.06" style="stroke:#000000;stroke-width:24.73"/>
	<line x1="4620.23" y1="3325.05" x2="5491.25" y2="3325.05" style="stroke:#000000;stroke-width:24.73"/>
	<line x1="4564.88" y1="3578.04" x2="5442.38" y2="3578.04" style="stroke:#000000;stroke-width:24.73"/>
	<line x1="4619.96" y1="3831.03" x2="5483.69" y2="3831.03" style="stroke:#000000;stroke-width:24.73"/>
	<line x1="4587.56" y1="4084.02" x2="5272.28" y2="4084.02" style="stroke:#000000;stroke-width:24.73"/>
	<line x1="4605.38" y1="4337.01" x2="5514.20" y2="4337.01" style="stroke:#000000;stroke-width:24.73"/>
	<line x1="4663.70" y1="4590.00" x2="5512.85" y2="4590.00" style="stroke:#000000;stroke-width:24.73"/>
	<line x1="4605.92" y1="4843.26" x2="5479.37" y2="4843.26" style="stroke:#000000;stroke-width:24.73"/>
	<line x1="4582.70" y1="5096.25" x2="5483.69" y2="5096.25" style="stroke:#000000;stroke-width:24.73"/>
	<line x1="4588.91" y1="5349.24" x2="5430.50" y2="5349.24" style="stroke:#000000;stroke-width:24.73"/>
	<line x1="4607.00" y1="5602.23" x2="5458.85" y2="5602.23" style="stroke:#000000;stroke-width:24.73"/>
	<line x1="4659.38" y1="5855.22" x2="5515.55" y2="5855.22" style="stroke:#000000;stroke-width:24.73"/>
	<line x1="4666.40" y1="6108.21" x2="5559.83" y2="6108.21" style="stroke:#000000;stroke-width:24.73"/>
	<line x1="4615.91" y1="6361.47" x2="5490.44" y2="6361.47" style="stroke:#000000;stroke-width:24.73"/>
	<line x1="4632.11" y1="7120.44" x2="5473.70" y2="7120.44" style="stroke:#000000;stroke-width:24.73"/>
	<text x="509.49" y="1122.70" style="font-family:'Helvetica';font-weight:bold;font-size:214.38px;fill:#000000">Omitted genotype</text>
	<text x="509.49" y="1375.69" style="font-family:'Helvetica';font-size:214.38px;fill:#000000">rs1998013</text>
	<text x="509.49" y="1628.95" style="font-family:'Helvetica';font-size:214.38px;fill:#000000">rs4587594</text>
	<text x="509.49" y="1881.94" style="font-family:'Helvetica';font-size:214.38px;fill:#000000">rs646776</text>
	<text x="509.49" y="2134.93" style="font-family:'Helvetica';font-size:214.38px;fill:#000000">rs2587534</text>
	<text x="509.49" y="2387.92" style="font-family:'Helvetica';font-size:214.38px;fill:#000000">rs1367117</text>
	<text x="509.49" y="2640.91" style="font-family:'Helvetica';font-size:214.38px;fill:#000000">rs515135</text>
	<text x="509.49" y="2893.90" style="font-family:'Helvetica';font-size:214.38px;fill:#000000">rs6544713</text>
	<text x="509.49" y="3147.16" style="font-family:'Helvetica';font-size:214.38px;fill:#000000">rs7703051</text>
	<text x="509.49" y="3400.15" style="font-family:'Helvetica';font-size:214.38px;fill:#000000">rs6882076</text>
	<text x="509.49" y="3653.14" style="font-family:'Helvetica';font-size:214.38px;fill:#000000">rs4240624</text>
	<text x="509.49" y="3906.13" style="font-family:'Helvetica';font-size:214.38px;fill:#000000">rs2954022</text>
	<text x="509.49" y="4159.12" style="font-family:'Helvetica';font-size:214.38px;fill:#000000">rs579459</text>
	<text x="509.49" y="4412.11" style="font-family:'Helvetica';font-size:214.38px;fill:#000000">rs1535</text>
	<text x="509.49" y="4665.10" style="font-family:'Helvetica';font-size:214.38px;fill:#000000">rs10790162</text>
	<text x="509.49" y="4918.36" style="font-family:'Helvetica';font-size:214.38px;fill:#000000">rs2000999</text>
	<text x="509.49" y="5171.35" style="font-family:'Helvetica';font-size:214.38px;fill:#000000">rs6511720</text>
	<text x="509.49" y="5424.34" style="font-family:'Helvetica';font-size:214.38px;fill:#000000">rs688</text>
	<text x="509.49" y="5677.33" style="font-family:'Helvetica';font-size:214.38px;fill:#000000">rs10401969</text>
	<text x="509.49" y="5930.32" style="font-family:'Helvetica';font-size:214.38px;fill:#000000">rs6859</text>
	<text x="509.49" y="6183.31" style="font-family:'Helvetica';font-size:214.38px;fill:#000000">rs7254892</text>
	<text x="509.49" y="6436.57" style="font-family:'Helvetica';font-size:214.38px;fill:#000000">rs6065311</text>
	<text x="509.49" y="6942.55" style="font-family:'Helvetica';font-weight:bold;font-size:214.38px;fill:#000000">All genotypes</text>
	<text x="509.49" y="7195.54" style="font-family:'Helvetica';font-size:214.38px;fill:#000000">MVMR</text>
	<text x="509.49" y="616.72" style="font-family:'Helvetica';font-size:214.38px;fill:#000000">rsid</text>
	<text x="5707.52" y="1375.69" style="font-family:'Helvetica';font-size:214.38px;fill:#000000">0.47 (0.32, 0.62)</text>
	<text x="5707.52" y="1628.95" style="font-family:'Helvetica';font-size:214.38px;fill:#000000">0.48 (0.35, 0.61)</text>
	<text x="5707.52" y="1881.94" style="font-family:'Helvetica';font-size:214.38px;fill:#000000">0.46 (0.29, 0.63)</text>
	<text x="5707.52" y="2134.93" style="font-family:'Helvetica';font-size:214.38px;fill:#000000">0.48 (0.33, 0.63)</text>
	<text x="5707.52" y="2387.92" style="font-family:'Helvetica';font-size:214.38px;fill:#000000">0.50 (0.36, 0.65)</text>
	<text x="5707.52" y="2640.91" style="font-family:'Helvetica';font-size:214.38px;fill:#000000">0.47 (0.32, 0.63)</text>
	<text x="5707.52" y="2893.90" style="font-family:'Helvetica';font-size:214.38px;fill:#000000">0.45 (0.30, 0.60)</text>
	<text x="5707.52" y="3147.16" style="font-family:'Helvetica';font-size:214.38px;fill:#000000">0.47 (0.31, 0.62)</text>
	<text x="5707.52" y="3400.15" style="font-family:'Helvetica';font-size:214.38px;fill:#000000">0.47 (0.32, 0.62)</text>
	<text x="5707.52" y="3653.14" style="font-family:'Helvetica';font-size:214.38px;fill:#000000">0.45 (0.30, 0.60)</text>
	<text x="5707.52" y="3906.13" style="font-family:'Helvetica';font-size:214.38px;fill:#000000">0.47 (0.32, 0.62)</text>
	<text x="5707.52" y="4159.12" style="font-family:'Helvetica';font-size:214.38px;fill:#000000">0.42 (0.31, 0.54)</text>
	<text x="5707.52" y="4412.11" style="font-family:'Helvetica';font-size:214.38px;fill:#000000">0.47 (0.31, 0.63)</text>
	<text x="5707.52" y="4665.10" style="font-family:'Helvetica';font-size:214.38px;fill:#000000">0.48 (0.33, 0.63)</text>
	<text x="5707.52" y="4918.36" style="font-family:'Helvetica';font-size:214.38px;fill:#000000">0.46 (0.31, 0.61)</text>
	<text x="5707.52" y="5171.35" style="font-family:'Helvetica';font-size:214.38px;fill:#000000">0.46 (0.30, 0.62)</text>
	<text x="5707.52" y="5424.34" style="font-family:'Helvetica';font-size:214.38px;fill:#000000">0.45 (0.31, 0.60)</text>
	<text x="5707.52" y="5677.33" style="font-family:'Helvetica';font-size:214.38px;fill:#000000">0.46 (0.31, 0.61)</text>
	<text x="5707.52" y="5930.32" style="font-family:'Helvetica';font-size:214.38px;fill:#000000">0.48 (0.33, 0.63)</text>
	<text x="5707.52" y="6183.31" style="font-family:'Helvetica';font-size:214.38px;fill:#000000">0.49 (0.33, 0.64)</text>
	<text x="5707.52" y="6436.57" style="font-family:'Helvetica';font-size:214.38px;fill:#000000">0.47 (0.32, 0.62)</text>
	<text x="5707.52" y="7195.54" style="font-family:'Helvetica';font-size:214.38px;fill:#000000">0.47 (0.32, 0.61)</text>
	<text x="5707.52" y="616.72" style="font-family:'Helvetica';font-size:214.38px;fill:#000000">Estimate (95% CI)</text>
	<text x="5707.52" y="1375.69" style="font-family:'Helvetica';font-size:214.38px;fill:#000000">0.47 (0.32, 0.62)</text>
	<text x="5707.52" y="1628.95" style="font-family:'Helvetica';font-size:214.38px;fill:#000000">0.48 (0.35, 0.61)</text>
	<text x="5707.52" y="1881.94" style="font-family:'Helvetica';font-size:214.38px;fill:#000000">0.46 (0.29, 0.63)</text>
	<text x="5707.52" y="2134.93" style="font-family:'Helvetica';font-size:214.38px;fill:#000000">0.48 (0.33, 0.63)</text>
	<text x="5707.52" y="2387.92" style="font-family:'Helvetica';font-size:214.38px;fill:#000000">0.50 (0.36, 0.65)</text>
	<text x="5707.52" y="2640.91" style="font-family:'Helvetica';font-size:214.38px;fill:#000000">0.47 (0.32, 0.63)</text>
	<text x="5707.52" y="2893.90" style="font-family:'Helvetica';font-size:214.38px;fill:#000000">0.45 (0.30, 0.60)</text>
	<text x="5707.52" y="3147.16" style="font-family:'Helvetica';font-size:214.38px;fill:#000000">0.47 (0.31, 0.62)</text>
	<text x="5707.52" y="3400.15" style="font-family:'Helvetica';font-size:214.38px;fill:#000000">0.47 (0.32, 0.62)</text>
	<text x="5707.52" y="3653.14" style="font-family:'Helvetica';font-size:214.38px;fill:#000000">0.45 (0.30, 0.60)</text>
	<text x="5707.52" y="3906.13" style="font-family:'Helvetica';font-size:214.38px;fill:#000000">0.47 (0.32, 0.62)</text>
	<text x="5707.52" y="4159.12" style="font-family:'Helvetica';font-size:214.38px;fill:#000000">0.42 (0.31, 0.54)</text>
	<text x="5707.52" y="4412.11" style="font-family:'Helvetica';font-size:214.38px;fill:#000000">0.47 (0.31, 0.63)</text>
	<text x="5707.52" y="4665.10" style="font-family:'Helvetica';font-size:214.38px;fill:#000000">0.48 (0.33, 0.63)</text>
	<text x="5707.52" y="4918.36" style="font-family:'Helvetica';font-size:214.38px;fill:#000000">0.46 (0.31, 0.61)</text>
	<text x="5707.52" y="5171.35" style="font-family:'Helvetica';font-size:214.38px;fill:#000000">0.46 (0.30, 0.62)</text>
	<text x="5707.52" y="5424.34" style="font-family:'Helvetica';font-size:214.38px;fill:#000000">0.45 (0.31, 0.60)</text>
	<text x="5707.52" y="5677.33" style="font-family:'Helvetica';font-size:214.38px;fill:#000000">0.46 (0.31, 0.61)</text>
	<text x="5707.52" y="5930.32" style="font-family:'Helvetica';font-size:214.38px;fill:#000000">0.48 (0.33, 0.63)</text>
	<text x="5707.52" y="6183.31" style="font-family:'Helvetica';font-size:214.38px;fill:#000000">0.49 (0.33, 0.64)</text>
	<text x="5707.52" y="6436.57" style="font-family:'Helvetica';font-size:214.38px;fill:#000000">0.47 (0.32, 0.62)</text>
	<text x="5707.52" y="7195.54" style="font-family:'Helvetica';font-size:214.38px;fill:#000000">0.47 (0.32, 0.61)</text>
	<text x="5707.52" y="616.72" style="font-family:'Helvetica';font-size:214.38px;fill:#000000">Estimate (95% CI)</text>
	<polygon points="5016.38,1300.86 5064.11,1253.14 5111.83,1300.86 5064.11,1348.58" style="fill:#000000"/>
	<polygon points="5033.87,1300.86 5064.11,1270.62 5094.35,1300.86 5064.11,1331.10" style="fill:none;stroke:#000000;stroke-width:24.73"/>
	<polygon points="5048.78,1553.85 5096.51,1506.13 5144.23,1553.85 5096.51,1601.57" style="fill:#000000"/>
	<polygon points="5066.27,1553.85 5096.51,1523.61 5126.75,1553.85 5096.51,1584.09" style="fill:none;stroke:#000000;stroke-width:24.73"/>
	<polygon points="4983.98,1806.84 5031.71,1759.12 5079.43,1806.84 5031.71,1854.56" style="fill:#000000"/>
	<polygon points="5001.47,1806.84 5031.71,1776.60 5061.95,1806.84 5031.71,1837.08" style="fill:none;stroke:#000000;stroke-width:24.73"/>
	<polygon points="5031.77,2059.83 5079.50,2012.11 5127.22,2059.83 5079.50,2107.55" style="fill:#000000"/>
	<polygon points="5049.26,2059.83 5079.50,2029.59 5109.74,2059.83 5079.50,2090.07" style="fill:none;stroke:#000000;stroke-width:24.73"/>
	<polygon points="5111.69,2313.09 5159.42,2265.37 5207.14,2313.09 5159.42,2360.81" style="fill:#000000"/>
	<polygon points="5129.18,2313.09 5159.42,2282.85 5189.66,2313.09 5159.42,2343.33" style="fill:none;stroke:#000000;stroke-width:24.73"/>
	<polygon points="5025.02,2566.08 5072.75,2518.36 5120.47,2566.08 5072.75,2613.80" style="fill:#000000"/>
	<polygon points="5042.51,2566.08 5072.75,2535.84 5102.99,2566.08 5072.75,2596.32" style="fill:none;stroke:#000000;stroke-width:24.73"/>
	<polygon points="4965.08,2819.07 5012.81,2771.35 5060.53,2819.07 5012.81,2866.79" style="fill:#000000"/>
	<polygon points="4982.57,2819.07 5012.81,2788.83 5043.05,2819.07 5012.81,2849.31" style="fill:none;stroke:#000000;stroke-width:24.73"/>
	<polygon points="5006.93,3072.06 5054.66,3024.34 5102.38,3072.06 5054.66,3119.78" style="fill:#000000"/>
	<polygon points="5024.42,3072.06 5054.66,3041.82 5084.90,3072.06 5054.66,3102.30" style="fill:none;stroke:#000000;stroke-width:24.73"/>
	<polygon points="5007.74,3325.05 5055.47,3277.33 5103.19,3325.05 5055.47,3372.77" style="fill:#000000"/>
	<polygon points="5025.23,3325.05 5055.47,3294.81 5085.71,3325.05 5055.47,3355.29" style="fill:none;stroke:#000000;stroke-width:24.73"/>
	<polygon points="4955.63,3578.04 5003.36,3530.32 5051.08,3578.04 5003.36,3625.76" style="fill:#000000"/>
	<polygon points="4973.12,3578.04 5003.36,3547.80 5033.60,3578.04 5003.36,3608.28" style="fill:none;stroke:#000000;stroke-width:24.73"/>
	<polygon points="5003.96,3831.03 5051.69,3783.31 5099.41,3831.03 5051.69,3878.75" style="fill:#000000"/>
	<polygon points="5021.45,3831.03 5051.69,3800.79 5081.93,3831.03 5051.69,3861.27" style="fill:none;stroke:#000000;stroke-width:24.73"/>
	<polygon points="4882.19,4084.29 4929.92,4036.57 4977.64,4084.29 4929.92,4132.01" style="fill:#000000"/>
	<polygon points="4899.68,4084.29 4929.92,4054.05 4960.16,4084.29 4929.92,4114.53" style="fill:none;stroke:#000000;stroke-width:24.73"/>
	<polygon points="5011.79,4337.28 5059.52,4289.56 5107.24,4337.28 5059.52,4385.00" style="fill:#000000"/>
	<polygon points="5029.28,4337.28 5059.52,4307.04 5089.76,4337.28 5059.52,4367.52" style="fill:none;stroke:#000000;stroke-width:24.73"/>
	<polygon points="5040.41,4590.27 5088.14,4542.55 5135.86,4590.27 5088.14,4637.99" style="fill:#000000"/>
	<polygon points="5057.90,4590.27 5088.14,4560.03 5118.38,4590.27 5088.14,4620.51" style="fill:none;stroke:#000000;stroke-width:24.73"/>
	<polygon points="4994.78,4843.26 5042.51,4795.54 5090.23,4843.26 5042.51,4890.98" style="fill:#000000"/>
	<polygon points="5012.27,4843.26 5042.51,4813.02 5072.75,4843.26 5042.51,4873.50" style="fill:none;stroke:#000000;stroke-width:24.73"/>
	<polygon points="4985.33,5096.25 5033.06,5048.53 5080.78,5096.25 5033.06,5143.97" style="fill:#000000"/>
	<polygon points="5002.82,5096.25 5033.06,5066.01 5063.30,5096.25 5033.06,5126.49" style="fill:none;stroke:#000000;stroke-width:24.73"/>
	<polygon points="4961.84,5349.24 5009.57,5301.52 5057.29,5349.24 5009.57,5396.96" style="fill:#000000"/>
	<polygon points="4979.33,5349.24 5009.57,5319.00 5039.81,5349.24 5009.57,5379.48" style="fill:none;stroke:#000000;stroke-width:24.73"/>
	<polygon points="4985.06,5602.50 5032.79,5554.78 5080.51,5602.50 5032.79,5650.22" style="fill:#000000"/>
	<polygon points="5002.55,5602.50 5032.79,5572.26 5063.03,5602.50 5032.79,5632.74" style="fill:none;stroke:#000000;stroke-width:24.73"/>
	<polygon points="5039.60,5855.49 5087.33,5807.77 5135.05,5855.49 5087.33,5903.21" style="fill:#000000"/>
	<polygon points="5057.09,5855.49 5087.33,5825.25 5117.57,5855.49 5087.33,5885.73" style="fill:none;stroke:#000000;stroke-width:24.73"/>
	<polygon points="5065.25,6108.48 5112.98,6060.76 5160.70,6108.48 5112.98,6156.20" style="fill:#000000"/>
	<polygon points="5082.74,6108.48 5112.98,6078.24 5143.22,6108.48 5112.98,6138.72" style="fill:none;stroke:#000000;stroke-width:24.73"/>
	<polygon points="5005.31,6361.47 5053.04,6313.75 5100.76,6361.47 5053.04,6409.19" style="fill:#000000"/>
	<polygon points="5022.80,6361.47 5053.04,6331.23 5083.28,6361.47 5053.04,6391.71" style="fill:none;stroke:#000000;stroke-width:24.73"/>
	<polygon points="5005.04,7120.44 5052.77,7072.72 5100.49,7120.44 5052.77,7168.16" style="fill:#000000"/>
	<polygon points="5022.53,7120.44 5052.77,7090.20 5083.01,7120.44 5052.77,7150.68" style="fill:none;stroke:#000000;stroke-width:24.73"/>
	<line x1="389.34" y1="7879.41" x2="7938.52" y2="7879.41" style="stroke:#000000;stroke-width:16.48"/>
	<text x="2756.69" y="8086.58" style="font-family:'Helvetica';font-size:214.38px;fill:#000000" text-anchor="middle"> </text>
	<text x="4643.99" y="8086.58" style="font-family:'Helvetica';font-size:214.38px;fill:#000000" text-anchor="middle"> </text>
	<line x1="3700.34" y1="7879.41" x2="3700.34" y2="7993.89" style="stroke:#000000;stroke-width:16.48"/>
	<text x="3700.34" y="8201.06" style="font-family:'Helvetica';font-size:214.38px;fill:#000000" text-anchor="middle">0</text>
	<line x1="1813.05" y1="7879.41" x2="1813.05" y2="7993.89" style="stroke:#000000;stroke-width:16.48"/>
	<text x="1813.05" y="8201.06" style="font-family:'Helvetica';font-size:214.38px;fill:#000000" text-anchor="middle">-.652</text>
	<line x1="3700.34" y1="7879.41" x2="3700.34" y2="7993.89" style="stroke:#000000;stroke-width:16.48"/>
	<text x="3700.34" y="8201.06" style="font-family:'Helvetica';font-size:214.38px;fill:#000000" text-anchor="middle">0</text>
	<line x1="5587.37" y1="7879.41" x2="5587.37" y2="7993.89" style="stroke:#000000;stroke-width:16.48"/>
	<text x="5587.37" y="8201.06" style="font-family:'Helvetica';font-size:214.38px;fill:#000000" text-anchor="middle">.652</text>
	<line x1="3700.34" y1="7879.41" x2="3700.34" y2="7993.89" style="stroke:#000000;stroke-width:16.48"/>
</svg>
