<?xml version="1.0" encoding="UTF-8" standalone="no"?>
<!-- This is a Stata 15.1 generated SVG file (http://www.stata.com) -->

<svg version="1.1" width="600px" height="436px" viewBox="0 0 3960 2880" xmlns="http://www.w3.org/2000/svg" xmlns:xlink="http://www.w3.org/1999/xlink">
	<desc>Stata Graph - Graph</desc>
	<rect x="0" y="0" width="3960" height="2880" style="fill:#EAF2F3;stroke:none"/>
	<rect x="0.00" y="0.00" width="3959.88" height="2880.00" style="fill:#EAF2F3"/>
	<rect x="2.88" y="2.88" width="3954.12" height="2874.24" style="fill:none;stroke:#EAF2F3;stroke-width:5.76"/>
	<rect x="390.80" y="100.86" width="3468.22" height="2132.77" style="fill:#FFFFFF"/>
	<rect x="393.68" y="103.74" width="3462.46" height="2127.01" style="fill:none;stroke:#FFFFFF;stroke-width:5.76"/>
	<line x1="390.80" y1="2170.27" x2="3859.02" y2="2170.27" style="stroke:#EAF2F3;stroke-width:8.64"/>
	<line x1="390.80" y1="1501.63" x2="3859.02" y2="1501.63" style="stroke:#EAF2F3;stroke-width:8.64"/>
	<line x1="390.80" y1="832.86" x2="3859.02" y2="832.86" style="stroke:#EAF2F3;stroke-width:8.64"/>
	<line x1="390.80" y1="164.22" x2="3859.02" y2="164.22" style="stroke:#EAF2F3;stroke-width:8.64"/>
	<path d=" M644.74 2169.53 L649.81 2168.79 L654.88 2167.43 L659.96 2165.20 L665.03 2161.61 L670.11 2156.66 L675.18 2149.98 L680.25 2141.68 L685.33 2132.16 L690.40 2122.38 L695.48 2113.47 L700.55 2106.54 L705.62 2102.70 L710.70 2102.45 L715.77 2106.04 L720.84 2112.85 L725.92 2121.64 L730.99 2131.41 L736.07 2140.94 L741.14 2149.36 L746.21 2156.16 L751.29 2161.36 L756.36 2164.95 L761.43 2167.30 L766.51 2168.66 L771.58 2169.53 L776.65 2170.02 L781.73 2170.15 L786.80 2170.27 L791.75 2170.40 L796.83 2170.40 L801.90 2170.40 L806.97 2170.40 L812.05 2170.40 L817.12 2170.40 L822.20 2170.40 L827.27 2170.40 L832.34 2170.40 L837.42 2170.40 L842.49 2170.40 L847.56 2170.40 L852.64 2170.40 L857.71 2170.40 L862.78 2170.40 L867.86 2170.40 L872.93 2170.40 L878.01 2170.40 L883.08 2170.40 L888.15 2170.40 L893.23 2170.40 L898.30 2170.40 L903.38 2170.40 L908.45 2170.40 L913.52 2170.40 L918.60 2170.40 L923.67 2170.40 L928.74 2170.40 L933.82 2170.40 L938.89 2170.40 L943.97 2170.40 L949.04 2170.40 L953.99 2170.40 L959.06 2170.40 L964.14 2170.40 L969.21 2170.40 L974.28 2170.40 L979.36 2170.40 L984.43 2170.40 L989.50 2170.40 L994.58 2170.40 L999.65 2170.40 L1004.73 2170.40 L1009.80 2170.40 L1014.87 2170.40 L1019.95 2170.40 L1025.02 2170.40 L1030.10 2170.40 L1035.17 2170.40 L1040.24 2170.40 L1045.32 2170.27 L1050.39 2170.15 L1055.46 2169.90 L1060.54 2169.41 L1065.61 2168.54 L1070.68 2166.93 L1075.76 2164.33 L1080.83 2160.50 L1085.91 2155.05 L1090.98 2147.87 L1096.05 2139.09 L1101.13 2129.43 L1106.20 2119.78 L1111.28 2111.12 L1116.35 2104.93 L1121.30 2102.08 L1126.37 2103.07 L1131.45 2107.65 L1136.52 2115.08 L1141.59 2124.36 L1146.67 2134.26 L1151.74 2143.54 L1156.82 2151.46 L1161.89 2157.90 L1166.96 2162.48 L1172.04 2165.69 L1177.11 2167.80 L1182.18 2169.03 L1187.26 2169.65 L1192.33 2170.02 L1197.40 2170.27 L1202.48 2170.27 L1207.55 2170.40 L1212.63 2170.40 L1217.70 2170.40 L1222.77 2170.40 L1227.85 2170.40 L1232.92 2170.40 L1237.99 2170.40 L1243.07 2170.40 L1248.14 2170.40 L1253.22 2170.40 L1258.29 2170.40 L1263.36 2170.40 L1268.44 2170.40 L1273.51 2170.40 L1278.59 2170.40 L1283.54 2170.40 L1288.61 2170.40 L1293.68 2170.40 L1298.76 2170.40 L1303.83 2170.40 L1308.90 2170.40 L1313.98 2170.40 L1319.05 2170.40 L1324.13 2170.27 L1329.20 2170.27 L1334.27 2170.02 L1339.35 2169.65 L1344.42 2168.91 L1349.49 2167.55 L1354.57 2165.32 L1359.64 2161.86 L1364.71 2156.91 L1369.79 2150.10 L1374.86 2141.44 L1379.94 2131.04 L1385.01 2119.66 L1390.08 2108.02 L1395.16 2096.76 L1400.23 2086.86 L1405.31 2078.45 L1410.38 2071.76 L1415.45 2066.32 L1420.53 2061.86 L1425.60 2057.78 L1430.67 2053.82 L1435.75 2049.98 L1440.82 2046.39 L1445.89 2043.18 L1450.85 2040.58 L1455.92 2038.72 L1460.99 2037.85 L1466.07 2038.23 L1471.14 2040.21 L1476.21 2044.04 L1481.29 2050.11 L1486.36 2058.52 L1491.43 2069.16 L1496.51 2081.79 L1501.58 2095.65 L1506.66 2109.88 L1511.73 2123.49 L1516.80 2135.74 L1521.88 2146.02 L1526.95 2154.06 L1532.03 2160.00 L1537.10 2164.08 L1542.17 2166.81 L1547.25 2168.42 L1552.32 2169.41 L1557.39 2169.90 L1562.47 2170.15 L1567.54 2170.27 L1572.62 2170.40 L1577.69 2170.40 L1582.76 2170.27 L1587.84 2170.15 L1592.91 2170.02 L1597.98 2169.41 L1603.06 2168.54 L1608.13 2166.68 L1613.20 2163.47 L1618.15 2158.02 L1623.23 2149.23 L1628.30 2136.24 L1633.38 2117.43 L1638.45 2091.81 L1643.52 2058.52 L1648.60 2017.44 L1653.67 1969.17 L1658.74 1914.72 L1663.82 1856.06 L1668.89 1795.30 L1673.97 1734.29 L1679.04 1674.88 L1684.11 1618.58 L1689.19 1566.72 L1694.26 1520.69 L1699.34 1481.83 L1704.41 1451.76 L1709.48 1431.58 L1714.56 1422.06 L1719.63 1422.55 L1724.70 1431.71 L1729.78 1446.68 L1734.85 1464.26 L1739.92 1481.83 L1745.00 1496.93 L1750.07 1508.93 L1755.15 1517.84 L1760.22 1524.40 L1765.29 1529.23 L1770.37 1532.57 L1775.44 1533.56 L1780.39 1530.71 L1785.46 1522.05 L1790.54 1505.47 L1795.61 1479.60 L1800.69 1443.71 L1805.76 1398.67 L1810.83 1346.07 L1815.91 1288.90 L1820.98 1230.98 L1826.06 1176.65 L1831.13 1129.87 L1836.20 1093.61 L1841.28 1068.86 L1846.35 1055.00 L1851.42 1049.06 L1856.50 1046.83 L1861.57 1043.99 L1866.64 1037.30 L1871.72 1025.18 L1876.79 1007.98 L1881.87 987.43 L1886.94 966.39 L1892.01 947.09 L1897.09 931.50 L1902.16 921.35 L1907.23 918.13 L1912.31 923.70 L1917.38 940.03 L1922.46 968.13 L1927.53 1006.49 L1932.60 1051.04 L1937.68 1094.85 L1942.75 1129.13 L1947.70 1146.33 L1952.78 1141.01 L1957.85 1112.79 L1962.92 1065.89 L1968.00 1008.10 L1973.07 949.69 L1978.14 899.94 L1983.22 865.78 L1988.29 849.57 L1993.37 849.08 L1998.44 857.61 L2003.51 866.15 L2008.59 864.79 L2013.66 846.48 L2018.73 808.11 L2023.81 751.43 L2028.88 683.25 L2033.95 612.21 L2039.03 547.49 L2044.10 495.14 L2049.18 457.77 L2054.25 433.88 L2059.32 419.40 L2064.40 409.38 L2069.47 399.97 L2074.55 389.58 L2079.62 378.32 L2084.69 368.66 L2089.77 363.47 L2094.84 365.57 L2099.91 376.21 L2104.99 395.02 L2110.06 419.77 L2115.01 446.26 L2120.09 469.52 L2125.16 484.62 L2130.23 488.09 L2135.31 478.93 L2140.38 458.88 L2145.45 432.27 L2150.53 404.30 L2155.60 379.80 L2160.68 361.73 L2165.75 350.59 L2170.82 344.04 L2175.90 338.84 L2180.97 331.41 L2186.04 319.66 L2191.12 303.20 L2196.19 283.27 L2201.26 262.85 L2206.34 245.53 L2211.41 234.88 L2216.49 234.02 L2221.56 244.91 L2226.63 267.68 L2231.71 300.23 L2236.78 338.84 L2241.86 378.56 L2246.93 414.70 L2252.00 444.15 L2257.08 466.43 L2262.15 483.38 L2267.22 499.47 L2272.30 519.77 L2277.25 548.97 L2282.32 589.56 L2287.39 641.29 L2292.47 701.44 L2297.54 765.05 L2302.62 825.93 L2307.69 878.03 L2312.76 916.27 L2317.84 937.19 L2322.91 939.79 L2327.99 925.06 L2333.06 896.47 L2338.13 858.98 L2343.21 818.14 L2348.28 779.03 L2353.35 745.74 L2358.43 720.50 L2363.50 704.04 L2368.57 696.24 L2373.65 695.99 L2378.72 702.30 L2383.80 714.68 L2388.87 732.50 L2393.94 754.77 L2399.02 780.14 L2404.09 806.75 L2409.16 832.12 L2414.24 854.40 L2419.31 872.09 L2424.39 885.21 L2429.46 894.12 L2434.53 899.69 L2439.61 902.78 L2444.56 904.27 L2449.63 905.01 L2454.70 906.00 L2459.78 908.85 L2464.85 915.28 L2469.93 926.79 L2475.00 944.12 L2480.07 967.51 L2485.15 995.85 L2490.22 1027.53 L2495.30 1060.82 L2500.37 1094.23 L2505.44 1126.53 L2510.52 1156.73 L2515.59 1184.45 L2520.66 1209.08 L2525.74 1229.49 L2530.81 1244.35 L2535.89 1252.02 L2540.96 1251.15 L2546.03 1241.25 L2551.11 1223.68 L2556.18 1201.65 L2561.25 1179.99 L2566.33 1164.40 L2571.40 1160.19 L2576.47 1170.46 L2581.55 1195.59 L2586.62 1233.33 L2591.70 1279.00 L2596.77 1327.01 L2601.84 1372.43 L2606.79 1411.78 L2611.87 1443.59 L2616.94 1468.09 L2622.01 1486.66 L2627.09 1501.51 L2632.16 1514.25 L2637.24 1526.88 L2642.31 1540.12 L2647.38 1554.97 L2652.46 1571.55 L2657.53 1589.87 L2662.61 1610.04 L2667.68 1631.94 L2672.75 1656.07 L2677.83 1683.05 L2682.90 1713.62 L2687.97 1748.27 L2693.05 1787.01 L2698.12 1828.59 L2703.20 1871.65 L2708.27 1914.10 L2713.34 1954.20 L2718.42 1990.46 L2723.49 2022.26 L2728.56 2049.12 L2733.64 2070.90 L2738.71 2087.23 L2743.78 2097.38 L2748.86 2100.47 L2753.93 2095.77 L2759.01 2082.90 L2764.08 2062.48 L2769.15 2036.00 L2774.10 2006.05 L2779.18 1975.73 L2784.25 1948.26 L2789.32 1926.11 L2794.40 1910.39 L2799.47 1901.23 L2804.55 1896.78 L2809.62 1895.04 L2814.69 1893.68 L2819.77 1891.08 L2824.84 1886.50 L2829.91 1880.56 L2834.99 1874.00 L2840.06 1868.19 L2845.14 1863.98 L2850.21 1862.00 L2855.28 1862.00 L2860.36 1863.49 L2865.43 1865.84 L2870.51 1868.93 L2875.58 1873.26 L2880.65 1879.70 L2885.73 1889.23 L2890.80 1902.72 L2895.87 1920.29 L2900.95 1941.33 L2906.02 1964.59 L2911.09 1988.85 L2916.17 2012.61 L2921.24 2035.38 L2926.32 2056.67 L2931.39 2076.34 L2936.46 2094.41 L2941.41 2110.62 L2946.49 2124.61 L2951.56 2135.74 L2956.64 2143.79 L2961.71 2147.87 L2966.78 2147.62 L2971.86 2142.06 L2976.93 2130.79 L2982.00 2113.10 L2987.08 2088.97 L2992.15 2059.14 L2997.22 2025.36 L3002.30 1990.46 L3007.37 1958.03 L3012.45 1932.17 L3017.52 1916.08 L3022.59 1912.24 L3027.67 1921.28 L3032.74 1941.70 L3037.82 1970.78 L3042.89 2004.69 L3047.96 2039.71 L3053.04 2072.38 L3058.11 2100.60 L3063.18 2123.25 L3068.26 2140.08 L3073.33 2151.96 L3078.41 2159.75 L3083.48 2164.58 L3088.55 2167.30 L3093.63 2168.79 L3098.70 2169.53 L3103.65 2169.65 L3108.72 2169.41 L3113.80 2168.66 L3118.87 2167.30 L3123.95 2164.95 L3129.02 2161.36 L3134.09 2156.16 L3139.17 2149.36 L3144.24 2140.94 L3149.31 2131.41 L3154.39 2121.64 L3159.46 2112.85 L3164.53 2106.04 L3169.61 2102.45 L3174.68 2102.70 L3179.76 2106.54 L3184.83 2113.47 L3189.90 2122.38 L3194.98 2132.16 L3200.05 2141.68 L3205.13 2149.98 L3210.20 2156.66 L3215.27 2161.61 L3220.35 2165.20 L3225.42 2167.43 L3230.49 2168.79 L3235.57 2169.53" stroke-linecap="round" stroke-linejoin="round" style="fill:none;stroke:#A0A0A0;stroke-width:8.64"/>
	<path d=" M581.25 2170.02 L586.58 2169.78 L591.90 2169.65 L597.22 2169.28 L602.54 2168.91 L607.86 2168.29 L613.18 2167.67 L618.50 2166.81 L623.82 2165.69 L629.02 2164.46 L634.34 2162.85 L639.66 2161.11 L644.99 2159.13 L650.31 2156.91 L655.63 2154.55 L660.95 2151.96 L666.27 2149.36 L671.59 2146.76 L676.91 2144.28 L682.23 2141.93 L687.55 2139.95 L692.88 2138.22 L698.20 2136.98 L703.52 2136.24 L708.84 2135.99 L714.16 2136.36 L719.48 2137.23 L724.80 2138.47 L730.13 2140.32 L735.45 2142.43 L740.77 2144.78 L746.09 2147.25 L751.41 2149.85 L756.73 2152.45 L762.05 2154.93 L767.37 2157.40 L772.70 2159.50 L778.02 2161.49 L783.34 2163.22 L788.66 2164.70 L793.98 2165.94 L799.30 2166.93 L804.62 2167.80 L809.94 2168.42 L815.26 2168.91 L820.59 2169.41 L825.91 2169.65 L831.23 2169.90 L836.55 2170.02 L841.87 2170.15 L847.19 2170.27 L852.51 2170.27 L857.84 2170.27 L863.16 2170.40 L868.48 2170.40 L873.80 2170.40 L879.12 2170.40 L884.44 2170.40 L889.76 2170.40 L894.96 2170.40 L900.28 2170.40 L905.60 2170.40 L910.92 2170.40 L916.25 2170.40 L921.57 2170.40 L926.89 2170.40 L932.21 2170.40 L937.53 2170.40 L942.85 2170.40 L948.17 2170.40 L953.49 2170.40 L958.82 2170.40 L964.14 2170.40 L969.46 2170.40 L974.78 2170.27 L980.10 2170.27 L985.42 2170.15 L990.74 2170.15 L996.06 2170.02 L1001.38 2169.78 L1006.71 2169.53 L1012.03 2169.28 L1017.35 2168.79 L1022.67 2168.29 L1027.99 2167.55 L1033.31 2166.68 L1038.63 2165.57 L1043.95 2164.21 L1049.28 2162.72 L1054.60 2160.87 L1059.92 2158.89 L1065.24 2156.66 L1070.56 2154.18 L1075.88 2151.71 L1081.20 2149.11 L1086.53 2146.51 L1091.85 2144.04 L1097.17 2141.68 L1102.49 2139.70 L1107.81 2138.10 L1113.13 2136.86 L1118.45 2136.24 L1123.77 2136.12 L1129.10 2136.49 L1134.42 2137.35 L1139.74 2138.71 L1145.06 2140.45 L1150.38 2142.67 L1155.70 2145.03 L1160.90 2147.50 L1166.22 2150.10 L1171.54 2152.70 L1176.86 2155.17 L1182.18 2157.52 L1187.51 2159.75 L1192.83 2161.61 L1198.15 2163.34 L1203.47 2164.83 L1208.79 2166.06 L1214.11 2167.05 L1219.43 2167.80 L1224.75 2168.54 L1230.08 2169.03 L1235.40 2169.41 L1240.72 2169.65 L1246.04 2169.90 L1251.36 2170.02 L1256.68 2170.02 L1262.00 2170.15 L1267.32 2170.02 L1272.64 2170.02 L1277.97 2169.90 L1283.29 2169.65 L1288.61 2169.41 L1293.93 2169.03 L1299.25 2168.54 L1304.57 2167.80 L1309.89 2166.93 L1315.21 2165.82 L1320.54 2164.33 L1325.86 2162.60 L1331.18 2160.50 L1336.50 2158.02 L1341.82 2155.05 L1347.14 2151.58 L1352.46 2147.75 L1357.79 2143.42 L1363.11 2138.59 L1368.43 2133.52 L1373.75 2127.95 L1379.07 2122.13 L1384.39 2116.19 L1389.71 2110.00 L1395.03 2103.94 L1400.36 2097.88 L1405.68 2092.06 L1411.00 2086.61 L1416.32 2081.54 L1421.52 2076.96 L1426.84 2073.00 L1432.16 2069.66 L1437.48 2067.06 L1442.80 2065.33 L1448.12 2064.46 L1453.44 2064.46 L1458.77 2065.33 L1464.09 2067.18 L1469.41 2069.91 L1474.73 2073.37 L1480.05 2077.70 L1485.37 2082.65 L1490.69 2088.10 L1496.01 2094.16 L1501.34 2100.47 L1506.66 2106.91 L1511.98 2113.47 L1517.30 2119.78 L1522.62 2125.97 L1527.94 2131.78 L1533.26 2137.11 L1538.58 2141.81 L1543.90 2145.89 L1549.23 2149.23 L1554.55 2151.71 L1559.87 2153.44 L1565.19 2154.06 L1570.51 2153.56 L1575.83 2151.96 L1581.15 2148.99 L1586.47 2144.53 L1591.80 2138.34 L1597.12 2130.30 L1602.44 2120.28 L1607.76 2107.90 L1613.08 2093.17 L1618.40 2075.85 L1623.72 2055.80 L1629.05 2033.03 L1634.37 2007.66 L1639.69 1979.81 L1645.01 1949.49 L1650.33 1917.32 L1655.65 1883.41 L1660.97 1848.51 L1666.29 1812.87 L1671.62 1777.23 L1676.94 1742.21 L1682.26 1708.42 L1687.45 1676.12 L1692.78 1646.17 L1698.10 1618.70 L1703.42 1593.95 L1708.74 1572.29 L1714.06 1553.61 L1719.38 1537.64 L1724.70 1524.52 L1730.03 1513.51 L1735.35 1504.48 L1740.67 1496.68 L1745.99 1489.75 L1751.31 1483.07 L1756.63 1475.89 L1761.95 1467.84 L1767.27 1458.44 L1772.60 1447.30 L1777.92 1434.18 L1783.24 1418.84 L1788.56 1401.14 L1793.88 1381.34 L1799.20 1359.56 L1804.52 1335.92 L1809.84 1310.92 L1815.16 1284.81 L1820.49 1258.21 L1825.81 1231.47 L1831.13 1205.12 L1836.45 1179.37 L1841.77 1154.75 L1847.09 1131.61 L1852.41 1110.07 L1857.73 1090.40 L1863.06 1072.70 L1868.38 1057.11 L1873.70 1043.74 L1879.02 1032.48 L1884.34 1023.32 L1889.66 1016.14 L1894.98 1010.82 L1900.31 1007.11 L1905.63 1004.88 L1910.95 1003.64 L1916.27 1003.03 L1921.59 1002.78 L1926.91 1002.16 L1932.23 1000.92 L1937.55 998.69 L1942.88 994.86 L1948.07 989.29 L1953.39 981.62 L1958.71 971.72 L1964.04 959.59 L1969.36 944.98 L1974.68 928.15 L1980.00 909.10 L1985.32 888.06 L1990.64 865.04 L1995.96 840.41 L2001.29 814.30 L2006.61 786.95 L2011.93 758.61 L2017.25 729.65 L2022.57 700.32 L2027.89 671.12 L2033.21 642.16 L2038.53 613.94 L2043.86 586.96 L2049.18 561.47 L2054.50 537.83 L2059.82 516.30 L2065.14 497.00 L2070.46 480.17 L2075.78 465.81 L2081.10 453.93 L2086.43 444.03 L2091.75 436.23 L2097.07 430.04 L2102.39 425.22 L2107.71 421.26 L2113.03 417.79 L2118.35 414.58 L2123.67 411.23 L2128.99 407.52 L2134.32 403.19 L2139.64 398.12 L2144.96 392.42 L2150.28 385.99 L2155.60 378.93 L2160.92 371.63 L2166.24 364.21 L2171.57 356.91 L2176.89 350.22 L2182.21 344.41 L2187.53 339.70 L2192.85 336.73 L2198.17 335.62 L2203.49 336.61 L2208.81 339.95 L2214.01 345.89 L2219.33 354.55 L2224.65 365.82 L2229.97 379.92 L2235.30 396.63 L2240.62 415.81 L2245.94 437.35 L2251.26 460.86 L2256.58 486.11 L2261.90 512.71 L2267.22 540.31 L2272.55 568.40 L2277.87 596.49 L2283.19 623.97 L2288.51 650.57 L2293.83 675.57 L2299.15 698.59 L2304.47 719.26 L2309.79 737.20 L2315.11 752.30 L2320.44 764.55 L2325.76 773.83 L2331.08 780.39 L2336.40 784.72 L2341.72 786.95 L2347.04 787.82 L2352.36 787.69 L2357.68 787.20 L2363.01 786.70 L2368.33 786.83 L2373.65 787.82 L2378.97 790.04 L2384.29 793.51 L2389.61 798.34 L2394.93 804.52 L2400.26 812.07 L2405.58 820.86 L2410.90 830.51 L2416.22 841.16 L2421.54 852.42 L2426.86 864.30 L2432.18 876.67 L2437.50 889.54 L2442.82 902.91 L2448.15 916.77 L2453.47 931.25 L2458.79 946.35 L2464.11 961.94 L2469.43 978.27 L2474.75 995.10 L2479.95 1012.43 L2485.27 1030.00 L2490.59 1047.82 L2495.91 1065.64 L2501.24 1083.22 L2506.56 1100.42 L2511.88 1116.88 L2517.20 1132.60 L2522.52 1147.45 L2527.84 1161.43 L2533.16 1174.67 L2538.48 1187.17 L2543.80 1199.30 L2549.13 1211.18 L2554.45 1223.06 L2559.77 1235.43 L2565.09 1248.55 L2570.41 1262.54 L2575.73 1277.51 L2581.05 1293.85 L2586.38 1311.42 L2591.70 1330.23 L2597.02 1350.15 L2602.34 1371.07 L2607.66 1392.85 L2612.98 1415.37 L2618.30 1438.39 L2623.62 1461.90 L2628.95 1485.79 L2634.27 1509.92 L2639.59 1534.30 L2644.91 1559.05 L2650.23 1584.17 L2655.55 1609.67 L2660.87 1635.53 L2666.19 1661.89 L2671.51 1688.75 L2676.84 1715.97 L2682.16 1743.32 L2687.48 1770.79 L2692.80 1797.90 L2698.12 1824.50 L2703.44 1850.24 L2708.76 1874.75 L2714.09 1897.52 L2719.41 1918.43 L2724.73 1937.00 L2730.05 1952.84 L2735.37 1966.08 L2740.57 1976.35 L2745.89 1983.65 L2751.21 1987.98 L2756.53 1989.71 L2761.85 1988.85 L2767.17 1985.75 L2772.49 1980.93 L2777.82 1974.37 L2783.14 1966.82 L2788.46 1958.53 L2793.78 1949.74 L2799.10 1941.08 L2804.42 1932.54 L2809.74 1924.50 L2815.07 1917.32 L2820.39 1910.88 L2825.71 1905.56 L2831.03 1901.35 L2836.35 1898.38 L2841.67 1896.65 L2846.99 1896.28 L2852.31 1897.39 L2857.64 1899.75 L2862.96 1903.71 L2868.28 1909.03 L2873.60 1915.71 L2878.92 1923.63 L2884.24 1932.91 L2889.56 1943.31 L2894.88 1954.57 L2900.20 1966.57 L2905.53 1979.07 L2910.85 1991.69 L2916.17 2004.32 L2921.49 2016.45 L2926.81 2027.95 L2932.13 2038.35 L2937.45 2047.51 L2942.78 2055.06 L2948.10 2061.00 L2953.42 2065.08 L2958.74 2067.18 L2964.06 2067.56 L2969.38 2066.19 L2974.70 2063.35 L2980.02 2059.39 L2985.34 2054.56 L2990.67 2049.36 L2995.99 2044.04 L3001.31 2039.34 L3006.51 2035.38 L3011.83 2032.66 L3017.15 2031.42 L3022.47 2031.91 L3027.79 2034.14 L3033.11 2038.10 L3038.43 2043.67 L3043.76 2050.73 L3049.08 2059.02 L3054.40 2068.17 L3059.72 2077.70 L3065.04 2087.48 L3070.36 2097.13 L3075.68 2106.29 L3081.00 2114.71 L3086.32 2122.26 L3091.65 2128.69 L3096.97 2134.01 L3102.29 2138.10 L3107.61 2141.19 L3112.93 2143.05 L3118.25 2144.04 L3123.57 2144.28 L3128.89 2143.79 L3134.22 2142.80 L3139.54 2141.56 L3144.86 2140.08 L3150.18 2138.71 L3155.50 2137.48 L3160.82 2136.49 L3166.14 2135.87 L3171.47 2135.74 L3176.79 2135.99 L3182.11 2136.86 L3187.43 2138.10 L3192.75 2139.83 L3198.07 2141.93 L3203.39 2144.28 L3208.71 2146.76 L3214.03 2149.36 L3219.36 2151.96 L3224.68 2154.55 L3230.00 2156.91 L3235.32 2159.13 L3240.64 2161.11 L3245.96 2162.85 L3251.28 2164.46 L3256.61 2165.69 L3261.93 2166.81 L3267.12 2167.67 L3272.45 2168.29 L3277.77 2168.91 L3283.09 2169.28 L3288.41 2169.65 L3293.73 2169.78 L3299.05 2170.02" stroke-linecap="round" stroke-linejoin="round" style="fill:none;stroke:#505050;stroke-width:8.64"/>
	<path d=" M454.04 2170.15 L459.86 2170.15 L465.67 2170.15 L471.49 2170.02 L477.30 2170.02 L483.12 2169.90 L488.94 2169.78 L494.75 2169.65 L500.57 2169.53 L506.38 2169.41 L512.20 2169.16 L518.02 2169.03 L523.83 2168.79 L529.65 2168.54 L535.47 2168.29 L541.28 2167.92 L547.10 2167.55 L552.91 2167.18 L558.73 2166.81 L564.55 2166.31 L570.36 2165.82 L576.18 2165.32 L582.00 2164.70 L587.81 2164.08 L593.63 2163.47 L599.45 2162.85 L605.26 2162.23 L611.08 2161.49 L616.89 2160.74 L622.71 2160.12 L628.53 2159.38 L634.34 2158.64 L640.16 2157.90 L645.98 2157.28 L651.79 2156.66 L657.61 2156.04 L663.42 2155.42 L669.24 2154.93 L675.06 2154.43 L680.87 2154.06 L686.69 2153.81 L692.50 2153.44 L698.32 2153.32 L704.14 2153.19 L709.95 2153.19 L715.77 2153.32 L721.59 2153.44 L727.40 2153.69 L733.22 2153.94 L739.03 2154.31 L744.85 2154.68 L750.67 2155.17 L756.48 2155.79 L762.30 2156.41 L768.12 2157.03 L773.93 2157.65 L779.75 2158.39 L785.57 2159.01 L791.38 2159.75 L797.20 2160.50 L803.01 2161.11 L808.83 2161.86 L814.65 2162.60 L820.46 2163.22 L826.28 2163.84 L832.10 2164.46 L837.91 2164.95 L843.73 2165.57 L849.54 2165.94 L855.36 2166.44 L861.18 2166.81 L866.99 2167.18 L872.81 2167.55 L878.63 2167.80 L884.44 2168.04 L890.26 2168.29 L896.07 2168.42 L901.89 2168.54 L907.71 2168.66 L913.52 2168.66 L919.34 2168.66 L925.15 2168.54 L930.97 2168.54 L936.79 2168.42 L942.60 2168.17 L948.42 2168.04 L954.24 2167.80 L960.05 2167.43 L965.87 2167.05 L971.68 2166.68 L977.50 2166.31 L983.32 2165.82 L989.13 2165.32 L994.95 2164.83 L1000.77 2164.21 L1006.58 2163.59 L1012.40 2162.97 L1018.22 2162.35 L1024.03 2161.61 L1029.85 2160.99 L1035.66 2160.25 L1041.48 2159.50 L1047.30 2158.76 L1053.11 2158.14 L1058.93 2157.40 L1064.74 2156.78 L1070.56 2156.16 L1076.38 2155.54 L1082.19 2155.05 L1088.01 2154.55 L1093.83 2154.18 L1099.64 2153.81 L1105.46 2153.44 L1111.28 2153.32 L1117.09 2153.19 L1122.91 2153.07 L1128.72 2153.07 L1134.54 2153.19 L1140.36 2153.32 L1146.17 2153.56 L1151.99 2153.94 L1157.81 2154.31 L1163.62 2154.68 L1169.44 2155.05 L1175.25 2155.54 L1181.07 2156.04 L1186.89 2156.53 L1192.70 2157.03 L1198.52 2157.40 L1204.34 2157.90 L1210.15 2158.27 L1215.97 2158.64 L1221.78 2158.89 L1227.60 2159.13 L1233.42 2159.26 L1239.23 2159.26 L1245.05 2159.13 L1250.87 2158.89 L1256.68 2158.51 L1262.50 2158.14 L1268.31 2157.52 L1274.13 2156.78 L1279.95 2155.79 L1285.76 2154.80 L1291.58 2153.56 L1297.39 2152.20 L1303.21 2150.72 L1309.03 2149.11 L1314.84 2147.38 L1320.66 2145.40 L1326.48 2143.42 L1332.29 2141.31 L1338.11 2139.09 L1343.92 2136.73 L1349.74 2134.38 L1355.56 2131.91 L1361.37 2129.56 L1367.19 2127.08 L1373.01 2124.61 L1378.82 2122.26 L1384.64 2119.90 L1390.45 2117.68 L1396.27 2115.57 L1402.09 2113.47 L1407.90 2111.61 L1413.72 2109.76 L1419.54 2108.15 L1425.35 2106.79 L1431.17 2105.42 L1436.98 2104.31 L1442.80 2103.32 L1448.62 2102.58 L1454.43 2101.84 L1460.25 2101.22 L1466.07 2100.72 L1471.88 2100.35 L1477.70 2099.86 L1483.52 2099.36 L1489.33 2098.87 L1495.15 2098.12 L1500.96 2097.38 L1506.78 2096.27 L1512.60 2094.78 L1518.41 2093.05 L1524.23 2090.82 L1530.05 2088.22 L1535.86 2084.88 L1541.68 2081.05 L1547.49 2076.59 L1553.31 2071.27 L1559.13 2065.20 L1564.94 2058.40 L1570.76 2050.60 L1576.58 2042.06 L1582.39 2032.53 L1588.21 2022.01 L1594.02 2010.63 L1599.84 1998.25 L1605.66 1985.01 L1611.47 1970.78 L1617.29 1955.68 L1623.11 1939.84 L1628.92 1923.14 L1634.74 1905.69 L1640.55 1887.62 L1646.37 1868.81 L1652.19 1849.50 L1658.00 1829.70 L1663.82 1809.41 L1669.63 1788.86 L1675.45 1767.95 L1681.27 1746.91 L1687.08 1725.62 L1692.90 1704.21 L1698.72 1682.81 L1704.53 1661.40 L1710.35 1640.11 L1716.16 1618.70 L1721.98 1597.54 L1727.80 1576.50 L1733.61 1555.59 L1739.43 1534.92 L1745.25 1514.38 L1751.06 1493.96 L1757.00 1473.78 L1762.82 1453.86 L1768.63 1434.06 L1774.45 1414.51 L1780.27 1395.08 L1786.08 1375.90 L1791.90 1356.96 L1797.72 1338.15 L1803.53 1319.59 L1809.35 1301.27 L1815.16 1283.20 L1820.98 1265.26 L1826.80 1247.69 L1832.61 1230.24 L1838.43 1213.16 L1844.25 1196.20 L1850.06 1179.62 L1855.88 1163.29 L1861.69 1147.07 L1867.51 1131.23 L1873.33 1115.52 L1879.14 1100.17 L1884.96 1084.83 L1890.78 1069.73 L1896.59 1054.75 L1902.41 1039.90 L1908.22 1025.05 L1914.04 1010.20 L1919.86 995.35 L1925.67 980.50 L1931.49 965.40 L1937.31 950.31 L1943.12 934.96 L1948.94 919.49 L1954.76 903.77 L1960.57 887.81 L1966.39 871.72 L1972.20 855.26 L1978.02 838.56 L1983.84 821.73 L1989.65 804.65 L1995.47 787.45 L2001.29 770.00 L2007.10 752.55 L2012.92 734.97 L2018.73 717.40 L2024.55 699.95 L2030.37 682.63 L2036.18 665.42 L2042.00 648.47 L2047.82 631.89 L2053.63 615.55 L2059.45 599.71 L2065.26 584.37 L2071.08 569.64 L2076.90 555.41 L2082.71 541.79 L2088.53 528.80 L2094.34 516.67 L2100.16 505.29 L2105.98 494.64 L2111.79 484.87 L2117.61 475.96 L2123.43 467.91 L2129.24 460.74 L2135.06 454.55 L2140.88 449.23 L2146.69 445.02 L2152.51 441.68 L2158.32 439.33 L2164.14 437.96 L2169.96 437.72 L2175.77 438.34 L2181.59 439.94 L2187.41 442.67 L2193.22 446.26 L2199.04 450.84 L2204.85 456.28 L2210.67 462.72 L2216.49 470.02 L2222.30 478.06 L2228.12 486.97 L2233.93 496.62 L2239.75 506.90 L2245.57 517.79 L2251.38 529.30 L2257.20 541.18 L2263.02 553.55 L2268.83 566.30 L2274.65 579.17 L2280.47 592.41 L2286.28 605.65 L2292.10 619.14 L2297.91 632.51 L2303.73 646.00 L2309.55 659.24 L2315.36 672.48 L2321.18 685.60 L2326.99 698.59 L2332.81 711.34 L2338.63 723.84 L2344.44 736.34 L2350.26 748.59 L2356.08 760.59 L2361.89 772.60 L2367.71 784.35 L2373.53 796.11 L2379.34 807.87 L2385.16 819.50 L2390.97 831.25 L2396.79 843.01 L2402.61 854.77 L2408.42 866.77 L2414.24 878.78 L2420.05 891.03 L2425.87 903.53 L2431.69 916.15 L2437.50 929.14 L2443.32 942.26 L2449.14 955.75 L2454.95 969.49 L2460.77 983.47 L2466.59 997.70 L2472.40 1012.31 L2478.22 1027.16 L2484.03 1042.38 L2489.85 1057.85 L2495.67 1073.56 L2501.48 1089.53 L2507.30 1105.86 L2513.11 1122.45 L2518.93 1139.40 L2524.75 1156.48 L2530.56 1174.05 L2536.38 1191.75 L2542.20 1209.82 L2548.01 1228.13 L2553.83 1246.70 L2559.64 1265.63 L2565.46 1284.81 L2571.28 1304.24 L2577.09 1323.92 L2582.91 1343.97 L2588.73 1364.14 L2594.54 1384.56 L2600.36 1405.35 L2606.18 1426.14 L2611.99 1447.18 L2617.81 1468.34 L2623.62 1489.50 L2629.44 1510.79 L2635.26 1531.95 L2641.07 1553.11 L2646.89 1574.15 L2652.70 1595.06 L2658.52 1615.61 L2664.34 1635.90 L2670.15 1655.83 L2675.97 1675.38 L2681.79 1694.31 L2687.60 1712.75 L2693.42 1730.57 L2699.24 1747.65 L2705.05 1764.11 L2710.87 1779.70 L2716.68 1794.55 L2722.50 1808.66 L2728.32 1821.78 L2734.13 1834.16 L2739.95 1845.67 L2745.76 1856.31 L2751.58 1866.08 L2757.40 1875.12 L2763.21 1883.41 L2769.03 1890.84 L2774.85 1897.64 L2780.66 1903.83 L2786.48 1909.40 L2792.30 1914.47 L2798.11 1919.05 L2803.93 1923.38 L2809.74 1927.22 L2815.56 1930.81 L2821.38 1934.27 L2827.19 1937.49 L2833.01 1940.71 L2838.82 1943.93 L2844.64 1947.02 L2850.46 1950.11 L2856.27 1953.33 L2862.09 1956.67 L2867.91 1960.14 L2873.72 1963.60 L2879.54 1967.32 L2885.36 1971.03 L2891.17 1974.99 L2896.99 1978.95 L2902.80 1983.03 L2908.62 1987.12 L2914.44 1991.32 L2920.25 1995.53 L2926.07 1999.86 L2931.89 2004.07 L2937.70 2008.28 L2943.52 2012.49 L2949.33 2016.69 L2955.15 2020.78 L2960.97 2024.86 L2966.78 2028.82 L2972.60 2032.78 L2978.41 2036.62 L2984.23 2040.45 L2990.05 2044.17 L2995.86 2047.76 L3001.68 2051.34 L3007.50 2054.93 L3013.31 2058.52 L3019.13 2061.99 L3024.95 2065.45 L3030.76 2068.92 L3036.58 2072.38 L3042.39 2075.85 L3048.21 2079.31 L3054.03 2082.65 L3059.84 2086.00 L3065.66 2089.34 L3071.47 2092.68 L3077.29 2096.02 L3083.11 2099.24 L3088.92 2102.45 L3094.74 2105.55 L3100.56 2108.52 L3106.37 2111.49 L3112.19 2114.33 L3118.01 2117.18 L3123.82 2119.90 L3129.64 2122.50 L3135.45 2124.98 L3141.27 2127.33 L3147.09 2129.68 L3152.90 2131.78 L3158.72 2133.89 L3164.53 2135.87 L3170.35 2137.85 L3176.17 2139.58 L3181.98 2141.44 L3187.80 2143.05 L3193.62 2144.65 L3199.43 2146.14 L3205.25 2147.62 L3211.07 2149.11 L3216.88 2150.47 L3222.70 2151.71 L3228.51 2153.07 L3234.33 2154.18 L3240.15 2155.42 L3245.96 2156.53 L3251.78 2157.52 L3257.59 2158.64 L3263.41 2159.50 L3269.23 2160.50 L3275.04 2161.36 L3280.86 2162.23 L3286.68 2162.97 L3292.49 2163.71 L3298.31 2164.33 L3304.13 2164.95 L3309.94 2165.57 L3315.76 2166.19 L3321.57 2166.68 L3327.39 2167.05 L3333.21 2167.43 L3339.02 2167.80 L3344.84 2168.17 L3350.66 2168.54 L3356.47 2168.79 L3362.29 2169.03 L3368.10 2169.16 L3373.92 2169.41 L3379.74 2169.53 L3385.55 2169.65 L3391.37 2169.78 L3397.18 2169.90 L3403.00 2170.02 L3408.82 2170.02 L3414.63 2170.15 L3420.45 2170.15 L3426.27 2170.15" stroke-linecap="round" stroke-linejoin="round" style="fill:none;stroke:#000000;stroke-width:8.64"/>
	<line x1="390.80" y1="2233.63" x2="390.80" y2="100.86" style="stroke:#000000;stroke-width:5.76"/>
	<line x1="390.80" y1="2170.27" x2="350.83" y2="2170.27" style="stroke:#000000;stroke-width:5.76"/>
	<text x="300.72" y="2170.27" style="font-family:'Helvetica';font-size:99.99px;fill:#000000" transform="rotate(-90 300.72,2170.27)" text-anchor="middle">0</text>
	<line x1="390.80" y1="1501.63" x2="350.83" y2="1501.63" style="stroke:#000000;stroke-width:5.76"/>
	<text x="300.72" y="1501.63" style="font-family:'Helvetica';font-size:99.99px;fill:#000000" transform="rotate(-90 300.72,1501.63)" text-anchor="middle">2</text>
	<line x1="390.80" y1="832.86" x2="350.83" y2="832.86" style="stroke:#000000;stroke-width:5.76"/>
	<text x="300.72" y="832.86" style="font-family:'Helvetica';font-size:99.99px;fill:#000000" transform="rotate(-90 300.72,832.86)" text-anchor="middle">4</text>
	<line x1="390.80" y1="164.22" x2="350.83" y2="164.22" style="stroke:#000000;stroke-width:5.76"/>
	<text x="300.72" y="164.22" style="font-family:'Helvetica';font-size:99.99px;fill:#000000" transform="rotate(-90 300.72,164.22)" text-anchor="middle">6</text>
	<text x="190.71" y="1167.25" style="font-family:'Helvetica';font-size:99.99px;fill:#000000" transform="rotate(-90 190.71,1167.25)" text-anchor="middle">Density</text>
	<line x1="390.80" y1="2233.63" x2="3859.02" y2="2233.63" style="stroke:#000000;stroke-width:5.76"/>
	<line x1="588.18" y1="2233.63" x2="588.18" y2="2273.73" style="stroke:#000000;stroke-width:5.76"/>
	<text x="588.18" y="2363.59" style="font-family:'Helvetica';font-size:99.99px;fill:#000000" text-anchor="middle">-.4</text>
	<line x1="1390.08" y1="2233.63" x2="1390.08" y2="2273.73" style="stroke:#000000;stroke-width:5.76"/>
	<text x="1390.08" y="2363.59" style="font-family:'Helvetica';font-size:99.99px;fill:#000000" text-anchor="middle">-.2</text>
	<line x1="2191.98" y1="2233.63" x2="2191.98" y2="2273.73" style="stroke:#000000;stroke-width:5.76"/>
	<text x="2191.98" y="2363.59" style="font-family:'Helvetica';font-size:99.99px;fill:#000000" text-anchor="middle">0</text>
	<line x1="2993.88" y1="2233.63" x2="2993.88" y2="2273.73" style="stroke:#000000;stroke-width:5.76"/>
	<text x="2993.88" y="2363.59" style="font-family:'Helvetica';font-size:99.99px;fill:#000000" text-anchor="middle">.2</text>
	<line x1="3795.66" y1="2233.63" x2="3795.66" y2="2273.73" style="stroke:#000000;stroke-width:5.76"/>
	<text x="3795.66" y="2363.59" style="font-family:'Helvetica';font-size:99.99px;fill:#000000" text-anchor="middle">.4</text>
	<text x="2124.91" y="2473.60" style="font-family:'Helvetica';font-size:99.99px;fill:#000000" text-anchor="middle">IV estimates</text>
	<rect x="864.39" y="2558.24" width="2521.16" height="186.37" style="fill:#FFFFFF"/>
	<rect x="867.27" y="2561.12" width="2515.40" height="180.61" style="fill:none;stroke:#000000;stroke-width:5.76"/>
	<line x1="907.58" y1="2651.43" x2="1281.93" y2="2651.43" style="stroke:#A0A0A0;stroke-width:8.64"/>
	<line x1="1814.42" y1="2651.43" x2="2188.77" y2="2651.43" style="stroke:#505050;stroke-width:8.64"/>
	<line x1="2662.98" y1="2651.43" x2="3037.32" y2="2651.43" style="stroke:#000000;stroke-width:8.64"/>
	<text x="1341.94" y="2686.46" style="font-family:'Helvetica';font-size:99.99px;fill:#000000">φ = .25</text>
	<text x="2248.78" y="2686.46" style="font-family:'Helvetica';font-size:99.99px;fill:#000000">φ = .5</text>
	<text x="3097.34" y="2686.46" style="font-family:'Helvetica';font-size:99.99px;fill:#000000">φ = 1</text>
</svg>
